<svg width="50" height="66" viewBox="0 0 50 66" fill="none" xmlns="http://www.w3.org/2000/svg">
<g clip-path="url(#clip0_2079_19736)">
<path d="M33.02 7.81C35.11 8.58 36.65 9.61 37.97 10.67C41.89 14.23 42.99 18.22 42.92 23.21C42.81 28.64 40.54 32.05 37.97 34.61C36.54 36.04 34.85 37.18 33.02 38.02V7.81ZM37.97 42.61C43.62 39.2 49.23 32.93 49.52 23.51C49.67 12.95 44.31 6.42 37.97 2.98C34.16 0.99 29.83 0 26.53 0V46.27C28.99 46.27 33.31 45.43 37.97 42.61Z" fill="#14AE5C"/>
<path d="M8.78 41.32C9.48 42.02 10.47 42.6 11.46 43.19C14.43 45.06 18.35 46.23 23.01 46.45V23.06H16.37V38.17C14.39 37.18 12.7 36.04 11.46 34.61C4.97 27.79 5.96 17.52 11.46 11.55C14.14 8.54004 18.54 6.89004 22.86 6.86004V0.0400391C18.09 0.110039 14.54 1.43004 11.42 3.12004C9.59 4.11004 7.9 5.24004 6.62 6.53004C2 11.07 0.0199966 17.2 0.0199966 23.76C0.0199966 29.48 2.99 37.03 8.78 41.32Z" fill="#14AE5C"/>
<path d="M38.85 58.3401C38.52 58.5201 38.15 58.6301 37.68 58.7401C37.17 58.8501 36.58 58.8901 35.92 58.8901C35.44 58.8901 35 58.8501 34.6 58.7801C34.27 58.7401 33.94 58.6701 33.65 58.5601C33.43 58.4901 33.25 58.4101 33.1 58.3401C32.99 58.2701 32.92 58.2701 32.92 58.2301L32.66 56.8701C32.77 57.0201 32.99 57.1301 33.32 57.2401C33.61 57.3501 33.94 57.4601 34.31 57.5301C35.12 57.7101 35.81 57.8201 36.47 57.8201C36.76 57.8201 36.98 57.7801 37.13 57.7101C37.31 57.6001 37.31 57.4901 37.13 57.3401C37.06 57.3001 36.95 57.2701 36.76 57.2301C36.65 57.1901 36.43 57.1901 36.17 57.1601H35.99L35.48 57.1201C35.22 57.0801 34.97 57.0501 34.78 57.0101C34.3 56.9001 33.9 56.7901 33.57 56.6401C33.28 56.5301 33.09 56.3801 32.95 56.2001C32.84 56.0501 32.73 55.9101 32.69 55.7201C32.65 55.6101 32.65 55.4301 32.65 55.2401C32.65 55.0901 32.69 54.9501 32.76 54.8401C32.87 54.6601 33.02 54.5101 33.24 54.4001C33.5 54.2501 33.83 54.1101 34.23 54.0301C34.71 53.9201 35.29 53.8501 35.95 53.8501C36.39 53.8501 36.79 53.8501 37.2 53.8901C37.53 53.9301 37.82 53.9601 38.12 54.0001C38.23 54.0401 38.34 54.0401 38.45 54.0701C38.52 54.0701 38.6 54.1101 38.67 54.1101C38.78 54.1501 38.85 54.1501 38.85 54.1501L39.11 55.3601C39.11 55.3601 39.07 55.3201 38.96 55.2901L38.45 55.1101C38.19 55.0401 37.86 54.9601 37.53 54.9301C37.13 54.8601 36.69 54.8601 36.21 54.8201C35.4 54.7801 35.04 54.8901 35.04 55.1101C35.04 55.2901 35.26 55.4401 35.74 55.5101L36.25 55.5801C36.29 55.5801 36.32 55.5801 36.36 55.5801L36.65 55.6201L37.27 55.6901C38.19 55.8001 38.85 55.9801 39.18 56.2401C39.55 56.5001 39.73 56.8301 39.69 57.3401C39.69 57.7101 39.4 58.0401 38.85 58.3401ZM31.85 56.5001C31.63 56.7601 31.3 56.9401 30.9 57.0501C30.5 57.1601 30.06 57.2301 29.51 57.2301C29 57.2301 28.48 57.1901 27.9 57.1201L27.83 56.6101L28.16 56.6501C28.42 56.6901 28.67 56.6501 28.89 56.6501C29.22 56.6101 29.48 56.5001 29.66 56.3601C29.88 56.1801 29.99 55.9201 29.99 55.6301C29.99 55.4501 29.92 55.2601 29.73 55.1501C29.58 55.0401 29.4 54.9701 29.11 54.9301C28.89 54.8901 28.63 54.8601 28.34 54.8601H27.97H27.64L27.6 55.7001C27.56 56.1001 27.56 56.5101 27.56 56.8401C27.56 57.2801 27.56 57.6501 27.6 57.9801C27.64 58.3501 27.67 58.6001 27.75 58.7501H25.29C25.36 58.4601 25.4 58.0901 25.44 57.6501C25.48 57.2501 25.48 56.8101 25.48 56.3301C25.48 55.3001 25.41 54.5001 25.33 53.9501H29.77C30.61 53.9501 31.24 54.1001 31.64 54.3501C32.01 54.6101 32.19 54.9701 32.19 55.4901C32.21 55.8801 32.1 56.2501 31.85 56.5001ZM24.48 58.7401H18.17C18.28 58.0801 18.32 57.3101 18.32 56.3601C18.32 55.8501 18.32 55.4101 18.28 55.0001C18.24 54.5601 18.21 54.1901 18.13 53.9401H24.18L24.62 55.1901C24.29 55.0801 23.92 55.0101 23.56 54.9701C23.23 54.9301 22.86 54.9001 22.46 54.8601C22.13 54.8201 21.8 54.8201 21.43 54.8201C21.14 54.8201 20.84 54.8201 20.55 54.8601L20.51 56.1401L20.77 55.6601C21.03 55.5901 21.36 55.5501 21.72 55.5101C22.01 55.5101 22.31 55.5101 22.64 55.5101C22.86 55.5101 23.12 55.5501 23.34 55.5801C23.52 55.6201 23.6 55.6201 23.6 55.6201L23.93 56.7201C23.64 56.5701 23.31 56.4601 22.94 56.4301C22.61 56.3901 22.28 56.3601 21.95 56.3601C21.66 56.3601 21.36 56.4001 21.11 56.4301C20.89 56.4701 20.71 56.5001 20.56 56.5401V57.8601C21.33 57.9001 22.1 57.9001 22.87 57.7901C23.71 57.6801 24.45 57.5301 25.07 57.2801L24.48 58.7401ZM17.14 57.7101C17.18 58.1501 17.21 58.4801 17.29 58.7401H14.83C14.87 58.5601 14.9 58.3001 14.9 58.0101C14.94 57.7501 14.94 57.5001 14.94 57.2001C14.94 56.9801 14.94 56.7601 14.94 56.5401V56.2801C14.28 56.0201 13.55 56.1001 12.74 56.4301C12.74 56.6901 12.74 56.9101 12.74 57.1301C12.74 57.3901 12.74 57.6101 12.78 57.7901C12.82 58.2701 12.85 58.6001 12.93 58.7801H10.47C10.54 58.4901 10.58 58.1201 10.62 57.6801C10.66 57.2801 10.66 56.8001 10.66 56.3201C10.66 55.3301 10.59 54.5201 10.51 53.9701H12.97C12.86 54.4801 12.79 55.2201 12.79 56.1701L13.01 55.4701C13.01 55.4701 13.08 55.4701 13.19 55.4301C13.26 55.4301 13.34 55.3901 13.41 55.3901L13.67 55.3501C13.89 55.3101 14.11 55.3501 14.33 55.3501C14.59 55.3901 14.81 55.4201 14.99 55.5301C14.99 55.1301 14.95 54.8301 14.95 54.5801C14.91 54.2901 14.88 54.0701 14.84 53.9601H17.3C17.19 54.5101 17.12 55.3201 17.12 56.3801C17.11 56.8701 17.11 57.3101 17.14 57.7101ZM43.69 48.5801C42.15 48.5801 40.28 48.5801 38.3 48.4301C32.87 48.2801 26.79 48.7201 25.06 53.1201C22.49 48.5701 16.66 48.1301 11.53 48.2801C9.7 48.4301 7.83 48.4301 6.4 48.4301L0.459999 61.1601C3.58 62.0001 7.57 62.8101 11.57 61.5301C16.41 59.8101 21.58 58.8501 25.14 63.9901C25.4 63.7001 25.73 63.2901 26.09 62.9601C30.09 58.9601 34.19 59.7001 38.34 61.2401C42.19 62.6701 45.75 62.0101 49.16 61.1701L43.69 48.5801Z" fill="#14AE5C"/>
<path d="M24.99 65.5998H24.95C24.8 65.5998 24.69 65.5298 24.62 65.4198C21.47 60.8698 17.18 61.2398 11.71 63.1798C7.6 64.4998 3.46 63.6898 0.339999 62.8098C0.0799986 62.7398 -0.0600015 62.4798 0.00999853 62.2198C0.0799985 61.9598 0.339999 61.8198 0.599999 61.8898C3.79 62.7698 7.6 63.4998 11.42 62.2598C16.37 60.4998 21.43 59.5798 25.1 64.4198C25.32 64.2398 25.54 64.0198 25.72 63.8298C29.97 59.5798 34.37 60.4198 38.48 61.9998C42.26 63.3898 45.74 62.7298 49 61.8898C49.26 61.8198 49.51 61.9598 49.59 62.2198C49.66 62.4798 49.52 62.7298 49.26 62.7698C45.85 63.6098 42.22 64.3498 38.19 62.8398C33.79 61.1498 30.09 60.7898 26.46 64.4498C26.28 64.6698 25.98 64.9298 25.73 65.1498C25.62 65.2598 25.51 65.3298 25.4 65.4398C25.25 65.5198 25.14 65.5998 24.99 65.5998Z" fill="#14AE5C"/>
</g>
<defs>
<clipPath id="clip0_2079_19736">
<rect width="49.61" height="65.6" fill="white"/>
</clipPath>
</defs>
</svg>
