<svg width="89" height="72" viewBox="0 0 89 72" fill="none" xmlns="http://www.w3.org/2000/svg">
<path d="M83.32 3.34008C83.32 3.34008 83.58 30.3401 83.58 34.2001C83.32 40.1101 79.21 64.0301 74.07 71.7401L78.17 72.0001C78.17 72.0001 83.31 53.2301 84.08 40.8901C83.31 46.8001 78.42 70.9801 78.42 70.9801H85.11C85.11 70.9801 86.65 15.6901 86.4 2.58008C84.09 4.37008 83.32 3.34008 83.32 3.34008Z" fill="#F5B21A"/>
<path d="M81.26 27.26C81.26 27.26 82.29 24.17 84.6 25.72C86.66 24.43 88.46 26.75 86.91 28.03C89.74 27.52 89.74 31.89 86.65 31.63C85.36 32.92 80.22 33.94 80.99 30.6C79.97 29.31 79.2 27.77 81.26 27.26Z" fill="#F5B21A"/>
<path d="M0 39.6C0 39.6 22.63 24.69 30.34 0C34.71 0.77 52.71 4.63 86.65 0.51C83.82 10.28 80.48 27.77 55.28 41.91C38.57 46.02 36.77 47.82 36.77 47.82L0 39.6Z" fill="#4F86C6"/>
<path d="M3.09 40.1101C3.09 40.1101 26.23 27.0001 32.92 5.14012C36.78 5.91012 54.78 8.23012 85.38 4.37012C82.55 13.1101 76.64 31.3701 52.21 42.1701C37.3 45.7701 35.75 47.3101 35.75 47.3101L3.09 40.1101Z" fill="#1563A2"/>
<path d="M23.91 35.7399C23.91 35.7399 30.08 25.7099 46.28 20.5699C62.48 15.4299 67.62 25.1999 67.62 25.1999L70.96 60.1699C70.96 60.1699 42.42 66.0799 25.7 60.1699C23.91 46.5399 23.91 35.7399 23.91 35.7399Z" fill="#1563A2"/>
<path d="M64.0302 61.71C63.2602 51.68 62.4902 32.14 65.3202 22.11C62.2302 19.8 56.5802 17.74 46.8102 20.57C44.2402 21.6 41.9202 22.37 39.8702 23.4C40.9002 33.17 42.7002 53.49 41.1602 62.74C49.3702 63.26 58.1202 62.49 64.0302 61.71Z" fill="#4F86C6"/>
<path d="M49.12 38.3101C38.06 40.1101 28.81 45.7701 24.69 48.6001C24.95 50.9101 25.2 53.7401 25.46 56.8301C42.69 55.2901 64.03 55.5401 70.72 55.8001L68.92 38.8301C65.83 37.8001 59.4 36.5101 49.12 38.3101Z" fill="#F5B21A"/>
</svg>
