<svg width="26" height="12" viewBox="0 0 26 12" fill="none" xmlns="http://www.w3.org/2000/svg">
<path d="M23.93 0.76001L23.82 0.27002C24.42 0.13002 24.99 0.04 25.51 0L25.55 0.5L25.59 1C25.13 1.03 24.61 1.12 24.05 1.25L23.93 0.76001ZM18.71 2.56L18.52 2.10001C19.6 1.65001 20.64 1.24 21.62 0.910004L21.78 1.38L21.94 1.85001C20.99 2.17001 19.97 2.57002 18.9 3.02002L18.71 2.56ZM13.68 4.86002L13.46 4.41C14.46 3.93 15.46 3.45 16.45 3L16.66 3.45999L16.87 3.92001C15.89 4.36001 14.9 4.84001 13.9 5.32001L13.68 4.86002ZM8.72 7.30002L8.5 6.85001C9.46 6.38001 10.44 5.89001 11.45 5.39001L11.67 5.84L11.89 6.29001C10.89 6.78001 9.89 7.28 8.94 7.75L8.72 7.30002ZM3.69998 9.64001L3.50998 9.17999C4.40998 8.79999 5.40999 8.34002 6.48999 7.83002L6.70999 8.28L6.92999 8.73001C5.84999 9.25001 4.83 9.71001 3.91 10.1L3.69998 9.64001ZM0.00997925 10.75L0 10.25C0.34 10.25 0.829991 10.15 1.45999 9.95001L1.60999 10.43L1.75998 10.91C1.09998 11.12 0.509989 11.25 0.019989 11.25L0.00997925 10.75Z" fill="#FDC126"/>
</svg>
