<svg width="28" height="43" viewBox="0 0 28 43" fill="none" xmlns="http://www.w3.org/2000/svg">
<path d="M26.31 40.67L26.72 40.39C27.03 40.85 27.31 41.26 27.55 41.6L27.14 41.88L26.73 42.16C26.49 41.81 26.21 41.41 25.9 40.94L26.31 40.67ZM23.53 36.57L23.94 36.29C24.54 37.18 25.1 38.01 25.61 38.75L25.2 39.03L24.79 39.31C24.28 38.57 23.72 37.74 23.12 36.85L23.53 36.57ZM20.76 32.46L21.18 32.18C21.75 33.04 22.31 33.86 22.84 34.64L22.43 34.92L22.02 35.2C21.49 34.42 20.94 33.59 20.36 32.74L20.76 32.46ZM18.01 28.35L18.43 28.07C18.99 28.91 19.54 29.74 20.08 30.54L19.66 30.82L19.24 31.1C18.7 30.3 18.15 29.47 17.59 28.63L18.01 28.35ZM15.28 24.22L15.7 23.94C16.25 24.77 16.8 25.6 17.33 26.41L16.91 26.69L16.49 26.97C15.95 26.16 15.4 25.33 14.85 24.5L15.28 24.22ZM12.56 20.08L12.98 19.81C13.52 20.64 14.06 21.47 14.6 22.29L14.18 22.56L13.76 22.83C13.22 22 12.68 21.18 12.14 20.35L12.56 20.08ZM9.87997 15.93L10.3 15.66C10.83 16.48 11.36 17.32 11.91 18.15L11.49 18.42L11.07 18.69C10.53 17.85 9.98999 17.02 9.45999 16.2L9.87997 15.93ZM7.22 11.75L7.63998 11.48C8.15998 12.3 8.68998 13.14 9.22998 13.99L8.81 14.26L8.38998 14.53C7.84998 13.68 7.31999 12.84 6.79999 12.02L7.22 11.75ZM4.62 7.53998L5.04999 7.28C5.53999 8.09 6.05998 8.94 6.59998 9.81L6.17999 10.07L5.75998 10.33C5.21998 9.45999 4.69998 8.60999 4.19998 7.79999L4.62 7.53998ZM2.09998 3.28L2.53 3.03C2.98 3.83 3.47999 4.67999 4.01999 5.57999L3.59 5.84L3.15997 6.09998C2.61997 5.18998 2.11997 4.34 1.65997 3.53L2.09998 3.28ZM0.449982 0.22998L0.899994 0C1.09999 0.4 1.32998 0.829978 1.56998 1.28998L1.12997 1.53L0.689972 1.76999C0.439972 1.29999 0.21 0.859991 0 0.459991L0.449982 0.22998Z" fill="#FDC126"/>
</svg>
