<svg width="47" height="38" viewBox="0 0 47 38" fill="none" xmlns="http://www.w3.org/2000/svg">
<path d="M45.75 20.73L45.44 20.33C45.72 20.11 45.97 19.91 46.18 19.72L46.51 20.09L46.84 20.46C46.61 20.67 46.34 20.89 46.05 21.12L45.75 20.73ZM9.95001 37.27L9.97 36.77C10.22 36.78 10.54 36.76 10.92 36.7L10.99 37.19L11.06 37.68C10.64 37.74 10.26 37.77 9.93002 37.76L9.95001 37.27ZM9.5 36.4L9.95001 36.18C10.1 36.49 10.24 36.77 10.38 37.01L9.95001 37.26L9.52002 37.51C9.36002 37.24 9.21002 36.94 9.05002 36.61L9.5 36.4ZM0.490021 0.0899963C0.980021 -3.66569e-06 0.980011 0 0.980011 0V0.0100098C0.980011 0.0200098 0.980021 0.0399976 0.990021 0.0599976C1.00002 0.0999976 1.01002 0.160021 1.02002 0.240021C1.05002 0.400021 1.08999 0.630002 1.14999 0.940002L0.660004 1.03L0.170013 1.12C0.110013 0.819995 0.0700085 0.580013 0.0400085 0.420013C0.0300085 0.340013 0.0100098 0.280021 0.0100098 0.240021C0.0100098 0.220021 0 0.200002 0 0.190002C0 0.180002 0 0.179993 0 0.179993C0 0.179993 2.07424e-05 0.179996 0.490021 0.0899963ZM9.95001 37.27L9.93002 37.77C9.76002 37.76 9.60001 37.67 9.51001 37.52L9.95001 37.27Z" fill="#EAF3D9"/>
</svg>
