<svg width="12" height="6" viewBox="0 0 12 6" fill="none" xmlns="http://www.w3.org/2000/svg">
<path d="M10.09 4.21002L10.49 3.91C10.76 4.26 11 4.64002 11.21 5.02002L10.77 5.26001L10.33 5.5C10.15 5.16 9.92998 4.83001 9.69998 4.51001L10.09 4.21002ZM6.94998 1.58002L7.17999 1.14001C7.95999 1.55001 8.68999 2.05001 9.32999 2.64001L8.98999 3.01001L8.64999 3.38C8.06999 2.85 7.41999 2.39003 6.70999 2.03003L6.94998 1.58002ZM3 0.5L3.01999 0C3.89999 0.04 4.76999 0.200001 5.60999 0.470001L5.45999 0.950012L5.31 1.43002C4.56 1.19002 3.77999 1.04001 2.98999 1.01001L3 0.5ZM0.160004 0.890015L0 0.420013C0.43 0.280013 0.859978 0.180016 1.28998 0.110016L1.37 0.600006L1.44998 1.09003C1.06998 1.15003 0.689998 1.24002 0.309998 1.36002L0.160004 0.890015Z" fill="#FDC126"/>
</svg>
