<svg width="3" height="23" viewBox="0 0 3 23" fill="none" xmlns="http://www.w3.org/2000/svg">
<path d="M2.13 20.9L2.63 20.97C2.54 21.66 2.38 22.27 2.12 22.75L1.67999 22.51L1.23999 22.27C1.41999 21.93 1.55998 21.45 1.63998 20.83L2.13 20.9ZM2.00998 15.25L2.50998 15.2C2.62998 16.43 2.70998 17.58 2.72998 18.61L2.22998 18.62L1.72998 18.63C1.70998 17.64 1.62998 16.52 1.50998 15.3L2.00998 15.25ZM1.37 9.62003L1.87 9.56C2.01 10.71 2.14999 11.84 2.26999 12.92L1.76999 12.98L1.26999 13.04C1.14999 11.96 1.01 10.84 0.869995 9.69L1.37 9.62003ZM0.75 3.99002L1.25 3.95001C1.35 5.06001 1.47 6.19002 1.59 7.30002L1.09 7.36002L0.589996 7.42001C0.459996 6.30001 0.33999 5.17002 0.23999 4.05002L0.75 3.99002ZM0.5 0.0200195L1 0C1.02 0.55 1.04999 1.11001 1.07999 1.67001L0.579987 1.70001L0.0799866 1.73001C0.0399866 1.16001 0.02 0.589999 0 0.0299988L0.5 0.0200195Z" fill="#FDC126"/>
</svg>
