<svg width="7" height="29" viewBox="0 0 7 29" fill="none" xmlns="http://www.w3.org/2000/svg">
<path d="M5.39001 27.17L5.80002 26.88C6.08002 27.27 6.36999 27.6 6.67999 27.85L6.36002 28.24L6.04001 28.63C5.65001 28.31 5.30001 27.91 4.98001 27.46L5.39001 27.17ZM3.48001 22.72L3.95999 22.59C4.22999 23.58 4.54001 24.47 4.89001 25.26L4.42999 25.46L3.97 25.66C3.6 24.82 3.26999 23.87 2.98999 22.85L3.48001 22.72ZM2.48999 17.97L2.98001 17.89C3.14001 18.87 3.31001 19.82 3.51001 20.72L3.02002 20.83L2.53 20.94C2.33 20.02 2.14999 19.05 1.98999 18.06L2.48999 17.97ZM1.86002 13.15L2.36002 13.1C2.46002 14.06 2.58001 15.03 2.70001 15.97L2.20001 16.04L1.70001 16.11C1.57001 15.15 1.46001 14.18 1.35001 13.21L1.86002 13.15ZM1.39001 8.31L1.89001 8.26999C1.97001 9.21999 2.06 10.18 2.16 11.16L1.66 11.21L1.16 11.26C1.07 10.28 0.980015 9.30999 0.890015 8.35999L1.39001 8.31ZM0.940002 3.47L1.44 3.41998C1.54 4.32998 1.63 5.29998 1.72 6.31998L1.22 6.35999L0.720001 6.39999C0.630001 5.38999 0.540002 4.41999 0.440002 3.51999L0.940002 3.47ZM0.5 0.0899963L0.98999 0C1.06999 0.45 1.13999 0.939991 1.20999 1.45999L0.709991 1.53L0.209991 1.60001C0.139991 1.09001 0.07 0.619993 0 0.179993L0.5 0.0899963Z" fill="#D4E7B2"/>
</svg>
