<svg width="16" height="13" viewBox="0 0 16 13" fill="none" xmlns="http://www.w3.org/2000/svg">
<path d="M14.68 1.57001L14.22 1.37C14.42 0.919995 14.59 0.46 14.74 0L15.22 0.160004L15.7 0.320007C15.54 0.810007 15.36 1.29 15.15 1.78L14.68 1.57001ZM12 5.88L11.62 5.56C12.27 4.8 12.83 4.00001 13.32 3.17001L13.75 3.42001L14.18 3.67001C13.67 4.55001 13.07 5.40001 12.38 6.20001L12 5.88ZM8.16998 9.21002L7.89999 8.79001C8.74999 8.25001 9.51998 7.65 10.23 7L10.57 7.37L10.91 7.74002C10.17 8.42002 9.34998 9.06 8.44998 9.63L8.16998 9.21002ZM3.56 11.35L3.41 10.87C4.38 10.56 5.28998 10.19 6.13998 9.77002L6.35999 10.22L6.57999 10.67C5.68999 11.11 4.72999 11.5 3.70999 11.82L3.56 11.35ZM0.0799866 12.16L0 11.67C0.5 11.59 0.979991 11.5 1.45999 11.4L1.57001 11.89L1.67999 12.38C1.18999 12.49 0.680004 12.58 0.160004 12.66L0.0799866 12.16Z" fill="#D4E7B2"/>
</svg>
