<svg width="16" height="12" viewBox="0 0 16 12" fill="none" xmlns="http://www.w3.org/2000/svg">
<path d="M14.56 10.36L15.06 10.34C15.08 10.79 15.07 11.25 15.04 11.69L14.54 11.66L14.04 11.63C14.06 11.21 14.07 10.79 14.06 10.37L14.56 10.36ZM13.68 6.16999L14.14 5.98001C14.49 6.82001 14.73 7.70001 14.88 8.60001L14.39 8.68L13.9 8.76001C13.76 7.93001 13.54 7.11999 13.22 6.35999L13.68 6.16999ZM11.19 2.70001L11.51 2.32001C12.23 2.93001 12.83 3.63 13.32 4.4L12.9 4.66999L12.48 4.94C12.04 4.25 11.51 3.63 10.87 3.09L11.19 2.70001ZM7.36002 0.82001L7.47 0.329989C8.42 0.549989 9.27 0.87999 10.03 1.29999L9.79001 1.73999L9.55002 2.18C8.87002 1.81 8.11002 1.51 7.24002 1.31L7.36002 0.82001ZM3.08002 0.56L3.04001 0.06C4.00001 -0.02 4.90001 -0.02 5.73001 0.06L5.69 0.56L5.64999 1.06C4.86999 0.99 4.03 0.99 3.12 1.06L3.08002 0.56ZM0.110016 1.03L0 0.540011C0.45 0.440011 0.889998 0.350001 1.31 0.280001L1.39001 0.769991L1.47 1.26001C1.06 1.33001 0.640022 1.41001 0.210022 1.51001L0.110016 1.03Z" fill="#FDC126"/>
</svg>
