<svg width="35" height="18" viewBox="0 0 35 18" fill="none" xmlns="http://www.w3.org/2000/svg">
<path d="M32.55 1.17999L32.33 0.72998C32.85 0.46998 33.32 0.23 33.73 0L33.97 0.440002L34.21 0.880005C33.78 1.12 33.3 1.37 32.77 1.63L32.55 1.17999ZM27.68 3.44998L27.48 2.98999C28.52 2.52999 29.5 2.07998 30.39 1.66998L30.6 2.12L30.81 2.57001C29.91 2.99001 28.93 3.43999 27.88 3.89999L27.68 3.44998ZM22.76 5.60999L22.56 5.14999C23.57 4.70999 24.55 4.28 25.5 3.87L25.7 4.32999L25.9 4.79001C24.95 5.21001 23.96 5.63999 22.96 6.07999L22.76 5.60999ZM17.83 7.75998L17.63 7.29999C18.61 6.86999 19.6 6.43998 20.57 6.00998L20.77 6.47L20.97 6.92999C20 7.34999 19.02 7.78 18.04 8.22L17.83 7.75998ZM12.93 9.97L12.72 9.51999C13.68 9.07999 14.66 8.63 15.65 8.19L15.85 8.64999L16.05 9.10999C15.07 9.54999 14.09 9.98999 13.13 10.43L12.93 9.97ZM8.07999 12.29L7.85999 11.84C8.77999 11.38 9.75001 10.9 10.76 10.43L10.97 10.88L11.18 11.33C10.18 11.8 9.22 12.27 8.31 12.73L8.07999 12.29ZM3.35999 14.88L3.10001 14.45C3.94001 13.93 4.88 13.39 5.91 12.85L6.14999 13.29L6.38998 13.73C5.37998 14.27 4.45 14.8 3.63 15.3L3.35999 14.88ZM0.359985 17.14L0 16.8C0.34 16.44 0.77001 16.07 1.26001 15.7L1.56 16.1L1.85999 16.5C1.38999 16.85 1.01 17.19 0.720001 17.49L0.359985 17.14Z" fill="#FDC126"/>
</svg>
