<svg width="61" height="3" viewBox="0 0 61 3" fill="none" xmlns="http://www.w3.org/2000/svg">
<path d="M59.24 2.25L59.26 1.75C59.79 1.77 60.29 1.78001 60.77 1.79001L60.76 2.29001L60.75 2.79001C60.27 2.78001 59.76 2.77 59.23 2.75L59.24 2.25ZM54.19 2.04001L54.21 1.54001C55.28 1.59001 56.3 1.64001 57.25 1.67001L57.23 2.17001L57.21 2.67001C56.25 2.63001 55.23 2.59001 54.16 2.54001L54.19 2.04001ZM49.13 1.79001L49.16 1.29001C50.2 1.34001 51.22 1.40001 52.2 1.45001L52.17 1.95001L52.14 2.45001C51.16 2.40001 50.14 2.35001 49.1 2.29001L49.13 1.79001ZM44.07 1.52002L44.1 1.02002C45.13 1.08002 46.15 1.12999 47.14 1.17999L47.11 1.67999L47.08 2.17999C46.09 2.12999 45.07 2.07002 44.04 2.02002L44.07 1.52002ZM39.02 1.25L39.05 0.75C40.07 0.8 41.09 0.850004 42.09 0.910004L42.06 1.41L42.03 1.91C41.03 1.86 40.02 1.8 38.99 1.75L39.02 1.25ZM33.96 1.01001L33.98 0.51001C35 0.56001 36.01 0.610004 37.02 0.660004L37 1.16L36.98 1.66C35.97 1.61 34.96 1.56001 33.94 1.51001L33.96 1.01001ZM28.9 0.790009L28.92 0.290009C29.93 0.330009 30.95 0.370013 31.96 0.420013L31.94 0.920013L31.92 1.42001C30.91 1.38001 29.89 1.33001 28.88 1.29001L28.9 0.790009ZM23.85 0.619995L23.86 0.119995C24.87 0.149995 25.88 0.180001 26.9 0.220001L26.88 0.720001L26.86 1.22C25.84 1.18 24.83 1.15 23.82 1.12L23.85 0.619995ZM18.78 0.51001L18.79 0.0100098C19.79 0.0200098 20.81 0.0399976 21.84 0.0599976L21.83 0.559998L21.82 1.06C20.79 1.04 19.77 1.02001 18.78 1.01001V0.51001ZM13.72 0.51001L13.71 0.0100098C14.7 9.76585e-06 15.72 0 16.76 0V0.5V1C15.72 1 14.71 1.00001 13.72 1.01001V0.51001ZM8.65002 0.660004L8.62003 0.160004C9.59003 0.110004 10.61 0.0700183 11.68 0.0500183L11.69 0.550018L11.7 1.05002C10.64 1.08002 9.63001 1.11 8.67001 1.16L8.65002 0.660004ZM3.61002 1.11002L3.54001 0.619995C4.46001 0.489995 5.49001 0.380009 6.60001 0.290009L6.64001 0.790009L6.68002 1.29001C5.59002 1.38001 4.58 1.48002 3.69 1.61002L3.61002 1.11002ZM0.180023 1.91L0 1.44C0.44 1.27 0.94001 1.12002 1.51001 0.990021L1.62003 1.48001L1.73001 1.97C1.20001 2.09 0.740006 2.23 0.350006 2.38L0.180023 1.91Z" fill="#D4E7B2"/>
</svg>
