<svg width="12" height="43" viewBox="0 0 12 43" fill="none" xmlns="http://www.w3.org/2000/svg">
<path d="M10.53 40.47L11.02 40.56C10.92 41.1 10.79 41.6 10.61 42.05L10.15 41.87L9.69 41.69C9.84 41.32 9.96002 40.89 10.05 40.39L10.53 40.47ZM10.68 35.67L11.18 35.64C11.25 36.7 11.26 37.69 11.22 38.59L10.72 38.57L10.22 38.55C10.26 37.69 10.24 36.74 10.18 35.7L10.68 35.67ZM10.13 30.88L10.62 30.8C10.78 31.8 10.91 32.77 11.01 33.7L10.51 33.75L10.01 33.8C9.91001 32.89 9.78 31.93 9.62 30.95L10.13 30.88ZM9.23001 26.15L9.72 26.04C9.93 27.01 10.12 27.97 10.3 28.9L9.81 28.99L9.32001 29.08C9.15001 28.15 8.96 27.21 8.75 26.25L9.23001 26.15ZM8.11002 21.47L8.59 21.34C8.84 22.29 9.07001 23.23 9.29001 24.17L8.80002 24.28L8.31 24.39C8.09 23.46 7.86 22.52 7.62 21.58L8.11002 21.47ZM6.82001 16.84L7.30002 16.7C7.58002 17.63 7.84001 18.56 8.10001 19.5L7.62 19.63L7.14001 19.76C6.88001 18.83 6.62 17.9 6.34 16.98L6.82001 16.84ZM5.37 12.25L5.84 12.09C6.14 13 6.43999 13.92 6.73999 14.86L6.26001 15.01L5.78 15.16C5.49 14.23 5.19001 13.31 4.89001 12.41L5.37 12.25ZM3.76001 7.70999L4.23001 7.53C4.56001 8.41 4.90001 9.31999 5.23001 10.27L4.76001 10.44L4.29001 10.61C3.96001 9.66999 3.63002 8.76998 3.30002 7.88998L3.76001 7.70999ZM1.92999 3.25998L2.39001 3.04999C2.76001 3.87999 3.15 4.77999 3.53 5.73999L3.07001 5.92999L2.61002 6.12C2.23002 5.17 1.85001 4.28 1.48001 3.47L1.92999 3.25998ZM0.440002 0.25L0.880005 0C1.1 0.39 1.33001 0.829978 1.57001 1.28998L1.11002 1.51999L0.660004 1.73999C0.430004 1.28999 0.21 0.86999 0 0.48999L0.440002 0.25Z" fill="#D4E7B2"/>
</svg>
