<svg width="19" height="19" viewBox="0 0 19 19" fill="none" xmlns="http://www.w3.org/2000/svg">
<path d="M17.71 1.54999L17.23 1.39999C17.38 0.939994 17.48 0.47 17.53 0L18.03 0.0499878L18.53 0.0999756C18.47 0.649976 18.36 1.17998 18.19 1.69998L17.71 1.54999ZM15.02 5.85999L14.65 5.51999C15.35 4.74999 15.95 3.95999 16.43 3.14999L16.86 3.39999L17.29 3.64999C16.77 4.52999 16.13 5.38 15.39 6.19L15.02 5.85999ZM11.24 9.29999L10.93 8.90997C11.74 8.26997 12.52 7.61998 13.24 6.94998L13.58 7.31998L13.92 7.69C13.17 8.38 12.37 9.04998 11.55 9.69998L11.24 9.29999ZM7.11002 12.34L6.82001 11.93C7.64001 11.35 8.48002 10.75 9.30002 10.14L9.60001 10.54L9.90002 10.94C9.07002 11.56 8.22002 12.16 7.40002 12.74L7.11002 12.34ZM2.99002 15.38L2.68002 14.99C3.44002 14.38 4.28 13.76 5.16 13.13L5.45001 13.54L5.74002 13.95C4.87002 14.58 4.05002 15.19 3.30002 15.78L2.99002 15.38ZM0.390015 17.84L0 17.53C0.32 17.14 0.679996 16.75 1.09 16.37L1.43002 16.73L1.77002 17.09C1.39002 17.46 1.05002 17.81 0.77002 18.16L0.390015 17.84Z" fill="#FDC126"/>
</svg>
