<svg width="30" height="10" viewBox="0 0 30 10" fill="none" xmlns="http://www.w3.org/2000/svg">
<path d="M28.01 7.74109L28.4 7.43106C28.72 7.83106 28.99 8.23108 29.23 8.66108L28.79 8.90107L28.35 9.14109C28.15 8.77109 27.9 8.41107 27.62 8.06107L28.01 7.74109ZM24.5 4.74109L24.77 4.32108C25.62 4.85108 26.4 5.43108 27.08 6.04108L26.75 6.41108L26.42 6.78107C25.79 6.21107 25.05 5.67108 24.25 5.16108L24.5 4.74109ZM20.35 2.68106L20.53 2.21106C21.43 2.56106 22.3 2.96108 23.12 3.38108L22.89 3.82108L22.66 4.26108C21.87 3.85108 21.03 3.47108 20.16 3.13108L20.35 2.68106ZM15.92 1.30109L16.03 0.811069C16.95 1.03107 17.87 1.28109 18.76 1.58109L18.6 2.06107L18.44 2.54108C17.57 2.26108 16.68 2.01109 15.79 1.80109L15.92 1.30109ZM11.34 0.581089L11.38 0.0810886C12.31 0.151089 13.25 0.271074 14.2 0.441074L14.11 0.931064L14.02 1.42109C13.1 1.26109 12.19 1.14108 11.29 1.07108L11.34 0.581089ZM6.70999 0.681064L6.63998 0.181064C7.54998 0.0510642 8.51001 -0.00892846 9.51001 0.00107154V0.501072V1.00107C8.56001 1.00107 7.64001 1.05109 6.79001 1.17109L6.70999 0.681064ZM2.38 2.22107L2.09 1.81107C2.85 1.27107 3.75999 0.861079 4.76999 0.571079L4.91 1.05109L5.04999 1.53107C4.12999 1.80107 3.31998 2.16107 2.66998 2.62107L2.38 2.22107ZM0.47998 4.77109L0 4.62107C0.16 4.11107 0.389983 3.65108 0.669983 3.23108L1.07999 3.51108L1.48999 3.79108C1.25999 4.13108 1.06998 4.50108 0.949982 4.91108L0.47998 4.77109Z" fill="#D4E7B2"/>
</svg>
