<svg width="43" height="48" viewBox="0 0 43 48" fill="none" xmlns="http://www.w3.org/2000/svg">
<path fill-rule="evenodd" clip-rule="evenodd" d="M5.55105 47.61L25.3411 45.32C30.7911 44.46 35.381 41.59 38.531 37.86C41.681 33.84 43.4111 28.68 42.8311 23.23L40.251 3.15C31.361 8.03 24.1911 14.33 18.4511 21.5C12.1411 29.54 7.84105 38.72 5.55105 47.61ZM37.9611 0L17.6011 2.58001C12.1511 3.15001 7.56105 6.02 4.41105 10.04C1.26105 14.06 -0.468951 19.22 0.111049 24.67L2.69105 43.88C5.27105 35.28 9.29105 26.96 15.311 19.22C21.321 11.76 28.7811 5.16 37.9611 0Z" fill="#73BF44"/>
</svg>
