<svg width="46" height="23" viewBox="0 0 46 23" fill="none" xmlns="http://www.w3.org/2000/svg">
<path d="M44.37 21.69L44.53 21.22C45.02 21.39 45.49 21.55 45.97 21.71L45.81 22.18L45.65 22.65C45.17 22.49 44.69 22.33 44.2 22.16L44.37 21.69ZM39.58 20L39.75 19.53C40.72 19.88 41.67 20.22 42.61 20.55L42.44 21.02L42.27 21.49C41.33 21.16 40.37 20.82 39.4 20.46L39.58 20ZM34.83 18.21L35.01 17.74C35.96 18.11 36.92 18.47 37.86 18.82L37.69 19.29L37.52 19.76C36.57 19.41 35.62 19.05 34.66 18.68L34.83 18.21ZM30.1 16.35L30.29 15.89C31.23 16.27 32.18 16.65 33.12 17.02L32.94 17.49L32.76 17.96C31.81 17.59 30.87 17.21 29.92 16.83L30.1 16.35ZM25.41 14.41L25.61 13.95C26.54 14.35 27.48 14.74 28.42 15.13L28.23 15.59L28.04 16.05C27.1 15.66 26.15 15.27 25.22 14.87L25.41 14.41ZM20.76 12.38L20.96 11.92C21.88 12.33 22.81 12.74 23.74 13.15L23.54 13.61L23.34 14.07C22.4 13.66 21.46 13.25 20.54 12.84L20.76 12.38ZM16.15 10.25L16.37 9.80002C17.27 10.23 18.19 10.66 19.12 11.09L18.91 11.54L18.7 11.99C17.76 11.56 16.83 11.13 15.93 10.7L16.15 10.25ZM11.6 8L11.83 7.56003C12.7 8.01003 13.61 8.47002 14.54 8.93002L14.32 9.38L14.1 9.83002C13.16 9.37002 12.25 8.91001 11.37 8.45001L11.6 8ZM7.14001 5.55002L7.39001 5.12003C8.21001 5.60003 9.1 6.10002 10.03 6.61002L9.79001 7.05002L9.55002 7.49002C8.60002 6.98002 7.71 6.48002 6.87 5.99002L7.14001 5.55002ZM2.89999 2.76001L3.20999 2.36002C3.90999 2.90002 4.73999 3.47001 5.67999 4.07001L5.41 4.49002L5.14001 4.91C4.18001 4.3 3.32 3.71002 2.59 3.15002L2.89999 2.76001ZM0.440002 0.240021L0.880005 0C1.05 0.31 1.33001 0.670017 1.73001 1.08002L1.37 1.43002L1.01001 1.78C0.57001 1.34 0.23 0.900011 0 0.480011L0.440002 0.240021Z" fill="#FDC126"/>
</svg>
