<svg width="28" height="43" viewBox="0 0 28 43" fill="none" xmlns="http://www.w3.org/2000/svg">
<path d="M26.3 40.66L26.71 40.38C27.02 40.84 27.3 41.25 27.54 41.59L27.13 41.87L26.72 42.15C26.48 41.8 26.2 41.4 25.89 40.93L26.3 40.66ZM23.52 36.56L23.93 36.28C24.53 37.17 25.09 38 25.6 38.74L25.19 39.02L24.78 39.3C24.27 38.56 23.71 37.73 23.11 36.84L23.52 36.56ZM20.75 32.46L21.17 32.18C21.74 33.04 22.3 33.86 22.83 34.64L22.42 34.92L22.01 35.2C21.48 34.42 20.93 33.59 20.35 32.74L20.75 32.46ZM18 28.35L18.42 28.07C18.98 28.91 19.53 29.74 20.07 30.54L19.65 30.82L19.23 31.1C18.69 30.3 18.14 29.47 17.58 28.63L18 28.35ZM15.27 24.22L15.69 23.94C16.24 24.77 16.79 25.6 17.32 26.41L16.9 26.69L16.48 26.97C15.94 26.16 15.39 25.33 14.84 24.5L15.27 24.22ZM12.56 20.08L12.98 19.81C13.52 20.64 14.06 21.47 14.6 22.29L14.18 22.56L13.76 22.83C13.22 22 12.68 21.18 12.14 20.35L12.56 20.08ZM9.87 15.93L10.29 15.66C10.82 16.48 11.35 17.32 11.9 18.15L11.48 18.42L11.06 18.69C10.52 17.85 9.97998 17.02 9.44998 16.2L9.87 15.93ZM7.20999 11.75L7.63 11.48C8.15 12.3 8.68 13.14 9.22 13.99L8.79999 14.26L8.38 14.53C7.84 13.68 7.30998 12.84 6.78998 12.02L7.20999 11.75ZM4.60999 7.53L5.03998 7.27002C5.52998 8.08002 6.05 8.93002 6.59 9.80002L6.16998 10.06L5.75 10.32C5.21 9.45001 4.69 8.60001 4.19 7.79001L4.60999 7.53ZM2.10001 3.28L2.53 3.03C2.98 3.83 3.47999 4.68002 4.01999 5.58002L3.59 5.84L3.16 6.10001C2.62 5.19001 2.12 4.34 1.66 3.53L2.10001 3.28ZM0.449982 0.230011L0.899994 0C1.09999 0.4 1.32998 0.830009 1.56998 1.29001L1.13 1.53L0.690002 1.77002C0.440002 1.30002 0.21 0.859991 0 0.459991L0.449982 0.230011Z" fill="#D4E7B2"/>
</svg>
