<svg width="9" height="19" viewBox="0 0 9 19" fill="none" xmlns="http://www.w3.org/2000/svg">
<path d="M6.91 1.40002L6.55002 1.06C6.91002 0.679998 7.27 0.33 7.63 0L7.96002 0.370026L8.29001 0.740021C7.95001 1.05002 7.61002 1.38002 7.27002 1.74002L6.91 1.40002ZM3.90002 5.34L3.48001 5.08002C4.02001 4.21002 4.60001 3.38003 5.20001 2.62003L5.59003 2.93002L5.98001 3.24002C5.40001 3.97002 4.84001 4.77002 4.32001 5.61002L3.90002 5.34ZM1.70001 9.78L1.23001 9.60001C1.58001 8.66001 2.00002 7.74002 2.46002 6.86002L2.90002 7.09L3.34003 7.32001C2.90003 8.17001 2.5 9.06002 2.16 9.96002L1.70001 9.78ZM0.540009 14.6L0.0400085 14.55C0.130009 13.56 0.330027 12.56 0.590027 11.57L1.07001 11.7L1.55002 11.83C1.30002 12.77 1.12 13.71 1.03 14.64L0.540009 14.6ZM0.660004 18.08L0.170013 18.17C0.0800134 17.67 0.02 17.16 0 16.64L0.5 16.61L1 16.58C1.02 17.05 1.08 17.52 1.16 17.98L0.660004 18.08Z" fill="#FDC126"/>
</svg>
