<svg width="49" height="72" viewBox="0 0 49 72" fill="none" xmlns="http://www.w3.org/2000/svg">
<path d="M47.79 1.59L47.31 1.44C47.47 0.900002 47.61 0.42 47.73 0L48.21 0.130005L48.69 0.26001C48.57 0.69001 48.43 1.18 48.27 1.72L47.79 1.59ZM46.15 6.39001L45.68 6.21002C46.07 5.17002 46.41 4.21002 46.7 3.36002L47.17 3.52002L47.64 3.68002C47.35 4.55002 47 5.51001 46.61 6.57001L46.15 6.39001ZM44.23 11.08L43.77 10.88C44.2 9.9 44.59 8.96002 44.95 8.08002L45.41 8.27002L45.87 8.46002C45.51 9.35002 45.12 10.29 44.68 11.29L44.23 11.08ZM42.11 15.66L41.66 15.44C42.12 14.5 42.55 13.59 42.95 12.71L43.4 12.92L43.85 13.13C43.45 14.01 43.01 14.93 42.55 15.88L42.11 15.66ZM39.8 20.17L39.36 19.93C39.85 19.01 40.32 18.11 40.76 17.24L41.21 17.47L41.66 17.7C41.21 18.58 40.74 19.48 40.25 20.41L39.8 20.17ZM37.33 24.59L36.9 24.34C37.42 23.44 37.92 22.56 38.4 21.7L38.84 21.94L39.28 22.18C38.8 23.05 38.3 23.93 37.77 24.84L37.33 24.59ZM34.72 28.93L34.3 28.67C34.85 27.79 35.37 26.93 35.88 26.08L36.31 26.34L36.74 26.6C36.23 27.45 35.7 28.32 35.15 29.2L34.72 28.93ZM31.98 33.19L31.56 32.91C32.13 32.05 32.68 31.2 33.22 30.37L33.64 30.64L34.06 30.91C33.52 31.75 32.97 32.6 32.39 33.46L31.98 33.19ZM29.11 37.37L28.7 37.08C29.29 36.24 29.87 35.41 30.42 34.59L30.83 34.87L31.24 35.15C30.68 35.97 30.1 36.81 29.51 37.65L29.11 37.37ZM26.15 41.47L25.75 41.17C26.36 40.35 26.96 39.53 27.54 38.72L27.95 39.01L28.36 39.3C27.78 40.11 27.18 40.93 26.56 41.76L26.15 41.47ZM23.07 45.5L22.68 45.19C23.31 44.38 23.93 43.58 24.53 42.79L24.93 43.09L25.33 43.39C24.73 44.19 24.11 44.99 23.47 45.8L23.07 45.5ZM19.91 49.45L19.52 49.13C20.17 48.34 20.81 47.55 21.43 46.77L21.82 47.08L22.21 47.39C21.58 48.17 20.95 48.97 20.29 49.76L19.91 49.45ZM16.66 53.33L16.28 53C16.95 52.22 17.6 51.45 18.24 50.69L18.62 51.01L19 51.33C18.36 52.1 17.7 52.87 17.04 53.65L16.66 53.33ZM13.33 57.15L12.96 56.82C13.64 56.06 14.31 55.3 14.96 54.55L15.34 54.88L15.72 55.21C15.06 55.96 14.39 56.72 13.71 57.49L13.33 57.15ZM9.91 60.9L9.54001 60.56C10.24 59.81 10.93 59.06 11.6 58.32L11.97 58.66L12.34 59C11.66 59.75 10.97 60.5 10.27 61.25L9.91 60.9ZM6.42999 64.57L6.07001 64.22C6.78001 63.48 7.48001 62.75 8.17001 62.02L8.53 62.36L8.89001 62.7C8.20001 63.43 7.49 64.17 6.78 64.91L6.42999 64.57ZM2.88 68.18L2.53 67.83C3.25 67.11 3.97001 66.39 4.67001 65.67L5.03 66.02L5.39001 66.37C4.69001 67.09 3.96999 67.81 3.23999 68.54L2.88 68.18ZM0.350006 70.67L0 70.31C0.37 69.95 0.730006 69.59 1.10001 69.24L1.45001 69.6L1.79999 69.96C1.43999 70.32 1.07001 70.68 0.700012 71.04L0.350006 70.67Z" fill="#EAF3D9"/>
</svg>
