<svg width="7" height="29" viewBox="0 0 7 29" fill="none" xmlns="http://www.w3.org/2000/svg">
<path d="M5.38998 27.17L5.79999 26.88C6.07999 27.27 6.36999 27.6 6.67999 27.85L6.35999 28.24L6.03998 28.63C5.64998 28.31 5.29998 27.91 4.97998 27.46L5.38998 27.17ZM3.47998 22.73L3.95999 22.6C4.22999 23.59 4.53998 24.48 4.88998 25.27L4.42999 25.47L3.97 25.67C3.6 24.83 3.26999 23.88 2.98999 22.86L3.47998 22.73ZM2.47998 17.97L2.97 17.89C3.13 18.87 3.3 19.82 3.5 20.72L3.00998 20.83L2.51999 20.94C2.31999 20.02 2.13998 19.05 1.97998 18.06L2.47998 17.97ZM1.85999 13.15L2.35999 13.1C2.45999 14.06 2.57998 15.03 2.69998 15.97L2.19998 16.04L1.69998 16.11C1.56998 15.15 1.45998 14.18 1.34998 13.21L1.85999 13.15ZM1.38998 8.31L1.88998 8.26999C1.96998 9.21999 2.06 10.18 2.16 11.16L1.66 11.21L1.16 11.26C1.07 10.28 0.979984 9.31002 0.889984 8.36002L1.38998 8.31ZM0.940002 3.47L1.44 3.42001C1.54 4.33001 1.63 5.30001 1.72 6.32001L1.22 6.36002L0.720001 6.39999C0.630001 5.38999 0.540002 4.41999 0.440002 3.51999L0.940002 3.47ZM0.5 0.0899963L0.98999 0C1.06999 0.45 1.13999 0.939991 1.20999 1.45999L0.709991 1.53L0.209991 1.60001C0.139991 1.09001 0.07 0.619993 0 0.179993L0.5 0.0899963Z" fill="#FDC126"/>
</svg>
