<svg width="19" height="4" viewBox="0 0 19 4" fill="none" xmlns="http://www.w3.org/2000/svg">
<path d="M17.38 2.58002L17.24 2.10001C17.68 1.97001 18.13 1.83 18.59 1.66L18.76 2.13L18.93 2.60001C18.45 2.77001 17.98 2.91999 17.52 3.04999L17.38 2.58002ZM12.66 3.39001L12.64 2.89001C13.53 2.85001 14.46 2.74001 15.44 2.54001L15.54 3.03L15.64 3.51999C14.61 3.72999 13.63 3.85001 12.69 3.89001L12.66 3.39001ZM7.89999 2.98001L8 2.48999C8.92 2.68999 9.83998 2.82 10.79 2.88L10.76 3.38L10.73 3.88C9.71998 3.82 8.74998 3.67 7.78998 3.47L7.89999 2.98001ZM3.31 1.61002L3.47998 1.14001C4.40998 1.47001 5.30999 1.77 6.20999 2.03L6.06998 2.51001L5.92999 2.98999C5.00999 2.71999 4.08999 2.42002 3.14999 2.08002L3.31 1.61002ZM0.169983 0.470001L0.339996 0C0.799996 0.17 1.25998 0.34 1.69998 0.5L1.53 0.970001L1.35999 1.44C0.909985 1.28 0.46 1.11 0 0.940002L0.169983 0.470001Z" fill="#FDC126"/>
</svg>
