<svg width="59" height="7" viewBox="0 0 59 7" fill="none" xmlns="http://www.w3.org/2000/svg">
<path d="M56.82 6.29001V5.79001C57.32 5.79001 57.8 5.79001 58.28 5.79001V6.29001V6.79001C57.81 6.79001 57.32 6.79001 56.82 6.79001V6.29001ZM51.95 6.23999L51.96 5.73999C52.96 5.75999 53.94 5.77 54.87 5.78V6.28V6.78C53.93 6.77 52.96 6.75999 51.95 6.73999V6.23999ZM47.06 6.13L47.07 5.63C48.07 5.66 49.05 5.68001 50 5.70001L49.99 6.20001L49.98 6.70001C49.02 6.68001 48.04 6.66 47.04 6.63L47.06 6.13ZM42.18 5.97L42.2 5.47C43.18 5.51 44.16 5.54001 45.12 5.57001L45.1 6.07001L45.08 6.57001C44.12 6.54001 43.14 6.51 42.15 6.47L42.18 5.97ZM37.3 5.76001L37.32 5.26001C38.3 5.31001 39.27 5.34998 40.24 5.38998L40.22 5.88998L40.2 6.38998C39.23 6.34998 38.25 6.31001 37.27 6.26001L37.3 5.76001ZM32.42 5.48999L32.45 4.98999C33.42 5.04999 34.4 5.09999 35.37 5.14999L35.34 5.64999L35.31 6.14999C34.34 6.09999 33.36 6.03999 32.38 5.98999L32.42 5.48999ZM27.55 5.17999L27.59 4.67999C28.56 4.74999 29.53 4.82 30.51 4.88L30.48 5.38L30.45 5.88C29.47 5.82 28.5 5.74999 27.53 5.67999L27.55 5.17999ZM22.68 4.79001L22.72 4.29001C23.68 4.37001 24.65 4.45 25.63 4.53L25.59 5.03L25.55 5.53C24.57 5.45 23.59 5.37001 22.63 5.29001L22.68 4.79001ZM17.82 4.31L17.87 3.81C18.82 3.91 19.79 4.00999 20.78 4.10999L20.73 4.60999L20.68 5.10999C19.69 5.01999 18.71 4.92 17.76 4.81L17.82 4.31ZM12.98 3.72L13.05 3.22C13.98 3.35 14.95 3.47 15.94 3.59L15.88 4.09L15.82 4.59C14.82 4.47 13.85 4.35 12.91 4.22L12.98 3.72ZM8.14999 2.94L8.23999 2.45001C9.13999 2.62001 10.11 2.79 11.12 2.94L11.04 3.42999L10.96 3.92001C9.93999 3.76001 8.96999 3.60001 8.04999 3.42001L8.14999 2.94ZM3.39999 1.81L3.54999 1.32999C4.36999 1.58999 5.29998 1.83 6.34998 2.06L6.23999 2.54999L6.12997 3.04001C5.05997 2.80001 4.1 2.55 3.25 2.28L3.39999 1.81ZM0.319977 0.389984L0.629974 0C0.909974 0.22 1.29 0.440013 1.78 0.670013L1.56998 1.12L1.35999 1.57001C0.819985 1.33001 0.36 1.05999 0 0.769989L0.319977 0.389984Z" fill="#D4E7B2"/>
</svg>
