<svg width="12" height="6" viewBox="0 0 12 6" fill="none" xmlns="http://www.w3.org/2000/svg">
<path d="M10.88 4.44867L11.3 4.18866C11.54 4.57866 11.77 4.98867 11.97 5.41867L11.52 5.62866L11.07 5.83868C10.88 5.43868 10.67 5.05868 10.45 4.70868L10.88 4.44867ZM7.65997 1.33868L7.88998 0.898681C8.72998 1.33868 9.47999 1.92868 10.15 2.64868L9.78 2.98868L9.40997 3.32867C8.81997 2.68867 8.15999 2.16867 7.42999 1.78867L7.65997 1.33868ZM3.26999 0.538666L3.22998 0.0386655C4.23998 -0.0513345 5.18 0.0186582 6.06 0.218658L5.94998 0.708679L5.84 1.19867C5.07 1.01867 4.22998 0.958666 3.31998 1.03867L3.26999 0.538666ZM0.169983 1.23868L0 0.768677C0.45 0.608677 0.899996 0.468683 1.34 0.368683L1.45999 0.848663L1.57999 1.33868C1.17999 1.43868 0.759987 1.56866 0.329987 1.71866L0.169983 1.23868Z" fill="#D4E7B2"/>
</svg>
