<svg width="30" height="10" viewBox="0 0 30 10" fill="none" xmlns="http://www.w3.org/2000/svg">
<path d="M28.01 7.74106L28.4 7.43106C28.72 7.83106 28.99 8.23105 29.23 8.66105L28.79 8.90107L28.35 9.14106C28.15 8.77106 27.9 8.41107 27.62 8.06107L28.01 7.74106ZM24.5 4.74106L24.77 4.32105C25.62 4.85105 26.4 5.43105 27.08 6.04105L26.75 6.41104L26.42 6.78107C25.79 6.21107 25.05 5.67104 24.25 5.16104L24.5 4.74106ZM20.35 2.68106L20.53 2.21106C21.43 2.56106 22.3 2.96105 23.12 3.38105L22.89 3.82105L22.66 4.26105C21.87 3.85105 21.03 3.47105 20.16 3.13105L20.35 2.68106ZM15.92 1.30106L16.03 0.811069C16.95 1.03107 17.87 1.28106 18.76 1.58106L18.6 2.06107L18.44 2.54105C17.57 2.26105 16.68 2.01106 15.79 1.80106L15.92 1.30106ZM11.34 0.581058L11.38 0.0810581C12.31 0.151058 13.25 0.271043 14.2 0.441043L14.11 0.931064L14.02 1.42105C13.1 1.26105 12.19 1.14105 11.29 1.07105L11.34 0.581058ZM6.71002 0.681064L6.64001 0.181064C7.55001 0.0510642 8.51001 -0.00892846 9.51001 0.00107154V0.501072V1.00107C8.56001 1.00107 7.64001 1.05105 6.79001 1.17105L6.71002 0.681064ZM2.38 2.22107L2.09 1.81107C2.85 1.27107 3.76002 0.861048 4.77002 0.571048L4.91 1.05106L5.05002 1.53107C4.13002 1.80107 3.32001 2.16107 2.67001 2.62107L2.38 2.22107ZM0.480011 4.77106L0 4.62107C0.16 4.11107 0.390013 3.65105 0.670013 3.23105L1.08002 3.51105L1.49002 3.79105C1.26002 4.13105 1.07001 4.50104 0.950012 4.91104L0.480011 4.77106Z" fill="#FDC126"/>
</svg>
