<svg width="8" height="17" viewBox="0 0 8 17" fill="none" xmlns="http://www.w3.org/2000/svg">
<path d="M5.92659 1.28L5.5866 0.910004C5.9266 0.600004 6.27661 0.29 6.63661 0L6.95659 0.379974L7.2766 0.759979C6.9266 1.04998 6.59659 1.33998 6.26659 1.63998L5.92659 1.28ZM2.91661 4.64999L2.50661 4.35999C3.03661 3.60999 3.63661 2.88998 4.28661 2.19998L4.64659 2.53998L5.00661 2.87997C4.38661 3.53997 3.81661 4.22999 3.31661 4.92999L2.91661 4.64999ZM0.896593 8.67999L0.416613 8.53998C0.676613 7.63998 1.04659 6.76998 1.51659 5.91998L1.95659 6.16L2.39659 6.39999C1.96659 7.18999 1.6166 7.99 1.3766 8.81L0.896593 8.67999ZM0.656603 13.16L0.166613 13.25C-0.013387 12.28 -0.0434029 11.32 0.0565971 10.38L0.556597 10.43L1.0566 10.48C0.966597 11.33 0.996603 12.19 1.1566 13.06L0.656603 13.16ZM1.7166 16.13L1.2766 16.37C1.0466 15.94 0.846592 15.5 0.676592 15.07L1.14659 14.89L1.61659 14.71C1.76659 15.1 1.94661 15.5 2.16661 15.9L1.7166 16.13Z" fill="#D4E7B2"/>
</svg>
