<svg width="61" height="3" viewBox="0 0 61 3" fill="none" xmlns="http://www.w3.org/2000/svg">
<path d="M59.24 2.25L59.26 1.75C59.79 1.77 60.29 1.77998 60.77 1.78998L60.76 2.28998L60.75 2.78998C60.27 2.77998 59.76 2.77 59.23 2.75L59.24 2.25ZM54.19 2.04999L54.21 1.54999C55.28 1.59999 56.3 1.64999 57.25 1.67999L57.23 2.17999L57.21 2.67999C56.25 2.63999 55.23 2.59999 54.16 2.54999L54.19 2.04999ZM49.13 1.78998L49.16 1.28998C50.2 1.33998 51.22 1.39998 52.2 1.44998L52.17 1.94998L52.14 2.44998C51.16 2.39998 50.14 2.34998 49.1 2.28998L49.13 1.78998ZM44.07 1.51999L44.1 1.01999C45.13 1.07999 46.15 1.12999 47.14 1.17999L47.11 1.67999L47.08 2.17999C46.09 2.12999 45.07 2.06999 44.04 2.01999L44.07 1.51999ZM39.02 1.25L39.05 0.75C40.07 0.8 41.09 0.849973 42.09 0.909973L42.06 1.40997L42.03 1.90997C41.03 1.85997 40.02 1.8 38.99 1.75L39.02 1.25ZM33.96 1.00998L33.98 0.509979C35 0.559979 36.01 0.609973 37.02 0.659973L37 1.15997L36.98 1.65997C35.97 1.60997 34.96 1.55998 33.94 1.50998L33.96 1.00998ZM28.9 0.789978L28.92 0.289978C29.93 0.329978 30.95 0.369983 31.96 0.419983L31.94 0.919983L31.92 1.41998C30.91 1.37998 29.89 1.32998 28.88 1.28998L28.9 0.789978ZM23.84 0.619995L23.85 0.119995C24.86 0.149995 25.87 0.180001 26.89 0.220001L26.87 0.720001L26.85 1.22C25.83 1.18 24.82 1.15 23.81 1.12L23.84 0.619995ZM18.78 0.519989L18.79 0.019989C19.79 0.029989 20.81 0.0499768 21.84 0.0699768L21.83 0.569977L21.82 1.06998C20.79 1.04998 19.77 1.02999 18.78 1.01999V0.519989ZM13.71 0.509979L13.7 0.00997925C14.69 -2.07517e-05 15.71 3.54476e-10 16.75 3.54476e-10V0.5V1C15.71 1 14.7 0.999979 13.71 1.00998V0.509979ZM8.64999 0.659973L8.62 0.159973C9.59 0.109973 10.61 0.0699878 11.68 0.0499878L11.69 0.549988L11.7 1.04999C10.64 1.07999 9.62998 1.10997 8.66998 1.15997L8.64999 0.659973ZM3.60999 1.12L3.54001 0.629974C4.46001 0.499974 5.49001 0.389988 6.60001 0.299988L6.63998 0.799988L6.67999 1.29999C5.58999 1.38999 4.58 1.49 3.69 1.62L3.60999 1.12ZM0.179993 1.90997L0 1.43997C0.44 1.26997 0.94001 1.11999 1.51001 0.98999L1.62 1.47998L1.73001 1.97C1.20001 2.09 0.740006 2.22997 0.350006 2.37997L0.179993 1.90997Z" fill="#FDC126"/>
</svg>
