<svg width="34" height="17" viewBox="0 0 34 17" fill="none" xmlns="http://www.w3.org/2000/svg">
<path d="M31.7 1.30002L31.42 0.880005C31.88 0.570005 32.31 0.28 32.69 0L32.98 0.399994L33.27 0.800018C32.88 1.09002 32.44 1.39001 31.97 1.70001L31.7 1.30002ZM27.24 4.02002L26.99 3.59C27.95 3.04 28.85 2.51001 29.67 2.01001L29.93 2.44L30.19 2.87C29.35 3.38 28.44 3.92 27.48 4.47L27.24 4.02002ZM22.65 6.52002L22.42 6.08002C23.37 5.58002 24.29 5.09001 25.17 4.60001L25.41 5.04001L25.65 5.48001C24.76 5.97001 23.83 6.47 22.88 6.97L22.65 6.52002ZM17.99 8.89001L17.77 8.44C18.71 7.98 19.64 7.51001 20.56 7.04001L20.79 7.49002L21.02 7.94C20.1 8.41 19.16 8.88 18.21 9.34L17.99 8.89001ZM13.27 11.13L13.06 10.68C14 10.25 14.94 9.81002 15.89 9.36002L16.11 9.81L16.33 10.26C15.38 10.71 14.43 11.16 13.49 11.59L13.27 11.13ZM8.48001 13.22L8.29001 12.76C9.22001 12.37 10.18 11.96 11.16 11.53L11.36 11.99L11.56 12.45C10.58 12.88 9.60998 13.3 8.66998 13.69L8.48001 13.22ZM3.60999 15.12L3.44 14.65C4.35 14.33 5.33001 13.96 6.35001 13.55L6.53 14.01L6.70999 14.47C5.66999 14.88 4.68001 15.25 3.76001 15.58L3.60999 15.12ZM0.119995 16.2L0 15.71C0.45 15.6 0.950011 15.46 1.48001 15.3L1.63 15.78L1.78 16.26C1.24 16.43 0.72 16.57 0.25 16.69L0.119995 16.2Z" fill="#EAF3D9"/>
</svg>
