<svg width="30" height="17" viewBox="0 0 30 17" fill="none" xmlns="http://www.w3.org/2000/svg">
<path d="M27.94 1.09L27.71 0.649994L28.95 0L29.18 0.440002L29.41 0.880005L28.17 1.53L27.94 1.09ZM23.81 3.25998L23.58 2.81998L26.06 1.51999L26.29 1.95999L26.52 2.39999L24.04 3.69998L23.81 3.25998ZM19.67 5.41998L19.44 4.97998L21.92 3.67999L22.15 4.12L22.38 4.56L19.9 5.85999L19.67 5.41998ZM15.53 7.57999L15.3 7.13998L17.78 5.84L18.01 6.28L18.24 6.72L15.76 8.01999L15.53 7.57999ZM11.4 9.73999L11.17 9.29999L13.65 8L13.88 8.44L14.11 8.88L11.63 10.18L11.4 9.73999ZM7.25998 11.9L7.03 11.46L9.50998 10.16L9.73999 10.6L9.97 11.04L7.48999 12.34L7.25998 11.9ZM3.13 14.07L2.89999 13.63L5.38 12.33L5.60999 12.77L5.84 13.21L3.35999 14.51L3.13 14.07ZM0.22998 15.58L0 15.14L1.23999 14.49L1.47 14.93L1.69998 15.37L0.459991 16.02L0.22998 15.58Z" fill="#FDC126"/>
</svg>
