<svg width="12" height="43" viewBox="0 0 12 43" fill="none" xmlns="http://www.w3.org/2000/svg">
<path d="M10.51 40.46L11 40.55C10.9 41.09 10.77 41.59 10.59 42.04L10.13 41.86L9.67001 41.68C9.82001 41.31 9.94 40.88 10.03 40.38L10.51 40.46ZM10.67 35.66L11.17 35.63C11.24 36.69 11.25 37.68 11.21 38.58L10.71 38.56L10.21 38.54C10.25 37.68 10.23 36.73 10.17 35.69L10.67 35.66ZM10.12 30.88L10.61 30.8C10.77 31.8 10.9 32.77 11 33.7L10.5 33.75L10 33.8C9.9 32.89 9.77002 31.93 9.61002 30.95L10.12 30.88ZM9.22 26.15L9.71002 26.04C9.92002 27.01 10.11 27.97 10.29 28.9L9.80002 28.99L9.31 29.08C9.14 28.15 8.95002 27.21 8.74002 26.25L9.22 26.15ZM8.10001 21.46L8.58002 21.33C8.83002 22.28 9.06 23.22 9.28 24.16L8.79001 24.27L8.30002 24.38C8.08002 23.45 7.85002 22.51 7.61002 21.57L8.10001 21.46ZM6.81 16.83L7.29001 16.69C7.57001 17.62 7.83 18.55 8.09 19.49L7.61002 19.62L7.13 19.75C6.87 18.82 6.61002 17.89 6.33002 16.97L6.81 16.83ZM5.36002 12.24L5.83002 12.08C6.13002 12.99 6.43001 13.91 6.73001 14.85L6.25 15L5.77002 15.15C5.48002 14.22 5.18 13.3 4.88 12.4L5.36002 12.24ZM3.75 7.69998L4.22 7.51999C4.55 8.39999 4.89 9.30998 5.22 10.26L4.75 10.43L4.28 10.6C3.95 9.65998 3.62001 8.76 3.29001 7.88L3.75 7.69998ZM1.92001 3.25L2.38 3.03998C2.75 3.86998 3.14002 4.76998 3.52002 5.72998L3.06 5.91998L2.60001 6.10999C2.22001 5.15999 1.84 4.26999 1.47 3.45999L1.92001 3.25ZM0.430023 0.25L0.869995 0C1.09 0.39 1.32 0.829978 1.56 1.28998L1.11002 1.50998L0.660004 1.72998C0.430004 1.27998 0.21 0.85998 0 0.47998L0.430023 0.25Z" fill="#FDC126"/>
</svg>
