<svg width="68" height="35" viewBox="0 0 68 35" fill="none" xmlns="http://www.w3.org/2000/svg">
<path d="M65.67 33.81L65.88 33.36C66.39 33.6 66.83 33.81 67.21 33.99L67 34.44L66.79 34.89C66.41 34.71 65.96 34.5 65.46 34.26L65.67 33.81ZM61.15 31.67L61.37 31.22C62.35 31.69 63.26 32.12 64.07 32.5L63.86 32.95L63.65 33.4C62.84 33.01 61.93 32.58 60.95 32.11L61.15 31.67ZM56.63 29.5L56.85 29.05C57.8 29.51 58.71 29.94 59.57 30.35L59.35 30.8L59.13 31.25C58.27 30.84 57.36 30.4 56.41 29.95L56.63 29.5ZM52.13 27.34L52.35 26.89C53.28 27.34 54.18 27.77 55.05 28.19L54.83 28.64L54.61 29.09C53.74 28.67 52.84 28.24 51.91 27.79L52.13 27.34ZM47.63 25.16L47.85 24.71C48.77 25.15 49.67 25.59 50.55 26.02L50.33 26.47L50.11 26.92C49.23 26.49 48.33 26.06 47.41 25.61L47.63 25.16ZM43.14 22.97L43.36 22.52C44.27 22.96 45.17 23.4 46.06 23.84L45.84 24.29L45.62 24.74C44.73 24.31 43.83 23.87 42.92 23.42L43.14 22.97ZM38.65 20.77L38.87 20.32C39.77 20.77 40.67 21.21 41.56 21.64L41.34 22.09L41.12 22.54C40.23 22.1 39.33 21.66 38.43 21.22L38.65 20.77ZM34.17 18.56L34.39 18.11C35.29 18.56 36.18 19 37.08 19.44L36.86 19.89L36.64 20.34C35.75 19.9 34.85 19.45 33.95 19.01L34.17 18.56ZM29.7 16.33L29.92 15.88C30.81 16.33 31.71 16.78 32.6 17.22L32.38 17.67L32.16 18.12C31.26 17.67 30.37 17.23 29.48 16.78L29.7 16.33ZM25.24 14.07L25.47 13.62C26.36 14.07 27.25 14.52 28.15 14.97L27.92 15.42L27.69 15.87C26.79 15.42 25.9 14.97 25.01 14.51L25.24 14.07ZM20.79 11.8L21.02 11.36C21.9 11.81 22.79 12.27 23.69 12.73L23.46 13.18L23.23 13.63C22.33 13.17 21.44 12.71 20.56 12.26L20.79 11.8ZM16.35 9.48999L16.58 9.04999C17.45 9.50999 18.34 9.96997 19.24 10.44L19.01 10.88L18.78 11.32C17.88 10.85 16.99 10.39 16.12 9.92999L16.35 9.48999ZM11.94 7.13998L12.18 6.69998C13.04 7.15998 13.92 7.62999 14.83 8.10999L14.6 8.54999L14.37 8.98999C13.46 8.50999 12.58 8.03998 11.72 7.56998L11.94 7.13998ZM7.55002 4.73999L7.79001 4.29999C8.63001 4.76999 9.51001 5.25 10.42 5.75L10.18 6.18997L9.94 6.62997C9.03 6.12997 8.15002 5.64998 7.30002 5.16998L7.55002 4.73999ZM3.23001 2.25998L3.49002 1.82999C4.29002 2.30999 5.15 2.80999 6.06 3.32999L5.82001 3.75998L5.57001 4.18997C4.65001 3.66997 3.79001 3.15999 2.98001 2.67999L3.23001 2.25998ZM0.27002 0.419983L0.540009 0C0.930009 0.25 1.35001 0.519988 1.79001 0.799988L1.53 1.21997L1.27002 1.63998C0.82002 1.35998 0.4 1.08999 0 0.829987L0.27002 0.419983Z" fill="#EAF3D9"/>
</svg>
