<svg width="12" height="6" viewBox="0 0 12 6" fill="none" xmlns="http://www.w3.org/2000/svg">
<path d="M10.09 4.20999L10.49 3.91C10.76 4.26 11 4.63999 11.21 5.01999L10.77 5.26001L10.33 5.5C10.15 5.16 9.93001 4.83001 9.70001 4.51001L10.09 4.20999ZM6.95001 1.58002L7.17999 1.14001C7.95999 1.55001 8.69002 2.05001 9.33002 2.64001L8.99002 3.01001L8.64999 3.38C8.06999 2.85 7.42002 2.39 6.71002 2.03L6.95001 1.58002ZM3 0.5L3.02002 0C3.90002 0.04 4.77002 0.200001 5.61002 0.470001L5.46002 0.950012L5.31 1.42999C4.56 1.18999 3.78002 1.04001 2.99002 1.01001L3 0.5ZM0.160004 0.890015L0 0.420013C0.43 0.280013 0.860009 0.180016 1.29001 0.110016L1.37 0.600006L1.45001 1.09C1.07001 1.15 0.689998 1.24002 0.309998 1.36002L0.160004 0.890015Z" fill="#D4E7B2"/>
</svg>
