<svg width="12" height="48" viewBox="0 0 12 48" fill="none" xmlns="http://www.w3.org/2000/svg">
<path d="M10.68 45.82L11.15 45.65C11.32 46.13 11.49 46.57 11.66 46.97L11.2 47.16L10.74 47.35C10.57 46.93 10.39 46.48 10.22 45.99L10.68 45.82ZM9.20999 41.21L9.69 41.07C9.97 42.05 10.25 42.97 10.52 43.82L10.04 43.97L9.56 44.12C9.28 43.26 9 42.33 8.72 41.34L9.20999 41.21ZM7.95999 36.54L8.44 36.42C8.68 37.38 8.93001 38.32 9.17001 39.22L8.69 39.35L8.20999 39.48C7.96999 38.58 7.72001 37.64 7.48001 36.67L7.95999 36.54ZM6.82001 31.84L7.31 31.73C7.53 32.69 7.76001 33.63 7.98001 34.54L7.48999 34.66L7 34.78C6.78 33.86 6.54999 32.91 6.32999 31.96L6.82001 31.84ZM5.76001 27.13L6.25 27.02C6.46 27.97 6.67 28.91 6.88 29.84L6.39001 29.95L5.89999 30.06C5.68999 29.13 5.47999 28.18 5.26999 27.23L5.76001 27.13ZM4.75 22.4L5.23999 22.3C5.43999 23.24 5.64 24.19 5.84 25.13L5.35001 25.23L4.85999 25.33C4.65999 24.38 4.46001 23.44 4.26001 22.49L4.75 22.4ZM3.79001 17.66L4.28 17.56C4.47 18.5 4.66001 19.44 4.85001 20.39L4.35999 20.49L3.87 20.59C3.67 19.64 3.47999 18.69 3.29999 17.75L3.79001 17.66ZM2.85999 12.92L3.35001 12.83C3.53001 13.76 3.70999 14.7 3.89999 15.67L3.41 15.77L2.92001 15.87C2.73001 14.9 2.55 13.95 2.37 13.03L2.85999 12.92ZM1.95999 8.17999L2.45001 8.09C2.62001 9 2.80001 9.94999 2.98001 10.93L2.48999 11.02L2 11.11C1.81 10.13 1.62999 9.18002 1.45999 8.27002L1.95999 8.17999ZM1.09 3.41L1.57999 3.32001C1.73999 4.19001 1.91001 5.15001 2.10001 6.17001L1.60999 6.26001L1.12 6.35001C0.929995 5.33001 0.760006 4.37 0.600006 3.5L1.09 3.41ZM0.48999 0.0899963L0.980011 0C1.05001 0.42 1.14001 0.890004 1.23001 1.41L0.73999 1.5L0.25 1.59C0.16 1.07 0.07 0.599993 0 0.179993L0.48999 0.0899963Z" fill="#EAF3D9"/>
</svg>
