<svg width="14" height="37" viewBox="0 0 14 37" fill="none" xmlns="http://www.w3.org/2000/svg">
<path d="M12.63 34.99L13.07 34.74C13.32 35.19 13.57 35.58 13.8 35.91L13.39 36.2L12.98 36.49C12.72 36.12 12.46 35.7 12.19 35.23L12.63 34.99ZM10.6 30.65L11.06 30.46C11.45 31.41 11.83 32.28 12.2 33.06L11.75 33.27L11.3 33.48C10.92 32.68 10.53 31.78 10.13 30.83L10.6 30.65ZM8.88998 26.17L9.35999 26C9.68999 26.93 10.03 27.83 10.36 28.69L9.88998 28.87L9.41998 29.05C9.08998 28.18 8.74998 27.28 8.41998 26.34L8.88998 26.17ZM7.32999 21.63L7.79999 21.47C8.10999 22.39 8.41 23.3 8.72 24.19L8.25 24.35L7.78 24.51C7.47 23.62 7.16001 22.7 6.85001 21.78L7.32999 21.63ZM5.85001 17.07L6.32999 16.92C6.61999 17.83 6.90999 18.75 7.20999 19.66L6.73001 19.81L6.25 19.96C5.95 19.05 5.66 18.13 5.37 17.22L5.85001 17.07ZM4.41 12.49L4.88998 12.34C5.16998 13.24 5.46 14.16 5.75 15.09L5.26999 15.24L4.79001 15.39C4.50001 14.46 4.20999 13.54 3.92999 12.64L4.41 12.49ZM3 7.91L3.48001 7.75998C3.76001 8.64998 4.03999 9.56998 4.32999 10.51L3.85001 10.66L3.37 10.81C3.08 9.87 2.78999 8.95 2.51999 8.06L3 7.91ZM1.54999 3.34L2.03 3.17999C2.31 4.02999 2.6 4.94999 2.91 5.92999L2.42999 6.07999L1.95001 6.22998C1.64001 5.25998 1.34999 4.33999 1.07999 3.48999L1.54999 3.34ZM0.459991 0.169983L0.929993 0C1.07999 0.41 1.24 0.869985 1.41 1.35999L0.940002 1.51999L0.470001 1.67999C0.300001 1.19999 0.15 0.749996 0 0.339996L0.459991 0.169983Z" fill="#D4E7B2"/>
</svg>
