<svg width="10" height="34" viewBox="0 0 10 34" fill="none" xmlns="http://www.w3.org/2000/svg">
<path d="M8.26999 32.25L8.73999 32.07C8.91999 32.56 9.10998 33.01 9.28998 33.42L8.82999 33.62L8.37 33.82C8.18 33.39 7.99 32.92 7.81 32.42L8.26999 32.25ZM6.72998 27.55L7.20999 27.41C7.49999 28.41 7.8 29.35 8.09 30.23L7.62 30.39L7.14999 30.55C6.84999 29.66 6.55998 28.71 6.25998 27.7L6.72998 27.55ZM5.41998 22.78L5.89999 22.66C6.14999 23.64 6.41 24.6 6.66 25.53L6.17999 25.66L5.69998 25.79C5.43998 24.86 5.18999 23.89 4.92999 22.91L5.41998 22.78ZM4.25 17.98L4.73999 17.87C4.96999 18.84 5.19999 19.8 5.42999 20.75L4.94 20.87L4.44998 20.99C4.20998 20.03 3.98 19.07 3.75 18.09L4.25 17.98ZM3.14999 13.16L3.63998 13.05C3.84998 14 4.06998 14.97 4.28998 15.95L3.79999 16.06L3.31 16.17C3.09 15.19 2.87 14.22 2.66 13.27L3.14999 13.16ZM2.12 8.33002L2.60999 8.23001C2.79999 9.17001 3.01 10.14 3.22 11.13L2.72998 11.23L2.23999 11.33C2.02999 10.33 1.82 9.36001 1.63 8.42001L2.12 8.33002ZM1.13998 3.48001L1.63 3.38C1.81 4.28 1.99999 5.25001 2.20999 6.29001L1.72 6.39001L1.22998 6.48999C1.01998 5.44999 0.819994 4.47001 0.649994 3.57001L1.13998 3.48001ZM0.48999 0.0899963L0.97998 0C1.05998 0.43 1.14998 0.920012 1.25998 1.45001L0.769989 1.54001L0.279999 1.63C0.179999 1.09 0.08 0.600013 0 0.170013L0.48999 0.0899963Z" fill="#EAF3D9"/>
</svg>
