<svg width="12" height="8" viewBox="0 0 12 8" fill="none" xmlns="http://www.w3.org/2000/svg">
<path d="M10.54 5.73029L10.97 5.47031C11.21 5.86031 11.44 6.27032 11.67 6.69032L11.23 6.93031L10.79 7.1703C10.57 6.7703 10.35 6.37031 10.12 6.00031L10.54 5.73029ZM7.60001 2.15031L7.92001 1.7703C8.62001 2.3603 9.27 3.0703 9.87 3.8603L9.47 4.16032L9.07001 4.4603C8.50001 3.7103 7.90002 3.06031 7.27002 2.53031L7.60001 2.15031ZM3.36002 0.500313L3.35001 0.000312767C4.38001 -0.00968723 5.34002 0.220316 6.24002 0.660316L6.02002 1.1103L5.80002 1.56031C5.03002 1.19031 4.23 0.990313 3.37 1.00031L3.36002 0.500313ZM0.220001 1.34031L0 0.890297C0.46 0.660297 0.910006 0.480309 1.35001 0.340309L1.5 0.82029L1.65002 1.3003C1.26002 1.4203 0.860012 1.59029 0.450012 1.79029L0.220001 1.34031Z" fill="#D4E7B2"/>
</svg>
