<svg width="34" height="13" viewBox="0 0 34 13" fill="none" xmlns="http://www.w3.org/2000/svg">
<path d="M32.34 1.14999L32.11 0.699982C32.58 0.459982 33.03 0.23 33.46 0L33.69 0.440002L33.92 0.880005C33.49 1.11 33.03 1.35 32.55 1.59L32.34 1.14999ZM27.74 3.37L27.53 2.91998C28.5 2.47998 29.42 2.03999 30.3 1.60999L30.52 2.06L30.74 2.50998C29.85 2.93998 28.92 3.37999 27.95 3.82999L27.74 3.37ZM23.06 5.41998L22.87 4.95999C23.83 4.55999 24.77 4.14999 25.69 3.73999L25.89 4.19998L26.09 4.66C25.17 5.07 24.22 5.48 23.26 5.88L23.06 5.41998ZM18.33 7.31998L18.15 6.84998C19.1 6.48998 20.06 6.10998 21 5.72998L21.19 6.19L21.38 6.64999C20.43 7.03999 19.47 7.41 18.51 7.78L18.33 7.31998ZM13.52 9.04999L13.36 8.57999C14.31 8.25999 15.28 7.91998 16.25 7.56998L16.42 8.03998L16.59 8.50998C15.61 8.86998 14.64 9.21 13.68 9.53L13.52 9.04999ZM8.63998 10.53L8.50998 10.05C9.44998 9.79999 10.43 9.50998 11.44 9.19998L11.59 9.67999L11.74 10.16C10.72 10.48 9.72999 10.77 8.76999 11.02L8.63998 10.53ZM3.63998 11.56L3.57999 11.06C4.47999 10.95 5.48 10.77 6.56 10.53L6.66998 11.02L6.78 11.51C5.68 11.76 4.64999 11.94 3.70999 12.06L3.63998 11.56ZM0.0899963 11.54L0.199982 11.05C0.599982 11.14 1.07 11.18 1.62 11.19V11.69V12.19C1.03 12.19 0.48 12.14 0 12.03L0.0899963 11.54Z" fill="#D4E7B2"/>
</svg>
