<svg width="47" height="12" viewBox="0 0 47 12" fill="none" xmlns="http://www.w3.org/2000/svg">
<path d="M45.29 0.660004L45.23 0.160004C45.79 0.100004 46.32 0.04 46.81 0L46.86 0.5L46.91 1C46.42 1.05 45.9 1.1 45.35 1.16L45.29 0.660004ZM40.01 1.35999L39.94 0.869995C41.05 0.699995 42.11 0.559993 43.1 0.429993L43.16 0.929993L43.22 1.42999C42.23 1.55999 41.18 1.71 40.08 1.87L40.01 1.35999ZM34.76 2.20999L34.68 1.72C35.76 1.54 36.81 1.35998 37.83 1.19998L37.91 1.69L37.99 2.17999C36.98 2.33999 35.93 2.50998 34.85 2.69998L34.76 2.20999ZM29.52 3.14999L29.43 2.66C30.49 2.46 31.54 2.27 32.57 2.09L32.66 2.57999L32.75 3.06998C31.72 3.24998 30.68 3.43998 29.62 3.63998L29.52 3.14999ZM24.29 4.16998L24.19 3.67999C25.23 3.46999 26.28 3.26 27.32 3.06L27.42 3.54999L27.52 4.03998C26.48 4.23998 25.44 4.45 24.4 4.66L24.29 4.16998ZM19.09 5.28L18.98 4.78998C20.01 4.55998 21.05 4.33999 22.1 4.10999L22.2 4.59998L22.3 5.09C21.26 5.31 20.22 5.53998 19.19 5.75998L19.09 5.28ZM13.9 6.48999L13.78 6C14.79 5.75 15.83 5.50998 16.89 5.25998L17 5.75L17.11 6.23999C16.06 6.47999 15.02 6.73 14.02 6.97L13.9 6.48999ZM8.75 7.82999L8.62 7.34998C9.61 7.07998 10.64 6.8 11.71 6.53L11.83 7.00998L11.95 7.48999C10.89 7.75999 9.86 8.04 8.88 8.31L8.75 7.82999ZM3.66998 9.39999L3.50998 8.92999C4.42998 8.60999 5.46 8.27998 6.56 7.94998L6.69998 8.42999L6.84 8.91C5.75 9.24 4.73999 9.56 3.82999 9.88L3.66998 9.39999ZM0.22998 10.81L0 10.37C0.43 10.15 0.92998 9.92 1.47998 9.69L1.66998 10.15L1.85999 10.61C1.32999 10.83 0.859991 11.04 0.459991 11.25L0.22998 10.81Z" fill="#D4E7B2"/>
</svg>
