<svg width="10" height="34" viewBox="0 0 10 34" fill="none" xmlns="http://www.w3.org/2000/svg">
<path d="M8.25998 32.25L8.72998 32.07C8.90998 32.56 9.1 33.01 9.28 33.42L8.81998 33.62L8.35999 33.82C8.16999 33.39 7.97999 32.92 7.79999 32.42L8.25998 32.25ZM6.72 27.56L7.19998 27.42C7.48998 28.42 7.78999 29.36 8.07999 30.24L7.60999 30.4L7.13998 30.56C6.83998 29.67 6.55 28.72 6.25 27.71L6.72 27.56ZM5.41998 22.79L5.89999 22.67C6.14999 23.65 6.41 24.61 6.66 25.54L6.17999 25.67L5.69998 25.8C5.43998 24.87 5.18999 23.9 4.92999 22.92L5.41998 22.79ZM4.25 17.98L4.73999 17.87C4.96999 18.84 5.19999 19.8 5.42999 20.75L4.94 20.87L4.44998 20.99C4.20998 20.03 3.98 19.07 3.75 18.09L4.25 17.98ZM3.14999 13.16L3.63998 13.05C3.84998 14 4.06998 14.97 4.28998 15.95L3.79999 16.06L3.31 16.17C3.09 15.19 2.87 14.22 2.66 13.27L3.14999 13.16ZM2.12 8.32999L2.60999 8.22998C2.79999 9.16998 3.01 10.14 3.22 11.13L2.72998 11.23L2.23999 11.33C2.02999 10.33 1.82 9.35998 1.63 8.41998L2.12 8.32999ZM1.13998 3.47998L1.63 3.37997C1.81 4.27997 1.99999 5.24998 2.20999 6.28998L1.72 6.38998L1.22998 6.48999C1.01998 5.44999 0.819994 4.46998 0.649994 3.56998L1.13998 3.47998ZM0.48999 0.0899963L0.97998 0C1.05998 0.43 1.14998 0.919982 1.25998 1.44998L0.769989 1.53998L0.279999 1.62997C0.179999 1.08997 0.08 0.599983 0 0.169983L0.48999 0.0899963Z" fill="#EAF3D9"/>
</svg>
