<svg width="90" height="63" viewBox="0 0 90 63" fill="none" xmlns="http://www.w3.org/2000/svg">
<path d="M87.8 1.38L87.46 1.01999C87.82 0.679989 88.18 0.34 88.54 0L88.88 0.359985L89.22 0.720001C88.86 1.06 88.5 1.39999 88.14 1.73999L87.8 1.38ZM84.18 4.72998L83.84 4.35999C84.57 3.69999 85.29 3.02999 86.01 2.35999L86.35 2.72998L86.69 3.10001C85.96 3.77001 85.24 4.44001 84.51 5.10001L84.18 4.72998ZM80.52 8.01999L80.19 7.64999C80.93 6.99999 81.66 6.34999 82.39 5.67999L82.72 6.04999L83.05 6.41998C82.31 7.07998 81.58 7.73998 80.84 8.38998L80.52 8.01999ZM76.8 11.25L76.47 10.87C77.21 10.23 77.96 9.59 78.7 8.94L79.03 9.31998L79.36 9.69998C78.61 10.35 77.87 11 77.12 11.64L76.8 11.25ZM73.03 14.43L72.71 14.05C73.46 13.42 74.22 12.79 74.97 12.15L75.29 12.53L75.61 12.91C74.85 13.55 74.1 14.19 73.34 14.82L73.03 14.43ZM69.23 17.56L68.92 17.17C69.68 16.55 70.45 15.93 71.21 15.3L71.53 15.69L71.85 16.08C71.08 16.71 70.32 17.34 69.55 17.95L69.23 17.56ZM65.38 20.63L65.07 20.24C65.84 19.63 66.61 19.02 67.39 18.4L67.7 18.79L68.01 19.18C67.23 19.8 66.46 20.42 65.69 21.02L65.38 20.63ZM61.48 23.66L61.18 23.26C61.96 22.66 62.74 22.06 63.52 21.45L63.83 21.84L64.14 22.23C63.35 22.84 62.57 23.45 61.79 24.04L61.48 23.66ZM57.55 26.62L57.25 26.22C58.04 25.63 58.82 25.04 59.62 24.44L59.92 24.84L60.22 25.24C59.43 25.84 58.64 26.43 57.85 27.02L57.55 26.62ZM53.59 29.54L53.3 29.14C54.09 28.57 54.89 27.99 55.68 27.4L55.98 27.8L56.28 28.2C55.48 28.79 54.68 29.37 53.89 29.95L53.59 29.54ZM49.58 32.41L49.29 32C50.09 31.44 50.88 30.87 51.69 30.29L51.98 30.7L52.27 31.11C51.46 31.69 50.66 32.26 49.87 32.82L49.58 32.41ZM45.53 35.23L45.25 34.82C46.05 34.27 46.86 33.71 47.67 33.14L47.96 33.55L48.25 33.96C47.43 34.53 46.62 35.09 45.82 35.64L45.53 35.23ZM41.45 38L41.17 37.58C41.98 37.04 42.8 36.49 43.62 35.93L43.9 36.34L44.18 36.75C43.36 37.31 42.54 37.86 41.72 38.41L41.45 38ZM37.34 40.71L37.07 40.29C37.89 39.76 38.71 39.21 39.55 38.66L39.83 39.08L40.11 39.5C39.28 40.05 38.45 40.6 37.63 41.13L37.34 40.71ZM33.21 43.37L32.94 42.95C33.76 42.43 34.58 41.9 35.42 41.36L35.69 41.78L35.96 42.2C35.12 42.74 34.29 43.27 33.47 43.79L33.21 43.37ZM29.02 46L28.76 45.57C29.58 45.06 30.42 44.54 31.27 44.01L31.54 44.43L31.81 44.85C30.96 45.38 30.12 45.91 29.3 46.42L29.02 46ZM24.82 48.55L24.56 48.12C25.39 47.62 26.23 47.11 27.09 46.59L27.35 47.02L27.61 47.45C26.75 47.97 25.91 48.49 25.08 48.99L24.82 48.55ZM20.57 51.07L20.32 50.64C21.15 50.15 22 49.66 22.87 49.14L23.13 49.57L23.39 50C22.52 50.52 21.67 51.02 20.84 51.5L20.57 51.07ZM16.31 53.53L16.06 53.09C16.89 52.62 17.75 52.13 18.63 51.62L18.88 52.05L19.13 52.48C18.25 52.99 17.39 53.48 16.56 53.95L16.31 53.53ZM12.01 55.93L11.77 55.49C12.6 55.03 13.46 54.56 14.36 54.06L14.6 54.5L14.84 54.94C13.94 55.44 13.08 55.92 12.25 56.38L12.01 55.93ZM7.66 58.27L7.42999 57.83C8.24999 57.39 9.13002 56.93 10.05 56.43L10.29 56.87L10.53 57.31C9.61 57.81 8.72999 58.28 7.89999 58.72L7.66 58.27ZM3.30002 60.54L3.07001 60.09C3.85001 59.69 4.71999 59.24 5.67999 58.74L5.91 59.18L6.14001 59.62C5.18001 60.12 4.30002 60.57 3.52002 60.97L3.30002 60.54ZM0.220001 62.07L0 61.62C0.37 61.44 0.800018 61.23 1.30002 60.98L1.52002 61.43L1.74002 61.88C1.24002 62.13 0.799993 62.34 0.429993 62.52L0.220001 62.07Z" fill="#EAF3D9"/>
</svg>
