<svg width="12" height="8" viewBox="0 0 12 8" fill="none" xmlns="http://www.w3.org/2000/svg">
<path d="M10.35 5.68453L10.84 5.58455C10.94 6.05455 11.03 6.56453 11.11 7.09453L10.62 7.17455L10.13 7.25453C10.05 6.73453 9.96 6.24453 9.87 5.78453L10.35 5.68453ZM8.26999 1.27455L8.57999 0.884539C9.38999 1.51454 9.92999 2.45455 10.33 3.64455L9.85999 3.80455L9.38998 3.96456C9.01998 2.87456 8.56 2.14455 7.97 1.67455L8.26999 1.27455ZM3.48999 0.764544L3.38998 0.274553C4.61998 0.0145535 5.67 -0.0654477 6.56 0.0545523L6.48999 0.554552L6.41998 1.05455C5.67998 0.954552 4.76 1.01454 3.59 1.26454L3.48999 0.764544ZM0.169983 1.74455L0 1.27455C0.51 1.09455 0.989982 0.934542 1.44998 0.794542L1.60001 1.27455L1.75 1.75453C1.3 1.89453 0.829987 2.04454 0.329987 2.22454L0.169983 1.74455Z" fill="#D4E7B2"/>
</svg>
