<svg width="78" height="5" viewBox="0 0 78 5" fill="none" xmlns="http://www.w3.org/2000/svg">
<path d="M76.19 2.94L76.14 2.44C76.62 2.39 77.11 2.34 77.59 2.28L77.65 2.78L77.71 3.28C77.23 3.33 76.74 3.39 76.26 3.44L76.19 2.94ZM71.35 3.38998L71.31 2.88998C72.28 2.80998 73.25 2.72 74.22 2.63L74.27 3.13L74.32 3.63C73.35 3.72 72.38 3.80998 71.4 3.88998L71.35 3.38998ZM66.5 3.73999L66.47 3.23999C67.44 3.17999 68.41 3.11001 69.38 3.04001L69.42 3.54001L69.46 4.04001C68.49 4.11001 67.51 4.17999 66.54 4.23999L66.5 3.73999ZM61.64 3.98999L61.62 3.48999C62.59 3.44999 63.56 3.40001 64.54 3.35001L64.57 3.85001L64.6 4.35001C63.62 4.40001 62.65 4.44999 61.67 4.48999L61.64 3.98999ZM56.78 4.16L56.77 3.66C57.74 3.63 58.71 3.60001 59.69 3.57001L59.71 4.07001L59.73 4.57001C58.75 4.61001 57.78 4.64 56.8 4.66L56.78 4.16ZM51.92 4.25L51.91 3.75C52.88 3.74 53.85 3.72999 54.83 3.70999L54.84 4.20999L54.85 4.70999C53.87 4.72999 52.89 4.74 51.92 4.75V4.25ZM47.05 4.26001V3.76001C48.02 3.76001 48.99 3.76001 49.97 3.76001V4.26001V4.76001C48.99 4.76001 48.01 4.76001 47.04 4.76001L47.05 4.26001ZM42.19 4.20001L42.2 3.70001C43.17 3.72001 44.14 3.72999 45.12 3.73999L45.11 4.23999L45.1 4.73999C44.12 4.72999 43.14 4.72001 42.17 4.70001L42.19 4.20001ZM37.33 4.07999L37.35 3.57999C38.31 3.60999 39.29 3.64 40.27 3.66L40.26 4.16L40.25 4.66C39.27 4.64 38.29 4.60999 37.32 4.57999L37.33 4.07999ZM32.46 3.88L32.48 3.38C33.44 3.42 34.42 3.47 35.4 3.5L35.38 4L35.36 4.5C34.37 4.46 33.4 4.42 32.43 4.38L32.46 3.88ZM27.61 3.62L27.64 3.12C28.6 3.18 29.57 3.23 30.56 3.28L30.53 3.78L30.5 4.28C29.51 4.23 28.54 4.16999 27.57 4.10999L27.61 3.62ZM22.75 3.29001L22.79 2.79001C23.74 2.86001 24.72 2.93 25.71 3L25.68 3.5L25.65 4C24.66 3.93 23.68 3.87001 22.72 3.79001L22.75 3.29001ZM17.91 2.88998L17.96 2.38998C18.91 2.47998 19.88 2.55998 20.88 2.63998L20.84 3.13998L20.8 3.63998C19.8 3.55998 18.83 3.47998 17.87 3.38998L17.91 2.88998ZM13.06 2.41L13.11 1.91C14.05 2.01 15.02 2.10999 16.02 2.20999L15.97 2.70999L15.92 3.20999C14.92 3.10999 13.94 3.01 13 2.91L13.06 2.41ZM8.24002 1.84L8.31 1.34C9.23 1.46 10.19 1.58001 11.2 1.70001L11.14 2.20001L11.08 2.70001C10.07 2.58001 9.10002 2.46 8.18002 2.34L8.24002 1.84ZM3.43002 1.13L3.51001 0.639984C4.39001 0.789984 5.35001 0.939987 6.39001 1.07999L6.32001 1.57001L6.25 2.06C5.21 1.91 4.24001 1.75999 3.35001 1.60999L3.43002 1.13ZM0.100006 0.48999L0.210022 0C0.640022 0.09 1.10002 0.190009 1.61002 0.290009L1.52002 0.779999L1.43002 1.26999C0.910023 1.16999 0.43 1.07001 0 0.980011L0.100006 0.48999Z" fill="#EAF3D9"/>
</svg>
