<svg width="14" height="37" viewBox="0 0 14 37" fill="none" xmlns="http://www.w3.org/2000/svg">
<path d="M12.62 34.99L13.06 34.74C13.31 35.19 13.56 35.58 13.79 35.91L13.38 36.2L12.97 36.49C12.71 36.12 12.45 35.7 12.18 35.23L12.62 34.99ZM10.59 30.65L11.05 30.46C11.44 31.41 11.82 32.28 12.19 33.06L11.74 33.27L11.29 33.48C10.91 32.68 10.52 31.78 10.12 30.83L10.59 30.65ZM8.88 26.17L9.35001 26C9.68001 26.93 10.02 27.83 10.35 28.69L9.88 28.87L9.41 29.05C9.08 28.18 8.74 27.28 8.41 26.34L8.88 26.17ZM7.32001 21.63L7.79001 21.47C8.10001 22.39 8.39999 23.3 8.70999 24.19L8.23999 24.35L7.76999 24.51C7.45999 23.62 7.15 22.7 6.84 21.78L7.32001 21.63ZM5.84 17.07L6.32001 16.92C6.61001 17.83 6.90001 18.75 7.20001 19.66L6.72 19.81L6.23999 19.96C5.93999 19.05 5.65002 18.13 5.36002 17.22L5.84 17.07ZM4.41 12.49L4.89001 12.34C5.17001 13.24 5.46 14.16 5.75 15.09L5.26999 15.24L4.79001 15.39C4.50001 14.46 4.20999 13.54 3.92999 12.64L4.41 12.49ZM2.98999 7.91L3.47 7.75998C3.75 8.64998 4.03001 9.56998 4.32001 10.51L3.84 10.66L3.36002 10.81C3.07002 9.87 2.78001 8.95 2.51001 8.06L2.98999 7.91ZM1.54001 3.34L2.01999 3.17999C2.29999 4.02999 2.58999 4.94999 2.89999 5.92999L2.42001 6.07999L1.94 6.22998C1.63 5.25998 1.34001 4.33999 1.07001 3.48999L1.54001 3.34ZM0.459991 0.169983L0.929993 0C1.07999 0.41 1.24 0.869985 1.41 1.35999L0.940002 1.51999L0.470001 1.67999C0.300001 1.19999 0.15 0.749996 0 0.339996L0.459991 0.169983Z" fill="#D4E7B2"/>
</svg>
