<svg width="78" height="5" viewBox="0 0 78 5" fill="none" xmlns="http://www.w3.org/2000/svg">
<path d="M76.19 2.94L76.14 2.44C76.62 2.39 77.11 2.34 77.59 2.28L77.65 2.78L77.71 3.28C77.23 3.33 76.74 3.39 76.26 3.44L76.19 2.94ZM71.35 3.39001L71.31 2.89001C72.28 2.81001 73.25 2.72 74.22 2.63L74.27 3.13L74.32 3.63C73.35 3.72 72.38 3.81001 71.4 3.89001L71.35 3.39001ZM66.5 3.74002L66.47 3.24002C67.44 3.18002 68.41 3.11001 69.38 3.04001L69.42 3.54001L69.46 4.04001C68.49 4.11001 67.51 4.18002 66.54 4.24002L66.5 3.74002ZM61.64 3.99002L61.62 3.49002C62.59 3.45002 63.56 3.40001 64.54 3.35001L64.57 3.85001L64.6 4.35001C63.62 4.40001 62.65 4.45002 61.67 4.49002L61.64 3.99002ZM56.78 4.16L56.77 3.66C57.74 3.63 58.71 3.60001 59.69 3.57001L59.71 4.07001L59.73 4.57001C58.75 4.61001 57.78 4.64 56.8 4.66L56.78 4.16ZM51.92 4.25L51.91 3.75C52.88 3.74 53.85 3.73002 54.83 3.71002L54.84 4.21002L54.85 4.71002C53.87 4.73002 52.89 4.74 51.92 4.75V4.25ZM47.05 4.26001V3.76001C48.02 3.76001 48.99 3.76001 49.97 3.76001V4.26001V4.76001C48.99 4.76001 48.01 4.76001 47.04 4.76001L47.05 4.26001ZM42.19 4.21002L42.2 3.71002C43.17 3.73002 44.14 3.74 45.12 3.75L45.11 4.25L45.1 4.75C44.12 4.74 43.14 4.73002 42.17 4.71002L42.19 4.21002ZM37.33 4.08002L37.35 3.58002C38.31 3.61002 39.29 3.64 40.27 3.66L40.26 4.16L40.25 4.66C39.27 4.64 38.29 4.61002 37.32 4.58002L37.33 4.08002ZM32.46 3.89001L32.48 3.39001C33.44 3.43001 34.42 3.48001 35.4 3.51001L35.38 4.01001L35.36 4.51001C34.37 4.47001 33.4 4.43001 32.43 4.39001L32.46 3.89001ZM27.61 3.62L27.64 3.12C28.6 3.18 29.57 3.23 30.56 3.28L30.53 3.78L30.5 4.28C29.51 4.23 28.54 4.17002 27.57 4.11002L27.61 3.62ZM22.75 3.30002L22.79 2.80002C23.74 2.87002 24.72 2.94001 25.71 3.01001L25.68 3.51001L25.65 4.01001C24.66 3.94001 23.68 3.88002 22.72 3.80002L22.75 3.30002ZM17.91 2.89999L17.96 2.39999C18.91 2.48999 19.88 2.56999 20.88 2.64999L20.84 3.14999L20.8 3.64999C19.8 3.56999 18.83 3.48999 17.87 3.39999L17.91 2.89999ZM13.06 2.41L13.11 1.91C14.05 2.01 15.02 2.11002 16.02 2.21002L15.97 2.71002L15.92 3.21002C14.92 3.11002 13.94 3.01 13 2.91L13.06 2.41ZM8.23999 1.84L8.31 1.34C9.23 1.46 10.19 1.58001 11.2 1.70001L11.14 2.20001L11.08 2.70001C10.07 2.58001 9.09999 2.46 8.17999 2.34L8.23999 1.84ZM3.42999 1.13L3.50998 0.640015C4.38998 0.790015 5.34998 0.940017 6.38998 1.08002L6.32001 1.57001L6.25 2.06C5.21 1.91 4.24001 1.76002 3.35001 1.61002L3.42999 1.13ZM0.100006 0.490021L0.209991 0C0.639991 0.09 1.09999 0.190009 1.60999 0.290009L1.51999 0.779999L1.42999 1.27002C0.909993 1.17002 0.43 1.07001 0 0.980011L0.100006 0.490021Z" fill="#EAF3D9"/>
</svg>
