<svg width="35" height="18" viewBox="0 0 35 18" fill="none" xmlns="http://www.w3.org/2000/svg">
<path d="M32.56 1.18002L32.34 0.730011C32.86 0.470011 33.33 0.23 33.74 0L33.98 0.440002L34.22 0.880005C33.79 1.12 33.31 1.37 32.78 1.63L32.56 1.18002ZM27.68 3.44L27.48 2.98001C28.52 2.52001 29.5 2.07 30.39 1.66L30.6 2.11002L30.81 2.56003C29.91 2.98003 28.93 3.43001 27.88 3.89001L27.68 3.44ZM22.76 5.61002L22.56 5.15002C23.57 4.71002 24.55 4.28003 25.5 3.87003L25.7 4.33002L25.9 4.79001C24.95 5.21001 23.96 5.64002 22.96 6.08002L22.76 5.61002ZM17.83 7.76001L17.63 7.30002C18.61 6.87002 19.6 6.44001 20.57 6.01001L20.77 6.47L20.97 6.93002C20 7.35002 19.02 7.78 18.04 8.22L17.83 7.76001ZM12.93 9.97L12.72 9.52002C13.68 9.08002 14.66 8.63 15.65 8.19L15.85 8.65002L16.05 9.11002C15.07 9.55002 14.09 9.99002 13.13 10.43L12.93 9.97ZM8.07999 12.29L7.85999 11.84C8.77999 11.38 9.75001 10.9 10.76 10.43L10.97 10.88L11.18 11.33C10.18 11.8 9.22 12.27 8.31 12.73L8.07999 12.29ZM3.35999 14.88L3.10001 14.45C3.94001 13.93 4.88 13.39 5.91 12.85L6.14999 13.29L6.38998 13.73C5.37998 14.27 4.45 14.8 3.63 15.3L3.35999 14.88ZM0.359985 17.14L0 16.8C0.34 16.44 0.77001 16.07 1.26001 15.7L1.56 16.1L1.85999 16.5C1.38999 16.85 1.01 17.19 0.720001 17.49L0.359985 17.14Z" fill="#D4E7B2"/>
</svg>
