<svg width="143" height="139" viewBox="0 0 143 139" fill="none" xmlns="http://www.w3.org/2000/svg">
<path d="M1.10001 137.5L1.32001 137.95C1.02001 138.09 0.790015 138.2 0.640015 138.27C0.560015 138.31 0.500001 138.33 0.470001 138.35C0.450001 138.36 0.439993 138.37 0.429993 138.37C0.419993 138.37 0.420013 138.37 0.420013 138.38C0.420013 138.38 0.419991 138.38 0.209991 137.93C-8.53837e-06 137.48 0 137.48 0 137.48H0.0100098C0.0200098 137.48 0.0299878 137.47 0.0499878 137.46C0.0899878 137.44 0.150001 137.42 0.220001 137.38C0.370001 137.31 0.600015 137.2 0.890015 137.06L1.10001 137.5ZM92.01 73.92L92.36 74.28C92.12 74.51 91.89 74.73 91.65 74.96L91.3 74.6L90.95 74.24C91.19 74.01 91.42 73.79 91.66 73.56L92.01 73.92ZM92.71 73.24L93.06 73.6C92.83 73.83 92.59 74.05 92.36 74.28L92.01 73.92L91.66 73.56C91.89 73.33 92.13 73.11 92.36 72.88L92.71 73.24ZM141.57 0.100006C142.06 0.190006 142.06 0.190002 142.06 0.190002V0.199982C142.06 0.209982 142.05 0.23 142.05 0.25C142.04 0.29 142.03 0.349993 142.01 0.429993C141.98 0.589993 141.92 0.829984 141.85 1.13998L141.36 1.01999L140.87 0.899994C140.94 0.599994 140.99 0.370001 141.03 0.220001C141.05 0.140001 141.06 0.0899878 141.06 0.0499878C141.06 0.0299878 141.07 0.0200098 141.07 0.0100098V0C141.07 0 141.08 0.0100061 141.57 0.100006Z" fill="#EAF3D9"/>
</svg>
