<svg width="25" height="8" viewBox="0 0 25 8" fill="none" xmlns="http://www.w3.org/2000/svg">
<path d="M23.31 1.29001L23.04 0.869995C23.48 0.589995 23.9 0.3 24.32 0L24.61 0.410004L24.9 0.820007C24.47 1.12001 24.04 1.41999 23.59 1.70999L23.31 1.29001ZM18.77 3.82001L18.56 3.37C19.5 2.92 20.42 2.44 21.3 1.94L21.55 2.37L21.8 2.79999C20.9 3.31999 19.96 3.80999 18.99 4.26999L18.77 3.82001ZM13.94 5.73001L13.79 5.25C14.78 4.94 15.75 4.58 16.69 4.19L16.88 4.64999L17.07 5.10999C16.1 5.50999 15.1 5.87 14.09 6.19L13.94 5.73001ZM8.88 6.92001L8.79999 6.42999C9.80999 6.27999 10.82 6.07001 11.82 5.82001L11.94 6.29999L12.06 6.78C11.03 7.04 9.99001 7.25 8.95001 7.41L8.88 6.92001ZM3.70001 7.23999L3.72 6.73999C4.74 6.77999 5.76001 6.75001 6.79001 6.67001L6.82999 7.17001L6.87 7.67001C5.81 7.76001 4.73999 7.77999 3.67999 7.73999L3.70001 7.23999ZM0.0899963 6.82001L0.190002 6.32999C0.690002 6.42999 1.19001 6.51001 1.70001 6.57001L1.64001 7.07001L1.57999 7.57001C1.04999 7.50001 0.52 7.42001 0 7.32001L0.0899963 6.82001Z" fill="#D4E7B2"/>
</svg>
