<svg width="12" height="8" viewBox="0 0 12 8" fill="none" xmlns="http://www.w3.org/2000/svg">
<path d="M10.35 5.67455L10.84 5.57457C10.94 6.04457 11.03 6.55455 11.11 7.08455L10.62 7.16457L10.13 7.24455C10.05 6.72455 9.96 6.23455 9.87 5.77455L10.35 5.67455ZM8.27002 1.27455L8.58002 0.884569C9.39002 1.51457 9.93002 2.45455 10.33 3.64455L9.86002 3.80455L9.39001 3.96456C9.02001 2.87456 8.56 2.14455 7.97 1.67455L8.27002 1.27455ZM3.49002 0.764574L3.39001 0.274553C4.62001 0.0145535 5.67 -0.0654477 6.56 0.0545523L6.49002 0.554552L6.42001 1.05455C5.68001 0.954552 4.76 1.01457 3.59 1.26457L3.49002 0.764574ZM0.170013 1.73458L0 1.26457C0.51 1.08457 0.990012 0.924563 1.45001 0.784563L1.60001 1.26457L1.75 1.74455C1.3 1.88455 0.830017 2.03456 0.330017 2.21456L0.170013 1.73458Z" fill="#D4E7B2"/>
</svg>
