<svg width="34" height="17" viewBox="0 0 34 17" fill="none" xmlns="http://www.w3.org/2000/svg">
<path d="M31.7 1.29999L31.42 0.879974C31.88 0.569974 32.31 0.28 32.69 0L32.98 0.399994L33.27 0.799988C32.88 1.08999 32.44 1.38998 31.97 1.69998L31.7 1.29999ZM27.24 4.01999L26.99 3.59C27.95 3.04 28.85 2.50998 29.67 2.00998L29.93 2.43997L30.19 2.87C29.35 3.38 28.44 3.92 27.48 4.47L27.24 4.01999ZM22.65 6.53L22.42 6.09C23.37 5.59 24.29 5.09999 25.17 4.60999L25.41 5.04999L25.65 5.48999C24.76 5.97999 23.83 6.47998 22.88 6.97998L22.65 6.53ZM17.99 8.88998L17.77 8.43997C18.71 7.97997 19.64 7.50998 20.56 7.03998L20.79 7.48999L21.02 7.93997C20.1 8.40997 19.16 8.88 18.21 9.34L17.99 8.88998ZM13.27 11.13L13.06 10.68C14 10.25 14.94 9.80999 15.89 9.35999L16.11 9.81L16.33 10.26C15.38 10.71 14.43 11.16 13.49 11.59L13.27 11.13ZM8.48001 13.23L8.29001 12.77C9.22001 12.38 10.18 11.97 11.16 11.54L11.36 12L11.56 12.46C10.58 12.89 9.61001 13.31 8.67001 13.7L8.48001 13.23ZM3.61002 15.12L3.44 14.65C4.35 14.33 5.33001 13.96 6.35001 13.55L6.53 14.01L6.71002 14.47C5.67002 14.88 4.68001 15.25 3.76001 15.58L3.61002 15.12ZM0.120026 16.2L0 15.71C0.45 15.6 0.950011 15.46 1.48001 15.3L1.63 15.78L1.78 16.26C1.24 16.43 0.72 16.57 0.25 16.69L0.120026 16.2Z" fill="#EAF3D9"/>
</svg>
