<svg width="26" height="64" viewBox="0 0 26 64" fill="none" xmlns="http://www.w3.org/2000/svg">
<path d="M24.52 61.86L24.9 61.53C25.23 61.91 25.56 62.24 25.87 62.51L25.54 62.89L25.21 63.27C24.86 62.96 24.5 62.6 24.15 62.2L24.52 61.86ZM21.74 57.89L22.17 57.63C22.7 58.52 23.22 59.33 23.73 60.04L23.32 60.33L22.91 60.62C22.38 59.88 21.84 59.05 21.3 58.14L21.74 57.89ZM19.44 53.62L19.89 53.4C20.34 54.3 20.79 55.16 21.23 55.97L20.79 56.21L20.35 56.45C19.9 55.63 19.45 54.76 18.99 53.84L19.44 53.62ZM17.37 49.21L17.83 49.01C18.23 49.92 18.64 50.81 19.04 51.66L18.59 51.87L18.14 52.08C17.73 51.22 17.33 50.33 16.92 49.41L17.37 49.21ZM15.47 44.75L15.93 44.56C16.3 45.47 16.68 46.37 17.06 47.24L16.6 47.44L16.14 47.64C15.76 46.76 15.38 45.86 15.01 44.94L15.47 44.75ZM13.68 40.24L14.15 40.06C14.5 40.97 14.86 41.88 15.21 42.77L14.75 42.96L14.29 43.15C13.93 42.26 13.58 41.35 13.22 40.43L13.68 40.24ZM11.97 35.7L12.44 35.53C12.78 36.44 13.11 37.35 13.46 38.26L12.99 38.44L12.52 38.62C12.18 37.71 11.84 36.8 11.5 35.88L11.97 35.7ZM10.32 31.13L10.79 30.96C11.11 31.87 11.44 32.79 11.77 33.7L11.3 33.87L10.83 34.04C10.5 33.13 10.17 32.21 9.85001 31.29L10.32 31.13ZM8.74002 26.54L9.21002 26.38C9.52002 27.29 9.84 28.21 10.16 29.13L9.69 29.29L9.22 29.45C8.9 28.53 8.58002 27.61 8.27002 26.69L8.74002 26.54ZM7.20001 21.93L7.67001 21.77C7.97001 22.68 8.28 23.6 8.59 24.53L8.12 24.69L7.65002 24.85C7.34002 23.92 7.03001 22.99 6.73001 22.08L7.20001 21.93ZM5.70001 17.31L6.18002 17.16C6.47002 18.07 6.77001 19 7.07001 19.94L6.59 20.09L6.11002 20.24C5.80002 19.3 5.51002 18.37 5.21002 17.46L5.70001 17.31ZM4.24002 12.68L4.72 12.53C5 13.43 5.29 14.36 5.59 15.32L5.11002 15.47L4.63 15.62C4.33 14.67 4.04001 13.73 3.76001 12.83L4.24002 12.68ZM2.81 8.03L3.29001 7.89001C3.56001 8.78001 3.84001 9.70999 4.14001 10.68L3.66 10.83L3.18002 10.98C2.88002 10.01 2.60002 9.06999 2.33002 8.17999L2.81 8.03ZM1.42001 3.38L1.90002 3.23999C2.15002 4.08999 2.43001 5.02 2.73001 6.03L2.25 6.17001L1.77002 6.31C1.47002 5.3 1.19 4.37001 0.940002 3.51001L1.42001 3.38ZM0.480011 0.140015L0.960022 0C1.08002 0.41 1.21002 0.870005 1.36002 1.38L0.880005 1.51999L0.400024 1.66C0.250024 1.15 0.12 0.689999 0 0.279999L0.480011 0.140015Z" fill="#EAF3D9"/>
</svg>
