<svg width="15" height="53" viewBox="0 0 15 53" fill="none" xmlns="http://www.w3.org/2000/svg">
<path d="M13.92 51.15L14.41 51.26C14.28 51.84 14.1 52.36 13.85 52.79L13.42 52.54L12.99 52.29C13.17 51.98 13.32 51.57 13.44 51.05L13.92 51.15ZM14.07 46.19L14.57 46.15C14.66 47.26 14.68 48.28 14.65 49.19L14.15 49.17L13.65 49.15C13.68 48.29 13.66 47.31 13.57 46.22L14.07 46.19ZM13.44 41.28L13.93 41.2C14.1 42.24 14.25 43.23 14.37 44.17L13.87 44.23L13.37 44.29C13.26 43.36 13.11 42.38 12.94 41.36L13.44 41.28ZM12.49 36.41L12.98 36.3C13.2 37.3 13.4 38.28 13.58 39.23L13.09 39.32L12.6 39.41C12.42 38.47 12.22 37.5 12 36.51L12.49 36.41ZM11.34 31.59L11.82 31.47C12.07 32.45 12.31 33.42 12.53 34.37L12.04 34.48L11.55 34.59C11.33 33.64 11.09 32.68 10.84 31.71L11.34 31.59ZM10.04 26.79L10.52 26.65C10.79 27.61 11.06 28.57 11.31 29.53L10.83 29.66L10.35 29.79C10.1 28.84 9.83 27.89 9.56 26.93L10.04 26.79ZM8.63998 22.04L9.12 21.89C9.41 22.84 9.69998 23.79 9.97998 24.75L9.5 24.89L9.01999 25.03C8.73999 24.08 8.45998 23.13 8.16998 22.19L8.63998 22.04ZM7.12997 17.31L7.59998 17.15C7.90998 18.08 8.21999 19.03 8.51999 19.99L8.03998 20.14L7.56 20.29C7.26 19.34 6.94998 18.39 6.63998 17.46L7.12997 17.31ZM5.50998 12.61L5.97998 12.44C6.30998 13.36 6.63999 14.3 6.95999 15.26L6.48999 15.42L6.01999 15.58C5.68999 14.62 5.36998 13.69 5.03998 12.77L5.50998 12.61ZM3.78998 7.96002L4.25998 7.78C4.60998 8.67 4.96 9.61001 5.31 10.57L4.84 10.74L4.37 10.91C4.02 9.95 3.66998 9.02 3.31998 8.13L3.78998 7.96002ZM1.90997 3.37L2.37 3.17001C2.74 4.02001 3.13 4.94002 3.53 5.93002L3.06998 6.12L2.60999 6.31C2.21999 5.33 1.82997 4.42002 1.46997 3.58002L1.90997 3.37ZM0.439972 0.230011L0.879974 0C1.08997 0.41 1.30998 0.859996 1.53998 1.34L1.09 1.55002L0.639984 1.76001C0.419984 1.29001 0.2 0.850012 0 0.450012L0.439972 0.230011Z" fill="#D4E7B2"/>
</svg>
