<svg width="108" height="87" viewBox="0 0 108 87" fill="none" xmlns="http://www.w3.org/2000/svg">
<path d="M106.752 86.1V85.6C107.102 85.6 107.442 85.6 107.782 85.59L107.792 86.09L107.802 86.59C107.462 86.6 107.112 86.6 106.752 86.6V86.1ZM27.5823 66L27.8423 65.57C28.0923 65.72 28.3823 65.88 28.7123 66.06L28.4823 66.5L28.2523 66.94C27.9023 66.76 27.5923 66.58 27.3223 66.42L27.5823 66ZM26.6923 65.49L26.9823 65.08C27.2623 65.28 27.5223 65.43 27.7723 65.54L27.5823 66L27.3923 66.46C27.0623 66.32 26.7323 66.13 26.4023 65.89L26.6923 65.49ZM0.482325 0.130005C0.962325 4.88758e-06 0.962336 0 0.962336 0V0.0100098C0.962336 0.0200098 0.972346 0.0399976 0.972346 0.0599976C0.982346 0.0999976 1.00233 0.15999 1.02233 0.23999C1.06233 0.39999 1.13235 0.629993 1.22235 0.929993L0.742335 1.07001L0.262324 1.20999C0.172324 0.909991 0.112342 0.67001 0.0623421 0.51001C0.0423421 0.43001 0.0223238 0.369987 0.0123238 0.329987C0.00232384 0.309987 0.00234459 0.289999 0.00234459 0.279999C0.00234459 0.269999 0.00234459 0.269989 0.00234459 0.269989C-0.00765541 0.259989 -0.00767496 0.260005 0.482325 0.130005ZM27.5823 66L27.7723 65.54C27.7923 65.55 27.8223 65.56 27.8423 65.57L27.5823 66Z" fill="#EAF3D9"/>
</svg>
