<svg width="26" height="64" viewBox="0 0 26 64" fill="none" xmlns="http://www.w3.org/2000/svg">
<path d="M24.52 61.87L24.9 61.54C25.23 61.92 25.56 62.25 25.87 62.52L25.54 62.9L25.21 63.28C24.86 62.97 24.5 62.61 24.15 62.21L24.52 61.87ZM21.74 57.9L22.17 57.64C22.7 58.53 23.22 59.34 23.73 60.05L23.32 60.34L22.91 60.63C22.38 59.89 21.84 59.06 21.3 58.15L21.74 57.9ZM19.43 53.62L19.88 53.4C20.33 54.3 20.78 55.16 21.22 55.97L20.78 56.21L20.34 56.45C19.89 55.63 19.44 54.76 18.98 53.84L19.43 53.62ZM17.37 49.22L17.83 49.02C18.24 49.93 18.64 50.82 19.04 51.67L18.59 51.88L18.14 52.09C17.73 51.23 17.33 50.34 16.92 49.42L17.37 49.22ZM15.47 44.75L15.93 44.56C16.3 45.47 16.68 46.37 17.06 47.24L16.6 47.44L16.14 47.64C15.76 46.76 15.38 45.86 15.01 44.94L15.47 44.75ZM13.67 40.24L14.14 40.06C14.49 40.97 14.85 41.88 15.2 42.77L14.74 42.96L14.28 43.15C13.92 42.26 13.57 41.35 13.21 40.43L13.67 40.24ZM11.96 35.7L12.43 35.53C12.77 36.44 13.1 37.35 13.45 38.26L12.98 38.44L12.51 38.62C12.17 37.71 11.83 36.8 11.49 35.88L11.96 35.7ZM10.32 31.13L10.79 30.96C11.11 31.87 11.44 32.79 11.77 33.7L11.3 33.87L10.83 34.04C10.5 33.13 10.17 32.21 9.85001 31.29L10.32 31.13ZM8.72998 26.54L9.19998 26.38C9.50998 27.29 9.82999 28.21 10.15 29.13L9.67999 29.29L9.20999 29.45C8.88999 28.53 8.57001 27.61 8.26001 26.69L8.72998 26.54ZM7.19 21.93L7.66 21.77C7.96 22.68 8.26999 23.6 8.57999 24.53L8.10999 24.69L7.63998 24.85C7.32998 23.92 7.02 22.99 6.72 22.08L7.19 21.93ZM5.69998 17.32L6.17999 17.17C6.46999 18.08 6.77001 19.01 7.07001 19.95L6.59 20.1L6.10999 20.25C5.79999 19.31 5.50999 18.38 5.20999 17.47L5.69998 17.32ZM4.23999 12.68L4.72 12.53C5 13.43 5.29 14.36 5.59 15.32L5.10999 15.47L4.63 15.62C4.33 14.67 4.04001 13.73 3.76001 12.83L4.23999 12.68ZM2.81 8.04001L3.29001 7.90002C3.56001 8.79002 3.83998 9.72 4.13998 10.69L3.66 10.84L3.17999 10.99C2.87999 10.02 2.59999 9.08 2.32999 8.19L2.81 8.04001ZM1.41998 3.38L1.89999 3.24002C2.14999 4.09002 2.42998 5.02 2.72998 6.03L2.25 6.17001L1.76999 6.31003C1.46999 5.30003 1.19 4.37001 0.940002 3.51001L1.41998 3.38ZM0.47998 0.140015L0.959991 0C1.07999 0.41 1.20999 0.870005 1.35999 1.38L0.880005 1.52002L0.399994 1.66C0.249994 1.15 0.12 0.689999 0 0.279999L0.47998 0.140015Z" fill="#EAF3D9"/>
</svg>
