<svg width="4" height="17" viewBox="0 0 4 17" fill="none" xmlns="http://www.w3.org/2000/svg">
<path d="M2.16998 14.33L2.63998 14.16C2.82998 14.69 3.04 15.12 3.28 15.46L2.87 15.75L2.45999 16.04C2.14999 15.6 1.89998 15.08 1.69998 14.5L2.16998 14.33ZM1.20999 9.10001L1.70999 9.04999C1.81999 10.18 1.94997 11.22 2.12997 12.16L1.63998 12.25L1.14999 12.34C0.969994 11.37 0.829971 10.29 0.719971 9.14999L1.20999 9.10001ZM0.799988 3.78L1.29999 3.75C1.37999 4.83 1.43999 5.89001 1.51999 6.92001L1.01999 6.95999L0.519989 7C0.439989 5.97 0.369988 4.90001 0.299988 3.82001L0.799988 3.78ZM0.5 0.0499878L1 0C1.05 0.53 1.09998 1.06 1.13998 1.59L0.639984 1.63L0.139984 1.67001C0.0999841 1.14001 0.05 0.619996 0 0.0899963L0.5 0.0499878Z" fill="#D4E7B2"/>
</svg>
