<svg width="12" height="48" viewBox="0 0 12 48" fill="none" xmlns="http://www.w3.org/2000/svg">
<path d="M10.68 45.82L11.15 45.65C11.32 46.13 11.49 46.57 11.66 46.97L11.2 47.16L10.74 47.35C10.57 46.93 10.39 46.48 10.22 45.99L10.68 45.82ZM9.20999 41.21L9.68997 41.07C9.96997 42.05 10.25 42.97 10.52 43.82L10.04 43.97L9.56 44.12C9.28 43.26 8.99997 42.33 8.71997 41.34L9.20999 41.21ZM7.95999 36.54L8.43997 36.42C8.67997 37.38 8.92998 38.32 9.16998 39.22L8.68997 39.35L8.20999 39.48C7.96999 38.58 7.71998 37.64 7.47998 36.67L7.95999 36.54ZM6.81998 31.84L7.31 31.73C7.53 32.69 7.75998 33.63 7.97998 34.54L7.48999 34.66L7 34.78C6.78 33.86 6.54999 32.91 6.32999 31.96L6.81998 31.84ZM5.75998 27.13L6.25 27.02C6.46 27.97 6.66997 28.91 6.87997 29.84L6.38998 29.95L5.89999 30.06C5.68999 29.13 5.47999 28.18 5.26999 27.23L5.75998 27.13ZM4.75 22.4L5.23999 22.3C5.43999 23.24 5.64 24.19 5.84 25.13L5.34998 25.23L4.85999 25.33C4.65999 24.38 4.45998 23.44 4.25998 22.49L4.75 22.4ZM3.78998 17.67L4.28 17.57C4.47 18.51 4.65998 19.45 4.84998 20.4L4.35999 20.5L3.87 20.6C3.67 19.65 3.47999 18.7 3.29999 17.76L3.78998 17.67ZM2.85999 12.92L3.34998 12.83C3.52998 13.76 3.70999 14.7 3.89999 15.67L3.40997 15.77L2.91998 15.87C2.72998 14.9 2.55 13.95 2.37 13.03L2.85999 12.92ZM1.95999 8.17999L2.44998 8.09C2.61998 9 2.79998 9.94999 2.97998 10.93L2.48999 11.02L2 11.11C1.81 10.13 1.62999 9.17999 1.45999 8.26999L1.95999 8.17999ZM1.09 3.40997L1.57999 3.31998C1.73999 4.18998 1.90998 5.14998 2.09998 6.16998L1.60999 6.25998L1.12 6.34998C0.929995 5.32998 0.759976 4.37 0.599976 3.5L1.09 3.40997ZM0.48999 0.0899963L0.97998 0C1.04998 0.42 1.13998 0.889973 1.22998 1.40997L0.73999 1.5L0.25 1.59C0.16 1.07 0.07 0.599993 0 0.179993L0.48999 0.0899963Z" fill="#EAF3D9"/>
</svg>
