<svg width="28" height="18" viewBox="0 0 28 18" fill="none" xmlns="http://www.w3.org/2000/svg">
<path d="M26.17 1.13L25.91 0.700012L27.08 0L27.34 0.430023L27.6 0.860016L26.43 1.56L26.17 1.13ZM22.3 3.46002L22.04 3.03L24.37 1.63L24.63 2.06L24.89 2.49002L22.56 3.89001L22.3 3.46002ZM18.43 5.78L18.17 5.35001L20.5 3.95001L20.76 4.38L21.02 4.81L18.69 6.21002L18.43 5.78ZM14.56 8.10001L14.3 7.67001L16.63 6.27002L16.89 6.70001L17.15 7.13L14.82 8.53L14.56 8.10001ZM10.7 10.42L10.44 9.99002L12.77 8.59L13.03 9.02002L13.29 9.45001L10.96 10.85L10.7 10.42ZM6.82999 12.74L6.57001 12.31L8.89999 10.91L9.16 11.34L9.41998 11.77L7.09 13.17L6.82999 12.74ZM2.95999 15.06L2.69998 14.63L5.03 13.23L5.28998 13.66L5.54999 14.09L3.22 15.49L2.95999 15.06ZM0.259979 16.68L0 16.25L1.16998 15.55L1.42999 15.98L1.69 16.41L0.519989 17.11L0.259979 16.68Z" fill="#FDC126"/>
</svg>
