<svg width="101" height="93" viewBox="0 0 101 93" fill="none" xmlns="http://www.w3.org/2000/svg">
<path d="M99.69 92.1L99.9 91.65C100.2 91.79 100.44 91.9 100.6 91.98C100.68 92.02 100.74 92.05 100.78 92.06C100.8 92.07 100.82 92.08 100.83 92.08C100.84 92.08 100.84 92.08 100.84 92.09C100.84 92.09 100.84 92.09 100.63 92.54C100.42 92.99 100.42 92.99 100.42 92.99C100.42 92.99 100.41 92.99 100.41 92.98C100.4 92.98 100.38 92.97 100.36 92.96C100.32 92.94 100.26 92.91 100.18 92.88C100.02 92.81 99.79 92.7 99.48 92.55L99.69 92.1ZM30.38 56.42L30.68 56.02C30.93 56.21 31.2 56.4 31.49 56.61L31.2 57.02L30.91 57.43C30.61 57.22 30.32 57.01 30.07 56.82L30.38 56.42ZM29.57 55.76L29.9 55.39C30.16 55.62 30.42 55.84 30.67 56.03L30.37 56.43L30.07 56.83C29.79 56.62 29.51 56.39 29.23 56.14L29.57 55.76ZM0.459991 0.180023C0.929991 2.31862e-05 0.929993 0 0.929993 0V0.0100098C0.929993 0.0200098 0.940012 0.0300183 0.950012 0.0500183C0.970012 0.0900183 0.989989 0.150011 1.01999 0.230011C1.07999 0.390011 1.17001 0.620013 1.29001 0.920013L0.829987 1.11002L0.369995 1.30002C0.249995 1.00002 0.159996 0.770016 0.0899963 0.610016C0.0599963 0.530016 0.039989 0.470023 0.019989 0.430023C0.00998901 0.410023 0.01 0.390005 0 0.380005C0 0.370005 0 0.370026 0 0.370026C0 0.360026 -8.55327e-06 0.360023 0.459991 0.180023Z" fill="#EAF3D9"/>
</svg>
