<svg width="52" height="6" viewBox="0 0 52 6" fill="none" xmlns="http://www.w3.org/2000/svg">
<path d="M49.97 0.829987L49.86 0.339996C50.38 0.229996 50.88 0.12 51.36 0L51.47 0.48999L51.58 0.97998C51.1 1.08998 50.59 1.20998 50.07 1.31998L49.97 0.829987ZM44.89 1.81L44.8 1.31998C45.86 1.13998 46.87 0.949979 47.83 0.759979L47.93 1.25L48.03 1.73999C47.06 1.92999 46.04 2.11999 44.97 2.29999L44.89 1.81ZM39.79 2.62997L39.72 2.13998C40.76 1.98998 41.78 1.82998 42.77 1.66998L42.85 2.15997L42.93 2.64999C41.93 2.80999 40.91 2.97 39.86 3.12L39.79 2.62997ZM34.66 3.32999L34.6 2.82999C35.63 2.69999 36.66 2.55998 37.67 2.41998L37.74 2.91998L37.81 3.41998C36.8 3.55998 35.77 3.69999 34.73 3.82999L34.66 3.32999ZM29.53 3.94L29.48 3.44C30.51 3.33 31.53 3.21 32.55 3.09L32.61 3.59L32.67 4.09C31.65 4.21 30.62 4.33 29.59 4.44L29.53 3.94ZM24.38 4.45999L24.33 3.95999C25.35 3.86999 26.38 3.76997 27.41 3.65997L27.46 4.15997L27.51 4.65997C26.48 4.76997 25.45 4.86999 24.42 4.95999L24.38 4.45999ZM19.23 4.88998L19.19 4.38998C20.2 4.31998 21.23 4.22998 22.27 4.13998L22.31 4.63998L22.35 5.13998C21.31 5.22998 20.28 5.30998 19.26 5.38998L19.23 4.88998ZM14.07 5.20999L14.04 4.70999C15.04 4.65999 16.07 4.6 17.12 4.53L17.15 5.03L17.18 5.53C16.12 5.6 15.09 5.65999 14.08 5.70999L14.07 5.20999ZM8.89999 5.38998L8.88998 4.88998C9.86998 4.86998 10.9 4.84999 11.97 4.79999L11.99 5.29999L12.01 5.79999C10.93 5.83999 9.88997 5.86998 8.90997 5.88998L8.89999 5.38998ZM3.72998 5.31L3.75998 4.81C4.66998 4.86 5.69998 4.88999 6.81998 4.89999V5.39999V5.89999C5.68998 5.88999 4.63999 5.86 3.70999 5.81L3.72998 5.31ZM0.149994 4.84L0.279999 4.35999C0.659999 4.46999 1.14998 4.55998 1.72998 4.63998L1.65997 5.13998L1.59 5.63998C0.979996 5.55998 0.45 5.46 0 5.34L0.149994 4.84Z" fill="#D4E7B2"/>
</svg>
