<svg width="74" height="52" viewBox="0 0 74 52" fill="none" xmlns="http://www.w3.org/2000/svg">
<path d="M72.85 38.36L72.63 37.91C72.92 37.76 73.21 37.61 73.5 37.47L73.73 37.91L73.96 38.35C73.67 38.5 73.38 38.65 73.08 38.8L72.85 38.36ZM12.29 50.9L12.27 50.4C12.61 50.38 12.94 50.37 13.28 50.35L13.31 50.85L13.34 51.35C13 51.37 12.67 51.38 12.33 51.4L12.29 50.9ZM11.85 50.01L12.31 49.8C12.45 50.12 12.59 50.41 12.73 50.66L12.29 50.9L11.85 51.14C11.7 50.86 11.55 50.55 11.4 50.22L11.85 50.01ZM0.490021 0.0799866C0.980021 -1.34259e-05 0.980011 0 0.980011 0V0.0100098C0.980011 0.0200098 0.980021 0.0399976 0.990021 0.0599976C1.00002 0.0999976 1.01002 0.15999 1.02002 0.23999C1.05002 0.39999 1.09001 0.639982 1.14001 0.949982L0.650024 1.04001L0.160004 1.13C0.110004 0.820005 0.0600085 0.579983 0.0400085 0.419983C0.0300085 0.339983 0.0200098 0.27999 0.0100098 0.23999C0.0100098 0.21999 0 0.200002 0 0.190002C0 0.180002 0 0.179993 0 0.179993C0 0.179993 2.07424e-05 0.169987 0.490021 0.0799866ZM12.29 50.9L12.31 51.4C12.12 51.41 11.94 51.31 11.85 51.14L12.29 50.9Z" fill="#EAF3D9"/>
</svg>
