<svg width="8" height="17" viewBox="0 0 8 17" fill="none" xmlns="http://www.w3.org/2000/svg">
<path d="M5.93658 1.28L5.59658 0.910004C5.93658 0.600004 6.2866 0.29 6.6466 0L6.96658 0.380005L7.28659 0.76001C6.93659 1.05001 6.60658 1.34001 6.27658 1.64001L5.93658 1.28ZM2.91659 4.64999L2.50659 4.35999C3.03659 3.60999 3.63659 2.89001 4.28659 2.20001L4.6466 2.54001L5.00659 2.88C4.38659 3.54 3.81659 4.22999 3.31659 4.92999L2.91659 4.64999ZM0.906582 8.67999L0.426602 8.54001C0.686602 7.64001 1.05658 6.77001 1.52658 5.92001L1.96658 6.16L2.40658 6.39999C1.97658 7.18999 1.62659 7.99 1.38659 8.81L0.906582 8.67999ZM0.656582 13.16L0.166592 13.25C-0.0134079 12.28 -0.0433933 11.32 0.0566067 10.38L0.556607 10.43L1.05661 10.48C0.966607 11.33 0.996582 12.19 1.15658 13.06L0.656582 13.16ZM1.72659 16.13L1.28659 16.37C1.05659 15.94 0.856581 15.5 0.686581 15.07L1.15658 14.89L1.62658 14.71C1.77658 15.1 1.9566 15.5 2.1766 15.9L1.72659 16.13Z" fill="#FDC126"/>
</svg>
