<svg width="4" height="17" viewBox="0 0 4 17" fill="none" xmlns="http://www.w3.org/2000/svg">
<path d="M2.17001 14.33L2.64001 14.16C2.83001 14.69 3.04 15.12 3.28 15.46L2.87 15.75L2.45999 16.04C2.14999 15.6 1.90001 15.08 1.70001 14.5L2.17001 14.33ZM1.20001 9.10001L1.70001 9.04999C1.81001 10.18 1.94 11.22 2.12 12.16L1.63 12.25L1.14001 12.34C0.960015 11.37 0.819991 10.29 0.709991 9.14999L1.20001 9.10001ZM0.799988 3.78L1.29999 3.75C1.37999 4.83 1.43999 5.89001 1.51999 6.92001L1.01999 6.95999L0.519989 7C0.439989 5.97 0.369988 4.90001 0.299988 3.82001L0.799988 3.78ZM0.5 0.0499878L1 0C1.05 0.53 1.10001 1.06 1.14001 1.59L0.640015 1.63L0.140015 1.67001C0.100015 1.14001 0.05 0.619996 0 0.0899963L0.5 0.0499878Z" fill="#D4E7B2"/>
</svg>
