<svg width="46" height="23" viewBox="0 0 46 23" fill="none" xmlns="http://www.w3.org/2000/svg">
<path d="M44.37 21.69L44.53 21.22C45.02 21.39 45.49 21.55 45.97 21.71L45.81 22.18L45.65 22.65C45.17 22.49 44.69 22.33 44.2 22.16L44.37 21.69ZM39.58 19.99L39.75 19.52C40.72 19.87 41.67 20.21 42.61 20.54L42.44 21.01L42.27 21.48C41.33 21.15 40.37 20.81 39.4 20.45L39.58 19.99ZM34.83 18.21L35.01 17.74C35.97 18.11 36.92 18.47 37.86 18.82L37.69 19.29L37.52 19.76C36.57 19.41 35.62 19.05 34.66 18.68L34.83 18.21ZM30.1 16.35L30.29 15.89C31.23 16.27 32.18 16.65 33.12 17.02L32.94 17.49L32.76 17.96C31.81 17.59 30.87 17.21 29.92 16.83L30.1 16.35ZM25.41 14.41L25.61 13.95C26.54 14.35 27.48 14.74 28.42 15.13L28.23 15.59L28.04 16.05C27.1 15.66 26.15 15.27 25.22 14.87L25.41 14.41ZM20.76 12.38L20.96 11.92C21.88 12.33 22.81 12.74 23.74 13.15L23.54 13.61L23.34 14.07C22.4 13.66 21.46 13.25 20.54 12.84L20.76 12.38ZM16.15 10.25L16.37 9.79999C17.27 10.23 18.19 10.66 19.12 11.09L18.91 11.54L18.7 11.99C17.76 11.56 16.83 11.13 15.93 10.7L16.15 10.25ZM11.6 7.98999L11.83 7.54999C12.7 7.99999 13.61 8.46001 14.54 8.92001L14.32 9.37L14.1 9.82001C13.16 9.36001 12.24 8.9 11.37 8.44L11.6 7.98999ZM7.14999 5.54999L7.39999 5.12C8.21999 5.6 9.10998 6.10002 10.04 6.61002L9.79999 7.04999L9.56 7.48999C8.61 6.97999 7.71997 6.47999 6.87997 5.98999L7.14999 5.54999ZM2.89999 2.75L3.20999 2.35001C3.90999 2.89001 4.73999 3.46 5.67999 4.06L5.41 4.48001L5.13998 4.89999C4.17998 4.28999 3.32 3.70001 2.59 3.14001L2.89999 2.75ZM0.440002 0.23999L0.879974 0C1.04997 0.31 1.32998 0.670017 1.72998 1.08002L1.37 1.42999L1.00998 1.78C0.569979 1.34 0.23 0.900011 0 0.480011L0.440002 0.23999Z" fill="#D4E7B2"/>
</svg>
