<svg width="101" height="93" viewBox="0 0 101 93" fill="none" xmlns="http://www.w3.org/2000/svg">
<path d="M99.69 92.09L99.9 91.64C100.2 91.78 100.44 91.89 100.6 91.97C100.68 92.01 100.74 92.04 100.78 92.05C100.8 92.06 100.82 92.07 100.83 92.07C100.84 92.07 100.84 92.07 100.84 92.08C100.84 92.08 100.84 92.08 100.63 92.53C100.42 92.98 100.42 92.98 100.42 92.98C100.42 92.98 100.41 92.98 100.41 92.97C100.4 92.97 100.38 92.96 100.36 92.95C100.32 92.93 100.26 92.9 100.18 92.87C100.02 92.8 99.79 92.69 99.48 92.54L99.69 92.09ZM30.38 56.42L30.68 56.02C30.93 56.21 31.2 56.4 31.49 56.61L31.2 57.02L30.91 57.43C30.61 57.22 30.32 57.01 30.07 56.82L30.38 56.42ZM29.57 55.75L29.9 55.38C30.16 55.61 30.42 55.83 30.67 56.02L30.37 56.42L30.07 56.82C29.79 56.61 29.51 56.38 29.23 56.13L29.57 55.75ZM0.459991 0.179993C0.929991 -7.33137e-06 0.929993 0 0.929993 0V0.0100098C0.929993 0.0200098 0.940012 0.0299878 0.950012 0.0499878C0.970012 0.0899878 0.989989 0.150011 1.01999 0.230011C1.07999 0.390011 1.17001 0.620013 1.29001 0.920013L0.829987 1.11002L0.369995 1.29999C0.249995 0.999988 0.159996 0.770016 0.0899963 0.610016C0.0599963 0.530016 0.039989 0.469993 0.019989 0.429993C0.00998901 0.409993 0.01 0.390005 0 0.380005C0 0.370005 0 0.369995 0 0.369995C0 0.359995 -8.55327e-06 0.359993 0.459991 0.179993Z" fill="#EAF3D9"/>
</svg>
