<svg width="11" height="19" viewBox="0 0 11 19" fill="none" xmlns="http://www.w3.org/2000/svg">
<path d="M1.64999 17.5L1.88998 17.94C1.40998 18.2 0.920002 18.45 0.440002 18.69L0.220001 18.24L0 17.79C0.47 17.56 0.949983 17.32 1.41998 17.06L1.64999 17.5ZM6.17999 14.53L6.48999 14.92C5.65999 15.59 4.76 16.23 3.81 16.82L3.53998 16.4L3.26999 15.98C4.18999 15.4 5.05998 14.79 5.84998 14.15L6.17999 14.53ZM9.70999 10.47L10.16 10.69C9.69 11.64 8.99998 12.55 8.16998 13.41L7.81 13.06L7.44998 12.71C8.22998 11.9 8.84998 11.07 9.25998 10.25L9.70999 10.47ZM9.41 5.34L9.81998 5.06C10.57 6.15 10.88 7.28 10.8 8.41L10.3 8.38L9.79999 8.35001C9.85999 7.46001 9.61999 6.55 8.98999 5.63L9.41 5.34ZM5.20999 1.98999L5.44 1.54999C6.55 2.12999 7.47998 2.73999 8.22998 3.35999L7.91 3.73999L7.59 4.12C6.91 3.55 6.03998 2.97998 4.97998 2.41998L5.20999 1.98999ZM1.70999 0.470001L1.87997 0C2.41997 0.2 2.93 0.400006 3.41 0.600006L3.22 1.06L3.03 1.51999C2.56 1.31999 2.06998 1.13 1.53998 0.940002L1.70999 0.470001Z" fill="#D4E7B2"/>
</svg>
