<svg width="51" height="31" viewBox="0 0 51 31" fill="none" xmlns="http://www.w3.org/2000/svg">
<path d="M49.38 29.08L49.6 28.63C50.07 28.86 50.5 29.06 50.89 29.24L50.69 29.7L50.49 30.16C50.09 29.98 49.65 29.77 49.17 29.54L49.38 29.08ZM45.06 26.85L45.3 26.41C46.22 26.9 47.08 27.35 47.87 27.76L47.64 28.21L47.41 28.65C46.61 28.24 45.75 27.79 44.83 27.29L45.06 26.85ZM40.8 24.51L41.04 24.07C41.92 24.56 42.77 25.03 43.58 25.48L43.34 25.92L43.1 26.36C42.28 25.91 41.43 25.44 40.55 24.95L40.8 24.51ZM36.56 22.12L36.81 21.69C37.67 22.18 38.52 22.66 39.34 23.13L39.09 23.57L38.84 24.01C38.01 23.54 37.16 23.06 36.3 22.57L36.56 22.12ZM32.35 19.69L32.6 19.26C33.45 19.75 34.29 20.24 35.12 20.72L34.87 21.15L34.62 21.58C33.79 21.1 32.95 20.61 32.1 20.12L32.35 19.69ZM28.15 17.23L28.4 16.8C29.24 17.29 30.08 17.79 30.91 18.27L30.66 18.7L30.41 19.13C29.58 18.64 28.74 18.15 27.9 17.66L28.15 17.23ZM23.97 14.76L24.23 14.33C25.06 14.83 25.9 15.32 26.74 15.81L26.49 16.24L26.24 16.67C25.4 16.18 24.57 15.68 23.73 15.19L23.97 14.76ZM19.79 12.27L20.05 11.84C20.88 12.33 21.71 12.83 22.55 13.33L22.29 13.76L22.03 14.19C21.19 13.69 20.36 13.19 19.53 12.7L19.79 12.27ZM15.62 9.76999L15.88 9.34C16.7 9.83 17.53 10.33 18.37 10.84L18.11 11.27L17.85 11.7C17.01 11.19 16.17 10.69 15.36 10.2L15.62 9.76999ZM11.46 7.26001L11.72 6.82999C12.53 7.31999 13.36 7.82 14.22 8.34L13.96 8.76999L13.7 9.19998C12.85 8.68998 12.01 8.18 11.2 7.69L11.46 7.26001ZM7.31 4.73999L7.57001 4.31C8.36001 4.79 9.18999 5.30001 10.05 5.82001L9.79001 6.25L9.53 6.67999C8.67 6.15999 7.83999 5.64998 7.04999 5.16998L7.31 4.73999ZM3.16 2.19998L3.41998 1.76999C4.17998 2.22999 5.00999 2.74001 5.89999 3.29001L5.63998 3.72L5.38 4.14999C4.49 3.60999 3.64999 3.1 2.89999 2.63L3.16 2.19998ZM0.259979 0.429993L0.519989 0C0.889989 0.22 1.3 0.48 1.75 0.75L1.48999 1.17999L1.22998 1.60999C0.77998 1.32999 0.37 1.07999 0 0.859985L0.259979 0.429993Z" fill="#FDC126"/>
</svg>
