<svg width="47" height="12" viewBox="0 0 47 12" fill="none" xmlns="http://www.w3.org/2000/svg">
<path d="M45.29 0.660004L45.23 0.160004C45.79 0.100004 46.32 0.04 46.81 0L46.86 0.5L46.91 1C46.42 1.05 45.9 1.1 45.35 1.16L45.29 0.660004ZM40.01 1.37L39.94 0.880005C41.05 0.710005 42.11 0.570002 43.1 0.440002L43.16 0.940002L43.22 1.44C42.23 1.57 41.18 1.72 40.08 1.88L40.01 1.37ZM34.75 2.20999L34.67 1.72C35.75 1.54 36.8 1.36001 37.82 1.20001L37.9 1.69L37.98 2.17999C36.97 2.33999 35.92 2.51001 34.84 2.70001L34.75 2.20999ZM29.51 3.14999L29.42 2.66C30.48 2.46 31.52 2.27 32.56 2.09L32.65 2.57999L32.74 3.07001C31.71 3.25001 30.67 3.44001 29.61 3.64001L29.51 3.14999ZM24.29 4.17001L24.19 3.67999C25.23 3.46999 26.28 3.26 27.32 3.06L27.42 3.54999L27.52 4.04001C26.48 4.24001 25.44 4.45 24.4 4.66L24.29 4.17001ZM19.08 5.28L18.97 4.79001C20 4.56001 21.04 4.34002 22.09 4.11002L22.19 4.60001L22.29 5.09C21.25 5.31 20.21 5.54001 19.18 5.76001L19.08 5.28ZM13.9 6.48999L13.78 6C14.79 5.75 15.83 5.51001 16.89 5.26001L17 5.75L17.11 6.23999C16.06 6.47999 15.02 6.73 14.02 6.97L13.9 6.48999ZM8.75 7.82999L8.62 7.35001C9.61 7.08001 10.64 6.8 11.71 6.53L11.83 7.01001L11.95 7.48999C10.89 7.75999 9.86 8.04 8.88 8.31L8.75 7.82999ZM3.67001 9.39999L3.51001 8.92999C4.43001 8.60999 5.46 8.28001 6.56 7.95001L6.70001 8.42999L6.84 8.91C5.75 9.24 4.74002 9.56 3.83002 9.88L3.67001 9.39999ZM0.230011 10.81L0 10.37C0.43 10.15 0.930011 9.92 1.48001 9.69L1.67001 10.15L1.86002 10.61C1.33002 10.83 0.859991 11.04 0.459991 11.25L0.230011 10.81Z" fill="#FDC126"/>
</svg>
