<svg width="10" height="12" viewBox="0 0 10 12" fill="none" xmlns="http://www.w3.org/2000/svg">
<path d="M9.23001 9.84003L9.73001 9.82001C9.75001 10.4 9.75 10.98 9.72 11.55L9.22 11.52L8.72 11.49C8.75 10.95 8.75001 10.41 8.73001 9.86002L9.23001 9.84003ZM8.01001 4.35001L8.45999 4.14001C8.91999 5.16001 9.26 6.29002 9.47 7.46002L8.98001 7.55002L8.48999 7.64001C8.28999 6.54001 7.98 5.49002 7.56 4.55002L8.01001 4.35001ZM4.07001 0.570007L4.20001 0.0900269C5.41001 0.410027 6.41001 1.13002 7.20001 2.08002L6.82001 2.40002L6.44 2.72C5.75 1.89 4.92001 1.31002 3.95001 1.05002L4.07001 0.570007ZM0.179993 0.950012L0 0.480011C0.6 0.250011 1.17 0.09 1.72 0L1.80002 0.490021L1.88 0.980011C1.41 1.06001 0.899995 1.2 0.369995 1.41L0.179993 0.950012Z" fill="#D4E7B2"/>
</svg>
