<svg width="9" height="22" viewBox="0 0 9 22" fill="none" xmlns="http://www.w3.org/2000/svg">
<path d="M1.64001 19.94L2.01001 20.28C1.68001 20.64 1.34999 20.98 1.01999 21.3L0.670013 20.94L0.320007 20.58C0.640007 20.27 0.959989 19.94 1.26999 19.6L1.64001 19.94ZM4.51001 16.31L4.92001 16.59C4.38001 17.38 3.81 18.15 3.22 18.87L2.82999 18.55L2.44 18.23C3.01 17.53 3.55999 16.79 4.07999 16.02L4.51001 16.31ZM6.76999 12.27L7.23001 12.47C6.85001 13.32 6.41001 14.17 5.92001 15L5.48999 14.75L5.06 14.5C5.53 13.7 5.96001 12.88 6.32001 12.07L6.76999 12.27ZM8.04001 7.84L8.54001 7.89001C8.45001 8.81001 8.23 9.76 7.91 10.72L7.44 10.56L6.97 10.4C7.27 9.49999 7.46999 8.62 7.54999 7.78L8.04001 7.84ZM7.06 3.42001L7.47 3.13C8.07 3.97 8.41001 4.92 8.54001 5.94L8.04001 6L7.54001 6.06C7.43001 5.18 7.13999 4.39001 6.64999 3.70001L7.06 3.42001ZM3.22 1L3.35001 0.519989C4.41001 0.819989 5.3 1.22999 6.03 1.73999L5.73999 2.14999L5.45001 2.56C4.83001 2.12 4.05001 1.75999 3.07001 1.48999L3.22 1ZM0.0299988 0.5L0.0599976 0C0.559998 0.03 1.04 0.0800146 1.5 0.140015L1.42999 0.640015L1.36002 1.14001C0.930016 1.08001 0.48 1.04001 0 1.01001L0.0299988 0.5Z" fill="#D4E7B2"/>
</svg>
