<svg width="59" height="7" viewBox="0 0 59 7" fill="none" xmlns="http://www.w3.org/2000/svg">
<path d="M56.82 6.29001V5.79001C57.32 5.79001 57.8 5.79001 58.28 5.79001V6.29001V6.79001C57.81 6.79001 57.32 6.79001 56.82 6.79001V6.29001ZM51.95 6.24002L51.96 5.74002C52.96 5.76002 53.94 5.77 54.87 5.78V6.28V6.78C53.93 6.77 52.96 6.76002 51.95 6.74002V6.24002ZM47.06 6.13L47.07 5.63C48.07 5.66 49.05 5.68001 50 5.70001L49.99 6.20001L49.98 6.70001C49.02 6.68001 48.04 6.66 47.04 6.63L47.06 6.13ZM42.18 5.97L42.2 5.47C43.18 5.51 44.16 5.54001 45.12 5.57001L45.1 6.07001L45.08 6.57001C44.12 6.54001 43.14 6.51 42.15 6.47L42.18 5.97ZM37.3 5.76001L37.32 5.26001C38.3 5.31001 39.27 5.35001 40.24 5.39001L40.22 5.89001L40.2 6.39001C39.23 6.35001 38.25 6.31001 37.27 6.26001L37.3 5.76001ZM32.42 5.5L32.45 5C33.42 5.06 34.4 5.11 35.37 5.16L35.34 5.66L35.31 6.16C34.34 6.11 33.36 6.05 32.38 6L32.42 5.5ZM27.55 5.18002L27.59 4.68002C28.56 4.75002 29.53 4.82 30.51 4.88L30.48 5.38L30.45 5.88C29.47 5.82 28.5 5.75002 27.53 5.68002L27.55 5.18002ZM22.68 4.79001L22.72 4.29001C23.68 4.37001 24.65 4.45 25.63 4.53L25.59 5.03L25.55 5.53C24.57 5.45 23.59 5.37001 22.63 5.29001L22.68 4.79001ZM17.82 4.32001L17.87 3.82001C18.82 3.92001 19.79 4.02 20.78 4.12L20.73 4.62L20.68 5.12C19.69 5.03 18.71 4.93001 17.76 4.82001L17.82 4.32001ZM12.98 3.72L13.05 3.22C13.98 3.35 14.95 3.47 15.94 3.59L15.88 4.09L15.82 4.59C14.82 4.47 13.85 4.35 12.91 4.22L12.98 3.72ZM8.14999 2.94L8.23999 2.45001C9.13999 2.62001 10.11 2.79 11.12 2.94L11.04 3.43002L10.96 3.92001C9.93999 3.76001 8.96999 3.60001 8.04999 3.42001L8.14999 2.94ZM3.39999 1.81L3.54999 1.33002C4.36999 1.59002 5.30001 1.83 6.35001 2.06L6.23999 2.55002L6.13 3.04001C5.06 2.80001 4.1 2.55 3.25 2.28L3.39999 1.81ZM0.320007 0.390015L0.630005 0C0.910005 0.22 1.29 0.440013 1.78 0.670013L1.57001 1.12L1.36002 1.57001C0.820016 1.33001 0.36 1.06002 0 0.77002L0.320007 0.390015Z" fill="#FDC126"/>
</svg>
