<svg width="12" height="6" viewBox="0 0 12 6" fill="none" xmlns="http://www.w3.org/2000/svg">
<path d="M10.88 4.44864L11.3 4.18866C11.54 4.57866 11.77 4.98864 11.97 5.41864L11.52 5.62866L11.07 5.83865C10.88 5.43865 10.67 5.05865 10.45 4.70865L10.88 4.44864ZM7.66 1.33865L7.89001 0.898651C8.73001 1.33865 9.47999 1.92865 10.15 2.64865L9.78 2.98865L9.41 3.32864C8.82 2.68864 8.15999 2.16867 7.42999 1.78867L7.66 1.33865ZM3.26999 0.538666L3.23001 0.0386655C4.24001 -0.0513345 5.18 0.0186582 6.06 0.218658L5.95001 0.708648L5.84 1.19864C5.07 1.01864 4.23001 0.958666 3.32001 1.03867L3.26999 0.538666ZM0.170013 1.23865L0 0.768646C0.45 0.608646 0.899996 0.468652 1.34 0.368652L1.45999 0.848663L1.57999 1.33865C1.17999 1.43865 0.759987 1.56866 0.329987 1.71866L0.170013 1.23865Z" fill="#FDC126"/>
</svg>
