<svg width="52" height="6" viewBox="0 0 52 6" fill="none" xmlns="http://www.w3.org/2000/svg">
<path d="M49.96 0.830017L49.85 0.339996C50.37 0.229996 50.87 0.12 51.35 0L51.46 0.490021L51.57 0.980011C51.09 1.09001 50.58 1.21001 50.06 1.32001L49.96 0.830017ZM44.89 1.80002L44.8 1.31C45.86 1.13 46.87 0.94 47.83 0.75L47.93 1.24002L48.03 1.73001C47.06 1.92001 46.04 2.11001 44.97 2.29001L44.89 1.80002ZM39.78 2.62L39.71 2.13C40.75 1.98 41.77 1.82 42.76 1.66L42.84 2.14999L42.92 2.64001C41.92 2.80001 40.9 2.96002 39.85 3.11002L39.78 2.62ZM34.66 3.32001L34.6 2.82001C35.63 2.69001 36.66 2.55 37.67 2.41L37.74 2.91L37.81 3.41C36.8 3.55 35.77 3.69001 34.73 3.82001L34.66 3.32001ZM29.52 3.93002L29.47 3.43002C30.5 3.32002 31.52 3.20002 32.54 3.08002L32.6 3.58002L32.66 4.08002C31.64 4.20002 30.61 4.32002 29.58 4.43002L29.52 3.93002ZM24.38 4.45001L24.33 3.95001C25.35 3.86001 26.38 3.75999 27.41 3.64999L27.46 4.14999L27.51 4.64999C26.48 4.75999 25.45 4.86001 24.42 4.95001L24.38 4.45001ZM19.23 4.88L19.19 4.38C20.2 4.31 21.23 4.22 22.27 4.13L22.31 4.63L22.35 5.13C21.31 5.22 20.28 5.3 19.26 5.38L19.23 4.88ZM14.07 5.20001L14.04 4.70001C15.04 4.65001 16.07 4.59002 17.12 4.52002L17.15 5.02002L17.18 5.52002C16.12 5.59002 15.09 5.65001 14.08 5.70001L14.07 5.20001ZM8.89999 5.38L8.89001 4.88C9.87001 4.86 10.9 4.84001 11.97 4.79001L11.99 5.29001L12.01 5.79001C10.93 5.83001 9.89 5.86 8.91 5.88L8.89999 5.38ZM3.73001 5.30002L3.76001 4.80002C4.67001 4.85002 5.70001 4.88001 6.82001 4.89001V5.39001V5.89001C5.69001 5.88001 4.63999 5.85002 3.70999 5.80002L3.73001 5.30002ZM0.149994 4.83002L0.279999 4.35001C0.659999 4.46001 1.15001 4.55 1.73001 4.63L1.66 5.13L1.59 5.63C0.979996 5.55 0.45 5.45002 0 5.33002L0.149994 4.83002Z" fill="#D4E7B2"/>
</svg>
