<svg width="182" height="162" viewBox="0 0 182 162" fill="none" xmlns="http://www.w3.org/2000/svg">
<path d="M32.9855 121.71L33.2155 122.15L32.3255 122.61L32.0955 122.17L31.8655 121.73L32.7555 121.27L32.9855 121.71ZM32.4155 120.88L32.8255 120.6C33.0055 120.87 33.1555 121.08 33.2455 121.22C33.2955 121.29 33.3255 121.34 33.3555 121.38C33.3655 121.4 33.3755 121.41 33.3855 121.42L33.3955 121.43C33.3955 121.43 33.3955 121.43 32.9855 121.71C32.5755 121.99 32.5755 121.99 32.5755 121.99C32.5755 121.99 32.5755 121.98 32.5655 121.98C32.5555 121.97 32.5455 121.96 32.5355 121.94C32.5155 121.9 32.4755 121.85 32.4255 121.78C32.3255 121.64 32.1855 121.43 32.0055 121.16L32.4155 120.88ZM4.40552 76.57L4.87552 76.4C4.96552 76.65 5.08551 76.94 5.23551 77.28L4.77552 77.48L4.31552 77.68C4.15552 77.33 4.02551 77.01 3.92551 76.73L4.40552 76.57ZM4.1055 75.59L4.59552 75.47C4.67552 75.79 4.76552 76.1 4.87552 76.41L4.40552 76.58L3.93552 76.75C3.81552 76.41 3.71552 76.07 3.62552 75.72L4.1055 75.59ZM13.2455 55.72L13.4955 56.15C13.2255 56.31 12.9455 56.49 12.6655 56.7L12.3655 56.3L12.0655 55.9C12.3755 55.67 12.6855 55.47 12.9855 55.29L13.2455 55.72ZM14.1055 55.28L14.3055 55.74C14.0355 55.86 13.7655 55.99 13.4955 56.14L13.2455 55.71L12.9955 55.28C13.2955 55.1 13.6055 54.95 13.9155 54.82L14.1055 55.28ZM26.0555 61.46L25.5655 61.56C25.5055 61.28 25.4355 61 25.3355 60.72L25.8055 60.56L26.2755 60.4C26.3855 60.71 26.4755 61.03 26.5355 61.36L26.0555 61.46ZM26.2655 62.4L25.7755 62.52C25.6855 62.14 25.6055 61.82 25.5555 61.56L26.0455 61.46L26.5355 61.36C26.5855 61.6 26.6555 61.9 26.7455 62.28L26.2655 62.4ZM45.5055 101.32L45.5955 101.81C45.1855 101.88 44.7755 101.86 44.3655 101.77L44.4855 101.28L44.6055 100.79C44.8955 100.86 45.1655 100.87 45.4255 100.82L45.5055 101.32ZM46.3855 100.87L46.7355 101.23C46.4155 101.54 46.0355 101.74 45.5955 101.82L45.5055 101.33L45.4155 100.84C45.6555 100.8 45.8555 100.69 46.0355 100.52L46.3855 100.87ZM32.6255 46.05L33.0355 45.76C33.2155 46.01 33.3955 46.3 33.5955 46.64L33.1655 46.89L32.7355 47.14C32.5555 46.82 32.3755 46.56 32.2255 46.33L32.6255 46.05ZM32.0955 45.24L32.5255 44.98C32.6855 45.24 32.8555 45.5 33.0355 45.76L32.6255 46.05L32.2155 46.34C32.0155 46.06 31.8355 45.78 31.6655 45.5L32.0955 45.24ZM38.7955 27.58L39.0855 27.99C38.8255 28.17 38.5755 28.36 38.3255 28.55L38.0255 28.15L37.7255 27.75C37.9855 27.55 38.2455 27.36 38.5155 27.17L38.7955 27.58ZM39.6855 27L39.9455 27.43C39.6655 27.6 39.3755 27.78 39.0855 27.99L38.7955 27.58L38.5055 27.17C38.8155 26.95 39.1255 26.75 39.4355 26.56L39.6855 27ZM52.4255 34.5L51.9655 34.7C51.8255 34.38 51.6755 34.07 51.5355 33.75L51.9855 33.54L52.4355 33.33C52.5855 33.65 52.7355 33.97 52.8755 34.3L52.4255 34.5ZM52.7955 35.4L52.3255 35.58C52.1955 35.24 52.0755 34.95 51.9655 34.7L52.4255 34.5L52.8855 34.3C53.0055 34.57 53.1355 34.88 53.2655 35.23L52.7955 35.4ZM67.7555 73.46L67.7655 73.96C67.3055 73.97 66.8855 73.74 66.5155 73.43L66.8355 73.05L67.1555 72.67C67.4355 72.91 67.6255 72.97 67.7455 72.97L67.7555 73.46ZM68.3355 72.72L68.7655 72.97C68.5755 73.3 68.3555 73.6 68.0855 73.84L67.7555 73.47L67.4255 73.1C67.5955 72.95 67.7555 72.74 67.9055 72.49L68.3355 72.72ZM57.6355 28.7L58.0155 28.37C58.2155 28.6 58.4255 28.88 58.6455 29.2L58.2255 29.48L57.8055 29.76C57.6055 29.47 57.4255 29.22 57.2555 29.03L57.6355 28.7ZM57.0655 27.89L57.4955 27.64C57.6355 27.88 57.8055 28.12 58.0155 28.36L57.6355 28.69L57.2555 29.02C57.0055 28.73 56.7955 28.44 56.6255 28.14L57.0655 27.89ZM70.9655 13.76L71.1255 14.23C70.8255 14.33 70.5155 14.45 70.1955 14.57L70.0155 14.1L69.8355 13.63C70.1655 13.5 70.4855 13.38 70.7955 13.28L70.9655 13.76ZM71.9555 13.55L71.9855 14.05C71.7055 14.07 71.4155 14.13 71.1155 14.23L70.9555 13.76L70.7955 13.29C71.1755 13.16 71.5455 13.08 71.9255 13.06L71.9555 13.55ZM84.5455 37.5L84.0455 37.57C84.0055 37.28 83.9555 36.97 83.9055 36.64L84.3955 36.56L84.8855 36.48C84.9455 36.82 84.9955 37.14 85.0355 37.45L84.5455 37.5ZM84.6755 38.47L84.1755 38.53C84.1355 38.18 84.0955 37.86 84.0555 37.57L84.5555 37.5L85.0555 37.43C85.0955 37.73 85.1355 38.06 85.1755 38.41L84.6755 38.47ZM93.2555 63.81L93.4455 64.27C93.0455 64.44 92.6555 64.53 92.2755 64.55L92.2455 64.05L92.2155 63.55C92.4755 63.54 92.7555 63.47 93.0555 63.34L93.2555 63.81ZM94.0455 63.24L94.4155 63.58C94.1455 63.88 93.8255 64.12 93.4555 64.27L93.2655 63.81L93.0755 63.35C93.2955 63.26 93.5055 63.11 93.6855 62.91L94.0455 63.24ZM86.6555 21.12L87.1155 20.92C87.2055 21.13 87.3255 21.44 87.4855 21.85L87.0155 22.02L86.5455 22.19C86.3955 21.79 86.2855 21.5 86.2055 21.32L86.6555 21.12ZM86.3055 20.2L86.7855 20.05C86.8855 20.37 86.9955 20.66 87.1155 20.92L86.6555 21.12L86.1955 21.32C86.0655 21.02 85.9355 20.7 85.8255 20.35L86.3055 20.2ZM91.7955 7.37997L92.0055 7.82999C91.7055 7.96999 91.4155 8.12 91.1355 8.28L90.8855 7.84L90.6355 7.39999C90.9355 7.22999 91.2455 7.06998 91.5655 6.91998L91.7955 7.37997ZM92.7555 6.95999L92.9455 7.41998C92.6355 7.53998 92.3255 7.67999 92.0055 7.82999L91.7955 7.37997L91.5855 6.92999C91.9155 6.76999 92.2455 6.63 92.5755 6.5L92.7555 6.95999ZM105.626 13.35L105.146 13.49C105.056 13.17 104.946 12.86 104.836 12.55L105.306 12.38L105.776 12.21C105.896 12.53 105.996 12.86 106.096 13.2L105.626 13.35ZM105.866 14.31L105.376 14.41C105.306 14.06 105.226 13.76 105.146 13.49L105.626 13.35L106.105 13.21C106.195 13.51 106.275 13.85 106.355 14.21L105.866 14.31ZM114.135 43.91L114.156 44.41C113.736 44.43 113.325 44.38 112.945 44.27L113.086 43.79L113.225 43.31C113.505 43.39 113.796 43.43 114.116 43.41L114.135 43.91ZM115.116 43.64L115.346 44.08C114.986 44.27 114.586 44.38 114.156 44.4L114.135 43.9L114.116 43.4C114.406 43.39 114.655 43.32 114.885 43.2L115.116 43.64ZM113.876 10.18C114.366 10.06 114.366 10.06 114.366 10.06V10.07C114.366 10.08 114.376 10.1 114.376 10.12C114.386 10.16 114.395 10.22 114.415 10.3C114.455 10.46 114.506 10.7 114.576 11L114.086 11.11L113.596 11.22C113.526 10.92 113.476 10.68 113.436 10.52C113.416 10.44 113.406 10.38 113.396 10.34C113.396 10.32 113.385 10.3 113.385 10.29C113.385 10.28 113.385 10.28 113.385 10.28C113.385 10.28 113.396 10.3 113.876 10.18ZM113.586 9.26999L114.066 9.12997C114.146 9.40997 114.216 9.63 114.276 9.78C114.306 9.86 114.326 9.91999 114.336 9.95999C114.346 9.97999 114.345 9.99 114.355 10C114.355 10.01 114.355 10.01 114.355 10.01C114.355 10.01 114.355 10.01 113.885 10.18C113.415 10.35 113.415 10.35 113.415 10.35V10.34C113.415 10.33 113.406 10.31 113.396 10.29C113.376 10.25 113.356 10.18 113.336 10.1C113.286 9.93998 113.206 9.70998 113.126 9.41998L113.586 9.26999ZM114.006 1.29999L114.225 1.75C114.015 1.85 113.835 2.00999 113.695 2.20999L113.286 1.92999L112.876 1.64999C113.106 1.31999 113.406 1.03999 113.786 0.859985L114.006 1.29999ZM114.885 0.959991L115.056 1.42999C114.766 1.53999 114.476 1.64998 114.176 1.75998L113.996 1.28998L113.816 0.819977C114.126 0.699977 114.416 0.58998 114.716 0.47998L114.885 0.959991ZM126.186 8.22998L125.686 8.28998C125.646 7.97998 125.606 7.68999 125.576 7.39999L126.076 7.32999L126.576 7.25998C126.616 7.54998 126.655 7.84997 126.695 8.15997L126.186 8.22998ZM126.296 9.20999L125.796 9.25998C125.766 8.92998 125.726 8.61 125.686 8.28L126.186 8.22L126.686 8.15997C126.726 8.48997 126.766 8.81999 126.796 9.14999L126.296 9.20999ZM130.826 26.73L130.836 27.23C130.376 27.24 129.956 27.15 129.576 26.96L129.786 26.51L129.996 26.06C130.236 26.17 130.506 26.23 130.816 26.23L130.826 26.73ZM131.786 26.37L132.116 26.75C131.766 27.06 131.326 27.22 130.826 27.23L130.816 26.73L130.806 26.23C131.086 26.23 131.285 26.14 131.445 26L131.786 26.37ZM130.996 1.01999L131.496 1.03C131.486 1.35 131.486 1.67998 131.486 2.00998H130.986H130.486C130.486 1.66998 130.486 1.33998 130.496 1.00998L130.996 1.01999ZM131.076 0.0899963L131.566 0.179993C131.516 0.449993 131.486 0.729999 131.486 1.03L130.986 1.01999L130.486 1.00998C130.496 0.659979 130.526 0.32 130.586 0L131.076 0.0899963ZM160.236 5.69998L159.736 5.75998C159.696 5.47998 159.636 5.19998 159.556 4.91998L160.036 4.76999L160.516 4.62C160.616 4.95 160.696 5.28997 160.736 5.62997L160.236 5.69998ZM160.286 6.65997L159.786 6.64999C159.786 6.35999 159.776 6.05998 159.736 5.75998L160.236 5.69998L160.736 5.63998C160.776 5.98998 160.796 6.32998 160.796 6.66998L160.286 6.65997ZM141.556 27.07L141.066 26.96C141.146 26.61 141.265 26.27 141.445 25.94L141.885 26.17L142.326 26.4C142.186 26.67 142.096 26.93 142.036 27.18L141.556 27.07ZM141.766 28.01L141.466 28.41C141.006 28.07 140.956 27.51 141.066 26.97L141.556 27.08L142.046 27.19C142.006 27.38 142.006 27.49 142.026 27.55C142.036 27.6 142.056 27.61 142.066 27.62L141.766 28.01ZM170.436 18.47L170.105 18.85C169.925 18.69 169.675 18.57 169.355 18.49L169.475 18L169.596 17.51C170.036 17.61 170.436 17.8 170.766 18.08L170.436 18.47ZM171.165 19.21L170.786 19.54C170.586 19.31 170.356 19.08 170.096 18.85L170.426 18.47L170.756 18.09C171.046 18.34 171.306 18.61 171.546 18.88L171.165 19.21ZM166.326 32.44L166.026 32.04C166.296 31.84 166.556 31.64 166.806 31.43L167.126 31.82L167.445 32.21C167.175 32.43 166.906 32.64 166.626 32.85L166.326 32.44ZM165.466 33L165.206 32.57C165.536 32.37 165.806 32.19 166.026 32.04L166.326 32.44L166.626 32.84C166.376 33.03 166.075 33.22 165.725 33.43L165.466 33ZM130.725 52.12L130.346 52.44C129.996 52.03 129.906 51.54 130.046 51.04L130.526 51.17L131.006 51.3C130.956 51.5 130.985 51.64 131.105 51.78L130.725 52.12ZM131.546 52.69L131.355 53.15C130.955 52.98 130.616 52.76 130.346 52.45L130.725 52.13L131.105 51.81C131.245 51.97 131.446 52.12 131.736 52.24L131.546 52.69ZM167.786 40.67L168.036 41.1C167.766 41.26 167.476 41.42 167.176 41.59L166.936 41.15L166.695 40.71C166.995 40.55 167.276 40.38 167.536 40.23L167.786 40.67ZM168.716 40.18L168.936 40.63C168.646 40.77 168.346 40.93 168.036 41.11L167.786 40.68L167.536 40.25C167.866 40.06 168.186 39.89 168.506 39.74L168.716 40.18ZM178.116 52.81L177.626 52.7C177.696 52.39 177.746 52.07 177.796 51.74L178.286 51.81L178.776 51.88C178.726 52.23 178.666 52.57 178.596 52.91L178.116 52.81ZM177.876 53.79L177.396 53.65C177.486 53.33 177.565 53.02 177.635 52.7L178.126 52.81L178.616 52.92C178.546 53.26 178.456 53.59 178.366 53.93L177.876 53.79ZM159.986 66.71L159.956 66.21C160.316 66.19 160.676 66.16 161.026 66.13L161.076 66.63L161.126 67.13C160.766 67.16 160.396 67.19 160.016 67.21L159.986 66.71ZM158.936 66.78L158.896 66.28C159.276 66.25 159.626 66.23 159.956 66.21L159.986 66.71L160.016 67.21C159.696 67.23 159.356 67.25 158.986 67.28L158.936 66.78ZM109.855 78.62L109.366 78.51C109.456 78.09 109.775 77.75 110.135 77.46L110.445 77.85L110.756 78.24C110.436 78.49 110.356 78.65 110.336 78.72L109.855 78.62ZM110.415 79.38L110.195 79.83C109.945 79.71 109.716 79.55 109.556 79.34C109.386 79.11 109.306 78.83 109.376 78.52L109.866 78.63L110.355 78.74C110.355 78.75 110.355 78.74 110.355 78.73C110.355 78.72 110.356 78.73 110.366 78.74C110.396 78.78 110.466 78.85 110.646 78.93L110.415 79.38ZM164.746 74.67L164.885 75.15C164.565 75.24 164.226 75.33 163.876 75.42L163.746 74.94L163.616 74.46C163.956 74.37 164.285 74.28 164.605 74.19L164.746 74.67ZM165.676 74.42L165.796 74.91C165.496 74.98 165.186 75.07 164.876 75.16L164.736 74.68L164.596 74.2C164.916 74.11 165.236 74.02 165.556 73.95L165.676 74.42ZM180.445 86.98L179.956 86.87C180.016 86.59 180.066 86.3 180.116 86.01L180.605 86.08L181.096 86.15C181.046 86.46 180.996 86.77 180.926 87.08L180.445 86.98ZM180.195 87.92L179.716 87.78C179.806 87.48 179.885 87.18 179.945 86.88L180.436 86.99L180.926 87.1C180.856 87.43 180.766 87.75 180.676 88.08L180.195 87.92ZM158.385 99.04V98.54C158.735 98.54 159.086 98.54 159.426 98.53L159.436 99.03L159.445 99.53C159.095 99.54 158.745 99.54 158.385 99.54V99.04ZM157.355 99.03L157.366 98.53C157.726 98.54 158.065 98.54 158.385 98.54V99.04V99.54C158.055 99.54 157.715 99.54 157.355 99.53V99.03ZM94.4155 100.03L93.9255 99.92C94.0155 99.49 94.2855 99.14 94.6355 98.86L94.9455 99.25L95.2555 99.64C95.0255 99.83 94.9255 99.99 94.8955 100.13L94.4155 100.03ZM94.6355 100.96L94.2255 101.25C93.9455 100.86 93.8155 100.41 93.9255 99.93L94.4155 100.04L94.9055 100.15C94.8755 100.31 94.8955 100.47 95.0455 100.68L94.6355 100.96ZM155.506 107.33L155.516 107.83C155.176 107.83 154.825 107.84 154.475 107.84V107.34V106.84C154.835 106.84 155.176 106.83 155.516 106.83L155.506 107.33ZM156.516 107.33L156.506 107.83C156.186 107.82 155.856 107.82 155.516 107.82L155.506 107.32L155.496 106.82C155.846 106.82 156.186 106.82 156.516 106.83V107.33ZM156.156 129.25L155.846 128.86C156.076 128.68 156.316 128.48 156.566 128.27L156.896 128.65L157.225 129.03C156.975 129.25 156.716 129.46 156.466 129.66L156.156 129.25ZM155.385 129.84L155.086 129.44C155.346 129.25 155.606 129.05 155.846 128.86L156.156 129.25L156.466 129.64C156.206 129.84 155.946 130.04 155.676 130.24L155.385 129.84ZM128.036 136.03L128.186 135.55C128.506 135.65 128.826 135.74 129.146 135.83L129.016 136.31L128.885 136.79C128.545 136.7 128.216 136.6 127.876 136.5L128.036 136.03ZM127.066 135.71L127.225 135.24C127.585 135.36 127.906 135.47 128.186 135.56L128.036 136.04L127.885 136.52C127.585 136.43 127.266 136.32 126.906 136.19L127.066 135.71ZM66.9955 116.87L66.5855 116.58C66.8455 116.22 67.2655 116.02 67.7155 115.91L67.8355 116.4L67.9555 116.89C67.6155 116.97 67.4655 117.09 67.4055 117.17L66.9955 116.87ZM66.8055 117.77L66.3155 117.87C66.2255 117.41 66.3055 116.96 66.5855 116.57L66.9955 116.86L67.4055 117.15C67.3055 117.3 67.2655 117.46 67.3055 117.67L66.8055 117.77ZM114.695 141.06L114.546 141.54C114.216 141.44 113.886 141.33 113.556 141.22L113.716 140.74L113.876 140.26C114.206 140.37 114.535 140.47 114.855 140.58L114.695 141.06ZM115.725 141.4L115.566 141.87C115.236 141.76 114.896 141.64 114.556 141.53L114.706 141.05L114.855 140.57C115.215 140.68 115.556 140.8 115.896 140.92L115.725 141.4ZM112.665 160.43L112.475 159.97C112.795 159.84 113.106 159.71 113.426 159.56L113.626 160.02L113.826 160.48C113.496 160.62 113.176 160.76 112.846 160.9L112.665 160.43ZM111.756 160.78L111.576 160.31C111.866 160.2 112.165 160.08 112.475 159.96L112.665 160.42L112.855 160.88C112.545 161.01 112.236 161.13 111.936 161.24L111.756 160.78ZM90.3755 158.57L90.5355 158.1C90.8555 158.21 91.1755 158.32 91.4855 158.43L91.3155 158.9L91.1455 159.37C90.8355 159.26 90.5255 159.15 90.2055 159.04L90.3755 158.57ZM89.4055 158.19L89.5955 157.73C89.9555 157.88 90.2755 158 90.5355 158.09L90.3755 158.56L90.2155 159.03C89.9155 158.93 89.5855 158.8 89.2055 158.64L89.4055 158.19ZM36.2655 127.37C36.5255 126.94 36.5255 126.94 36.5255 126.94C36.5255 126.94 36.5355 126.94 36.5355 126.95C36.5455 126.96 36.5555 126.96 36.5755 126.98C36.6155 127 36.6655 127.04 36.7455 127.08C36.8955 127.17 37.1155 127.31 37.4055 127.49L37.1455 127.92L36.8855 128.35C36.5955 128.17 36.3755 128.04 36.2255 127.94C36.1555 127.89 36.0955 127.86 36.0555 127.84C36.0355 127.83 36.0255 127.82 36.0155 127.81L36.0055 127.8C36.0055 127.8 36.0055 127.8 36.2655 127.37ZM35.4355 127.87L35.1755 127.44L36.0055 126.94L36.2655 127.37L36.5255 127.8L35.6955 128.3L35.4355 127.87ZM5.87552 145.61L5.61551 145.18L6.4455 144.68L6.70551 145.11L6.96552 145.54L6.1355 146.04L5.87552 145.61ZM5.3255 144.9L5.71552 144.59L6.26551 145.3L5.87552 145.61L5.48551 145.92L4.93552 145.21L5.3255 144.9ZM0.495517 138.7L0.885501 138.39L1.43552 139.1L1.0455 139.41L0.65552 139.72L0.105502 139.01L0.495517 138.7ZM1.37552 138.24L1.6055 138.68L0.715518 139.14L0.485507 138.7L0.255527 138.26L1.14551 137.8L1.37552 138.24ZM32.9855 121.71L33.3955 121.43C33.4755 121.55 33.5055 121.69 33.4655 121.83C33.4355 121.97 33.3355 122.09 33.2155 122.15L32.9855 121.71ZM67.7555 73.46L68.0855 73.83C67.9955 73.91 67.8755 73.96 67.7555 73.96V73.46ZM113.876 10.18L114.346 10.01C114.356 10.03 114.356 10.05 114.366 10.06L113.876 10.18ZM114.006 1.29999L113.786 0.849976C113.796 0.839976 113.816 0.839987 113.826 0.829987L114.006 1.29999ZM36.2655 127.37L36.0055 126.94C36.1655 126.84 36.3655 126.85 36.5255 126.94L36.2655 127.37ZM5.87552 145.61L6.1355 146.04C5.9155 146.17 5.63551 146.12 5.48551 145.92L5.87552 145.61ZM0.495517 138.7L0.105502 139.01C0.0155021 138.89 -0.0244942 138.74 0.0155058 138.6C0.0455058 138.45 0.145516 138.33 0.275516 138.26L0.495517 138.7Z" fill="#D4E7B2"/>
</svg>
