<svg width="7" height="26" viewBox="0 0 7 26" fill="none" xmlns="http://www.w3.org/2000/svg">
<path d="M5.48999 23.63L5.88 23.32C6.2 23.73 6.54 24.03 6.88 24.22L6.63 24.66L6.38 25.1C5.9 24.83 5.47 24.43 5.09 23.95L5.48999 23.63ZM3.36002 18.95L3.84 18.81C4.15 19.87 4.49 20.83 4.87 21.64L4.42001 21.85L3.97 22.06C3.56 21.19 3.2 20.18 2.88 19.09L3.36002 18.95ZM2.22 13.91L2.70999 13.82C2.88999 14.85 3.10001 15.86 3.32001 16.82L2.82999 16.93L2.34 17.04C2.11 16.06 1.9 15.03 1.72 13.99L2.22 13.91ZM1.45999 8.79001L1.95999 8.73001C2.08999 9.74001 2.23 10.76 2.38 11.78L1.89001 11.86L1.39999 11.94C1.23999 10.92 1.1 9.88 0.970001 8.87L1.45999 8.79001ZM0.869995 3.66L1.37 3.61002C1.47 4.59002 1.58001 5.62002 1.70001 6.68002L1.20001 6.74002L0.700012 6.80002C0.580012 5.73002 0.469995 4.7 0.369995 3.72L0.869995 3.66ZM0.48999 0.0599976L0.98999 0C1.03999 0.48 1.1 0.990009 1.16 1.54001L0.660004 1.59L0.160004 1.64001C0.100004 1.10001 0.05 0.590016 0 0.110016L0.48999 0.0599976Z" fill="#D4E7B2"/>
</svg>
