<svg width="5" height="12" viewBox="0 0 5 12" fill="none" xmlns="http://www.w3.org/2000/svg">
<path d="M3.06 1.62003L2.70001 1.27002C3.13001 0.82002 3.61 0.4 4.16 0L4.45001 0.410004L4.73999 0.820007C4.23999 1.18001 3.8 1.57 3.41 1.97L3.06 1.62003ZM0.51001 7.12003L0.0100098 7.06003C0.15001 5.83003 0.510004 4.57003 1.16 3.37003L1.60001 3.61002L2.04001 3.85001C1.46001 4.93001 1.13 6.06002 1 7.18002L0.51001 7.12003ZM0.820007 11.41L0.339996 11.54C0.189996 10.95 0.07 10.32 0 9.65002L0.5 9.60001L1 9.55002C1.06 10.17 1.17 10.75 1.31 11.29L0.820007 11.41Z" fill="#D4E7B2"/>
</svg>
