<svg width="100" height="68" viewBox="0 0 100 68" fill="none" xmlns="http://www.w3.org/2000/svg">
<path d="M98.39 67.44L98.33 66.94C98.67 66.9 99 66.86 99.34 66.82L99.4 67.32L99.46 67.82C99.12 67.86 98.78 67.9 98.45 67.94L98.39 67.44ZM17.86 64.59L18.04 64.12C18.28 64.21 18.59 64.31 18.97 64.42L18.84 64.9L18.71 65.38C18.31 65.27 17.96 65.16 17.68 65.05L17.86 64.59ZM17.07 63.98L17.44 63.65C17.69 63.93 17.89 64.07 18.04 64.13L17.86 64.6L17.68 65.07C17.32 64.93 16.99 64.66 16.69 64.32L17.07 63.98ZM0.48999 0.0899963C0.97999 -3.66569e-06 0.97998 0 0.97998 0V0.00997925C0.97998 0.0199792 0.97999 0.0399976 0.98999 0.0599976C0.99999 0.0999976 1.00999 0.15999 1.01999 0.23999C1.04999 0.39999 1.08999 0.630002 1.14999 0.940002L0.659973 1.03L0.169983 1.12C0.109983 0.809995 0.069978 0.579983 0.039978 0.419983C0.029978 0.339983 0.00997925 0.27999 0.00997925 0.23999C0.00997925 0.21999 0 0.200002 0 0.190002C0 0.180002 0 0.179993 0 0.179993C0 0.179993 -9.77516e-06 0.179996 0.48999 0.0899963Z" fill="#EAF3D9"/>
</svg>
