<svg width="25" height="8" viewBox="0 0 25 8" fill="none" xmlns="http://www.w3.org/2000/svg">
<path d="M23.31 1.28998L23.04 0.869995C23.48 0.589995 23.9 0.3 24.32 0L24.61 0.410004L24.9 0.819977C24.47 1.11998 24.04 1.41999 23.59 1.70999L23.31 1.28998ZM18.77 3.81L18.56 3.35999C19.5 2.90999 20.42 2.42999 21.3 1.92999L21.55 2.35999L21.8 2.78998C20.9 3.30998 19.96 3.79998 18.99 4.25998L18.77 3.81ZM13.94 5.72L13.79 5.23999C14.78 4.92999 15.75 4.56999 16.69 4.17999L16.88 4.63998L17.07 5.09998C16.1 5.49998 15.1 5.85999 14.09 6.17999L13.94 5.72ZM8.87997 6.91L8.79999 6.41998C9.80999 6.26998 10.82 6.06 11.82 5.81L11.94 6.28998L12.06 6.76999C11.03 7.02999 9.98998 7.23999 8.94998 7.39999L8.87997 6.91ZM3.69998 7.22998L3.71997 6.72998C4.73997 6.76998 5.75998 6.74 6.78998 6.66L6.82999 7.16L6.87 7.66C5.81 7.75 4.73999 7.76998 3.67999 7.72998L3.69998 7.22998ZM0.0899963 6.81L0.189972 6.31998C0.689972 6.41998 1.18998 6.5 1.69998 6.56L1.63998 7.06L1.57999 7.56C1.04999 7.49 0.52 7.41 0 7.31L0.0899963 6.81Z" fill="#D4E7B2"/>
</svg>
