<svg width="20" height="12" viewBox="0 0 20 12" fill="none" xmlns="http://www.w3.org/2000/svg">
<path d="M18.64 1.44L18.19 1.22C18.39 0.820001 18.56 0.42 18.71 0L19.18 0.169983L19.65 0.339996C19.49 0.789996 19.3 1.23 19.08 1.66L18.64 1.44ZM15.87 5.10999L15.53 4.75C16.2 4.12 16.78 3.45 17.28 2.75L17.69 3.03998L18.1 3.32999C17.57 4.08999 16.94 4.80999 16.22 5.48999L15.87 5.10999ZM12.09 7.73999L11.86 7.29999C12.7 6.86999 13.46 6.39999 14.15 5.89999L14.44 6.29999L14.73 6.69998C14 7.23998 13.19 7.73 12.31 8.19L12.09 7.73999ZM7.78 9.39999L7.63998 8.91998C8.54998 8.65998 9.39998 8.36999 10.2 8.04999L10.39 8.50998L10.58 8.97C9.74999 9.31 8.85997 9.61 7.90997 9.88L7.78 9.39999ZM3.25998 10.32L3.19998 9.81998C4.13998 9.69998 5.02997 9.53999 5.87997 9.35999L5.97998 9.85001L6.07999 10.34C5.19999 10.53 4.27998 10.69 3.31998 10.81L3.25998 10.32ZM0.0299988 10.61L0 10.11C0.46 10.09 0.919995 10.06 1.37 10.02L1.40997 10.52L1.44998 11.02C0.989982 11.06 0.529988 11.09 0.0499878 11.11L0.0299988 10.61Z" fill="#D4E7B2"/>
</svg>
