<svg width="5" height="12" viewBox="0 0 5 12" fill="none" xmlns="http://www.w3.org/2000/svg">
<path d="M3.06003 1.62L2.70001 1.26999C3.13001 0.819989 3.61 0.4 4.16 0L4.45001 0.410004L4.74002 0.820007C4.24002 1.18001 3.8 1.57 3.41 1.97L3.06003 1.62ZM0.51001 7.12L0.0100098 7.06C0.15001 5.83 0.510004 4.57 1.16 3.37L1.60001 3.60999L2.04001 3.85001C1.46001 4.93001 1.13 6.05999 1 7.17999L0.51001 7.12ZM0.820007 11.41L0.340027 11.54C0.190027 10.95 0.07 10.32 0 9.64999L0.5 9.60001L1 9.54999C1.06 10.17 1.17003 10.75 1.31003 11.29L0.820007 11.41Z" fill="#FDC126"/>
</svg>
