<svg width="46" height="23" viewBox="0 0 46 23" fill="none" xmlns="http://www.w3.org/2000/svg">
<path d="M44.36 21.69L44.52 21.22C45.01 21.39 45.48 21.55 45.96 21.71L45.8 22.18L45.64 22.65C45.16 22.49 44.68 22.33 44.19 22.16L44.36 21.69ZM39.58 19.99L39.75 19.52C40.72 19.87 41.67 20.21 42.61 20.54L42.44 21.01L42.27 21.48C41.33 21.15 40.37 20.81 39.4 20.45L39.58 19.99ZM34.82 18.21L35 17.74C35.95 18.11 36.91 18.47 37.85 18.82L37.68 19.29L37.51 19.76C36.56 19.41 35.61 19.05 34.65 18.68L34.82 18.21ZM30.09 16.35L30.28 15.89C31.22 16.27 32.17 16.65 33.11 17.02L32.93 17.49L32.75 17.96C31.8 17.59 30.86 17.21 29.91 16.83L30.09 16.35ZM25.4 14.41L25.6 13.95C26.53 14.35 27.47 14.74 28.41 15.13L28.22 15.59L28.03 16.05C27.09 15.66 26.14 15.27 25.21 14.87L25.4 14.41ZM20.75 12.38L20.95 11.92C21.87 12.33 22.8 12.74 23.73 13.15L23.53 13.61L23.33 14.07C22.39 13.66 21.45 13.25 20.53 12.84L20.75 12.38ZM16.14 10.25L16.36 9.79999C17.26 10.23 18.18 10.66 19.11 11.09L18.9 11.54L18.69 11.99C17.75 11.56 16.82 11.13 15.92 10.7L16.14 10.25ZM11.59 7.98999L11.82 7.54999C12.69 7.99999 13.6 8.46001 14.53 8.92001L14.31 9.37L14.09 9.82001C13.15 9.36001 12.24 8.9 11.36 8.44L11.59 7.98999ZM7.13998 5.54999L7.38998 5.12C8.20998 5.6 9.1 6.10002 10.03 6.61002L9.79001 7.04999L9.54999 7.48999C8.59999 6.97999 7.71 6.47999 6.87 5.98999L7.13998 5.54999ZM2.89999 2.75L3.20999 2.35001C3.90999 2.89001 4.73999 3.46 5.67999 4.06L5.41 4.48001L5.13998 4.89999C4.17998 4.28999 3.32 3.70001 2.59 3.14001L2.89999 2.75ZM0.440002 0.23999L0.880005 0C1.05 0.31 1.32998 0.670017 1.72998 1.08002L1.37 1.42999L1.01001 1.78C0.57001 1.34 0.23 0.900011 0 0.480011L0.440002 0.23999Z" fill="#D4E7B2"/>
</svg>
