<svg width="25" height="8" viewBox="0 0 25 8" fill="none" xmlns="http://www.w3.org/2000/svg">
<path d="M23.31 1.29001L23.04 0.869995C23.48 0.589995 23.9 0.3 24.32 0L24.61 0.410004L24.9 0.820007C24.47 1.12001 24.04 1.41999 23.59 1.70999L23.31 1.29001ZM18.77 3.82001L18.56 3.37C19.5 2.92 20.42 2.44 21.3 1.94L21.55 2.37L21.8 2.79999C20.9 3.31999 19.96 3.80999 18.99 4.26999L18.77 3.82001ZM13.94 5.72L13.79 5.23999C14.78 4.92999 15.75 4.56999 16.69 4.17999L16.88 4.64001L17.07 5.10001C16.1 5.50001 15.1 5.85999 14.09 6.17999L13.94 5.72ZM8.88 6.92001L8.79999 6.42999C9.80999 6.27999 10.82 6.07001 11.82 5.82001L11.94 6.29999L12.06 6.78C11.03 7.04 9.99001 7.25 8.95001 7.41L8.88 6.92001ZM3.70001 7.23001L3.72 6.73001C4.74 6.77001 5.76001 6.74 6.79001 6.66L6.82999 7.16L6.87 7.66C5.81 7.75 4.73999 7.77001 3.67999 7.73001L3.70001 7.23001ZM0.0899963 6.81L0.190002 6.32001C0.690002 6.42001 1.19001 6.5 1.70001 6.56L1.64001 7.06L1.57999 7.56C1.04999 7.49 0.52 7.41 0 7.31L0.0899963 6.81Z" fill="#FDC126"/>
</svg>
