<svg width="108" height="87" viewBox="0 0 108 87" fill="none" xmlns="http://www.w3.org/2000/svg">
<path d="M106.76 86.11V85.61C107.11 85.61 107.45 85.61 107.79 85.6L107.8 86.1L107.81 86.6C107.47 86.61 107.12 86.61 106.76 86.61V86.11ZM27.58 66.01L27.84 65.58C28.09 65.73 28.38 65.89 28.71 66.07L28.48 66.51L28.25 66.95C27.9 66.77 27.59 66.59 27.32 66.43L27.58 66.01ZM26.69 65.5L26.98 65.09C27.26 65.29 27.52 65.44 27.77 65.55L27.58 66.01L27.39 66.47C27.06 66.33 26.73 66.14 26.4 65.9L26.69 65.5ZM0.480011 0.130005C0.960011 4.88758e-06 0.959991 0 0.959991 0V0.0100098C0.959991 0.0200098 0.970001 0.0399976 0.970001 0.0599976C0.980001 0.0999976 1.00002 0.15999 1.02002 0.23999C1.06002 0.39999 1.13 0.629993 1.22 0.929993L0.73999 1.07001L0.26001 1.20999C0.17001 0.909991 0.109998 0.67001 0.0599976 0.51001C0.0399976 0.43001 0.0200098 0.369987 0.0100098 0.329987C9.76585e-06 0.309987 0 0.289999 0 0.279999C0 0.269999 0 0.269989 0 0.269989C0 0.269989 1.09971e-05 0.270005 0.480011 0.130005ZM27.58 66.01L27.77 65.55C27.79 65.56 27.82 65.57 27.84 65.58L27.58 66.01Z" fill="#EAF3D9"/>
</svg>
