<svg width="51" height="31" viewBox="0 0 51 31" fill="none" xmlns="http://www.w3.org/2000/svg">
<path d="M49.38 29.09L49.6 28.64C50.07 28.87 50.5 29.07 50.89 29.25L50.69 29.71L50.49 30.17C50.09 29.99 49.65 29.78 49.17 29.55L49.38 29.09ZM45.06 26.86L45.3 26.42C46.22 26.91 47.08 27.36 47.87 27.77L47.64 28.22L47.41 28.66C46.61 28.25 45.75 27.8 44.83 27.3L45.06 26.86ZM40.8 24.52L41.04 24.08C41.92 24.57 42.77 25.04 43.58 25.49L43.34 25.93L43.1 26.37C42.28 25.92 41.43 25.45 40.55 24.96L40.8 24.52ZM36.56 22.12L36.81 21.69C37.67 22.18 38.52 22.66 39.34 23.13L39.09 23.57L38.84 24.01C38.01 23.54 37.16 23.06 36.3 22.57L36.56 22.12ZM32.35 19.7L32.6 19.27C33.45 19.76 34.29 20.25 35.12 20.73L34.87 21.16L34.62 21.59C33.79 21.11 32.95 20.62 32.1 20.13L32.35 19.7ZM28.15 17.24L28.4 16.81C29.24 17.3 30.08 17.8 30.91 18.28L30.66 18.71L30.41 19.14C29.58 18.65 28.74 18.16 27.9 17.67L28.15 17.24ZM23.97 14.77L24.23 14.34C25.06 14.84 25.9 15.33 26.74 15.82L26.49 16.25L26.24 16.68C25.4 16.19 24.57 15.69 23.73 15.2L23.97 14.77ZM19.79 12.28L20.05 11.85C20.88 12.34 21.71 12.84 22.55 13.34L22.29 13.77L22.03 14.2C21.19 13.7 20.36 13.2 19.53 12.71L19.79 12.28ZM15.62 9.78L15.88 9.35001C16.7 9.84001 17.53 10.34 18.37 10.85L18.11 11.28L17.85 11.71C17.01 11.2 16.17 10.7 15.36 10.21L15.62 9.78ZM11.46 7.26001L11.72 6.82999C12.53 7.31999 13.36 7.82 14.22 8.34L13.96 8.76999L13.7 9.19998C12.85 8.68998 12.01 8.18 11.2 7.69L11.46 7.26001ZM7.31 4.73999L7.57001 4.31C8.36001 4.79 9.18999 5.30001 10.05 5.82001L9.79001 6.25L9.53 6.67999C8.67 6.15999 7.83999 5.64998 7.04999 5.16998L7.31 4.73999ZM3.16 2.20999L3.41998 1.78C4.17998 2.24 5.00999 2.74999 5.89999 3.29999L5.63998 3.72998L5.38 4.16C4.49 3.62 3.64999 3.10998 2.89999 2.63998L3.16 2.20999ZM0.259979 0.429993L0.519989 0C0.889989 0.22 1.3 0.48 1.75 0.75L1.48999 1.17999L1.22998 1.60999C0.77998 1.32999 0.37 1.07999 0 0.859985L0.259979 0.429993Z" fill="#D4E7B2"/>
</svg>
