<svg width="9" height="22" viewBox="0 0 9 22" fill="none" xmlns="http://www.w3.org/2000/svg">
<path d="M1.63998 19.94L2.00998 20.28C1.67998 20.64 1.34999 20.98 1.01999 21.3L0.669983 20.94L0.319977 20.58C0.639977 20.27 0.959989 19.94 1.26999 19.6L1.63998 19.94ZM4.50998 16.31L4.91998 16.59C4.37998 17.38 3.81 18.15 3.22 18.87L2.82999 18.55L2.43997 18.23C3.00997 17.53 3.55999 16.79 4.07999 16.02L4.50998 16.31ZM6.76999 12.27L7.22998 12.47C6.84998 13.32 6.40998 14.17 5.91998 15L5.48999 14.75L5.06 14.5C5.53 13.7 5.95998 12.88 6.31998 12.07L6.76999 12.27ZM8.03998 7.84003L8.53998 7.89001C8.44998 8.81001 8.22997 9.76 7.90997 10.72L7.43997 10.56L6.97 10.4C7.27 9.50002 7.46999 8.62 7.54999 7.78L8.03998 7.84003ZM7.04999 3.43002L7.45999 3.14001C8.05999 3.98001 8.4 4.93001 8.53 5.95001L8.03 6.01001L7.53 6.07001C7.42 5.19001 7.12998 4.40002 6.63998 3.71002L7.04999 3.43002ZM3.22 1L3.34998 0.52002C4.40998 0.82002 5.3 1.23002 6.03 1.74002L5.73999 2.15002L5.44998 2.56C4.82998 2.12 4.04998 1.76002 3.06998 1.49002L3.22 1ZM0.0299988 0.5L0.0599976 0C0.559998 0.03 1.04 0.0800146 1.5 0.140015L1.42999 0.640015L1.35999 1.14001C0.929985 1.08001 0.48 1.04001 0 1.01001L0.0299988 0.5Z" fill="#FDC126"/>
</svg>
