<svg width="35" height="18" viewBox="0 0 35 18" fill="none" xmlns="http://www.w3.org/2000/svg">
<path d="M32.55 1.18002L32.33 0.730011C32.85 0.470011 33.32 0.23 33.73 0L33.97 0.440002L34.21 0.880005C33.78 1.12 33.3 1.37 32.77 1.63L32.55 1.18002ZM27.68 3.45001L27.48 2.99002C28.52 2.53002 29.5 2.08001 30.39 1.67001L30.6 2.12003L30.81 2.57001C29.91 2.99001 28.93 3.44002 27.88 3.90002L27.68 3.45001ZM22.76 5.61002L22.56 5.15002C23.57 4.71002 24.55 4.28003 25.5 3.87003L25.7 4.33002L25.9 4.79001C24.95 5.21001 23.96 5.64002 22.96 6.08002L22.76 5.61002ZM17.83 7.76001L17.63 7.30002C18.61 6.87002 19.6 6.44001 20.57 6.01001L20.77 6.47L20.97 6.93002C20 7.35002 19.02 7.78 18.04 8.22L17.83 7.76001ZM12.93 9.97L12.72 9.52002C13.68 9.08002 14.66 8.63 15.65 8.19L15.85 8.65002L16.05 9.11002C15.07 9.55002 14.09 9.99002 13.13 10.43L12.93 9.97ZM8.08002 12.29L7.86002 11.84C8.78002 11.38 9.75001 10.9 10.76 10.43L10.97 10.88L11.18 11.33C10.18 11.8 9.22 12.27 8.31 12.73L8.08002 12.29ZM3.36002 14.88L3.10001 14.45C3.94001 13.93 4.88 13.39 5.91 12.85L6.15002 13.29L6.39001 13.73C5.38001 14.27 4.45 14.8 3.63 15.3L3.36002 14.88ZM0.360016 17.14L0 16.8C0.34 16.44 0.77001 16.07 1.26001 15.7L1.56 16.1L1.86002 16.5C1.39002 16.85 1.01 17.19 0.720001 17.49L0.360016 17.14Z" fill="#D4E7B2"/>
</svg>
