<svg width="47" height="38" viewBox="0 0 47 38" fill="none" xmlns="http://www.w3.org/2000/svg">
<path d="M45.75 20.73L45.44 20.33C45.72 20.11 45.97 19.91 46.18 19.72L46.51 20.09L46.84 20.46C46.61 20.67 46.34 20.89 46.05 21.12L45.75 20.73ZM9.94998 37.27L9.97 36.77C10.22 36.78 10.54 36.76 10.92 36.7L10.99 37.19L11.06 37.68C10.64 37.74 10.26 37.77 9.92999 37.76L9.94998 37.27ZM9.5 36.4L9.94998 36.18C10.1 36.49 10.24 36.77 10.38 37.01L9.94998 37.26L9.51999 37.51C9.35999 37.24 9.20999 36.94 9.04999 36.61L9.5 36.4ZM0.48999 0.0899963C0.97999 -3.66569e-06 0.97998 0 0.97998 0V0.0100098C0.97998 0.0200098 0.97999 0.0399976 0.98999 0.0599976C0.99999 0.0999976 1.00999 0.160021 1.01999 0.240021C1.04999 0.400021 1.08999 0.630002 1.14999 0.940002L0.660004 1.03L0.169983 1.12C0.109983 0.819995 0.0700085 0.580013 0.0400085 0.420013C0.0300085 0.340013 0.00997925 0.280021 0.00997925 0.240021C0.00997925 0.220021 0 0.200002 0 0.190002C0 0.180002 0 0.179993 0 0.179993C0 0.179993 -9.77516e-06 0.169996 0.48999 0.0899963ZM9.94998 37.27L9.92999 37.77C9.75999 37.76 9.59998 37.67 9.50998 37.52L9.94998 37.27Z" fill="#EAF3D9"/>
</svg>
