<svg width="77" height="20" viewBox="0 0 77 20" fill="none" xmlns="http://www.w3.org/2000/svg">
<path d="M75.08 19.4L75.09 18.9C75.58 18.91 76.07 18.92 76.55 18.93V19.43V19.93C76.06 19.93 75.57 19.92 75.07 19.9L75.08 19.4ZM70.15 19.1L70.19 18.6C71.19 18.69 72.17 18.76 73.13 18.81L73.1 19.31L73.07 19.81C72.1 19.76 71.11 19.69 70.09 19.6L70.15 19.1ZM65.24 18.57L65.3 18.07C66.29 18.2 67.27 18.31 68.23 18.41L68.18 18.91L68.13 19.41C67.16 19.31 66.17 19.19 65.17 19.07L65.24 18.57ZM60.35 17.86L60.43 17.37C61.41 17.53 62.39 17.68 63.35 17.81L63.28 18.31L63.21 18.8C62.24 18.66 61.26 18.51 60.27 18.35L60.35 17.86ZM55.48 17.01L55.57 16.52C56.55 16.7 57.52 16.88 58.48 17.04L58.4 17.53L58.32 18.02C57.35 17.85 56.38 17.68 55.4 17.49L55.48 17.01ZM50.63 16.04L50.73 15.55C51.7 15.75 52.67 15.95 53.63 16.14L53.53 16.63L53.43 17.12C52.46 16.93 51.49 16.73 50.52 16.52L50.63 16.04ZM45.81 14.97L45.92 14.48C46.88 14.7 47.85 14.92 48.81 15.13L48.7 15.62L48.59 16.11C47.62 15.9 46.66 15.68 45.69 15.46L45.81 14.97ZM41 13.82L41.12 13.33C42.08 13.57 43.04 13.8 44 14.03L43.88 14.52L43.76 15.01C42.8 14.78 41.83 14.54 40.87 14.3L41 13.82ZM36.22 12.58L36.35 12.1C37.3 12.35 38.26 12.6 39.21 12.85L39.09 13.33L38.97 13.81C38.01 13.56 37.05 13.31 36.1 13.06L36.22 12.58ZM31.46 11.27L31.6 10.79C32.54 11.06 33.49 11.32 34.45 11.58L34.32 12.06L34.19 12.54C33.23 12.28 32.28 12.01 31.33 11.74L31.46 11.27ZM26.71 9.89001L26.85 9.41C27.79 9.69 28.73 9.97002 29.69 10.24L29.55 10.72L29.41 11.2C28.45 10.92 27.5 10.64 26.56 10.36L26.71 9.89001ZM21.98 8.44L22.13 7.96002C23.06 8.25002 24 8.54003 24.96 8.84003L24.81 9.32001L24.66 9.80002C23.7 9.51002 22.75 9.21001 21.82 8.92001L21.98 8.44ZM17.28 6.92001L17.44 6.45001C18.36 6.75001 19.3 7.06003 20.26 7.37003L20.11 7.85001L19.96 8.33002C19 8.02002 18.06 7.71 17.13 7.41L17.28 6.92001ZM12.6 5.33002L12.77 4.86002C13.68 5.18002 14.61 5.50002 15.57 5.83002L15.41 6.30002L15.25 6.77002C14.29 6.44002 13.35 6.12002 12.44 5.80002L12.6 5.33002ZM7.96002 3.64001L8.14001 3.17001C9.02001 3.50001 9.95 3.84 10.91 4.19L10.74 4.66L10.57 5.13C9.60001 4.78 8.67001 4.44002 7.79001 4.11002L7.96002 3.64001ZM3.36002 1.83002L3.55002 1.37003C4.39002 1.72003 5.31002 2.09 6.30002 2.47L6.12003 2.94L5.94 3.41C4.95 3.02 4.02001 2.65002 3.17001 2.30002L3.36002 1.83002ZM0.210022 0.450012L0.420013 0C0.830013 0.19 1.27 0.390016 1.75 0.610016L1.55002 1.07001L1.35001 1.53C0.870006 1.32 0.41 1.11 0 0.910004L0.210022 0.450012Z" fill="#EAF3D9"/>
</svg>
