<svg width="20" height="12" viewBox="0 0 20 12" fill="none" xmlns="http://www.w3.org/2000/svg">
<path d="M18.64 1.44L18.19 1.22C18.39 0.820001 18.56 0.42 18.71 0L19.18 0.170013L19.65 0.339996C19.49 0.789996 19.3 1.23 19.08 1.66L18.64 1.44ZM15.87 5.11002L15.53 4.75C16.2 4.12 16.78 3.45 17.28 2.75L17.69 3.04001L18.1 3.33002C17.57 4.09002 16.94 4.80999 16.22 5.48999L15.87 5.11002ZM12.09 7.73999L11.86 7.29999C12.7 6.86999 13.46 6.39999 14.15 5.89999L14.44 6.29999L14.73 6.70001C14 7.24001 13.19 7.73 12.31 8.19L12.09 7.73999ZM7.79001 9.41L7.64999 8.92999C8.55999 8.66999 9.40999 8.38 10.21 8.06L10.4 8.51999L10.59 8.98001C9.76 9.32001 8.87001 9.62001 7.92001 9.89001L7.79001 9.41ZM3.26001 10.32L3.20001 9.82001C4.14001 9.70001 5.03 9.54002 5.88 9.36002L5.98001 9.85001L6.08002 10.34C5.20002 10.53 4.28001 10.69 3.32001 10.81L3.26001 10.32ZM0.0299988 10.61L0 10.11C0.46 10.09 0.919995 10.06 1.37 10.02L1.41 10.52L1.45001 11.02C0.990012 11.06 0.530018 11.09 0.0500183 11.11L0.0299988 10.61Z" fill="#FDC126"/>
</svg>
