<svg width="18" height="39" viewBox="0 0 18 39" fill="none" xmlns="http://www.w3.org/2000/svg">
<path d="M16.1 36.83L16.45 36.47C16.84 36.85 17.21 37.16 17.57 37.4L17.3 37.82L17.03 38.24C16.6 37.96 16.17 37.6 15.75 37.18L16.1 36.83ZM13 32.66L13.43 32.4C14 33.35 14.58 34.21 15.14 34.95L14.74 35.25L14.34 35.55C13.75 34.77 13.16 33.89 12.57 32.91L13 32.66ZM10.54 28.07L10.99 27.85C11.46 28.82 11.93 29.74 12.41 30.62L11.97 30.86L11.53 31.1C11.05 30.21 10.57 29.27 10.09 28.29L10.54 28.07ZM8.39001 23.31L8.85001 23.12C9.26001 24.09 9.68001 25.05 10.1 25.98L9.64999 26.19L9.20001 26.4C8.77001 25.46 8.35 24.5 7.94 23.52L8.39001 23.31ZM6.46002 18.47L6.93002 18.29C7.30002 19.26 7.68001 20.24 8.07001 21.2L7.61002 21.39L7.14999 21.58C6.75999 20.61 6.38 19.63 6 18.65L6.46002 18.47ZM4.67001 13.57L5.14001 13.4C5.48001 14.37 5.83001 15.35 6.20001 16.34L5.73001 16.51L5.26001 16.68C4.89001 15.69 4.54001 14.7 4.20001 13.72L4.67001 13.57ZM3.01001 8.63L3.49002 8.48001C3.80002 9.44001 4.13 10.43 4.47 11.44L4 11.6L3.53 11.76C3.18 10.74 2.85001 9.74 2.54001 8.78L3.01001 8.63ZM1.46002 3.64001L1.94 3.5C2.21 4.42 2.51001 5.41999 2.85001 6.48999L2.37 6.64001L1.89001 6.79001C1.56001 5.72001 1.25001 4.71001 0.980011 3.79001L1.46002 3.64001ZM0.490021 0.130005L0.970001 0C1.08 0.44 1.22 0.94 1.37 1.5L0.890015 1.63L0.410004 1.76001C0.250004 1.20001 0.12 0.69 0 0.25L0.490021 0.130005Z" fill="#D4E7B2"/>
</svg>
