<svg width="108" height="87" viewBox="0 0 108 87" fill="none" xmlns="http://www.w3.org/2000/svg">
<path d="M106.75 86.1V85.6C107.1 85.6 107.44 85.6 107.78 85.59L107.79 86.09L107.8 86.59C107.46 86.6 107.11 86.6 106.75 86.6V86.1ZM27.58 66.01L27.84 65.58C28.09 65.73 28.38 65.89 28.71 66.07L28.48 66.51L28.25 66.95C27.9 66.77 27.59 66.59 27.32 66.43L27.58 66.01ZM26.69 65.49L26.98 65.08C27.26 65.28 27.52 65.43 27.77 65.54L27.58 66L27.39 66.46C27.06 66.32 26.73 66.13 26.4 65.89L26.69 65.49ZM0.47998 0.130005C0.95998 4.88758e-06 0.959991 0 0.959991 0V0.0100098C0.959991 0.0200098 0.970001 0.0399976 0.970001 0.0599976C0.980001 0.0999976 0.999989 0.15999 1.01999 0.23999C1.05999 0.39999 1.13 0.629993 1.22 0.929993L0.73999 1.07001L0.259979 1.20999C0.169979 0.909991 0.109998 0.67001 0.0599976 0.51001C0.0399976 0.43001 0.0199792 0.369987 0.00997925 0.329987C-2.07517e-05 0.309987 3.54476e-10 0.289999 3.54476e-10 0.279999C3.54476e-10 0.269999 3.54476e-10 0.269989 3.54476e-10 0.269989C3.54476e-10 0.269989 -1.95205e-05 0.270005 0.47998 0.130005ZM27.58 66.01L27.77 65.55C27.79 65.56 27.82 65.57 27.84 65.58L27.58 66.01Z" fill="#EAF3D9"/>
</svg>
