<svg width="13" height="14" viewBox="0 0 13 14" fill="none" xmlns="http://www.w3.org/2000/svg">
<path d="M11.47 1.05002L11.25 0.600006C11.69 0.390006 12.12 0.19 12.55 0L12.75 0.459991L12.95 0.920013C12.53 1.10001 12.11 1.3 11.69 1.5L11.47 1.05002ZM7.39001 3.36002L7.12 2.94C7.92 2.42 8.75002 1.93001 9.58002 1.48001L9.82001 1.92001L10.06 2.36002C9.25 2.80002 8.45001 3.28 7.67001 3.78L7.39001 3.36002ZM3.67001 6.22L3.33002 5.86002C4.00002 5.22002 4.74999 4.60999 5.54999 4.01999L5.85001 4.42001L6.14999 4.82001C5.37999 5.39001 4.65999 5.98002 4.01999 6.58002L3.67001 6.22ZM0.890015 9.95999L0.429993 9.76999C0.779993 8.90999 1.33001 8.07001 2.01001 7.26001L2.39001 7.58002L2.76999 7.89999C2.13999 8.65999 1.65001 9.40999 1.35001 10.15L0.890015 9.95999ZM0.75 13.16L0.279999 13.34C0.0899988 12.83 0 12.31 0 11.78H0.5H1C1 12.19 1.07 12.59 1.22 12.98L0.75 13.16Z" fill="#FDC126"/>
</svg>
