<svg width="16" height="12" viewBox="0 0 16 12" fill="none" xmlns="http://www.w3.org/2000/svg">
<path d="M14.56 10.36L15.06 10.34C15.08 10.79 15.07 11.25 15.04 11.69L14.54 11.66L14.04 11.63C14.06 11.21 14.07 10.79 14.06 10.37L14.56 10.36ZM13.68 6.15998L14.14 5.97C14.49 6.81 14.73 7.69 14.88 8.59L14.39 8.66999L13.9 8.75C13.76 7.92 13.54 7.10998 13.22 6.34998L13.68 6.15998ZM11.19 2.69998L11.51 2.31998C12.23 2.92998 12.83 3.63 13.32 4.4L12.9 4.66999L12.48 4.93997C12.04 4.24997 11.51 3.63 10.87 3.09L11.19 2.69998ZM7.35999 0.819979L7.47 0.329989C8.42 0.549989 9.27 0.87999 10.03 1.29999L9.78998 1.73999L9.54999 2.18C8.86999 1.81 8.10999 1.51 7.23999 1.31L7.35999 0.819979ZM3.07999 0.56L3.03998 0.06C3.99998 -0.02 4.89998 -0.02 5.72998 0.06L5.69 0.56L5.64999 1.06C4.86999 0.99 4.03 0.99 3.12 1.06L3.07999 0.56ZM0.109985 1.01999L0 0.530001C0.45 0.430001 0.889998 0.339991 1.31 0.269991L1.38998 0.759982L1.47 1.25C1.06 1.32 0.639991 1.4 0.209991 1.5L0.109985 1.01999Z" fill="#D4E7B2"/>
</svg>
