<svg width="29" height="54" viewBox="0 0 29 54" fill="none" xmlns="http://www.w3.org/2000/svg">
<path d="M27.16 52.04L27.53 51.7C27.87 52.08 28.21 52.43 28.54 52.75L28.19 53.11L27.84 53.47C27.49 53.13 27.14 52.77 26.78 52.37L27.16 52.04ZM24.07 48.11L24.48 47.82C25.08 48.67 25.67 49.47 26.25 50.19L25.86 50.5L25.47 50.81C24.88 50.07 24.27 49.26 23.66 48.39L24.07 48.11ZM21.33 43.92L21.76 43.66C22.3 44.53 22.83 45.38 23.36 46.18L22.94 46.46L22.52 46.74C21.98 45.93 21.44 45.08 20.9 44.2L21.33 43.92ZM18.81 39.61L19.25 39.37C19.75 40.25 20.24 41.11 20.73 41.95L20.3 42.2L19.87 42.45C19.37 41.61 18.87 40.74 18.38 39.86L18.81 39.61ZM16.42 35.22L16.86 34.99C17.33 35.88 17.8 36.76 18.27 37.62L17.83 37.86L17.39 38.1C16.92 37.23 16.44 36.35 15.97 35.46L16.42 35.22ZM14.13 30.77L14.58 30.55C15.03 31.44 15.48 32.33 15.93 33.21L15.49 33.44L15.05 33.67C14.59 32.79 14.14 31.9 13.69 31L14.13 30.77ZM11.93 26.28L12.38 26.06C12.81 26.96 13.25 27.85 13.68 28.74L13.23 28.96L12.78 29.18C12.34 28.28 11.9 27.39 11.47 26.49L11.93 26.28ZM9.80002 21.75L10.25 21.54C10.67 22.44 11.09 23.34 11.52 24.25L11.07 24.46L10.62 24.67C10.19 23.76 9.77001 22.86 9.35001 21.96L9.80002 21.75ZM7.72 17.2L8.17999 17C8.57999 17.89 8.99 18.8 9.41 19.72L8.95999 19.93L8.51001 20.14C8.09001 19.22 7.68002 18.31 7.27002 17.41L7.72 17.2ZM5.70001 12.63L6.16 12.43C6.55 13.32 6.95002 14.23 7.36002 15.16L6.89999 15.36L6.44 15.56C6.03 14.63 5.61999 13.72 5.23999 12.83L5.70001 12.63ZM3.72 8.03L4.17999 7.82999C4.54999 8.70999 4.95002 9.62999 5.36002 10.58L4.89999 10.78L4.44 10.98C4.03 10.02 3.63001 9.1 3.26001 8.22L3.72 8.03ZM1.79001 3.42999L2.25 3.23999C2.6 4.07999 2.97999 5 3.39999 6L2.94 6.19L2.48001 6.38C2.06001 5.39 1.68002 4.46 1.33002 3.62L1.79001 3.42999ZM0.459991 0.190002L0.920013 0C1.08001 0.41 1.27001 0.859995 1.48001 1.37L1.02002 1.56L0.559998 1.75C0.349998 1.25 0.17 0.790005 0 0.380005L0.459991 0.190002Z" fill="#EAF3D9"/>
</svg>
