<svg width="9" height="40" viewBox="0 0 9 40" fill="none" xmlns="http://www.w3.org/2000/svg">
<path d="M8 38.25L8.49002 38.37C8.34002 38.95 8.15001 39.48 7.89001 39.92L7.46002 39.67L7.03 39.42C7.23 39.08 7.40002 38.65 7.52002 38.13L8 38.25ZM8.30002 33.2L8.80002 33.17C8.86002 34.3 8.86001 35.35 8.79001 36.29L8.29001 36.25L7.79001 36.21C7.85001 35.32 7.85001 34.31 7.79001 33.21L8.30002 33.2ZM7.75 28.15L8.24002 28.08C8.40002 29.14 8.53 30.16 8.63 31.14L8.13 31.19L7.63 31.24C7.53 30.28 7.40002 29.27 7.24002 28.23L7.75 28.15ZM6.85001 23.15L7.34 23.05C7.55 24.07 7.74001 25.08 7.92001 26.07L7.43002 26.16L6.94 26.25C6.77 25.27 6.58 24.27 6.37 23.26L6.85001 23.15ZM5.73001 18.19L6.22 18.07C6.46 19.06 6.69 20.06 6.91 21.06L6.42001 21.17L5.93002 21.28C5.71002 20.29 5.48002 19.3 5.24002 18.31L5.73001 18.19ZM4.47 13.27L4.95001 13.14C5.21001 14.11 5.47001 15.1 5.73001 16.1L5.25 16.22L4.77002 16.34C4.52002 15.34 4.26 14.36 4 13.39L4.47 13.27ZM3.08002 8.38L3.56 8.23999C3.84 9.18999 4.12 10.17 4.41 11.19L3.93002 11.33L3.45001 11.47C3.17001 10.46 2.88002 9.48001 2.61002 8.54001L3.08002 8.38ZM1.59 3.51999L2.07001 3.37C2.36001 4.27 2.67001 5.24999 2.98001 6.29999L2.5 6.45001L2.02002 6.60001C1.70002 5.56001 1.40002 4.58 1.11002 3.69L1.59 3.51999ZM0.470001 0.160004L0.940002 0C1.09 0.43 1.25002 0.910002 1.43002 1.44L0.960022 1.60001L0.490021 1.76001C0.310021 1.23001 0.15 0.759987 0 0.329987L0.470001 0.160004Z" fill="#FDC126"/>
</svg>
