<svg width="90" height="63" viewBox="0 0 90 63" fill="none" xmlns="http://www.w3.org/2000/svg">
<path d="M87.8 1.38L87.46 1.02002C87.82 0.68002 88.18 0.34 88.54 0L88.88 0.360016L89.22 0.720001C88.86 1.06 88.5 1.40002 88.14 1.74002L87.8 1.38ZM84.19 4.72L83.85 4.35001C84.58 3.69001 85.3 3.02001 86.02 2.35001L86.36 2.72L86.7 3.09C85.97 3.76 85.25 4.43 84.52 5.09L84.19 4.72ZM80.52 8.02002L80.19 7.65002C80.93 7.00002 81.66 6.35002 82.39 5.68002L82.72 6.05002L83.05 6.42001C82.31 7.08001 81.58 7.74001 80.84 8.39001L80.52 8.02002ZM76.8 11.25L76.47 10.87C77.21 10.23 77.96 9.59 78.7 8.94L79.03 9.32001L79.36 9.70001C78.61 10.35 77.87 11 77.12 11.64L76.8 11.25ZM73.04 14.43L72.72 14.05C73.47 13.42 74.23 12.79 74.98 12.15L75.3 12.53L75.62 12.91C74.86 13.55 74.11 14.19 73.35 14.82L73.04 14.43ZM69.23 17.56L68.92 17.17C69.68 16.55 70.45 15.93 71.21 15.3L71.53 15.69L71.85 16.08C71.08 16.71 70.32 17.34 69.55 17.95L69.23 17.56ZM65.38 20.63L65.07 20.24C65.84 19.63 66.61 19.02 67.39 18.4L67.7 18.79L68.01 19.18C67.23 19.8 66.46 20.42 65.69 21.02L65.38 20.63ZM61.49 23.65L61.19 23.25C61.97 22.65 62.75 22.05 63.53 21.44L63.84 21.83L64.15 22.22C63.36 22.83 62.58 23.44 61.8 24.03L61.49 23.65ZM57.56 26.62L57.26 26.22C58.05 25.63 58.83 25.04 59.63 24.44L59.93 24.84L60.23 25.24C59.44 25.84 58.65 26.43 57.86 27.02L57.56 26.62ZM53.59 29.54L53.3 29.14C54.09 28.57 54.89 27.99 55.68 27.4L55.98 27.8L56.28 28.2C55.48 28.79 54.68 29.37 53.89 29.95L53.59 29.54ZM49.58 32.4L49.29 31.99C50.09 31.43 50.88 30.86 51.69 30.28L51.98 30.69L52.27 31.1C51.46 31.68 50.66 32.25 49.87 32.81L49.58 32.4ZM45.54 35.23L45.26 34.82C46.06 34.27 46.87 33.71 47.68 33.14L47.97 33.55L48.26 33.96C47.44 34.53 46.63 35.09 45.83 35.64L45.54 35.23ZM41.46 37.99L41.18 37.57C41.99 37.03 42.81 36.48 43.63 35.92L43.91 36.33L44.19 36.74C43.37 37.3 42.55 37.85 41.73 38.4L41.46 37.99ZM37.35 40.71L37.08 40.29C37.9 39.76 38.72 39.21 39.56 38.66L39.84 39.08L40.12 39.5C39.29 40.05 38.46 40.6 37.64 41.13L37.35 40.71ZM33.21 43.37L32.94 42.95C33.76 42.43 34.58 41.9 35.42 41.36L35.69 41.78L35.96 42.2C35.12 42.74 34.29 43.27 33.47 43.79L33.21 43.37ZM29.02 45.99L28.76 45.56C29.58 45.05 30.42 44.53 31.27 44L31.54 44.42L31.81 44.84C30.96 45.37 30.12 45.9 29.3 46.41L29.02 45.99ZM24.83 48.55L24.57 48.12C25.4 47.62 26.24 47.11 27.1 46.59L27.36 47.02L27.62 47.45C26.76 47.97 25.92 48.49 25.09 48.99L24.83 48.55ZM20.58 51.07L20.33 50.64C21.16 50.15 22.01 49.66 22.88 49.14L23.14 49.57L23.4 50C22.53 50.52 21.68 51.02 20.85 51.5L20.58 51.07ZM16.31 53.53L16.06 53.09C16.89 52.62 17.75 52.13 18.63 51.62L18.88 52.05L19.13 52.48C18.25 52.99 17.39 53.48 16.56 53.95L16.31 53.53ZM12.01 55.92L11.77 55.48C12.6 55.02 13.46 54.55 14.36 54.05L14.6 54.49L14.84 54.93C13.94 55.43 13.08 55.91 12.25 56.37L12.01 55.92ZM7.66998 58.27L7.44 57.83C8.26 57.39 9.14 56.93 10.06 56.43L10.3 56.87L10.54 57.31C9.61998 57.81 8.74 58.28 7.91 58.72L7.66998 58.27ZM3.29999 60.53L3.06998 60.08C3.84998 59.68 4.71999 59.23 5.67999 58.73L5.91 59.17L6.13998 59.61C5.17998 60.11 4.29999 60.56 3.51999 60.96L3.29999 60.53ZM0.220001 62.07L0 61.62C0.37 61.44 0.799988 61.23 1.29999 60.98L1.51999 61.43L1.73999 61.88C1.23999 62.13 0.799993 62.34 0.429993 62.52L0.220001 62.07Z" fill="#EAF3D9"/>
</svg>
