<svg width="13" height="14" viewBox="0 0 13 14" fill="none" xmlns="http://www.w3.org/2000/svg">
<path d="M11.48 1.04999L11.26 0.600006C11.7 0.390006 12.13 0.19 12.56 0L12.76 0.459991L12.96 0.919983C12.54 1.09998 12.12 1.3 11.7 1.5L11.48 1.04999ZM7.39001 3.35001L7.12 2.92999C7.92 2.40999 8.75002 1.92 9.58002 1.47L9.82001 1.91L10.06 2.35001C9.25 2.79001 8.45001 3.26999 7.67001 3.76999L7.39001 3.35001ZM3.67999 6.22L3.34 5.85999C4.01 5.21999 4.76 4.60999 5.56 4.01999L5.86002 4.41998L6.16 4.82001C5.39 5.39001 4.67 5.97999 4.03 6.57999L3.67999 6.22ZM0.890015 9.95999L0.429993 9.76999C0.779993 8.90999 1.33001 8.06998 2.01001 7.25998L2.39001 7.57999L2.76999 7.89999C2.13999 8.65999 1.65001 9.40999 1.35001 10.15L0.890015 9.95999ZM0.75 13.16L0.279999 13.34C0.0899988 12.83 0 12.31 0 11.78H0.5H1C1 12.19 1.07 12.59 1.22 12.98L0.75 13.16Z" fill="#D4E7B2"/>
</svg>
