<svg width="10" height="34" viewBox="0 0 10 34" fill="none" xmlns="http://www.w3.org/2000/svg">
<path d="M8.27002 32.25L8.73999 32.07C8.91999 32.56 9.11001 33.01 9.29001 33.42L8.83002 33.62L8.37 33.82C8.18 33.39 7.99 32.92 7.81 32.42L8.27002 32.25ZM6.73001 27.55L7.20999 27.41C7.49999 28.41 7.8 29.35 8.09 30.23L7.62 30.39L7.14999 30.55C6.84999 29.66 6.56001 28.71 6.26001 27.7L6.73001 27.55ZM5.42001 22.78L5.89999 22.66C6.14999 23.64 6.41 24.6 6.66 25.53L6.17999 25.66L5.70001 25.79C5.44001 24.86 5.18999 23.89 4.92999 22.91L5.42001 22.78ZM4.25 17.98L4.73999 17.87C4.96999 18.84 5.19999 19.8 5.42999 20.75L4.94 20.87L4.45001 20.99C4.21001 20.03 3.98 19.07 3.75 18.09L4.25 17.98ZM3.16 13.16L3.64999 13.05C3.85999 14 4.08002 14.97 4.30002 15.95L3.81 16.06L3.32001 16.17C3.10001 15.19 2.88001 14.22 2.67001 13.27L3.16 13.16ZM2.13 8.33002L2.62 8.23001C2.81 9.17001 3.02001 10.14 3.23001 11.13L2.73999 11.23L2.25 11.33C2.04 10.33 1.83001 9.36001 1.64001 8.42001L2.13 8.33002ZM1.14999 3.48001L1.64001 3.38C1.82001 4.28 2.01 5.25001 2.22 6.29001L1.73001 6.39001L1.23999 6.48999C1.02999 5.44999 0.830004 4.47001 0.660004 3.57001L1.14999 3.48001ZM0.48999 0.0899963L0.980011 0C1.06001 0.43 1.15001 0.920012 1.26001 1.45001L0.77002 1.54001L0.279999 1.63C0.179999 1.09 0.08 0.600013 0 0.170013L0.48999 0.0899963Z" fill="#EAF3D9"/>
</svg>
