<svg width="15" height="53" viewBox="0 0 15 53" fill="none" xmlns="http://www.w3.org/2000/svg">
<path d="M13.92 51.14L14.41 51.25C14.28 51.83 14.1 52.35 13.85 52.78L13.42 52.53L12.99 52.28C13.17 51.97 13.32 51.56 13.44 51.04L13.92 51.14ZM14.07 46.19L14.57 46.15C14.66 47.26 14.68 48.28 14.65 49.19L14.15 49.17L13.65 49.15C13.68 48.29 13.66 47.31 13.57 46.22L14.07 46.19ZM13.44 41.27L13.93 41.19C14.1 42.23 14.25 43.22 14.37 44.16L13.87 44.22L13.37 44.28C13.26 43.35 13.11 42.37 12.94 41.35L13.44 41.27ZM12.49 36.41L12.98 36.3C13.2 37.3 13.4 38.28 13.58 39.23L13.09 39.32L12.6 39.41C12.42 38.47 12.22 37.5 12 36.51L12.49 36.41ZM11.33 31.58L11.81 31.46C12.06 32.44 12.3 33.41 12.52 34.36L12.03 34.47L11.54 34.58C11.32 33.63 11.08 32.67 10.83 31.7L11.33 31.58ZM10.04 26.79L10.52 26.65C10.79 27.61 11.06 28.57 11.31 29.53L10.83 29.66L10.35 29.79C10.1 28.84 9.83 27.89 9.56 26.93L10.04 26.79ZM8.62997 22.03L9.10999 21.88C9.39999 22.83 9.68997 23.78 9.96997 24.74L9.48999 24.88L9.00998 25.02C8.72998 24.07 8.44997 23.12 8.15997 22.18L8.62997 22.03ZM7.12 17.3L7.59 17.14C7.9 18.07 8.20998 19.02 8.50998 19.98L8.03 20.13L7.54999 20.28C7.24999 19.33 6.93997 18.38 6.62997 17.45L7.12 17.3ZM5.50998 12.6L5.97998 12.43C6.30998 13.35 6.63999 14.29 6.95999 15.25L6.48999 15.41L6.01999 15.57C5.68999 14.61 5.36998 13.68 5.03998 12.76L5.50998 12.6ZM3.78998 7.95001L4.25998 7.77002C4.60998 8.66002 4.96 9.6 5.31 10.56L4.84 10.73L4.37 10.9C4.02 9.94002 3.66998 9.01003 3.31998 8.12003L3.78998 7.95001ZM1.90997 3.36002L2.37 3.16C2.74 4.01 3.13 4.93001 3.53 5.92001L3.06998 6.11002L2.60999 6.30002C2.21999 5.32002 1.82997 4.41001 1.46997 3.57001L1.90997 3.36002ZM0.439972 0.230011L0.879974 0C1.08997 0.41 1.30998 0.859996 1.53998 1.34L1.09 1.55002L0.639984 1.76001C0.419984 1.29001 0.2 0.850012 0 0.450012L0.439972 0.230011Z" fill="#FDC126"/>
</svg>
