<svg width="51" height="31" viewBox="0 0 51 31" fill="none" xmlns="http://www.w3.org/2000/svg">
<path d="M49.38 29.08L49.6 28.63C50.07 28.86 50.5 29.06 50.89 29.24L50.69 29.7L50.49 30.16C50.09 29.98 49.65 29.77 49.17 29.54L49.38 29.08ZM45.06 26.85L45.3 26.41C46.22 26.9 47.08 27.35 47.87 27.76L47.64 28.21L47.41 28.65C46.61 28.24 45.75 27.79 44.83 27.29L45.06 26.85ZM40.79 24.51L41.03 24.07C41.91 24.56 42.76 25.03 43.57 25.48L43.33 25.92L43.09 26.36C42.27 25.91 41.42 25.44 40.54 24.95L40.79 24.51ZM36.56 22.12L36.81 21.69C37.67 22.18 38.52 22.66 39.34 23.13L39.09 23.57L38.84 24.01C38.01 23.54 37.16 23.06 36.3 22.57L36.56 22.12ZM32.35 19.69L32.6 19.26C33.45 19.75 34.29 20.24 35.12 20.72L34.87 21.15L34.62 21.58C33.79 21.1 32.95 20.61 32.1 20.12L32.35 19.69ZM28.15 17.23L28.4 16.8C29.24 17.29 30.08 17.79 30.91 18.27L30.66 18.7L30.41 19.13C29.58 18.64 28.74 18.15 27.9 17.66L28.15 17.23ZM23.96 14.76L24.22 14.33C25.05 14.83 25.89 15.32 26.73 15.81L26.48 16.24L26.23 16.67C25.39 16.18 24.56 15.68 23.72 15.19L23.96 14.76ZM19.79 12.27L20.05 11.84C20.88 12.33 21.71 12.83 22.55 13.33L22.29 13.76L22.03 14.19C21.19 13.69 20.36 13.19 19.53 12.7L19.79 12.27ZM15.62 9.76999L15.88 9.34C16.7 9.83 17.53 10.33 18.37 10.84L18.11 11.27L17.85 11.7C17.01 11.19 16.17 10.69 15.36 10.2L15.62 9.76999ZM11.45 7.25L11.71 6.81998C12.52 7.30998 13.35 7.80999 14.21 8.32999L13.95 8.75998L13.69 9.18997C12.84 8.67997 12 8.16999 11.19 7.67999L11.45 7.25ZM7.30002 4.73999L7.56 4.31C8.35 4.79 9.18001 5.29998 10.04 5.81998L9.78 6.25L9.52002 6.67999C8.66002 6.15999 7.83001 5.64998 7.04001 5.16998L7.30002 4.73999ZM3.14999 2.19998L3.41 1.76999C4.17 2.22999 5.00001 2.73998 5.89001 3.28998L5.63 3.71997L5.37 4.14999C4.48 3.60999 3.64001 3.09997 2.89001 2.62997L3.14999 2.19998ZM0.26001 0.429993L0.52002 0C0.89002 0.22 1.3 0.48 1.75 0.75L1.49002 1.17999L1.23001 1.60999C0.780011 1.32999 0.37 1.07999 0 0.859985L0.26001 0.429993Z" fill="#D4E7B2"/>
</svg>
