<svg width="26" height="12" viewBox="0 0 26 12" fill="none" xmlns="http://www.w3.org/2000/svg">
<path d="M23.93 0.76001L23.82 0.269989C24.42 0.129989 24.99 0.04 25.51 0L25.55 0.5L25.59 1C25.13 1.03 24.61 1.12 24.05 1.25L23.93 0.76001ZM18.71 2.57001L18.52 2.11002C19.6 1.66002 20.64 1.25001 21.62 0.920013L21.78 1.39001L21.94 1.86002C20.99 2.18002 19.97 2.58 18.9 3.03L18.71 2.57001ZM13.68 4.87L13.46 4.42001C14.46 3.94001 15.46 3.46001 16.45 3.01001L16.66 3.47L16.87 3.92999C15.89 4.36999 14.9 4.85002 13.9 5.33002L13.68 4.87ZM8.72 7.31L8.5 6.86002C9.46 6.39002 10.44 5.89999 11.45 5.39999L11.67 5.85001L11.89 6.30002C10.89 6.79002 9.89 7.29001 8.94 7.76001L8.72 7.31ZM3.70999 9.64999L3.51999 9.19C4.41999 8.81 5.42 8.35 6.5 7.84L6.72 8.29001L6.94 8.73999C5.86 9.25999 4.84001 9.72002 3.92001 10.11L3.70999 9.64999ZM0.0100098 10.76L0 10.26C0.34 10.26 0.829991 10.16 1.45999 9.95999L1.61002 10.44L1.76001 10.92C1.10001 11.13 0.509989 11.26 0.019989 11.26L0.0100098 10.76Z" fill="#D4E7B2"/>
</svg>
