<svg width="12" height="43" viewBox="0 0 12 43" fill="none" xmlns="http://www.w3.org/2000/svg">
<path d="M10.52 40.47L11.01 40.56C10.91 41.1 10.78 41.6 10.6 42.05L10.14 41.87L9.68002 41.69C9.83002 41.32 9.95001 40.89 10.04 40.39L10.52 40.47ZM10.68 35.67L11.18 35.64C11.25 36.7 11.26 37.69 11.22 38.59L10.72 38.57L10.22 38.55C10.26 37.69 10.24 36.74 10.18 35.7L10.68 35.67ZM10.12 30.88L10.61 30.8C10.77 31.8 10.9 32.77 11 33.7L10.5 33.75L10 33.8C9.9 32.89 9.77002 31.93 9.61002 30.95L10.12 30.88ZM9.22 26.15L9.71002 26.04C9.92002 27.01 10.11 27.97 10.29 28.9L9.80002 28.99L9.31 29.08C9.14 28.15 8.95002 27.21 8.74002 26.25L9.22 26.15ZM8.11002 21.47L8.59 21.34C8.84 22.29 9.07001 23.23 9.29001 24.17L8.80002 24.28L8.31 24.39C8.09 23.46 7.86 22.52 7.62 21.58L8.11002 21.47ZM6.81 16.84L7.29001 16.7C7.57001 17.63 7.83 18.56 8.09 19.5L7.61002 19.63L7.13 19.76C6.87 18.83 6.61002 17.9 6.33002 16.98L6.81 16.84ZM5.37 12.25L5.84 12.09C6.14 13 6.44002 13.92 6.74002 14.86L6.26001 15.01L5.78 15.16C5.49 14.23 5.19001 13.31 4.89001 12.41L5.37 12.25ZM3.75 7.70999L4.22 7.53C4.55 8.41 4.89 9.31999 5.22 10.27L4.75 10.44L4.28 10.61C3.95 9.66999 3.62001 8.76998 3.29001 7.88998L3.75 7.70999ZM1.92001 3.25998L2.38 3.04999C2.75 3.87999 3.14002 4.77999 3.52002 5.73999L3.06 5.92999L2.60001 6.12C2.22001 5.17 1.84 4.28 1.47 3.47L1.92001 3.25998ZM0.430023 0.25L0.869995 0C1.09 0.39 1.32 0.829978 1.56 1.28998L1.11002 1.50998L0.660004 1.72998C0.430004 1.27998 0.21 0.85998 0 0.47998L0.430023 0.25Z" fill="#D4E7B2"/>
</svg>
