<svg width="49" height="72" viewBox="0 0 49 72" fill="none" xmlns="http://www.w3.org/2000/svg">
<path d="M47.79 1.59L47.31 1.44C47.47 0.900002 47.61 0.42 47.73 0L48.21 0.130005L48.69 0.26001C48.57 0.69001 48.43 1.18 48.27 1.72L47.79 1.59ZM46.15 6.38L45.68 6.20001C46.07 5.16001 46.41 4.20001 46.7 3.35001L47.17 3.51001L47.64 3.67001C47.35 4.54001 47 5.5 46.61 6.56L46.15 6.38ZM44.23 11.07L43.77 10.87C44.2 9.89 44.59 8.95001 44.95 8.07001L45.41 8.26001L45.87 8.45001C45.51 9.34001 45.12 10.28 44.68 11.28L44.23 11.07ZM42.11 15.66L41.66 15.44C42.12 14.5 42.55 13.59 42.95 12.71L43.4 12.92L43.85 13.13C43.45 14.01 43.01 14.93 42.55 15.88L42.11 15.66ZM39.8 20.17L39.36 19.93C39.85 19.01 40.32 18.11 40.76 17.24L41.21 17.47L41.66 17.7C41.21 18.58 40.74 19.48 40.25 20.41L39.8 20.17ZM37.33 24.59L36.9 24.34C37.42 23.44 37.92 22.56 38.4 21.7L38.84 21.94L39.28 22.18C38.8 23.05 38.3 23.93 37.77 24.84L37.33 24.59ZM34.72 28.93L34.3 28.67C34.85 27.79 35.37 26.93 35.88 26.08L36.31 26.34L36.74 26.6C36.23 27.45 35.7 28.32 35.15 29.2L34.72 28.93ZM31.98 33.18L31.56 32.9C32.13 32.04 32.68 31.19 33.22 30.36L33.64 30.63L34.06 30.9C33.52 31.74 32.97 32.59 32.39 33.45L31.98 33.18ZM29.11 37.37L28.7 37.08C29.29 36.24 29.87 35.41 30.42 34.59L30.83 34.87L31.24 35.15C30.68 35.97 30.1 36.81 29.51 37.65L29.11 37.37ZM26.15 41.47L25.75 41.17C26.36 40.35 26.96 39.53 27.54 38.72L27.95 39.01L28.36 39.3C27.78 40.11 27.18 40.93 26.56 41.76L26.15 41.47ZM23.08 45.5L22.69 45.19C23.32 44.38 23.94 43.58 24.54 42.79L24.94 43.09L25.34 43.39C24.74 44.19 24.12 44.99 23.48 45.8L23.08 45.5ZM19.91 49.45L19.52 49.13C20.17 48.34 20.81 47.55 21.43 46.77L21.82 47.08L22.21 47.39C21.58 48.17 20.95 48.97 20.29 49.76L19.91 49.45ZM16.67 53.33L16.29 53C16.96 52.22 17.61 51.45 18.25 50.69L18.63 51.01L19.01 51.33C18.37 52.1 17.71 52.87 17.05 53.65L16.67 53.33ZM13.33 57.14L12.96 56.81C13.64 56.05 14.31 55.29 14.96 54.54L15.34 54.87L15.72 55.2C15.06 55.95 14.39 56.71 13.71 57.48L13.33 57.14ZM9.90997 60.89L9.53998 60.55C10.24 59.8 10.93 59.05 11.6 58.31L11.97 58.65L12.34 58.99C11.66 59.74 10.97 60.49 10.27 61.24L9.90997 60.89ZM6.42999 64.57L6.06998 64.22C6.77998 63.48 7.47998 62.75 8.16998 62.02L8.53 62.36L8.88998 62.7C8.19998 63.43 7.5 64.17 6.78 64.91L6.42999 64.57ZM2.87997 68.17L2.53 67.82C3.25 67.1 3.96998 66.38 4.66998 65.66L5.03 66.01L5.38998 66.36C4.68998 67.08 3.96999 67.8 3.23999 68.53L2.87997 68.17ZM0.349976 70.67L0 70.31C0.37 69.95 0.729976 69.59 1.09998 69.24L1.44998 69.6L1.79999 69.96C1.43999 70.32 1.06998 70.68 0.699982 71.04L0.349976 70.67Z" fill="#EAF3D9"/>
</svg>
