<svg width="58" height="14" viewBox="0 0 58 14" fill="none" xmlns="http://www.w3.org/2000/svg">
<path d="M56.33 1.08002L56.12 0.630005C56.57 0.420005 57.02 0.21 57.45 0L57.67 0.450012L57.89 0.899994C57.45 1.11999 57 1.33001 56.54 1.54001L56.33 1.08002ZM51.78 2.98999L51.6 2.51999C52.54 2.15999 53.46 1.79 54.34 1.41L54.54 1.87L54.74 2.33002C53.84 2.71002 52.92 3.09001 51.96 3.45001L51.78 2.98999ZM47.12 4.63L46.96 4.14999C47.92 3.83999 48.85 3.52 49.76 3.19L49.93 3.66L50.1 4.13C49.18 4.46 48.24 4.78001 47.27 5.10001L47.12 4.63ZM42.4 6.07001L42.26 5.59C43.23 5.32 44.17 5.04001 45.1 4.76001L45.25 5.23999L45.4 5.72C44.46 6.01 43.51 6.29 42.53 6.56L42.4 6.07001ZM37.62 7.31L37.5 6.82001C38.47 6.58001 39.43 6.34 40.37 6.09L40.5 6.57001L40.63 7.05002C39.68 7.30002 38.72 7.55 37.74 7.78L37.62 7.31ZM32.8 8.39999L32.7 7.91C33.68 7.7 34.65 7.48999 35.6 7.26999L35.71 7.76001L35.82 8.25C34.86 8.47 33.89 8.68001 32.9 8.89001L32.8 8.39999ZM27.96 9.35001L27.87 8.86002C28.85 8.68002 29.82 8.5 30.78 8.31L30.88 8.80002L30.98 9.29001C30.02 9.48001 29.04 9.67001 28.05 9.85001L27.96 9.35001ZM23.09 10.17L23.01 9.67999C24 9.52999 24.97 9.37001 25.94 9.20001L26.02 9.69L26.1 10.18C25.13 10.35 24.15 10.51 23.15 10.66L23.09 10.17ZM18.21 10.88L18.14 10.38C19.13 10.25 20.11 10.11 21.08 9.97L21.15 10.46L21.22 10.95C20.24 11.09 19.26 11.23 18.27 11.36L18.21 10.88ZM13.31 11.47L13.26 10.97C14.25 10.86 15.23 10.75 16.21 10.63L16.27 11.13L16.33 11.63C15.35 11.75 14.36 11.87 13.37 11.98L13.31 11.47ZM8.39001 11.96L8.35001 11.46C9.34001 11.37 10.33 11.28 11.31 11.18L11.36 11.68L11.41 12.18C10.43 12.28 9.44 12.38 8.44 12.46L8.39001 11.96ZM3.47 12.35L3.44 11.85C4.43 11.78 5.41999 11.71 6.39999 11.63L6.44 12.13L6.48001 12.63C5.49001 12.71 4.50001 12.79 3.51001 12.85L3.47 12.35ZM0.0299988 12.57L0 12.07C0.5 12.04 0.990011 12.01 1.48001 11.98L1.51001 12.48L1.54001 12.98C1.04001 13.01 0.550018 13.04 0.0500183 13.07L0.0299988 12.57Z" fill="#EAF3D9"/>
</svg>
