<svg width="13" height="23" viewBox="0 0 13 23" fill="none" xmlns="http://www.w3.org/2000/svg">
<path d="M11.27 20.72L11.76 20.61C11.88 21.14 11.99 21.64 12.08 22.12L11.59 22.22L11.1 22.32C11.01 21.85 10.9 21.35 10.78 20.83L11.27 20.72ZM9.95001 15.78L10.43 15.63C10.74 16.65 11.02 17.65 11.27 18.61L10.79 18.74L10.31 18.87C10.06 17.92 9.79001 16.94 9.48001 15.93L9.95001 15.78ZM8.27002 10.95L8.73001 10.77C9.11001 11.73 9.46001 12.7 9.79001 13.68L9.32001 13.84L8.85001 14C8.53001 13.04 8.18002 12.08 7.80002 11.14L8.27002 10.95ZM6.12003 6.31998L6.56003 6.07999C7.04003 6.95999 7.5 7.9 7.94 8.87L7.48001 9.06998L7.02002 9.26999C6.60002 8.31999 6.15002 7.4 5.68002 6.56L6.12003 6.31998ZM3.14001 2.19L3.49002 1.82999C4.19002 2.50999 4.86002 3.34998 5.49002 4.28998L5.07001 4.56998L4.65002 4.84998C4.05002 3.94998 3.43001 3.16999 2.79001 2.54999L3.14001 2.19ZM0.0600281 0.5L0.120026 0C0.680026 0.07 1.22002 0.249989 1.74002 0.519989L1.51001 0.959991L1.28003 1.39999C0.850029 1.17999 0.42 1.03998 0 0.97998L0.0600281 0.5Z" fill="#FDC126"/>
</svg>
