<svg width="20" height="12" viewBox="0 0 20 12" fill="none" xmlns="http://www.w3.org/2000/svg">
<path d="M18.64 1.44L18.19 1.22C18.39 0.820001 18.56 0.42 18.71 0L19.18 0.169983L19.65 0.339996C19.49 0.789996 19.3 1.23 19.08 1.66L18.64 1.44ZM15.87 5.10999L15.53 4.75C16.2 4.12 16.78 3.45 17.28 2.75L17.69 3.03998L18.1 3.32999C17.57 4.08999 16.94 4.80999 16.22 5.48999L15.87 5.10999ZM12.09 7.73999L11.86 7.29999C12.7 6.86999 13.46 6.39999 14.15 5.89999L14.44 6.29999L14.73 6.69998C14 7.23998 13.19 7.73 12.31 8.19L12.09 7.73999ZM7.79001 9.39999L7.64999 8.91998C8.55999 8.65998 9.40999 8.36999 10.21 8.04999L10.4 8.50998L10.59 8.97C9.76 9.31 8.87001 9.61 7.92001 9.88L7.79001 9.39999ZM3.26001 10.31L3.20001 9.81C4.14001 9.69 5.03 9.53001 5.88 9.35001L5.98001 9.84L6.08002 10.33C5.20002 10.52 4.28001 10.68 3.32001 10.8L3.26001 10.31ZM0.0299988 10.6L0 10.1C0.46 10.08 0.919995 10.05 1.37 10.01L1.41 10.51L1.45001 11.01C0.990012 11.05 0.530018 11.08 0.0500183 11.1L0.0299988 10.6Z" fill="#D4E7B2"/>
</svg>
