<svg width="28" height="18" viewBox="0 0 28 18" fill="none" xmlns="http://www.w3.org/2000/svg">
<path d="M26.17 1.13L25.91 0.700012L27.08 0L27.34 0.429993L27.6 0.859985L26.43 1.56L26.17 1.13ZM22.3 3.45001L22.04 3.01999L24.37 1.62L24.63 2.04999L24.89 2.48001L22.56 3.88L22.3 3.45001ZM18.43 5.76999L18.17 5.34L20.5 3.94L20.76 4.37L21.02 4.79999L18.69 6.20001L18.43 5.76999ZM14.57 8.10001L14.31 7.66998L16.64 6.26999L16.9 6.70001L17.16 7.13L14.83 8.53L14.57 8.10001ZM10.7 10.42L10.44 9.98999L12.77 8.59L13.03 9.01999L13.29 9.45001L10.96 10.85L10.7 10.42ZM6.83002 12.74L6.57001 12.31L8.89999 10.91L9.16 11.34L9.42001 11.77L7.09 13.17L6.83002 12.74ZM2.96002 15.06L2.70001 14.63L5.03 13.23L5.29001 13.66L5.55002 14.09L3.22 15.49L2.96002 15.06ZM0.26001 16.68L0 16.25L1.17001 15.55L1.42999 15.98L1.69 16.41L0.52002 17.11L0.26001 16.68Z" fill="#D4E7B2"/>
</svg>
