<svg width="19" height="4" viewBox="0 0 19 4" fill="none" xmlns="http://www.w3.org/2000/svg">
<path d="M17.38 2.56998L17.24 2.09C17.68 1.96 18.13 1.81999 18.59 1.64999L18.76 2.12L18.93 2.59C18.45 2.76 17.98 2.90998 17.52 3.03998L17.38 2.56998ZM12.67 3.38998L12.65 2.88998C13.54 2.84998 14.47 2.73998 15.45 2.53998L15.55 3.03L15.65 3.51999C14.62 3.72999 13.64 3.84998 12.7 3.88998L12.67 3.38998ZM7.89999 2.97L8 2.47998C8.92 2.67998 9.83998 2.81 10.79 2.87L10.76 3.37L10.73 3.87C9.71998 3.81 8.74998 3.65999 7.78998 3.45999L7.89999 2.97ZM3.31 1.60999L3.47998 1.13998C4.40998 1.46998 5.30999 1.77 6.20999 2.03L6.06998 2.50998L5.92999 2.98999C5.00999 2.71999 4.08999 2.41999 3.14999 2.07999L3.31 1.60999ZM0.169983 0.470001L0.339996 0C0.799996 0.17 1.25998 0.34 1.69998 0.5L1.53 0.970001L1.35999 1.44C0.909985 1.28 0.46 1.11 0 0.940002L0.169983 0.470001Z" fill="#D4E7B2"/>
</svg>
