<svg width="74" height="16" viewBox="0 0 74 16" fill="none" xmlns="http://www.w3.org/2000/svg">
<path d="M73.14 2.0574V1.48741C72.85 0.627411 72.28 -0.232597 71.13 0.0574029C69.7 0.0574029 69.41 0.917413 69.41 2.06741L69.98 5.5074C69.98 6.6574 70.55 7.2274 71.99 7.2274C73.14 6.9374 73.71 6.07741 73.42 5.21741V4.35741H72.27V5.21741C72.27 5.78741 72.27 6.07741 71.7 6.07741C71.41 6.07741 71.13 5.7874 71.13 5.5074L70.56 1.7774C70.56 1.2074 70.56 0.917404 71.13 0.917404C71.42 0.917404 71.7 1.2074 71.99 1.7774V2.34741L73.14 2.0574ZM63.96 6.07741C63.96 7.50741 64.82 8.08741 65.97 7.79741C67.12 7.79741 67.69 6.9374 67.69 5.7874L66.83 0.62741H65.68L66.25 6.07741C66.54 6.36741 66.25 6.64741 65.96 6.93741C65.39 6.93741 65.1 6.64741 65.1 6.07741L64.53 0.917404H63.1L63.96 6.07741ZM59.38 8.65741L59.09 5.5074L60.24 5.21741L60.53 8.3674H61.96L61.1 1.1974L59.67 1.48741L60.24 4.35741H58.81L58.52 1.48741L57.37 1.7774L58.23 8.65741H59.38ZM53.93 9.2274L55.08 8.93741L54.51 3.1974L55.66 2.90741L55.37 2.04741L51.93 2.3374V3.48741L53.36 3.1974L53.93 9.2274ZM47.9 2.9174H46.47L47.33 10.0874L48.76 9.79741L47.9 2.9174ZM42.46 7.79741C42.75 7.79741 43.03 7.5074 43.03 7.5074L44.18 10.3774H45.61L44.18 7.2274C44.47 6.9374 45.04 6.36741 44.75 5.21741C44.46 3.78741 43.89 3.49741 42.46 3.49741L40.74 3.7874L41.6 10.6674H42.75L42.46 7.79741ZM42.17 4.6374H42.46C43.32 4.3474 43.32 4.63741 43.61 5.49741C43.61 6.35741 43.32 6.6474 42.75 6.6474H42.46L42.17 4.6374ZM37.29 11.2374H38.72L37.86 5.21741L39.01 4.92741V4.06741L35.28 4.35741L35.57 5.5074L36.72 5.21741L37.29 11.2374ZM31.27 4.92741H30.12L30.98 12.0974L32.13 11.8074L31.27 4.92741ZM25.53 7.21741C25.53 6.92741 25.53 6.6474 26.1 6.6474C26.39 6.3574 26.67 6.64741 26.67 7.21741L27.24 10.6574C27.24 11.2274 27.24 11.5174 26.67 11.5174C26.1 11.5174 25.81 11.5174 25.81 10.9474L25.53 7.21741ZM24.67 10.9474C24.67 12.0974 25.53 12.6674 26.68 12.6674C28.11 12.3774 28.4 11.5174 28.4 10.6574L27.83 6.92741C27.83 6.06741 27.26 5.20741 25.82 5.49741C24.67 5.49741 24.1 6.3574 24.39 7.5074L24.67 10.9474ZM20.09 13.2474L19.52 8.9474L21.53 13.2474L22.68 12.9574L21.82 6.07741H20.67L21.24 10.0974L19.23 6.3674L18.08 6.65741L18.94 13.5374L20.09 13.2474ZM12.63 14.3874L13.78 14.0974L13.21 8.07741H14.36L14.07 6.92741L10.63 7.49741V8.35741H11.78L12.63 14.3874ZM9.75999 14.6774V13.5274L7.47 13.8174L7.17999 11.8074L8.89999 11.5174L8.61 10.6574H7.17999L6.89 8.93741L8.89999 8.6474V7.49741L5.45999 8.06741L6.31999 14.9474L9.75999 14.6774ZM2.3 15.5374L2.00999 12.9574L2.3 12.3874L3.73 15.2574H4.88L2.87 10.9574L3.73 8.37741H2.58L1.72 11.2474L1.42999 8.6674H0L0.860001 15.8374L2.3 15.5374Z" fill="#D2AA54"/>
</svg>
