<svg width="16" height="13" viewBox="0 0 16 13" fill="none" xmlns="http://www.w3.org/2000/svg">
<path d="M14.68 1.57001L14.22 1.37C14.42 0.919995 14.59 0.46 14.74 0L15.22 0.160004L15.7 0.320007C15.54 0.810007 15.36 1.29 15.15 1.78L14.68 1.57001ZM12 5.87L11.62 5.55002C12.27 4.79002 12.83 3.99 13.32 3.16L13.75 3.41L14.18 3.66C13.67 4.54 13.07 5.39 12.38 6.19L12 5.87ZM8.17001 9.20001L7.90002 8.78C8.75002 8.24 9.52001 7.64002 10.23 6.99002L10.57 7.36002L10.91 7.73001C10.17 8.41001 9.35001 9.05 8.45001 9.62L8.17001 9.20001ZM3.56 11.34L3.41 10.86C4.38 10.55 5.29001 10.18 6.14001 9.76001L6.36002 10.21L6.58002 10.66C5.69002 11.1 4.73002 11.49 3.71002 11.81L3.56 11.34ZM0.0800171 12.15L0 11.66C0.5 11.58 0.980022 11.49 1.46002 11.39L1.57001 11.88L1.68002 12.37C1.19002 12.48 0.680004 12.57 0.160004 12.65L0.0800171 12.15Z" fill="#FDC126"/>
</svg>
