<svg width="11" height="19" viewBox="0 0 11 19" fill="none" xmlns="http://www.w3.org/2000/svg">
<path d="M1.64999 17.5L1.89001 17.94C1.41001 18.2 0.920002 18.45 0.440002 18.69L0.220001 18.24L0 17.79C0.47 17.56 0.950013 17.32 1.42001 17.06L1.64999 17.5ZM6.17999 14.54L6.48999 14.93C5.65999 15.6 4.76 16.24 3.81 16.83L3.54001 16.41L3.26999 15.99C4.18999 15.41 5.06001 14.8 5.85001 14.16L6.17999 14.54ZM9.70999 10.47L10.16 10.69C9.69 11.64 9.00001 12.55 8.17001 13.41L7.81 13.06L7.45001 12.71C8.23001 11.9 8.85001 11.07 9.26001 10.25L9.70999 10.47ZM9.39999 5.34L9.81 5.06C10.56 6.15 10.87 7.28 10.79 8.41L10.29 8.38L9.79001 8.35001C9.85001 7.46001 9.61001 6.55 8.98001 5.63L9.39999 5.34ZM5.20999 1.98999L5.44 1.54999C6.55 2.12999 7.48001 2.73999 8.23001 3.35999L7.91 3.73999L7.59 4.12C6.91 3.55 6.04001 2.97998 4.98001 2.41998L5.20999 1.98999ZM1.70999 0.470001L1.88 0C2.42 0.2 2.93 0.400006 3.41 0.600006L3.22 1.06L3.03 1.51999C2.56 1.31999 2.07001 1.13 1.54001 0.940002L1.70999 0.470001Z" fill="#D4E7B2"/>
</svg>
