<svg width="6" height="12" viewBox="0 0 6 12" fill="none" xmlns="http://www.w3.org/2000/svg">
<path d="M4.55002 2L4.07001 2.12C3.93001 1.58 3.7 1.06 3.37 0.559998L3.78 0.279999L4.19 0C4.59 0.6 4.87 1.22 5.03 1.87L4.55002 2ZM3.19 8.02002L2.76999 7.76001C3.45999 6.66001 3.93 5.54001 4.12 4.45001L4.61002 4.54001L5.10001 4.63C4.88001 5.87 4.35002 7.11001 3.61002 8.29001L3.19 8.02002ZM0.339996 11.42L0 11.05C0.45 10.62 0.879999 10.18 1.28 9.73001L1.66 10.06L2.04001 10.39C1.62001 10.87 1.17 11.34 0.690002 11.78L0.339996 11.42Z" fill="#FDC126"/>
</svg>
