<svg width="16" height="13" viewBox="0 0 16 13" fill="none" xmlns="http://www.w3.org/2000/svg">
<path d="M14.68 1.57001L14.22 1.37C14.42 0.919995 14.59 0.46 14.74 0L15.22 0.160004L15.7 0.320007C15.54 0.810007 15.36 1.29 15.15 1.78L14.68 1.57001ZM12 5.88L11.62 5.56C12.27 4.8 12.83 4.00001 13.32 3.17001L13.75 3.42001L14.18 3.67001C13.67 4.55001 13.07 5.40001 12.38 6.20001L12 5.88ZM8.17001 9.20001L7.90002 8.78C8.75002 8.24 9.52001 7.64002 10.23 6.99002L10.57 7.36002L10.91 7.73001C10.17 8.41001 9.35001 9.05 8.45001 9.62L8.17001 9.20001ZM3.57001 11.35L3.42001 10.87C4.39001 10.56 5.30002 10.19 6.15002 9.77002L6.37 10.22L6.59 10.67C5.7 11.11 4.74 11.5 3.72 11.82L3.57001 11.35ZM0.0800171 12.15L0 11.66C0.5 11.58 0.980022 11.49 1.46002 11.39L1.57001 11.88L1.68002 12.37C1.19002 12.48 0.680004 12.57 0.160004 12.65L0.0800171 12.15Z" fill="#D4E7B2"/>
</svg>
