<svg width="34" height="13" viewBox="0 0 34 13" fill="none" xmlns="http://www.w3.org/2000/svg">
<path d="M32.34 1.14999L32.11 0.700012C32.58 0.460012 33.03 0.23 33.46 0L33.69 0.440002L33.92 0.880005C33.49 1.11 33.03 1.35 32.55 1.59L32.34 1.14999ZM27.74 3.37L27.53 2.92001C28.5 2.48001 29.42 2.04002 30.3 1.61002L30.52 2.06L30.74 2.51001C29.85 2.94001 28.92 3.37999 27.95 3.82999L27.74 3.37ZM23.06 5.42001L22.87 4.95999C23.83 4.55999 24.77 4.14999 25.69 3.73999L25.89 4.20001L26.09 4.66C25.17 5.07 24.22 5.48 23.26 5.88L23.06 5.42001ZM18.33 7.32001L18.15 6.85001C19.1 6.49001 20.06 6.11001 21 5.73001L21.19 6.19L21.38 6.64999C20.43 7.03999 19.47 7.41 18.51 7.78L18.33 7.32001ZM13.52 9.04999L13.36 8.57999C14.31 8.25999 15.28 7.92001 16.25 7.57001L16.42 8.04001L16.59 8.51001C15.61 8.87001 14.64 9.21 13.68 9.53L13.52 9.04999ZM8.64001 10.53L8.51001 10.05C9.45001 9.79999 10.43 9.51001 11.44 9.20001L11.59 9.67999L11.74 10.16C10.72 10.48 9.73002 10.77 8.77002 11.02L8.64001 10.53ZM3.64001 11.56L3.58002 11.06C4.48002 10.95 5.48 10.77 6.56 10.53L6.67001 11.02L6.78 11.51C5.68 11.76 4.64999 11.94 3.70999 12.06L3.64001 11.56ZM0.0899963 11.55L0.200012 11.06C0.600012 11.15 1.07 11.19 1.62 11.2V11.7V12.2C1.03 12.2 0.48 12.15 0 12.04L0.0899963 11.55Z" fill="#FDC126"/>
</svg>
