<svg width="48" height="44" viewBox="0 0 48 44" fill="none" xmlns="http://www.w3.org/2000/svg">
<path fill-rule="evenodd" clip-rule="evenodd" d="M3.44 28.5227V28.8127V29.1027V29.3927H3.73001V29.6827V29.9727V30.2627L4.02 30.5527V30.8427V31.1327H4.31001V31.4227V31.7127L4.60001 32.0027V32.2927L4.89 32.5827V32.8727L5.18001 33.1627V33.4527L5.47 33.7427V34.0327H5.76001V34.3227V34.6127H6.05V34.9027H6.34001V35.1927V35.4827H6.63V35.7727H6.92001V36.0627L7.21001 36.3527L7.5 36.6427V36.9327H7.79001V37.2227H8.08V37.5127H8.37001L8.66 37.8027V38.0927H8.95001V38.3827H9.24001C9.24001 38.6727 9.24001 38.6727 9.53001 38.6727V38.9627H9.82001L10.11 39.2527C10.4 39.2527 10.4 39.5427 10.4 39.5427L10.69 39.8327H10.98V40.1227H11.27H11.56V40.4127H11.85C11.85 40.4127 11.85 40.7027 12.14 40.7027C12.14 40.7027 12.14 40.7027 12.43 40.7027V40.9927H12.72L13.01 41.2827H13.3L13.59 41.5727H13.88V41.8627H14.17H14.46V42.1527H14.75H15.04H15.33V42.4427H15.62H15.91L16.2 42.7327H16.49H16.78V43.0227H17.07H17.36H17.65L17.94 43.3127H18.23H18.52H18.81H19.1V43.6027H19.39H19.68H19.97H20.26H20.55H20.84H21.13V43.8927H21.42H21.71H22H22.29H22.58H22.87H23.16H23.45C19.72 40.4527 18.86 35.0027 18.29 30.4127C13.76 30.8127 7.74 31.6727 3.44 28.5227ZM22.37 0.12269L0 2.9927L2.01001 17.9027C3.16001 28.5127 12.62 27.0827 18.07 26.5027C18.93 26.2127 19.5 26.2127 19.5 26.2127L21.51 25.9227L21.8 27.9327V28.5027C22.66 34.8127 23.52 43.7027 33.56 42.5527L47.33 40.8327L44.46 17.3127C43.89 11.8627 41.02 7.27269 37 4.12269C32.98 0.98269 27.82 -0.44731 22.37 0.12269Z" fill="#D2AA54"/>
</svg>
