<svg width="14" height="37" viewBox="0 0 14 37" fill="none" xmlns="http://www.w3.org/2000/svg">
<path d="M12.63 34.99L13.07 34.74C13.32 35.19 13.57 35.58 13.8 35.91L13.39 36.2L12.98 36.49C12.72 36.12 12.46 35.7 12.19 35.23L12.63 34.99ZM10.6 30.66L11.06 30.47C11.45 31.42 11.83 32.29 12.2 33.07L11.75 33.28L11.3 33.49C10.92 32.69 10.53 31.79 10.13 30.84L10.6 30.66ZM8.89001 26.17L9.36002 26C9.69002 26.93 10.03 27.83 10.36 28.69L9.89001 28.87L9.42001 29.05C9.09001 28.18 8.75001 27.28 8.42001 26.34L8.89001 26.17ZM7.33002 21.64L7.80002 21.48C8.11002 22.4 8.41 23.31 8.72 24.2L8.25 24.36L7.78 24.52C7.47 23.63 7.16001 22.71 6.85001 21.79L7.33002 21.64ZM5.85001 17.07L6.33002 16.92C6.62002 17.83 6.91002 18.75 7.21002 19.66L6.73001 19.81L6.25 19.96C5.95 19.05 5.66003 18.13 5.37003 17.22L5.85001 17.07ZM4.41 12.5L4.89001 12.35C5.17001 13.25 5.46 14.17 5.75 15.1L5.27002 15.25L4.79001 15.4C4.50001 14.47 4.21002 13.55 3.93002 12.65L4.41 12.5ZM3 7.92001L3.48001 7.76999C3.76001 8.65999 4.04002 9.57999 4.33002 10.52L3.85001 10.67L3.37003 10.82C3.08003 9.88001 2.79002 8.96001 2.52002 8.07001L3 7.92001ZM1.55002 3.34L2.03 3.17999C2.31 4.02999 2.6 4.94999 2.91 5.92999L2.43002 6.07999L1.95001 6.23001C1.64001 5.26001 1.35002 4.33999 1.08002 3.48999L1.55002 3.34ZM0.460022 0.170013L0.930023 0C1.08002 0.41 1.24 0.870016 1.41 1.36002L0.940002 1.51999L0.470001 1.67999C0.300001 1.19999 0.15 0.749996 0 0.339996L0.460022 0.170013Z" fill="#FDC126"/>
</svg>
