<svg width="10" height="12" viewBox="0 0 10 12" fill="none" xmlns="http://www.w3.org/2000/svg">
<path d="M9.22998 9.84L9.72998 9.82001C9.74998 10.4 9.75 10.98 9.72 11.55L9.22 11.52L8.72 11.49C8.75 10.95 8.74998 10.41 8.72998 9.85999L9.22998 9.84ZM8.00998 4.35001L8.45999 4.13998C8.91999 5.15998 9.26 6.28999 9.47 7.45999L8.97998 7.54999L8.48999 7.63998C8.28999 6.53998 7.98 5.48999 7.56 4.54999L8.00998 4.35001ZM4.06998 0.570007L4.19998 0.0899963C5.40998 0.409996 6.40998 1.12999 7.19998 2.07999L6.81998 2.39999L6.44 2.72C5.75 1.89 4.91998 1.30999 3.94998 1.04999L4.06998 0.570007ZM0.179993 0.949982L0 0.47998C0.6 0.24998 1.17 0.09 1.72 0L1.79999 0.48999L1.87997 0.97998C1.40997 1.05998 0.899995 1.2 0.369995 1.41L0.179993 0.949982Z" fill="#FDC126"/>
</svg>
