<svg width="18" height="39" viewBox="0 0 18 39" fill="none" xmlns="http://www.w3.org/2000/svg">
<path d="M16.11 36.84L16.46 36.48C16.85 36.86 17.22 37.17 17.58 37.41L17.31 37.83L17.04 38.25C16.61 37.97 16.18 37.61 15.76 37.19L16.11 36.84ZM13.01 32.67L13.44 32.41C14.01 33.36 14.59 34.22 15.15 34.96L14.75 35.26L14.35 35.56C13.76 34.78 13.17 33.9 12.58 32.92L13.01 32.67ZM10.55 28.07L11 27.85C11.47 28.82 11.94 29.74 12.42 30.62L11.98 30.86L11.54 31.1C11.06 30.21 10.58 29.27 10.1 28.29L10.55 28.07ZM8.39999 23.31L8.85999 23.12C9.26999 24.09 9.68999 25.05 10.11 25.98L9.65997 26.19L9.20999 26.4C8.77999 25.46 8.35998 24.5 7.94998 23.52L8.39999 23.31ZM6.45999 18.47L6.92999 18.29C7.29999 19.26 7.67998 20.24 8.06998 21.2L7.60999 21.39L7.14999 21.58C6.75999 20.61 6.38 19.63 6 18.65L6.45999 18.47ZM4.67999 13.57L5.14999 13.4C5.48999 14.37 5.83999 15.35 6.20999 16.34L5.73999 16.51L5.26999 16.68C4.89999 15.69 4.54999 14.7 4.20999 13.72L4.67999 13.57ZM3.00998 8.63L3.48999 8.48001C3.79999 9.44001 4.13 10.43 4.47 11.44L4 11.6L3.53 11.76C3.18 10.74 2.84998 9.74 2.53998 8.78L3.00998 8.63ZM1.47 3.64001L1.94998 3.5C2.21998 4.42 2.51999 5.42002 2.85999 6.49002L2.37997 6.64001L1.89999 6.79001C1.56999 5.72001 1.25999 4.71001 0.98999 3.79001L1.47 3.64001ZM0.48999 0.130005L0.970001 0C1.08 0.44 1.22 0.94 1.37 1.5L0.889984 1.63L0.409973 1.76001C0.249973 1.20001 0.12 0.69 0 0.25L0.48999 0.130005Z" fill="#FDC126"/>
</svg>
