<svg width="15" height="53" viewBox="0 0 15 53" fill="none" xmlns="http://www.w3.org/2000/svg">
<path d="M13.92 51.15L14.41 51.26C14.28 51.84 14.1 52.36 13.85 52.79L13.42 52.54L12.99 52.29C13.17 51.98 13.32 51.57 13.44 51.05L13.92 51.15ZM14.07 46.2L14.57 46.16C14.66 47.27 14.68 48.29 14.65 49.2L14.15 49.18L13.65 49.16C13.68 48.3 13.66 47.32 13.57 46.23L14.07 46.2ZM13.44 41.28L13.93 41.2C14.1 42.24 14.25 43.23 14.37 44.17L13.87 44.23L13.37 44.29C13.26 43.36 13.11 42.38 12.94 41.36L13.44 41.28ZM12.49 36.41L12.98 36.3C13.2 37.3 13.4 38.28 13.58 39.23L13.09 39.32L12.6 39.41C12.42 38.47 12.22 37.5 12 36.51L12.49 36.41ZM11.33 31.59L11.81 31.47C12.06 32.45 12.3 33.42 12.52 34.37L12.03 34.48L11.54 34.59C11.32 33.64 11.08 32.68 10.83 31.71L11.33 31.59ZM10.04 26.8L10.52 26.66C10.79 27.62 11.06 28.58 11.31 29.54L10.83 29.67L10.35 29.8C10.1 28.85 9.83 27.9 9.56 26.94L10.04 26.8ZM8.63 22.04L9.10999 21.89C9.39999 22.84 9.69 23.79 9.97 24.75L9.48999 24.89L9.01001 25.03C8.73001 24.08 8.45 23.13 8.16 22.19L8.63 22.04ZM7.12 17.31L7.59 17.15C7.9 18.08 8.21001 19.03 8.51001 19.99L8.03 20.14L7.54999 20.29C7.24999 19.34 6.94 18.39 6.63 17.46L7.12 17.31ZM5.51001 12.61L5.98001 12.44C6.31001 13.36 6.63999 14.3 6.95999 15.26L6.48999 15.42L6.01999 15.58C5.68999 14.62 5.37001 13.69 5.04001 12.77L5.51001 12.61ZM3.79001 7.96002L4.26001 7.78C4.61001 8.67 4.96 9.61001 5.31 10.57L4.84 10.74L4.37 10.91C4.02 9.95 3.67001 9.02 3.32001 8.13L3.79001 7.96002ZM1.91 3.37L2.37 3.17001C2.74 4.02001 3.13 4.94002 3.53 5.93002L3.07001 6.12L2.60999 6.31C2.21999 5.33 1.83 4.42002 1.47 3.58002L1.91 3.37ZM0.440002 0.230011L0.880005 0C1.09 0.41 1.31001 0.859996 1.54001 1.34L1.09 1.55002L0.640015 1.76001C0.420015 1.29001 0.2 0.850012 0 0.450012L0.440002 0.230011Z" fill="#D4E7B2"/>
</svg>
