<svg width="8" height="17" viewBox="0 0 8 17" fill="none" xmlns="http://www.w3.org/2000/svg">
<path d="M5.93661 1.28L5.59662 0.910004C5.93662 0.600004 6.2866 0.29 6.6466 0L6.96661 0.379974L7.28662 0.759979C6.93662 1.04998 6.60661 1.33998 6.27661 1.63998L5.93661 1.28ZM2.91659 4.64999L2.50662 4.35999C3.03662 3.60999 3.63662 2.88998 4.28662 2.19998L4.6466 2.53998L5.00662 2.87997C4.38662 3.53997 3.81662 4.22999 3.31662 4.92999L2.91659 4.64999ZM0.906613 8.67999L0.426602 8.53998C0.686602 7.63998 1.05661 6.76998 1.52661 5.91998L1.96661 6.16L2.40661 6.39999C1.97661 7.18999 1.62659 7.99 1.38659 8.81L0.906613 8.67999ZM0.656613 13.16L0.166592 13.25C-0.0134079 12.28 -0.0433933 11.32 0.0566067 10.38L0.556607 10.43L1.05661 10.48C0.966607 11.33 0.996613 12.19 1.15661 13.06L0.656613 13.16ZM1.72662 16.13L1.28662 16.37C1.05662 15.94 0.856612 15.5 0.686612 15.07L1.15661 14.89L1.62661 14.71C1.77661 15.1 1.9566 15.5 2.1766 15.9L1.72662 16.13Z" fill="#D4E7B2"/>
</svg>
