<svg width="9" height="40" viewBox="0 0 9 40" fill="none" xmlns="http://www.w3.org/2000/svg">
<path d="M8 38.25L8.48999 38.37C8.33999 38.95 8.14998 39.48 7.88998 39.92L7.45999 39.67L7.03 39.42C7.23 39.08 7.39999 38.65 7.51999 38.13L8 38.25ZM8.29999 33.19L8.79999 33.16C8.85999 34.29 8.86001 35.34 8.79001 36.28L8.29001 36.24L7.79001 36.2C7.85001 35.31 7.85001 34.3 7.79001 33.2L8.29999 33.19ZM7.75 28.15L8.23999 28.08C8.39999 29.14 8.53 30.16 8.63 31.14L8.13 31.19L7.63 31.24C7.53 30.28 7.39999 29.27 7.23999 28.23L7.75 28.15ZM6.85001 23.15L7.34 23.05C7.55 24.07 7.73998 25.08 7.91998 26.07L7.42999 26.16L6.94 26.25C6.77 25.27 6.58 24.27 6.37 23.26L6.85001 23.15ZM5.72998 18.19L6.22 18.07C6.46 19.06 6.69 20.06 6.91 21.06L6.41998 21.17L5.92999 21.28C5.70999 20.29 5.47999 19.3 5.23999 18.31L5.72998 18.19ZM4.47 13.27L4.94998 13.14C5.20998 14.11 5.46998 15.1 5.72998 16.1L5.25 16.22L4.76999 16.34C4.51999 15.34 4.26 14.36 4 13.39L4.47 13.27ZM3.07999 8.37997L3.56 8.23999C3.84 9.18999 4.12 10.17 4.41 11.19L3.92999 11.33L3.44998 11.47C3.16998 10.46 2.87999 9.47998 2.60999 8.53998L3.07999 8.37997ZM1.59 3.51999L2.07001 3.37C2.36001 4.27 2.66998 5.24999 2.97998 6.29999L2.5 6.44998L2.01999 6.59998C1.69999 5.55998 1.39999 4.58 1.10999 3.69L1.59 3.51999ZM0.470001 0.160004L0.940002 0C1.09 0.43 1.24999 0.910002 1.42999 1.44L0.959991 1.59998L0.48999 1.75998C0.30999 1.22998 0.15 0.759987 0 0.329987L0.470001 0.160004Z" fill="#D4E7B2"/>
</svg>
