<svg width="181" height="168" viewBox="0 0 181 168" fill="none" xmlns="http://www.w3.org/2000/svg">
<path d="M32.5 126.453L0 143.443L5.38 150.353L35.77 132.113C35.77 132.113 81.83 160.573 89.88 163.313C97.93 166.043 102.68 169.053 112.17 165.173C121.66 161.283 133.4 151.953 114.2 145.813C95 139.673 63.41 125.903 66.49 121.613C69.58 117.333 117.76 137.673 127.53 140.773C137.3 143.883 148.71 139.423 155.65 133.993C162.59 128.563 172.33 111.863 155 112.073C137.67 112.283 92.68 110.453 93.91 104.783C95.14 99.1125 144.19 103.793 157.88 103.793C171.57 103.783 178.51 98.3625 179.94 91.7425C181.37 85.1225 178.06 75.4925 164.24 79.4325C150.42 83.3725 108.54 87.1725 109.36 83.3825C110.18 79.6025 148.55 72.0725 159.49 71.4625C170.43 70.8625 176.19 64.1925 177.63 57.5725C179.07 50.9525 175.95 40.3725 167.29 45.4325C158.63 50.4825 133.68 60.9225 130.23 56.8825C126.78 52.8325 160.68 41.0325 165.83 37.2025C170.98 33.3725 174.48 27.1925 169.94 23.2425C165.39 19.2825 139.83 37.5125 141.06 31.8425C142.29 26.1725 160.92 19.9725 159.74 10.4725C158.56 0.972548 130.69 -5.05748 130.5 5.79252C130.31 16.6425 134.67 31.4525 130.33 31.5025C126 31.5525 126.74 21.4825 125.69 13.0025C124.65 4.52255 123.33 2.26252 113.5 6.07252C110.68 7.44252 113.38 14.9525 113.38 14.9525C113.38 14.9525 121.27 48.3525 113.64 48.6725C106.01 48.9925 107 24.4625 105.13 18.1125C103.26 11.7625 98.51 8.75253 91.29 12.1425C84.07 15.5325 84.7 22.6025 86.15 25.8825C87.6 29.1625 99.49 65.7425 92.75 68.5725C86.01 71.4025 85.02 49.4025 84.04 42.2625C83.07 35.1225 77.46 16.0825 70.45 18.5225C63.44 20.9625 52.51 28.1725 57.13 33.4625C61.75 38.7525 72.6 73.4525 67.24 78.2325C62.91 78.2825 54.81 45.8325 51.91 39.2625C49.01 32.6925 44.67 27.7925 38.28 32.3525C31.89 36.9125 27.15 43.8025 32.12 50.8225C37.08 57.8425 52.5 104.743 45 106.093C37.51 107.443 26.58 71.4025 25.54 66.2325C24.5 61.0525 17.69 57.6025 12.74 60.4925C7.78999 63.3825 1.19999 73.8325 3.89999 81.3525C6.60999 88.8325 32.5 126.453 32.5 126.453Z" fill="#F0CA49"/>
</svg>
