<svg width="5" height="32" viewBox="0 0 5 32" fill="none" xmlns="http://www.w3.org/2000/svg">
<path d="M2.63998 29.67L3.09998 29.87C2.84998 30.45 2.53 30.95 2.12 31.33L1.78 30.97L1.44 30.61C1.72 30.34 1.97 29.97 2.19 29.47L2.63998 29.67ZM3.56 24.53L4.06 24.55C4.01 25.72 3.91 26.8 3.72 27.76L3.22998 27.67L2.73999 27.58C2.90999 26.68 3.01 25.65 3.06 24.52L3.56 24.53ZM3.44998 19.28L3.94998 19.25C4.02998 20.34 4.07 21.4 4.09 22.42L3.59 22.43L3.09 22.44C3.08 21.44 3.02998 20.4 2.94998 19.32L3.44998 19.28ZM2.91998 14.06L3.41998 14C3.54998 15.05 3.66999 16.1 3.76999 17.15L3.26999 17.2L2.76999 17.25C2.66999 16.22 2.54998 15.18 2.41998 14.14L2.91998 14.06ZM2.16 8.86002L2.64999 8.78C2.81999 9.79 2.98 10.84 3.13 11.9L2.63998 11.97L2.14999 12.04C1.99999 10.99 1.83998 9.94 1.66998 8.94L2.16 8.86002ZM1.22998 3.70001L1.72 3.60001C1.91 4.56001 2.09999 5.60002 2.29999 6.71002L1.81 6.80002L1.31998 6.89001C1.12998 5.79001 0.92999 4.75002 0.73999 3.80002L1.22998 3.70001ZM0.48999 0.100006L0.97998 0C1.07998 0.46 1.18999 0.970009 1.29999 1.54001L0.809998 1.64001L0.319977 1.74002C0.199977 1.17002 0.1 0.660022 0 0.210022L0.48999 0.100006Z" fill="#D4E7B2"/>
</svg>
