<svg width="13" height="14" viewBox="0 0 13 14" fill="none" xmlns="http://www.w3.org/2000/svg">
<path d="M11.48 1.04999L11.26 0.600006C11.7 0.390006 12.13 0.19 12.56 0L12.76 0.459991L12.96 0.919983C12.54 1.09998 12.12 1.3 11.7 1.5L11.48 1.04999ZM7.38998 3.35999L7.12 2.94C7.92 2.42 8.74999 1.92998 9.57999 1.47998L9.81998 1.91998L10.06 2.35999C9.25 2.79999 8.44998 3.28 7.66998 3.78L7.38998 3.35999ZM3.66998 6.22L3.32999 5.85999C3.99999 5.21999 4.74999 4.60999 5.54999 4.01999L5.84998 4.41998L6.14999 4.82001C5.37999 5.39001 4.65999 5.97999 4.01999 6.57999L3.66998 6.22ZM0.889984 9.95999L0.429993 9.76999C0.779993 8.90999 1.32998 8.06998 2.00998 7.25998L2.38998 7.57999L2.76999 7.89999C2.13999 8.65999 1.64998 9.40999 1.34998 10.15L0.889984 9.95999ZM0.75 13.16L0.279999 13.34C0.0899988 12.83 0 12.31 0 11.78H0.5H1C1 12.19 1.07 12.59 1.22 12.98L0.75 13.16Z" fill="#D4E7B2"/>
</svg>
