<svg width="74" height="52" viewBox="0 0 74 52" fill="none" xmlns="http://www.w3.org/2000/svg">
<path d="M72.84 38.36L72.62 37.91C72.91 37.76 73.2 37.61 73.49 37.47L73.72 37.91L73.95 38.35C73.66 38.5 73.37 38.65 73.07 38.8L72.84 38.36ZM12.28 50.9L12.26 50.4C12.6 50.38 12.93 50.37 13.27 50.35L13.3 50.85L13.33 51.35C12.99 51.37 12.66 51.38 12.32 51.4L12.28 50.9ZM11.84 50.01L12.3 49.8C12.44 50.12 12.58 50.41 12.72 50.66L12.28 50.9L11.84 51.14C11.69 50.86 11.54 50.55 11.39 50.22L11.84 50.01ZM0.490005 0.0799866C0.980005 -1.34259e-05 0.979995 0 0.979995 0V0.0100098C0.979995 0.0200098 0.980005 0.0399976 0.990005 0.0599976C1.00001 0.0999976 1.01 0.15999 1.02 0.23999C1.05 0.39999 1.09 0.639982 1.14 0.949982L0.650009 1.04001L0.160019 1.13C0.110019 0.820005 0.0599929 0.579983 0.0399929 0.419983C0.0299929 0.339983 0.0199941 0.27999 0.00999408 0.23999C0.00999408 0.21999 1.48352e-05 0.200002 1.48352e-05 0.190002C1.48352e-05 0.180002 1.48352e-05 0.179993 1.48352e-05 0.179993C1.48352e-05 0.179993 -0.00999492 0.169987 0.490005 0.0799866ZM12.28 50.9L12.3 51.4C12.11 51.41 11.93 51.31 11.84 51.14L12.28 50.9Z" fill="#EAF3D9"/>
</svg>
