<svg width="182" height="162" viewBox="0 0 182 162" fill="none" xmlns="http://www.w3.org/2000/svg">
<path d="M32.9855 121.71L33.2155 122.15L32.3255 122.61L32.0955 122.17L31.8655 121.73L32.7555 121.27L32.9855 121.71ZM32.4155 120.89L32.8255 120.61C33.0055 120.88 33.1555 121.09 33.2455 121.23C33.2955 121.3 33.3255 121.35 33.3555 121.39C33.3655 121.41 33.3755 121.42 33.3855 121.43L33.3955 121.44C33.3955 121.44 33.3955 121.44 32.9855 121.72C32.5755 122 32.5755 122 32.5755 122C32.5755 122 32.5755 121.99 32.5655 121.99C32.5555 121.98 32.5455 121.97 32.5355 121.95C32.5155 121.91 32.4755 121.86 32.4255 121.79C32.3255 121.65 32.1855 121.44 32.0055 121.17L32.4155 120.89ZM4.40549 76.58L4.87549 76.41C4.96549 76.66 5.08551 76.95 5.23551 77.29L4.77549 77.49L4.31549 77.69C4.15549 77.34 4.02551 77.02 3.92551 76.74L4.40549 76.58ZM4.1055 75.59L4.59549 75.47C4.67549 75.79 4.76549 76.1 4.87549 76.41L4.40549 76.58L3.93549 76.75C3.81549 76.41 3.71549 76.07 3.62549 75.72L4.1055 75.59ZM13.2455 55.72L13.4955 56.15C13.2255 56.31 12.9455 56.49 12.6655 56.7L12.3655 56.3L12.0655 55.9C12.3755 55.67 12.6855 55.47 12.9855 55.29L13.2455 55.72ZM14.1055 55.29L14.3055 55.75C14.0355 55.87 13.7655 56 13.4955 56.15L13.2455 55.72L12.9955 55.29C13.2955 55.11 13.6055 54.96 13.9155 54.83L14.1055 55.29ZM26.0455 61.46L25.5555 61.56C25.4955 61.28 25.4255 61 25.3255 60.72L25.7955 60.56L26.2655 60.4C26.3755 60.71 26.4655 61.03 26.5255 61.36L26.0455 61.46ZM26.2655 62.4L25.7755 62.52C25.6855 62.14 25.6055 61.82 25.5555 61.56L26.0455 61.46L26.5355 61.36C26.5855 61.6 26.6555 61.9 26.7455 62.28L26.2655 62.4ZM45.5055 101.32L45.5955 101.81C45.1855 101.88 44.7755 101.86 44.3655 101.77L44.4855 101.28L44.6055 100.79C44.8955 100.86 45.1655 100.87 45.4255 100.82L45.5055 101.32ZM46.3855 100.87L46.7355 101.23C46.4155 101.54 46.0355 101.74 45.5955 101.82L45.5055 101.33L45.4155 100.84C45.6555 100.8 45.8555 100.69 46.0355 100.52L46.3855 100.87ZM32.6255 46.05L33.0355 45.76C33.2155 46.01 33.3955 46.3 33.5955 46.64L33.1655 46.89L32.7355 47.14C32.5455 46.82 32.3755 46.56 32.2255 46.33L32.6255 46.05ZM32.0955 45.24L32.5255 44.98C32.6855 45.24 32.8555 45.5 33.0355 45.76L32.6255 46.05L32.2155 46.34C32.0155 46.06 31.8355 45.78 31.6655 45.5L32.0955 45.24ZM38.7855 27.59L39.0755 28C38.8155 28.18 38.5655 28.37 38.3155 28.56L38.0155 28.16L37.7155 27.76C37.9755 27.56 38.2355 27.37 38.5055 27.18L38.7855 27.59ZM39.6755 27L39.9355 27.43C39.6555 27.6 39.3655 27.78 39.0755 27.99L38.7855 27.58L38.4955 27.17C38.8055 26.95 39.1155 26.75 39.4255 26.56L39.6755 27ZM52.4155 34.5L51.9555 34.7C51.8155 34.38 51.6655 34.07 51.5255 33.75L51.9755 33.54L52.4255 33.33C52.5755 33.65 52.7255 33.97 52.8655 34.3L52.4155 34.5ZM52.7955 35.4L52.3255 35.58C52.1955 35.24 52.0755 34.95 51.9655 34.7L52.4255 34.5L52.8855 34.3C53.0055 34.57 53.1355 34.88 53.2655 35.23L52.7955 35.4ZM67.7555 73.47L67.7655 73.97C67.3055 73.98 66.8855 73.75 66.5155 73.44L66.8355 73.06L67.1555 72.68C67.4355 72.92 67.6255 72.98 67.7455 72.98L67.7555 73.47ZM68.3355 72.73L68.7655 72.98C68.5755 73.31 68.3555 73.61 68.0855 73.85L67.7555 73.48L67.4255 73.11C67.5955 72.96 67.7555 72.75 67.9055 72.5L68.3355 72.73ZM57.6355 28.7L58.0155 28.37C58.2155 28.6 58.4255 28.88 58.6455 29.2L58.2255 29.48L57.8055 29.76C57.6055 29.47 57.4255 29.22 57.2555 29.03L57.6355 28.7ZM57.0655 27.9L57.4955 27.65C57.6355 27.89 57.8055 28.13 58.0155 28.37L57.6355 28.7L57.2555 29.03C57.0055 28.74 56.7955 28.45 56.6255 28.15L57.0655 27.9ZM70.9555 13.76L71.1155 14.23C70.8155 14.33 70.5055 14.45 70.1855 14.57L70.0055 14.1L69.8255 13.63C70.1555 13.5 70.4755 13.38 70.7855 13.28L70.9555 13.76ZM71.9555 13.55L71.9855 14.05C71.7055 14.07 71.4155 14.13 71.1155 14.23L70.9555 13.76L70.7955 13.29C71.1755 13.16 71.5455 13.08 71.9255 13.06L71.9555 13.55ZM84.5455 37.5L84.0455 37.57C84.0055 37.28 83.9555 36.97 83.9055 36.64L84.3955 36.56L84.8855 36.48C84.9455 36.82 84.9955 37.14 85.0355 37.45L84.5455 37.5ZM84.6655 38.47L84.1655 38.53C84.1255 38.18 84.0855 37.86 84.0455 37.57L84.5455 37.5L85.0455 37.43C85.0855 37.73 85.1255 38.06 85.1655 38.41L84.6655 38.47ZM93.2555 63.81L93.4455 64.27C93.0455 64.44 92.6555 64.53 92.2755 64.55L92.2455 64.05L92.2155 63.55C92.4755 63.54 92.7555 63.47 93.0555 63.34L93.2555 63.81ZM94.0455 63.24L94.4155 63.58C94.1455 63.88 93.8255 64.12 93.4555 64.27L93.2655 63.81L93.0755 63.35C93.2955 63.26 93.5055 63.11 93.6855 62.91L94.0455 63.24ZM86.6555 21.12L87.1155 20.92C87.2055 21.13 87.3255 21.44 87.4855 21.85L87.0155 22.02L86.5455 22.19C86.3955 21.79 86.2855 21.5 86.2055 21.32L86.6555 21.12ZM86.3055 20.2L86.7855 20.05C86.8855 20.37 86.9955 20.66 87.1155 20.92L86.6555 21.12L86.1955 21.32C86.0655 21.02 85.9355 20.7 85.8255 20.35L86.3055 20.2ZM91.7955 7.38L92.0055 7.82999C91.7055 7.96999 91.4155 8.12 91.1355 8.28L90.8855 7.84L90.6355 7.39999C90.9355 7.22999 91.2455 7.06998 91.5655 6.91998L91.7955 7.38ZM92.7555 6.95999L92.9455 7.41998C92.6355 7.53998 92.3255 7.67999 92.0055 7.82999L91.7955 7.38L91.5855 6.92999C91.9155 6.76999 92.2455 6.63 92.5755 6.5L92.7555 6.95999ZM105.625 13.35L105.146 13.49C105.056 13.17 104.945 12.86 104.835 12.55L105.305 12.38L105.775 12.21C105.895 12.53 105.995 12.86 106.095 13.2L105.625 13.35ZM105.866 14.31L105.375 14.41C105.305 14.06 105.226 13.76 105.146 13.49L105.625 13.35L106.105 13.21C106.195 13.51 106.275 13.85 106.355 14.21L105.866 14.31ZM114.135 43.91L114.155 44.41C113.735 44.43 113.325 44.38 112.945 44.27L113.085 43.79L113.225 43.31C113.505 43.39 113.796 43.43 114.116 43.41L114.135 43.91ZM115.116 43.65L115.345 44.09C114.985 44.28 114.585 44.39 114.155 44.41L114.135 43.91L114.116 43.41C114.406 43.4 114.655 43.33 114.885 43.21L115.116 43.65ZM113.875 10.19C114.365 10.07 114.366 10.07 114.366 10.07V10.08C114.366 10.09 114.375 10.11 114.375 10.13C114.385 10.17 114.395 10.23 114.415 10.31C114.455 10.47 114.506 10.71 114.576 11.01L114.085 11.12L113.595 11.23C113.525 10.93 113.475 10.69 113.435 10.53C113.415 10.45 113.406 10.39 113.396 10.35C113.396 10.33 113.385 10.31 113.385 10.3C113.385 10.29 113.385 10.29 113.385 10.29C113.385 10.29 113.385 10.3 113.875 10.19ZM113.585 9.26999L114.065 9.13C114.145 9.41 114.215 9.63 114.275 9.78C114.305 9.86 114.325 9.91999 114.335 9.95999C114.345 9.97999 114.345 9.99 114.355 10C114.355 10.01 114.355 10.01 114.355 10.01C114.355 10.01 114.355 10.01 113.885 10.18C113.415 10.35 113.415 10.35 113.415 10.35V10.34C113.415 10.33 113.406 10.31 113.396 10.29C113.376 10.25 113.355 10.18 113.335 10.1C113.285 9.94001 113.205 9.70998 113.125 9.41998L113.585 9.26999ZM113.995 1.29999L114.215 1.75C114.005 1.85 113.825 2.00999 113.685 2.20999L113.275 1.92999L112.866 1.64999C113.096 1.31999 113.395 1.03999 113.775 0.859985L113.995 1.29999ZM114.885 0.959991L115.055 1.42999C114.765 1.53999 114.476 1.65001 114.176 1.76001L113.995 1.29001L113.815 0.820007C114.125 0.700007 114.415 0.590011 114.715 0.480011L114.885 0.959991ZM126.185 8.23001L125.685 8.29001C125.645 7.98001 125.606 7.68999 125.576 7.39999L126.076 7.32999L126.576 7.26001C126.616 7.55001 126.655 7.85 126.695 8.16L126.185 8.23001ZM126.296 9.22L125.796 9.26999C125.766 8.93999 125.725 8.62001 125.685 8.29001L126.185 8.23001L126.685 8.16998C126.725 8.49998 126.766 8.83 126.796 9.16L126.296 9.22ZM130.826 26.73L130.835 27.23C130.375 27.24 129.956 27.15 129.576 26.96L129.785 26.51L129.995 26.06C130.235 26.17 130.505 26.23 130.815 26.23L130.826 26.73ZM131.785 26.38L132.116 26.76C131.766 27.07 131.326 27.23 130.826 27.24L130.815 26.74L130.805 26.24C131.085 26.24 131.285 26.15 131.445 26.01L131.785 26.38ZM130.986 1.01999L131.486 1.03C131.476 1.35 131.475 1.68001 131.475 2.01001H130.975H130.475C130.475 1.67001 130.476 1.34001 130.486 1.01001L130.986 1.01999ZM131.076 0.0899963L131.565 0.179993C131.515 0.449993 131.486 0.729999 131.486 1.03L130.986 1.01999L130.486 1.01001C130.496 0.66001 130.525 0.32 130.585 0L131.076 0.0899963ZM160.225 5.70999L159.725 5.76999C159.685 5.48999 159.626 5.20999 159.546 4.92999L160.025 4.78L160.505 4.63C160.605 4.96 160.685 5.29998 160.725 5.63998L160.225 5.70999ZM160.285 6.66998L159.785 6.66C159.785 6.37 159.776 6.06999 159.736 5.76999L160.236 5.70999L160.736 5.64999C160.776 5.99999 160.796 6.33999 160.796 6.67999L160.285 6.66998ZM141.555 27.07L141.065 26.96C141.145 26.61 141.265 26.27 141.445 25.94L141.885 26.17L142.326 26.4C142.186 26.67 142.095 26.93 142.035 27.18L141.555 27.07ZM141.755 28.01L141.456 28.41C140.996 28.07 140.945 27.51 141.055 26.97L141.546 27.08L142.035 27.19C141.995 27.38 141.996 27.49 142.016 27.55C142.026 27.6 142.045 27.61 142.055 27.62L141.755 28.01ZM170.426 18.48L170.095 18.86C169.915 18.7 169.665 18.58 169.345 18.5L169.465 18.01L169.585 17.52C170.025 17.62 170.425 17.81 170.755 18.09L170.426 18.48ZM171.165 19.22L170.785 19.55C170.585 19.32 170.355 19.09 170.095 18.86L170.426 18.48L170.755 18.1C171.045 18.35 171.306 18.62 171.546 18.89L171.165 19.22ZM166.326 32.44L166.025 32.04C166.295 31.84 166.555 31.64 166.805 31.43L167.125 31.82L167.445 32.21C167.175 32.43 166.905 32.64 166.625 32.85L166.326 32.44ZM165.465 33L165.206 32.57C165.536 32.37 165.805 32.19 166.025 32.04L166.326 32.44L166.625 32.84C166.375 33.03 166.075 33.22 165.725 33.43L165.465 33ZM130.725 52.12L130.345 52.44C129.995 52.03 129.906 51.54 130.046 51.04L130.525 51.17L131.005 51.3C130.955 51.5 130.985 51.64 131.105 51.78L130.725 52.12ZM131.546 52.69L131.355 53.15C130.955 52.98 130.615 52.76 130.345 52.45L130.725 52.13L131.105 51.81C131.245 51.97 131.446 52.12 131.736 52.24L131.546 52.69ZM167.785 40.68L168.035 41.11C167.765 41.27 167.476 41.43 167.176 41.6L166.935 41.16L166.695 40.72C166.995 40.56 167.275 40.39 167.535 40.24L167.785 40.68ZM168.715 40.18L168.935 40.63C168.645 40.77 168.345 40.93 168.035 41.11L167.785 40.68L167.535 40.25C167.865 40.06 168.185 39.89 168.505 39.74L168.715 40.18ZM178.116 52.82L177.625 52.71C177.695 52.4 177.746 52.08 177.796 51.75L178.285 51.82L178.775 51.89C178.725 52.24 178.665 52.58 178.595 52.92L178.116 52.82ZM177.875 53.79L177.396 53.65C177.486 53.33 177.565 53.02 177.635 52.7L178.125 52.81L178.616 52.92C178.546 53.26 178.456 53.59 178.366 53.93L177.875 53.79ZM159.986 66.71L159.956 66.21C160.316 66.19 160.675 66.16 161.025 66.13L161.076 66.63L161.125 67.13C160.765 67.16 160.396 67.19 160.016 67.21L159.986 66.71ZM158.935 66.78L158.896 66.28C159.276 66.25 159.626 66.23 159.956 66.21L159.986 66.71L160.016 67.21C159.696 67.23 159.356 67.25 158.986 67.28L158.935 66.78ZM109.855 78.63L109.366 78.52C109.456 78.1 109.775 77.76 110.135 77.47L110.445 77.86L110.755 78.25C110.435 78.5 110.355 78.66 110.335 78.73L109.855 78.63ZM110.415 79.38L110.195 79.83C109.945 79.71 109.715 79.55 109.555 79.34C109.385 79.11 109.305 78.83 109.375 78.52L109.866 78.63L110.355 78.74C110.355 78.75 110.355 78.74 110.355 78.73C110.355 78.72 110.356 78.73 110.366 78.74C110.396 78.78 110.466 78.85 110.646 78.93L110.415 79.38ZM164.736 74.67L164.875 75.15C164.555 75.24 164.216 75.33 163.866 75.42L163.736 74.94L163.605 74.46C163.945 74.37 164.275 74.28 164.595 74.19L164.736 74.67ZM165.676 74.42L165.796 74.91C165.496 74.98 165.185 75.07 164.875 75.16L164.736 74.68L164.595 74.2C164.915 74.11 165.235 74.02 165.555 73.95L165.676 74.42ZM180.445 86.99L179.956 86.88C180.016 86.6 180.066 86.31 180.116 86.02L180.605 86.09L181.095 86.16C181.045 86.47 180.996 86.78 180.926 87.09L180.445 86.99ZM180.195 87.92L179.715 87.78C179.805 87.48 179.885 87.18 179.945 86.88L180.435 86.99L180.926 87.1C180.856 87.43 180.766 87.75 180.676 88.08L180.195 87.92ZM158.375 99.04V98.54C158.725 98.54 159.075 98.54 159.415 98.53L159.426 99.03L159.435 99.53C159.085 99.54 158.735 99.54 158.375 99.54V99.04ZM157.355 99.03L157.366 98.53C157.726 98.54 158.065 98.54 158.385 98.54V99.04V99.54C158.055 99.54 157.715 99.54 157.355 99.53V99.03ZM94.4155 100.04L93.9255 99.93C94.0155 99.5 94.2855 99.15 94.6355 98.87L94.9455 99.26L95.2555 99.65C95.0255 99.84 94.9255 100 94.8955 100.14L94.4155 100.04ZM94.6355 100.96L94.2255 101.25C93.9455 100.86 93.8155 100.41 93.9255 99.93L94.4155 100.04L94.9055 100.15C94.8755 100.31 94.8955 100.47 95.0455 100.68L94.6355 100.96ZM155.505 107.33L155.516 107.83C155.176 107.83 154.825 107.84 154.475 107.84V107.34V106.84C154.835 106.84 155.176 106.83 155.516 106.83L155.505 107.33ZM156.505 107.34L156.495 107.84C156.175 107.83 155.845 107.83 155.505 107.83L155.495 107.33L155.486 106.83C155.836 106.83 156.175 106.83 156.505 106.84V107.34ZM156.155 129.25L155.845 128.86C156.075 128.68 156.315 128.48 156.565 128.27L156.896 128.65L157.225 129.03C156.975 129.25 156.715 129.46 156.465 129.66L156.155 129.25ZM155.385 129.84L155.085 129.44C155.345 129.25 155.605 129.05 155.845 128.86L156.155 129.25L156.465 129.64C156.205 129.84 155.946 130.04 155.676 130.24L155.385 129.84ZM128.035 136.03L128.185 135.55C128.505 135.65 128.826 135.74 129.146 135.83L129.016 136.31L128.885 136.79C128.545 136.7 128.215 136.6 127.875 136.5L128.035 136.03ZM127.065 135.71L127.225 135.24C127.585 135.36 127.905 135.47 128.185 135.56L128.035 136.04L127.885 136.52C127.585 136.43 127.265 136.32 126.905 136.19L127.065 135.71ZM66.9955 116.87L66.5855 116.58C66.8455 116.22 67.2655 116.02 67.7155 115.91L67.8355 116.4L67.9555 116.89C67.6155 116.97 67.4655 117.09 67.4055 117.17L66.9955 116.87ZM66.8055 117.78L66.3155 117.88C66.2255 117.42 66.3055 116.97 66.5855 116.58L66.9955 116.87L67.4055 117.16C67.3055 117.31 67.2655 117.47 67.3055 117.68L66.8055 117.78ZM114.695 141.07L114.546 141.55C114.216 141.45 113.885 141.34 113.555 141.23L113.715 140.75L113.875 140.27C114.205 140.38 114.535 140.48 114.855 140.59L114.695 141.07ZM115.725 141.41L115.565 141.88C115.235 141.77 114.895 141.65 114.555 141.54L114.706 141.06L114.855 140.58C115.215 140.69 115.556 140.81 115.896 140.93L115.725 141.41ZM112.665 160.43L112.475 159.97C112.795 159.84 113.106 159.71 113.426 159.56L113.625 160.02L113.826 160.48C113.496 160.62 113.175 160.76 112.845 160.9L112.665 160.43ZM111.755 160.79L111.576 160.32C111.866 160.21 112.165 160.09 112.475 159.97L112.665 160.43L112.855 160.89C112.545 161.02 112.235 161.14 111.935 161.25L111.755 160.79ZM90.3755 158.57L90.5355 158.1C90.8555 158.21 91.1755 158.32 91.4855 158.43L91.3155 158.9L91.1455 159.37C90.8355 159.26 90.5255 159.15 90.2055 159.04L90.3755 158.57ZM89.3955 158.19L89.5855 157.73C89.9455 157.88 90.2655 158 90.5255 158.09L90.3655 158.56L90.2055 159.03C89.9055 158.93 89.5755 158.8 89.1955 158.64L89.3955 158.19ZM36.2655 127.37C36.5255 126.94 36.5255 126.94 36.5255 126.94C36.5255 126.94 36.5355 126.94 36.5355 126.95C36.5455 126.96 36.5555 126.96 36.5755 126.98C36.6155 127 36.6655 127.04 36.7455 127.08C36.8955 127.17 37.1155 127.31 37.4055 127.49L37.1455 127.92L36.8855 128.35C36.5955 128.17 36.3755 128.04 36.2255 127.94C36.1555 127.89 36.0955 127.86 36.0555 127.84C36.0355 127.83 36.0255 127.82 36.0155 127.81L36.0055 127.8C36.0055 127.8 35.9955 127.8 36.2655 127.37ZM35.4255 127.87L35.1655 127.44L35.9955 126.94L36.2555 127.37L36.5155 127.8L35.6855 128.3L35.4255 127.87ZM5.87549 145.61L5.61551 145.18L6.4455 144.68L6.70551 145.11L6.96549 145.54L6.1355 146.04L5.87549 145.61ZM5.3255 144.9L5.71549 144.59L6.26551 145.3L5.87549 145.61L5.48551 145.92L4.93549 145.21L5.3255 144.9ZM0.495486 138.7L0.885501 138.39L1.43549 139.1L1.0455 139.41L0.65549 139.72L0.105502 139.01L0.495486 138.7ZM1.37549 138.24L1.6055 138.68L0.715487 139.14L0.485507 138.7L0.255496 138.26L1.14551 137.8L1.37549 138.24ZM32.9855 121.71L33.3955 121.43C33.4755 121.55 33.5055 121.69 33.4655 121.83C33.4355 121.97 33.3355 122.09 33.2155 122.15L32.9855 121.71ZM67.7555 73.47L68.0855 73.84C67.9955 73.92 67.8755 73.97 67.7555 73.97V73.47ZM113.875 10.19L114.345 10.02C114.355 10.04 114.356 10.06 114.366 10.07L113.875 10.19ZM113.995 1.29999L113.775 0.850006C113.785 0.840006 113.805 0.839987 113.815 0.829987L113.995 1.29999ZM36.2655 127.37L36.0055 126.94C36.1655 126.84 36.3655 126.85 36.5255 126.94L36.2655 127.37ZM5.87549 145.61L6.1355 146.04C5.9155 146.17 5.63551 146.12 5.48551 145.92L5.87549 145.61ZM0.495486 138.7L0.105502 139.01C0.0155021 138.89 -0.0244942 138.74 0.0155058 138.6C0.0455058 138.45 0.145485 138.33 0.275485 138.26L0.495486 138.7Z" fill="#FDC126"/>
</svg>
