<svg width="58" height="21" viewBox="0 0 58 21" fill="none" xmlns="http://www.w3.org/2000/svg">
<path d="M55.85 19.2L56.02 18.73C56.53 18.91 57 19.08 57.43 19.24L57.26 19.71L57.09 20.18C56.65 20.03 56.18 19.86 55.67 19.67L55.85 19.2ZM51.12 17.44L51.3 16.97C52.31 17.35 53.26 17.71 54.14 18.04L53.97 18.51L53.8 18.98C52.92 18.65 51.97 18.29 50.96 17.91L51.12 17.44ZM46.41 15.63L46.59 15.16C47.57 15.54 48.52 15.9 49.43 16.25L49.25 16.72L49.07 17.19C48.16 16.84 47.21 16.48 46.23 16.1L46.41 15.63ZM41.7 13.83L41.88 13.36C42.85 13.73 43.79 14.09 44.71 14.45L44.53 14.92L44.35 15.39C43.43 15.04 42.48 14.67 41.52 14.31L41.7 13.83ZM36.98 12.03L37.16 11.56C38.12 11.92 39.07 12.28 40 12.64L39.82 13.11L39.64 13.58C38.71 13.22 37.76 12.86 36.8 12.5L36.98 12.03ZM32.26 10.26L32.43 9.78998C33.38 10.15 34.33 10.5 35.28 10.86L35.1 11.33L34.92 11.8C33.98 11.45 33.03 11.09 32.08 10.73L32.26 10.26ZM27.53 8.50998L27.7 8.03998C28.65 8.38998 29.6 8.74 30.55 9.09L30.38 9.56L30.21 10.03C29.26 9.68 28.31 9.32998 27.36 8.97998L27.53 8.50998ZM22.78 6.79999L22.95 6.32999C23.9 6.66999 24.85 7.00998 25.81 7.34998L25.64 7.81998L25.47 8.28998C24.51 7.93998 23.56 7.59999 22.61 7.26999L22.78 6.79999ZM18.01 5.14999L18.17 4.67999C19.12 4.99999 20.08 5.32998 21.05 5.66998L20.89 6.13998L20.73 6.60999C19.76 6.26999 18.8 5.94 17.86 5.62L18.01 5.14999ZM13.23 3.57999L13.38 3.09998C14.32 3.39998 15.28 3.71 16.27 4.03L16.11 4.5L15.95 4.97C14.97 4.65 14.01 4.32998 13.07 4.03998L13.23 3.57999ZM8.38998 2.12997L8.51999 1.64999C9.45999 1.90999 10.44 2.2 11.45 2.5L11.31 2.97998L11.16 3.45999C10.15 3.14999 9.18 2.86999 8.25 2.60999L8.38998 2.12997ZM3.48999 0.940002L3.59 0.449982C4.5 0.629982 5.49999 0.859974 6.57999 1.12997L6.45999 1.60999L6.34 2.09C5.28 1.82 4.3 1.59998 3.41 1.41998L3.48999 0.940002ZM0 0.5L0.0100098 0C0.47001 0.01 0.989998 0.0499951 1.56 0.119995L1.5 0.619995L1.44 1.12C0.900002 1.05 0.42 1.01998 0 1.00998V0.5Z" fill="#D4E7B2"/>
</svg>
