<svg width="12" height="48" viewBox="0 0 12 48" fill="none" xmlns="http://www.w3.org/2000/svg">
<path d="M10.67 45.82L11.14 45.65C11.31 46.13 11.48 46.57 11.65 46.97L11.19 47.16L10.73 47.35C10.56 46.93 10.38 46.48 10.21 45.99L10.67 45.82ZM9.20999 41.21L9.69 41.07C9.97 42.05 10.25 42.97 10.52 43.82L10.04 43.97L9.56 44.12C9.28 43.26 9 42.33 8.72 41.34L9.20999 41.21ZM7.95001 36.54L8.42999 36.42C8.66999 37.38 8.92 38.32 9.16 39.22L8.67999 39.35L8.20001 39.48C7.96001 38.58 7.71 37.64 7.47 36.67L7.95001 36.54ZM6.82001 31.84L7.31 31.73C7.53 32.69 7.76001 33.63 7.98001 34.54L7.49002 34.66L7 34.78C6.78 33.86 6.55002 32.91 6.33002 31.96L6.82001 31.84ZM5.75 27.13L6.24002 27.02C6.45002 27.97 6.66 28.91 6.87 29.84L6.38 29.95L5.89001 30.06C5.68001 29.13 5.47001 28.18 5.26001 27.23L5.75 27.13ZM4.75 22.4L5.24002 22.3C5.44002 23.24 5.64 24.19 5.84 25.13L5.35001 25.23L4.86002 25.33C4.66002 24.38 4.46001 23.44 4.26001 22.49L4.75 22.4ZM3.78 17.66L4.27002 17.56C4.46002 18.5 4.65 19.44 4.84 20.39L4.35001 20.49L3.86002 20.59C3.66002 19.64 3.47001 18.69 3.29001 17.75L3.78 17.66ZM2.85001 12.92L3.34 12.83C3.52 13.76 3.70001 14.7 3.89001 15.67L3.39999 15.77L2.91 15.87C2.72 14.9 2.54002 13.95 2.36002 13.03L2.85001 12.92ZM1.95001 8.17999L2.44 8.09C2.61 9 2.79 9.94999 2.97 10.93L2.48001 11.02L1.99002 11.11C1.80002 10.13 1.62001 9.18002 1.45001 8.27002L1.95001 8.17999ZM1.08002 3.41L1.57001 3.32001C1.73001 4.19001 1.9 5.15001 2.09 6.17001L1.60001 6.26001L1.11002 6.35001C0.920016 5.33001 0.749996 4.37 0.589996 3.5L1.08002 3.41ZM0.490021 0.0899963L0.980011 0C1.05001 0.42 1.14001 0.890004 1.23001 1.41L0.740021 1.5L0.25 1.59C0.16 1.07 0.07 0.599993 0 0.179993L0.490021 0.0899963Z" fill="#EAF3D9"/>
</svg>
