<svg width="12" height="8" viewBox="0 0 12 8" fill="none" xmlns="http://www.w3.org/2000/svg">
<path d="M10.54 5.7403L10.97 5.48032C11.21 5.87032 11.44 6.28033 11.67 6.70033L11.23 6.94032L10.79 7.18031C10.57 6.78031 10.35 6.38032 10.12 6.01032L10.54 5.7403ZM7.60001 2.15031L7.91998 1.7703C8.61998 2.3603 9.27 3.0703 9.87 3.8603L9.47 4.16032L9.07001 4.4603C8.50001 3.7103 7.89999 3.06031 7.26999 2.53031L7.60001 2.15031ZM3.35999 0.500313L3.35001 0.000312767C4.38001 -0.00968723 5.33999 0.220316 6.23999 0.660316L6.01999 1.1103L5.79999 1.56031C5.02999 1.19031 4.23 0.990313 3.37 1.00031L3.35999 0.500313ZM0.220001 1.34031L0 0.890327C0.46 0.660327 0.910006 0.480309 1.35001 0.340309L1.5 0.82032L1.64999 1.3003C1.25999 1.4203 0.859982 1.59032 0.449982 1.79032L0.220001 1.34031Z" fill="#FDC126"/>
</svg>
