<svg width="30" height="17" viewBox="0 0 30 17" fill="none" xmlns="http://www.w3.org/2000/svg">
<path d="M27.94 1.09L27.71 0.650024L28.95 0L29.18 0.440002L29.41 0.880005L28.17 1.53L27.94 1.09ZM23.81 3.25L23.58 2.81L26.06 1.51001L26.29 1.95001L26.52 2.39001L24.04 3.69L23.81 3.25ZM19.67 5.42001L19.44 4.98001L21.92 3.68002L22.15 4.12003L22.38 4.56L19.9 5.86002L19.67 5.42001ZM15.54 7.58002L15.31 7.14001L17.79 5.84L18.02 6.28L18.25 6.72L15.77 8.02002L15.54 7.58002ZM11.4 9.74002L11.17 9.30002L13.65 8L13.88 8.44L14.11 8.88L11.63 10.18L11.4 9.74002ZM7.26001 11.9L7.03 11.46L9.51001 10.16L9.73999 10.6L9.97 11.04L7.48999 12.34L7.26001 11.9ZM3.13 14.07L2.89999 13.63L5.38 12.33L5.61002 12.77L5.84 13.21L3.36002 14.51L3.13 14.07ZM0.230011 15.58L0 15.14L1.23999 14.49L1.47 14.93L1.70001 15.37L0.459991 16.02L0.230011 15.58Z" fill="#D4E7B2"/>
</svg>
