<svg width="30" height="10" viewBox="0 0 30 10" fill="none" xmlns="http://www.w3.org/2000/svg">
<path d="M28.01 7.75107L28.4 7.44104C28.72 7.84104 28.99 8.24105 29.23 8.67105L28.79 8.91105L28.35 9.15107C28.15 8.78107 27.9 8.42105 27.62 8.07105L28.01 7.75107ZM24.5 4.75107L24.77 4.33106C25.62 4.86106 26.4 5.44106 27.08 6.05106L26.75 6.42105L26.42 6.79105C25.79 6.22105 25.05 5.68105 24.25 5.17105L24.5 4.75107ZM20.35 2.69104L20.53 2.22104C21.43 2.57104 22.3 2.97106 23.12 3.39106L22.89 3.83106L22.66 4.27106C21.87 3.86106 21.03 3.48106 20.16 3.14106L20.35 2.69104ZM15.92 1.31107L16.03 0.821048C16.95 1.04105 17.87 1.29107 18.76 1.59107L18.6 2.07105L18.44 2.55106C17.57 2.27106 16.68 2.02107 15.79 1.81107L15.92 1.31107ZM11.34 0.591068L11.38 0.0910679C12.31 0.161068 13.25 0.281053 14.2 0.451053L14.11 0.941043L14.02 1.43106C13.1 1.27106 12.19 1.15106 11.29 1.08106L11.34 0.591068ZM6.71002 0.681064L6.64001 0.181064C7.55001 0.0510642 8.51001 -0.00892846 9.51001 0.00107154V0.501072V1.00107C8.56001 1.00107 7.64001 1.05105 6.79001 1.17105L6.71002 0.681064ZM2.38 2.23105L2.09 1.82105C2.85 1.28105 3.76002 0.871058 4.77002 0.581058L4.91 1.06107L5.05002 1.54105C4.13002 1.81105 3.32001 2.17105 2.67001 2.63105L2.38 2.23105ZM0.480011 4.77106L0 4.62107C0.16 4.11107 0.390013 3.65105 0.670013 3.23105L1.08002 3.51105L1.49002 3.79105C1.26002 4.13105 1.07001 4.50104 0.950012 4.91104L0.480011 4.77106Z" fill="#D4E7B2"/>
</svg>
