<svg width="52" height="6" viewBox="0 0 52 6" fill="none" xmlns="http://www.w3.org/2000/svg">
<path d="M49.96 0.829987L49.85 0.339996C50.37 0.229996 50.87 0.12 51.35 0L51.46 0.48999L51.57 0.97998C51.09 1.08998 50.58 1.20998 50.06 1.31998L49.96 0.829987ZM44.89 1.81L44.8 1.31998C45.86 1.13998 46.87 0.949979 47.83 0.759979L47.93 1.25L48.03 1.73999C47.06 1.92999 46.04 2.11999 44.97 2.29999L44.89 1.81ZM39.78 2.62L39.71 2.12997C40.75 1.97997 41.77 1.82 42.76 1.66L42.84 2.14999L42.92 2.63998C41.92 2.79998 40.9 2.95999 39.85 3.10999L39.78 2.62ZM34.66 3.31998L34.6 2.81998C35.63 2.68998 36.66 2.55 37.67 2.41L37.74 2.91L37.81 3.41C36.8 3.55 35.77 3.68998 34.73 3.81998L34.66 3.31998ZM29.52 3.92999L29.47 3.42999C30.5 3.31999 31.52 3.19999 32.54 3.07999L32.6 3.57999L32.66 4.07999C31.64 4.19999 30.61 4.31999 29.58 4.42999L29.52 3.92999ZM24.38 4.44998L24.33 3.94998C25.35 3.85998 26.38 3.75999 27.41 3.64999L27.46 4.14999L27.51 4.64999C26.48 4.75999 25.45 4.85998 24.42 4.94998L24.38 4.44998ZM19.23 4.87997L19.19 4.37997C20.2 4.30997 21.23 4.21997 22.27 4.12997L22.31 4.62997L22.35 5.12997C21.31 5.21997 20.28 5.29997 19.26 5.37997L19.23 4.87997ZM14.07 5.19998L14.04 4.69998C15.04 4.64998 16.07 4.58999 17.12 4.51999L17.15 5.01999L17.18 5.51999C16.12 5.58999 15.09 5.64998 14.08 5.69998L14.07 5.19998ZM8.89999 5.37997L8.88998 4.87997C9.86998 4.85997 10.9 4.83998 11.97 4.78998L11.99 5.28998L12.01 5.78998C10.93 5.82998 9.88997 5.85997 8.90997 5.87997L8.89999 5.37997ZM3.72998 5.29999L3.75998 4.79999C4.66998 4.84999 5.69998 4.87998 6.81998 4.88998V5.38998V5.88998C5.68998 5.87998 4.63999 5.84999 3.70999 5.79999L3.72998 5.29999ZM0.149994 4.82999L0.279999 4.34998C0.659999 4.45998 1.14998 4.54997 1.72998 4.62997L1.65997 5.12997L1.59 5.62997C0.979996 5.54997 0.45 5.44999 0 5.32999L0.149994 4.82999Z" fill="#FDC126"/>
</svg>
