<svg width="9" height="19" viewBox="0 0 9 19" fill="none" xmlns="http://www.w3.org/2000/svg">
<path d="M6.91 1.39999L6.54999 1.06C6.90999 0.679998 7.27 0.33 7.63 0L7.95999 0.369995L8.29001 0.73999C7.95001 1.04999 7.60999 1.37999 7.26999 1.73999L6.91 1.39999ZM3.89999 5.34L3.48001 5.07999C4.02001 4.20999 4.60001 3.38 5.20001 2.62L5.59 2.92999L5.98001 3.23999C5.40001 3.96999 4.84001 4.76999 4.32001 5.60999L3.89999 5.34ZM1.70001 9.78L1.23001 9.60001C1.58001 8.66001 1.99999 7.73999 2.45999 6.85999L2.89999 7.09L3.34 7.32001C2.9 8.17001 2.5 9.05999 2.16 9.95999L1.70001 9.78ZM0.540009 14.6L0.0400085 14.55C0.130009 13.56 0.329996 12.56 0.589996 11.57L1.07001 11.7L1.54999 11.83C1.29999 12.77 1.12 13.71 1.03 14.64L0.540009 14.6ZM0.660004 18.08L0.169983 18.17C0.0799829 17.67 0.02 17.16 0 16.64L0.5 16.61L1 16.58C1.02 17.05 1.08 17.52 1.16 17.98L0.660004 18.08Z" fill="#D4E7B2"/>
</svg>
