<svg width="17" height="62" viewBox="0 0 17 62" fill="none" xmlns="http://www.w3.org/2000/svg">
<path d="M15.51 60.04L15.95 59.81C16.2 60.28 16.43 60.67 16.66 60.99L16.25 61.28L15.84 61.57C15.58 61.2 15.32 60.77 15.07 60.28L15.51 60.04ZM13.6 55.54L14.07 55.37C14.43 56.36 14.78 57.26 15.12 58.06L14.66 58.26L14.2 58.46C13.85 57.64 13.49 56.72 13.12 55.71L13.6 55.54ZM12.07 50.92L12.55 50.77C12.85 51.74 13.14 52.66 13.43 53.54L12.96 53.7L12.49 53.86C12.19 52.98 11.9 52.04 11.6 51.07L12.07 50.92ZM10.71 46.23L11.19 46.1C11.46 47.07 11.72 48.01 11.99 48.91L11.51 49.05L11.03 49.19C10.76 48.28 10.49 47.33 10.23 46.36L10.71 46.23ZM9.46002 41.52L9.94 41.4C10.19 42.36 10.44 43.31 10.68 44.23L10.2 44.36L9.72 44.49C9.47 43.56 9.22 42.61 8.97 41.65L9.46002 41.52ZM8.28 36.79L8.77002 36.67C9.00002 37.63 9.24 38.58 9.47 39.51L8.99002 39.63L8.51001 39.75C8.27001 38.81 8.04 37.86 7.81 36.9L8.28 36.79ZM7.15002 32.05L7.64001 31.94C7.86001 32.89 8.09 33.84 8.31 34.79L7.82001 34.91L7.33002 35.03C7.10002 34.08 6.88 33.13 6.66 32.17L7.15002 32.05ZM6.07001 27.3L6.56 27.19C6.77 28.14 6.99002 29.09 7.21002 30.05L6.72 30.16L6.23001 30.27C6.01001 29.32 5.80002 28.36 5.58002 27.41L6.07001 27.3ZM5.03 22.53L5.52002 22.42C5.72002 23.37 5.93001 24.32 6.14001 25.28L5.65002 25.39L5.16 25.5C4.95 24.54 4.74001 23.58 4.54001 22.64L5.03 22.53ZM4.01001 17.77L4.5 17.67C4.7 18.61 4.90002 19.57 5.11002 20.53L4.62003 20.63L4.13 20.73C3.92 19.76 3.72002 18.8 3.52002 17.86L4.01001 17.77ZM3.03 13L3.52002 12.9C3.71002 13.83 3.91002 14.78 4.11002 15.76L3.62003 15.86L3.13 15.96C2.93 14.98 2.73001 14.03 2.54001 13.1L3.03 13ZM2.06 8.20999L2.55002 8.10999C2.73002 9.02999 2.92 9.98999 3.13 10.99L2.64001 11.09L2.15002 11.19C1.95002 10.19 1.76001 9.23 1.57001 8.31L2.06 8.20999ZM1.13 3.42999L1.62003 3.34C1.79003 4.21 1.98002 5.17999 2.18002 6.20999L1.69 6.31L1.20001 6.40997C1.00001 5.36997 0.810015 4.41 0.640015 3.53L1.13 3.42999ZM0.490021 0.0899963L0.980011 0C1.06001 0.42 1.15 0.889983 1.25 1.41998L0.76001 1.50998L0.27002 1.59998C0.17002 1.06998 0.08 0.599993 0 0.179993L0.490021 0.0899963Z" fill="#EAF3D9"/>
</svg>
