<svg width="19" height="19" viewBox="0 0 19 19" fill="none" xmlns="http://www.w3.org/2000/svg">
<path d="M17.71 1.54999L17.23 1.39999C17.38 0.939994 17.48 0.47 17.53 0L18.03 0.0499878L18.53 0.0999756C18.47 0.649976 18.36 1.17998 18.19 1.69998L17.71 1.54999ZM15.03 5.87L14.66 5.53C15.36 4.76 15.96 3.96997 16.44 3.15997L16.87 3.40997L17.3 3.65997C16.78 4.53997 16.14 5.38998 15.4 6.19998L15.03 5.87ZM11.24 9.31L10.93 8.91998C11.74 8.27998 12.52 7.62999 13.24 6.95999L13.58 7.32999L13.92 7.69998C13.17 8.38998 12.37 9.05999 11.55 9.70999L11.24 9.31ZM7.10999 12.35L6.82001 11.94C7.64001 11.36 8.47999 10.76 9.29999 10.15L9.60001 10.55L9.89999 10.95C9.06999 11.57 8.21999 12.17 7.39999 12.75L7.10999 12.35ZM2.98999 15.39L2.67999 15C3.43999 14.39 4.28 13.77 5.16 13.14L5.44998 13.55L5.73999 13.96C4.86999 14.59 4.04999 15.2 3.29999 15.79L2.98999 15.39ZM0.389984 17.85L0 17.54C0.32 17.15 0.679996 16.76 1.09 16.38L1.42999 16.74L1.76999 17.1C1.38999 17.47 1.04999 17.82 0.769989 18.17L0.389984 17.85Z" fill="#D4E7B2"/>
</svg>
