<svg width="3" height="23" viewBox="0 0 3 23" fill="none" xmlns="http://www.w3.org/2000/svg">
<path d="M2.14001 20.9L2.64001 20.97C2.55001 21.66 2.39 22.27 2.13 22.75L1.69 22.51L1.25 22.27C1.43 21.93 1.56999 21.45 1.64999 20.83L2.14001 20.9ZM2.01001 15.24L2.51001 15.19C2.63001 16.42 2.71001 17.57 2.73001 18.6L2.23001 18.61L1.73001 18.62C1.71001 17.63 1.63001 16.51 1.51001 15.29L2.01001 15.24ZM1.37 9.62L1.87 9.56C2.01 10.71 2.15002 11.84 2.27002 12.92L1.77002 12.98L1.27002 13.04C1.15002 11.96 1.01 10.84 0.869995 9.69L1.37 9.62ZM0.75 3.98999L1.25 3.95001C1.35 5.06001 1.47 6.18999 1.59 7.29999L1.09 7.35999L0.589996 7.42001C0.459996 6.30001 0.340021 5.16999 0.240021 4.04999L0.75 3.98999ZM0.5 0.019989L1 0C1.02 0.55 1.05002 1.11001 1.08002 1.67001L0.580017 1.70001L0.0800171 1.73001C0.0500171 1.16001 0.02 0.589999 0 0.0299988L0.5 0.019989Z" fill="#D4E7B2"/>
</svg>
