<svg width="7" height="26" viewBox="0 0 7 26" fill="none" xmlns="http://www.w3.org/2000/svg">
<path d="M5.47998 23.63L5.87 23.32C6.19 23.73 6.53 24.03 6.87 24.22L6.62 24.66L6.37 25.1C5.89 24.83 5.45999 24.43 5.07999 23.95L5.47998 23.63ZM3.35999 18.95L3.84 18.81C4.15 19.87 4.49 20.83 4.87 21.64L4.41998 21.85L3.96997 22.06C3.55997 21.19 3.19997 20.18 2.87997 19.09L3.35999 18.95ZM2.21997 13.91L2.70999 13.82C2.88999 14.85 3.09998 15.86 3.31998 16.82L2.82999 16.93L2.34 17.04C2.11 16.06 1.89997 15.03 1.71997 13.99L2.21997 13.91ZM1.44998 8.80002L1.94998 8.74002C2.07998 9.75002 2.22 10.77 2.37 11.79L1.87997 11.87L1.38998 11.95C1.22998 10.93 1.08999 9.89 0.959991 8.88L1.44998 8.80002ZM0.869995 3.66L1.37 3.61002C1.47 4.59002 1.57998 5.62002 1.69998 6.68002L1.19998 6.74002L0.699982 6.80002C0.579982 5.73002 0.469995 4.7 0.369995 3.72L0.869995 3.66ZM0.48999 0.0599976L0.98999 0C1.03999 0.48 1.09997 0.990009 1.15997 1.54001L0.659973 1.59L0.159973 1.64001C0.0999731 1.10001 0.05 0.590016 0 0.110016L0.48999 0.0599976Z" fill="#D4E7B2"/>
</svg>
