<svg width="17" height="62" viewBox="0 0 17 62" fill="none" xmlns="http://www.w3.org/2000/svg">
<path d="M15.5 60.03L15.94 59.8C16.19 60.27 16.42 60.66 16.65 60.98L16.24 61.27L15.83 61.56C15.57 61.19 15.31 60.76 15.06 60.27L15.5 60.03ZM13.6 55.53L14.07 55.36C14.43 56.35 14.78 57.25 15.12 58.05L14.66 58.25L14.2 58.45C13.85 57.63 13.49 56.71 13.12 55.7L13.6 55.53ZM12.07 50.91L12.55 50.76C12.85 51.73 13.14 52.65 13.43 53.53L12.96 53.69L12.49 53.85C12.19 52.97 11.9 52.03 11.6 51.06L12.07 50.91ZM10.71 46.23L11.19 46.1C11.46 47.07 11.72 48.01 11.99 48.91L11.51 49.05L11.03 49.19C10.76 48.28 10.49 47.33 10.23 46.36L10.71 46.23ZM9.45999 41.51L9.94 41.39C10.19 42.35 10.44 43.3 10.68 44.22L10.2 44.35L9.72 44.48C9.47 43.55 9.22 42.6 8.97 41.64L9.45999 41.51ZM8.28 36.78L8.76999 36.66C8.99999 37.62 9.24 38.57 9.47 39.5L8.98999 39.62L8.51001 39.74C8.27001 38.8 8.04 37.85 7.81 36.89L8.28 36.78ZM7.14999 32.04L7.63998 31.93C7.85998 32.88 8.08 33.83 8.31 34.78L7.82001 34.9L7.32999 35.02C7.09999 34.07 6.88 33.12 6.66 32.16L7.14999 32.04ZM6.07001 27.29L6.56 27.18C6.77 28.13 6.98999 29.08 7.20999 30.04L6.72 30.15L6.23001 30.26C6.01001 29.31 5.79999 28.35 5.57999 27.4L6.07001 27.29ZM5.01999 22.53L5.51001 22.42C5.71001 23.37 5.92 24.32 6.13 25.28L5.63998 25.39L5.14999 25.5C4.93999 24.54 4.73 23.58 4.53 22.64L5.01999 22.53ZM4.01001 17.76L4.5 17.66C4.7 18.6 4.89999 19.56 5.10999 20.52L4.62 20.62L4.13 20.72C3.92 19.75 3.71999 18.79 3.51999 17.85L4.01001 17.76ZM3.01999 12.99L3.51001 12.89C3.70001 13.82 3.90001 14.77 4.10001 15.75L3.60999 15.85L3.12 15.95C2.92 14.97 2.72 14.02 2.53 13.09L3.01999 12.99ZM2.06 8.19998L2.54999 8.09998C2.72999 9.01998 2.92 9.97998 3.13 10.98L2.63998 11.08L2.14999 11.18C1.94999 10.18 1.76001 9.21999 1.57001 8.29999L2.06 8.19998ZM1.13 3.41998L1.62 3.32999C1.79 4.19999 1.97999 5.16998 2.17999 6.19998L1.69 6.29999L1.20001 6.39999C1.00001 5.35999 0.809984 4.39999 0.639984 3.51999L1.13 3.41998ZM0.48999 0.0899963L0.980011 0C1.06001 0.42 1.15 0.889983 1.25 1.41998L0.76001 1.50998L0.269989 1.59998C0.169989 1.06998 0.08 0.599993 0 0.179993L0.48999 0.0899963Z" fill="#EAF3D9"/>
</svg>
