<svg width="6" height="12" viewBox="0 0 6 12" fill="none" xmlns="http://www.w3.org/2000/svg">
<path d="M4.54001 2L4.06 2.12C3.92 1.58 3.68999 1.06 3.35999 0.559998L3.76999 0.279999L4.17999 0C4.57999 0.6 4.85999 1.22 5.01999 1.87L4.54001 2ZM3.19 8.03L2.76999 7.77002C3.45999 6.67002 3.93 5.54999 4.12 4.45999L4.60999 4.55002L5.10001 4.64001C4.88001 5.88001 4.34999 7.12002 3.60999 8.30002L3.19 8.03ZM0.339996 11.43L0 11.06C0.45 10.63 0.879999 10.19 1.28 9.74002L1.66 10.07L2.04001 10.4C1.62001 10.88 1.17 11.35 0.690002 11.79L0.339996 11.43Z" fill="#D4E7B2"/>
</svg>
