<svg width="5" height="12" viewBox="0 0 5 12" fill="none" xmlns="http://www.w3.org/2000/svg">
<path d="M3.06003 1.62003L2.70001 1.27002C3.13001 0.82002 3.61 0.4 4.16 0L4.45001 0.410004L4.74002 0.820007C4.24002 1.18001 3.8 1.57 3.41 1.97L3.06003 1.62003ZM0.51001 7.12003L0.0100098 7.06003C0.15001 5.83003 0.510004 4.57003 1.16 3.37003L1.60001 3.61002L2.04001 3.85001C1.46001 4.93001 1.13 6.06002 1 7.18002L0.51001 7.12003ZM0.820007 11.4L0.340027 11.53C0.190027 10.94 0.07 10.31 0 9.64001L0.5 9.59003L1 9.54001C1.06 10.16 1.17003 10.74 1.31003 11.28L0.820007 11.4Z" fill="#D4E7B2"/>
</svg>
