<svg width="74" height="52" viewBox="0 0 74 52" fill="none" xmlns="http://www.w3.org/2000/svg">
<path d="M72.85 38.36L72.63 37.91C72.92 37.76 73.21 37.61 73.5 37.47L73.73 37.91L73.96 38.35C73.67 38.5 73.38 38.65 73.08 38.8L72.85 38.36ZM12.28 50.89L12.26 50.39C12.6 50.37 12.93 50.36 13.27 50.34L13.3 50.84L13.33 51.34C12.99 51.36 12.66 51.37 12.32 51.39L12.28 50.89ZM11.85 50L12.31 49.79C12.45 50.11 12.59 50.4 12.73 50.65L12.29 50.89L11.85 51.13C11.7 50.85 11.55 50.54 11.4 50.21L11.85 50ZM0.48999 0.0799866C0.97999 -1.34259e-05 0.980011 0 0.980011 0V0.0100098C0.980011 0.0200098 0.97999 0.0399976 0.98999 0.0599976C0.99999 0.0999976 1.00999 0.15999 1.01999 0.23999C1.04999 0.39999 1.09001 0.639982 1.14001 0.949982L0.649994 1.04001L0.160004 1.13C0.110004 0.820005 0.0600085 0.579983 0.0400085 0.419983C0.0300085 0.339983 0.0200098 0.27999 0.0100098 0.23999C0.0100098 0.21999 0 0.200002 0 0.190002C0 0.180002 0 0.179993 0 0.179993C0 0.179993 -9.77516e-06 0.159987 0.48999 0.0799866ZM12.28 50.89L12.3 51.39C12.11 51.4 11.93 51.3 11.84 51.13L12.28 50.89Z" fill="#EAF3D9"/>
</svg>
