<svg width="5" height="32" viewBox="0 0 5 32" fill="none" xmlns="http://www.w3.org/2000/svg">
<path d="M2.63 29.67L3.09 29.87C2.84 30.45 2.51999 30.95 2.10999 31.33L1.76999 30.97L1.42999 30.61C1.70999 30.34 1.95999 29.97 2.17999 29.47L2.63 29.67ZM3.54999 24.53L4.04999 24.55C3.99999 25.72 3.89999 26.8 3.70999 27.76L3.22 27.67L2.73001 27.58C2.90001 26.68 2.99999 25.65 3.04999 24.52L3.54999 24.53ZM3.44 19.28L3.94 19.25C4.02 20.34 4.05999 21.4 4.07999 22.42L3.57999 22.43L3.07999 22.44C3.06999 21.44 3.02 20.4 2.94 19.32L3.44 19.28ZM2.91 14.06L3.41 14C3.54 15.05 3.66001 16.1 3.76001 17.15L3.26001 17.2L2.76001 17.25C2.66001 16.22 2.54 15.18 2.41 14.14L2.91 14.06ZM2.14999 8.85999L2.63998 8.78C2.80998 9.79 2.97 10.84 3.12 11.9L2.63 11.97L2.13998 12.04C1.98998 10.99 1.83 9.94 1.66 8.94L2.14999 8.85999ZM1.22 3.69998L1.70999 3.59998C1.89999 4.55998 2.09001 5.59999 2.29001 6.70999L1.79999 6.79999L1.31 6.88998C1.12 5.78998 0.920011 4.74999 0.730011 3.79999L1.22 3.69998ZM0.48999 0.0999756L0.980011 0C1.08001 0.46 1.18999 0.969978 1.29999 1.53998L0.809998 1.63998L0.320007 1.73999C0.200007 1.16999 0.1 0.659991 0 0.209991L0.48999 0.0999756Z" fill="#FDC126"/>
</svg>
