<svg width="7" height="26" viewBox="0 0 7 26" fill="none" xmlns="http://www.w3.org/2000/svg">
<path d="M5.48001 23.63L5.87 23.32C6.19 23.73 6.53 24.03 6.87 24.22L6.62 24.66L6.37 25.1C5.89 24.83 5.45999 24.43 5.07999 23.95L5.48001 23.63ZM3.36002 18.95L3.84 18.81C4.15 19.87 4.49 20.83 4.87 21.64L4.42001 21.85L3.97 22.06C3.56 21.19 3.2 20.18 2.88 19.09L3.36002 18.95ZM2.22 13.91L2.70999 13.82C2.88999 14.85 3.10001 15.86 3.32001 16.82L2.82999 16.93L2.34 17.04C2.11 16.06 1.9 15.03 1.72 13.99L2.22 13.91ZM1.45001 8.79999L1.95001 8.73999C2.08001 9.74999 2.22 10.77 2.37 11.79L1.88 11.87L1.39001 11.95C1.23001 10.93 1.08999 9.89 0.959991 8.88L1.45001 8.79999ZM0.869995 3.66L1.37 3.60999C1.47 4.58999 1.58001 5.61999 1.70001 6.67999L1.20001 6.73999L0.700012 6.79999C0.580012 5.72999 0.469995 4.7 0.369995 3.72L0.869995 3.66ZM0.48999 0.0599976L0.98999 0C1.03999 0.48 1.1 0.989978 1.16 1.53998L0.660004 1.59L0.160004 1.63998C0.100004 1.09998 0.05 0.589985 0 0.109985L0.48999 0.0599976Z" fill="#FDC126"/>
</svg>
