<svg width="181" height="161" viewBox="0 0 181 161" fill="none" xmlns="http://www.w3.org/2000/svg">
<path d="M31.93 120.79C32.3 121.33 32.5 121.62 32.5 121.62L31.61 122.08M3.62 75.5C3.7 75.83 3.79998 76.16 3.91998 76.48C4.01998 76.75 4.13998 77.05 4.28998 77.39M13.62 55.19C13.33 55.31 13.04 55.46 12.76 55.62C12.47 55.79 12.18 55.98 11.88 56.2M25.78 62.31C25.69 61.93 25.62 61.62 25.57 61.37C25.51 61.06 25.43 60.76 25.33 60.47M45.9 100.78C45.65 101.02 45.36 101.17 45.02 101.24C44.68 101.3 44.34 101.29 44 101.2M31.61 45.15C31.77 45.42 31.95 45.69 32.14 45.96C32.31 46.2 32.49 46.48 32.68 46.8M39.2 26.91C38.91 27.08 38.61 27.28 38.31 27.49C38.05 27.68 37.79 27.87 37.53 28.06M52.31 35.31C52.18 34.97 52.05 34.67 51.94 34.4C51.8 34.08 51.65 33.76 51.5 33.44M67.85 72.63C67.68 72.92 67.49 73.17 67.27 73.37C66.98 73.37 66.67 73.23 66.35 72.96M56.58 27.8C56.74 28.07 56.93 28.34 57.16 28.6C57.35 28.81 57.54 29.07 57.75 29.38M71.47 13.46C71.14 13.48 70.81 13.55 70.47 13.67C70.16 13.78 69.85 13.89 69.53 14.02M84.19 38.38C84.15 38.03 84.11 37.71 84.07 37.41C84.03 37.11 83.98 36.8 83.92 36.46M93.56 63.15C93.33 63.4 93.07 63.59 92.77 63.72C92.42 63.87 92.08 63.95 91.76 63.97M85.82 20.11C85.93 20.44 86.05 20.75 86.17 21.03C86.25 21.22 86.37 21.53 86.52 21.93M92.27 6.87C91.95 7 91.63 7.13998 91.31 7.28998C91 7.43998 90.7 7.59 90.41 7.75M105.38 14.22C105.31 13.87 105.23 13.54 105.14 13.26C105.04 12.93 104.94 12.61 104.82 12.29M114.63 43.55C114.34 43.71 114.01 43.79 113.65 43.81C113.28 43.83 112.93 43.78 112.6 43.69M113.1 9.17999C113.27 9.73999 113.39 10.09 113.39 10.09C113.39 10.09 113.47 10.43 113.61 11.04M114.4 0.869995C114.11 0.979995 113.82 1.08999 113.51 1.20999C113.21 1.35999 112.97 1.57 112.79 1.84M125.81 9.12C125.78 8.79 125.74 8.46 125.7 8.13C125.66 7.82 125.62 7.52998 125.58 7.22998M131.3 26.28C131.04 26.51 130.73 26.63 130.34 26.63C129.96 26.63 129.61 26.56 129.3 26.41M130.59 0C130.54 0.29 130.51 0.599993 130.5 0.929993C130.49 1.25999 130.49 1.58998 130.49 1.91998M159.8 6.56998C159.8 6.24998 159.79 5.92999 159.75 5.60999C159.71 5.29999 159.64 4.99 159.55 4.69M141.28 27.92C141.05 27.75 140.97 27.45 141.07 26.98C141.13 26.68 141.25 26.38 141.4 26.08M170.68 19.12C170.46 18.87 170.22 18.62 169.94 18.38C169.68 18.16 169.36 18 168.98 17.91M164.98 32.91C165.32 32.71 165.61 32.52 165.84 32.35C166.11 32.15 166.38 31.94 166.64 31.72M131.06 52.6C130.72 52.46 130.44 52.27 130.24 52.03C130 51.75 129.94 51.44 130.04 51.09M168.23 40.09C167.93 40.23 167.62 40.4 167.3 40.59C167.03 40.75 166.75 40.91 166.45 41.08M177.39 53.7C177.48 53.37 177.56 53.05 177.63 52.72C177.7 52.4 177.76 52.07 177.81 51.73M158.45 66.69C158.82 66.66 159.17 66.64 159.5 66.62C159.87 66.6 160.23 66.57 160.59 66.54M109.93 79.29C109.51 79.08 109.31 78.83 109.37 78.54C109.42 78.3 109.63 78.04 109.96 77.78M165.19 74.33C164.88 74.41 164.57 74.49 164.25 74.58C163.93 74.67 163.6 74.76 163.25 74.85M179.71 87.83C179.8 87.52 179.88 87.21 179.95 86.89C180.01 86.6 180.07 86.3 180.11 86M156.87 98.94C157.23 98.95 157.57 98.95 157.9 98.95C158.26 98.95 158.61 98.95 158.95 98.94M94.15 100.87C93.94 100.57 93.86 100.27 93.93 99.95C93.99 99.67 94.17 99.41 94.46 99.18M156.02 107.24C155.7 107.23 155.36 107.23 155.02 107.23C154.68 107.23 154.33 107.24 153.98 107.24M154.9 129.75C155.16 129.56 155.42 129.36 155.68 129.16C155.92 128.97 156.17 128.77 156.42 128.55M126.58 135.62C126.94 135.74 127.26 135.85 127.55 135.94C127.88 136.04 128.2 136.14 128.53 136.23M66.32 117.68C66.25 117.34 66.31 117.04 66.5 116.77C66.66 116.55 66.94 116.39 67.34 116.3M115.24 141.31C114.91 141.2 114.57 141.08 114.21 140.97C113.88 140.87 113.56 140.76 113.22 140.65M111.27 160.69C111.57 160.58 111.87 160.46 112.18 160.33C112.5 160.2 112.82 160.06 113.15 159.92M88.92 158.1C89.29 158.26 89.62 158.38 89.9 158.48C90.22 158.59 90.54 158.7 90.85 158.81M34.94 127.78L35.77 127.28C35.77 127.28 36.08 127.47 36.65 127.83M4.84 144.81L5.38998 145.52L6.22 145.02M0.889984 138.15L0 138.61L0.549988 139.32" fill="#3FB0E5"/>
</svg>
