<svg width="13" height="23" viewBox="0 0 13 23" fill="none" xmlns="http://www.w3.org/2000/svg">
<path d="M11.27 20.72L11.76 20.61C11.88 21.14 11.99 21.64 12.08 22.12L11.59 22.22L11.1 22.32C11.01 21.85 10.9 21.35 10.78 20.83L11.27 20.72ZM9.95001 15.78L10.43 15.63C10.74 16.65 11.02 17.65 11.27 18.61L10.79 18.74L10.31 18.87C10.06 17.92 9.79001 16.94 9.48001 15.93L9.95001 15.78ZM8.26999 10.95L8.73001 10.77C9.11001 11.73 9.46001 12.7 9.79001 13.68L9.32001 13.84L8.85001 14C8.53001 13.04 8.17999 12.08 7.79999 11.14L8.26999 10.95ZM6.12 6.32001L6.56 6.08002C7.04 6.96002 7.5 7.9 7.94 8.87L7.48001 9.07001L7.01999 9.27002C6.59999 8.32002 6.14999 7.4 5.67999 6.56L6.12 6.32001ZM3.13998 2.19L3.48999 1.83002C4.18999 2.51002 4.85999 3.35001 5.48999 4.29001L5.07001 4.57001L4.64999 4.85001C4.04999 3.95001 3.43001 3.17002 2.79001 2.55002L3.13998 2.19ZM0.0599976 0.5L0.119995 0C0.679995 0.07 1.21999 0.25002 1.73999 0.52002L1.51001 0.960022L1.28 1.40002C0.849999 1.18002 0.42 1.04001 0 0.980011L0.0599976 0.5Z" fill="#D4E7B2"/>
</svg>
