<svg width="76" height="44" viewBox="0 0 76 44" fill="none" xmlns="http://www.w3.org/2000/svg">
<path d="M7.11859 17.1191C7.11859 17.1191 28.663 18.6548 37.5136 34.4346C45.4035 18.4656 67.7194 17.5048 67.7194 17.5048L64.6406 26.7413C64.6406 26.7413 43.0962 28.6628 37.5136 35.0169C32.3168 28.6701 17.1193 26.3628 10.3866 26.7413C9.04739 22.3159 7.11859 17.1191 7.11859 17.1191Z" fill="#1DA8A1"/>
<path d="M5.19651 21.5443H2.88922L6.73955 30.395C6.73955 30.395 22.8978 28.2769 37.5203 39.4349C38.2919 39.4349 52.1428 30.5842 67.7261 30.1985C70.6084 23.8516 71.9549 21.1586 71.9549 21.1586H70.0334C70.0334 21.1586 67.5296 26.5447 66.7654 28.4662C51.1748 29.6235 37.7096 37.5134 37.5131 37.5134C36.7415 37.5134 27.8909 28.2769 8.07879 28.4735C6.15727 24.0481 5.19651 21.5443 5.19651 21.5443Z" fill="#F5B21A"/>
<path d="M1.92165 24.2374H0.00012207L4.22893 33.6631C4.22893 33.6631 21.5445 32.7023 37.5135 43.6638C38.285 43.671 53.2933 34.4346 70.6016 33.6704C73.4839 27.127 75.0269 23.8589 75.0269 23.8589H72.9089C72.9089 23.8589 70.2158 30.2058 69.2551 31.9381C53.6718 32.1273 37.8993 41.7495 37.5135 41.7495C33.0882 38.8672 23.0875 31.9381 5.18969 31.9381C3.07893 27.5128 1.92165 24.2374 1.92165 24.2374Z" fill="#1563A2"/>
<path d="M28.6698 11.1579L27.5126 10.5829C27.3233 9.04716 25.9768 7.88988 24.2445 7.88988C22.5122 7.88988 20.9765 9.42564 20.9765 11.1579C20.9765 12.8902 22.5122 14.426 24.2445 14.426C24.4338 14.426 24.6303 14.426 24.6303 14.426C25.016 14.8117 25.4018 15.3867 25.4018 15.5833C24.441 15.5833 21.748 15.5833 17.5119 15.969C27.3233 19.2371 35.0167 26.3554 36.174 28.4735C36.174 16.544 30.2129 6.73259 26.3626 2.50378C28.4733 5.77183 28.6698 11.1579 28.6698 11.1579Z" fill="#F5B21A"/>
<path d="M39.8204 6.15761L39.6311 5.38609C40.4026 4.81109 40.7884 4.03957 40.7884 3.07881C40.7884 1.34652 39.4419 0 37.7096 0C35.9773 0 34.6308 1.34652 34.6308 3.07881C34.6308 3.85033 35.0166 4.61457 35.5916 5.19685L35.2058 6.54337C35.2058 6.54337 32.8985 3.27533 27.7017 0.19652C27.7017 0.19652 35.5916 9.23642 37.5131 19.0478C39.6311 8.66142 44.8207 3.27533 47.8995 0.19652C44.6315 0.960762 39.8204 6.15761 39.8204 6.15761Z" fill="#1DA8A1"/>
<path d="M54.2542 11.1579C54.2542 9.42564 52.7184 7.88988 50.7896 7.88988C49.2538 7.88988 47.9073 9.04716 47.5215 10.5829L46.5608 11.1579C46.5608 11.1579 46.75 5.77183 48.8681 2.50378C45.0177 6.73987 39.0566 16.5513 39.0566 28.4735C40.2139 26.3554 47.9073 19.2371 57.7187 15.969C53.4899 15.5833 50.7896 15.5833 49.8288 15.5833C49.8288 15.394 50.0181 15.0082 50.4038 14.426C50.5931 14.426 50.7896 14.6152 50.7896 14.6152C52.7184 14.6225 54.2542 13.0794 54.2542 11.1579Z" fill="#1563A2"/>
</svg>
