<svg width="65" height="53" viewBox="0 0 65 53" fill="none" xmlns="http://www.w3.org/2000/svg">
<g clip-path="url(#clip0_2079_21016)">
<path d="M60.6447 2.43097C60.6447 2.43097 60.834 22.0829 60.834 24.8924C60.6447 29.194 57.6533 46.6042 53.9121 52.2159L56.8963 52.4052C56.8963 52.4052 60.6374 38.7434 61.1979 29.7617C60.6374 34.0633 57.0783 51.6628 57.0783 51.6628H61.9476C61.9476 51.6628 63.0685 11.4199 62.8865 1.87781C61.2052 3.18066 60.6447 2.43097 60.6447 2.43097Z" fill="#F5B21A"/>
<path d="M59.1455 19.8412C59.1455 19.8412 59.8952 17.5922 61.5765 18.7203C63.0759 17.7814 64.386 19.47 63.2579 20.4017C65.3177 20.0305 65.3177 23.2112 63.0686 23.0219C62.1297 23.9609 58.3886 24.7033 58.949 22.2722C58.2066 21.3333 57.6461 20.2124 59.1455 19.8412Z" fill="#F5B21A"/>
<path d="M0 28.8229C0 28.8229 16.4713 17.9706 22.083 0C25.2637 0.560445 38.365 3.36995 63.0682 0.371204C61.0084 7.4823 58.5774 20.2124 40.2356 30.5042C28.0732 33.4957 26.7631 34.8058 26.7631 34.8058L0 28.8229Z" fill="#4F86C6"/>
<path d="M2.25 29.1941C2.25 29.1941 19.0925 19.652 23.9618 3.74117C26.7713 4.30161 39.8726 5.99023 62.1448 3.18073C60.085 9.54214 55.7834 22.8327 38.002 30.6935C27.1498 33.3137 26.0216 34.4346 26.0216 34.4346L2.25 29.1941Z" fill="#1563A2"/>
<path d="M17.4033 26.0134C17.4033 26.0134 21.8942 18.713 33.6853 14.9719C45.4765 11.2307 49.2177 18.3418 49.2177 18.3418L51.6487 43.7947C51.6487 43.7947 30.8758 48.0963 18.7062 43.7947C17.4033 33.8741 17.4033 26.0134 17.4033 26.0134Z" fill="#1563A2"/>
<path d="M46.6054 44.9156C46.0449 37.6152 45.4845 23.393 47.5443 16.0927C45.2952 14.4114 41.1829 12.912 34.0718 14.9718C32.2012 15.7215 30.5126 16.2819 29.0205 17.0316C29.7702 24.1427 31.0803 38.9326 29.9594 45.6653C35.9351 46.0437 42.3038 45.4833 46.6054 44.9156Z" fill="#4F86C6"/>
<path d="M35.7521 27.884C27.7021 29.1941 20.9694 33.3137 17.9707 35.3735C18.1599 37.0549 18.3419 39.1147 18.5311 41.3638C31.072 40.2429 46.6043 40.4248 51.4736 40.6141L50.1635 28.2625C47.9145 27.5128 43.2344 26.5738 35.7521 27.884Z" fill="#F5B21A"/>
</g>
<defs>
<clipPath id="clip0_2079_21016">
<rect width="64.7803" height="52.4052" fill="white"/>
</clipPath>
</defs>
</svg>
