<svg width="23" height="18" viewBox="0 0 23 18" fill="none" xmlns="http://www.w3.org/2000/svg">
<g clip-path="url(#clip0_2079_20880)">
<path d="M0 5.24718C0 5.24718 0.259009 4.09247 0.794294 4.09247C1.32958 4.09247 1.48499 5.24718 1.48499 5.24718V15.1132C1.48499 15.1132 1.43318 15.6906 1.74399 15.6906C2.07207 15.6906 2.22748 15.0113 2.22748 15.0113V5.19624C2.22748 5.19624 2.17568 4.19435 1.7958 4.19435H3.50526V15.8434C3.50526 15.8434 3.45345 18 1.8994 18C0.345345 18 0.0863363 15.8944 0.0863363 15.8944L0 5.24718Z" fill="white"/>
<path d="M23 15.6226V0H4.48953V15.0113C4.48953 17.8472 3.26355 18 3.26355 18H21.3942C23.1554 17.983 23 15.6226 23 15.6226ZM6.6134 2.10566H12.9332V7.99811H6.6134V2.10566ZM20.669 16.2679H6.87241C6.68247 16.2679 6.54433 16.1151 6.54433 15.9453C6.54433 15.7755 6.69974 15.6226 6.87241 15.6226H20.669C20.8589 15.6226 20.997 15.7755 20.997 15.9453C20.997 16.1151 20.8589 16.2679 20.669 16.2679ZM20.669 13.6358H6.87241C6.68247 13.6358 6.54433 13.483 6.54433 13.3132C6.54433 13.1434 6.69974 12.9906 6.87241 12.9906H20.669C20.8589 12.9906 20.997 13.1434 20.997 13.3132C20.997 13.483 20.8589 13.6358 20.669 13.6358ZM20.669 10.817H6.87241C6.68247 10.817 6.54433 10.6642 6.54433 10.4943C6.54433 10.3075 6.69974 10.1717 6.87241 10.1717H20.669C20.8589 10.1717 20.997 10.3245 20.997 10.4943C20.997 10.6642 20.8589 10.817 20.669 10.817ZM20.669 7.99811H14.8672C14.6772 7.99811 14.5391 7.84528 14.5391 7.67547C14.5391 7.50566 14.6772 7.33585 14.8672 7.33585H20.669C20.8589 7.33585 20.997 7.48868 20.997 7.65849C20.997 7.8283 20.8589 7.99811 20.669 7.99811ZM20.669 5.38302H14.8672C14.6772 5.38302 14.5391 5.23019 14.5391 5.06038C14.5391 4.89057 14.6772 4.72075 14.8672 4.72075H20.669C20.8589 4.72075 20.997 4.87358 20.997 5.0434C20.997 5.21321 20.8589 5.38302 20.669 5.38302ZM20.669 2.68302H14.8672C14.6772 2.68302 14.5391 2.53019 14.5391 2.36038C14.5391 2.19057 14.6772 2.03774 14.8672 2.03774H20.669C20.8589 2.03774 20.997 2.19057 20.997 2.36038C20.997 2.53019 20.8589 2.68302 20.669 2.68302Z" fill="white"/>
<path d="M12.0699 2.95471H7.47681V7.14905H12.0699V2.95471Z" fill="white"/>
</g>
<defs>
<clipPath id="clip0_2079_20880">
<rect width="23" height="18" fill="white"/>
</clipPath>
</defs>
</svg>
