<svg width="15" height="15" viewBox="0 0 15 15" fill="none" xmlns="http://www.w3.org/2000/svg">
<path d="M10.6434 2.83822C10.4518 2.83822 10.2744 2.76017 10.1396 2.63245C10.0119 2.49763 9.93386 2.32024 9.93386 2.12866V0.709555C9.93386 0.517975 10.0119 0.340586 10.1396 0.205771C10.2744 0.078051 10.4518 0 10.6434 0C10.835 0 11.0124 0.078051 11.1472 0.205771C11.2749 0.340586 11.353 0.517975 11.353 0.709555V2.12866C11.353 2.32024 11.2749 2.49763 11.1472 2.63245C11.0124 2.76017 10.835 2.83822 10.6434 2.83822ZM3.54787 2.83822C3.35629 2.83822 3.1789 2.76017 3.04408 2.63245C2.91637 2.49763 2.83831 2.32024 2.83831 2.12866V0.709555C2.83831 0.517975 2.91637 0.340586 3.04408 0.205771C3.1789 0.078051 3.35629 0 3.54787 0C3.73945 0 3.91684 0.078051 4.05165 0.205771C4.17937 0.340586 4.25742 0.517975 4.25742 0.709555V2.12866C4.25742 2.32024 4.17937 2.49763 4.05165 2.63245C3.91684 2.76017 3.73945 2.83822 3.54787 2.83822Z" fill="#777777"/>
<path d="M12.0624 1.41913H11.3529V2.12868C11.3529 2.32026 11.2748 2.49765 11.1471 2.63247C11.0123 2.76019 10.8349 2.83824 10.6433 2.83824C10.4517 2.83824 10.2744 2.76019 10.1395 2.63247C10.0118 2.49765 9.93377 2.32026 9.93377 2.12868V1.41913H4.25733V2.12868C4.25733 2.32026 4.17928 2.49765 4.05156 2.63247C3.91674 2.76019 3.73935 2.83824 3.54777 2.83824C3.35619 2.83824 3.17881 2.76019 3.04399 2.63247C2.91627 2.49765 2.83822 2.32026 2.83822 2.12868V1.41913H2.12866C1.56102 1.41913 1.02176 1.64619 0.624408 2.04354C0.227058 2.44089 0 2.98015 0 3.54779V4.9669H14.1911V3.54779C14.1911 2.98015 13.964 2.44089 13.5667 2.04354C13.1693 1.64619 12.6301 1.41913 12.0624 1.41913Z" fill="#5B5B5B"/>
<path d="M3.54787 8.51464C3.93975 8.51464 4.25742 8.19697 4.25742 7.80509C4.25742 7.41321 3.93975 7.09554 3.54787 7.09554C3.15599 7.09554 2.83831 7.41321 2.83831 7.80509C2.83831 8.19697 3.15599 8.51464 3.54787 8.51464Z" fill="#E6E6E5"/>
<path d="M3.54787 11.3529C3.93975 11.3529 4.25742 11.0352 4.25742 10.6433C4.25742 10.2515 3.93975 9.93378 3.54787 9.93378C3.15599 9.93378 2.83831 10.2515 2.83831 10.6433C2.83831 11.0352 3.15599 11.3529 3.54787 11.3529Z" fill="#E6E6E5"/>
<path d="M7.0955 8.51464C7.48738 8.51464 7.80506 8.19697 7.80506 7.80509C7.80506 7.41321 7.48738 7.09554 7.0955 7.09554C6.70363 7.09554 6.38595 7.41321 6.38595 7.80509C6.38595 8.19697 6.70363 8.51464 7.0955 8.51464Z" fill="#E6E6E5"/>
<path d="M7.0955 11.3529C7.48738 11.3529 7.80506 11.0352 7.80506 10.6433C7.80506 10.2515 7.48738 9.93378 7.0955 9.93378C6.70363 9.93378 6.38595 10.2515 6.38595 10.6433C6.38595 11.0352 6.70363 11.3529 7.0955 11.3529Z" fill="#E6E6E5"/>
<path d="M10.6437 8.51464C11.0355 8.51464 11.3532 8.19697 11.3532 7.80509C11.3532 7.41321 11.0355 7.09554 10.6437 7.09554C10.2518 7.09554 9.9341 7.41321 9.9341 7.80509C9.9341 8.19697 10.2518 8.51464 10.6437 8.51464Z" fill="#E6E6E5"/>
<path d="M10.6437 11.3529C11.0355 11.3529 11.3532 11.0352 11.3532 10.6433C11.3532 10.2515 11.0355 9.93378 10.6437 9.93378C10.2518 9.93378 9.9341 10.2515 9.9341 10.6433C9.9341 11.0352 10.2518 11.3529 10.6437 11.3529Z" fill="#E6E6E5"/>
<path d="M10.6433 8.51466C10.4517 8.51466 10.2744 8.43661 10.1395 8.30889C10.0118 8.17408 9.93377 7.99669 9.93377 7.80511C9.93377 7.61353 10.0118 7.43614 10.1395 7.30132C10.2744 7.1736 10.4517 7.09555 10.6433 7.09555C10.8349 7.09555 11.0123 7.1736 11.1471 7.30132C11.2748 7.43614 11.3529 7.61353 11.3529 7.80511C11.3529 7.99669 11.2748 8.17408 11.1471 8.30889C11.0123 8.43661 10.8349 8.51466 10.6433 8.51466ZM10.6433 11.3529C10.4517 11.3529 10.2744 11.2748 10.1395 11.1471C10.0118 11.0123 9.93377 10.8349 9.93377 10.6433C9.93377 10.4517 10.0118 10.2744 10.1395 10.1395C10.2744 10.0118 10.4517 9.93377 10.6433 9.93377C10.8349 9.93377 11.0123 10.0118 11.1471 10.1395C11.2748 10.2744 11.3529 10.4517 11.3529 10.6433C11.3529 10.8349 11.2748 11.0123 11.1471 11.1471C11.0123 11.2748 10.8349 11.3529 10.6433 11.3529ZM7.09555 8.51466C6.90397 8.51466 6.72658 8.43661 6.59176 8.30889C6.46404 8.17408 6.38599 7.99669 6.38599 7.80511C6.38599 7.61353 6.46404 7.43614 6.59176 7.30132C6.72658 7.1736 6.90397 7.09555 7.09555 7.09555C7.28713 7.09555 7.46452 7.1736 7.59933 7.30132C7.72705 7.43614 7.8051 7.61353 7.8051 7.80511C7.8051 7.99669 7.72705 8.17408 7.59933 8.30889C7.46452 8.43661 7.28713 8.51466 7.09555 8.51466ZM7.09555 11.3529C6.90397 11.3529 6.72658 11.2748 6.59176 11.1471C6.46404 11.0123 6.38599 10.8349 6.38599 10.6433C6.38599 10.4517 6.46404 10.2744 6.59176 10.1395C6.72658 10.0118 6.90397 9.93377 7.09555 9.93377C7.28713 9.93377 7.46452 10.0118 7.59933 10.1395C7.72705 10.2744 7.8051 10.4517 7.8051 10.6433C7.8051 10.8349 7.72705 11.0123 7.59933 11.1471C7.46452 11.2748 7.28713 11.3529 7.09555 11.3529ZM3.54777 8.51466C3.35619 8.51466 3.17881 8.43661 3.04399 8.30889C2.91627 8.17408 2.83822 7.99669 2.83822 7.80511C2.83822 7.61353 2.91627 7.43614 3.04399 7.30132C3.17881 7.1736 3.35619 7.09555 3.54777 7.09555C3.73935 7.09555 3.91674 7.1736 4.05156 7.30132C4.17928 7.43614 4.25733 7.61353 4.25733 7.80511C4.25733 7.99669 4.17928 8.17408 4.05156 8.30889C3.91674 8.43661 3.73935 8.51466 3.54777 8.51466ZM3.54777 11.3529C3.35619 11.3529 3.17881 11.2748 3.04399 11.1471C2.91627 11.0123 2.83822 10.8349 2.83822 10.6433C2.83822 10.4517 2.91627 10.2744 3.04399 10.1395C3.17881 10.0118 3.35619 9.93377 3.54777 9.93377C3.73935 9.93377 3.91674 10.0118 4.05156 10.1395C4.17928 10.2744 4.25733 10.4517 4.25733 10.6433C4.25733 10.8349 4.17928 11.0123 4.05156 11.1471C3.91674 11.2748 3.73935 11.3529 3.54777 11.3529ZM0 4.96689V12.0624C0 12.6301 0.227058 13.1693 0.624408 13.5667C1.02176 13.964 1.56102 14.1911 2.12866 14.1911H12.0624C12.6301 14.1911 13.1693 13.964 13.5667 13.5667C13.964 13.1693 14.1911 12.6301 14.1911 12.0624V4.96689H0Z" fill="#777777"/>
</svg>
