<svg width="91" height="76" viewBox="0 0 91 76" fill="none" xmlns="http://www.w3.org/2000/svg">
<path d="M16.4478 71.4187L15.6078 66.7487H14.4678L15.8778 73.4887H17.0278L18.4378 66.7487H17.2978L16.4478 71.4187ZM20.1178 71.8487C20.1178 72.7987 20.6678 73.5687 21.8878 73.5687C23.1078 73.5687 23.6578 72.7987 23.6578 71.8487V68.3887C23.6578 67.4387 23.1078 66.6687 21.8878 66.6687C20.6678 66.6687 20.1178 67.4387 20.1178 68.3887V71.8487ZM21.2678 68.4087C21.2678 67.8987 21.4178 67.6687 21.8878 67.6687C22.3578 67.6687 22.5078 67.9087 22.5078 68.4087V71.8187C22.5078 72.3287 22.3578 72.5587 21.8878 72.5587C21.4178 72.5587 21.2678 72.3087 21.2678 71.8187V68.4087ZM27.0178 73.4787V66.7387H25.8678V73.4787H27.0178ZM34.8778 68.9987V68.4987C34.8778 67.4887 34.3278 66.6487 33.1578 66.6487C31.9378 66.6487 31.3878 67.4187 31.3878 68.3687V71.8287C31.3878 72.7787 31.9378 73.5487 33.1578 73.5487C34.3778 73.5487 34.8778 72.7787 34.8778 71.8287V71.0587H33.7278V71.8687C33.7278 72.3087 33.5878 72.5487 33.1778 72.5487C32.7078 72.5487 32.5578 72.2987 32.5578 71.8087V68.3987C32.5578 67.8887 32.7078 67.6587 33.1778 67.6587C33.4778 67.6587 33.7278 67.8987 33.7278 68.4687V68.9987H34.8778ZM37.0878 71.7787C37.0878 72.9287 37.7578 73.5687 38.8578 73.5687C39.9578 73.5687 40.6278 72.9387 40.6278 71.7787V66.7387H39.4778V71.8187C39.4778 72.3087 39.2878 72.5587 38.8578 72.5587C38.4278 72.5587 38.2378 72.3087 38.2378 71.8187V66.7387H37.0878V71.7787ZM42.7778 71.8487C42.7778 72.7987 43.3278 73.5687 44.5478 73.5687C45.7678 73.5687 46.3178 72.7987 46.3178 71.8487V68.3887C46.3178 67.4387 45.7678 66.6687 44.5478 66.6687C43.3278 66.6687 42.7778 67.4387 42.7778 68.3887V71.8487ZM43.9278 68.4087C43.9278 67.8987 44.0778 67.6687 44.5478 67.6687C45.0178 67.6687 45.1678 67.9087 45.1678 68.4087V71.8187C45.1678 72.3287 45.0178 72.5587 44.5478 72.5587C44.0778 72.5587 43.9278 72.3087 43.9278 71.8187V68.4087ZM51.9378 68.9987V68.4987C51.9378 67.4887 51.3878 66.6487 50.2178 66.6487C49.0478 66.6487 48.4478 67.4187 48.4478 68.3687V71.8287C48.4478 72.7787 48.9978 73.5487 50.2178 73.5487C51.4378 73.5487 51.9378 72.7787 51.9378 71.8287V71.0587H50.7878V71.8687C50.7878 72.3087 50.6478 72.5487 50.2378 72.5487C49.7678 72.5487 49.6178 72.2987 49.6178 71.8087V68.3987C49.6178 67.8887 49.7678 67.6587 50.2378 67.6587C50.5378 67.6587 50.7878 67.8987 50.7878 68.4687V68.9987H51.9378ZM59.4178 68.2887C59.3078 67.3387 58.7578 66.6487 57.8178 66.6487C56.6878 66.6487 56.0278 67.2487 56.0278 68.3287C56.0278 70.2587 58.3778 70.6087 58.3778 71.9387C58.3778 72.3387 58.1078 72.5487 57.7078 72.5487C57.3378 72.5487 57.0678 72.2187 57.0178 71.5387L55.9178 71.6987C55.9578 72.7087 56.5778 73.5587 57.6478 73.5587C58.7178 73.5587 59.4678 72.9487 59.4678 71.8387C59.4678 70.0087 57.1178 69.4587 57.1178 68.3087C57.1178 67.8887 57.3178 67.6387 57.6978 67.6387C57.9578 67.6387 58.2678 67.8087 58.3178 68.3787L59.4178 68.2587V68.2887ZM61.3778 71.8487C61.3778 72.7987 61.9278 73.5687 63.1478 73.5687C64.3678 73.5687 64.9178 72.7987 64.9178 71.8487V68.3887C64.9178 67.4387 64.3678 66.6687 63.1478 66.6687C61.9278 66.6687 61.3778 67.4387 61.3778 68.3887V71.8487ZM62.5378 68.4087C62.5378 67.8987 62.6878 67.6687 63.1578 67.6687C63.6278 67.6687 63.7778 67.9087 63.7778 68.4087V71.8187C63.7778 72.3287 63.6278 72.5587 63.1578 72.5587C62.6878 72.5587 62.5378 72.3087 62.5378 71.8187V68.4087ZM68.1178 73.4787V69.2687H68.1378L69.6078 73.4787H70.6078V66.7387H69.5578V70.5887H69.5378L68.1278 66.7387H67.0578V73.4787H68.1178ZM74.3578 70.9887H75.0978V71.6487C75.0978 72.3187 74.9278 72.5887 74.4678 72.5887C74.0578 72.5887 73.9278 72.3087 73.9278 71.8787V68.4187C73.9278 67.8487 74.1578 67.6887 74.4378 67.6887C74.8978 67.6887 75.0978 67.9487 75.0978 68.9587H76.1978V68.5287C76.1978 67.5187 75.6178 66.6787 74.4678 66.6787C73.3178 66.6787 72.7678 67.4487 72.7678 68.3987V71.8587C72.7678 72.9387 73.3978 73.5787 74.3178 73.5787C74.8578 73.5787 75.1378 73.3987 75.4778 72.9887L75.6878 73.4987H76.2378V70.0887H74.3478V70.9887H74.3578Z" fill="#75C044"/>
<path d="M17.2877 66.7488L16.3977 66.5888L15.5577 71.2588L16.4477 71.4188L17.3377 71.5788L18.1777 66.9088L17.2877 66.7488ZM18.4277 66.7488V65.8488H17.2877V66.7488V67.6488H18.4277V66.7488ZM17.0277 73.4788L17.9077 73.6588L19.3177 66.9288L18.4377 66.7488L17.5577 66.5688L16.1477 73.2988L17.0277 73.4788ZM15.8677 73.4788V74.3788H17.0177V73.4788V72.5788H15.8677V73.4788ZM14.4577 66.7488L13.5777 66.9288L14.9877 73.6588L15.8677 73.4788L16.7477 73.2988L15.3377 66.5688L14.4577 66.7488ZM15.6077 66.7488V65.8488H14.4677V66.7488V67.6488H15.6077V66.7488ZM16.4477 71.4188L17.3377 71.2588L16.4977 66.5888L15.6077 66.7488L14.7177 66.9088L15.5577 71.5788L16.4477 71.4188ZM16.4677 71.4188V70.5188H16.4477V71.4188V72.3188H16.4677V71.4188ZM20.1177 68.3788H19.2177V71.8388H20.1177H21.0177V68.3788H20.1177ZM21.8877 66.6588V65.7588C21.0777 65.7588 20.3777 66.0188 19.8877 66.5488C19.4077 67.0688 19.2177 67.7388 19.2177 68.3788H20.1177H21.0177C21.0177 68.0788 21.1077 67.8888 21.2077 67.7788C21.2977 67.6788 21.4777 67.5588 21.8877 67.5588V66.6588ZM23.6577 68.3788H24.5577C24.5577 67.7388 24.3677 67.0688 23.8877 66.5488C23.3977 66.0188 22.6977 65.7588 21.8877 65.7588V66.6588V67.5588C22.2977 67.5588 22.4777 67.6788 22.5677 67.7788C22.6677 67.8888 22.7577 68.0788 22.7577 68.3788H23.6577ZM23.6577 71.8488H24.5577V68.3888H23.6577H22.7577V71.8488H23.6577ZM21.8877 73.5688V74.4688C22.6977 74.4688 23.3977 74.2088 23.8877 73.6788C24.3677 73.1588 24.5577 72.4888 24.5577 71.8488H23.6577H22.7577C22.7577 72.1488 22.6677 72.3388 22.5677 72.4488C22.4777 72.5488 22.2977 72.6688 21.8877 72.6688V73.5688ZM20.1177 71.8488H19.2177C19.2177 72.4888 19.4077 73.1588 19.8877 73.6788C20.3777 74.2088 21.0777 74.4688 21.8877 74.4688V73.5688V72.6688C21.4777 72.6688 21.2977 72.5488 21.2077 72.4488C21.1077 72.3388 21.0177 72.1488 21.0177 71.8488H20.1177ZM21.2677 71.8188H22.1677V68.4088H21.2677H20.3677V71.8188H21.2677ZM21.8877 72.5588V71.6588C21.8477 71.6588 21.8677 71.6488 21.9177 71.6688C21.9777 71.6888 22.0577 71.7388 22.1177 71.8188C22.1477 71.8488 22.1577 71.8788 22.1677 71.8988C22.1677 71.9088 22.1777 71.9188 22.1777 71.9188C22.1777 71.9088 22.1777 71.9088 22.1777 71.8988C22.1777 71.8788 22.1777 71.8488 22.1777 71.8088H21.2777H20.3777C20.3777 72.1088 20.4177 72.5488 20.6977 72.9188C21.0277 73.3488 21.5077 73.4488 21.8977 73.4488V72.5588H21.8877ZM22.5077 71.8188H21.6077C21.6077 71.8588 21.6077 71.8888 21.6077 71.9188C21.6077 71.9288 21.6077 71.9388 21.6077 71.9388C21.6077 71.9288 21.6177 71.9288 21.6177 71.9088C21.6277 71.8888 21.6477 71.8588 21.6677 71.8188C21.7277 71.7388 21.8077 71.6888 21.8677 71.6688C21.9177 71.6488 21.9377 71.6588 21.8877 71.6588V72.5588V73.4588C22.2677 73.4588 22.7477 73.3588 23.0777 72.9288C23.3677 72.5588 23.4077 72.1088 23.4077 71.8088H22.5077V71.8188ZM22.5077 68.4088H21.6077V71.8188H22.5077H23.4077V68.4088H22.5077ZM21.8877 67.6588V68.5588C21.9377 68.5588 21.9177 68.5688 21.8677 68.5488C21.8077 68.5288 21.7277 68.4788 21.6677 68.3988C21.6377 68.3688 21.6277 68.3288 21.6177 68.3088C21.6177 68.2988 21.6077 68.2888 21.6077 68.2788C21.6077 68.2888 21.6077 68.2888 21.6077 68.2988C21.6077 68.3188 21.6077 68.3488 21.6077 68.3988H22.5077H23.4077C23.4077 68.0988 23.3777 67.6588 23.0777 67.2788C22.7377 66.8488 22.2577 66.7488 21.8877 66.7488V67.6588ZM21.2677 68.4088H22.1677C22.1677 68.3688 22.1677 68.3388 22.1677 68.3088C22.1677 68.2988 22.1677 68.2888 22.1677 68.2888C22.1677 68.2988 22.1577 68.2988 22.1577 68.3188C22.1477 68.3388 22.1277 68.3688 22.1077 68.4088C22.0477 68.4888 21.9677 68.5388 21.9077 68.5588C21.8577 68.5788 21.8377 68.5688 21.8877 68.5688V67.6688V66.7688C21.5077 66.7688 21.0277 66.8688 20.6977 67.2988C20.4077 67.6688 20.3677 68.1188 20.3677 68.4188H21.2677V68.4088ZM25.8677 73.4788V74.3788H27.0177V73.4788V72.5788H25.8677V73.4788ZM25.8677 66.7488H24.9677V73.4888H25.8677H26.7677V66.7488H25.8677ZM27.0177 66.7488V65.8488H25.8677V66.7488V67.6488H27.0177V66.7488ZM27.0177 73.4788H27.9177V66.7388H27.0177H26.1177V73.4788H27.0177ZM34.8777 68.9888H33.9777V68.9988H34.8777H35.7777V68.9888H34.8777ZM33.7277 68.9888V69.8888H34.8777V68.9888V68.0888H33.7277V68.9888ZM33.7277 68.4588H32.8277V68.9888H33.7277H34.6277V68.4588H33.7277ZM33.1777 67.6488V68.5488C33.1277 68.5488 33.0677 68.5388 33.0077 68.5088C32.9377 68.4788 32.8877 68.4288 32.8577 68.3888C32.7977 68.3088 32.8377 68.2888 32.8377 68.4588H33.7377H34.6377C34.6377 68.0488 34.5477 67.6288 34.2877 67.2888C34.0077 66.9188 33.5977 66.7488 33.1877 66.7488V67.6488H33.1777ZM32.5577 68.3888H33.4577C33.4577 68.3488 33.4577 68.3188 33.4577 68.2888C33.4577 68.2788 33.4577 68.2688 33.4577 68.2588C33.4577 68.2688 33.4477 68.2688 33.4477 68.2888C33.4377 68.3088 33.4177 68.3388 33.3977 68.3788C33.3377 68.4588 33.2577 68.5088 33.1977 68.5288C33.1477 68.5488 33.1277 68.5388 33.1777 68.5388V67.6388V66.7388C32.7977 66.7388 32.3177 66.8388 31.9877 67.2688C31.6977 67.6388 31.6577 68.0888 31.6577 68.3888H32.5577ZM32.5577 71.7988H33.4577V68.3888H32.5577H31.6577V71.7988H32.5577ZM33.1777 72.5488V71.6488C33.1377 71.6488 33.1577 71.6388 33.2077 71.6588C33.2677 71.6788 33.3477 71.7288 33.4077 71.8088C33.4377 71.8388 33.4477 71.8688 33.4577 71.8888C33.4577 71.8988 33.4677 71.9088 33.4677 71.9088C33.4677 71.8988 33.4677 71.8988 33.4677 71.8888C33.4677 71.8688 33.4677 71.8388 33.4677 71.7988H32.5677H31.6677C31.6677 72.0988 31.7077 72.5388 31.9877 72.9088C32.3177 73.3388 32.7977 73.4388 33.1877 73.4388V72.5488H33.1777ZM33.7277 71.8688H32.8277C32.8277 71.9388 32.8177 71.9588 32.8277 71.9588C32.8277 71.9488 32.8377 71.8988 32.8977 71.8288C32.9577 71.7488 33.0277 71.6988 33.1077 71.6688C33.1677 71.6388 33.2077 71.6488 33.1877 71.6488V72.5488V73.4488C33.5677 73.4488 34.0277 73.3288 34.3377 72.9188C34.6077 72.5688 34.6377 72.1488 34.6377 71.8688H33.7277ZM33.7277 71.0588H32.8277V71.8688H33.7277H34.6277V71.0588H33.7277ZM34.8777 71.0588V70.1588H33.7277V71.0588V71.9588H34.8777V71.0588ZM34.8777 71.8388H35.7777V71.0688H34.8777H33.9777V71.8388H34.8777ZM33.1677 73.5588V74.4588C33.9777 74.4588 34.6777 74.1888 35.1577 73.6488C35.6277 73.1288 35.7877 72.4588 35.7877 71.8388H34.8877H33.9877C33.9877 72.1688 33.8977 72.3588 33.8077 72.4588C33.7377 72.5388 33.5677 72.6588 33.1677 72.6588V73.5588ZM31.3977 71.8388H30.4977C30.4977 72.4788 30.6877 73.1488 31.1677 73.6688C31.6577 74.1988 32.3577 74.4588 33.1677 74.4588V73.5588V72.6588C32.7577 72.6588 32.5777 72.5388 32.4877 72.4388C32.3877 72.3288 32.2977 72.1388 32.2977 71.8388H31.3977ZM31.3977 68.3688H30.4977V71.8288H31.3977H32.2977V68.3688H31.3977ZM33.1677 66.6488V65.7488C32.3577 65.7488 31.6577 66.0088 31.1677 66.5388C30.6877 67.0588 30.4977 67.7288 30.4977 68.3688H31.3977H32.2977C32.2977 68.0688 32.3877 67.8788 32.4877 67.7688C32.5777 67.6688 32.7577 67.5488 33.1677 67.5488V66.6488ZM34.8777 68.4988H35.7777C35.7777 67.8388 35.5977 67.1488 35.1377 66.6088C34.6677 66.0488 33.9677 65.7388 33.1577 65.7388V66.6388V67.5388C33.5077 67.5388 33.6677 67.6488 33.7677 67.7688C33.8777 67.8988 33.9777 68.1388 33.9777 68.4888H34.8777V68.4988ZM34.8777 68.9988H35.7777V68.4988H34.8777H33.9777V68.9988H34.8777ZM37.0877 66.7488H36.1877V71.7888H37.0877H37.9877V66.7488H37.0877ZM38.2377 66.7488V65.8488H37.0877V66.7488V67.6488H38.2377V66.7488ZM38.2377 71.8288H39.1377V66.7488H38.2377H37.3377V71.8288H38.2377ZM38.8577 72.5688V71.6688C38.8377 71.6688 38.8577 71.6688 38.9177 71.6888C38.9777 71.7088 39.0377 71.7588 39.0877 71.8188C39.1377 71.8788 39.1477 71.9188 39.1477 71.9288C39.1477 71.9288 39.1377 71.9088 39.1377 71.8388H38.2377H37.3377C37.3377 72.1788 37.3977 72.6088 37.6877 72.9688C38.0077 73.3588 38.4577 73.4888 38.8577 73.4888V72.5688ZM39.4777 71.8288H38.5777C38.5777 71.8988 38.5677 71.9288 38.5677 71.9188C38.5677 71.9188 38.5777 71.8688 38.6277 71.8088C38.6777 71.7488 38.7377 71.7088 38.7977 71.6788C38.8477 71.6588 38.8777 71.6588 38.8577 71.6588V72.5588V73.4588C39.2477 73.4588 39.6977 73.3388 40.0277 72.9388C40.3177 72.5788 40.3777 72.1488 40.3777 71.8088H39.4777V71.8288ZM39.4777 66.7488H38.5777V71.8288H39.4777H40.3777V66.7488H39.4777ZM40.6277 66.7488V65.8488H39.4777V66.7488V67.6488H40.6277V66.7488ZM40.6277 71.7788H41.5277V66.7388H40.6277H39.7277V71.7788H40.6277ZM38.8577 73.5688V74.4688C39.5777 74.4688 40.2777 74.2588 40.7877 73.7488C41.3077 73.2388 41.5277 72.5388 41.5277 71.7888H40.6277H39.7277C39.7277 72.1888 39.6177 72.3788 39.5177 72.4788C39.4177 72.5688 39.2277 72.6788 38.8577 72.6788V73.5688ZM37.0877 71.7788H36.1877C36.1877 72.5288 36.4077 73.2288 36.9277 73.7388C37.4477 74.2488 38.1377 74.4588 38.8577 74.4588V73.5588V72.6588C38.4777 72.6588 38.2877 72.5488 38.1977 72.4588C38.1077 72.3688 37.9877 72.1788 37.9877 71.7688H37.0877V71.7788ZM42.7777 68.3788H41.8777V71.8388H42.7777H43.6777V68.3788H42.7777ZM44.5477 66.6588V65.7588C43.7377 65.7588 43.0377 66.0188 42.5477 66.5488C42.0677 67.0688 41.8777 67.7388 41.8777 68.3788H42.7777H43.6777C43.6777 68.0788 43.7677 67.8888 43.8677 67.7788C43.9577 67.6788 44.1377 67.5588 44.5477 67.5588V66.6588ZM46.3177 68.3788H47.2177C47.2177 67.7388 47.0277 67.0688 46.5477 66.5488C46.0577 66.0188 45.3577 65.7588 44.5477 65.7588V66.6588V67.5588C44.9577 67.5588 45.1377 67.6788 45.2277 67.7788C45.3277 67.8888 45.4177 68.0788 45.4177 68.3788H46.3177ZM46.3177 71.8488H47.2177V68.3888H46.3177H45.4177V71.8488H46.3177ZM44.5477 73.5688V74.4688C45.3577 74.4688 46.0577 74.2088 46.5477 73.6788C47.0277 73.1588 47.2177 72.4888 47.2177 71.8488H46.3177H45.4177C45.4177 72.1488 45.3277 72.3388 45.2277 72.4488C45.1377 72.5488 44.9577 72.6688 44.5477 72.6688V73.5688ZM42.7777 71.8488H41.8777C41.8777 72.4888 42.0677 73.1588 42.5477 73.6788C43.0377 74.2088 43.7377 74.4688 44.5477 74.4688V73.5688V72.6688C44.1377 72.6688 43.9577 72.5488 43.8677 72.4488C43.7677 72.3388 43.6777 72.1488 43.6777 71.8488H42.7777ZM43.9277 71.8188H44.8277V68.4088H43.9277H43.0277V71.8188H43.9277ZM44.5477 72.5588V71.6588C44.5077 71.6588 44.5277 71.6488 44.5777 71.6688C44.6377 71.6888 44.7177 71.7388 44.7777 71.8188C44.8077 71.8488 44.8177 71.8788 44.8277 71.8988C44.8277 71.9088 44.8377 71.9188 44.8377 71.9188C44.8377 71.9088 44.8377 71.9088 44.8377 71.8988C44.8377 71.8788 44.8377 71.8488 44.8377 71.8088H43.9377H43.0377C43.0377 72.1088 43.0777 72.5488 43.3577 72.9188C43.6877 73.3488 44.1677 73.4488 44.5577 73.4488V72.5588H44.5477ZM45.1677 71.8188H44.2677C44.2677 71.8588 44.2677 71.8888 44.2677 71.9188C44.2677 71.9288 44.2677 71.9388 44.2677 71.9388C44.2677 71.9288 44.2777 71.9288 44.2777 71.9088C44.2877 71.8888 44.3077 71.8588 44.3277 71.8188C44.3877 71.7388 44.4677 71.6888 44.5277 71.6688C44.5777 71.6488 44.5977 71.6588 44.5477 71.6588V72.5588V73.4588C44.9277 73.4588 45.4077 73.3588 45.7377 72.9288C46.0277 72.5588 46.0677 72.1088 46.0677 71.8088H45.1677V71.8188ZM45.1677 68.4088H44.2677V71.8188H45.1677H46.0677V68.4088H45.1677ZM44.5477 67.6588V68.5588C44.5977 68.5588 44.5777 68.5688 44.5277 68.5488C44.4677 68.5288 44.3877 68.4788 44.3277 68.3988C44.2977 68.3688 44.2877 68.3288 44.2777 68.3088C44.2777 68.2988 44.2677 68.2888 44.2677 68.2788C44.2677 68.2888 44.2677 68.2888 44.2677 68.2988C44.2677 68.3188 44.2677 68.3488 44.2677 68.3988H45.1677H46.0677C46.0677 68.0988 46.0377 67.6588 45.7377 67.2788C45.3977 66.8488 44.9177 66.7488 44.5477 66.7488V67.6588ZM43.9277 68.4088H44.8277C44.8277 68.3688 44.8277 68.3388 44.8277 68.3088C44.8277 68.2988 44.8277 68.2888 44.8277 68.2888C44.8277 68.2988 44.8177 68.2988 44.8177 68.3188C44.8077 68.3388 44.7877 68.3688 44.7677 68.4088C44.7077 68.4888 44.6277 68.5388 44.5677 68.5588C44.5177 68.5788 44.4977 68.5688 44.5477 68.5688V67.6688V66.7688C44.1677 66.7688 43.6877 66.8688 43.3577 67.2988C43.0677 67.6688 43.0277 68.1188 43.0277 68.4188H43.9277V68.4088ZM51.9377 68.9888H51.0377V68.9988H51.9377H52.8377V68.9888H51.9377ZM50.7877 68.9888V69.8888H51.9377V68.9888V68.0888H50.7877V68.9888ZM50.7877 68.4588H49.8877V68.9888H50.7877H51.6877V68.4588H50.7877ZM50.2377 67.6488V68.5488C50.1877 68.5488 50.1277 68.5388 50.0677 68.5088C49.9977 68.4788 49.9477 68.4288 49.9177 68.3888C49.8577 68.3088 49.8977 68.2888 49.8977 68.4588H50.7977H51.6977C51.6977 68.0488 51.6077 67.6288 51.3477 67.2888C51.0677 66.9188 50.6577 66.7488 50.2477 66.7488V67.6488H50.2377ZM49.6177 68.3888H50.5177C50.5177 68.3488 50.5177 68.3188 50.5177 68.2888C50.5177 68.2788 50.5177 68.2688 50.5177 68.2588C50.5177 68.2688 50.5077 68.2688 50.5077 68.2888C50.4977 68.3088 50.4777 68.3388 50.4577 68.3788C50.3977 68.4588 50.3177 68.5088 50.2577 68.5288C50.2077 68.5488 50.1877 68.5388 50.2377 68.5388V67.6388V66.7388C49.8577 66.7388 49.3777 66.8388 49.0477 67.2688C48.7577 67.6388 48.7177 68.0888 48.7177 68.3888H49.6177ZM49.6177 71.7988H50.5177V68.3888H49.6177H48.7177V71.7988H49.6177ZM50.2377 72.5488V71.6488C50.1977 71.6488 50.2177 71.6388 50.2677 71.6588C50.3277 71.6788 50.4077 71.7288 50.4677 71.8088C50.4977 71.8388 50.5077 71.8688 50.5177 71.8888C50.5177 71.8988 50.5277 71.9088 50.5277 71.9088C50.5277 71.8988 50.5277 71.8988 50.5277 71.8888C50.5277 71.8688 50.5277 71.8388 50.5277 71.7988H49.6277H48.7277C48.7277 72.0988 48.7677 72.5388 49.0477 72.9088C49.3777 73.3388 49.8577 73.4388 50.2477 73.4388V72.5488H50.2377ZM50.7877 71.8688H49.8877C49.8877 71.9388 49.8777 71.9588 49.8877 71.9588C49.8877 71.9488 49.8977 71.8988 49.9577 71.8288C50.0177 71.7488 50.0877 71.6988 50.1677 71.6688C50.2277 71.6388 50.2677 71.6488 50.2477 71.6488V72.5488V73.4488C50.6277 73.4488 51.0877 73.3288 51.3977 72.9188C51.6677 72.5688 51.6977 72.1488 51.6977 71.8688H50.7877ZM50.7877 71.0588H49.8877V71.8688H50.7877H51.6877V71.0588H50.7877ZM51.9377 71.0588V70.1588H50.7877V71.0588V71.9588H51.9377V71.0588ZM51.9377 71.8388H52.8377V71.0688H51.9377H51.0377V71.8388H51.9377ZM50.2177 73.5588V74.4588C51.0277 74.4588 51.7277 74.1888 52.2077 73.6488C52.6777 73.1288 52.8377 72.4588 52.8377 71.8388H51.9377H51.0377C51.0377 72.1688 50.9477 72.3588 50.8577 72.4588C50.7877 72.5388 50.6177 72.6588 50.2177 72.6588V73.5588ZM48.4477 71.8388H47.5477C47.5477 72.4788 47.7377 73.1488 48.2177 73.6688C48.7077 74.1988 49.4077 74.4588 50.2177 74.4588V73.5588V72.6588C49.8077 72.6588 49.6277 72.5388 49.5377 72.4388C49.4377 72.3288 49.3477 72.1388 49.3477 71.8388H48.4477ZM48.4477 68.3688H47.5477V71.8288H48.4477H49.3477V68.3688H48.4477ZM50.2177 66.6488V65.7488C49.4277 65.7488 48.7377 66.0188 48.2477 66.5288C47.7677 67.0388 47.5477 67.6988 47.5477 68.3688H48.4477H49.3477C49.3477 68.0888 49.4377 67.8888 49.5477 67.7788C49.6477 67.6688 49.8477 67.5488 50.2177 67.5488V66.6488ZM51.9377 68.4988H52.8377C52.8377 67.8388 52.6577 67.1488 52.1977 66.6088C51.7277 66.0488 51.0277 65.7388 50.2177 65.7388V66.6388V67.5388C50.5677 67.5388 50.7277 67.6488 50.8277 67.7688C50.9377 67.8988 51.0377 68.1388 51.0377 68.4888H51.9377V68.4988ZM51.9377 68.9988H52.8377V68.4988H51.9377H51.0377V68.9988H51.9377ZM59.4077 68.2788L58.7677 68.9088L58.7777 68.9188L59.4177 68.2888L60.0577 67.6588L60.0477 67.6488L59.4077 68.2788ZM58.3077 68.3888L58.4077 69.2788L59.5077 69.1588L59.4077 68.2688L59.3077 67.3788L58.2077 67.4988L58.3077 68.3888ZM57.6877 67.6488V68.5488C57.6177 68.5488 57.5177 68.5188 57.4377 68.4488C57.3677 68.3788 57.3977 68.3388 57.4077 68.4788L58.3077 68.3988L59.2077 68.3188C59.1677 67.8788 59.0177 67.4788 58.7077 67.1788C58.3977 66.8788 58.0177 66.7588 57.6877 66.7588V67.6488ZM57.1177 68.3188H58.0177C58.0177 68.2388 58.0377 68.3088 57.9477 68.4088C57.9077 68.4588 57.8477 68.4988 57.7877 68.5288C57.7377 68.5488 57.6977 68.5488 57.6877 68.5488V67.6488V66.7488C57.2877 66.7488 56.8777 66.8888 56.5777 67.2388C56.2977 67.5688 56.2177 67.9688 56.2177 68.3088H57.1177V68.3188ZM59.4577 71.8488H60.3577C60.3577 70.4988 59.4677 69.6588 58.8777 69.1488C58.5377 68.8588 58.3177 68.6788 58.1477 68.4888C57.9877 68.3088 58.0177 68.2688 58.0177 68.3188H57.1177H56.2177C56.2177 68.9388 56.5377 69.3988 56.8177 69.7088C57.0877 69.9988 57.4477 70.2988 57.6977 70.5088C58.2777 71.0188 58.5577 71.3688 58.5577 71.8488H59.4577ZM57.6377 73.5688V74.4688C58.3377 74.4688 59.0277 74.2688 59.5577 73.7888C60.0977 73.2988 60.3677 72.6188 60.3677 71.8488H59.4677H58.5677C58.5677 72.1888 58.4577 72.3588 58.3477 72.4588C58.2277 72.5688 58.0077 72.6688 57.6377 72.6688V73.5688ZM55.9077 71.7088L55.0077 71.7488C55.0377 72.4188 55.2577 73.0888 55.7077 73.6088C56.1677 74.1488 56.8377 74.4688 57.6377 74.4688V73.5688V72.6688C57.3677 72.6688 57.1977 72.5688 57.0677 72.4288C56.9277 72.2688 56.8177 72.0088 56.8077 71.6688L55.9077 71.7088ZM57.0077 71.5488L56.8777 70.6588L55.7777 70.8188L55.9077 71.7088L56.0377 72.5988L57.1377 72.4388L57.0077 71.5488ZM57.6977 72.5588V71.6588C57.7377 71.6588 57.8077 71.6688 57.8677 71.6988C57.9277 71.7288 57.9577 71.7688 57.9677 71.7788C57.9777 71.7888 57.9677 71.7788 57.9477 71.7288C57.9277 71.6788 57.9177 71.5888 57.9077 71.4788L57.0077 71.5488L56.1077 71.6188C56.1377 72.0488 56.2477 72.4788 56.4977 72.8288C56.7777 73.2188 57.1977 73.4588 57.6977 73.4588V72.5588ZM58.3777 71.9388H57.4777C57.4777 71.9388 57.4777 71.9088 57.4977 71.8588C57.5177 71.8088 57.5477 71.7588 57.5977 71.7188C57.6877 71.6388 57.7577 71.6488 57.7077 71.6488V72.5488V73.4488C58.0577 73.4488 58.4677 73.3588 58.7877 73.0688C59.1277 72.7688 59.2777 72.3488 59.2777 71.9388H58.3777ZM56.0277 68.3288H55.1277C55.1277 69.7288 56.0177 70.5388 56.6177 71.0488C56.9577 71.3288 57.1677 71.4988 57.3277 71.6788C57.4677 71.8388 57.4677 71.9088 57.4677 71.9388H58.3677H59.2677C59.2677 71.3088 58.9777 70.8288 58.6777 70.4888C58.3977 70.1688 58.0277 69.8788 57.7777 69.6688C57.2077 69.1788 56.9277 68.8488 56.9277 68.3288H56.0277ZM57.8177 66.6488V65.7488C57.0977 65.7488 56.4077 65.9388 55.8877 66.4288C55.3577 66.9188 55.1277 67.6088 55.1277 68.3288H56.0277H56.9277C56.9277 67.9788 57.0277 67.8188 57.1077 67.7488C57.1977 67.6588 57.3977 67.5588 57.8177 67.5588V66.6488ZM59.4177 68.2888L60.3077 68.1888C60.2377 67.5788 60.0177 66.9688 59.5877 66.5088C59.1377 66.0288 58.5277 65.7588 57.8177 65.7588V66.6588V67.5588C58.0477 67.5588 58.1777 67.6388 58.2677 67.7288C58.3777 67.8488 58.4877 68.0588 58.5177 68.3888L59.4177 68.2888ZM61.3777 68.3788H60.4777V71.8388H61.3777H62.2777V68.3788H61.3777ZM63.1477 66.6588V65.7588C62.3377 65.7588 61.6377 66.0188 61.1477 66.5488C60.6677 67.0688 60.4777 67.7388 60.4777 68.3788H61.3777H62.2777C62.2777 68.0788 62.3677 67.8888 62.4677 67.7788C62.5577 67.6788 62.7377 67.5588 63.1477 67.5588V66.6588ZM64.9277 68.3788H65.8277C65.8277 67.7388 65.6377 67.0688 65.1577 66.5488C64.6677 66.0188 63.9677 65.7588 63.1577 65.7588V66.6588V67.5588C63.5677 67.5588 63.7477 67.6788 63.8377 67.7788C63.9377 67.8888 64.0277 68.0788 64.0277 68.3788H64.9277ZM64.9277 71.8488H65.8277V68.3888H64.9277H64.0277V71.8488H64.9277ZM63.1477 73.5688V74.4688C63.9577 74.4688 64.6577 74.2088 65.1477 73.6788C65.6277 73.1588 65.8177 72.4888 65.8177 71.8488H64.9177H64.0177C64.0177 72.1488 63.9277 72.3388 63.8277 72.4488C63.7377 72.5488 63.5577 72.6688 63.1477 72.6688V73.5688ZM61.3777 71.8488H60.4777C60.4777 72.4888 60.6677 73.1588 61.1477 73.6788C61.6377 74.2088 62.3377 74.4688 63.1477 74.4688V73.5688V72.6688C62.7377 72.6688 62.5577 72.5488 62.4677 72.4488C62.3677 72.3388 62.2777 72.1488 62.2777 71.8488H61.3777ZM62.5377 71.8188H63.4377V68.4088H62.5377H61.6377V71.8188H62.5377ZM63.1477 72.5588V71.6588C63.1077 71.6588 63.1277 71.6488 63.1777 71.6688C63.2377 71.6888 63.3177 71.7388 63.3777 71.8188C63.4077 71.8488 63.4177 71.8788 63.4277 71.8988C63.4277 71.9088 63.4377 71.9188 63.4377 71.9188C63.4377 71.9088 63.4377 71.9088 63.4377 71.8988C63.4377 71.8788 63.4377 71.8488 63.4377 71.8088H62.5377H61.6377C61.6377 72.1088 61.6777 72.5488 61.9577 72.9188C62.2877 73.3488 62.7677 73.4488 63.1577 73.4488V72.5588H63.1477ZM63.7677 71.8188H62.8677C62.8677 71.8588 62.8677 71.8888 62.8677 71.9188C62.8677 71.9288 62.8677 71.9388 62.8677 71.9388C62.8677 71.9288 62.8777 71.9288 62.8777 71.9088C62.8877 71.8888 62.9077 71.8588 62.9277 71.8188C62.9877 71.7388 63.0677 71.6888 63.1277 71.6688C63.1777 71.6488 63.1977 71.6588 63.1477 71.6588V72.5588V73.4588C63.5277 73.4588 64.0077 73.3588 64.3377 72.9288C64.6277 72.5588 64.6677 72.1088 64.6677 71.8088H63.7677V71.8188ZM63.7677 68.4088H62.8677V71.8188H63.7677H64.6677V68.4088H63.7677ZM63.1477 67.6588V68.5588C63.1977 68.5588 63.1777 68.5688 63.1277 68.5488C63.0677 68.5288 62.9877 68.4788 62.9277 68.3988C62.8977 68.3688 62.8877 68.3288 62.8777 68.3088C62.8777 68.2988 62.8677 68.2888 62.8677 68.2788C62.8677 68.2888 62.8677 68.2888 62.8677 68.2988C62.8677 68.3188 62.8677 68.3488 62.8677 68.3988H63.7677H64.6677C64.6677 68.0988 64.6377 67.6588 64.3377 67.2788C63.9977 66.8488 63.5177 66.7488 63.1477 66.7488V67.6588ZM62.5377 68.4088H63.4377C63.4377 68.3688 63.4377 68.3388 63.4377 68.3088C63.4377 68.2988 63.4377 68.2888 63.4377 68.2888C63.4377 68.2988 63.4277 68.2988 63.4277 68.3188C63.4177 68.3388 63.3977 68.3688 63.3777 68.4088C63.3177 68.4888 63.2377 68.5388 63.1777 68.5588C63.1277 68.5788 63.1077 68.5688 63.1577 68.5688V67.6688V66.7688C62.7777 66.7688 62.2977 66.8688 61.9677 67.2988C61.6777 67.6688 61.6377 68.1188 61.6377 68.4188H62.5377V68.4088ZM67.0677 73.4788V74.3788H68.1177V73.4788V72.5788H67.0677V73.4788ZM67.0677 66.7488H66.1677V73.4888H67.0677H67.9677V66.7488H67.0677ZM68.1377 66.7488V65.8488H67.0677V66.7488V67.6488H68.1377V66.7488ZM69.5377 70.5988L70.3877 70.2888L68.9777 66.4388L68.1277 66.7488L67.2777 67.0588L68.6877 70.9088L69.5377 70.5988ZM69.5677 70.5988V69.6988H69.5477V70.5988V71.4988H69.5677V70.5988ZM69.5677 66.7488H68.6677V70.5988H69.5677H70.4677V66.7488H69.5677ZM70.6077 66.7488V65.8488H69.5577V66.7488V67.6488H70.6077V66.7488ZM70.6077 73.4788H71.5077V66.7388H70.6077H69.7077V73.4788H70.6077ZM69.6077 73.4788V74.3788H70.6077V73.4788V72.5788H69.6077V73.4788ZM68.1377 69.2788L67.2877 69.5788L68.7577 73.7888L69.6077 73.4888L70.4577 73.1888L68.9877 68.9788L68.1377 69.2788ZM68.1177 69.2788V70.1788H68.1377V69.2788V68.3788H68.1177V69.2788ZM68.1177 73.4788H69.0177V69.2688H68.1177H67.2177V73.4788H68.1177ZM74.3577 70.0688H73.4577V70.9788H74.3577H75.2577V70.0688H74.3577ZM76.2377 70.0688V69.1688H74.3477V70.0688V70.9688H76.2377V70.0688ZM76.2377 73.4788H77.1377V70.0688H76.2377H75.3377V73.4788H76.2377ZM75.6877 73.4788V74.3788H76.2377V73.4788V72.5788H75.6877V73.4788ZM75.4777 72.9788L74.6477 73.3288L74.8577 73.8388L75.6877 73.4888L76.5177 73.1388L76.3077 72.6288L75.4777 72.9788ZM74.3077 73.5688V74.4688C74.6877 74.4688 75.0477 74.3988 75.3877 74.2188C75.7177 74.0388 75.9577 73.7888 76.1577 73.5488L75.4677 72.9688L74.7777 72.3888C74.6377 72.5588 74.5677 72.6088 74.5377 72.6188C74.5177 72.6288 74.4677 72.6588 74.3077 72.6588V73.5688ZM72.7677 71.8488H71.8677C71.8677 72.5588 72.0777 73.2288 72.5377 73.7188C72.9977 74.2188 73.6377 74.4688 74.3177 74.4688V73.5688V72.6688C74.0777 72.6688 73.9477 72.5888 73.8677 72.4988C73.7777 72.3988 73.6777 72.2088 73.6777 71.8388H72.7677V71.8488ZM72.7677 68.3788H71.8677V71.8388H72.7677H73.6677V68.3788H72.7677ZM74.4577 66.6588V65.7588C73.6677 65.7588 72.9877 66.0288 72.5077 66.5588C72.0477 67.0788 71.8577 67.7388 71.8577 68.3788H72.7577H73.6577C73.6577 68.0688 73.7477 67.8688 73.8477 67.7688C73.9277 67.6788 74.0977 67.5588 74.4577 67.5588V66.6588ZM76.1877 68.5088H77.0877C77.0877 67.8388 76.8977 67.1588 76.4377 66.6188C75.9677 66.0688 75.2677 65.7588 74.4577 65.7588V66.6588V67.5588C74.7977 67.5588 74.9677 67.6688 75.0677 67.7888C75.1877 67.9288 75.2877 68.1688 75.2877 68.5088H76.1877ZM76.1877 68.9388H77.0877V68.5088H76.1877H75.2877V68.9388H76.1877ZM75.0877 68.9388V69.8388H76.1877V68.9388V68.0388H75.0877V68.9388ZM74.4277 67.6688V68.5688C74.4677 68.5688 74.4177 68.5788 74.3377 68.5388C74.2377 68.4888 74.1777 68.4188 74.1477 68.3688C74.1277 68.3388 74.1477 68.3488 74.1577 68.4588C74.1777 68.5588 74.1877 68.7188 74.1877 68.9488H75.0877H75.9877C75.9877 68.4388 75.9477 67.9088 75.7077 67.4888C75.5677 67.2488 75.3677 67.0488 75.1077 66.9188C74.8577 66.7988 74.6177 66.7788 74.4177 66.7788V67.6688H74.4277ZM73.9177 68.4088H74.8177C74.8177 68.2188 74.8577 68.2888 74.7577 68.4088C74.7077 68.4688 74.6377 68.5188 74.5577 68.5488C74.4877 68.5788 74.4377 68.5788 74.4277 68.5788V67.6788V66.7788C74.1077 66.7788 73.6877 66.8788 73.3777 67.2488C73.0877 67.5888 73.0177 68.0188 73.0177 68.4088H73.9177ZM73.9177 71.8688H74.8177V68.4088H73.9177H73.0177V71.8688H73.9177ZM74.4577 72.5788V71.6788C74.4577 71.6788 74.5077 71.6788 74.5877 71.7188C74.6677 71.7588 74.7377 71.8188 74.7777 71.8788C74.8177 71.9388 74.8277 71.9788 74.8277 71.9688C74.8277 71.9688 74.8177 71.9388 74.8177 71.8688H73.9177H73.0177C73.0177 72.1488 73.0577 72.5488 73.2977 72.8988C73.5877 73.3088 74.0277 73.4788 74.4577 73.4788V72.5788ZM75.0877 71.6388H74.1877C74.1877 71.7688 74.1777 71.8488 74.1677 71.8988C74.1577 71.9388 74.1577 71.9188 74.1877 71.8588C74.2077 71.8288 74.2377 71.7988 74.2677 71.7688C74.3077 71.7388 74.3377 71.7188 74.3777 71.6988C74.4477 71.6688 74.4777 71.6788 74.4477 71.6788V72.5788V73.4788C74.8677 73.4788 75.3677 73.3388 75.6877 72.8588C75.9477 72.4688 75.9777 72.0088 75.9777 71.6388H75.0877ZM75.0877 70.9888H74.1877V71.6488H75.0877H75.9877V70.9888H75.0877ZM74.3577 70.9888V71.8888H75.0977V70.9888V70.0888H74.3577V70.9888ZM17.2877 66.7488V65.8488H16.5377L16.4077 66.5888L17.2877 66.7488ZM18.4277 66.7488L19.3077 66.9288L19.5377 65.8488H18.4277V66.7488ZM17.0277 73.4788V74.3788H17.7577L17.9077 73.6588L17.0277 73.4788ZM15.8677 73.4788L14.9877 73.6588L15.1377 74.3788H15.8677V73.4788ZM14.4577 66.7488V65.8488H13.3477L13.5777 66.9288L14.4577 66.7488ZM15.6077 66.7488L16.4977 66.5888L16.3677 65.8488H15.6177V66.7488H15.6077ZM16.4477 71.4188L15.5577 71.5788L15.6877 72.3188H16.4377V71.4188H16.4477ZM25.8677 73.4788H24.9677V74.3788H25.8677V73.4788ZM25.8677 66.7488V65.8488H24.9677V66.7488H25.8677ZM27.0177 66.7488H27.9177V65.8488H27.0177V66.7488ZM27.0177 73.4788V74.3788H27.9177V73.4788H27.0177ZM34.8777 68.9888H35.7777V68.0888H34.8777V68.9888ZM33.7277 68.9888H32.8277V69.8888H33.7277V68.9888ZM33.7277 71.0588V70.1588H32.8277V71.0588H33.7277ZM34.8777 71.0588H35.7777V70.1588H34.8777V71.0588ZM37.0877 66.7488V65.8488H36.1877V66.7488H37.0877ZM38.2377 66.7488H39.1377V65.8488H38.2377V66.7488ZM39.4777 66.7488V65.8488H38.5777V66.7488H39.4777ZM40.6277 66.7488H41.5277V65.8488H40.6277V66.7488ZM51.9377 68.9888H52.8377V68.0888H51.9377V68.9888ZM50.7877 68.9888H49.8877V69.8888H50.7877V68.9888ZM50.7877 71.0588V70.1588H49.8877V71.0588H50.7877ZM51.9377 71.0588H52.8377V70.1588H51.9377V71.0588ZM59.4077 68.2788L60.0477 67.6488L59.7477 67.3388L59.3177 67.3888L59.4077 68.2788ZM58.3077 68.3888L57.4077 68.4688L57.4977 69.3788L58.4077 69.2788L58.3077 68.3888ZM55.9077 71.7088L55.7777 70.8188L54.9777 70.9388L55.0077 71.7488L55.9077 71.7088ZM57.0077 71.5488L57.9077 71.4788L57.8277 70.5188L56.8777 70.6588L57.0077 71.5488ZM59.4177 68.2888L58.7777 68.9188L60.5977 70.7588L60.3077 68.1888L59.4177 68.2888ZM67.0677 73.4788H66.1677V74.3788H67.0677V73.4788ZM67.0677 66.7488V65.8488H66.1677V66.7488H67.0677ZM68.1377 66.7488L68.9877 66.4388L68.7677 65.8488H68.1377V66.7488ZM69.5377 70.5988L68.6877 70.9088L68.9077 71.4988H69.5377V70.5988ZM69.5677 70.5988V71.4988H70.4677V70.5988H69.5677ZM69.5677 66.7488V65.8488H68.6677V66.7488H69.5677ZM70.6077 66.7488H71.5077V65.8488H70.6077V66.7488ZM70.6077 73.4788V74.3788H71.5077V73.4788H70.6077ZM69.6077 73.4788L68.7577 73.7788L68.9677 74.3788H69.6077V73.4788ZM68.1377 69.2788L68.9877 68.9788L68.7777 68.3788H68.1377V69.2788ZM68.1177 69.2788V68.3788H67.2177V69.2788H68.1177ZM68.1177 73.4788V74.3788H69.0177V73.4788H68.1177ZM74.3577 70.0688V69.1688H73.4577V70.0688H74.3577ZM76.2377 70.0688H77.1377V69.1688H76.2377V70.0688ZM76.2377 73.4788V74.3788H77.1377V73.4788H76.2377ZM75.6877 73.4788L74.8577 73.8288L75.0877 74.3788H75.6877V73.4788ZM75.4777 72.9788L76.3077 72.6288L75.7377 71.2688L74.7877 72.3988L75.4777 72.9788ZM76.1877 68.9388V69.8388H77.0877V68.9388H76.1877ZM75.0877 68.9388H74.1877V69.8388H75.0877V68.9388ZM75.0877 70.9888H75.9877V70.0888H75.0877V70.9888ZM74.3577 70.9888H73.4577V71.8888H74.3577V70.9888Z" fill="white"/>
<path d="M21.6978 66.2386L22.4378 65.0786H23.6678L22.4978 66.2386H21.6978Z" fill="#75C044"/>
<path d="M22.4979 66.2387V65.3387H21.6979V66.2387V67.1387H22.4979V66.2387ZM23.6679 65.0787L23.0379 64.4387L21.8679 65.5987L22.4979 66.2387L23.1279 66.8787L24.2979 65.7187L23.6679 65.0787ZM22.4379 65.0787V65.9787H23.6679V65.0787V64.1787H22.4379V65.0787ZM21.6979 66.2387L22.4579 66.7287L23.2079 65.5687L22.4479 65.0787L21.6879 64.5887L20.9379 65.7487L21.6979 66.2387ZM22.4979 66.2387V67.1387H22.8679L23.1279 66.8787L22.4979 66.2387ZM23.6679 65.0787L24.2979 65.7187L25.8479 64.1787H23.6579V65.0787H23.6679ZM22.4379 65.0787V64.1787H21.9479L21.6779 64.5887L22.4379 65.0787ZM21.6979 66.2387L20.9379 65.7487L20.0479 67.1387H21.6979V66.2387Z" fill="white"/>
<path d="M23.3079 65.9988H24.1379V66.6788C24.1379 66.9488 24.0679 67.1488 23.9279 67.2988C23.7879 67.4488 23.5779 67.5188 23.2979 67.5188V67.1688C23.4079 67.1688 23.4879 67.1188 23.5679 67.0488C23.6379 66.9888 23.6779 66.9088 23.6779 66.8088H23.2979V65.9888L23.3079 65.9988Z" fill="#75C044"/>
<path d="M23.2977 65.9788L22.6577 66.6088L22.6677 66.6188L23.3077 65.9988L23.9477 65.3688L23.9377 65.3588L23.2977 65.9788ZM23.2977 66.7988H24.1977V65.9788H23.2977H22.3977V66.7988H23.2977ZM23.6677 66.7988V65.8988H23.2977V66.7988V67.6988H23.6677V66.7988ZM23.5577 67.0388L24.1477 67.7188C24.4277 67.4788 24.5677 67.1488 24.5677 66.7988H23.6677H22.7677C22.7677 66.7488 22.7777 66.6588 22.8177 66.5588C22.8577 66.4588 22.9177 66.3888 22.9677 66.3488L23.5577 67.0388ZM23.2977 67.1588V68.0588C23.7277 68.0588 24.0177 67.8388 24.1577 67.7188L23.5677 67.0388L22.9777 66.3588C22.9577 66.3788 23.0777 66.2588 23.2977 66.2588V67.1588ZM23.2977 67.5088H24.1977V67.1588H23.2977H22.3977V67.5088H23.2977ZM23.9277 67.2988L23.2677 66.6888C23.2877 66.6688 23.3177 66.6488 23.3377 66.6288C23.3577 66.6188 23.3777 66.6088 23.3877 66.6088C23.3977 66.6088 23.3877 66.6088 23.3777 66.6088C23.3677 66.6088 23.3377 66.6088 23.3077 66.6088V67.5088V68.4088C23.6977 68.4088 24.2177 68.3188 24.5977 67.8988L23.9277 67.2988ZM24.1377 66.6688H23.2377C23.2377 66.7188 23.2277 66.7388 23.2377 66.7288C23.2377 66.7288 23.2377 66.7188 23.2477 66.7088C23.2577 66.6988 23.2577 66.6888 23.2677 66.6788L23.9277 67.2888L24.5877 67.8988C24.9077 67.5488 25.0377 67.1088 25.0377 66.6688H24.1377ZM24.1377 65.9988H23.2377V66.6788H24.1377H25.0377V65.9988H24.1377ZM23.3077 65.9988V66.8988H24.1377V65.9988V65.0988H23.3077V65.9988ZM23.2977 65.9788L23.9377 65.3488L22.3977 63.7988V65.9888H23.2977V65.9788ZM23.2977 66.7988H22.3977V67.6988H23.2977V66.7988ZM23.6677 66.7988H24.5677V65.8988H23.6677V66.7988ZM23.2977 67.1588V66.2588H22.3977V67.1588H23.2977ZM23.2977 67.5088H22.3977V68.4088H23.2977V67.5088ZM24.1377 65.9988H25.0377V65.0988H24.1377V65.9988ZM23.3077 65.9988L22.6677 66.6288L22.9277 66.8988H23.2977V65.9988H23.3077Z" fill="white"/>
<path d="M44.1278 65.2188H45.1078L46.0278 66.3787H45.1278L44.6178 65.7288L44.1078 66.3787H43.2278L44.1278 65.2188Z" fill="#75C044"/>
<path d="M43.2277 66.3788L43.9377 66.9288L44.8477 65.7688L44.1377 65.2188L43.4277 64.6688L42.5177 65.8288L43.2277 66.3788ZM44.1077 66.3788V65.4788H43.2177V66.3788V67.2788H44.1077V66.3788ZM44.6177 65.7288L43.9077 65.1788L43.3977 65.8388L44.1077 66.3888L44.8177 66.9388L45.3277 66.2788L44.6177 65.7288ZM45.1277 66.3788L45.8477 65.8288L45.3477 65.1688L44.6277 65.7188L43.9077 66.2688L44.4077 66.9288L45.1277 66.3788ZM46.0277 66.3788V65.4788H45.1177V66.3788V67.2788H46.0277V66.3788ZM45.1077 65.2188L44.3977 65.7788L45.3177 66.9388L46.0277 66.3788L46.7377 65.8188L45.8177 64.6588L45.1077 65.2188ZM44.1277 65.2188V66.1188H45.1077V65.2188V64.3188H44.1277V65.2188ZM43.2277 66.3788L42.5177 65.8288L41.3877 67.2788H43.2277V66.3788ZM44.1077 66.3788V67.2788H44.5477L44.8177 66.9288L44.1077 66.3788ZM44.6177 65.7288L45.3377 65.1788L44.6277 64.2488L43.9077 65.1688L44.6177 65.7288ZM45.1277 66.3788L44.4077 66.9288L44.6777 67.2788H45.1277V66.3788ZM46.0277 66.3788V67.2788H47.8877L46.7377 65.8188L46.0277 66.3788ZM45.1077 65.2188L45.8177 64.6588L45.5477 64.3188H45.1077V65.2188ZM44.1277 65.2188V64.3188H43.6877L43.4177 64.6688L44.1277 65.2188Z" fill="white"/>
<path d="M62.6778 65.2188H63.6678L64.5778 66.3787H63.6778L63.1678 65.7288L62.6578 66.3787H61.7778L62.6778 65.2188Z" fill="#75C044"/>
<path d="M61.7777 66.3788L62.4877 66.9288L63.3977 65.7688L62.6877 65.2188L61.9777 64.6688L61.0677 65.8288L61.7777 66.3788ZM62.6577 66.3788V65.4788H61.7677V66.3788V67.2788H62.6577V66.3788ZM63.1677 65.7288L62.4577 65.1788L61.9477 65.8388L62.6577 66.3888L63.3677 66.9388L63.8777 66.2788L63.1677 65.7288ZM63.6777 66.3788L64.3977 65.8288L63.8977 65.1688L63.1777 65.7188L62.4577 66.2688L62.9577 66.9288L63.6777 66.3788ZM64.5777 66.3788V65.4788H63.6677V66.3788V67.2788H64.5777V66.3788ZM63.6677 65.2188L62.9577 65.7788L63.8777 66.9388L64.5877 66.3788L65.2977 65.8188L64.3777 64.6588L63.6677 65.2188ZM62.6777 65.2188V66.1188H63.6577V65.2188V64.3188H62.6777V65.2188ZM61.7777 66.3788L61.0677 65.8288L59.9377 67.2788H61.7777V66.3788ZM62.6577 66.3788V67.2788H63.0977L63.3677 66.9288L62.6577 66.3788ZM63.1677 65.7288L63.8877 65.1788L63.1777 64.2488L62.4577 65.1688L63.1677 65.7288ZM63.6777 66.3788L62.9577 66.9288L63.2277 67.2788H63.6777V66.3788ZM64.5777 66.3788V67.2788H66.4377L65.2877 65.8188L64.5777 66.3788ZM63.6677 65.2188L64.3777 64.6588L64.1077 64.3188H63.6677V65.2188ZM62.6777 65.2188V64.3188H62.2377L61.9677 64.6688L62.6777 65.2188Z" fill="white"/>
<path d="M64.2378 66.3487L64.9878 65.1887H66.2078L65.0378 66.3487H64.2378Z" fill="#75C044"/>
<path d="M65.0379 66.3488V65.4488H64.2379V66.3488V67.2488H65.0379V66.3488ZM66.2079 65.1888L65.5679 64.5488L64.4079 65.7088L65.0479 66.3488L65.6879 66.9888L66.8479 65.8288L66.2079 65.1888ZM64.9879 65.1888V66.0888H66.2079V65.1888V64.2888H64.9879V65.1888ZM64.2379 66.3488L64.9979 66.8388L65.7479 65.6788L64.9879 65.1888L64.2279 64.6988L63.4779 65.8588L64.2379 66.3488ZM65.0379 66.3488V67.2488H65.4079L65.6679 66.9888L65.0379 66.3488ZM66.2079 65.1888L66.8479 65.8288L68.3879 64.2888H66.2179V65.1888H66.2079ZM64.9879 65.1888V64.2888H64.4979L64.2279 64.6988L64.9879 65.1888ZM64.2379 66.3488L63.4779 65.8588L62.5879 67.2488H64.2379V66.3488Z" fill="white"/>
<path d="M45.0477 74.1587H44.1577V75.0287H45.0477V74.1587Z" fill="#75C044"/>
<path d="M44.1578 75.0288H45.0578V74.1588H44.1578H43.2578V75.0288H44.1578ZM45.0478 75.0288V74.1288H44.1578V75.0288V75.9288H45.0478V75.0288ZM45.0478 74.1588H44.1478V75.0288H45.0478H45.9478V74.1588H45.0478ZM44.1578 74.1588V75.0588H45.0478V74.1588V73.2588H44.1578V74.1588ZM44.1578 75.0288H43.2578V75.9288H44.1578V75.0288ZM45.0478 75.0288V75.9288H45.9478V75.0288H45.0478ZM45.0478 74.1588H45.9478V73.2588H45.0478V74.1588ZM44.1578 74.1588V73.2588H43.2578V74.1588H44.1578Z" fill="white"/>
<path d="M16.8378 54.2788H17.8378L18.7478 55.4388L17.8478 55.4288L17.3378 54.7888L16.8278 55.4288L15.9478 55.4388L16.8378 54.2788Z" fill="#D2AB56"/>
<path d="M15.9477 55.4386L16.6577 55.9886L17.5577 54.8286L16.8477 54.2786L16.1377 53.7286L15.2377 54.8886L15.9477 55.4386ZM16.8277 55.4286L16.8177 54.5286L15.9277 54.5386L15.9377 55.4386L15.9477 56.3386L16.8377 56.3286L16.8277 55.4286ZM17.3377 54.7886L16.6277 54.2286L16.1177 54.8786L16.8277 55.4386L17.5377 55.9986L18.0477 55.3486L17.3377 54.7886ZM17.8477 55.4286L18.5577 54.8786L18.0577 54.2286L17.3477 54.7786L16.6377 55.3286L17.1377 55.9786L17.8477 55.4286ZM18.7477 55.4386L18.7577 54.5386L17.8477 54.5286L17.8377 55.4286L17.8277 56.3286L18.7377 56.3386L18.7477 55.4386ZM17.8377 54.2786L17.1277 54.8386L18.0477 55.9986L18.7577 55.4386L19.4677 54.8786L18.5477 53.7186L17.8377 54.2786ZM16.8377 54.2786V55.1786H17.8277V54.2786V53.3786H16.8377V54.2786ZM15.9477 55.4386L15.2377 54.8886L14.0977 56.3586L15.9577 56.3386L15.9477 55.4386ZM16.8277 55.4286L16.8377 56.3286L17.2677 56.3186L17.5377 55.9786L16.8277 55.4286ZM17.3377 54.7886L18.0477 54.2386L17.3477 53.3286L16.6377 54.2286L17.3377 54.7886ZM17.8477 55.4286L17.1377 55.9786L17.4077 56.3186L17.8377 56.3286L17.8477 55.4286ZM18.7477 55.4386L18.7377 56.3386L20.6277 56.3586L19.4577 54.8786L18.7477 55.4386ZM17.8377 54.2786L18.5477 53.7186L18.2777 53.3786H17.8377V54.2786ZM16.8377 54.2786V53.3786H16.3977L16.1277 53.7286L16.8377 54.2786Z" fill="white"/>
<path d="M18.4077 55.3988L19.1577 54.2488H20.3777L19.1977 55.3988H18.4077Z" fill="#D2AB56"/>
<path d="M19.1978 55.3986V54.4986H18.4078V55.3986V56.2986H19.1978V55.3986ZM20.3778 54.2486L19.7478 53.6086L18.5778 54.7586L19.2078 55.3986L19.8378 56.0386L21.0078 54.8886L20.3778 54.2486ZM19.1578 54.2486V55.1486H20.3778V54.2486V53.3486H19.1578V54.2486ZM18.4078 55.3986L19.1678 55.8886L19.9178 54.7386L19.1578 54.2486L18.3978 53.7586L17.6478 54.9086L18.4078 55.3986ZM19.1978 55.3986V56.2986H19.5678L19.8278 56.0386L19.1978 55.3986ZM20.3778 54.2486L21.0078 54.8886L22.5778 53.3486H20.3778V54.2486ZM19.1578 54.2486V53.3486H18.6678L18.3978 53.7586L19.1578 54.2486ZM18.4078 55.3986L17.6478 54.9086L16.7478 56.2986H18.4078V55.3986Z" fill="white"/>
<path d="M34.6778 54.2788H35.6578L36.5778 55.4388L35.6778 55.4288L35.1678 54.7888L34.6578 55.4288L33.7878 55.4388L34.6778 54.2788Z" fill="#D2AB56"/>
<path d="M33.7877 55.4386L34.4977 55.9886L35.3977 54.8286L34.6877 54.2786L33.9777 53.7286L33.0777 54.8886L33.7877 55.4386ZM34.6577 55.4286L34.6477 54.5286L33.7777 54.5386L33.7877 55.4386L33.7977 56.3386L34.6677 56.3286L34.6577 55.4286ZM35.1677 54.7886L34.4577 54.2286L33.9477 54.8786L34.6577 55.4386L35.3677 55.9986L35.8777 55.3486L35.1677 54.7886ZM35.6777 55.4286L36.3877 54.8686L35.8777 54.2186L35.1677 54.7786L34.4577 55.3386L34.9677 55.9886L35.6777 55.4286ZM36.5777 55.4386L36.5877 54.5386L35.6877 54.5286L35.6777 55.4286L35.6677 56.3286L36.5677 56.3386L36.5777 55.4386ZM35.6577 54.2786L34.9477 54.8386L35.8677 55.9986L36.5777 55.4386L37.2877 54.8786L36.3677 53.7186L35.6577 54.2786ZM34.6777 54.2786V55.1786H35.6577V54.2786V53.3786H34.6777V54.2786ZM33.7877 55.4386L33.0777 54.8886L31.9377 56.3586L33.7977 56.3386L33.7877 55.4386ZM34.6577 55.4286L34.6677 56.3286L35.0977 56.3186L35.3677 55.9786L34.6577 55.4286ZM35.1677 54.7886L35.8777 54.2286L35.1677 53.3386L34.4577 54.2286L35.1677 54.7886ZM35.6777 55.4286L34.9677 55.9886L35.2377 56.3286L35.6677 56.3386L35.6777 55.4286ZM36.5777 55.4386L36.5677 56.3386L38.4577 56.3586L37.2877 54.8786L36.5777 55.4386ZM35.6577 54.2786L36.3677 53.7186L36.0977 53.3786H35.6577V54.2786ZM34.6777 54.2786V53.3786H34.2377L33.9677 53.7286L34.6777 54.2786Z" fill="white"/>
<path d="M36.1677 55.3988L36.9077 54.2488H38.1377L36.9577 55.3988H36.1677Z" fill="#D2AB56"/>
<path d="M36.9578 55.3986V54.4986H36.1678V55.3986V56.2986H36.9578V55.3986ZM38.1378 54.2486L37.5078 53.6086L36.3378 54.7586L36.9678 55.3986L37.5978 56.0386L38.7678 54.8886L38.1378 54.2486ZM36.9078 54.2486V55.1486H38.1378V54.2486V53.3486H36.9078V54.2486ZM36.1678 55.3986L36.9278 55.8786L37.6678 54.7286L36.9078 54.2486L36.1478 53.7686L35.4078 54.9186L36.1678 55.3986ZM36.9578 55.3986V56.2986H37.3278L37.5878 56.0386L36.9578 55.3986ZM38.1378 54.2486L38.7678 54.8886L40.3378 53.3486H38.1378V54.2486ZM36.9078 54.2486V53.3486H36.4178L36.1478 53.7686L36.9078 54.2486ZM36.1678 55.3986L35.4078 54.9186L34.5178 56.2986H36.1578V55.3986H36.1678Z" fill="white"/>
<path d="M72.1577 55.3988L72.8977 54.2488H74.1177L72.9577 55.3988H72.1577Z" fill="#D2AB56"/>
<path d="M72.9578 55.3986V54.4986H72.1578V55.3986V56.2986H72.9578V55.3986ZM74.1178 54.2486L73.4878 53.6086L72.3278 54.7586L72.9578 55.3986L73.5878 56.0386L74.7478 54.8886L74.1178 54.2486ZM72.8978 54.2486V55.1486H74.1178V54.2486V53.3486H72.8978V54.2486ZM72.1578 55.3986L72.9178 55.8886L73.6678 54.7386L72.9078 54.2486L72.1478 53.7586L71.3978 54.9086L72.1578 55.3986ZM72.9578 55.3986V56.2986H73.3278L73.5878 56.0386L72.9578 55.3986ZM74.1178 54.2486L74.7478 54.8886L76.3078 53.3486H74.1178V54.2486ZM72.8978 54.2486V53.3486H72.4078L72.1378 53.7586L72.8978 54.2486ZM72.1578 55.3986L71.3978 54.9086L70.4978 56.2986H72.1578V55.3986Z" fill="white"/>
<path d="M74.2478 55.0288H75.0778V55.7088C75.0778 55.9788 75.0078 56.1888 74.8678 56.3288C74.7278 56.4788 74.5178 56.5588 74.2378 56.5588V56.1988C74.3478 56.1988 74.4278 56.1488 74.5078 56.0788C74.5778 56.0188 74.6178 55.9388 74.6178 55.8388H74.2478V55.0188V55.0288Z" fill="#D2AB56"/>
<path d="M74.2379 55.0287V55.9287H74.2479V55.0287V54.1287H74.2379V55.0287ZM74.2379 55.8487H75.1379V55.0287H74.2379H73.3379V55.8487H74.2379ZM74.6079 55.8487V54.9487H74.2379V55.8487V56.7487H74.6079V55.8487ZM74.4979 56.0887L75.0879 56.7687C75.3679 56.5287 75.5079 56.1987 75.5079 55.8487H74.6079H73.7079C73.7079 55.7987 73.7179 55.7087 73.7579 55.6087C73.7979 55.5087 73.8579 55.4387 73.9079 55.3987L74.4979 56.0887ZM74.2379 56.1987V57.0987C74.6679 57.0987 74.9579 56.8787 75.0979 56.7587L74.5079 56.0787L73.9179 55.3987C73.8979 55.4187 74.0179 55.2987 74.2379 55.2987V56.1987ZM74.2379 56.5587H75.1379V56.1987H74.2379H73.3379V56.5487H74.2379V56.5587ZM74.8679 56.3287L74.2079 55.7187C74.2279 55.6987 74.2479 55.6787 74.2679 55.6687C74.2879 55.6587 74.2979 55.6487 74.3079 55.6487C74.3179 55.6487 74.3079 55.6487 74.2479 55.6487V56.5487V57.4487C74.6779 57.4487 75.1779 57.3287 75.5379 56.9287L74.8679 56.3287ZM75.0779 55.7087H74.1779C74.1779 55.7587 74.1679 55.7787 74.1679 55.7787C74.1679 55.7687 74.1879 55.7387 74.2179 55.6987L74.8579 56.3287L75.4979 56.9587C75.8579 56.5987 75.9679 56.1287 75.9679 55.6987H75.0779V55.7087ZM75.0779 55.0287H74.1779V55.7087H75.0779H75.9779V55.0287H75.0779ZM74.2479 55.0287V55.9287H75.0779V55.0287V54.1287H74.2479V55.0287ZM74.2379 55.0287V54.1287H73.3379V55.0287H74.2379ZM74.2379 55.8487H73.3379V56.7487H74.2379V55.8487ZM74.6079 55.8487H75.5079V54.9487H74.6079V55.8487ZM74.2379 56.1987V55.2987H73.3379V56.1987H74.2379ZM74.2379 56.5587H73.3379V57.4587H74.2379V56.5587ZM74.8679 56.3287L74.2279 55.6987L74.2179 55.7087L74.2079 55.7187L74.8679 56.3287ZM75.0779 55.0287H75.9779V54.1287H75.0779V55.0287Z" fill="white"/>
<path d="M11.6979 62.5788V60.1988L12.1079 59.4588H12.1279L13.0679 62.5888H14.2379L12.8279 58.3588L14.0779 55.8488H12.9279L11.7179 58.3388H11.6979V55.8488H10.5479V62.5888H11.6979V62.5788ZM18.9979 62.5788V61.5688H16.9279V59.5888H18.4179V58.5788H16.9279V56.8488H18.8679V55.8388H15.7779V62.5788H18.9979ZM21.6079 62.5788H22.7579V56.8588H23.8779V55.8488H20.4879V56.8588H21.6079V62.5788ZM28.7079 62.5788V58.3688H28.7279L30.1979 62.5788H31.1979V55.8388H30.1479V59.6888H30.1278L28.7178 55.8388H27.6479V62.5788H28.7079ZM33.3479 60.9488C33.3479 61.8988 33.8979 62.6688 35.1179 62.6688C36.3379 62.6688 36.8879 61.8988 36.8879 60.9488V57.4888C36.8879 56.5388 36.3379 55.7688 35.1179 55.7688C33.8979 55.7688 33.3479 56.5388 33.3479 57.4888V60.9488ZM34.4979 57.5088C34.4979 56.9988 34.6479 56.7688 35.1079 56.7688C35.5679 56.7688 35.7279 57.0188 35.7279 57.5088V60.9188C35.7279 61.4288 35.5779 61.6588 35.1079 61.6588C34.6379 61.6588 34.4979 61.4088 34.4979 60.9188V57.5088ZM40.2479 62.5788V55.8388H39.0979V62.5788H40.2479ZM45.2979 62.5788H46.4479V56.8588H47.5679V55.8488H44.1779V56.8588H45.2979V62.5788ZM50.4379 56.8088H50.8479C51.4779 56.8088 51.6979 57.0488 51.6979 57.8388C51.6979 58.6288 51.4678 58.8688 50.8479 58.8688H50.4379V56.8088ZM50.4379 59.8288C50.6379 59.8288 50.8879 59.8288 51.0379 59.7988L51.8579 62.5888H53.0279L52.0479 59.5488C52.4379 59.3788 52.8579 58.9388 52.8579 57.8488C52.8579 56.4188 52.1979 55.8588 50.9079 55.8588H49.2879V62.5988H50.4379V59.8288ZM56.0079 62.5988V55.8588H54.8579V62.5988H56.0079ZM61.0479 62.5988H62.1979V56.8788H63.3179V55.8688H59.9279V56.8788H61.0479V62.5988ZM66.1879 62.5988V59.6188H67.4179V62.5988H68.5679V55.8588H67.4179V58.5988H66.1879V55.8588H65.0379V62.5988H66.1879ZM70.7279 60.8988C70.7279 62.0588 71.3979 62.6888 72.4979 62.6888C73.5979 62.6888 74.2678 62.0588 74.2678 60.8988V55.8588H73.1179V60.9388C73.1179 61.4288 72.9279 61.6788 72.4979 61.6788C72.0679 61.6788 71.8778 61.4288 71.8778 60.9388V55.8588H70.7279V60.8988ZM79.8979 58.1088V57.6188C79.8979 56.6088 79.3478 55.7688 78.1778 55.7688C77.0079 55.7688 76.4079 56.5388 76.4079 57.4888V60.9488C76.4079 61.8988 76.9578 62.6688 78.1778 62.6688C79.3979 62.6688 79.8979 61.8988 79.8979 60.9488V60.1788H78.7478V60.9888C78.7478 61.4288 78.6078 61.6688 78.1978 61.6688C77.7278 61.6688 77.5779 61.4188 77.5779 60.9288V57.5188C77.5779 57.0088 77.7278 56.7788 78.1978 56.7788C78.4978 56.7788 78.7478 57.0288 78.7478 57.5888V58.1188H79.8979V58.1088Z" fill="#D2AB56"/>
<path d="M10.5477 62.5786V63.4786H11.6977V62.5786V61.6786H10.5477V62.5786ZM10.5477 55.8486H9.64771V62.5886H10.5477H11.4477V55.8486H10.5477ZM11.6977 55.8486V54.9486H10.5477V55.8486V56.7486H11.6977V55.8486ZM11.6977 58.3386H12.5977V55.8486H11.6977H10.7977V58.3386H11.6977ZM11.7177 58.3386V57.4386H11.6977V58.3386V59.2386H11.7177V58.3386ZM12.9277 55.8486L12.1177 55.4586L10.9077 57.9486L11.7177 58.3386L12.5277 58.7286L13.7377 56.2386L12.9277 55.8486ZM14.0777 55.8486V54.9486H12.9277V55.8486V56.7486H14.0777V55.8486ZM12.8277 58.3586L13.6377 58.7586L14.8877 56.2486L14.0777 55.8486L13.2677 55.4486L12.0177 57.9586L12.8277 58.3586ZM14.2377 62.5786L15.0877 62.2986L13.6777 58.0686L12.8277 58.3486L11.9777 58.6286L13.3877 62.8586L14.2377 62.5786ZM13.0677 62.5786V63.4786H14.2377V62.5786V61.6786H13.0677V62.5786ZM12.1277 59.4486L11.2677 59.7086L12.2077 62.8386L13.0677 62.5786L13.9277 62.3186L12.9877 59.1886L12.1277 59.4486ZM12.1077 59.4486V60.3486H12.1277V59.4486V58.5486H12.1077V59.4486ZM11.6977 60.1986L12.4877 60.6286L12.8977 59.8886L12.1077 59.4586L11.3177 59.0286L10.9077 59.7686L11.6977 60.1986ZM11.6977 62.5786H12.5977V60.1986H11.6977H10.7977V62.5886H11.6977V62.5786ZM18.9977 62.5686H18.0977V62.5786H18.9977H19.8977V62.5686H18.9977ZM15.7777 62.5686V63.4686H18.9977V62.5686V61.6686H15.7777V62.5686ZM15.7777 55.8386H14.8777V62.5786H15.7777H16.6777V55.8386H15.7777ZM18.8677 55.8386V54.9386H15.7777V55.8386V56.7386H18.8677V55.8386ZM18.8677 56.8486H19.7677V55.8386H18.8677H17.9677V56.8486H18.8677ZM16.9277 56.8486V57.7486H18.8677V56.8486V55.9486H16.9277V56.8486ZM16.9277 58.5786H17.8277V56.8486H16.9277H16.0277V58.5786H16.9277ZM18.4177 58.5786V57.6786H16.9277V58.5786V59.4786H18.4177V58.5786ZM18.4177 59.5886H19.3177V58.5786H18.4177H17.5177V59.5886H18.4177ZM16.9277 59.5886V60.4886H18.4177V59.5886V58.6886H16.9277V59.5886ZM16.9277 61.5686H17.8277V59.5886H16.9277H16.0277V61.5686H16.9277ZM18.9977 61.5686V60.6686H16.9277V61.5686V62.4686H18.9977V61.5686ZM18.9977 62.5786H19.8977V61.5686H18.9977H18.0977V62.5786H18.9977ZM21.6077 56.8586H20.7077V62.5786H21.6077H22.5077V56.8586H21.6077ZM20.4877 56.8586V57.7586H21.6077V56.8586V55.9586H20.4877V56.8586ZM20.4877 55.8486H19.5877V56.8586H20.4877H21.3877V55.8486H20.4877ZM23.8777 55.8486V54.9486H20.4877V55.8486V56.7486H23.8777V55.8486ZM23.8777 56.8586H24.7777V55.8486H23.8777H22.9777V56.8586H23.8777ZM22.7577 56.8586V57.7586H23.8777V56.8586V55.9586H22.7577V56.8586ZM22.7577 62.5786H23.6577V56.8586H22.7577H21.8577V62.5786H22.7577ZM21.6077 62.5786V63.4786H22.7577V62.5786V61.6786H21.6077V62.5786ZM27.6577 62.5786V63.4786H28.7077V62.5786V61.6786H27.6577V62.5786ZM27.6577 55.8486H26.7577V62.5886H27.6577H28.5577V55.8486H27.6577ZM28.7277 55.8486V54.9486H27.6577V55.8486V56.7486H28.7277V55.8486ZM30.1377 59.6986L30.9877 59.3886L29.5777 55.5386L28.7277 55.8486L27.8777 56.1586L29.2877 60.0086L30.1377 59.6986ZM30.1577 59.6986V58.7986H30.1377V59.6986V60.5986H30.1577V59.6986ZM30.1577 55.8486H29.2577V59.6986H30.1577H31.0577V55.8486H30.1577ZM31.1977 55.8486V54.9486H30.1477V55.8486V56.7486H31.1977V55.8486ZM31.1977 62.5786H32.0977V55.8386H31.1977H30.2977V62.5786H31.1977ZM30.1977 62.5786V63.4786H31.1977V62.5786V61.6786H30.1977V62.5786ZM28.7277 58.3786L27.8777 58.6786L29.3477 62.8886L30.1977 62.5886L31.0477 62.2886L29.5777 58.0786L28.7277 58.3786ZM28.7077 58.3786V59.2786H28.7277V58.3786V57.4786H28.7077V58.3786ZM28.7077 62.5786H29.6077V58.3686H28.7077H27.8077V62.5786H28.7077ZM33.3477 57.4786H32.4477V60.9386H33.3477H34.2477V57.4786H33.3477ZM35.1177 55.7586V54.8586C34.3077 54.8586 33.6077 55.1186 33.1177 55.6486C32.6377 56.1686 32.4477 56.8386 32.4477 57.4786H33.3477H34.2477C34.2477 57.1786 34.3377 56.9886 34.4377 56.8786C34.5277 56.7786 34.7077 56.6586 35.1177 56.6586V55.7586ZM36.8877 57.4786H37.7877C37.7877 56.8386 37.5977 56.1686 37.1177 55.6486C36.6277 55.1186 35.9277 54.8586 35.1177 54.8586V55.7586V56.6586C35.5277 56.6586 35.7077 56.7786 35.7977 56.8786C35.8977 56.9886 35.9877 57.1786 35.9877 57.4786H36.8877ZM36.8877 60.9486H37.7877V57.4886H36.8877H35.9877V60.9486H36.8877ZM35.1177 62.6686V63.5686C35.9277 63.5686 36.6277 63.3086 37.1177 62.7786C37.5977 62.2586 37.7877 61.5886 37.7877 60.9486H36.8877H35.9877C35.9877 61.2486 35.8977 61.4386 35.7977 61.5486C35.7077 61.6486 35.5277 61.7686 35.1177 61.7686V62.6686ZM33.3477 60.9486H32.4477C32.4477 61.5886 32.6377 62.2586 33.1177 62.7786C33.6077 63.3086 34.3077 63.5686 35.1177 63.5686V62.6686V61.7686C34.7077 61.7686 34.5277 61.6486 34.4377 61.5486C34.3377 61.4386 34.2477 61.2486 34.2477 60.9486H33.3477ZM34.4977 60.9186H35.3977V57.5086H34.4977H33.5977V60.9186H34.4977ZM35.1077 61.6586V60.7586C35.0677 60.7586 35.0877 60.7486 35.1477 60.7786C35.2177 60.8086 35.2877 60.8586 35.3477 60.9386C35.3977 61.0086 35.4077 61.0586 35.4077 61.0586C35.4077 61.0486 35.3977 61.0086 35.3977 60.9286H34.4977H33.5977C33.5977 61.2186 33.6277 61.6586 33.9077 62.0286C34.2377 62.4686 34.7177 62.5686 35.1077 62.5686V61.6586ZM35.7277 60.9186H34.8277C34.8277 60.9586 34.8277 60.9886 34.8277 61.0186C34.8277 61.0286 34.8277 61.0386 34.8277 61.0386C34.8277 61.0286 34.8377 61.0286 34.8377 61.0086C34.8477 60.9886 34.8677 60.9586 34.8877 60.9186C34.9477 60.8386 35.0277 60.7886 35.0877 60.7686C35.1377 60.7486 35.1577 60.7586 35.1077 60.7586V61.6586V62.5586C35.4877 62.5586 35.9677 62.4586 36.2977 62.0286C36.5877 61.6586 36.6277 61.2086 36.6277 60.9086H35.7277V60.9186ZM35.7277 57.5086H34.8277V60.9186H35.7277H36.6277V57.5086H35.7277ZM35.1077 56.7586V57.6586C35.1477 57.6586 35.1277 57.6686 35.0677 57.6486C35.0077 57.6286 34.9377 57.5786 34.8777 57.5086C34.8477 57.4786 34.8377 57.4486 34.8277 57.4286C34.8177 57.4086 34.8177 57.3986 34.8177 57.3986C34.8177 57.3986 34.8177 57.4086 34.8177 57.4286C34.8177 57.4486 34.8177 57.4786 34.8177 57.5186H35.7177H36.6177C36.6177 57.2086 36.5777 56.7686 36.2877 56.4086C35.9577 55.9886 35.4877 55.8786 35.0977 55.8786V56.7586H35.1077ZM34.4977 57.5086H35.3977C35.3977 57.4186 35.4077 57.3886 35.4077 57.3786C35.4077 57.3786 35.3977 57.4286 35.3477 57.4986C35.2877 57.5786 35.2077 57.6286 35.1477 57.6486C35.0977 57.6686 35.0677 57.6586 35.1177 57.6586V56.7586V55.8586C34.7377 55.8586 34.2577 55.9586 33.9277 56.3886C33.6377 56.7586 33.6077 57.1986 33.6077 57.4986H34.4977V57.5086ZM39.0977 62.5786V63.4786H40.2477V62.5786V61.6786H39.0977V62.5786ZM39.0977 55.8486H38.1977V62.5886H39.0977H39.9977V55.8486H39.0977ZM40.2477 55.8486V54.9486H39.0977V55.8486V56.7486H40.2477V55.8486ZM40.2477 62.5786H41.1477V55.8386H40.2477H39.3477V62.5786H40.2477ZM45.2977 56.8586H44.3977V62.5786H45.2977H46.1977V56.8586H45.2977ZM44.1777 56.8586V57.7586H45.2977V56.8586V55.9586H44.1777V56.8586ZM44.1777 55.8486H43.2777V56.8586H44.1777H45.0777V55.8486H44.1777ZM47.5677 55.8486V54.9486H44.1777V55.8486V56.7486H47.5677V55.8486ZM47.5677 56.8586H48.4677V55.8486H47.5677H46.6677V56.8586H47.5677ZM46.4477 56.8586V57.7586H47.5677V56.8586V55.9586H46.4477V56.8586ZM46.4477 62.5786H47.3477V56.8586H46.4477H45.5477V62.5786H46.4477ZM45.2977 62.5786V63.4786H46.4477V62.5786V61.6786H45.2977V62.5786ZM50.4377 58.8686H51.3377V56.7986H50.4377H49.5377V58.8686H50.4377ZM50.8377 58.8686V57.9686H50.4277V58.8686V59.7686H50.8377V58.8686ZM51.6977 57.8386H50.7977C50.7977 57.9186 50.7977 57.9786 50.7877 58.0286C50.7877 58.0786 50.7777 58.1086 50.7777 58.1286C50.7677 58.1686 50.7677 58.1286 50.8177 58.0686C50.8477 58.0386 50.8677 58.0186 50.8977 57.9986C50.9277 57.9786 50.9477 57.9686 50.9577 57.9686C50.9677 57.9686 50.9577 57.9686 50.9377 57.9686C50.9177 57.9686 50.8777 57.9786 50.8277 57.9786V58.8786V59.7786C51.2177 59.7786 51.7677 59.7086 52.1677 59.2486C52.5277 58.8286 52.5777 58.2786 52.5777 57.8486H51.6977V57.8386ZM50.8377 56.8086V57.7086C50.8877 57.7086 50.9277 57.7086 50.9477 57.7186C50.9677 57.7286 50.9777 57.7186 50.9677 57.7186C50.9577 57.7186 50.9377 57.7086 50.9077 57.6886C50.8777 57.6686 50.8477 57.6386 50.8177 57.6086C50.7677 57.5486 50.7677 57.5086 50.7677 57.5486C50.7677 57.5686 50.7777 57.5986 50.7777 57.6486C50.7777 57.6986 50.7877 57.7586 50.7877 57.8386H51.6877H52.5877C52.5877 57.4186 52.5377 56.8686 52.1877 56.4386C51.7877 55.9686 51.2277 55.8986 50.8377 55.8986V56.8086ZM50.4377 56.8086V57.7086H50.8477V56.8086V55.9086H50.4377V56.8086ZM50.4377 59.8186H49.5377V59.8286H50.4377H51.3377V59.8186H50.4377ZM50.4377 62.5786H51.3377V59.8086H50.4377H49.5377V62.5786H50.4377ZM49.2877 62.5786V63.4786H50.4377V62.5786V61.6786H49.2877V62.5786ZM49.2877 55.8486H48.3877V62.5886H49.2877H50.1877V55.8486H49.2877ZM50.9077 55.8486V54.9486H49.2877V55.8486V56.7486H50.9077V55.8486ZM52.8577 57.8386H53.7577C53.7577 56.9986 53.5677 56.2186 52.9977 55.6586C52.4277 55.1086 51.6577 54.9486 50.9077 54.9486V55.8486V56.7486C51.4477 56.7486 51.6577 56.8686 51.7377 56.9486C51.8177 57.0286 51.9577 57.2386 51.9577 57.8386H52.8577ZM52.0477 59.5386L52.4077 60.3586C52.7677 60.1986 53.1277 59.9186 53.3777 59.4786C53.6277 59.0386 53.7577 58.4886 53.7577 57.8386H52.8577H51.9577C51.9577 58.2686 51.8777 58.4886 51.8177 58.5886C51.7677 58.6786 51.7177 58.6986 51.6877 58.7186L52.0477 59.5386ZM53.0277 62.5786L53.8877 62.2986L52.9077 59.2586L52.0477 59.5386L51.1877 59.8186L52.1677 62.8586L53.0277 62.5786ZM51.8577 62.5786V63.4786H53.0277V62.5786V61.6786H51.8577V62.5786ZM51.0277 59.7986L50.1677 60.0486L50.9877 62.8386L51.8477 62.5886L52.7077 62.3386L51.8877 59.5486L51.0277 59.7986ZM50.4377 59.8286V60.7286C50.5977 60.7286 50.9577 60.7286 51.2277 60.6786L51.0377 59.7986L50.8477 58.9186C50.8577 58.9186 50.8477 58.9186 50.8277 58.9186C50.8077 58.9186 50.7677 58.9186 50.7277 58.9286C50.6377 58.9286 50.5477 58.9286 50.4477 58.9286V59.8286H50.4377ZM54.8477 62.5986V63.4986H55.9977V62.5986V61.6986H54.8477V62.5986ZM54.8477 55.8586H53.9477V62.5986H54.8477H55.7477V55.8586H54.8477ZM56.0077 55.8586V54.9586H54.8577V55.8586V56.7586H56.0077V55.8586ZM56.0077 62.5986H56.9077V55.8586H56.0077H55.1077V62.5986H56.0077ZM61.0477 56.8686H60.1477V62.5886H61.0477H61.9477V56.8686H61.0477ZM59.9277 56.8686V57.7686H61.0477V56.8686V55.9686H59.9277V56.8686ZM59.9277 55.8586H59.0277V56.8686H59.9277H60.8277V55.8586H59.9277ZM63.3177 55.8586V54.9586H59.9277V55.8586V56.7586H63.3177V55.8586ZM63.3177 56.8686H64.2177V55.8586H63.3177H62.4177V56.8686H63.3177ZM62.1977 56.8686V57.7686H63.3177V56.8686V55.9686H62.1977V56.8686ZM62.1977 62.5986H63.0977V56.8786H62.1977H61.2977V62.5986H62.1977ZM61.0477 62.5986V63.4986H62.1977V62.5986V61.6986H61.0477V62.5986ZM65.0377 62.5986V63.4986H66.1877V62.5986V61.6986H65.0377V62.5986ZM65.0377 55.8586H64.1377V62.5986H65.0377H65.9377V55.8586H65.0377ZM66.1877 55.8586V54.9586H65.0377V55.8586V56.7586H66.1877V55.8586ZM66.1877 58.5986H67.0877V55.8586H66.1877H65.2877V58.5986H66.1877ZM67.4177 58.5986V57.6986H66.1877V58.5986V59.4986H67.4177V58.5986ZM67.4177 55.8586H66.5177V58.5986H67.4177H68.3177V55.8586H67.4177ZM68.5677 55.8586V54.9586H67.4177V55.8586V56.7586H68.5677V55.8586ZM68.5677 62.5986H69.4677V55.8586H68.5677H67.6677V62.5986H68.5677ZM67.4177 62.5986V63.4986H68.5677V62.5986V61.6986H67.4177V62.5986ZM67.4177 59.6186H66.5177V62.5986H67.4177H68.3177V59.6186H67.4177ZM66.1877 59.6186V60.5186H67.4177V59.6186V58.7186H66.1877V59.6186ZM66.1877 62.5986H67.0877V59.6186H66.1877H65.2877V62.5986H66.1877ZM70.7277 55.8586H69.8277V60.8986H70.7277H71.6277V55.8586H70.7277ZM71.8777 55.8586V54.9586H70.7277V55.8586V56.7586H71.8777V55.8586ZM71.8777 60.9386H72.7777V55.8586H71.8777H70.9777V60.9386H71.8777ZM72.4977 61.6786V60.7786C72.4777 60.7786 72.4977 60.7786 72.5577 60.7986C72.6177 60.8186 72.6777 60.8686 72.7277 60.9286C72.7777 60.9886 72.7877 61.0286 72.7877 61.0386C72.7877 61.0386 72.7777 61.0186 72.7777 60.9486H71.8777H70.9777C70.9777 61.2886 71.0377 61.7186 71.3277 62.0786C71.6477 62.4686 72.0977 62.5986 72.4977 62.5986V61.6786ZM73.1177 60.9386H72.2177C72.2177 61.0086 72.2077 61.0386 72.2077 61.0286C72.2077 61.0286 72.2177 60.9786 72.2677 60.9186C72.3177 60.8586 72.3777 60.8186 72.4377 60.7886C72.4877 60.7686 72.5177 60.7686 72.4977 60.7686V61.6686V62.5686C72.8877 62.5686 73.3377 62.4486 73.6677 62.0486C73.9577 61.6886 74.0177 61.2586 74.0177 60.9186H73.1177V60.9386ZM73.1177 55.8586H72.2177V60.9386H73.1177H74.0177V55.8586H73.1177ZM74.2677 55.8586V54.9586H73.1177V55.8586V56.7586H74.2677V55.8586ZM74.2677 60.8986H75.1677V55.8586H74.2677H73.3677V60.8986H74.2677ZM72.4977 62.6786V63.5786C73.2177 63.5786 73.9177 63.3686 74.4277 62.8586C74.9477 62.3486 75.1677 61.6486 75.1677 60.8986H74.2677H73.3677C73.3677 61.2986 73.2577 61.4886 73.1577 61.5886C73.0577 61.6786 72.8677 61.7886 72.4977 61.7886V62.6786ZM70.7277 60.8986H69.8277C69.8277 61.6486 70.0477 62.3586 70.5677 62.8686C71.0877 63.3786 71.7777 63.5886 72.4977 63.5886V62.6886V61.7886C72.1177 61.7886 71.9277 61.6786 71.8277 61.5886C71.7377 61.4986 71.6177 61.3086 71.6177 60.8986H70.7277ZM79.8977 58.0986H78.9977V58.1086H79.8977H80.7977V58.0986H79.8977ZM78.7477 58.0986V58.9986H79.8977V58.0986V57.1986H78.7477V58.0986ZM78.7477 57.5686H77.8477V58.0986H78.7477H79.6477V57.5686H78.7477ZM78.1977 56.7586V57.6586C78.1477 57.6586 78.0877 57.6486 78.0177 57.6186C77.9477 57.5886 77.9077 57.5386 77.8777 57.4986C77.8177 57.4286 77.8577 57.4086 77.8577 57.5586H78.7577H79.6577C79.6577 57.1486 79.5677 56.7386 79.3077 56.3986C79.0277 56.0386 78.6277 55.8486 78.2077 55.8486V56.7586H78.1977ZM77.5777 57.5086H78.4777C78.4777 57.4686 78.4777 57.4386 78.4777 57.4086C78.4777 57.3986 78.4777 57.3886 78.4777 57.3786C78.4777 57.3886 78.4677 57.3886 78.4677 57.4086C78.4577 57.4286 78.4377 57.4586 78.4177 57.4986C78.3577 57.5786 78.2777 57.6286 78.2177 57.6486C78.1677 57.6686 78.1477 57.6586 78.1977 57.6586V56.7586V55.8586C77.8177 55.8586 77.3377 55.9586 77.0077 56.3886C76.7177 56.7586 76.6777 57.2086 76.6777 57.5086H77.5777ZM77.5777 60.9186H78.4777V57.5086H77.5777H76.6777V60.9186H77.5777ZM78.1977 61.6586V60.7586C78.1577 60.7586 78.1777 60.7486 78.2277 60.7686C78.2877 60.7886 78.3677 60.8386 78.4277 60.9186C78.4577 60.9486 78.4677 60.9786 78.4777 60.9986C78.4777 61.0086 78.4877 61.0186 78.4877 61.0186C78.4877 61.0086 78.4877 61.0086 78.4877 60.9986C78.4877 60.9786 78.4877 60.9486 78.4877 60.9086H77.5877H76.6877C76.6877 61.2086 76.7277 61.6486 77.0077 62.0186C77.3377 62.4486 77.8177 62.5486 78.2077 62.5486V61.6586H78.1977ZM78.7477 60.9786H77.8477C77.8477 61.0486 77.8377 61.0686 77.8477 61.0686C77.8477 61.0586 77.8577 61.0086 77.9177 60.9386C77.9777 60.8586 78.0477 60.8086 78.1277 60.7786C78.1877 60.7486 78.2277 60.7586 78.2077 60.7586V61.6586V62.5586C78.5877 62.5586 79.0477 62.4386 79.3577 62.0286C79.6277 61.6786 79.6577 61.2586 79.6577 60.9786H78.7477ZM78.7477 60.1686H77.8477V60.9786H78.7477H79.6477V60.1686H78.7477ZM79.8977 60.1686V59.2686H78.7477V60.1686V61.0686H79.8977V60.1686ZM79.8977 60.9486H80.7977V60.1786H79.8977H78.9977V60.9486H79.8977ZM78.1877 62.6686V63.5686C78.9977 63.5686 79.6977 63.2986 80.1777 62.7586C80.6477 62.2386 80.8077 61.5686 80.8077 60.9486H79.9077H78.9977C78.9977 61.2786 78.9077 61.4686 78.8177 61.5686C78.7477 61.6486 78.5777 61.7686 78.1777 61.7686V62.6686H78.1877ZM76.4077 60.9486H75.5077C75.5077 61.5886 75.6977 62.2586 76.1777 62.7786C76.6677 63.3086 77.3677 63.5686 78.1777 63.5686V62.6686V61.7686C77.7677 61.7686 77.5877 61.6486 77.4977 61.5486C77.3977 61.4386 77.3077 61.2486 77.3077 60.9486H76.4077ZM76.4077 57.4786H75.5077V60.9386H76.4077H77.3077V57.4786H76.4077ZM78.1877 55.7586V54.8586C77.3977 54.8586 76.7077 55.1286 76.2177 55.6386C75.7377 56.1486 75.5177 56.8086 75.5177 57.4786H76.4177H77.3177C77.3177 57.1986 77.4077 56.9986 77.5177 56.8886C77.6177 56.7786 77.8177 56.6586 78.1877 56.6586V55.7586ZM79.8977 57.6086H80.7977C80.7977 56.9486 80.6177 56.2586 80.1577 55.7186C79.6877 55.1586 78.9877 54.8486 78.1777 54.8486V55.7486V56.6486C78.5277 56.6486 78.6877 56.7586 78.7877 56.8786C78.8977 57.0086 78.9977 57.2486 78.9977 57.5986H79.8977V57.6086ZM79.8977 58.1086H80.7977V57.6186H79.8977H78.9977V58.1086H79.8977ZM10.5477 62.5786H9.64771V63.4786H10.5477V62.5786ZM10.5477 55.8486V54.9486H9.64771V55.8486H10.5477ZM11.6977 55.8486H12.5977V54.9486H11.6977V55.8486ZM11.6977 58.3386H10.7977V59.2386H11.6977V58.3386ZM11.7177 58.3386V59.2386H12.2777L12.5277 58.7286L11.7177 58.3386ZM12.9277 55.8486V54.9486H12.3677L12.1177 55.4586L12.9277 55.8486ZM14.0777 55.8486L14.8877 56.2486L15.5377 54.9486H14.0877V55.8486H14.0777ZM12.8277 58.3586L12.0177 57.9586L11.8477 58.2886L11.9677 58.6386L12.8277 58.3586ZM14.2377 62.5786V63.4786H15.4877L15.0977 62.2986L14.2377 62.5786ZM13.0677 62.5786L12.2077 62.8386L12.3977 63.4786H13.0677V62.5786ZM12.1277 59.4486L12.9877 59.1886L12.7977 58.5486H12.1277V59.4486ZM12.1077 59.4486V58.5486H11.5777L11.3177 59.0186L12.1077 59.4486ZM11.6977 60.1986L10.9077 59.7686L10.7977 59.9686V60.1986H11.6977ZM11.6977 62.5786V63.4786H12.5977V62.5786H11.6977ZM18.9977 62.5686H19.8977V61.6686H18.9977V62.5686ZM15.7777 62.5686H14.8777V63.4686H15.7777V62.5686ZM15.7777 55.8386V54.9386H14.8777V55.8386H15.7777ZM18.8677 55.8386H19.7677V54.9386H18.8677V55.8386ZM18.8677 56.8486V57.7486H19.7677V56.8486H18.8677ZM16.9277 56.8486V55.9486H16.0277V56.8486H16.9277ZM16.9277 58.5786H16.0277V59.4786H16.9277V58.5786ZM18.4177 58.5786H19.3177V57.6786H18.4177V58.5786ZM18.4177 59.5886V60.4886H19.3177V59.5886H18.4177ZM16.9277 59.5886V58.6886H16.0277V59.5886H16.9277ZM16.9277 61.5686H16.0277V62.4686H16.9277V61.5686ZM18.9977 61.5686H19.8977V60.6686H18.9977V61.5686ZM21.6077 56.8586H22.5077V55.9586H21.6077V56.8586ZM20.4877 56.8586H19.5877V57.7586H20.4877V56.8586ZM20.4877 55.8486V54.9486H19.5877V55.8486H20.4877ZM23.8777 55.8486H24.7777V54.9486H23.8777V55.8486ZM23.8777 56.8586V57.7586H24.7777V56.8586H23.8777ZM22.7577 56.8586V55.9586H21.8577V56.8586H22.7577ZM22.7577 62.5786V63.4786H23.6577V62.5786H22.7577ZM21.6077 62.5786H20.7077V63.4786H21.6077V62.5786ZM27.6577 62.5786H26.7577V63.4786H27.6577V62.5786ZM27.6577 55.8486V54.9486H26.7577V55.8486H27.6577ZM28.7277 55.8486L29.5777 55.5386L29.3577 54.9486H28.7277V55.8486ZM30.1377 59.6986L29.2877 60.0086L29.5077 60.5986H30.1377V59.6986ZM30.1577 59.6986V60.5986H31.0577V59.6986H30.1577ZM30.1577 55.8486V54.9486H29.2577V55.8486H30.1577ZM31.1977 55.8486H32.0977V54.9486H31.1977V55.8486ZM31.1977 62.5786V63.4786H32.0977V62.5786H31.1977ZM30.1977 62.5786L29.3477 62.8786L29.5577 63.4786H30.1977V62.5786ZM28.7277 58.3786L29.5777 58.0786L29.3677 57.4786H28.7277V58.3786ZM28.7077 58.3786V57.4786H27.8077V58.3786H28.7077ZM28.7077 62.5786V63.4786H29.6077V62.5786H28.7077ZM39.0977 62.5786H38.1977V63.4786H39.0977V62.5786ZM39.0977 55.8486V54.9486H38.1977V55.8486H39.0977ZM40.2477 55.8486H41.1477V54.9486H40.2477V55.8486ZM40.2477 62.5786V63.4786H41.1477V62.5786H40.2477ZM45.2977 56.8586H46.1977V55.9586H45.2977V56.8586ZM44.1777 56.8586H43.2777V57.7586H44.1777V56.8586ZM44.1777 55.8486V54.9486H43.2777V55.8486H44.1777ZM47.5677 55.8486H48.4677V54.9486H47.5677V55.8486ZM47.5677 56.8586V57.7586H48.4677V56.8586H47.5677ZM46.4477 56.8586V55.9586H45.5477V56.8586H46.4477ZM46.4477 62.5786V63.4786H47.3477V62.5786H46.4477ZM45.2977 62.5786H44.3977V63.4786H45.2977V62.5786ZM50.4377 58.8686H49.5377V59.7686H50.4377V58.8686ZM50.4377 56.8086V55.9086H49.5377V56.8086H50.4377ZM50.4377 62.5786V63.4786H51.3377V62.5786H50.4377ZM49.2877 62.5786H48.3877V63.4786H49.2877V62.5786ZM49.2877 55.8486V54.9486H48.3877V55.8486H49.2877ZM52.0477 59.5386L51.6877 58.7186L50.9377 59.0486L51.1877 59.8286L52.0477 59.5386ZM53.0277 62.5786V63.4786H54.2677L53.8877 62.2986L53.0277 62.5786ZM51.8577 62.5786L50.9977 62.8286L51.1877 63.4786H51.8577V62.5786ZM51.0277 59.7986L51.8877 59.5486L51.6477 58.7486L50.8277 58.9286L51.0277 59.7986ZM50.4377 59.8286H49.5377V60.7286H50.4377V59.8286ZM54.8477 62.5986H53.9477V63.4986H54.8477V62.5986ZM54.8477 55.8586V54.9586H53.9477V55.8586H54.8477ZM56.0077 55.8586H56.9077V54.9586H56.0077V55.8586ZM56.0077 62.5986V63.4986H56.9077V62.5986H56.0077ZM61.0477 56.8686H61.9477V55.9686H61.0477V56.8686ZM59.9277 56.8686H59.0277V57.7686H59.9277V56.8686ZM59.9277 55.8586V54.9586H59.0277V55.8586H59.9277ZM63.3177 55.8586H64.2177V54.9586H63.3177V55.8586ZM63.3177 56.8686V57.7686H64.2177V56.8686H63.3177ZM62.1977 56.8686V55.9686H61.2977V56.8686H62.1977ZM62.1977 62.5986V63.4986H63.0977V62.5986H62.1977ZM61.0477 62.5986H60.1477V63.4986H61.0477V62.5986ZM65.0377 62.5986H64.1377V63.4986H65.0377V62.5986ZM65.0377 55.8586V54.9586H64.1377V55.8586H65.0377ZM66.1877 55.8586H67.0877V54.9586H66.1877V55.8586ZM66.1877 58.5986H65.2877V59.4986H66.1877V58.5986ZM67.4177 58.5986V59.4986H68.3177V58.5986H67.4177ZM67.4177 55.8586V54.9586H66.5177V55.8586H67.4177ZM68.5677 55.8586H69.4677V54.9586H68.5677V55.8586ZM68.5677 62.5986V63.4986H69.4677V62.5986H68.5677ZM67.4177 62.5986H66.5177V63.4986H67.4177V62.5986ZM67.4177 59.6186H68.3177V58.7186H67.4177V59.6186ZM66.1877 59.6186V58.7186H65.2877V59.6186H66.1877ZM66.1877 62.5986V63.4986H67.0877V62.5986H66.1877ZM70.7277 55.8586V54.9586H69.8277V55.8586H70.7277ZM71.8777 55.8586H72.7777V54.9586H71.8777V55.8586ZM73.1177 55.8586V54.9586H72.2177V55.8586H73.1177ZM74.2677 55.8586H75.1677V54.9586H74.2677V55.8586ZM79.8977 58.0986H80.7977V57.1986H79.8977V58.0986ZM78.7477 58.0986H77.8477V58.9986H78.7477V58.0986ZM78.7477 60.1686V59.2686H77.8477V60.1686H78.7477ZM79.8977 60.1686H80.7977V59.2686H79.8977V60.1686Z" fill="white"/>
<path d="M16.4478 71.4187L15.6078 66.7487H14.4678L15.8778 73.4887H17.0278L18.4378 66.7487H17.2978L16.4478 71.4187ZM20.1178 71.8487C20.1178 72.7987 20.6678 73.5687 21.8878 73.5687C23.1078 73.5687 23.6578 72.7987 23.6578 71.8487V68.3887C23.6578 67.4387 23.1078 66.6687 21.8878 66.6687C20.6678 66.6687 20.1178 67.4387 20.1178 68.3887V71.8487ZM21.2678 68.4087C21.2678 67.8987 21.4178 67.6687 21.8878 67.6687C22.3578 67.6687 22.5078 67.9087 22.5078 68.4087V71.8187C22.5078 72.3287 22.3578 72.5587 21.8878 72.5587C21.4178 72.5587 21.2678 72.3087 21.2678 71.8187V68.4087ZM27.0178 73.4787V66.7387H25.8678V73.4787H27.0178ZM34.8778 68.9987V68.4987C34.8778 67.4887 34.3278 66.6487 33.1578 66.6487C31.9378 66.6487 31.3878 67.4187 31.3878 68.3687V71.8287C31.3878 72.7787 31.9378 73.5487 33.1578 73.5487C34.3778 73.5487 34.8778 72.7787 34.8778 71.8287V71.0587H33.7278V71.8687C33.7278 72.3087 33.5878 72.5487 33.1778 72.5487C32.7078 72.5487 32.5578 72.2987 32.5578 71.8087V68.3987C32.5578 67.8887 32.7078 67.6587 33.1778 67.6587C33.4778 67.6587 33.7278 67.8987 33.7278 68.4687V68.9987H34.8778ZM37.0878 71.7787C37.0878 72.9287 37.7578 73.5687 38.8578 73.5687C39.9578 73.5687 40.6278 72.9387 40.6278 71.7787V66.7387H39.4778V71.8187C39.4778 72.3087 39.2878 72.5587 38.8578 72.5587C38.4278 72.5587 38.2378 72.3087 38.2378 71.8187V66.7387H37.0878V71.7787ZM42.7778 71.8487C42.7778 72.7987 43.3278 73.5687 44.5478 73.5687C45.7678 73.5687 46.3178 72.7987 46.3178 71.8487V68.3887C46.3178 67.4387 45.7678 66.6687 44.5478 66.6687C43.3278 66.6687 42.7778 67.4387 42.7778 68.3887V71.8487ZM43.9278 68.4087C43.9278 67.8987 44.0778 67.6687 44.5478 67.6687C45.0178 67.6687 45.1678 67.9087 45.1678 68.4087V71.8187C45.1678 72.3287 45.0178 72.5587 44.5478 72.5587C44.0778 72.5587 43.9278 72.3087 43.9278 71.8187V68.4087ZM51.9378 68.9987V68.4987C51.9378 67.4887 51.3878 66.6487 50.2178 66.6487C49.0478 66.6487 48.4478 67.4187 48.4478 68.3687V71.8287C48.4478 72.7787 48.9978 73.5487 50.2178 73.5487C51.4378 73.5487 51.9378 72.7787 51.9378 71.8287V71.0587H50.7878V71.8687C50.7878 72.3087 50.6478 72.5487 50.2378 72.5487C49.7678 72.5487 49.6178 72.2987 49.6178 71.8087V68.3987C49.6178 67.8887 49.7678 67.6587 50.2378 67.6587C50.5378 67.6587 50.7878 67.8987 50.7878 68.4687V68.9987H51.9378ZM59.4178 68.2887C59.3078 67.3387 58.7578 66.6487 57.8178 66.6487C56.6878 66.6487 56.0278 67.2487 56.0278 68.3287C56.0278 70.2587 58.3778 70.6087 58.3778 71.9387C58.3778 72.3387 58.1078 72.5487 57.7078 72.5487C57.3378 72.5487 57.0678 72.2187 57.0178 71.5387L55.9178 71.6987C55.9578 72.7087 56.5778 73.5587 57.6478 73.5587C58.7178 73.5587 59.4678 72.9487 59.4678 71.8387C59.4678 70.0087 57.1178 69.4587 57.1178 68.3087C57.1178 67.8887 57.3178 67.6387 57.6978 67.6387C57.9578 67.6387 58.2678 67.8087 58.3178 68.3787L59.4178 68.2587V68.2887ZM61.3778 71.8487C61.3778 72.7987 61.9278 73.5687 63.1478 73.5687C64.3678 73.5687 64.9178 72.7987 64.9178 71.8487V68.3887C64.9178 67.4387 64.3678 66.6687 63.1478 66.6687C61.9278 66.6687 61.3778 67.4387 61.3778 68.3887V71.8487ZM62.5378 68.4087C62.5378 67.8987 62.6878 67.6687 63.1578 67.6687C63.6278 67.6687 63.7778 67.9087 63.7778 68.4087V71.8187C63.7778 72.3287 63.6278 72.5587 63.1578 72.5587C62.6878 72.5587 62.5378 72.3087 62.5378 71.8187V68.4087ZM68.1178 73.4787V69.2687H68.1378L69.6078 73.4787H70.6078V66.7387H69.5578V70.5887H69.5378L68.1278 66.7387H67.0578V73.4787H68.1178ZM74.3578 70.9887H75.0978V71.6487C75.0978 72.3187 74.9278 72.5887 74.4678 72.5887C74.0578 72.5887 73.9278 72.3087 73.9278 71.8787V68.4187C73.9278 67.8487 74.1578 67.6887 74.4378 67.6887C74.8978 67.6887 75.0978 67.9487 75.0978 68.9587H76.1978V68.5287C76.1978 67.5187 75.6178 66.6787 74.4678 66.6787C73.3178 66.6787 72.7678 67.4487 72.7678 68.3987V71.8587C72.7678 72.9387 73.3978 73.5787 74.3178 73.5787C74.8578 73.5787 75.1378 73.3987 75.4778 72.9887L75.6878 73.4987H76.2378V70.0887H74.3478V70.9887H74.3578Z" fill="#75C044"/>
<path d="M21.6978 66.2386L22.4378 65.0786H23.6678L22.4978 66.2386H21.6978Z" fill="#75C044"/>
<path d="M23.3079 65.9988H24.1379V66.6788C24.1379 66.9488 24.0679 67.1488 23.9279 67.2988C23.7879 67.4488 23.5779 67.5188 23.2979 67.5188V67.1688C23.4079 67.1688 23.4879 67.1188 23.5679 67.0488C23.6379 66.9888 23.6779 66.9088 23.6779 66.8088H23.2979V65.9888L23.3079 65.9988Z" fill="#75C044"/>
<path d="M44.1278 65.2188H45.1078L46.0278 66.3787H45.1278L44.6178 65.7288L44.1078 66.3787H43.2278L44.1278 65.2188Z" fill="#75C044"/>
<path d="M62.6778 65.2188H63.6678L64.5778 66.3787H63.6778L63.1678 65.7288L62.6578 66.3787H61.7778L62.6778 65.2188Z" fill="#75C044"/>
<path d="M64.2378 66.3487L64.9878 65.1887H66.2078L65.0378 66.3487H64.2378Z" fill="#75C044"/>
<path d="M45.0477 74.1587H44.1577V75.0287H45.0477V74.1587Z" fill="#75C044"/>
<path d="M16.8378 54.2788H17.8378L18.7478 55.4388L17.8478 55.4288L17.3378 54.7888L16.8278 55.4288L15.9478 55.4388L16.8378 54.2788Z" fill="#D2AB56"/>
<path d="M18.4077 55.3988L19.1577 54.2488H20.3777L19.1977 55.3988H18.4077Z" fill="#D2AB56"/>
<path d="M34.6778 54.2788H35.6578L36.5778 55.4388L35.6778 55.4288L35.1678 54.7888L34.6578 55.4288L33.7878 55.4388L34.6778 54.2788Z" fill="#D2AB56"/>
<path d="M36.1677 55.3988L36.9077 54.2488H38.1377L36.9577 55.3988H36.1677Z" fill="#D2AB56"/>
<path d="M72.1577 55.3988L72.8977 54.2488H74.1177L72.9577 55.3988H72.1577Z" fill="#D2AB56"/>
<path d="M74.2478 55.0288H75.0778V55.7088C75.0778 55.9788 75.0078 56.1888 74.8678 56.3288C74.7278 56.4788 74.5178 56.5588 74.2378 56.5588V56.1988C74.3478 56.1988 74.4278 56.1488 74.5078 56.0788C74.5778 56.0188 74.6178 55.9388 74.6178 55.8388H74.2478V55.0188V55.0288Z" fill="#D2AB56"/>
<path d="M11.6979 62.5788V60.1988L12.1079 59.4588H12.1279L13.0679 62.5888H14.2379L12.8279 58.3588L14.0779 55.8488H12.9279L11.7179 58.3388H11.6979V55.8488H10.5479V62.5888H11.6979V62.5788ZM18.9979 62.5788V61.5688H16.9279V59.5888H18.4179V58.5788H16.9279V56.8488H18.8679V55.8388H15.7779V62.5788H18.9979ZM21.6079 62.5788H22.7579V56.8588H23.8779V55.8488H20.4879V56.8588H21.6079V62.5788ZM28.7079 62.5788V58.3688H28.7279L30.1979 62.5788H31.1979V55.8388H30.1479V59.6888H30.1278L28.7178 55.8388H27.6479V62.5788H28.7079ZM33.3479 60.9488C33.3479 61.8988 33.8979 62.6688 35.1179 62.6688C36.3379 62.6688 36.8879 61.8988 36.8879 60.9488V57.4888C36.8879 56.5388 36.3379 55.7688 35.1179 55.7688C33.8979 55.7688 33.3479 56.5388 33.3479 57.4888V60.9488ZM34.4979 57.5088C34.4979 56.9988 34.6479 56.7688 35.1079 56.7688C35.5679 56.7688 35.7279 57.0188 35.7279 57.5088V60.9188C35.7279 61.4288 35.5779 61.6588 35.1079 61.6588C34.6379 61.6588 34.4979 61.4088 34.4979 60.9188V57.5088ZM40.2479 62.5788V55.8388H39.0979V62.5788H40.2479ZM45.2979 62.5788H46.4479V56.8588H47.5679V55.8488H44.1779V56.8588H45.2979V62.5788ZM50.4379 56.8088H50.8479C51.4779 56.8088 51.6979 57.0488 51.6979 57.8388C51.6979 58.6288 51.4678 58.8688 50.8479 58.8688H50.4379V56.8088ZM50.4379 59.8288C50.6379 59.8288 50.8879 59.8288 51.0379 59.7988L51.8579 62.5888H53.0279L52.0479 59.5488C52.4379 59.3788 52.8579 58.9388 52.8579 57.8488C52.8579 56.4188 52.1979 55.8588 50.9079 55.8588H49.2879V62.5988H50.4379V59.8288ZM56.0079 62.5988V55.8588H54.8579V62.5988H56.0079ZM61.0479 62.5988H62.1979V56.8788H63.3179V55.8688H59.9279V56.8788H61.0479V62.5988ZM66.1879 62.5988V59.6188H67.4179V62.5988H68.5679V55.8588H67.4179V58.5988H66.1879V55.8588H65.0379V62.5988H66.1879ZM70.7279 60.8988C70.7279 62.0588 71.3979 62.6888 72.4979 62.6888C73.5979 62.6888 74.2678 62.0588 74.2678 60.8988V55.8588H73.1179V60.9388C73.1179 61.4288 72.9279 61.6788 72.4979 61.6788C72.0679 61.6788 71.8778 61.4288 71.8778 60.9388V55.8588H70.7279V60.8988ZM79.8979 58.1088V57.6188C79.8979 56.6088 79.3478 55.7688 78.1778 55.7688C77.0079 55.7688 76.4079 56.5388 76.4079 57.4888V60.9488C76.4079 61.8988 76.9578 62.6688 78.1778 62.6688C79.3979 62.6688 79.8979 61.8988 79.8979 60.9488V60.1788H78.7478V60.9888C78.7478 61.4288 78.6078 61.6688 78.1978 61.6688C77.7278 61.6688 77.5779 61.4188 77.5779 60.9288V57.5188C77.5779 57.0088 77.7278 56.7788 78.1978 56.7788C78.4978 56.7788 78.7478 57.0288 78.7478 57.5888V58.1188H79.8979V58.1088Z" fill="#D2AB56"/>
<path d="M45.3778 14.2787C48.4378 5.54873 52.0578 3.81873 59.5378 0.81873C66.2278 -0.68127 91.0078 0.33873 91.0078 0.33873L90.7778 27.7587C90.9378 36.9087 83.2678 48.6487 71.1878 48.6287C59.0978 48.6087 20.8278 48.6287 20.8278 48.6287C6.75778 46.8287 0.447778 42.8487 0.137778 27.0987C-0.172222 11.3487 0.137778 0.32873 0.137778 0.32873H23.9378C28.9478 0.40873 41.8378 1.49873 45.3778 14.2587V14.2787Z" fill="white"/>
<path fill-rule="evenodd" clip-rule="evenodd" d="M85.3177 3.73877H66.0177C60.8177 3.73877 56.0977 5.86877 52.6677 9.28877C49.2477 12.7088 47.1177 17.4288 47.1177 22.6288V41.1488C50.4977 33.4388 55.4677 25.8988 61.9277 19.3588C68.3077 12.9188 76.1377 7.44877 85.3177 3.73877ZM49.4777 45.1788H68.3077C73.5077 45.1788 78.2277 43.0488 81.6577 39.6288C85.0677 36.2088 87.1977 31.4888 87.1977 26.2888V6.96877C78.2877 10.4788 70.7177 15.7388 64.5677 21.9688C57.7377 28.8788 52.6677 36.9788 49.4877 45.1688" fill="#75C044"/>
<path fill-rule="evenodd" clip-rule="evenodd" d="M24.5977 3.73877H3.42773V18.2288C3.42773 28.3288 12.4677 28.2088 17.7577 28.1488C18.4977 28.1488 18.9277 28.1288 19.0477 28.1288H20.8677V29.9788V30.5688C20.8677 36.5488 20.8477 45.1688 30.1977 45.1688H43.4677V22.6488C43.4677 17.4488 41.3477 12.7288 37.9277 9.30877C34.5077 5.88877 29.7877 3.75877 24.5777 3.75877V3.73877H24.5977ZM3.55773 28.4988V28.5788L3.57773 28.7088L3.60773 28.9088L3.62773 29.0588V29.1188L3.65773 29.2388L3.67773 29.3488L3.69773 29.4688L3.71773 29.5688L3.73773 29.6888L3.75773 29.7988L3.77773 29.9188V29.9988L3.81773 30.1388L3.85773 30.3288L3.87773 30.4188L3.90773 30.5488L3.92773 30.6388L3.95773 30.7688L3.97773 30.8688L4.00773 30.9788L4.02773 31.0888L4.05773 31.2088L4.07773 31.2888L4.10773 31.4188L4.12773 31.5188L4.17773 31.7088L4.19773 31.7888L4.23773 31.9288L4.26773 32.0188L4.30773 32.1388L4.32773 32.2288L4.36773 32.3688L4.38773 32.4288L4.42773 32.5488L4.45773 32.6488L4.48773 32.7388L4.52773 32.8488L4.58773 33.0288L4.62773 33.1288L4.66773 33.2388L4.70773 33.3488L4.73773 33.4388L4.77773 33.5488L4.81773 33.6488L4.84773 33.7388L4.89773 33.8688L4.92773 33.9288L4.97773 34.0488L5.00773 34.1088L5.09773 34.2988L5.13773 34.3988L5.17773 34.4988L5.21773 34.5888L5.27773 34.7188L5.30773 34.7788L5.35773 34.8888L5.39773 34.9788L5.45773 35.0988L5.48773 35.1488L5.54773 35.2788L5.59773 35.3888C5.59773 35.3888 5.64773 35.4988 5.68773 35.5388L5.70773 35.5688L5.79773 35.7088L5.84773 35.8088L5.88773 35.8988L5.93773 35.9988L5.98773 36.0988L6.03773 36.1788L6.09773 36.2888L6.13773 36.3688L6.22773 36.5088L6.24773 36.5388L6.35773 36.7088V36.7288L6.40773 36.7788L6.47773 36.8888L6.52773 36.9788L6.59773 37.0888L6.63773 37.1388L6.72773 37.2688L6.75773 37.3088L6.99773 37.3288L7.03773 37.3888L7.15773 37.5488L7.28773 37.7188L7.31773 37.7588L7.41773 37.8788L7.46773 37.9388L7.55773 38.0388L7.60773 38.0988L7.69773 38.1988L7.74773 38.2588L7.85773 38.3888L7.87773 38.4188C7.91773 38.4688 7.97773 38.5288 8.01773 38.5788C8.05773 38.6288 8.11773 38.6888 8.15773 38.7388L8.19773 38.7788L8.30773 38.8988L8.34773 38.9488L8.45773 39.0588L8.49773 39.1088L8.61773 39.2388L8.63773 39.2588C8.74773 39.3688 8.83773 39.4788 8.94773 39.5688L9.10773 39.7288C9.10773 39.7288 9.20773 39.8288 9.25773 39.8788L9.28773 39.9088L9.40773 40.0188L9.45773 40.0588L9.57773 40.1688L9.60773 40.1988L9.73773 40.3188L9.77773 40.3488L9.91773 40.4688L9.93773 40.4888C10.0577 40.5888 10.1577 40.6788 10.2777 40.7788C10.2777 40.7788 10.3877 40.8688 10.4377 40.9088L10.4877 40.9488L10.5977 41.0388L10.6577 41.0888L10.7777 41.1788L10.8277 41.2188L10.9577 41.3188L10.9977 41.3888L11.1277 41.4888L11.1777 41.5188C11.2377 41.5588 11.2977 41.6088 11.3477 41.6488L11.5277 41.7788L11.5577 41.7988L11.7077 41.9088L11.7477 41.9388L11.8777 42.0288L11.9477 42.0688L12.0577 42.1288L12.1477 42.1788L12.2477 42.2388L12.3177 42.2888L12.4377 42.3688L12.5077 42.4088L12.6777 42.5188L12.8477 42.6188L12.9177 42.6688L13.0377 42.7288L13.1077 42.7688L13.2377 42.8288L13.2877 42.8588L13.4177 42.9188L13.5077 42.9588L13.6077 43.0088L13.7177 43.0588L13.7877 43.0988L13.9077 43.1488L14.0877 43.2388L14.2677 43.3288L14.3777 43.3788L14.4477 43.4088L14.5677 43.4588L14.6577 43.4988L14.7677 43.5388L14.8677 43.5788L14.9677 43.6188L15.0677 43.6588L15.1877 43.6988L15.2477 43.7188L15.3777 43.7688L15.5577 43.8488C15.6177 43.8688 15.6877 43.8988 15.7477 43.9288H15.7677L15.8277 43.9588L15.9577 43.9988L16.0677 44.0388L16.1677 44.0688L16.2777 44.1088L16.3877 44.1388L16.4877 44.1688L16.6177 44.2088L16.6877 44.2288L16.8077 44.2588L16.9277 44.2888L17.1177 44.3388C17.1777 44.3588 17.2477 44.3788 17.3077 44.3888L17.4277 44.4188L17.5377 44.4488L17.6477 44.4788L17.7377 44.4988L17.8677 44.5288L17.9577 44.5488L18.0877 44.5788L18.1777 44.5988L18.3077 44.6288L18.3977 44.6488L18.5277 44.6788L18.7277 44.7188L18.9277 44.7588H18.9477L19.0177 44.7788L19.1477 44.7988H19.2477L19.3777 44.8288H19.4777L19.5977 44.8588L19.7177 44.8788H19.8077L19.9577 44.9088H20.0177L20.1577 44.9288L20.3177 44.9488H20.3677C17.4677 41.4588 17.2177 36.1788 17.1977 31.7188C13.0077 31.7588 7.26773 31.6888 3.52773 28.3688" fill="#D2AB56"/>
</svg>
