<svg width="104" height="60" viewBox="0 0 104 60" fill="none" xmlns="http://www.w3.org/2000/svg">
<path d="M9.78003 23.52C9.78003 23.52 39.38 25.63 51.54 47.31C62.38 25.37 93.04 24.05 93.04 24.05L88.81 36.74C88.81 36.74 59.21 39.38 51.54 48.11C44.4 39.39 23.52 36.22 14.27 36.74C12.43 30.66 9.78003 23.52 9.78003 23.52Z" fill="#1DA8A1"/>
<path d="M7.13997 29.6001H3.96997L9.25997 41.7601C9.25997 41.7601 31.46 38.8501 51.55 54.1801C52.61 54.1801 71.64 42.0201 93.05 41.4901C97.01 32.7701 98.86 29.0701 98.86 29.0701H96.22C96.22 29.0701 92.78 36.4701 91.73 39.1101C70.31 40.7001 51.81 51.5401 51.54 51.5401C50.48 51.5401 38.32 38.8501 11.1 39.1201C8.45997 33.0401 7.13997 29.6001 7.13997 29.6001Z" fill="#F5B21A"/>
<path d="M2.64 33.3H0L5.81 46.25C5.81 46.25 29.6 44.93 51.54 59.99C52.6 60 73.22 47.31 97 46.26C100.96 37.27 103.08 32.78 103.08 32.78H100.17C100.17 32.78 96.47 41.5 95.15 43.88C73.74 44.14 52.07 57.36 51.54 57.36C45.46 53.4 31.72 43.88 7.13 43.88C4.23 37.8 2.64 33.3 2.64 33.3Z" fill="#1563A2"/>
<path d="M39.3901 15.3299L37.8001 14.5399C37.5401 12.4299 35.6901 10.8399 33.3101 10.8399C30.9301 10.8399 28.8201 12.9499 28.8201 15.3299C28.8201 17.7099 30.9301 19.8199 33.3101 19.8199C33.5701 19.8199 33.8401 19.8199 33.8401 19.8199C34.3701 20.3499 34.9001 21.1399 34.9001 21.4099C33.5801 21.4099 29.8801 21.4099 24.0601 21.9399C37.5401 26.4299 48.1101 36.2099 49.7001 39.1199C49.7001 22.7299 41.5101 9.24994 36.2201 3.43994C39.1201 7.92994 39.3901 15.3299 39.3901 15.3299Z" fill="#F5B21A"/>
<path d="M54.7101 8.46L54.4501 7.4C55.5101 6.61 56.0401 5.55 56.0401 4.23C56.0401 1.85 54.1901 0 51.8101 0C49.4301 0 47.5801 1.85 47.5801 4.23C47.5801 5.29 48.1101 6.34 48.9001 7.14L48.3701 8.99C48.3701 8.99 45.2001 4.5 38.0601 0.27C38.0601 0.27 48.9001 12.69 51.5401 26.17C54.4501 11.9 61.5801 4.5 65.8101 0.27C61.3201 1.32 54.7101 8.46 54.7101 8.46Z" fill="#1DA8A1"/>
<path d="M74.5399 15.3299C74.5399 12.9499 72.4299 10.8399 69.7799 10.8399C67.6699 10.8399 65.8199 12.4299 65.2899 14.5399L63.9699 15.3299C63.9699 15.3299 64.2299 7.92994 67.1399 3.43994C61.8499 9.25994 53.6599 22.7399 53.6599 39.1199C55.2499 36.2099 65.8199 26.4299 79.2999 21.9399C73.4899 21.4099 69.7799 21.4099 68.4599 21.4099C68.4599 21.1499 68.7199 20.6199 69.2499 19.8199C69.5099 19.8199 69.7799 20.0799 69.7799 20.0799C72.4299 20.0899 74.5399 17.9699 74.5399 15.3299Z" fill="#1563A2"/>
</svg>
