<svg width="89" height="72" viewBox="0 0 89 72" fill="none" xmlns="http://www.w3.org/2000/svg">
<path d="M83.3201 3.34008C83.3201 3.34008 83.5801 30.3401 83.5801 34.2001C83.3201 40.1101 79.2101 64.0301 74.0701 71.7401L78.1701 72.0001C78.1701 72.0001 83.3101 53.2301 84.0801 40.8901C83.3101 46.8001 78.4201 70.9801 78.4201 70.9801H85.1101C85.1101 70.9801 86.6501 15.6901 86.4001 2.58008C84.0901 4.37008 83.3201 3.34008 83.3201 3.34008Z" fill="#F5B21A"/>
<path d="M81.2601 27.26C81.2601 27.26 82.2901 24.17 84.6001 25.72C86.6601 24.43 88.4601 26.75 86.9101 28.03C89.7401 27.52 89.7401 31.89 86.6501 31.63C85.3601 32.92 80.2201 33.94 80.9901 30.6C79.9701 29.31 79.2001 27.77 81.2601 27.26Z" fill="#F5B21A"/>
<path d="M0 39.6C0 39.6 22.63 24.69 30.34 0C34.71 0.77 52.71 4.63 86.65 0.51C83.82 10.28 80.48 27.77 55.28 41.91C38.57 46.02 36.77 47.82 36.77 47.82L0 39.6Z" fill="#4F86C6"/>
<path d="M3.09009 40.1101C3.09009 40.1101 26.2301 27.0001 32.9201 5.14012C36.7801 5.91012 54.7801 8.23012 85.3801 4.37012C82.5501 13.1101 76.6401 31.3701 52.2101 42.1701C37.3001 45.7701 35.7501 47.3101 35.7501 47.3101L3.09009 40.1101Z" fill="#1563A2"/>
<path d="M23.9099 35.7399C23.9099 35.7399 30.0799 25.7099 46.2799 20.5699C62.4799 15.4299 67.6199 25.1999 67.6199 25.1999L70.9599 60.1699C70.9599 60.1699 42.4199 66.0799 25.6999 60.1699C23.9099 46.5399 23.9099 35.7399 23.9099 35.7399Z" fill="#1563A2"/>
<path d="M64.0304 61.71C63.2604 51.68 62.4904 32.14 65.3204 22.11C62.2304 19.8 56.5804 17.74 46.8104 20.57C44.2404 21.6 41.9204 22.37 39.8704 23.4C40.9004 33.17 42.7004 53.49 41.1604 62.74C49.3704 63.26 58.1204 62.49 64.0304 61.71Z" fill="#4F86C6"/>
<path d="M49.1199 38.3101C38.0599 40.1101 28.8099 45.7701 24.6899 48.6001C24.9499 50.9101 25.1999 53.7401 25.4599 56.8301C42.6899 55.2901 64.0299 55.5401 70.7199 55.8001L68.9199 38.8301C65.8299 37.8001 59.3999 36.5101 49.1199 38.3101Z" fill="#F5B21A"/>
</svg>
