<svg width="67" height="56" viewBox="0 0 67 56" fill="none" xmlns="http://www.w3.org/2000/svg">
<path d="M11.9716 51.9822L11.3602 48.5831H10.5305L11.5567 53.4888H12.3938L13.42 48.5831H12.5903L11.9716 51.9822ZM14.6428 52.2951C14.6428 52.9866 15.0431 53.547 15.9311 53.547C16.8191 53.547 17.2194 52.9866 17.2194 52.2951V49.7768C17.2194 49.0853 16.8191 48.5249 15.9311 48.5249C15.0431 48.5249 14.6428 49.0853 14.6428 49.7768V52.2951ZM15.4798 49.7913C15.4798 49.4201 15.589 49.2527 15.9311 49.2527C16.2732 49.2527 16.3824 49.4274 16.3824 49.7913V52.2733C16.3824 52.6445 16.2732 52.8119 15.9311 52.8119C15.589 52.8119 15.4798 52.6299 15.4798 52.2733V49.7913ZM19.665 53.4815V48.5758H18.8279V53.4815H19.665ZM25.3859 50.2208V49.8568C25.3859 49.1217 24.9856 48.5103 24.134 48.5103C23.246 48.5103 22.8457 49.0708 22.8457 49.7622V52.2806C22.8457 52.972 23.246 53.5325 24.134 53.5325C25.022 53.5325 25.3859 52.972 25.3859 52.2806V51.7201H24.5489V52.3097C24.5489 52.6299 24.447 52.8046 24.1485 52.8046C23.8064 52.8046 23.6973 52.6227 23.6973 52.266V49.7841C23.6973 49.4128 23.8064 49.2454 24.1485 49.2454C24.3669 49.2454 24.5489 49.4201 24.5489 49.835V50.2208H25.3859ZM26.9944 52.2442C26.9944 53.0812 27.4821 53.547 28.2827 53.547C29.0834 53.547 29.571 53.0885 29.571 52.2442V48.5758H28.734V52.2733C28.734 52.6299 28.5957 52.8119 28.2827 52.8119C27.9697 52.8119 27.8315 52.6299 27.8315 52.2733V48.5758H26.9944V52.2442ZM31.1359 52.2951C31.1359 52.9866 31.5362 53.547 32.4242 53.547C33.3122 53.547 33.7125 52.9866 33.7125 52.2951V49.7768C33.7125 49.0853 33.3122 48.5249 32.4242 48.5249C31.5362 48.5249 31.1359 49.0853 31.1359 49.7768V52.2951ZM31.9729 49.7913C31.9729 49.4201 32.0821 49.2527 32.4242 49.2527C32.7663 49.2527 32.8755 49.4274 32.8755 49.7913V52.2733C32.8755 52.6445 32.7663 52.8119 32.4242 52.8119C32.0821 52.8119 31.9729 52.6299 31.9729 52.2733V49.7913ZM37.803 50.2208V49.8568C37.803 49.1217 37.4027 48.5103 36.5511 48.5103C35.6995 48.5103 35.2628 49.0708 35.2628 49.7622V52.2806C35.2628 52.972 35.6631 53.5325 36.5511 53.5325C37.4391 53.5325 37.803 52.972 37.803 52.2806V51.7201H36.966V52.3097C36.966 52.6299 36.8641 52.8046 36.5657 52.8046C36.2236 52.8046 36.1144 52.6227 36.1144 52.266V49.7841C36.1144 49.4128 36.2236 49.2454 36.5657 49.2454C36.784 49.2454 36.966 49.4201 36.966 49.835V50.2208H37.803ZM43.2473 49.704C43.1673 49.0125 42.7669 48.5103 42.0828 48.5103C41.2603 48.5103 40.7799 48.947 40.7799 49.7331C40.7799 51.1379 42.4904 51.3926 42.4904 52.3606C42.4904 52.6518 42.2938 52.8046 42.0027 52.8046C41.7334 52.8046 41.5369 52.5644 41.5005 52.0695L40.6998 52.186C40.729 52.9211 41.1802 53.5398 41.959 53.5398C42.7378 53.5398 43.2837 53.0958 43.2837 52.2879C43.2837 50.9559 41.5733 50.5556 41.5733 49.7185C41.5733 49.4128 41.7188 49.2309 41.9954 49.2309C42.1847 49.2309 42.4103 49.3546 42.4467 49.7695L43.2473 49.6822V49.704ZM44.6739 52.2951C44.6739 52.9866 45.0742 53.547 45.9622 53.547C46.8502 53.547 47.2505 52.9866 47.2505 52.2951V49.7768C47.2505 49.0853 46.8502 48.5249 45.9622 48.5249C45.0742 48.5249 44.6739 49.0853 44.6739 49.7768V52.2951ZM45.5182 49.7913C45.5182 49.4201 45.6274 49.2527 45.9695 49.2527C46.3116 49.2527 46.4207 49.4274 46.4207 49.7913V52.2733C46.4207 52.6445 46.3116 52.8119 45.9695 52.8119C45.6274 52.8119 45.5182 52.6299 45.5182 52.2733V49.7913ZM49.5796 53.4815V50.4173H49.5942L50.6641 53.4815H51.392V48.5758H50.6277V51.378H50.6132L49.5869 48.5758H48.8081V53.4815H49.5796ZM54.1214 51.6692H54.66V52.1496C54.66 52.6372 54.5363 52.8337 54.2015 52.8337C53.903 52.8337 53.8084 52.6299 53.8084 52.317V49.7986C53.8084 49.3837 53.9758 49.2673 54.1796 49.2673C54.5144 49.2673 54.66 49.4565 54.66 50.1916H55.4606V49.8787C55.4606 49.1435 55.0385 48.5321 54.2015 48.5321C53.3644 48.5321 52.9641 49.0926 52.9641 49.7841V52.3024C52.9641 53.0885 53.4227 53.5543 54.0923 53.5543C54.4853 53.5543 54.6891 53.4233 54.9366 53.1249L55.0894 53.4961H55.4898V51.0141H54.1141V51.6692H54.1214Z" fill="#75C044"/>
<path d="M12.5828 48.5831L11.935 48.4666L11.3236 51.8657L11.9714 51.9822L12.6191 52.0986L13.2305 48.6996L12.5828 48.5831ZM13.4125 48.5831V47.928H12.5828V48.5831V49.2382H13.4125V48.5831ZM12.3935 53.4815L13.034 53.6125L14.0603 48.7141L13.4198 48.5831L12.7793 48.4521L11.753 53.3505L12.3935 53.4815ZM11.5492 53.4815V54.1366H12.3862V53.4815V52.8265H11.5492V53.4815ZM10.5229 48.5831L9.88243 48.7141L10.9087 53.6125L11.5492 53.4815L12.1897 53.3505L11.1634 48.4521L10.5229 48.5831ZM11.36 48.5831V47.928H10.5302V48.5831V49.2382H11.36V48.5831ZM11.9714 51.9822L12.6191 51.8657L12.0078 48.4666L11.36 48.5831L10.7122 48.6996L11.3236 52.0986L11.9714 51.9822ZM11.9859 51.9822V51.3271H11.9714V51.9822V52.6372H11.9859V51.9822ZM14.6426 49.7695H13.9875V52.2878H14.6426H15.2976V49.7695H14.6426ZM15.9309 48.5176V47.8625C15.3413 47.8625 14.8318 48.0518 14.4752 48.4375C14.1258 48.816 13.9875 49.3037 13.9875 49.7695H14.6426H15.2976C15.2976 49.5511 15.3631 49.4128 15.4359 49.3328C15.5014 49.26 15.6324 49.1726 15.9309 49.1726V48.5176ZM17.2192 49.7695H17.8742C17.8742 49.3037 17.7359 48.816 17.3866 48.4375C17.0299 48.0518 16.5204 47.8625 15.9309 47.8625V48.5176V49.1726C16.2293 49.1726 16.3603 49.26 16.4258 49.3328C16.4986 49.4128 16.5641 49.5511 16.5641 49.7695H17.2192ZM17.2192 52.2951H17.8742V49.7768H17.2192H16.5641V52.2951H17.2192ZM15.9309 53.547V54.2021C16.5204 54.2021 17.0299 54.0129 17.3866 53.6271C17.7359 53.2486 17.8742 52.761 17.8742 52.2951H17.2192H16.5641C16.5641 52.5135 16.4986 52.6518 16.4258 52.7318C16.3603 52.8046 16.2293 52.892 15.9309 52.892V53.547ZM14.6426 52.2951H13.9875C13.9875 52.761 14.1258 53.2486 14.4752 53.6271C14.8318 54.0129 15.3413 54.2021 15.9309 54.2021V53.547V52.892C15.6324 52.892 15.5014 52.8046 15.4359 52.7318C15.3631 52.6518 15.2976 52.5135 15.2976 52.2951H14.6426ZM15.4796 52.2733H16.1347V49.7913H15.4796H14.8245V52.2733H15.4796ZM15.9309 52.8119V52.1568C15.9018 52.1568 15.9163 52.1496 15.9527 52.1641C15.9964 52.1787 16.0546 52.2151 16.0983 52.2733C16.1201 52.2951 16.1274 52.317 16.1347 52.3315C16.1347 52.3388 16.1419 52.3461 16.1419 52.3461C16.1419 52.3388 16.1419 52.3388 16.1419 52.3315C16.1419 52.317 16.1419 52.2951 16.1419 52.266H15.4869H14.8318C14.8318 52.4844 14.8609 52.8046 15.0647 53.0739C15.3049 53.3869 15.6543 53.4597 15.9381 53.4597V52.8119H15.9309ZM16.3821 52.2733H15.7271C15.7271 52.3024 15.7271 52.3242 15.7271 52.3461C15.7271 52.3534 15.7271 52.3606 15.7271 52.3606C15.7271 52.3534 15.7343 52.3534 15.7343 52.3388C15.7416 52.3242 15.7562 52.3024 15.7707 52.2733C15.8144 52.2151 15.8726 52.1787 15.9163 52.1641C15.9527 52.1496 15.9673 52.1568 15.9309 52.1568V52.8119V53.467C16.2074 53.467 16.5568 53.3942 16.797 53.0812C17.0081 52.8119 17.0372 52.4844 17.0372 52.266H16.3821V52.2733ZM16.3821 49.7913H15.7271V52.2733H16.3821H17.0372V49.7913H16.3821ZM15.9309 49.2454V49.9005C15.9673 49.9005 15.9527 49.9078 15.9163 49.8932C15.8726 49.8787 15.8144 49.8423 15.7707 49.784C15.7489 49.7622 15.7416 49.7331 15.7343 49.7185C15.7343 49.7113 15.7271 49.704 15.7271 49.6967C15.7271 49.704 15.7271 49.704 15.7271 49.7113C15.7271 49.7258 15.7271 49.7477 15.7271 49.784H16.3821H17.0372C17.0372 49.5657 17.0154 49.2454 16.797 48.9689C16.5495 48.6559 16.2002 48.5831 15.9309 48.5831V49.2454ZM15.4796 49.7913H16.1347C16.1347 49.7622 16.1347 49.7404 16.1347 49.7185C16.1347 49.7113 16.1347 49.704 16.1347 49.704C16.1347 49.7113 16.1274 49.7113 16.1274 49.7258C16.1201 49.7404 16.1056 49.7622 16.091 49.7913C16.0473 49.8496 15.9891 49.8859 15.9454 49.9005C15.909 49.9151 15.8945 49.9078 15.9309 49.9078V49.2527V48.5976C15.6543 48.5976 15.3049 48.6704 15.0647 48.9834C14.8536 49.2527 14.8245 49.5802 14.8245 49.7986H15.4796V49.7913ZM18.8277 53.4815V54.1366H19.6647V53.4815V52.8265H18.8277V53.4815ZM18.8277 48.5831H18.1726V53.4888H18.8277H19.4828V48.5831H18.8277ZM19.6647 48.5831V47.928H18.8277V48.5831V49.2382H19.6647V48.5831ZM19.6647 53.4815H20.3198V48.5758H19.6647H19.0097V53.4815H19.6647ZM25.3856 50.2135H24.7306V50.2208H25.3856H26.0407V50.2135H25.3856ZM24.5486 50.2135V50.8685H25.3856V50.2135V49.5584H24.5486V50.2135ZM24.5486 49.8277H23.8935V50.2135H24.5486H25.2037V49.8277H24.5486ZM24.1483 49.2382V49.8932C24.1119 49.8932 24.0682 49.8859 24.0246 49.8641C23.9736 49.8423 23.9372 49.8059 23.9154 49.7768C23.8717 49.7185 23.9008 49.704 23.9008 49.8277H24.5559H25.211C25.211 49.5293 25.1455 49.2236 24.9562 48.9761C24.7524 48.7068 24.454 48.5831 24.1556 48.5831V49.2382H24.1483ZM23.697 49.7768H24.3521C24.3521 49.7477 24.3521 49.7258 24.3521 49.704C24.3521 49.6967 24.3521 49.6894 24.3521 49.6821C24.3521 49.6894 24.3448 49.6894 24.3448 49.704C24.3375 49.7185 24.323 49.7404 24.3084 49.7695C24.2648 49.8277 24.2065 49.8641 24.1629 49.8787C24.1265 49.8932 24.1119 49.8859 24.1483 49.8859V49.2309V48.5758C23.8717 48.5758 23.5223 48.6486 23.2822 48.9616C23.0711 49.2309 23.042 49.5584 23.042 49.7768H23.697ZM23.697 52.2587H24.3521V49.7768H23.697H23.042V52.2587H23.697ZM24.1483 52.8046V52.1496C24.1192 52.1496 24.1337 52.1423 24.1701 52.1568C24.2138 52.1714 24.272 52.2078 24.3157 52.266C24.3375 52.2878 24.3448 52.3097 24.3521 52.3242C24.3521 52.3315 24.3594 52.3388 24.3594 52.3388C24.3594 52.3315 24.3594 52.3315 24.3594 52.3242C24.3594 52.3097 24.3594 52.2879 24.3594 52.2587H23.7043H23.0492C23.0492 52.4771 23.0784 52.7973 23.2822 53.0667C23.5223 53.3796 23.8717 53.4524 24.1556 53.4524V52.8046H24.1483ZM24.5486 52.3097H23.8935C23.8935 52.3606 23.8863 52.3752 23.8935 52.3752C23.8935 52.3679 23.9008 52.3315 23.9445 52.2806C23.9882 52.2223 24.0391 52.1859 24.0973 52.1641C24.141 52.1423 24.1701 52.1496 24.1556 52.1496V52.8046V53.4597C24.4322 53.4597 24.767 53.3723 24.9926 53.0739C25.1891 52.8192 25.211 52.5135 25.211 52.3097H24.5486ZM24.5486 51.7201H23.8935V52.3097H24.5486H25.2037V51.7201H24.5486ZM25.3856 51.7201V51.0651H24.5486V51.7201V52.3752H25.3856V51.7201ZM25.3856 52.2878H26.0407V51.7274H25.3856H24.7306V52.2878H25.3856ZM24.141 53.5397V54.1948C24.7306 54.1948 25.2401 53.9983 25.5894 53.6053C25.9315 53.2268 26.048 52.7391 26.048 52.2878H25.3929H24.7379C24.7379 52.528 24.6723 52.6663 24.6068 52.7391C24.5559 52.7973 24.4322 52.8847 24.141 52.8847V53.5397ZM22.8527 52.2878H22.1977C22.1977 52.7537 22.3359 53.2413 22.6853 53.6198C23.042 54.0056 23.5515 54.1948 24.141 54.1948V53.5397V52.8847C23.8426 52.8847 23.7116 52.7973 23.6461 52.7246C23.5733 52.6445 23.5078 52.5062 23.5078 52.2878H22.8527ZM22.8527 49.7622H22.1977V52.2806H22.8527H23.5078V49.7622H22.8527ZM24.141 48.5103V47.8552C23.5515 47.8552 23.042 48.0445 22.6853 48.4302C22.3359 48.8087 22.1977 49.2964 22.1977 49.7622H22.8527H23.5078C23.5078 49.5439 23.5733 49.4056 23.6461 49.3255C23.7116 49.2527 23.8426 49.1654 24.141 49.1654V48.5103ZM25.3856 49.8568H26.0407C26.0407 49.3764 25.9097 48.8742 25.5749 48.4812C25.2328 48.0736 24.7233 47.848 24.1337 47.848V48.503V49.1581C24.3885 49.1581 24.5049 49.2382 24.5777 49.3255C24.6578 49.4201 24.7306 49.5948 24.7306 49.8495H25.3856V49.8568ZM25.3856 50.2208H26.0407V49.8568H25.3856H24.7306V50.2208H25.3856ZM26.9942 48.5831H26.3391V52.2515H26.9942H27.6493V48.5831H26.9942ZM27.8312 48.5831V47.928H26.9942V48.5831V49.2382H27.8312V48.5831ZM27.8312 52.2806H28.4863V48.5831H27.8312H27.1762V52.2806H27.8312ZM28.2825 52.8192V52.1641C28.2679 52.1641 28.2825 52.1641 28.3262 52.1787C28.3698 52.1932 28.4135 52.2296 28.4499 52.2733C28.4863 52.317 28.4936 52.3461 28.4936 52.3534C28.4936 52.3534 28.4863 52.3388 28.4863 52.2878H27.8312H27.1762C27.1762 52.5353 27.2198 52.8483 27.4309 53.1103C27.6638 53.3942 27.9913 53.4888 28.2825 53.4888V52.8192ZM28.7338 52.2806H28.0787C28.0787 52.3315 28.0714 52.3534 28.0714 52.3461C28.0714 52.3461 28.0787 52.3097 28.1151 52.266C28.1515 52.2223 28.1951 52.1932 28.2388 52.1714C28.2752 52.1568 28.297 52.1568 28.2825 52.1568V52.8119V53.467C28.5663 53.467 28.8939 53.3796 29.1341 53.0885C29.3451 52.8265 29.3888 52.5135 29.3888 52.266H28.7338V52.2806ZM28.7338 48.5831H28.0787V52.2806H28.7338H29.3888V48.5831H28.7338ZM29.5708 48.5831V47.928H28.7338V48.5831V49.2382H29.5708V48.5831ZM29.5708 52.2442H30.2258V48.5758H29.5708H28.9157V52.2442H29.5708ZM28.2825 53.547V54.2021C28.8065 54.2021 29.316 54.0492 29.6872 53.678C30.0657 53.3068 30.2258 52.7973 30.2258 52.2515H29.5708H28.9157C28.9157 52.5426 28.8357 52.6809 28.7629 52.7537C28.6901 52.8192 28.5518 52.8992 28.2825 52.8992V53.547ZM26.9942 52.2442H26.3391C26.3391 52.7901 26.4993 53.2996 26.8777 53.6708C27.2562 54.042 27.7584 54.1948 28.2825 54.1948V53.5397V52.8847C28.0059 52.8847 27.8676 52.8046 27.8021 52.7391C27.7366 52.6736 27.6493 52.5353 27.6493 52.2369H26.9942V52.2442ZM31.1357 49.7695H30.4806V52.2878H31.1357H31.7907V49.7695H31.1357ZM32.424 48.5176V47.8625C31.8344 47.8625 31.3249 48.0518 30.9683 48.4375C30.6189 48.816 30.4806 49.3037 30.4806 49.7695H31.1357H31.7907C31.7907 49.5511 31.8562 49.4128 31.929 49.3328C31.9945 49.26 32.1255 49.1726 32.424 49.1726V48.5176ZM33.7122 49.7695H34.3673C34.3673 49.3037 34.229 48.816 33.8797 48.4375C33.523 48.0518 33.0135 47.8625 32.424 47.8625V48.5176V49.1726C32.7224 49.1726 32.8534 49.26 32.9189 49.3328C32.9917 49.4128 33.0572 49.5511 33.0572 49.7695H33.7122ZM33.7122 52.2951H34.3673V49.7768H33.7122H33.0572V52.2951H33.7122ZM32.424 53.547V54.2021C33.0135 54.2021 33.523 54.0129 33.8797 53.6271C34.229 53.2486 34.3673 52.761 34.3673 52.2951H33.7122H33.0572C33.0572 52.5135 32.9917 52.6518 32.9189 52.7318C32.8534 52.8046 32.7224 52.892 32.424 52.892V53.547ZM31.1357 52.2951H30.4806C30.4806 52.761 30.6189 53.2486 30.9683 53.6271C31.3249 54.0129 31.8344 54.2021 32.424 54.2021V53.547V52.892C32.1255 52.892 31.9945 52.8046 31.929 52.7318C31.8562 52.6518 31.7907 52.5135 31.7907 52.2951H31.1357ZM31.9727 52.2733H32.6278V49.7913H31.9727H31.3176V52.2733H31.9727ZM32.424 52.8119V52.1568C32.3948 52.1568 32.4094 52.1496 32.4458 52.1641C32.4895 52.1787 32.5477 52.2151 32.5914 52.2733C32.6132 52.2951 32.6205 52.317 32.6278 52.3315C32.6278 52.3388 32.635 52.3461 32.635 52.3461C32.635 52.3388 32.635 52.3388 32.635 52.3315C32.635 52.317 32.635 52.2951 32.635 52.266H31.98H31.3249C31.3249 52.4844 31.354 52.8046 31.5578 53.0739C31.798 53.3869 32.1474 53.4597 32.4312 53.4597V52.8119H32.424ZM32.8752 52.2733H32.2202C32.2202 52.3024 32.2202 52.3242 32.2202 52.3461C32.2202 52.3534 32.2202 52.3606 32.2202 52.3606C32.2202 52.3534 32.2274 52.3534 32.2274 52.3388C32.2347 52.3242 32.2493 52.3024 32.2638 52.2733C32.3075 52.2151 32.3657 52.1787 32.4094 52.1641C32.4458 52.1496 32.4603 52.1568 32.424 52.1568V52.8119V53.467C32.7005 53.467 33.0499 53.3942 33.2901 53.0812C33.5012 52.8119 33.5303 52.4844 33.5303 52.266H32.8752V52.2733ZM32.8752 49.7913H32.2202V52.2733H32.8752H33.5303V49.7913H32.8752ZM32.424 49.2454V49.9005C32.4603 49.9005 32.4458 49.9078 32.4094 49.8932C32.3657 49.8787 32.3075 49.8423 32.2638 49.784C32.242 49.7622 32.2347 49.7331 32.2274 49.7185C32.2274 49.7113 32.2202 49.704 32.2202 49.6967C32.2202 49.704 32.2202 49.704 32.2202 49.7113C32.2202 49.7258 32.2202 49.7477 32.2202 49.784H32.8752H33.5303C33.5303 49.5657 33.5084 49.2454 33.2901 48.9689C33.0426 48.6559 32.6933 48.5831 32.424 48.5831V49.2454ZM31.9727 49.7913H32.6278C32.6278 49.7622 32.6278 49.7404 32.6278 49.7185C32.6278 49.7113 32.6278 49.704 32.6278 49.704C32.6278 49.7113 32.6205 49.7113 32.6205 49.7258C32.6132 49.7404 32.5986 49.7622 32.5841 49.7913C32.5404 49.8496 32.4822 49.8859 32.4385 49.9005C32.4021 49.9151 32.3876 49.9078 32.424 49.9078V49.2527V48.5976C32.1474 48.5976 31.798 48.6704 31.5578 48.9834C31.3467 49.2527 31.3176 49.5802 31.3176 49.7986H31.9727V49.7913ZM37.8028 50.2135H37.1477V50.2208H37.8028H38.4578V50.2135H37.8028ZM36.9657 50.2135V50.8685H37.8028V50.2135V49.5584H36.9657V50.2135ZM36.9657 49.8277H36.3107V50.2135H36.9657H37.6208V49.8277H36.9657ZM36.5654 49.2382V49.8932C36.529 49.8932 36.4854 49.8859 36.4417 49.8641C36.3907 49.8423 36.3543 49.8059 36.3325 49.7768C36.2888 49.7185 36.318 49.704 36.318 49.8277H36.973H37.6281C37.6281 49.5293 37.5626 49.2236 37.3733 48.9761C37.1695 48.7068 36.8711 48.5831 36.5727 48.5831V49.2382H36.5654ZM36.1142 49.7768H36.7692C36.7692 49.7477 36.7692 49.7258 36.7692 49.704C36.7692 49.6967 36.7692 49.6894 36.7692 49.6821C36.7692 49.6894 36.7619 49.6894 36.7619 49.704C36.7547 49.7185 36.7401 49.7404 36.7255 49.7695C36.6819 49.8277 36.6236 49.8641 36.58 49.8787C36.5436 49.8932 36.529 49.8859 36.5654 49.8859V49.2309V48.5758C36.2888 48.5758 35.9395 48.6486 35.6993 48.9616C35.4882 49.2309 35.4591 49.5584 35.4591 49.7768H36.1142ZM36.1142 52.2587H36.7692V49.7768H36.1142H35.4591V52.2587H36.1142ZM36.5654 52.8046V52.1496C36.5363 52.1496 36.5509 52.1423 36.5873 52.1568C36.6309 52.1714 36.6892 52.2078 36.7328 52.266C36.7547 52.2878 36.7619 52.3097 36.7692 52.3242C36.7692 52.3315 36.7765 52.3388 36.7765 52.3388C36.7765 52.3315 36.7765 52.3315 36.7765 52.3242C36.7765 52.3097 36.7765 52.2879 36.7765 52.2587H36.1214H35.4664C35.4664 52.4771 35.4955 52.7973 35.6993 53.0667C35.9395 53.3796 36.2888 53.4524 36.5727 53.4524V52.8046H36.5654ZM36.9657 52.3097H36.3107C36.3107 52.3606 36.3034 52.3752 36.3107 52.3752C36.3107 52.3679 36.318 52.3315 36.3616 52.2806C36.4053 52.2223 36.4562 52.1859 36.5145 52.1641C36.5581 52.1423 36.5873 52.1496 36.5727 52.1496V52.8046V53.4597C36.8493 53.4597 37.1841 53.3723 37.4097 53.0739C37.6062 52.8192 37.6281 52.5135 37.6281 52.3097H36.9657ZM36.9657 51.7201H36.3107V52.3097H36.9657H37.6208V51.7201H36.9657ZM37.8028 51.7201V51.0651H36.9657V51.7201V52.3752H37.8028V51.7201ZM37.8028 52.2878H38.4578V51.7274H37.8028H37.1477V52.2878H37.8028ZM36.5509 53.5397V54.1948C37.1404 54.1948 37.6499 53.9983 37.9993 53.6053C38.3414 53.2268 38.4578 52.7391 38.4578 52.2878H37.8028H37.1477C37.1477 52.528 37.0822 52.6663 37.0167 52.7391C36.9657 52.7973 36.842 52.8847 36.5509 52.8847V53.5397ZM35.2626 52.2878H34.6075C34.6075 52.7537 34.7458 53.2413 35.0952 53.6198C35.4518 54.0056 35.9613 54.1948 36.5509 54.1948V53.5397V52.8847C36.2524 52.8847 36.1214 52.7973 36.0559 52.7246C35.9831 52.6445 35.9176 52.5062 35.9176 52.2878H35.2626ZM35.2626 49.7622H34.6075V52.2806H35.2626H35.9176V49.7622H35.2626ZM36.5509 48.5103V47.8552C35.9759 47.8552 35.4736 48.0518 35.117 48.423C34.7676 48.7942 34.6075 49.2746 34.6075 49.7622H35.2626H35.9176C35.9176 49.5584 35.9831 49.4128 36.0632 49.3328C36.136 49.2527 36.2816 49.1654 36.5509 49.1654V48.5103ZM37.8028 49.8568H38.4578C38.4578 49.3764 38.3268 48.8742 37.992 48.4812C37.6499 48.0736 37.1404 47.848 36.5509 47.848V48.503V49.1581C36.8056 49.1581 36.9221 49.2382 36.9949 49.3255C37.0749 49.4201 37.1477 49.5948 37.1477 49.8495H37.8028V49.8568ZM37.8028 50.2208H38.4578V49.8568H37.8028H37.1477V50.2208H37.8028ZM43.2398 49.6967L42.774 50.1553L42.7813 50.1625L43.2471 49.704L43.7129 49.2454L43.7056 49.2382L43.2398 49.6967ZM42.4392 49.7768L42.512 50.4246L43.3126 50.3372L43.2398 49.6894L43.167 49.0416L42.3664 49.129L42.4392 49.7768ZM41.9879 49.2382V49.8932C41.937 49.8932 41.8642 49.8714 41.8059 49.8204C41.755 49.7695 41.7768 49.7404 41.7841 49.8423L42.4392 49.784L43.0942 49.7258C43.0651 49.4056 42.9559 49.1144 42.7303 48.8961C42.5047 48.6777 42.2281 48.5904 41.9879 48.5904V49.2382ZM41.573 49.7258H42.2281C42.2281 49.6676 42.2427 49.7185 42.1771 49.7913C42.148 49.8277 42.1044 49.8568 42.0607 49.8787C42.0243 49.8932 41.9952 49.8932 41.9879 49.8932V49.2382V48.5831C41.6968 48.5831 41.3983 48.685 41.18 48.9397C40.9762 49.1799 40.918 49.4711 40.918 49.7185H41.573V49.7258ZM43.2762 52.2951H43.9313C43.9313 51.3125 43.2835 50.7011 42.854 50.3299C42.6066 50.1189 42.4465 49.9878 42.3227 49.8495C42.2063 49.7185 42.2281 49.6894 42.2281 49.7258H41.573H40.918C40.918 50.1771 41.1509 50.5119 41.3547 50.7375C41.5512 50.9486 41.8132 51.167 41.9952 51.3198C42.4173 51.691 42.6211 51.9458 42.6211 52.2951H43.2762ZM41.9515 53.547V54.2021C42.461 54.2021 42.9632 54.0565 43.349 53.7072C43.742 53.3505 43.9385 52.8556 43.9385 52.2951H43.2835H42.6284C42.6284 52.5426 42.5483 52.6663 42.4683 52.7391C42.3809 52.8192 42.2208 52.892 41.9515 52.892V53.547ZM40.6923 52.1932L40.0373 52.2223C40.0591 52.71 40.2192 53.1977 40.5468 53.5761C40.8816 53.9692 41.3692 54.2021 41.9515 54.2021V53.547V52.892C41.755 52.892 41.6313 52.8192 41.5366 52.7173C41.4347 52.6008 41.3547 52.4116 41.3474 52.1641L40.6923 52.1932ZM41.493 52.0768L41.3983 51.429L40.5977 51.5454L40.6923 52.1932L40.787 52.841L41.5876 52.7246L41.493 52.0768ZM41.9952 52.8119V52.1568C42.0243 52.1568 42.0752 52.1641 42.1189 52.1859C42.1626 52.2078 42.1844 52.2369 42.1917 52.2442C42.199 52.2515 42.1917 52.2442 42.1771 52.2078C42.1626 52.1714 42.1553 52.1059 42.148 52.0258L41.493 52.0768L40.8379 52.1277C40.8597 52.4407 40.9398 52.7537 41.1218 53.0084C41.3256 53.2923 41.6313 53.467 41.9952 53.467V52.8119ZM42.4901 52.3606H41.8351C41.8351 52.3606 41.8351 52.3388 41.8496 52.3024C41.8642 52.266 41.886 52.2296 41.9224 52.2005C41.9879 52.1423 42.0389 52.1496 42.0025 52.1496V52.8046V53.4597C42.2572 53.4597 42.5556 53.3942 42.7885 53.1831C43.036 52.9647 43.1452 52.6591 43.1452 52.3606H42.4901ZM40.7797 49.7331H40.1246C40.1246 50.7521 40.7724 51.3416 41.2091 51.7128C41.4566 51.9166 41.6094 52.0404 41.7259 52.1714C41.8278 52.2878 41.8278 52.3388 41.8278 52.3606H42.4828H43.1379C43.1379 51.9021 42.9268 51.5527 42.7085 51.3052C42.5047 51.0723 42.2354 50.8613 42.0534 50.7084C41.6385 50.3518 41.4347 50.1116 41.4347 49.7331H40.7797ZM42.0825 48.5103V47.8552C41.5585 47.8552 41.0563 47.9935 40.6778 48.3502C40.292 48.7068 40.1246 49.209 40.1246 49.7331H40.7797H41.4347C41.4347 49.4783 41.5075 49.3619 41.5658 49.3109C41.6313 49.2454 41.7768 49.1726 42.0825 49.1726V48.5103ZM43.2471 49.704L43.8949 49.6312C43.8439 49.1872 43.6838 48.7432 43.3708 48.4084C43.0433 48.059 42.5993 47.8625 42.0825 47.8625V48.5176V49.1726C42.2499 49.1726 42.3445 49.2309 42.4101 49.2964C42.4901 49.3837 42.5702 49.5366 42.592 49.7768L43.2471 49.704ZM44.6737 49.7695H44.0186V52.2878H44.6737H45.3287V49.7695H44.6737ZM45.962 48.5176V47.8625C45.3724 47.8625 44.8629 48.0518 44.5063 48.4375C44.1569 48.816 44.0186 49.3037 44.0186 49.7695H44.6737H45.3287C45.3287 49.5511 45.3942 49.4128 45.467 49.3328C45.5325 49.26 45.6636 49.1726 45.962 49.1726V48.5176ZM47.2575 49.7695H47.9126C47.9126 49.3037 47.7743 48.816 47.4249 48.4375C47.0683 48.0518 46.5588 47.8625 45.9692 47.8625V48.5176V49.1726C46.2677 49.1726 46.3987 49.26 46.4642 49.3328C46.537 49.4128 46.6025 49.5511 46.6025 49.7695H47.2575ZM47.2575 52.2951H47.9126V49.7768H47.2575H46.6025V52.2951H47.2575ZM45.962 53.547V54.2021C46.5515 54.2021 47.061 54.0129 47.4177 53.6271C47.767 53.2486 47.9053 52.761 47.9053 52.2951H47.2503H46.5952C46.5952 52.5135 46.5297 52.6518 46.4569 52.7318C46.3914 52.8046 46.2604 52.892 45.962 52.892V53.547ZM44.6737 52.2951H44.0186C44.0186 52.761 44.1569 53.2486 44.5063 53.6271C44.8629 54.0129 45.3724 54.2021 45.962 54.2021V53.547V52.892C45.6636 52.892 45.5325 52.8046 45.467 52.7318C45.3942 52.6518 45.3287 52.5135 45.3287 52.2951H44.6737ZM45.518 52.2733H46.173V49.7913H45.518H44.8629V52.2733H45.518ZM45.962 52.8119V52.1568C45.9329 52.1568 45.9474 52.1496 45.9838 52.1641C46.0275 52.1787 46.0857 52.2151 46.1294 52.2733C46.1512 52.2951 46.1585 52.317 46.1658 52.3315C46.1658 52.3388 46.173 52.3461 46.173 52.3461C46.173 52.3388 46.173 52.3388 46.173 52.3315C46.173 52.317 46.173 52.2951 46.173 52.266H45.518H44.8629C44.8629 52.4844 44.892 52.8046 45.0958 53.0739C45.336 53.3869 45.6854 53.4597 45.9692 53.4597V52.8119H45.962ZM46.4132 52.2733H45.7582C45.7582 52.3024 45.7582 52.3242 45.7582 52.3461C45.7582 52.3534 45.7582 52.3606 45.7582 52.3606C45.7582 52.3534 45.7654 52.3534 45.7654 52.3388C45.7727 52.3242 45.7873 52.3024 45.8018 52.2733C45.8455 52.2151 45.9037 52.1787 45.9474 52.1641C45.9838 52.1496 45.9984 52.1568 45.962 52.1568V52.8119V53.467C46.2386 53.467 46.5879 53.3942 46.8281 53.0812C47.0392 52.8119 47.0683 52.4844 47.0683 52.266H46.4132V52.2733ZM46.4132 49.7913H45.7582V52.2733H46.4132H47.0683V49.7913H46.4132ZM45.962 49.2454V49.9005C45.9984 49.9005 45.9838 49.9078 45.9474 49.8932C45.9037 49.8787 45.8455 49.8423 45.8018 49.784C45.78 49.7622 45.7727 49.7331 45.7654 49.7185C45.7654 49.7113 45.7582 49.704 45.7582 49.6967C45.7582 49.704 45.7582 49.704 45.7582 49.7113C45.7582 49.7258 45.7582 49.7477 45.7582 49.784H46.4132H47.0683C47.0683 49.5657 47.0465 49.2454 46.8281 48.9689C46.5806 48.6559 46.2313 48.5831 45.962 48.5831V49.2454ZM45.518 49.7913H46.173C46.173 49.7622 46.173 49.7404 46.173 49.7185C46.173 49.7113 46.173 49.704 46.173 49.704C46.173 49.7113 46.1658 49.7113 46.1658 49.7258C46.1585 49.7404 46.1439 49.7622 46.1294 49.7913C46.0857 49.8496 46.0275 49.8859 45.9838 49.9005C45.9474 49.9151 45.9329 49.9078 45.9692 49.9078V49.2527V48.5976C45.6927 48.5976 45.3433 48.6704 45.1031 48.9834C44.892 49.2527 44.8629 49.5802 44.8629 49.7986H45.518V49.7913ZM48.8151 53.4815V54.1366H49.5794V53.4815V52.8265H48.8151V53.4815ZM48.8151 48.5831H48.1601V53.4888H48.8151H49.4702V48.5831H48.8151ZM49.5939 48.5831V47.928H48.8151V48.5831V49.2382H49.5939V48.5831ZM50.6129 51.3853L51.2316 51.1597L50.2053 48.3575L49.5867 48.5831L48.968 48.8087L49.9943 51.611L50.6129 51.3853ZM50.6348 51.3853V50.7302H50.6202V51.3853V52.0404H50.6348V51.3853ZM50.6348 48.5831H49.9797V51.3853H50.6348H51.2898V48.5831H50.6348ZM51.3917 48.5831V47.928H50.6275V48.5831V49.2382H51.3917V48.5831ZM51.3917 53.4815H52.0468V48.5758H51.3917H50.7367V53.4815H51.3917ZM50.6639 53.4815V54.1366H51.3917V53.4815V52.8265H50.6639V53.4815ZM49.5939 50.4246L48.9753 50.6429L50.0452 53.7072L50.6639 53.4888L51.2826 53.2704L50.2126 50.2062L49.5939 50.4246ZM49.5794 50.4246V51.0796H49.5939V50.4246V49.7695H49.5794V50.4246ZM49.5794 53.4815H50.2344V50.4173H49.5794H48.9243V53.4815H49.5794ZM54.1212 50.9996H53.4661V51.6619H54.1212H54.7762V50.9996H54.1212ZM55.4895 50.9996V50.3445H54.1139V50.9996V51.6546H55.4895V50.9996ZM55.4895 53.4815H56.1446V50.9996H55.4895H54.8345V53.4815H55.4895ZM55.0892 53.4815V54.1366H55.4895V53.4815V52.8265H55.0892V53.4815ZM54.9364 53.1176L54.3322 53.3723L54.4851 53.7435L55.0892 53.4888L55.6933 53.2341L55.5405 52.8628L54.9364 53.1176ZM54.0848 53.547V54.2021C54.3614 54.2021 54.6234 54.1511 54.8709 54.0201C55.111 53.8891 55.2857 53.7072 55.4313 53.5325L54.9291 53.1103L54.4269 52.6882C54.325 52.8119 54.274 52.8483 54.2522 52.8556C54.2376 52.8629 54.2012 52.8847 54.0848 52.8847V53.547ZM52.9639 52.2951H52.3088C52.3088 52.8119 52.4617 53.2996 52.7965 53.6562C53.1313 54.0201 53.5971 54.2021 54.0921 54.2021V53.547V52.892C53.9174 52.892 53.8228 52.8337 53.7645 52.7682C53.699 52.6954 53.6262 52.5572 53.6262 52.2878H52.9639V52.2951ZM52.9639 49.7695H52.3088V52.2878H52.9639H53.619V49.7695H52.9639ZM54.194 48.5176V47.8625C53.619 47.8625 53.124 48.059 52.7746 48.4448C52.4398 48.8233 52.3015 49.3037 52.3015 49.7695H52.9566H53.6117C53.6117 49.5439 53.6772 49.3983 53.75 49.3255C53.8082 49.26 53.9319 49.1726 54.194 49.1726V48.5176ZM55.4531 49.8641H56.1082C56.1082 49.3764 55.9699 48.8815 55.6351 48.4885C55.293 48.0882 54.7835 47.8625 54.194 47.8625V48.5176V49.1726C54.4414 49.1726 54.5652 49.2527 54.6379 49.3401C54.7253 49.442 54.7981 49.6166 54.7981 49.8641H55.4531ZM55.4531 50.1771H56.1082V49.8641H55.4531H54.7981V50.1771H55.4531ZM54.6525 50.1771V50.8321H55.4531V50.1771V49.522H54.6525V50.1771ZM54.1721 49.2527V49.9078C54.2012 49.9078 54.1648 49.9151 54.1066 49.8859C54.0338 49.8496 53.9902 49.7986 53.9683 49.7622C53.9538 49.7404 53.9683 49.7477 53.9756 49.8277C53.9902 49.9005 53.9974 50.017 53.9974 50.1844H54.6525H55.3076C55.3076 49.8132 55.2784 49.4274 55.1038 49.1217C55.0019 48.947 54.8563 48.8014 54.6671 48.7068C54.4851 48.6195 54.3104 48.6049 54.1648 48.6049V49.2527H54.1721ZM53.8009 49.7913H54.456C54.456 49.653 54.4851 49.704 54.4123 49.7913C54.3759 49.835 54.325 49.8714 54.2667 49.8932C54.2158 49.9151 54.1794 49.9151 54.1721 49.9151V49.26V48.6049C53.9392 48.6049 53.6335 48.6777 53.4079 48.947C53.1968 49.1945 53.1458 49.5075 53.1458 49.7913H53.8009ZM53.8009 52.3097H54.456V49.7913H53.8009H53.1458V52.3097H53.8009ZM54.194 52.8265V52.1714C54.194 52.1714 54.2303 52.1714 54.2886 52.2005C54.3468 52.2296 54.3978 52.2733 54.4269 52.317C54.456 52.3606 54.4633 52.3897 54.4633 52.3825C54.4633 52.3825 54.456 52.3606 54.456 52.3097H53.8009H53.1458C53.1458 52.5135 53.175 52.8046 53.3496 53.0594C53.5607 53.3578 53.881 53.4815 54.194 53.4815V52.8265ZM54.6525 52.1423H53.9974C53.9974 52.2369 53.9902 52.2951 53.9829 52.3315C53.9756 52.3606 53.9756 52.3461 53.9974 52.3024C54.012 52.2806 54.0338 52.2587 54.0557 52.2369C54.0848 52.2151 54.1066 52.2005 54.1357 52.1859C54.1867 52.1641 54.2085 52.1714 54.1867 52.1714V52.8265V53.4815C54.4924 53.4815 54.8563 53.3796 55.0892 53.0303C55.2785 52.7464 55.3003 52.4116 55.3003 52.1423H54.6525ZM54.6525 51.6692H53.9974V52.1496H54.6525H55.3076V51.6692H54.6525ZM54.1212 51.6692V52.3242H54.6598V51.6692V51.0141H54.1212V51.6692ZM12.5828 48.5831V47.928H12.0369L11.9422 48.4666L12.5828 48.5831ZM13.4125 48.5831L14.053 48.7141L14.2204 47.928H13.4125V48.5831ZM12.3935 53.4815V54.1366H12.9248L13.034 53.6125L12.3935 53.4815ZM11.5492 53.4815L10.9087 53.6125L11.0179 54.1366H11.5492V53.4815ZM10.5229 48.5831V47.928H9.71503L9.88243 48.7141L10.5229 48.5831ZM11.36 48.5831L12.0078 48.4666L11.9131 47.928H11.3672V48.5831H11.36ZM11.9714 51.9822L11.3236 52.0986L11.4182 52.6372H11.9641V51.9822H11.9714ZM18.8277 53.4815H18.1726V54.1366H18.8277V53.4815ZM18.8277 48.5831V47.928H18.1726V48.5831H18.8277ZM19.6647 48.5831H20.3198V47.928H19.6647V48.5831ZM19.6647 53.4815V54.1366H20.3198V53.4815H19.6647ZM25.3856 50.2135H26.0407V49.5584H25.3856V50.2135ZM24.5486 50.2135H23.8935V50.8685H24.5486V50.2135ZM24.5486 51.7201V51.0651H23.8935V51.7201H24.5486ZM25.3856 51.7201H26.0407V51.0651H25.3856V51.7201ZM26.9942 48.5831V47.928H26.3391V48.5831H26.9942ZM27.8312 48.5831H28.4863V47.928H27.8312V48.5831ZM28.7338 48.5831V47.928H28.0787V48.5831H28.7338ZM29.5708 48.5831H30.2258V47.928H29.5708V48.5831ZM37.8028 50.2135H38.4578V49.5584H37.8028V50.2135ZM36.9657 50.2135H36.3107V50.8685H36.9657V50.2135ZM36.9657 51.7201V51.0651H36.3107V51.7201H36.9657ZM37.8028 51.7201H38.4578V51.0651H37.8028V51.7201ZM43.2398 49.6967L43.7056 49.2382L43.4873 49.0125L43.1743 49.0489L43.2398 49.6967ZM42.4392 49.7768L41.7841 49.835L41.8496 50.4973L42.512 50.4246L42.4392 49.7768ZM40.6923 52.1932L40.5977 51.5454L40.0154 51.6328L40.0373 52.2223L40.6923 52.1932ZM41.493 52.0768L42.148 52.0258L42.0898 51.3271L41.3983 51.429L41.493 52.0768ZM43.2471 49.704L42.7813 50.1625L44.1059 51.5018L43.8949 49.6312L43.2471 49.704ZM48.8151 53.4815H48.1601V54.1366H48.8151V53.4815ZM48.8151 48.5831V47.928H48.1601V48.5831H48.8151ZM49.5939 48.5831L50.2126 48.3575L50.0525 47.928H49.5939V48.5831ZM50.6129 51.3853L49.9943 51.611L50.1544 52.0404H50.6129V51.3853ZM50.6348 51.3853V52.0404H51.2898V51.3853H50.6348ZM50.6348 48.5831V47.928H49.9797V48.5831H50.6348ZM51.3917 48.5831H52.0468V47.928H51.3917V48.5831ZM51.3917 53.4815V54.1366H52.0468V53.4815H51.3917ZM50.6639 53.4815L50.0452 53.6999L50.1981 54.1366H50.6639V53.4815ZM49.5939 50.4246L50.2126 50.2062L50.0598 49.7695H49.5939V50.4246ZM49.5794 50.4246V49.7695H48.9243V50.4246H49.5794ZM49.5794 53.4815V54.1366H50.2344V53.4815H49.5794ZM54.1212 50.9996V50.3445H53.4661V50.9996H54.1212ZM55.4895 50.9996H56.1446V50.3445H55.4895V50.9996ZM55.4895 53.4815V54.1366H56.1446V53.4815H55.4895ZM55.0892 53.4815L54.4851 53.7363L54.6525 54.1366H55.0892V53.4815ZM54.9364 53.1176L55.5405 52.8628L55.1256 51.873L54.4341 52.6954L54.9364 53.1176ZM55.4531 50.1771V50.8321H56.1082V50.1771H55.4531ZM54.6525 50.1771H53.9974V50.8321H54.6525V50.1771ZM54.6525 51.6692H55.3076V51.0141H54.6525V51.6692ZM54.1212 51.6692H53.4661V52.3242H54.1212V51.6692Z" fill="white"/>
<path d="M15.7931 48.2119L16.3317 47.3676H17.227L16.3754 48.2119H15.7931Z" fill="#75C044"/>
<path d="M16.3752 48.2118V47.5568H15.7929V48.2118V48.8669H16.3752V48.2118ZM17.2268 47.3675L16.7683 46.9017L15.9167 47.746L16.3752 48.2118L16.8338 48.6777L17.6853 47.8334L17.2268 47.3675ZM16.3315 47.3675V48.0226H17.2268V47.3675V46.7125H16.3315V47.3675ZM15.7929 48.2118L16.3461 48.5685L16.892 47.7242L16.3388 47.3675L15.7857 47.0109L15.2398 47.8552L15.7929 48.2118ZM16.3752 48.2118V48.8669H16.6445L16.8338 48.6777L16.3752 48.2118ZM17.2268 47.3675L17.6853 47.8334L18.8135 46.7125H17.2195V47.3675H17.2268ZM16.3315 47.3675V46.7125H15.9749L15.7784 47.0109L16.3315 47.3675ZM15.7929 48.2118L15.2398 47.8552L14.592 48.8669H15.7929V48.2118Z" fill="white"/>
<path d="M16.9646 48.0371H17.5687V48.5321C17.5687 48.7286 17.5178 48.8742 17.4159 48.9833C17.314 49.0925 17.1611 49.1435 16.9573 49.1435V48.8887C17.0374 48.8887 17.0956 48.8523 17.1539 48.8014C17.2048 48.7577 17.2339 48.6995 17.2339 48.6267H16.9573V48.0298L16.9646 48.0371Z" fill="#75C044"/>
<path d="M16.9576 48.0226L16.4918 48.4812L16.4991 48.4885L16.9649 48.0372L17.4307 47.5786L17.4234 47.5714L16.9576 48.0226ZM16.9576 48.6195H17.6127V48.0226H16.9576H16.3026V48.6195H16.9576ZM17.2269 48.6195V47.9644H16.9576V48.6195V49.2745H17.2269V48.6195ZM17.1469 48.7941L17.5763 49.2891C17.7801 49.1144 17.882 48.8742 17.882 48.6195H17.2269H16.5719C16.5719 48.5831 16.5791 48.5176 16.6082 48.4448C16.6374 48.372 16.681 48.321 16.7174 48.2919L17.1469 48.7941ZM16.9576 48.8815V49.5366C17.2706 49.5366 17.4817 49.3764 17.5836 49.2891L17.1541 48.7941L16.7247 48.2992C16.7101 48.3138 16.7975 48.2264 16.9576 48.2264V48.8815ZM16.9576 49.1362H17.6127V48.8815H16.9576H16.3026V49.1362H16.9576ZM17.4162 48.9834L16.9358 48.5394C16.9503 48.5248 16.9722 48.5103 16.9867 48.4957C17.0013 48.4884 17.0158 48.4812 17.0231 48.4812C17.0304 48.4812 17.0231 48.4812 17.0158 48.4812C17.0086 48.4812 16.9867 48.4812 16.9649 48.4812V49.1362V49.7913C17.2488 49.7913 17.6272 49.7258 17.9038 49.4201L17.4162 48.9834ZM17.569 48.5248H16.9139C16.9139 48.5612 16.9067 48.5758 16.9139 48.5685C16.9139 48.5685 16.9139 48.5612 16.9212 48.554C16.9285 48.5467 16.9285 48.5394 16.9358 48.5321L17.4162 48.9761L17.8965 49.4201C18.1295 49.1654 18.2241 48.8451 18.2241 48.5248H17.569ZM17.569 48.0372H16.9139V48.5321H17.569H18.2241V48.0372H17.569ZM16.9649 48.0372V48.6923H17.569V48.0372V47.3821H16.9649V48.0372ZM16.9576 48.0226L17.4234 47.5641L16.3026 46.4359V48.0299H16.9576V48.0226ZM16.9576 48.6195H16.3026V49.2745H16.9576V48.6195ZM17.2269 48.6195H17.882V47.9644H17.2269V48.6195ZM16.9576 48.8815V48.2264H16.3026V48.8815H16.9576ZM16.9576 49.1362H16.3026V49.7913H16.9576V49.1362ZM17.569 48.0372H18.2241V47.3821H17.569V48.0372ZM16.9649 48.0372L16.4991 48.4957L16.6883 48.6923H16.9576V48.0372H16.9649Z" fill="white"/>
<path d="M32.1184 47.4695H32.8317L33.5014 48.3138H32.8463L32.4751 47.8407L32.1039 48.3138H31.4634L32.1184 47.4695Z" fill="#75C044"/>
<path d="M31.4635 48.3137L31.9802 48.7141L32.6426 47.8698L32.1258 47.4694L31.609 47.0691L30.9467 47.9134L31.4635 48.3137ZM32.104 48.3137V47.6587H31.4562V48.3137V48.9688H32.104V48.3137ZM32.4752 47.8406L31.9584 47.4403L31.5872 47.9207L32.104 48.321L32.6207 48.7213L32.9919 48.241L32.4752 47.8406ZM32.8464 48.3137L33.3704 47.9134L33.0065 47.433L32.4824 47.8334L31.9584 48.2337L32.3223 48.7141L32.8464 48.3137ZM33.5014 48.3137V47.6587H32.8391V48.3137V48.9688H33.5014V48.3137ZM32.8318 47.4694L32.315 47.877L32.9847 48.7213L33.5014 48.3137L34.0182 47.9062L33.3486 47.0618L32.8318 47.4694ZM32.1185 47.4694V48.1245H32.8318V47.4694V46.8144H32.1185V47.4694ZM31.4635 48.3137L30.9467 47.9134L30.1242 48.9688H31.4635V48.3137ZM32.104 48.3137V48.9688H32.4242L32.6207 48.7141L32.104 48.3137ZM32.4752 47.8406L32.9992 47.4403L32.4824 46.7634L31.9584 47.433L32.4752 47.8406ZM32.8464 48.3137L32.3223 48.7141L32.5188 48.9688H32.8464V48.3137ZM33.5014 48.3137V48.9688H34.8552L34.0182 47.9062L33.5014 48.3137ZM32.8318 47.4694L33.3486 47.0618L33.1521 46.8144H32.8318V47.4694ZM32.1185 47.4694V46.8144H31.7983L31.6017 47.0691L32.1185 47.4694Z" fill="white"/>
<path d="M45.6198 47.4695H46.3404L47.0028 48.3138H46.3477L45.9765 47.8407L45.6053 48.3138H44.9648L45.6198 47.4695Z" fill="#75C044"/>
<path d="M44.9648 48.3137L45.4816 48.7141L46.1439 47.8698L45.6271 47.4694L45.1104 47.0691L44.448 47.9134L44.9648 48.3137ZM45.6053 48.3137V47.6587H44.9575V48.3137V48.9688H45.6053V48.3137ZM45.9765 47.8406L45.4597 47.4403L45.0885 47.9207L45.6053 48.321L46.1221 48.7213L46.4933 48.241L45.9765 47.8406ZM46.3477 48.3137L46.8718 47.9134L46.5078 47.433L45.9838 47.8334L45.4597 48.2337L45.8237 48.7141L46.3477 48.3137ZM47.0028 48.3137V47.6587H46.3404V48.3137V48.9688H47.0028V48.3137ZM46.3404 47.4694L45.8237 47.877L46.4933 48.7213L47.0101 48.3137L47.5268 47.9062L46.8572 47.0618L46.3404 47.4694ZM45.6199 47.4694V48.1245H46.3332V47.4694V46.8144H45.6199V47.4694ZM44.9648 48.3137L44.448 47.9134L43.6255 48.9688H44.9648V48.3137ZM45.6053 48.3137V48.9688H45.9256L46.1221 48.7141L45.6053 48.3137ZM45.9765 47.8406L46.5006 47.4403L45.9838 46.7634L45.4597 47.433L45.9765 47.8406ZM46.3477 48.3137L45.8237 48.7141L46.0202 48.9688H46.3477V48.3137ZM47.0028 48.3137V48.9688H48.3566L47.5195 47.9062L47.0028 48.3137ZM46.3404 47.4694L46.8572 47.0618L46.6607 46.8144H46.3404V47.4694ZM45.6199 47.4694V46.8144H45.2996L45.1031 47.0691L45.6199 47.4694Z" fill="white"/>
<path d="M46.7551 48.2919L47.301 47.4476H48.189L47.3374 48.2919H46.7551Z" fill="#75C044"/>
<path d="M47.3383 48.292V47.6369H46.756V48.292V48.947H47.3383V48.292ZM48.1899 47.4477L47.724 46.9818L46.8797 47.8261L47.3456 48.292L47.8114 48.7578L48.6557 47.9135L48.1899 47.4477ZM47.3019 47.4477V48.1027H48.1899V47.4477V46.7926H47.3019V47.4477ZM46.756 48.292L47.3092 48.6486L47.8551 47.8043L47.3019 47.4477L46.7487 47.091L46.2028 47.9353L46.756 48.292ZM47.3383 48.292V48.947H47.6076L47.7968 48.7578L47.3383 48.292ZM48.1899 47.4477L48.6557 47.9135L49.7766 46.7926H48.1972V47.4477H48.1899ZM47.3019 47.4477V46.7926H46.9452L46.7487 47.091L47.3019 47.4477ZM46.756 48.292L46.2028 47.9353L45.5551 48.947H46.756V48.292Z" fill="white"/>
<path d="M32.7884 53.9764H32.1406V54.6097H32.7884V53.9764Z" fill="#75C044"/>
<path d="M32.141 54.6096H32.796V53.9764H32.141H31.4859V54.6096H32.141ZM32.7888 54.6096V53.9546H32.141V54.6096V55.2647H32.7888V54.6096ZM32.7888 53.9764H32.1337V54.6096H32.7888H33.4438V53.9764H32.7888ZM32.141 53.9764V54.6315H32.7888V53.9764V53.3214H32.141V53.9764ZM32.141 54.6096H31.4859V55.2647H32.141V54.6096ZM32.7888 54.6096V55.2647H33.4438V54.6096H32.7888ZM32.7888 53.9764H33.4438V53.3214H32.7888V53.9764ZM32.141 53.9764V53.3214H31.4859V53.9764H32.141Z" fill="white"/>
<path d="M12.2555 39.5068H12.9834L13.6457 40.3511L12.9906 40.3438L12.6194 39.878L12.2482 40.3438L11.6077 40.3511L12.2555 39.5068Z" fill="#D2AB56"/>
<path d="M11.6079 40.3511L12.1246 40.7514L12.7797 39.9071L12.2629 39.5068L11.7462 39.1064L11.0911 39.9508L11.6079 40.3511ZM12.2484 40.3438L12.2411 39.6887L11.5933 39.696L11.6006 40.3511L11.6079 41.0061L12.2557 40.9989L12.2484 40.3438ZM12.6196 39.878L12.1028 39.4704L11.7316 39.9435L12.2484 40.3511L12.7652 40.7587L13.1364 40.2856L12.6196 39.878ZM12.9908 40.3438L13.5076 39.9435L13.1436 39.4704L12.6269 39.8707L12.1101 40.271L12.474 40.7441L12.9908 40.3438ZM13.6459 40.3511L13.6531 39.696L12.9908 39.6887L12.9835 40.3438L12.9762 40.9989L13.6386 41.0061L13.6459 40.3511ZM12.9835 39.5068L12.4667 39.9144L13.1364 40.7587L13.6531 40.3511L14.1699 39.9435L13.5003 39.0992L12.9835 39.5068ZM12.2557 39.5068V40.1618H12.9762V39.5068V38.8517H12.2557V39.5068ZM11.6079 40.3511L11.0911 39.9508L10.2614 41.0207L11.6152 41.0061L11.6079 40.3511ZM12.2484 40.3438L12.2557 40.9989L12.5686 40.9916L12.7652 40.7441L12.2484 40.3438ZM12.6196 39.878L13.1364 39.4777L12.6269 38.8153L12.1101 39.4704L12.6196 39.878ZM12.9908 40.3438L12.474 40.7441L12.6705 40.9916L12.9835 40.9989L12.9908 40.3438ZM13.6459 40.3511L13.6386 41.0061L15.0142 41.0207L14.1626 39.9435L13.6459 40.3511ZM12.9835 39.5068L13.5003 39.0992L13.3038 38.8517H12.9835V39.5068ZM12.2557 39.5068V38.8517H11.9354L11.7389 39.1064L12.2557 39.5068Z" fill="white"/>
<path d="M13.3991 40.322L13.945 39.485H14.833L13.9741 40.322H13.3991Z" fill="#D2AB56"/>
<path d="M13.9731 40.322V39.6669H13.3981V40.322V40.9771H13.9731V40.322ZM14.8319 39.485L14.3734 39.0191L13.5218 39.8562L13.9803 40.322L14.4389 40.7878L15.2905 39.9508L14.8319 39.485ZM13.9439 39.485V40.14H14.8319V39.485V38.8299H13.9439V39.485ZM13.3981 40.322L13.9512 40.6786L14.4971 39.8416L13.9439 39.485L13.3908 39.1283L12.8449 39.9653L13.3981 40.322ZM13.9731 40.322V40.9771H14.2424L14.4316 40.7878L13.9731 40.322ZM14.8319 39.485L15.2905 39.9508L16.4332 38.8299H14.8319V39.485ZM13.9439 39.485V38.8299H13.5873L13.3908 39.1283L13.9439 39.485ZM13.3981 40.322L12.8449 39.9653L12.1898 40.9771H13.3981V40.322Z" fill="white"/>
<path d="M25.2403 39.5068H25.9535L26.6232 40.3511L25.9681 40.3438L25.5969 39.878L25.2257 40.3438L24.5925 40.3511L25.2403 39.5068Z" fill="#D2AB56"/>
<path d="M24.5926 40.3511L25.1094 40.7514L25.7645 39.9071L25.2477 39.5068L24.7309 39.1065L24.0758 39.9508L24.5926 40.3511ZM25.2258 40.3438L25.2186 39.6887L24.5853 39.696L24.5926 40.3511L24.5999 41.0062L25.2331 40.9989L25.2258 40.3438ZM25.597 39.878L25.0803 39.4704L24.7091 39.9435L25.2258 40.3511L25.7426 40.7587L26.1138 40.2856L25.597 39.878ZM25.9683 40.3438L26.485 39.9362L26.1138 39.4631L25.597 39.8707L25.0803 40.2783L25.4515 40.7514L25.9683 40.3438ZM26.6233 40.3511L26.6306 39.696L25.9755 39.6887L25.9683 40.3438L25.961 40.9989L26.616 41.0062L26.6233 40.3511ZM25.9537 39.5068L25.4369 39.9144L26.1065 40.7587L26.6233 40.3511L27.1401 39.9435L26.4705 39.0992L25.9537 39.5068ZM25.2404 39.5068V40.1618H25.9537V39.5068V38.8517H25.2404V39.5068ZM24.5926 40.3511L24.0758 39.9508L23.2461 41.0207L24.5999 41.0062L24.5926 40.3511ZM25.2258 40.3438L25.2331 40.9989L25.5461 40.9916L25.7426 40.7441L25.2258 40.3438ZM25.597 39.878L26.1138 39.4704L25.597 38.8226L25.0803 39.4704L25.597 39.878ZM25.9683 40.3438L25.4515 40.7514L25.648 40.9989L25.961 41.0062L25.9683 40.3438ZM26.6233 40.3511L26.616 41.0062L27.9917 41.0207L27.1401 39.9435L26.6233 40.3511ZM25.9537 39.5068L26.4705 39.0992L26.2739 38.8517H25.9537V39.5068ZM25.2404 39.5068V38.8517H24.9202L24.7236 39.1065L25.2404 39.5068Z" fill="white"/>
<path d="M26.3256 40.322L26.8642 39.485H27.7594L26.9006 40.322H26.3256Z" fill="#D2AB56"/>
<path d="M26.8994 40.322V39.6669H26.3244V40.322V40.9771H26.8994V40.322ZM27.7582 39.485L27.2997 39.0191L26.4481 39.8562L26.9066 40.322L27.3652 40.7878L28.2168 39.9508L27.7582 39.485ZM26.863 39.485V40.14H27.7582V39.485V38.8299H26.863V39.485ZM26.3244 40.322L26.8775 40.6714L27.4161 39.8343L26.863 39.485L26.3098 39.1356L25.7712 39.9726L26.3244 40.322ZM26.8994 40.322V40.9771H27.1687L27.3579 40.7878L26.8994 40.322ZM27.7582 39.485L28.2168 39.9508L29.3595 38.8299H27.7582V39.485ZM26.863 39.485V38.8299H26.5063L26.3098 39.1356L26.863 39.485ZM26.3244 40.322L25.7712 39.9726L25.1234 40.9771H26.3171V40.322H26.3244Z" fill="white"/>
<path d="M52.5201 40.322L53.0587 39.485H53.9467L53.1024 40.322H52.5201Z" fill="#D2AB56"/>
<path d="M53.1024 40.322V39.6669H52.5201V40.322V40.9771H53.1024V40.322ZM53.9467 39.485L53.4882 39.0191L52.6439 39.8562L53.1024 40.322L53.5609 40.7878L54.4053 39.9508L53.9467 39.485ZM53.0587 39.485V40.14H53.9467V39.485V38.8299H53.0587V39.485ZM52.5201 40.322L53.0733 40.6786L53.6192 39.8416L53.066 39.485L52.5128 39.1283L51.967 39.9653L52.5201 40.322ZM53.1024 40.322V40.9771H53.3717L53.5609 40.7878L53.1024 40.322ZM53.9467 39.485L54.4053 39.9508L55.5407 38.8299H53.9467V39.485ZM53.0587 39.485V38.8299H52.7021L52.5056 39.1283L53.0587 39.485ZM52.5201 40.322L51.967 39.9653L51.3119 40.9771H52.5201V40.322Z" fill="white"/>
<path d="M54.0415 40.0527H54.6456V40.5476C54.6456 40.7441 54.5947 40.897 54.4928 40.9989C54.3909 41.1081 54.238 41.1663 54.0342 41.1663V40.9043C54.1143 40.9043 54.1725 40.8679 54.2308 40.8169C54.2817 40.7733 54.3108 40.715 54.3108 40.6422H54.0415V40.0454V40.0527Z" fill="#D2AB56"/>
<path d="M54.0345 40.0527V40.7077H54.0418V40.0527V39.3976H54.0345V40.0527ZM54.0345 40.6495H54.6896V40.0527H54.0345H53.3795V40.6495H54.0345ZM54.3038 40.6495V39.9945H54.0345V40.6495V41.3046H54.3038V40.6495ZM54.2238 40.8242L54.6532 41.3191C54.857 41.1445 54.9589 40.9043 54.9589 40.6495H54.3038H53.6488C53.6488 40.6131 53.656 40.5476 53.6852 40.4748C53.7143 40.402 53.7579 40.3511 53.7943 40.322L54.2238 40.8242ZM54.0345 40.9043V41.5593C54.3475 41.5593 54.5586 41.3992 54.6605 41.3119L54.231 40.8169L53.8016 40.322C53.7871 40.3365 53.8744 40.2492 54.0345 40.2492V40.9043ZM54.0345 41.1663H54.6896V40.9043H54.0345H53.3795V41.159H54.0345V41.1663ZM54.4931 40.9989L54.0127 40.5549C54.0272 40.5403 54.0418 40.5258 54.0564 40.5185C54.0709 40.5112 54.0782 40.5039 54.0855 40.5039C54.0927 40.5039 54.0855 40.5039 54.0418 40.5039V41.159V41.8141C54.3548 41.8141 54.7187 41.7267 54.9807 41.4356L54.4931 40.9989ZM54.6459 40.5476H53.9909C53.9909 40.584 53.9836 40.5986 53.9836 40.5986C53.9836 40.5913 53.9981 40.5695 54.02 40.5403L54.4858 40.9989L54.9516 41.4574C55.2136 41.1954 55.2937 40.8533 55.2937 40.5403H54.6459V40.5476ZM54.6459 40.0527H53.9909V40.5476H54.6459H55.301V40.0527H54.6459ZM54.0418 40.0527V40.7077H54.6459V40.0527V39.3976H54.0418V40.0527ZM54.0345 40.0527V39.3976H53.3795V40.0527H54.0345ZM54.0345 40.6495H53.3795V41.3046H54.0345V40.6495ZM54.3038 40.6495H54.9589V39.9945H54.3038V40.6495ZM54.0345 40.9043V40.2492H53.3795V40.9043H54.0345ZM54.0345 41.1663H53.3795V41.8214H54.0345V41.1663ZM54.4931 40.9989L54.0272 40.5403L54.02 40.5476L54.0127 40.5549L54.4931 40.9989ZM54.6459 40.0527H55.301V39.3976H54.6459V40.0527Z" fill="white"/>
<path d="M8.51415 45.5479V43.8157L8.81257 43.277H8.82713L9.51131 45.5552H10.3629L9.33662 42.4764L10.2464 40.6495H9.40941L8.52871 42.4619H8.51415V40.6495H7.67712V45.5552H8.51415V45.5479ZM13.8275 45.5479V44.8128H12.3208V43.3717H13.4053V42.6365H12.3208V41.3774H13.7328V40.6422H11.4838V45.5479H13.8275ZM15.7271 45.5479H16.5642V41.3846H17.3794V40.6495H14.912V41.3846H15.7271V45.5479ZM20.8949 45.5479V42.4837H20.9094L21.9794 45.5479H22.7072V40.6422H21.943V43.4444H21.9284L20.9022 40.6422H20.1234V45.5479H20.8949ZM24.2721 44.3615C24.2721 45.053 24.6724 45.6134 25.5604 45.6134C26.4484 45.6134 26.8487 45.053 26.8487 44.3615V41.8432C26.8487 41.1517 26.4484 40.5913 25.5604 40.5913C24.6724 40.5913 24.2721 41.1517 24.2721 41.8432V44.3615ZM25.1091 41.8577C25.1091 41.4865 25.2183 41.3191 25.5531 41.3191C25.8879 41.3191 26.0044 41.5011 26.0044 41.8577V44.3397C26.0044 44.7109 25.8952 44.8783 25.5531 44.8783C25.211 44.8783 25.1091 44.6964 25.1091 44.3397V41.8577ZM29.2943 45.5479V40.6422H28.4572V45.5479H29.2943ZM32.9699 45.5479H33.8069V41.3846H34.6221V40.6495H32.1547V41.3846H32.9699V45.5479ZM36.7111 41.3482H37.0095C37.468 41.3482 37.6282 41.5229 37.6282 42.0979C37.6282 42.6729 37.4608 42.8476 37.0095 42.8476H36.7111V41.3482ZM36.7111 43.5464C36.8566 43.5464 37.0386 43.5463 37.1478 43.5245L37.7446 45.5552H38.5962L37.8829 43.3426C38.1668 43.2188 38.4725 42.8986 38.4725 42.1052C38.4725 41.0644 37.9921 40.6568 37.0532 40.6568H35.874V45.5625H36.7111V43.5464ZM40.7652 45.5625V40.6568H39.9282V45.5625H40.7652ZM44.4336 45.5625H45.2706V41.3992H46.0858V40.6641H43.6184V41.3992H44.4336V45.5625ZM48.1747 45.5625V43.3935H49.07V45.5625H49.907V40.6568H49.07V42.6511H48.1747V40.6568H47.3377V45.5625H48.1747ZM51.4792 44.3252C51.4792 45.1695 51.9668 45.628 52.7674 45.628C53.5681 45.628 54.0557 45.1695 54.0557 44.3252V40.6568H53.2187V44.3543C53.2187 44.7109 53.0804 44.8929 52.7674 44.8929C52.4545 44.8929 52.3162 44.7109 52.3162 44.3543V40.6568H51.4792V44.3252ZM58.1535 42.2944V41.9378C58.1535 41.2027 57.7532 40.5913 56.9016 40.5913C56.0501 40.5913 55.6133 41.1517 55.6133 41.8432V44.3615C55.6133 45.053 56.0137 45.6134 56.9016 45.6134C57.7896 45.6134 58.1535 45.053 58.1535 44.3615V43.8011H57.3165V44.3907C57.3165 44.7109 57.2146 44.8856 56.9162 44.8856C56.5741 44.8856 56.4649 44.7036 56.4649 44.347V41.865C56.4649 41.4938 56.5741 41.3264 56.9162 41.3264C57.1345 41.3264 57.3165 41.5084 57.3165 41.916V42.3017H58.1535V42.2944Z" fill="#D2AB56"/>
<path d="M7.6774 45.548V46.203H8.51443V45.548V44.8929H7.6774V45.548ZM7.6774 40.6495H7.02234V45.5553H7.6774H8.33247V40.6495H7.6774ZM8.51443 40.6495V39.9945H7.6774V40.6495V41.3046H8.51443V40.6495ZM8.51443 42.4619H9.1695V40.6495H8.51443H7.85937V42.4619H8.51443ZM8.52899 42.4619V41.8068H8.51443V42.4619V43.117H8.52899V42.4619ZM9.40969 40.6495L8.82013 40.3657L7.93943 42.178L8.52899 42.4619L9.11855 42.7458L9.99925 40.9334L9.40969 40.6495ZM10.2467 40.6495V39.9945H9.40969V40.6495V41.3046H10.2467V40.6495ZM9.3369 42.4764L9.92646 42.7676L10.8363 40.9407L10.2467 40.6495L9.65716 40.3584L8.74734 42.1853L9.3369 42.4764ZM10.3632 45.548L10.9818 45.3442L9.95558 42.2654L9.3369 42.4692L8.71823 42.673L9.7445 45.7518L10.3632 45.548ZM9.51159 45.548V46.203H10.3632V45.548V44.8929H9.51159V45.548ZM8.82741 43.2698L8.20146 43.459L8.88564 45.7372L9.51159 45.548L10.1375 45.3587L9.45336 43.0806L8.82741 43.2698ZM8.81285 43.2698V43.9249H8.82741V43.2698V42.6147H8.81285V43.2698ZM8.51443 43.8157L9.08943 44.1287L9.38785 43.5901L8.81285 43.2771L8.23785 42.9641L7.93943 43.5027L8.51443 43.8157ZM8.51443 45.548H9.1695V43.8157H8.51443H7.85937V45.5553H8.51443V45.548ZM13.8277 45.5407H13.1727V45.548H13.8277H14.4828V45.5407H13.8277ZM11.4841 45.5407V46.1958H13.8277V45.5407V44.8856H11.4841V45.5407ZM11.4841 40.6423H10.829V45.548H11.4841H12.1391V40.6423H11.4841ZM13.7331 40.6423V39.9872H11.4841V40.6423V41.2973H13.7331V40.6423ZM13.7331 41.3774H14.3882V40.6423H13.7331H13.0781V41.3774H13.7331ZM12.3211 41.3774V42.0325H13.7331V41.3774V40.7223H12.3211V41.3774ZM12.3211 42.6366H12.9762V41.3774H12.3211H11.666V42.6366H12.3211ZM13.4056 42.6366V41.9815H12.3211V42.6366V43.2916H13.4056V42.6366ZM13.4056 43.3717H14.0607V42.6366H13.4056H12.7505V43.3717H13.4056ZM12.3211 43.3717V44.0268H13.4056V43.3717V42.7166H12.3211V43.3717ZM12.3211 44.8128H12.9762V43.3717H12.3211H11.666V44.8128H12.3211ZM13.8277 44.8128V44.1578H12.3211V44.8128V45.4679H13.8277V44.8128ZM13.8277 45.548H14.4828V44.8128H13.8277H13.1727V45.548H13.8277ZM15.7274 41.3847H15.0724V45.548H15.7274H16.3825V41.3847H15.7274ZM14.9122 41.3847V42.0397H15.7274V41.3847V40.7296H14.9122V41.3847ZM14.9122 40.6495H14.2572V41.3847H14.9122H15.5673V40.6495H14.9122ZM17.3796 40.6495V39.9945H14.9122V40.6495V41.3046H17.3796V40.6495ZM17.3796 41.3847H18.0347V40.6495H17.3796H16.7246V41.3847H17.3796ZM16.5645 41.3847V42.0397H17.3796V41.3847V40.7296H16.5645V41.3847ZM16.5645 45.548H17.2195V41.3847H16.5645H15.9094V45.548H16.5645ZM15.7274 45.548V46.203H16.5645V45.548V44.8929H15.7274V45.548ZM20.1309 45.548V46.203H20.8952V45.548V44.8929H20.1309V45.548ZM20.1309 40.6495H19.4759V45.5553H20.1309H20.786V40.6495H20.1309ZM20.9097 40.6495V39.9945H20.1309V40.6495V41.3046H20.9097V40.6495ZM21.936 43.4518L22.5547 43.2261L21.5284 40.4239L20.9097 40.6495L20.291 40.8752L21.3173 43.6774L21.936 43.4518ZM21.9505 43.4518V42.7967H21.936V43.4518V44.1068H21.9505V43.4518ZM21.9505 40.6495H21.2955V43.4518H21.9505H22.6056V40.6495H21.9505ZM22.7075 40.6495V39.9945H21.9433V40.6495V41.3046H22.7075V40.6495ZM22.7075 45.548H23.3626V40.6423H22.7075H22.0524V45.548H22.7075ZM21.9797 45.548V46.203H22.7075V45.548V44.8929H21.9797V45.548ZM20.9097 42.491L20.291 42.7094L21.361 45.7736L21.9797 45.5553L22.5983 45.3369L21.5284 42.2727L20.9097 42.491ZM20.8952 42.491V43.1461H20.9097V42.491V41.8359H20.8952V42.491ZM20.8952 45.548H21.5502V42.4837H20.8952H20.2401V45.548H20.8952ZM24.2724 41.8359H23.6173V44.3543H24.2724H24.9275V41.8359H24.2724ZM25.5607 40.584V39.929C24.9711 39.929 24.4616 40.1182 24.105 40.504C23.7556 40.8825 23.6173 41.3701 23.6173 41.8359H24.2724H24.9275C24.9275 41.6176 24.993 41.4793 25.0657 41.3992C25.1313 41.3264 25.2623 41.2391 25.5607 41.2391V40.584ZM26.849 41.8359H27.504C27.504 41.3701 27.3658 40.8825 27.0164 40.504C26.6597 40.1182 26.1502 39.929 25.5607 39.929V40.584V41.2391C25.8591 41.2391 25.9901 41.3264 26.0556 41.3992C26.1284 41.4793 26.1939 41.6176 26.1939 41.8359H26.849ZM26.849 44.3616H27.504V41.8432H26.849H26.1939V44.3616H26.849ZM25.5607 45.6135V46.2685C26.1502 46.2685 26.6597 46.0793 27.0164 45.6935C27.3658 45.3151 27.504 44.8274 27.504 44.3616H26.849H26.1939C26.1939 44.5799 26.1284 44.7182 26.0556 44.7983C25.9901 44.8711 25.8591 44.9584 25.5607 44.9584V45.6135ZM24.2724 44.3616H23.6173C23.6173 44.8274 23.7556 45.3151 24.105 45.6935C24.4616 46.0793 24.9711 46.2685 25.5607 46.2685V45.6135V44.9584C25.2623 44.9584 25.1313 44.8711 25.0657 44.7983C24.993 44.7182 24.9275 44.5799 24.9275 44.3616H24.2724ZM25.1094 44.3397H25.7645V41.8578H25.1094H24.4544V44.3397H25.1094ZM25.5534 44.8784V44.2233C25.5243 44.2233 25.5388 44.216 25.5825 44.2378C25.6335 44.2597 25.6844 44.2961 25.7281 44.3543C25.7645 44.4052 25.7718 44.4416 25.7718 44.4416C25.7718 44.4344 25.7645 44.4053 25.7645 44.347H25.1094H24.4544C24.4544 44.5581 24.4762 44.8784 24.68 45.1477C24.9202 45.4679 25.2695 45.5407 25.5534 45.5407V44.8784ZM26.0047 44.3397H25.3496C25.3496 44.3689 25.3496 44.3907 25.3496 44.4125C25.3496 44.4198 25.3496 44.4271 25.3496 44.4271C25.3496 44.4198 25.3569 44.4198 25.3569 44.4052C25.3642 44.3907 25.3787 44.3689 25.3933 44.3397C25.4369 44.2815 25.4952 44.2451 25.5388 44.2306C25.5752 44.216 25.5898 44.2233 25.5534 44.2233V44.8784V45.5334C25.83 45.5334 26.1794 45.4606 26.4195 45.1477C26.6306 44.8784 26.6597 44.5508 26.6597 44.3325H26.0047V44.3397ZM26.0047 41.8578H25.3496V44.3397H26.0047H26.6597V41.8578H26.0047ZM25.5534 41.3119V41.967C25.5825 41.967 25.568 41.9742 25.5243 41.9597C25.4806 41.9451 25.4297 41.9087 25.386 41.8578C25.3642 41.8359 25.3569 41.8141 25.3496 41.7995C25.3423 41.785 25.3423 41.7777 25.3423 41.7777C25.3423 41.7777 25.3423 41.785 25.3423 41.7995C25.3423 41.8141 25.3423 41.8359 25.3423 41.8651H25.9974H26.6525C26.6525 41.6394 26.6233 41.3192 26.4123 41.0571C26.1721 40.7514 25.83 40.6714 25.5461 40.6714V41.3119H25.5534ZM25.1094 41.8578H25.7645C25.7645 41.7923 25.7718 41.7704 25.7718 41.7632C25.7718 41.7632 25.7645 41.7995 25.7281 41.8505C25.6844 41.9087 25.6262 41.9451 25.5825 41.9597C25.5461 41.9742 25.5243 41.967 25.5607 41.967V41.3119V40.6568C25.2841 40.6568 24.9347 40.7296 24.6945 41.0426C24.4835 41.3119 24.4616 41.6321 24.4616 41.8505H25.1094V41.8578ZM28.4575 45.548V46.203H29.2946V45.548V44.8929H28.4575V45.548ZM28.4575 40.6495H27.8025V45.5553H28.4575H29.1126V40.6495H28.4575ZM29.2946 40.6495V39.9945H28.4575V40.6495V41.3046H29.2946V40.6495ZM29.2946 45.548H29.9496V40.6423H29.2946H28.6395V45.548H29.2946ZM32.9702 41.3847H32.3151V45.548H32.9702H33.6253V41.3847H32.9702ZM32.155 41.3847V42.0397H32.9702V41.3847V40.7296H32.155V41.3847ZM32.155 40.6495H31.4999V41.3847H32.155H32.8101V40.6495H32.155ZM34.6224 40.6495V39.9945H32.155V40.6495V41.3046H34.6224V40.6495ZM34.6224 41.3847H35.2775V40.6495H34.6224H33.9674V41.3847H34.6224ZM33.8072 41.3847V42.0397H34.6224V41.3847V40.7296H33.8072V41.3847ZM33.8072 45.548H34.4623V41.3847H33.8072H33.1522V45.548H33.8072ZM32.9702 45.548V46.203H33.8072V45.548V44.8929H32.9702V45.548ZM36.7113 42.8477H37.3664V41.341H36.7113H36.0563V42.8477H36.7113ZM37.0025 42.8477V42.1926H36.7041V42.8477V43.5027H37.0025V42.8477ZM37.6284 42.098H36.9734C36.9734 42.1562 36.9734 42.1999 36.9661 42.2363C36.9661 42.2726 36.9588 42.2945 36.9588 42.309C36.9515 42.3382 36.9515 42.309 36.9879 42.2654C37.0098 42.2435 37.0243 42.229 37.0462 42.2144C37.068 42.1999 37.0826 42.1926 37.0898 42.1926C37.0971 42.1926 37.0898 42.1926 37.0753 42.1926C37.0607 42.1926 37.0316 42.1999 36.9952 42.1999V42.8549V43.51C37.2791 43.51 37.6794 43.459 37.9705 43.1242C38.2326 42.8185 38.2689 42.4182 38.2689 42.1052H37.6284V42.098ZM37.0025 41.3483V42.0033C37.0389 42.0033 37.068 42.0033 37.0826 42.0106C37.0971 42.0179 37.1044 42.0106 37.0971 42.0106C37.0898 42.0106 37.0753 42.0033 37.0534 41.9888C37.0316 41.9742 37.0098 41.9524 36.9879 41.9306C36.9515 41.8869 36.9515 41.8578 36.9515 41.8869C36.9515 41.9014 36.9588 41.9233 36.9588 41.9597C36.9588 41.9961 36.9661 42.0397 36.9661 42.098H37.6212H38.2762C38.2762 41.7923 38.2398 41.3919 37.9851 41.079C37.6939 40.7369 37.2864 40.6859 37.0025 40.6859V41.3483ZM36.7113 41.3483V42.0033H37.0098V41.3483V40.6932H36.7113V41.3483ZM36.7113 43.5391H36.0563V43.5464H36.7113H37.3664V43.5391H36.7113ZM36.7113 45.548H37.3664V43.5318H36.7113H36.0563V45.548H36.7113ZM35.8743 45.548V46.203H36.7113V45.548V44.8929H35.8743V45.548ZM35.8743 40.6495H35.2193V45.5553H35.8743H36.5294V40.6495H35.8743ZM37.0534 40.6495V39.9945H35.8743V40.6495V41.3046H37.0534V40.6495ZM38.4727 42.098H39.1278C39.1278 41.4866 38.9895 40.9188 38.5746 40.5113C38.1598 40.1109 37.5993 39.9945 37.0534 39.9945V40.6495V41.3046C37.4465 41.3046 37.5993 41.392 37.6576 41.4502C37.7158 41.5084 37.8177 41.6613 37.8177 42.098H38.4727ZM37.8832 43.3353L38.1452 43.9321C38.4072 43.8157 38.6693 43.6119 38.8512 43.2916C39.0332 42.9714 39.1278 42.5711 39.1278 42.098H38.4727H37.8177C37.8177 42.4109 37.7595 42.5711 37.7158 42.6439C37.6794 42.7094 37.643 42.7239 37.6212 42.7385L37.8832 43.3353ZM38.5965 45.548L39.2224 45.3442L38.5091 43.1315L37.8832 43.3353L37.2572 43.5391L37.9705 45.7518L38.5965 45.548ZM37.7449 45.548V46.203H38.5965V45.548V44.8929H37.7449V45.548ZM37.1408 43.5246L36.5148 43.7065L37.1117 45.7372L37.7376 45.5553L38.3636 45.3733L37.7667 43.3426L37.1408 43.5246ZM36.7113 43.5464V44.2015C36.8278 44.2015 37.0898 44.2015 37.2864 44.1651L37.1481 43.5246L37.0098 42.884C37.017 42.884 37.0098 42.884 36.9952 42.884C36.9807 42.884 36.9515 42.884 36.9224 42.8913C36.8569 42.8913 36.7914 42.8913 36.7186 42.8913V43.5464H36.7113ZM39.9212 45.5625V46.2176H40.7582V45.5625V44.9075H39.9212V45.5625ZM39.9212 40.6568H39.2661V45.5625H39.9212H40.5762V40.6568H39.9212ZM40.7655 40.6568V40.0018H39.9284V40.6568V41.3119H40.7655V40.6568ZM40.7655 45.5625H41.4205V40.6568H40.7655H40.1104V45.5625H40.7655ZM44.4338 41.3919H43.7788V45.5553H44.4338H45.0889V41.3919H44.4338ZM43.6186 41.3919V42.047H44.4338V41.3919V40.7369H43.6186V41.3919ZM43.6186 40.6568H42.9636V41.3919H43.6186H44.2737V40.6568H43.6186ZM46.0861 40.6568V40.0018H43.6186V40.6568V41.3119H46.0861V40.6568ZM46.0861 41.3919H46.7411V40.6568H46.0861H45.431V41.3919H46.0861ZM45.2709 41.3919V42.047H46.0861V41.3919V40.7369H45.2709V41.3919ZM45.2709 45.5625H45.9259V41.3992H45.2709H44.6158V45.5625H45.2709ZM44.4338 45.5625V46.2176H45.2709V45.5625V44.9075H44.4338V45.5625ZM47.338 45.5625V46.2176H48.175V45.5625V44.9075H47.338V45.5625ZM47.338 40.6568H46.6829V45.5625H47.338H47.993V40.6568H47.338ZM48.175 40.6568V40.0018H47.338V40.6568V41.3119H48.175V40.6568ZM48.175 42.6511H48.8301V40.6568H48.175H47.5199V42.6511H48.175ZM49.0702 42.6511V41.9961H48.175V42.6511V43.3062H49.0702V42.6511ZM49.0702 40.6568H48.4152V42.6511H49.0702H49.7253V40.6568H49.0702ZM49.9073 40.6568V40.0018H49.0702V40.6568V41.3119H49.9073V40.6568ZM49.9073 45.5625H50.5623V40.6568H49.9073H49.2522V45.5625H49.9073ZM49.0702 45.5625V46.2176H49.9073V45.5625V44.9075H49.0702V45.5625ZM49.0702 43.3935H48.4152V45.5625H49.0702H49.7253V43.3935H49.0702ZM48.175 43.3935V44.0486H49.0702V43.3935V42.7385H48.175V43.3935ZM48.175 45.5625H48.8301V43.3935H48.175H47.5199V45.5625H48.175ZM51.4794 40.6568H50.8244V44.3252H51.4794H52.1345V40.6568H51.4794ZM52.3165 40.6568V40.0018H51.4794V40.6568V41.3119H52.3165V40.6568ZM52.3165 44.3543H52.9715V40.6568H52.3165H51.6614V44.3543H52.3165ZM52.7677 44.8929V44.2378C52.7532 44.2378 52.7677 44.2378 52.8114 44.2524C52.8551 44.267 52.8987 44.3034 52.9351 44.347C52.9715 44.3907 52.9788 44.4198 52.9788 44.4271C52.9788 44.4271 52.9715 44.4125 52.9715 44.3616H52.3165H51.6614C51.6614 44.609 51.7051 44.922 51.9161 45.1841C52.1491 45.4679 52.4766 45.5625 52.7677 45.5625V44.8929ZM53.219 44.3543H52.5639C52.5639 44.4052 52.5566 44.4271 52.5566 44.4198C52.5566 44.4198 52.5639 44.3834 52.6003 44.3397C52.6367 44.2961 52.6804 44.267 52.7241 44.2451C52.7604 44.2306 52.7823 44.2306 52.7677 44.2306V44.8856V45.5407C53.0516 45.5407 53.3791 45.4534 53.6193 45.1622C53.8304 44.9002 53.8741 44.5872 53.8741 44.3397H53.219V44.3543ZM53.219 40.6568H52.5639V44.3543H53.219H53.8741V40.6568H53.219ZM54.056 40.6568V40.0018H53.219V40.6568V41.3119H54.056V40.6568ZM54.056 44.3252H54.7111V40.6568H54.056H53.401V44.3252H54.056ZM52.7677 45.6208V46.2758C53.2918 46.2758 53.8013 46.123 54.1725 45.7518C54.551 45.3806 54.7111 44.8711 54.7111 44.3252H54.056H53.401C53.401 44.6163 53.3209 44.7546 53.2481 44.8274C53.1753 44.8929 53.037 44.973 52.7677 44.973V45.6208ZM51.4794 44.3252H50.8244C50.8244 44.8711 50.9845 45.3878 51.363 45.7591C51.7415 46.1303 52.2437 46.2831 52.7677 46.2831V45.628V44.973C52.4911 44.973 52.3528 44.8929 52.2801 44.8274C52.2146 44.7619 52.1272 44.6236 52.1272 44.3252H51.4794ZM58.1538 42.2872H57.4987V42.2945H58.1538H58.8089V42.2872H58.1538ZM57.3168 42.2872V42.9423H58.1538V42.2872V41.6321H57.3168V42.2872ZM57.3168 41.9014H56.6617V42.2872H57.3168H57.9719V41.9014H57.3168ZM56.9165 41.3119V41.967C56.8801 41.967 56.8364 41.9597 56.7855 41.9378C56.7345 41.916 56.7054 41.8796 56.6836 41.8505C56.6399 41.7995 56.669 41.785 56.669 41.8942H57.3241H57.9791C57.9791 41.5957 57.9136 41.2973 57.7244 41.0499C57.5206 40.7878 57.2294 40.6495 56.9237 40.6495V41.3119H56.9165ZM56.4652 41.8578H57.1203C57.1203 41.8287 57.1203 41.8068 57.1203 41.785C57.1203 41.7777 57.1203 41.7704 57.1203 41.7632C57.1203 41.7704 57.113 41.7704 57.113 41.785C57.1057 41.7995 57.0912 41.8214 57.0766 41.8505C57.0329 41.9087 56.9747 41.9451 56.931 41.9597C56.8946 41.9742 56.8801 41.967 56.9165 41.967V41.3119V40.6568C56.6399 40.6568 56.2905 40.7296 56.0503 41.0426C55.8393 41.3119 55.8101 41.6394 55.8101 41.8578H56.4652ZM56.4652 44.3397H57.1203V41.8578H56.4652H55.8101V44.3397H56.4652ZM56.9165 44.8784V44.2233C56.8874 44.2233 56.9019 44.216 56.9383 44.2306C56.982 44.2451 57.0402 44.2815 57.0839 44.3397C57.1057 44.3616 57.113 44.3834 57.1203 44.398C57.1203 44.4053 57.1275 44.4125 57.1275 44.4125C57.1275 44.4053 57.1275 44.4053 57.1275 44.398C57.1275 44.3834 57.1275 44.3616 57.1275 44.3325H56.4725H55.8174C55.8174 44.5508 55.8465 44.8711 56.0503 45.1404C56.2905 45.4534 56.6399 45.5261 56.9237 45.5261V44.8784H56.9165ZM57.3168 44.3834H56.6617C56.6617 44.4344 56.6544 44.4489 56.6617 44.4489C56.6617 44.4416 56.669 44.4052 56.7127 44.3543C56.7563 44.2961 56.8073 44.2597 56.8655 44.2378C56.9092 44.216 56.9383 44.2233 56.9237 44.2233V44.8784V45.5334C57.2003 45.5334 57.5351 45.4461 57.7608 45.1477C57.9573 44.8929 57.9791 44.5872 57.9791 44.3834H57.3168ZM57.3168 43.7939H56.6617V44.3834H57.3168H57.9719V43.7939H57.3168ZM58.1538 43.7939V43.1388H57.3168V43.7939V44.4489H58.1538V43.7939ZM58.1538 44.3616H58.8089V43.8011H58.1538H57.4987V44.3616H58.1538ZM56.9092 45.6135V46.2685C57.4988 46.2685 58.0082 46.072 58.3576 45.679C58.6997 45.3005 58.8162 44.8128 58.8162 44.3616H58.1611H57.4987C57.4987 44.6018 57.4332 44.7401 57.3677 44.8128C57.3168 44.8711 57.1931 44.9584 56.9019 44.9584V45.6135H56.9092ZM55.6136 44.3616H54.9586C54.9586 44.8274 55.0968 45.3151 55.4462 45.6935C55.8029 46.0793 56.3124 46.2685 56.9019 46.2685V45.6135V44.9584C56.6035 44.9584 56.4725 44.8711 56.407 44.7983C56.3342 44.7182 56.2687 44.5799 56.2687 44.3616H55.6136ZM55.6136 41.8359H54.9586V44.3543H55.6136H56.2687V41.8359H55.6136ZM56.9092 40.584V39.929C56.3342 39.929 55.832 40.1255 55.4753 40.4967C55.126 40.8679 54.9658 41.3483 54.9658 41.8359H55.6209H56.276C56.276 41.6321 56.3415 41.4866 56.4215 41.4065C56.4943 41.3264 56.6399 41.2391 56.9092 41.2391V40.584ZM58.1538 41.9306H58.8089C58.8089 41.4502 58.6779 40.948 58.3431 40.5549C58.001 40.1473 57.4915 39.9217 56.9019 39.9217V40.5768V41.2318C57.1567 41.2318 57.2731 41.3119 57.3459 41.3992C57.426 41.4939 57.4987 41.6685 57.4987 41.9233H58.1538V41.9306ZM58.1538 42.2945H58.8089V41.9378H58.1538H57.4987V42.2945H58.1538ZM7.6774 45.548H7.02234V46.203H7.6774V45.548ZM7.6774 40.6495V39.9945H7.02234V40.6495H7.6774ZM8.51443 40.6495H9.1695V39.9945H8.51443V40.6495ZM8.51443 42.4619H7.85937V43.117H8.51443V42.4619ZM8.52899 42.4619V43.117H8.93658L9.11855 42.7458L8.52899 42.4619ZM9.40969 40.6495V39.9945H9.00209L8.82013 40.3657L9.40969 40.6495ZM10.2467 40.6495L10.8363 40.9407L11.3094 39.9945H10.254V40.6495H10.2467ZM9.3369 42.4764L8.74734 42.1853L8.62361 42.4255L8.71095 42.6802L9.3369 42.4764ZM10.3632 45.548V46.203H11.273L10.9891 45.3442L10.3632 45.548ZM9.51159 45.548L8.88564 45.7372L9.02393 46.203H9.51159V45.548ZM8.82741 43.2698L9.45336 43.0806L9.31507 42.6147H8.82741V43.2698ZM8.81285 43.2698V42.6147H8.42709L8.23785 42.9568L8.81285 43.2698ZM8.51443 43.8157L7.93943 43.5027L7.85937 43.6483V43.8157H8.51443ZM8.51443 45.548V46.203H9.1695V45.548H8.51443ZM13.8277 45.5407H14.4828V44.8856H13.8277V45.5407ZM11.4841 45.5407H10.829V46.1958H11.4841V45.5407ZM11.4841 40.6423V39.9872H10.829V40.6423H11.4841ZM13.7331 40.6423H14.3882V39.9872H13.7331V40.6423ZM13.7331 41.3774V42.0325H14.3882V41.3774H13.7331ZM12.3211 41.3774V40.7223H11.666V41.3774H12.3211ZM12.3211 42.6366H11.666V43.2916H12.3211V42.6366ZM13.4056 42.6366H14.0607V41.9815H13.4056V42.6366ZM13.4056 43.3717V44.0268H14.0607V43.3717H13.4056ZM12.3211 43.3717V42.7166H11.666V43.3717H12.3211ZM12.3211 44.8128H11.666V45.4679H12.3211V44.8128ZM13.8277 44.8128H14.4828V44.1578H13.8277V44.8128ZM15.7274 41.3847H16.3825V40.7296H15.7274V41.3847ZM14.9122 41.3847H14.2572V42.0397H14.9122V41.3847ZM14.9122 40.6495V39.9945H14.2572V40.6495H14.9122ZM17.3796 40.6495H18.0347V39.9945H17.3796V40.6495ZM17.3796 41.3847V42.0397H18.0347V41.3847H17.3796ZM16.5645 41.3847V40.7296H15.9094V41.3847H16.5645ZM16.5645 45.548V46.203H17.2195V45.548H16.5645ZM15.7274 45.548H15.0724V46.203H15.7274V45.548ZM20.1309 45.548H19.4759V46.203H20.1309V45.548ZM20.1309 40.6495V39.9945H19.4759V40.6495H20.1309ZM20.9097 40.6495L21.5284 40.4239L21.3683 39.9945H20.9097V40.6495ZM21.936 43.4518L21.3173 43.6774L21.4774 44.1068H21.936V43.4518ZM21.9505 43.4518V44.1068H22.6056V43.4518H21.9505ZM21.9505 40.6495V39.9945H21.2955V40.6495H21.9505ZM22.7075 40.6495H23.3626V39.9945H22.7075V40.6495ZM22.7075 45.548V46.203H23.3626V45.548H22.7075ZM21.9797 45.548L21.361 45.7663L21.5138 46.203H21.9797V45.548ZM20.9097 42.491L21.5284 42.2727L21.3755 41.8359H20.9097V42.491ZM20.8952 42.491V41.8359H20.2401V42.491H20.8952ZM20.8952 45.548V46.203H21.5502V45.548H20.8952ZM28.4575 45.548H27.8025V46.203H28.4575V45.548ZM28.4575 40.6495V39.9945H27.8025V40.6495H28.4575ZM29.2946 40.6495H29.9496V39.9945H29.2946V40.6495ZM29.2946 45.548V46.203H29.9496V45.548H29.2946ZM32.9702 41.3847H33.6253V40.7296H32.9702V41.3847ZM32.155 41.3847H31.4999V42.0397H32.155V41.3847ZM32.155 40.6495V39.9945H31.4999V40.6495H32.155ZM34.6224 40.6495H35.2775V39.9945H34.6224V40.6495ZM34.6224 41.3847V42.0397H35.2775V41.3847H34.6224ZM33.8072 41.3847V40.7296H33.1522V41.3847H33.8072ZM33.8072 45.548V46.203H34.4623V45.548H33.8072ZM32.9702 45.548H32.3151V46.203H32.9702V45.548ZM36.7113 42.8477H36.0563V43.5027H36.7113V42.8477ZM36.7113 41.3483V40.6932H36.0563V41.3483H36.7113ZM36.7113 45.548V46.203H37.3664V45.548H36.7113ZM35.8743 45.548H35.2193V46.203H35.8743V45.548ZM35.8743 40.6495V39.9945H35.2193V40.6495H35.8743ZM37.8832 43.3353L37.6212 42.7385L37.0753 42.9787L37.2572 43.5464L37.8832 43.3353ZM38.5965 45.548V46.203H39.499L39.2224 45.3442L38.5965 45.548ZM37.7449 45.548L37.1189 45.7299L37.2572 46.203H37.7449V45.548ZM37.1408 43.5246L37.7667 43.3426L37.592 42.7603L36.9952 42.8913L37.1408 43.5246ZM36.7113 43.5464H36.0563V44.2015H36.7113V43.5464ZM39.9212 45.5625H39.2661V46.2176H39.9212V45.5625ZM39.9212 40.6568V40.0018H39.2661V40.6568H39.9212ZM40.7655 40.6568H41.4205V40.0018H40.7655V40.6568ZM40.7655 45.5625V46.2176H41.4205V45.5625H40.7655ZM44.4338 41.3919H45.0889V40.7369H44.4338V41.3919ZM43.6186 41.3919H42.9636V42.047H43.6186V41.3919ZM43.6186 40.6568V40.0018H42.9636V40.6568H43.6186ZM46.0861 40.6568H46.7411V40.0018H46.0861V40.6568ZM46.0861 41.3919V42.047H46.7411V41.3919H46.0861ZM45.2709 41.3919V40.7369H44.6158V41.3919H45.2709ZM45.2709 45.5625V46.2176H45.9259V45.5625H45.2709ZM44.4338 45.5625H43.7788V46.2176H44.4338V45.5625ZM47.338 45.5625H46.6829V46.2176H47.338V45.5625ZM47.338 40.6568V40.0018H46.6829V40.6568H47.338ZM48.175 40.6568H48.8301V40.0018H48.175V40.6568ZM48.175 42.6511H47.5199V43.3062H48.175V42.6511ZM49.0702 42.6511V43.3062H49.7253V42.6511H49.0702ZM49.0702 40.6568V40.0018H48.4152V40.6568H49.0702ZM49.9073 40.6568H50.5623V40.0018H49.9073V40.6568ZM49.9073 45.5625V46.2176H50.5623V45.5625H49.9073ZM49.0702 45.5625H48.4152V46.2176H49.0702V45.5625ZM49.0702 43.3935H49.7253V42.7385H49.0702V43.3935ZM48.175 43.3935V42.7385H47.5199V43.3935H48.175ZM48.175 45.5625V46.2176H48.8301V45.5625H48.175ZM51.4794 40.6568V40.0018H50.8244V40.6568H51.4794ZM52.3165 40.6568H52.9715V40.0018H52.3165V40.6568ZM53.219 40.6568V40.0018H52.5639V40.6568H53.219ZM54.056 40.6568H54.7111V40.0018H54.056V40.6568ZM58.1538 42.2872H58.8089V41.6321H58.1538V42.2872ZM57.3168 42.2872H56.6617V42.9423H57.3168V42.2872ZM57.3168 43.7939V43.1388H56.6617V43.7939H57.3168ZM58.1538 43.7939H58.8089V43.1388H58.1538V43.7939Z" fill="white"/>
<path d="M11.9716 51.9822L11.3602 48.5831H10.5305L11.5567 53.4888H12.3938L13.42 48.5831H12.5903L11.9716 51.9822ZM14.6428 52.2951C14.6428 52.9866 15.0431 53.547 15.9311 53.547C16.8191 53.547 17.2194 52.9866 17.2194 52.2951V49.7768C17.2194 49.0853 16.8191 48.5249 15.9311 48.5249C15.0431 48.5249 14.6428 49.0853 14.6428 49.7768V52.2951ZM15.4798 49.7913C15.4798 49.4201 15.589 49.2527 15.9311 49.2527C16.2732 49.2527 16.3824 49.4274 16.3824 49.7913V52.2733C16.3824 52.6445 16.2732 52.8119 15.9311 52.8119C15.589 52.8119 15.4798 52.6299 15.4798 52.2733V49.7913ZM19.665 53.4815V48.5758H18.8279V53.4815H19.665ZM25.3859 50.2208V49.8568C25.3859 49.1217 24.9856 48.5103 24.134 48.5103C23.246 48.5103 22.8457 49.0708 22.8457 49.7622V52.2806C22.8457 52.972 23.246 53.5325 24.134 53.5325C25.022 53.5325 25.3859 52.972 25.3859 52.2806V51.7201H24.5489V52.3097C24.5489 52.6299 24.447 52.8046 24.1485 52.8046C23.8064 52.8046 23.6973 52.6227 23.6973 52.266V49.7841C23.6973 49.4128 23.8064 49.2454 24.1485 49.2454C24.3669 49.2454 24.5489 49.4201 24.5489 49.835V50.2208H25.3859ZM26.9944 52.2442C26.9944 53.0812 27.4821 53.547 28.2827 53.547C29.0834 53.547 29.571 53.0885 29.571 52.2442V48.5758H28.734V52.2733C28.734 52.6299 28.5957 52.8119 28.2827 52.8119C27.9697 52.8119 27.8315 52.6299 27.8315 52.2733V48.5758H26.9944V52.2442ZM31.1359 52.2951C31.1359 52.9866 31.5362 53.547 32.4242 53.547C33.3122 53.547 33.7125 52.9866 33.7125 52.2951V49.7768C33.7125 49.0853 33.3122 48.5249 32.4242 48.5249C31.5362 48.5249 31.1359 49.0853 31.1359 49.7768V52.2951ZM31.9729 49.7913C31.9729 49.4201 32.0821 49.2527 32.4242 49.2527C32.7663 49.2527 32.8755 49.4274 32.8755 49.7913V52.2733C32.8755 52.6445 32.7663 52.8119 32.4242 52.8119C32.0821 52.8119 31.9729 52.6299 31.9729 52.2733V49.7913ZM37.803 50.2208V49.8568C37.803 49.1217 37.4027 48.5103 36.5511 48.5103C35.6995 48.5103 35.2628 49.0708 35.2628 49.7622V52.2806C35.2628 52.972 35.6631 53.5325 36.5511 53.5325C37.4391 53.5325 37.803 52.972 37.803 52.2806V51.7201H36.966V52.3097C36.966 52.6299 36.8641 52.8046 36.5657 52.8046C36.2236 52.8046 36.1144 52.6227 36.1144 52.266V49.7841C36.1144 49.4128 36.2236 49.2454 36.5657 49.2454C36.784 49.2454 36.966 49.4201 36.966 49.835V50.2208H37.803ZM43.2473 49.704C43.1673 49.0125 42.7669 48.5103 42.0828 48.5103C41.2603 48.5103 40.7799 48.947 40.7799 49.7331C40.7799 51.1379 42.4904 51.3926 42.4904 52.3606C42.4904 52.6518 42.2938 52.8046 42.0027 52.8046C41.7334 52.8046 41.5369 52.5644 41.5005 52.0695L40.6998 52.186C40.729 52.9211 41.1802 53.5398 41.959 53.5398C42.7378 53.5398 43.2837 53.0958 43.2837 52.2879C43.2837 50.9559 41.5733 50.5556 41.5733 49.7185C41.5733 49.4128 41.7188 49.2309 41.9954 49.2309C42.1847 49.2309 42.4103 49.3546 42.4467 49.7695L43.2473 49.6822V49.704ZM44.6739 52.2951C44.6739 52.9866 45.0742 53.547 45.9622 53.547C46.8502 53.547 47.2505 52.9866 47.2505 52.2951V49.7768C47.2505 49.0853 46.8502 48.5249 45.9622 48.5249C45.0742 48.5249 44.6739 49.0853 44.6739 49.7768V52.2951ZM45.5182 49.7913C45.5182 49.4201 45.6274 49.2527 45.9695 49.2527C46.3116 49.2527 46.4207 49.4274 46.4207 49.7913V52.2733C46.4207 52.6445 46.3116 52.8119 45.9695 52.8119C45.6274 52.8119 45.5182 52.6299 45.5182 52.2733V49.7913ZM49.5796 53.4815V50.4173H49.5942L50.6641 53.4815H51.392V48.5758H50.6277V51.378H50.6132L49.5869 48.5758H48.8081V53.4815H49.5796ZM54.1214 51.6692H54.66V52.1496C54.66 52.6372 54.5363 52.8337 54.2015 52.8337C53.903 52.8337 53.8084 52.6299 53.8084 52.317V49.7986C53.8084 49.3837 53.9758 49.2673 54.1796 49.2673C54.5144 49.2673 54.66 49.4565 54.66 50.1916H55.4606V49.8787C55.4606 49.1435 55.0385 48.5321 54.2015 48.5321C53.3644 48.5321 52.9641 49.0926 52.9641 49.7841V52.3024C52.9641 53.0885 53.4227 53.5543 54.0923 53.5543C54.4853 53.5543 54.6891 53.4233 54.9366 53.1249L55.0894 53.4961H55.4898V51.0141H54.1141V51.6692H54.1214Z" fill="#75C044"/>
<path d="M15.7931 48.2119L16.3317 47.3676H17.227L16.3754 48.2119H15.7931Z" fill="#75C044"/>
<path d="M16.9646 48.0371H17.5687V48.5321C17.5687 48.7286 17.5178 48.8742 17.4159 48.9833C17.314 49.0925 17.1611 49.1435 16.9573 49.1435V48.8887C17.0374 48.8887 17.0956 48.8523 17.1539 48.8014C17.2048 48.7577 17.2339 48.6995 17.2339 48.6267H16.9573V48.0298L16.9646 48.0371Z" fill="#75C044"/>
<path d="M32.1184 47.4695H32.8317L33.5014 48.3138H32.8463L32.4751 47.8407L32.1039 48.3138H31.4634L32.1184 47.4695Z" fill="#75C044"/>
<path d="M45.6198 47.4695H46.3404L47.0028 48.3138H46.3477L45.9765 47.8407L45.6053 48.3138H44.9648L45.6198 47.4695Z" fill="#75C044"/>
<path d="M46.7551 48.2919L47.301 47.4476H48.189L47.3374 48.2919H46.7551Z" fill="#75C044"/>
<path d="M32.7884 53.9764H32.1406V54.6097H32.7884V53.9764Z" fill="#75C044"/>
<path d="M12.2555 39.5068H12.9834L13.6457 40.3511L12.9906 40.3438L12.6194 39.878L12.2482 40.3438L11.6077 40.3511L12.2555 39.5068Z" fill="#D2AB56"/>
<path d="M13.3991 40.322L13.945 39.485H14.833L13.9741 40.322H13.3991Z" fill="#D2AB56"/>
<path d="M25.2403 39.5068H25.9535L26.6232 40.3511L25.9681 40.3438L25.5969 39.878L25.2257 40.3438L24.5925 40.3511L25.2403 39.5068Z" fill="#D2AB56"/>
<path d="M26.3256 40.322L26.8642 39.485H27.7594L26.9006 40.322H26.3256Z" fill="#D2AB56"/>
<path d="M52.5201 40.322L53.0587 39.485H53.9467L53.1024 40.322H52.5201Z" fill="#D2AB56"/>
<path d="M54.0415 40.0527H54.6456V40.5476C54.6456 40.7441 54.5947 40.897 54.4928 40.9989C54.3909 41.1081 54.238 41.1663 54.0342 41.1663V40.9043C54.1143 40.9043 54.1725 40.8679 54.2308 40.8169C54.2817 40.7733 54.3108 40.715 54.3108 40.6422H54.0415V40.0454V40.0527Z" fill="#D2AB56"/>
<path d="M8.51415 45.5479V43.8157L8.81257 43.277H8.82713L9.51131 45.5552H10.3629L9.33662 42.4764L10.2464 40.6495H9.40941L8.52871 42.4619H8.51415V40.6495H7.67712V45.5552H8.51415V45.5479ZM13.8275 45.5479V44.8128H12.3208V43.3717H13.4053V42.6365H12.3208V41.3774H13.7328V40.6422H11.4838V45.5479H13.8275ZM15.7271 45.5479H16.5642V41.3846H17.3794V40.6495H14.912V41.3846H15.7271V45.5479ZM20.8949 45.5479V42.4837H20.9094L21.9794 45.5479H22.7072V40.6422H21.943V43.4444H21.9284L20.9022 40.6422H20.1234V45.5479H20.8949ZM24.2721 44.3615C24.2721 45.053 24.6724 45.6134 25.5604 45.6134C26.4484 45.6134 26.8487 45.053 26.8487 44.3615V41.8432C26.8487 41.1517 26.4484 40.5913 25.5604 40.5913C24.6724 40.5913 24.2721 41.1517 24.2721 41.8432V44.3615ZM25.1091 41.8577C25.1091 41.4865 25.2183 41.3191 25.5531 41.3191C25.8879 41.3191 26.0044 41.5011 26.0044 41.8577V44.3397C26.0044 44.7109 25.8952 44.8783 25.5531 44.8783C25.211 44.8783 25.1091 44.6964 25.1091 44.3397V41.8577ZM29.2943 45.5479V40.6422H28.4572V45.5479H29.2943ZM32.9699 45.5479H33.8069V41.3846H34.6221V40.6495H32.1547V41.3846H32.9699V45.5479ZM36.7111 41.3482H37.0095C37.468 41.3482 37.6282 41.5229 37.6282 42.0979C37.6282 42.6729 37.4608 42.8476 37.0095 42.8476H36.7111V41.3482ZM36.7111 43.5464C36.8566 43.5464 37.0386 43.5463 37.1478 43.5245L37.7446 45.5552H38.5962L37.8829 43.3426C38.1668 43.2188 38.4725 42.8986 38.4725 42.1052C38.4725 41.0644 37.9921 40.6568 37.0532 40.6568H35.874V45.5625H36.7111V43.5464ZM40.7652 45.5625V40.6568H39.9282V45.5625H40.7652ZM44.4336 45.5625H45.2706V41.3992H46.0858V40.6641H43.6184V41.3992H44.4336V45.5625ZM48.1747 45.5625V43.3935H49.07V45.5625H49.907V40.6568H49.07V42.6511H48.1747V40.6568H47.3377V45.5625H48.1747ZM51.4792 44.3252C51.4792 45.1695 51.9668 45.628 52.7674 45.628C53.5681 45.628 54.0557 45.1695 54.0557 44.3252V40.6568H53.2187V44.3543C53.2187 44.7109 53.0804 44.8929 52.7674 44.8929C52.4545 44.8929 52.3162 44.7109 52.3162 44.3543V40.6568H51.4792V44.3252ZM58.1535 42.2944V41.9378C58.1535 41.2027 57.7532 40.5913 56.9016 40.5913C56.0501 40.5913 55.6133 41.1517 55.6133 41.8432V44.3615C55.6133 45.053 56.0137 45.6134 56.9016 45.6134C57.7896 45.6134 58.1535 45.053 58.1535 44.3615V43.8011H57.3165V44.3907C57.3165 44.7109 57.2146 44.8856 56.9162 44.8856C56.5741 44.8856 56.4649 44.7036 56.4649 44.347V41.865C56.4649 41.4938 56.5741 41.3264 56.9162 41.3264C57.1345 41.3264 57.3165 41.5084 57.3165 41.916V42.3017H58.1535V42.2944Z" fill="#D2AB56"/>
<path d="M33.0282 10.3928C35.2554 4.03864 37.8903 2.77946 43.3346 0.595913C48.2039 -0.495862 66.24 0.246545 66.24 0.246545L66.0726 20.2042C66.1891 26.864 60.6065 35.409 51.814 35.3944C43.0143 35.3799 15.1595 35.3944 15.1595 35.3944C4.91865 34.0843 0.325915 31.1875 0.100282 19.7238C-0.125352 8.26017 0.100282 0.239266 0.100282 0.239266H17.4231C21.0696 0.297494 30.4516 1.09085 33.0282 10.3782V10.3928Z" fill="white"/>
<path fill-rule="evenodd" clip-rule="evenodd" d="M62.0991 2.72125H48.0516C44.2668 2.72125 40.8313 4.27157 38.3348 6.76082C35.8455 9.25007 34.2952 12.6855 34.2952 16.4703V29.9501C36.7554 24.3384 40.3728 18.8504 45.0747 14.0903C49.7184 9.40292 55.4174 5.42158 62.0991 2.72125ZM36.013 32.8834H49.7184C53.5032 32.8834 56.9387 31.333 59.4352 28.8438C61.9171 26.3545 63.4675 22.9191 63.4675 19.1343V5.07221C56.9823 7.62696 51.4725 11.4555 46.9962 15.99C42.025 21.0194 38.3348 26.915 36.0202 32.8761" fill="#75C044"/>
<path fill-rule="evenodd" clip-rule="evenodd" d="M17.9039 2.72125H2.4953V13.2678C2.4953 20.6191 9.07507 20.5317 12.9254 20.4881C13.464 20.4881 13.777 20.4735 13.8643 20.4735H15.189V21.82V22.2495C15.189 26.602 15.1745 32.8761 21.9799 32.8761H31.6384V16.4849C31.6384 12.7001 30.0954 9.26463 27.6061 6.77538C25.1169 4.28613 21.6814 2.73581 17.8893 2.73581V2.72125H17.9039ZM2.58992 20.7428V20.8011L2.60448 20.8957L2.62631 21.0412L2.64087 21.1504V21.1941L2.66271 21.2814L2.67726 21.3615L2.69182 21.4488L2.70638 21.5216L2.72093 21.609L2.73549 21.689L2.75005 21.7764V21.8346L2.77916 21.9365L2.80828 22.0748L2.82283 22.1403L2.84467 22.2349L2.85923 22.3004L2.88106 22.395L2.89562 22.4678L2.91745 22.5479L2.93201 22.628L2.95385 22.7153L2.9684 22.7735L2.99024 22.8681L3.0048 22.9409L3.04119 23.0792L3.05574 23.1375L3.08486 23.2393L3.10669 23.3049L3.13581 23.3922L3.15037 23.4577L3.17948 23.5596L3.19404 23.6033L3.22315 23.6906L3.24499 23.7634L3.26682 23.8289L3.29594 23.909L3.33961 24.04L3.36872 24.1128L3.39783 24.1928L3.42695 24.2729L3.44878 24.3384L3.4779 24.4185L3.50701 24.4913L3.52885 24.5568L3.56524 24.6514L3.58708 24.6951L3.62347 24.7824L3.6453 24.8261L3.71081 24.9644L3.73992 25.0371L3.76904 25.1099L3.79815 25.1754L3.84182 25.2701L3.86366 25.3137L3.90005 25.3938L3.92917 25.4593L3.97284 25.5466L3.99467 25.583L4.03834 25.6776L4.07474 25.7577C4.07474 25.7577 4.11113 25.8378 4.14024 25.8669L4.1548 25.8887L4.22031 25.9906L4.2567 26.0634L4.28581 26.1289L4.3222 26.2017L4.3586 26.2745L4.39499 26.3327L4.43866 26.4128L4.46777 26.471L4.53328 26.5729L4.54784 26.5947L4.6279 26.7185V26.733L4.66429 26.7694L4.71524 26.8495L4.75164 26.915L4.80259 26.9951L4.8317 27.0314L4.89721 27.1261L4.91904 27.1552L5.09373 27.1697L5.12284 27.2134L5.21018 27.3299L5.3048 27.4536L5.32664 27.4827L5.39942 27.5701L5.43582 27.6137L5.50132 27.6865L5.53771 27.7302L5.60322 27.803L5.63961 27.8466L5.71968 27.9413L5.73423 27.9631C5.76335 27.9995 5.80702 28.0432 5.83613 28.0796C5.86525 28.1159 5.90892 28.1596 5.93803 28.196L5.96715 28.2251L6.04721 28.3125L6.07632 28.3489L6.15639 28.4289L6.1855 28.4653L6.27284 28.5599L6.2874 28.5745C6.36746 28.6546 6.43297 28.7346 6.51303 28.8001L6.62949 28.9166C6.62949 28.9166 6.70227 28.9894 6.73867 29.0258L6.7605 29.0476L6.84784 29.1277L6.88424 29.1568L6.97158 29.2368L6.99341 29.2587L7.08803 29.346L7.11715 29.3678L7.21905 29.4552L7.2336 29.4697C7.32095 29.5425 7.39373 29.608 7.48107 29.6808C7.48107 29.6808 7.56114 29.7463 7.59753 29.7754L7.63392 29.8046L7.71399 29.8701L7.75766 29.9065L7.845 29.972L7.88139 30.0011L7.97601 30.0739L8.00513 30.1248L8.09975 30.1976L8.13614 30.2194C8.17981 30.2485 8.22348 30.2849 8.25987 30.3141L8.39089 30.4087L8.41272 30.4232L8.5219 30.5033L8.55101 30.5251L8.64563 30.5906L8.69658 30.6197L8.77665 30.6634L8.84215 30.6998L8.91494 30.7435L8.96589 30.7799L9.05323 30.8381L9.10418 30.8672L9.22791 30.9473L9.35165 31.0201L9.4026 31.0565L9.48994 31.1001L9.54089 31.1292L9.63551 31.1729L9.6719 31.1948L9.76652 31.2384L9.83203 31.2675L9.90481 31.3039L9.98488 31.3403L10.0358 31.3694L10.1232 31.4058L10.2542 31.4713L10.3852 31.5368L10.4653 31.5732L10.5162 31.5951L10.6036 31.6315L10.6691 31.6606L10.7491 31.6897L10.8219 31.7188L10.8947 31.7479L10.9675 31.777L11.0548 31.8061L11.0985 31.8207L11.1931 31.8571L11.3241 31.9153C11.3678 31.9299 11.4187 31.9517 11.4624 31.9736H11.477L11.5206 31.9954L11.6153 32.0245L11.6953 32.0536L11.7681 32.0754L11.8482 32.1046L11.9282 32.1264L12.001 32.1482L12.0956 32.1773L12.1466 32.1919L12.2339 32.2137L12.3213 32.2356L12.4596 32.272C12.5032 32.2865 12.5542 32.3011 12.5979 32.3084L12.6852 32.3302L12.7653 32.352L12.8453 32.3739L12.9108 32.3884L13.0055 32.4103L13.071 32.4248L13.1656 32.4467L13.2311 32.4612L13.3257 32.483L13.3912 32.4976L13.4858 32.5194L13.6314 32.5486L13.777 32.5777H13.7915L13.8425 32.5922L13.9371 32.6068H14.0099L14.1045 32.6286H14.1773L14.2646 32.6505L14.352 32.665H14.4175L14.5267 32.6868H14.5703L14.6722 32.7014L14.7887 32.716H14.8251C12.7143 30.1758 12.5324 26.3327 12.5178 23.0865C9.46811 23.1156 5.29024 23.0647 2.56809 20.6482" fill="#D2AB56"/>
</svg>
