<svg width="28" height="16" viewBox="0 0 28 16" fill="none" xmlns="http://www.w3.org/2000/svg">
<path fill-rule="evenodd" clip-rule="evenodd" d="M26.5991 0.367301L16.2433 9.80963C14.8775 11.0549 12.6668 11.0549 11.3011 9.80963L0.905915 0.31355C1.19085 0.116461 1.55439 0 1.9474 0H25.4889C25.8917 0 26.2847 0.12542 26.5991 0.367301ZM0.237793 14.71V1.90817C0.237793 1.63046 0.316396 1.37066 0.45395 1.1467L8.21596 8.27771L0.630806 15.4446C0.4343 15.2296 0.296745 14.9787 0.237793 14.71ZM27.1887 1.22732C27.2181 1.34378 27.2378 1.4692 27.2378 1.59462V14.3964C27.2378 14.8085 27.0708 15.1848 26.7858 15.4625L19.3382 8.43001L27.1887 1.22732ZM1.54456 15.9462L8.95286 8.95857L10.7411 10.6069C11.1537 10.9832 11.6352 11.2788 12.1657 11.4849C12.6963 11.6909 13.276 11.7895 13.8557 11.7895C14.4354 11.7895 15.0053 11.682 15.5457 11.4849C16.086 11.2878 16.5675 10.9832 16.9703 10.6069L18.5915 9.11982L25.8426 15.9642C25.7247 15.9821 25.6068 16 25.4791 16H1.9474C1.80985 15.991 1.68212 15.9731 1.54456 15.9462Z" fill="white"/>
</svg>
