<svg width="63" height="44" viewBox="0 0 63 44" fill="none" xmlns="http://www.w3.org/2000/svg">
<path d="M58.6378 17.105L52.4378 4.685L48.0078 6.895L54.2178 19.315L58.6378 17.105ZM46.3278 26.165L39.3978 20.615C34.5078 24.615 28.3078 25.145 23.1678 21.865C22.6578 21.545 22.2378 21.115 21.9178 20.605C21.5978 20.095 21.4078 19.525 21.3378 18.925C21.2678 18.325 21.3378 17.725 21.5378 17.165C21.7378 16.595 22.0578 16.085 22.4878 15.665C22.4978 15.655 22.4978 15.655 22.5078 15.645L33.7278 4.765L31.3278 4.075L18.7278 7.675L11.8878 21.355L24.1878 30.145L38.7178 33.775L46.3278 26.165ZM4.00777 17.105L8.42777 19.315L14.6378 6.895L10.2178 4.685L4.00777 17.105ZM50.8878 21.605L44.0878 8.005H36.1278L25.3178 18.505C28.4778 20.525 33.4478 21.085 37.8978 16.595C38.2478 16.245 38.7078 16.035 39.2078 16.005C39.6978 15.975 40.1878 16.135 40.5678 16.445L49.1678 23.335L50.8878 21.605ZM62.4378 18.375C62.2778 18.875 62.0078 19.335 61.6678 19.735C61.3278 20.135 60.9078 20.455 60.4378 20.695L54.5178 23.655L40.7478 37.415C40.5078 37.655 40.1978 37.835 39.8678 37.925C39.5378 38.015 39.1878 38.025 38.8478 37.935L22.8478 33.935C22.6078 33.875 22.3778 33.765 22.1678 33.625L8.28777 23.715L2.21777 20.675C1.26777 20.205 0.547774 19.365 0.207774 18.365C-0.132226 17.365 -0.0522256 16.265 0.427774 15.315L6.63777 2.895C7.11777 1.945 7.94777 1.225 8.95777 0.895C9.96777 0.555 11.0578 0.635 12.0078 1.115L17.5278 3.865L30.7778 0.075C31.1378 -0.025 31.5178 -0.025 31.8778 0.075L45.1278 3.865L50.6478 1.115C51.5978 0.645 52.6978 0.565 53.6978 0.895C54.6978 1.225 55.5378 1.955 56.0078 2.905L62.2178 15.325C62.4578 15.795 62.5978 16.305 62.6378 16.825C62.6778 17.345 62.6078 17.875 62.4378 18.375ZM29.2678 42.485C29.1578 42.915 28.9078 43.305 28.5578 43.575C28.2078 43.845 27.7778 43.995 27.3278 43.995C27.1578 43.995 26.9878 43.975 26.8278 43.935L18.8278 41.935C18.6078 41.875 18.3978 41.785 18.1978 41.655L12.1978 37.655C11.7578 37.365 11.4478 36.905 11.3478 36.385C11.2478 35.865 11.3478 35.325 11.6478 34.885C11.9378 34.445 12.3978 34.135 12.9178 34.035C13.4378 33.935 13.9778 34.035 14.4178 34.335L20.1278 38.145L27.7978 40.065C28.0578 40.125 28.2978 40.235 28.5078 40.395C28.7178 40.555 28.8978 40.745 29.0378 40.975C29.1778 41.205 29.2678 41.455 29.3078 41.715C29.3378 41.965 29.3278 42.235 29.2678 42.485Z" fill="white"/>
</svg>
