<svg width="56" height="48" viewBox="0 0 56 48" fill="none" xmlns="http://www.w3.org/2000/svg">
<path d="M46 21C46 21.59 45.82 22.17 45.49 22.67C45.16 23.16 44.69 23.55 44.14 23.77C43.6 24 43 24.06 42.41 23.94C41.83 23.82 41.29 23.54 40.87 23.12C40.45 22.7 40.16 22.17 40.05 21.58C39.94 21 40 20.4 40.23 19.85C40.46 19.3 40.84 18.83 41.33 18.5C41.83 18.18 42.41 18 43 18C43.8 18 44.56 18.32 45.12 18.88C45.68 19.44 46 20.2 46 21ZM52 34H46V30C46 29.47 45.79 28.96 45.41 28.59C45.03 28.22 44.53 28 44 28H12C11.47 28 10.96 28.21 10.59 28.59C10.22 28.97 10 29.47 10 30V34H4V16C4 14.9 5.05 14 6.33 14H49.67C50.95 14 52 14.9 52 16V34ZM42 44H14V32H42V44ZM14 4H42V10H14V4ZM49.67 10H46V2C46 1.47 45.79 0.96 45.41 0.59C45.03 0.22 44.53 0 44 0H12C11.47 0 10.96 0.21 10.59 0.59C10.22 0.97 10 1.47 10 2V10H6.33C2.84 10 0 12.69 0 16V36C0 36.53 0.21 37.04 0.59 37.41C0.97 37.78 1.47 38 2 38H10V46C10 46.53 10.21 47.04 10.59 47.41C10.97 47.78 11.47 48 12 48H44C44.53 48 45.04 47.79 45.41 47.41C45.78 47.03 46 46.53 46 46V38H54C54.53 38 55.04 37.79 55.41 37.41C55.78 37.03 56 36.53 56 36V16C56 12.69 53.16 10 49.67 10Z" fill="white"/>
</svg>
