<svg width="52" height="48" viewBox="0 0 52 48" fill="none" xmlns="http://www.w3.org/2000/svg">
<path d="M48 40.4412L36 43.4412V11.5612L48 8.56116V40.4412ZM4 7.56116L16 4.56116V36.4412L4 39.4412V7.56116ZM20 5.24116L32 11.2412V42.7712L20 36.7712V5.24116ZM51.23 4.42116C50.99 4.23116 50.71 4.10116 50.41 4.04116C50.11 3.98116 49.81 3.98116 49.51 4.06116L34.23 7.88116L18.89 0.21116C18.47 0.00116016 17.98 -0.0588398 17.51 0.0611602L1.51 4.06116C1.08 4.17116 0.7 4.42116 0.42 4.77116C0.15 5.12116 0 5.55116 0 6.00116V42.0012C0 42.3012 0.07 42.6012 0.2 42.8812C0.33 43.1512 0.53 43.3912 0.77 43.5812C1.01 43.7712 1.29 43.9012 1.59 43.9612C1.89 44.0212 2.2 44.0212 2.49 43.9412L17.77 40.1212L33.11 47.7912C33.38 47.9312 33.69 48.0012 34 48.0012C34.16 48.0012 34.33 47.9812 34.49 47.9412L50.49 43.9412C50.92 43.8312 51.31 43.5812 51.58 43.2312C51.85 42.8812 52 42.4512 52 42.0012V6.00116C52 5.70116 51.93 5.40116 51.8 5.12116C51.66 4.85116 51.47 4.61116 51.23 4.42116Z" fill="white"/>
</svg>
