<svg width="28" height="23" viewBox="0 0 28 23" fill="none" xmlns="http://www.w3.org/2000/svg">
<g clip-path="url(#clip0_2079_22654)">
<path d="M3.44396 12.4168L13.9389 4.52426L24.4338 12.5165V23H16.6696V15.4463H11.2082V22.9003H3.44396V12.4168Z" fill="white"/>
<path d="M27.4702 9.82581L22.7424 6.21836V1.63431H19.278V3.54765L14.9985 0.27902C14.7132 0.0597827 14.3668 -0.01994 14.0408 -9.31531e-06C14.0408 -9.31531e-06 14.0204 -9.31531e-06 14 -9.31531e-06C14 -9.31531e-06 13.9796 -9.31531e-06 13.9592 -9.31531e-06C13.6332 -0.01994 13.2868 0.0597827 13.0015 0.27902L0.529842 9.82581C-0.0611337 10.2842 -0.163026 11.1213 0.2853 11.6993C0.754005 12.2773 1.6099 12.3769 2.20088 11.9385L14 2.9298L25.7787 11.9385C26.3697 12.3969 27.2256 12.2972 27.6943 11.6993C28.163 11.1213 28.0611 10.2842 27.4498 9.82581" fill="white"/>
</g>
<defs>
<clipPath id="clip0_2079_22654">
<rect width="28" height="23" fill="white"/>
</clipPath>
</defs>
</svg>
