<svg width="54" height="72" viewBox="0 0 54 72" fill="none" xmlns="http://www.w3.org/2000/svg">
<path d="M41.2346 46.3515C47.3688 42.6306 53.4817 35.8055 53.8001 25.5784C53.9487 14.0968 48.1329 6.97399 41.2346 3.25311C37.0956 1.08437 32.4048 0 28.8389 0V50.37C31.4921 50.3275 36.1829 49.4345 41.2346 46.3515ZM35.8858 8.54738C38.1569 9.37661 39.8337 10.5035 41.2558 11.6517C45.5222 15.5001 46.7108 19.8801 46.6047 25.302C46.4986 31.2341 43.9939 34.9124 41.2558 37.6978C39.7276 39.2499 37.881 40.4831 35.8858 41.4187V8.56865V8.54738Z" fill="white"/>
<path d="M9.54495 44.9694C10.3091 45.7349 11.3916 46.3727 12.4528 46.9893C15.6791 49.0092 19.9667 50.285 25.0184 50.5401V25.1318H17.8229V41.5675C15.6791 40.4831 13.8537 39.2499 12.4741 37.6978C5.4272 30.256 6.50971 19.0934 12.4741 12.5872C15.382 9.33408 20.1577 7.52679 24.8698 7.46301V0.0637817C19.712 0.14883 15.8277 1.57339 12.4741 3.4232C10.4789 4.50757 8.63228 5.76203 7.25262 7.14407C2.22217 12.0769 0.0571289 18.7532 0.0571289 25.8973C0.0571289 32.1058 3.26219 40.313 9.54495 44.9694Z" fill="white"/>
<path d="M47.4536 52.879C45.7556 52.879 43.7604 52.879 41.5954 52.7301C35.7159 52.5813 29.0935 53.0278 27.2257 57.8331C24.4452 52.879 18.1199 52.4112 12.5588 52.56C10.5424 52.7089 8.526 52.7089 6.99776 52.7089L0.523926 66.5718C3.92001 67.5073 8.25001 68.3578 12.58 66.9758C17.8227 65.1047 23.4475 64.0629 27.3106 69.6335C27.5865 69.2933 27.9473 68.8894 28.3294 68.5279C32.6594 64.1904 37.138 64.9559 41.6166 66.6568C45.7981 68.209 49.6399 67.5073 53.3543 66.5718L47.4748 52.8577L47.4536 52.879ZM18.6506 62.8297C18.693 63.3187 18.7354 63.6801 18.8203 63.9566H16.1671C16.2096 63.7439 16.2308 63.4675 16.2521 63.1486C16.2733 62.8722 16.2945 62.5958 16.2945 62.2556C16.2945 62.0217 16.2945 61.7878 16.2945 61.5327V61.235C15.5728 60.9586 14.7663 61.0224 13.8961 61.3838C13.8961 61.6602 13.8961 61.9154 13.8961 62.1493C13.8961 62.4257 13.896 62.6596 13.9172 62.8722C13.9597 63.3825 14.0022 63.7439 14.0871 63.9566H11.4339C11.4976 63.6376 11.54 63.2336 11.5825 62.7446C11.6037 62.2981 11.6249 61.8091 11.6249 61.2775C11.6249 60.1719 11.5612 59.3214 11.4551 58.7261H14.1083C13.9809 59.3001 13.9173 60.0868 13.8961 61.1287L14.1295 60.342C14.1295 60.342 14.1932 60.342 14.3418 60.2995C14.4267 60.2995 14.4903 60.2782 14.5752 60.2569L14.8724 60.2144C15.1271 60.2144 15.3606 60.2144 15.5728 60.2144C15.8488 60.2357 16.0823 60.2995 16.3157 60.4058C16.3157 59.9805 16.2945 59.6403 16.2733 59.3852C16.2521 59.0663 16.2096 58.8324 16.1671 58.7048H18.8203C18.693 59.3001 18.6294 60.1719 18.6081 61.32C18.6081 61.8729 18.6081 62.3619 18.6506 62.8084M26.5889 63.9353H19.7331C19.8392 63.2336 19.9029 62.3619 19.9029 61.32C19.9029 60.7672 19.9028 60.2782 19.8816 59.853C19.8604 59.3639 19.7968 58.9812 19.7331 58.7048H26.2918L26.7799 60.0443C26.4191 59.938 26.0371 59.853 25.6125 59.7892C25.2305 59.7254 24.8484 59.6829 24.4239 59.6616C24.0631 59.6403 23.681 59.6191 23.299 59.6403C22.9806 59.6403 22.641 59.6403 22.3226 59.6829L22.2589 61.0862L22.5348 60.5546C22.832 60.4696 23.1716 60.4058 23.5537 60.3845C23.872 60.3845 24.1904 60.3845 24.5513 60.3845C24.806 60.3845 25.0395 60.427 25.2942 60.4696C25.4852 60.4908 25.5913 60.5121 25.5913 60.5121L25.9522 61.7028C25.6338 61.5539 25.2729 61.4476 24.8696 61.3626C24.53 61.2988 24.1692 61.2775 23.7659 61.2775C23.4475 61.2775 23.1504 61.2988 22.8532 61.3413C22.6198 61.3838 22.4287 61.4051 22.2801 61.4476V62.8722C23.1291 62.936 23.9782 62.9147 24.8272 62.8084C25.7187 62.7021 26.5253 62.5107 27.2257 62.2556L26.5677 63.8928L26.5889 63.9353ZM34.6122 61.4901C34.3787 61.7666 34.0179 61.9792 33.5721 62.1067C33.1476 62.2343 32.6382 62.2981 32.0651 62.3194C31.5345 62.3194 30.9402 62.2768 30.3246 62.1918L30.2397 61.639L30.6217 61.6815C30.9189 61.7028 31.1948 61.6815 31.4283 61.6815C31.7679 61.639 32.0439 61.5327 32.2561 61.3838C32.5109 61.1925 32.6382 60.9161 32.6382 60.5759C32.6382 60.3633 32.5533 60.1719 32.3622 60.0443C32.2137 59.938 31.9802 59.853 31.7043 59.7892C31.4708 59.7467 31.1949 59.7254 30.8765 59.7254H30.4732H30.1123L30.0487 60.6609C30.0274 61.1074 30.0275 61.5327 30.0062 61.9154C30.0062 62.4044 30.0062 62.8084 30.0487 63.1273C30.0699 63.5313 30.1336 63.8077 30.2185 63.9778H27.5441C27.6077 63.6589 27.6502 63.2762 27.6927 62.7871C27.7139 62.3619 27.7351 61.8729 27.7351 61.3626C27.7351 60.2569 27.6714 59.3852 27.5653 58.7686H32.3835C33.2962 58.7686 33.9754 58.9174 34.4211 59.2151C34.8244 59.4915 35.0367 59.8955 35.0367 60.427C35.0367 60.8735 34.9093 61.235 34.6334 61.5114M42.2109 63.4888C41.8501 63.6801 41.4468 63.8077 40.9374 63.914C40.3643 64.0203 39.7275 64.0841 39.0271 64.0841C38.5177 64.0841 38.0295 64.0416 37.5838 63.9778C37.2229 63.914 36.8621 63.8502 36.5437 63.7439C36.3102 63.6801 36.1192 63.5951 35.9281 63.51C35.8008 63.4463 35.7159 63.4037 35.7159 63.4037L35.44 61.9154C35.5886 62.0642 35.8008 62.1918 36.1404 62.3194C36.4375 62.4469 36.7984 62.5532 37.2229 62.6596C38.0932 62.8722 38.8573 62.9572 39.5577 62.9572C39.8761 62.9572 40.1308 62.9147 40.3006 62.8297C40.4917 62.7233 40.4917 62.5958 40.3006 62.4257C40.237 62.3832 40.1096 62.3406 39.9185 62.3194C39.7912 62.2981 39.579 62.2768 39.303 62.2343H39.112L38.5389 62.1493C38.2417 62.1067 37.9871 62.0855 37.7748 62.043C37.2442 61.9366 36.7984 61.8091 36.4588 61.6602C36.1616 61.5327 35.9282 61.3626 35.7583 61.1925C35.631 61.0436 35.5249 60.8735 35.4824 60.6822C35.4612 60.5333 35.44 60.3632 35.4612 60.1719C35.4612 60.0018 35.5037 59.853 35.5886 59.7254C35.6947 59.534 35.8645 59.3639 36.098 59.2364C36.3739 59.0663 36.7348 58.9174 37.1805 58.8324C37.6899 58.7261 38.3266 58.641 39.0695 58.641C39.5365 58.641 39.9822 58.641 40.4067 58.6835C40.7464 58.7048 41.0859 58.7473 41.3831 58.8111C41.5105 58.8111 41.6166 58.8536 41.744 58.8749C41.8289 58.8749 41.9138 58.9174 41.9987 58.9387C42.126 58.9812 42.2109 59.0025 42.2109 59.0025L42.4656 60.3207C42.4656 60.3207 42.4019 60.2782 42.2958 60.2357L41.744 60.0443C41.4468 59.9593 41.1284 59.8955 40.7676 59.853C40.3219 59.7892 39.8336 59.7466 39.3242 59.7466C38.4752 59.7466 38.0295 59.8317 38.0295 60.0656C38.0295 60.2782 38.263 60.427 38.7724 60.5121L39.3455 60.5759C39.3455 60.5759 39.4091 60.5759 39.4516 60.5759H39.77L40.4704 60.6822C41.468 60.831 42.1685 61.0224 42.5505 61.2775C42.9538 61.5327 43.1448 61.9367 43.1024 62.4469C43.0811 62.8722 42.7628 63.2336 42.1473 63.5526" fill="white"/>
<path d="M27.1621 71.377H27.1196C26.971 71.377 26.8437 71.292 26.7588 71.1644C23.3415 66.2316 18.6931 66.6143 12.7287 68.7405C8.27135 70.1651 3.79274 69.2933 0.375428 68.3578C0.0994958 68.294 -0.0490468 67.9963 0.0146299 67.7412C0.099532 67.4648 0.354213 67.316 0.65137 67.3797C4.13236 68.3365 8.22891 69.1232 12.4103 67.7837C17.7592 65.8914 23.2778 64.8708 27.2682 70.1226C27.5017 69.9099 27.7564 69.6973 27.9262 69.4847C32.5534 64.8495 37.3291 65.7851 41.7865 67.486C45.883 69.0169 49.6824 68.2728 53.2058 67.3797C53.4818 67.2947 53.7577 67.4648 53.8214 67.7412C53.8851 68.0176 53.7152 68.294 53.4393 68.3578C49.746 69.2933 45.7769 70.0588 41.4044 68.4216C36.6075 66.6143 32.617 66.2103 28.6479 70.1651C28.4568 70.399 28.1384 70.6754 27.8413 70.9305C27.7139 71.0368 27.6079 71.1431 27.5017 71.2495C27.3956 71.3345 27.2682 71.3983 27.1409 71.3983" fill="white"/>
</svg>
