<svg width="18" height="18" viewBox="0 0 18 18" fill="none" xmlns="http://www.w3.org/2000/svg">
<g clip-path="url(#clip0_2079_22550)">
<path fill-rule="evenodd" clip-rule="evenodd" d="M7.5 13C8.96 13 10.36 12.42 11.39 11.39C12.42 10.36 13 8.96 13 7.5C13 6.04 12.42 4.64 11.39 3.61C10.36 2.58 8.96 2 7.5 2C6.04 2 4.64 2.58 3.61 3.61C2.58 4.64 2 6.04 2 7.5C2 8.96 2.58 10.36 3.61 11.39C4.64 12.42 6.04 13 7.5 13ZM13.44 12.08L17.38 16.09C17.56 16.28 17.65 16.53 17.65 16.79C17.65 17.05 17.54 17.3 17.35 17.48C17.16 17.66 16.92 17.77 16.66 17.77C16.4 17.77 16.15 17.67 15.96 17.49L12.02 13.48C10.5 14.62 8.6 15.15 6.71 14.95C4.82 14.75 3.07 13.83 1.83 12.4C0.590002 10.97 -0.059998 9.1 0.010002 7.2C0.090002 5.3 0.880002 3.5 2.23 2.16C3.58 0.829997 5.39 0.0599973 7.29 -2.72947e-06C9.19 -0.0600027 11.04 0.619997 12.47 1.88C13.9 3.14 14.79 4.9 14.97 6.79C15.15 8.69 14.6 10.58 13.44 12.08Z" fill="#14AE5C"/>
</g>
<defs>
<clipPath id="clip0_2079_22550">
<rect width="17.64" height="17.77" fill="white"/>
</clipPath>
</defs>
</svg>
