<svg width="104" height="60" viewBox="0 0 104 60" fill="none" xmlns="http://www.w3.org/2000/svg">
<path d="M9.78 23.52C9.78 23.52 39.38 25.63 51.54 47.31C62.38 25.37 93.04 24.05 93.04 24.05L88.81 36.74C88.81 36.74 59.21 39.38 51.54 48.11C44.4 39.39 23.52 36.22 14.27 36.74C12.43 30.66 9.78 23.52 9.78 23.52Z" fill="#1DA8A1"/>
<path d="M7.14 29.6001H3.97L9.26 41.7601C9.26 41.7601 31.46 38.8501 51.55 54.1801C52.61 54.1801 71.64 42.0201 93.05 41.4901C97.01 32.7701 98.86 29.0701 98.86 29.0701H96.22C96.22 29.0701 92.78 36.4701 91.73 39.1101C70.31 40.7001 51.81 51.5401 51.54 51.5401C50.48 51.5401 38.32 38.8501 11.1 39.1201C8.46 33.0401 7.14 29.6001 7.14 29.6001Z" fill="#F5B21A"/>
<path d="M2.64 33.3H0L5.81 46.25C5.81 46.25 29.6 44.93 51.54 59.99C52.6 60 73.22 47.31 97 46.26C100.96 37.27 103.08 32.78 103.08 32.78H100.17C100.17 32.78 96.47 41.5 95.15 43.88C73.74 44.14 52.07 57.36 51.54 57.36C45.46 53.4 31.72 43.88 7.13 43.88C4.23 37.8 2.64 33.3 2.64 33.3Z" fill="#1563A2"/>
<path d="M39.39 15.3299L37.8 14.5399C37.54 12.4299 35.69 10.8399 33.31 10.8399C30.93 10.8399 28.82 12.9499 28.82 15.3299C28.82 17.7099 30.93 19.8199 33.31 19.8199C33.57 19.8199 33.84 19.8199 33.84 19.8199C34.37 20.3499 34.9 21.1399 34.9 21.4099C33.58 21.4099 29.88 21.4099 24.06 21.9399C37.54 26.4299 48.11 36.2099 49.7 39.1199C49.7 22.7299 41.51 9.24994 36.22 3.43994C39.12 7.92994 39.39 15.3299 39.39 15.3299Z" fill="#F5B21A"/>
<path d="M54.71 8.46L54.45 7.4C55.51 6.61 56.04 5.55 56.04 4.23C56.04 1.85 54.19 0 51.81 0C49.43 0 47.58 1.85 47.58 4.23C47.58 5.29 48.11 6.34 48.9 7.14L48.37 8.99C48.37 8.99 45.2 4.5 38.06 0.27C38.06 0.27 48.9 12.69 51.54 26.17C54.45 11.9 61.58 4.5 65.81 0.27C61.32 1.32 54.71 8.46 54.71 8.46Z" fill="#1DA8A1"/>
<path d="M74.54 15.3299C74.54 12.9499 72.43 10.8399 69.78 10.8399C67.67 10.8399 65.82 12.4299 65.29 14.5399L63.97 15.3299C63.97 15.3299 64.23 7.92994 67.14 3.43994C61.85 9.25994 53.66 22.7399 53.66 39.1199C55.25 36.2099 65.82 26.4299 79.3 21.9399C73.49 21.4099 69.78 21.4099 68.46 21.4099C68.46 21.1499 68.72 20.6199 69.25 19.8199C69.51 19.8199 69.78 20.0799 69.78 20.0799C72.43 20.0899 74.54 17.9699 74.54 15.3299Z" fill="#1563A2"/>
</svg>
