<svg width="91" height="76" viewBox="0 0 91 76" fill="none" xmlns="http://www.w3.org/2000/svg">
<path d="M16.4478 71.4187L15.6078 66.7487H14.4678L15.8778 73.4887H17.0278L18.4378 66.7487H17.2978L16.4478 71.4187ZM20.1178 71.8487C20.1178 72.7987 20.6678 73.5687 21.8878 73.5687C23.1078 73.5687 23.6578 72.7987 23.6578 71.8487V68.3887C23.6578 67.4387 23.1078 66.6687 21.8878 66.6687C20.6678 66.6687 20.1178 67.4387 20.1178 68.3887V71.8487ZM21.2678 68.4087C21.2678 67.8987 21.4178 67.6687 21.8878 67.6687C22.3578 67.6687 22.5078 67.9087 22.5078 68.4087V71.8187C22.5078 72.3287 22.3578 72.5587 21.8878 72.5587C21.4178 72.5587 21.2678 72.3087 21.2678 71.8187V68.4087ZM27.0178 73.4787V66.7387H25.8678V73.4787H27.0178ZM34.8778 68.9987V68.4987C34.8778 67.4887 34.3278 66.6487 33.1578 66.6487C31.9378 66.6487 31.3878 67.4187 31.3878 68.3687V71.8287C31.3878 72.7787 31.9378 73.5487 33.1578 73.5487C34.3778 73.5487 34.8778 72.7787 34.8778 71.8287V71.0587H33.7278V71.8687C33.7278 72.3087 33.5878 72.5487 33.1778 72.5487C32.7078 72.5487 32.5578 72.2987 32.5578 71.8087V68.3987C32.5578 67.8887 32.7078 67.6587 33.1778 67.6587C33.4778 67.6587 33.7278 67.8987 33.7278 68.4687V68.9987H34.8778ZM37.0878 71.7787C37.0878 72.9287 37.7578 73.5687 38.8578 73.5687C39.9578 73.5687 40.6278 72.9387 40.6278 71.7787V66.7387H39.4778V71.8187C39.4778 72.3087 39.2878 72.5587 38.8578 72.5587C38.4278 72.5587 38.2378 72.3087 38.2378 71.8187V66.7387H37.0878V71.7787ZM42.7778 71.8487C42.7778 72.7987 43.3278 73.5687 44.5478 73.5687C45.7678 73.5687 46.3178 72.7987 46.3178 71.8487V68.3887C46.3178 67.4387 45.7678 66.6687 44.5478 66.6687C43.3278 66.6687 42.7778 67.4387 42.7778 68.3887V71.8487ZM43.9278 68.4087C43.9278 67.8987 44.0778 67.6687 44.5478 67.6687C45.0178 67.6687 45.1678 67.9087 45.1678 68.4087V71.8187C45.1678 72.3287 45.0178 72.5587 44.5478 72.5587C44.0778 72.5587 43.9278 72.3087 43.9278 71.8187V68.4087ZM51.9378 68.9987V68.4987C51.9378 67.4887 51.3878 66.6487 50.2178 66.6487C49.0478 66.6487 48.4478 67.4187 48.4478 68.3687V71.8287C48.4478 72.7787 48.9978 73.5487 50.2178 73.5487C51.4378 73.5487 51.9378 72.7787 51.9378 71.8287V71.0587H50.7878V71.8687C50.7878 72.3087 50.6478 72.5487 50.2378 72.5487C49.7678 72.5487 49.6178 72.2987 49.6178 71.8087V68.3987C49.6178 67.8887 49.7678 67.6587 50.2378 67.6587C50.5378 67.6587 50.7878 67.8987 50.7878 68.4687V68.9987H51.9378ZM59.4178 68.2887C59.3078 67.3387 58.7578 66.6487 57.8178 66.6487C56.6878 66.6487 56.0278 67.2487 56.0278 68.3287C56.0278 70.2587 58.3778 70.6087 58.3778 71.9387C58.3778 72.3387 58.1078 72.5487 57.7078 72.5487C57.3378 72.5487 57.0678 72.2187 57.0178 71.5387L55.9178 71.6987C55.9578 72.7087 56.5778 73.5587 57.6478 73.5587C58.7178 73.5587 59.4678 72.9487 59.4678 71.8387C59.4678 70.0087 57.1178 69.4587 57.1178 68.3087C57.1178 67.8887 57.3178 67.6387 57.6978 67.6387C57.9578 67.6387 58.2678 67.8087 58.3178 68.3787L59.4178 68.2587V68.2887ZM61.3778 71.8487C61.3778 72.7987 61.9278 73.5687 63.1478 73.5687C64.3678 73.5687 64.9178 72.7987 64.9178 71.8487V68.3887C64.9178 67.4387 64.3678 66.6687 63.1478 66.6687C61.9278 66.6687 61.3778 67.4387 61.3778 68.3887V71.8487ZM62.5378 68.4087C62.5378 67.8987 62.6878 67.6687 63.1578 67.6687C63.6278 67.6687 63.7778 67.9087 63.7778 68.4087V71.8187C63.7778 72.3287 63.6278 72.5587 63.1578 72.5587C62.6878 72.5587 62.5378 72.3087 62.5378 71.8187V68.4087ZM68.1178 73.4787V69.2687H68.1378L69.6078 73.4787H70.6078V66.7387H69.5578V70.5887H69.5378L68.1278 66.7387H67.0578V73.4787H68.1178ZM74.3578 70.9887H75.0978V71.6487C75.0978 72.3187 74.9278 72.5887 74.4678 72.5887C74.0578 72.5887 73.9278 72.3087 73.9278 71.8787V68.4187C73.9278 67.8487 74.1578 67.6887 74.4378 67.6887C74.8978 67.6887 75.0978 67.9487 75.0978 68.9587H76.1978V68.5287C76.1978 67.5187 75.6178 66.6787 74.4678 66.6787C73.3178 66.6787 72.7678 67.4487 72.7678 68.3987V71.8587C72.7678 72.9387 73.3978 73.5787 74.3178 73.5787C74.8578 73.5787 75.1378 73.3987 75.4778 72.9887L75.6878 73.4987H76.2378V70.0887H74.3478V70.9887H74.3578Z" fill="#75C044"/>
<path d="M17.2878 66.7488L16.3978 66.5888L15.5578 71.2588L16.4478 71.4188L17.3378 71.5788L18.1778 66.9088L17.2878 66.7488ZM18.4278 66.7488V65.8488H17.2878V66.7488V67.6488H18.4278V66.7488ZM17.0278 73.4788L17.9078 73.6588L19.3178 66.9288L18.4378 66.7488L17.5578 66.5688L16.1478 73.2988L17.0278 73.4788ZM15.8678 73.4788V74.3788H17.0178V73.4788V72.5788H15.8678V73.4788ZM14.4578 66.7488L13.5778 66.9288L14.9878 73.6588L15.8678 73.4788L16.7478 73.2988L15.3378 66.5688L14.4578 66.7488ZM15.6078 66.7488V65.8488H14.4678V66.7488V67.6488H15.6078V66.7488ZM16.4478 71.4188L17.3378 71.2588L16.4978 66.5888L15.6078 66.7488L14.7178 66.9088L15.5578 71.5788L16.4478 71.4188ZM16.4678 71.4188V70.5188H16.4478V71.4188V72.3188H16.4678V71.4188ZM20.1178 68.3788H19.2178V71.8388H20.1178H21.0178V68.3788H20.1178ZM21.8878 66.6588V65.7588C21.0778 65.7588 20.3778 66.0188 19.8878 66.5488C19.4078 67.0688 19.2178 67.7388 19.2178 68.3788H20.1178H21.0178C21.0178 68.0788 21.1078 67.8888 21.2078 67.7788C21.2978 67.6788 21.4778 67.5588 21.8878 67.5588V66.6588ZM23.6578 68.3788H24.5578C24.5578 67.7388 24.3678 67.0688 23.8878 66.5488C23.3978 66.0188 22.6978 65.7588 21.8878 65.7588V66.6588V67.5588C22.2978 67.5588 22.4778 67.6788 22.5678 67.7788C22.6678 67.8888 22.7578 68.0788 22.7578 68.3788H23.6578ZM23.6578 71.8488H24.5578V68.3888H23.6578H22.7578V71.8488H23.6578ZM21.8878 73.5688V74.4688C22.6978 74.4688 23.3978 74.2088 23.8878 73.6788C24.3678 73.1588 24.5578 72.4888 24.5578 71.8488H23.6578H22.7578C22.7578 72.1488 22.6678 72.3388 22.5678 72.4488C22.4778 72.5488 22.2978 72.6688 21.8878 72.6688V73.5688ZM20.1178 71.8488H19.2178C19.2178 72.4888 19.4078 73.1588 19.8878 73.6788C20.3778 74.2088 21.0778 74.4688 21.8878 74.4688V73.5688V72.6688C21.4778 72.6688 21.2978 72.5488 21.2078 72.4488C21.1078 72.3388 21.0178 72.1488 21.0178 71.8488H20.1178ZM21.2678 71.8188H22.1678V68.4088H21.2678H20.3678V71.8188H21.2678ZM21.8878 72.5588V71.6588C21.8478 71.6588 21.8678 71.6488 21.9178 71.6688C21.9778 71.6888 22.0578 71.7388 22.1178 71.8188C22.1478 71.8488 22.1578 71.8788 22.1678 71.8988C22.1678 71.9088 22.1778 71.9188 22.1778 71.9188C22.1778 71.9088 22.1778 71.9088 22.1778 71.8988C22.1778 71.8788 22.1778 71.8488 22.1778 71.8088H21.2778H20.3778C20.3778 72.1088 20.4178 72.5488 20.6978 72.9188C21.0278 73.3488 21.5078 73.4488 21.8978 73.4488V72.5588H21.8878ZM22.5078 71.8188H21.6078C21.6078 71.8588 21.6078 71.8888 21.6078 71.9188C21.6078 71.9288 21.6078 71.9388 21.6078 71.9388C21.6078 71.9288 21.6178 71.9288 21.6178 71.9088C21.6278 71.8888 21.6478 71.8588 21.6678 71.8188C21.7278 71.7388 21.8078 71.6888 21.8678 71.6688C21.9178 71.6488 21.9378 71.6588 21.8878 71.6588V72.5588V73.4588C22.2678 73.4588 22.7478 73.3588 23.0778 72.9288C23.3678 72.5588 23.4078 72.1088 23.4078 71.8088H22.5078V71.8188ZM22.5078 68.4088H21.6078V71.8188H22.5078H23.4078V68.4088H22.5078ZM21.8878 67.6588V68.5588C21.9378 68.5588 21.9178 68.5688 21.8678 68.5488C21.8078 68.5288 21.7278 68.4788 21.6678 68.3988C21.6378 68.3688 21.6278 68.3288 21.6178 68.3088C21.6178 68.2988 21.6078 68.2888 21.6078 68.2788C21.6078 68.2888 21.6078 68.2888 21.6078 68.2988C21.6078 68.3188 21.6078 68.3488 21.6078 68.3988H22.5078H23.4078C23.4078 68.0988 23.3778 67.6588 23.0778 67.2788C22.7378 66.8488 22.2578 66.7488 21.8878 66.7488V67.6588ZM21.2678 68.4088H22.1678C22.1678 68.3688 22.1678 68.3388 22.1678 68.3088C22.1678 68.2988 22.1678 68.2888 22.1678 68.2888C22.1678 68.2988 22.1578 68.2988 22.1578 68.3188C22.1478 68.3388 22.1278 68.3688 22.1078 68.4088C22.0478 68.4888 21.9678 68.5388 21.9078 68.5588C21.8578 68.5788 21.8378 68.5688 21.8878 68.5688V67.6688V66.7688C21.5078 66.7688 21.0278 66.8688 20.6978 67.2988C20.4078 67.6688 20.3678 68.1188 20.3678 68.4188H21.2678V68.4088ZM25.8678 73.4788V74.3788H27.0178V73.4788V72.5788H25.8678V73.4788ZM25.8678 66.7488H24.9678V73.4888H25.8678H26.7678V66.7488H25.8678ZM27.0178 66.7488V65.8488H25.8678V66.7488V67.6488H27.0178V66.7488ZM27.0178 73.4788H27.9178V66.7388H27.0178H26.1178V73.4788H27.0178ZM34.8778 68.9888H33.9778V68.9988H34.8778H35.7778V68.9888H34.8778ZM33.7278 68.9888V69.8888H34.8778V68.9888V68.0888H33.7278V68.9888ZM33.7278 68.4588H32.8278V68.9888H33.7278H34.6278V68.4588H33.7278ZM33.1778 67.6488V68.5488C33.1278 68.5488 33.0678 68.5388 33.0078 68.5088C32.9378 68.4788 32.8878 68.4288 32.8578 68.3888C32.7978 68.3088 32.8378 68.2888 32.8378 68.4588H33.7378H34.6378C34.6378 68.0488 34.5478 67.6288 34.2878 67.2888C34.0078 66.9188 33.5978 66.7488 33.1878 66.7488V67.6488H33.1778ZM32.5578 68.3888H33.4578C33.4578 68.3488 33.4578 68.3188 33.4578 68.2888C33.4578 68.2788 33.4578 68.2688 33.4578 68.2588C33.4578 68.2688 33.4478 68.2688 33.4478 68.2888C33.4378 68.3088 33.4178 68.3388 33.3978 68.3788C33.3378 68.4588 33.2578 68.5088 33.1978 68.5288C33.1478 68.5488 33.1278 68.5388 33.1778 68.5388V67.6388V66.7388C32.7978 66.7388 32.3178 66.8388 31.9878 67.2688C31.6978 67.6388 31.6578 68.0888 31.6578 68.3888H32.5578ZM32.5578 71.7988H33.4578V68.3888H32.5578H31.6578V71.7988H32.5578ZM33.1778 72.5488V71.6488C33.1378 71.6488 33.1578 71.6388 33.2078 71.6588C33.2678 71.6788 33.3478 71.7288 33.4078 71.8088C33.4378 71.8388 33.4478 71.8688 33.4578 71.8888C33.4578 71.8988 33.4678 71.9088 33.4678 71.9088C33.4678 71.8988 33.4678 71.8988 33.4678 71.8888C33.4678 71.8688 33.4678 71.8388 33.4678 71.7988H32.5678H31.6678C31.6678 72.0988 31.7078 72.5388 31.9878 72.9088C32.3178 73.3388 32.7978 73.4388 33.1878 73.4388V72.5488H33.1778ZM33.7278 71.8688H32.8278C32.8278 71.9388 32.8178 71.9588 32.8278 71.9588C32.8278 71.9488 32.8378 71.8988 32.8978 71.8288C32.9578 71.7488 33.0278 71.6988 33.1078 71.6688C33.1678 71.6388 33.2078 71.6488 33.1878 71.6488V72.5488V73.4488C33.5678 73.4488 34.0278 73.3288 34.3378 72.9188C34.6078 72.5688 34.6378 72.1488 34.6378 71.8688H33.7278ZM33.7278 71.0588H32.8278V71.8688H33.7278H34.6278V71.0588H33.7278ZM34.8778 71.0588V70.1588H33.7278V71.0588V71.9588H34.8778V71.0588ZM34.8778 71.8388H35.7778V71.0688H34.8778H33.9778V71.8388H34.8778ZM33.1678 73.5588V74.4588C33.9778 74.4588 34.6778 74.1888 35.1578 73.6488C35.6278 73.1288 35.7878 72.4588 35.7878 71.8388H34.8878H33.9878C33.9878 72.1688 33.8978 72.3588 33.8078 72.4588C33.7378 72.5388 33.5678 72.6588 33.1678 72.6588V73.5588ZM31.3978 71.8388H30.4978C30.4978 72.4788 30.6878 73.1488 31.1678 73.6688C31.6578 74.1988 32.3578 74.4588 33.1678 74.4588V73.5588V72.6588C32.7578 72.6588 32.5778 72.5388 32.4878 72.4388C32.3878 72.3288 32.2978 72.1388 32.2978 71.8388H31.3978ZM31.3978 68.3688H30.4978V71.8288H31.3978H32.2978V68.3688H31.3978ZM33.1678 66.6488V65.7488C32.3578 65.7488 31.6578 66.0088 31.1678 66.5388C30.6878 67.0588 30.4978 67.7288 30.4978 68.3688H31.3978H32.2978C32.2978 68.0688 32.3878 67.8788 32.4878 67.7688C32.5778 67.6688 32.7578 67.5488 33.1678 67.5488V66.6488ZM34.8778 68.4988H35.7778C35.7778 67.8388 35.5978 67.1488 35.1378 66.6088C34.6678 66.0488 33.9678 65.7388 33.1578 65.7388V66.6388V67.5388C33.5078 67.5388 33.6678 67.6488 33.7678 67.7688C33.8778 67.8988 33.9778 68.1388 33.9778 68.4888H34.8778V68.4988ZM34.8778 68.9988H35.7778V68.4988H34.8778H33.9778V68.9988H34.8778ZM37.0878 66.7488H36.1878V71.7888H37.0878H37.9878V66.7488H37.0878ZM38.2378 66.7488V65.8488H37.0878V66.7488V67.6488H38.2378V66.7488ZM38.2378 71.8288H39.1378V66.7488H38.2378H37.3378V71.8288H38.2378ZM38.8578 72.5688V71.6688C38.8378 71.6688 38.8578 71.6688 38.9178 71.6888C38.9778 71.7088 39.0378 71.7588 39.0878 71.8188C39.1378 71.8788 39.1478 71.9188 39.1478 71.9288C39.1478 71.9288 39.1378 71.9088 39.1378 71.8388H38.2378H37.3378C37.3378 72.1788 37.3978 72.6088 37.6878 72.9688C38.0078 73.3588 38.4578 73.4888 38.8578 73.4888V72.5688ZM39.4778 71.8288H38.5778C38.5778 71.8988 38.5678 71.9288 38.5678 71.9188C38.5678 71.9188 38.5778 71.8688 38.6278 71.8088C38.6778 71.7488 38.7378 71.7088 38.7978 71.6788C38.8478 71.6588 38.8778 71.6588 38.8578 71.6588V72.5588V73.4588C39.2478 73.4588 39.6978 73.3388 40.0278 72.9388C40.3178 72.5788 40.3778 72.1488 40.3778 71.8088H39.4778V71.8288ZM39.4778 66.7488H38.5778V71.8288H39.4778H40.3778V66.7488H39.4778ZM40.6278 66.7488V65.8488H39.4778V66.7488V67.6488H40.6278V66.7488ZM40.6278 71.7788H41.5278V66.7388H40.6278H39.7278V71.7788H40.6278ZM38.8578 73.5688V74.4688C39.5778 74.4688 40.2778 74.2588 40.7878 73.7488C41.3078 73.2388 41.5278 72.5388 41.5278 71.7888H40.6278H39.7278C39.7278 72.1888 39.6178 72.3788 39.5178 72.4788C39.4178 72.5688 39.2278 72.6788 38.8578 72.6788V73.5688ZM37.0878 71.7788H36.1878C36.1878 72.5288 36.4078 73.2288 36.9278 73.7388C37.4478 74.2488 38.1378 74.4588 38.8578 74.4588V73.5588V72.6588C38.4778 72.6588 38.2878 72.5488 38.1978 72.4588C38.1078 72.3688 37.9878 72.1788 37.9878 71.7688H37.0878V71.7788ZM42.7778 68.3788H41.8778V71.8388H42.7778H43.6778V68.3788H42.7778ZM44.5478 66.6588V65.7588C43.7378 65.7588 43.0378 66.0188 42.5478 66.5488C42.0678 67.0688 41.8778 67.7388 41.8778 68.3788H42.7778H43.6778C43.6778 68.0788 43.7678 67.8888 43.8678 67.7788C43.9578 67.6788 44.1378 67.5588 44.5478 67.5588V66.6588ZM46.3178 68.3788H47.2178C47.2178 67.7388 47.0278 67.0688 46.5478 66.5488C46.0578 66.0188 45.3578 65.7588 44.5478 65.7588V66.6588V67.5588C44.9578 67.5588 45.1378 67.6788 45.2278 67.7788C45.3278 67.8888 45.4178 68.0788 45.4178 68.3788H46.3178ZM46.3178 71.8488H47.2178V68.3888H46.3178H45.4178V71.8488H46.3178ZM44.5478 73.5688V74.4688C45.3578 74.4688 46.0578 74.2088 46.5478 73.6788C47.0278 73.1588 47.2178 72.4888 47.2178 71.8488H46.3178H45.4178C45.4178 72.1488 45.3278 72.3388 45.2278 72.4488C45.1378 72.5488 44.9578 72.6688 44.5478 72.6688V73.5688ZM42.7778 71.8488H41.8778C41.8778 72.4888 42.0678 73.1588 42.5478 73.6788C43.0378 74.2088 43.7378 74.4688 44.5478 74.4688V73.5688V72.6688C44.1378 72.6688 43.9578 72.5488 43.8678 72.4488C43.7678 72.3388 43.6778 72.1488 43.6778 71.8488H42.7778ZM43.9278 71.8188H44.8278V68.4088H43.9278H43.0278V71.8188H43.9278ZM44.5478 72.5588V71.6588C44.5078 71.6588 44.5278 71.6488 44.5778 71.6688C44.6378 71.6888 44.7178 71.7388 44.7778 71.8188C44.8078 71.8488 44.8178 71.8788 44.8278 71.8988C44.8278 71.9088 44.8378 71.9188 44.8378 71.9188C44.8378 71.9088 44.8378 71.9088 44.8378 71.8988C44.8378 71.8788 44.8378 71.8488 44.8378 71.8088H43.9378H43.0378C43.0378 72.1088 43.0778 72.5488 43.3578 72.9188C43.6878 73.3488 44.1678 73.4488 44.5578 73.4488V72.5588H44.5478ZM45.1678 71.8188H44.2678C44.2678 71.8588 44.2678 71.8888 44.2678 71.9188C44.2678 71.9288 44.2678 71.9388 44.2678 71.9388C44.2678 71.9288 44.2778 71.9288 44.2778 71.9088C44.2878 71.8888 44.3078 71.8588 44.3278 71.8188C44.3878 71.7388 44.4678 71.6888 44.5278 71.6688C44.5778 71.6488 44.5978 71.6588 44.5478 71.6588V72.5588V73.4588C44.9278 73.4588 45.4078 73.3588 45.7378 72.9288C46.0278 72.5588 46.0678 72.1088 46.0678 71.8088H45.1678V71.8188ZM45.1678 68.4088H44.2678V71.8188H45.1678H46.0678V68.4088H45.1678ZM44.5478 67.6588V68.5588C44.5978 68.5588 44.5778 68.5688 44.5278 68.5488C44.4678 68.5288 44.3878 68.4788 44.3278 68.3988C44.2978 68.3688 44.2878 68.3288 44.2778 68.3088C44.2778 68.2988 44.2678 68.2888 44.2678 68.2788C44.2678 68.2888 44.2678 68.2888 44.2678 68.2988C44.2678 68.3188 44.2678 68.3488 44.2678 68.3988H45.1678H46.0678C46.0678 68.0988 46.0378 67.6588 45.7378 67.2788C45.3978 66.8488 44.9178 66.7488 44.5478 66.7488V67.6588ZM43.9278 68.4088H44.8278C44.8278 68.3688 44.8278 68.3388 44.8278 68.3088C44.8278 68.2988 44.8278 68.2888 44.8278 68.2888C44.8278 68.2988 44.8178 68.2988 44.8178 68.3188C44.8078 68.3388 44.7878 68.3688 44.7678 68.4088C44.7078 68.4888 44.6278 68.5388 44.5678 68.5588C44.5178 68.5788 44.4978 68.5688 44.5478 68.5688V67.6688V66.7688C44.1678 66.7688 43.6878 66.8688 43.3578 67.2988C43.0678 67.6688 43.0278 68.1188 43.0278 68.4188H43.9278V68.4088ZM51.9378 68.9888H51.0378V68.9988H51.9378H52.8378V68.9888H51.9378ZM50.7878 68.9888V69.8888H51.9378V68.9888V68.0888H50.7878V68.9888ZM50.7878 68.4588H49.8878V68.9888H50.7878H51.6878V68.4588H50.7878ZM50.2378 67.6488V68.5488C50.1878 68.5488 50.1278 68.5388 50.0678 68.5088C49.9978 68.4788 49.9478 68.4288 49.9178 68.3888C49.8578 68.3088 49.8978 68.2888 49.8978 68.4588H50.7978H51.6978C51.6978 68.0488 51.6078 67.6288 51.3478 67.2888C51.0678 66.9188 50.6578 66.7488 50.2478 66.7488V67.6488H50.2378ZM49.6178 68.3888H50.5178C50.5178 68.3488 50.5178 68.3188 50.5178 68.2888C50.5178 68.2788 50.5178 68.2688 50.5178 68.2588C50.5178 68.2688 50.5078 68.2688 50.5078 68.2888C50.4978 68.3088 50.4778 68.3388 50.4578 68.3788C50.3978 68.4588 50.3178 68.5088 50.2578 68.5288C50.2078 68.5488 50.1878 68.5388 50.2378 68.5388V67.6388V66.7388C49.8578 66.7388 49.3778 66.8388 49.0478 67.2688C48.7578 67.6388 48.7178 68.0888 48.7178 68.3888H49.6178ZM49.6178 71.7988H50.5178V68.3888H49.6178H48.7178V71.7988H49.6178ZM50.2378 72.5488V71.6488C50.1978 71.6488 50.2178 71.6388 50.2678 71.6588C50.3278 71.6788 50.4078 71.7288 50.4678 71.8088C50.4978 71.8388 50.5078 71.8688 50.5178 71.8888C50.5178 71.8988 50.5278 71.9088 50.5278 71.9088C50.5278 71.8988 50.5278 71.8988 50.5278 71.8888C50.5278 71.8688 50.5278 71.8388 50.5278 71.7988H49.6278H48.7278C48.7278 72.0988 48.7678 72.5388 49.0478 72.9088C49.3778 73.3388 49.8578 73.4388 50.2478 73.4388V72.5488H50.2378ZM50.7878 71.8688H49.8878C49.8878 71.9388 49.8778 71.9588 49.8878 71.9588C49.8878 71.9488 49.8978 71.8988 49.9578 71.8288C50.0178 71.7488 50.0878 71.6988 50.1678 71.6688C50.2278 71.6388 50.2678 71.6488 50.2478 71.6488V72.5488V73.4488C50.6278 73.4488 51.0878 73.3288 51.3978 72.9188C51.6678 72.5688 51.6978 72.1488 51.6978 71.8688H50.7878ZM50.7878 71.0588H49.8878V71.8688H50.7878H51.6878V71.0588H50.7878ZM51.9378 71.0588V70.1588H50.7878V71.0588V71.9588H51.9378V71.0588ZM51.9378 71.8388H52.8378V71.0688H51.9378H51.0378V71.8388H51.9378ZM50.2178 73.5588V74.4588C51.0278 74.4588 51.7278 74.1888 52.2078 73.6488C52.6778 73.1288 52.8378 72.4588 52.8378 71.8388H51.9378H51.0378C51.0378 72.1688 50.9478 72.3588 50.8578 72.4588C50.7878 72.5388 50.6178 72.6588 50.2178 72.6588V73.5588ZM48.4478 71.8388H47.5478C47.5478 72.4788 47.7378 73.1488 48.2178 73.6688C48.7078 74.1988 49.4078 74.4588 50.2178 74.4588V73.5588V72.6588C49.8078 72.6588 49.6278 72.5388 49.5378 72.4388C49.4378 72.3288 49.3478 72.1388 49.3478 71.8388H48.4478ZM48.4478 68.3688H47.5478V71.8288H48.4478H49.3478V68.3688H48.4478ZM50.2178 66.6488V65.7488C49.4278 65.7488 48.7378 66.0188 48.2478 66.5288C47.7678 67.0388 47.5478 67.6988 47.5478 68.3688H48.4478H49.3478C49.3478 68.0888 49.4378 67.8888 49.5478 67.7788C49.6478 67.6688 49.8478 67.5488 50.2178 67.5488V66.6488ZM51.9378 68.4988H52.8378C52.8378 67.8388 52.6578 67.1488 52.1978 66.6088C51.7278 66.0488 51.0278 65.7388 50.2178 65.7388V66.6388V67.5388C50.5678 67.5388 50.7278 67.6488 50.8278 67.7688C50.9378 67.8988 51.0378 68.1388 51.0378 68.4888H51.9378V68.4988ZM51.9378 68.9988H52.8378V68.4988H51.9378H51.0378V68.9988H51.9378ZM59.4078 68.2788L58.7678 68.9088L58.7778 68.9188L59.4178 68.2888L60.0578 67.6588L60.0478 67.6488L59.4078 68.2788ZM58.3078 68.3888L58.4078 69.2788L59.5078 69.1588L59.4078 68.2688L59.3078 67.3788L58.2078 67.4988L58.3078 68.3888ZM57.6878 67.6488V68.5488C57.6178 68.5488 57.5178 68.5188 57.4378 68.4488C57.3678 68.3788 57.3978 68.3388 57.4078 68.4788L58.3078 68.3988L59.2078 68.3188C59.1678 67.8788 59.0178 67.4788 58.7078 67.1788C58.3978 66.8788 58.0178 66.7588 57.6878 66.7588V67.6488ZM57.1178 68.3188H58.0178C58.0178 68.2388 58.0378 68.3088 57.9478 68.4088C57.9078 68.4588 57.8478 68.4988 57.7878 68.5288C57.7378 68.5488 57.6978 68.5488 57.6878 68.5488V67.6488V66.7488C57.2878 66.7488 56.8778 66.8888 56.5778 67.2388C56.2978 67.5688 56.2178 67.9688 56.2178 68.3088H57.1178V68.3188ZM59.4578 71.8488H60.3578C60.3578 70.4988 59.4678 69.6588 58.8778 69.1488C58.5378 68.8588 58.3178 68.6788 58.1478 68.4888C57.9878 68.3088 58.0178 68.2688 58.0178 68.3188H57.1178H56.2178C56.2178 68.9388 56.5378 69.3988 56.8178 69.7088C57.0878 69.9988 57.4478 70.2988 57.6978 70.5088C58.2778 71.0188 58.5578 71.3688 58.5578 71.8488H59.4578ZM57.6378 73.5688V74.4688C58.3378 74.4688 59.0278 74.2688 59.5578 73.7888C60.0978 73.2988 60.3678 72.6188 60.3678 71.8488H59.4678H58.5678C58.5678 72.1888 58.4578 72.3588 58.3478 72.4588C58.2278 72.5688 58.0078 72.6688 57.6378 72.6688V73.5688ZM55.9078 71.7088L55.0078 71.7488C55.0378 72.4188 55.2578 73.0888 55.7078 73.6088C56.1678 74.1488 56.8378 74.4688 57.6378 74.4688V73.5688V72.6688C57.3678 72.6688 57.1978 72.5688 57.0678 72.4288C56.9278 72.2688 56.8178 72.0088 56.8078 71.6688L55.9078 71.7088ZM57.0078 71.5488L56.8778 70.6588L55.7778 70.8188L55.9078 71.7088L56.0378 72.5988L57.1378 72.4388L57.0078 71.5488ZM57.6978 72.5588V71.6588C57.7378 71.6588 57.8078 71.6688 57.8678 71.6988C57.9278 71.7288 57.9578 71.7688 57.9678 71.7788C57.9778 71.7888 57.9678 71.7788 57.9478 71.7288C57.9278 71.6788 57.9178 71.5888 57.9078 71.4788L57.0078 71.5488L56.1078 71.6188C56.1378 72.0488 56.2478 72.4788 56.4978 72.8288C56.7778 73.2188 57.1978 73.4588 57.6978 73.4588V72.5588ZM58.3778 71.9388H57.4778C57.4778 71.9388 57.4778 71.9088 57.4978 71.8588C57.5178 71.8088 57.5478 71.7588 57.5978 71.7188C57.6878 71.6388 57.7578 71.6488 57.7078 71.6488V72.5488V73.4488C58.0578 73.4488 58.4678 73.3588 58.7878 73.0688C59.1278 72.7688 59.2778 72.3488 59.2778 71.9388H58.3778ZM56.0278 68.3288H55.1278C55.1278 69.7288 56.0178 70.5388 56.6178 71.0488C56.9578 71.3288 57.1678 71.4988 57.3278 71.6788C57.4678 71.8388 57.4678 71.9088 57.4678 71.9388H58.3678H59.2678C59.2678 71.3088 58.9778 70.8288 58.6778 70.4888C58.3978 70.1688 58.0278 69.8788 57.7778 69.6688C57.2078 69.1788 56.9278 68.8488 56.9278 68.3288H56.0278ZM57.8178 66.6488V65.7488C57.0978 65.7488 56.4078 65.9388 55.8878 66.4288C55.3578 66.9188 55.1278 67.6088 55.1278 68.3288H56.0278H56.9278C56.9278 67.9788 57.0278 67.8188 57.1078 67.7488C57.1978 67.6588 57.3978 67.5588 57.8178 67.5588V66.6488ZM59.4178 68.2888L60.3078 68.1888C60.2378 67.5788 60.0178 66.9688 59.5878 66.5088C59.1378 66.0288 58.5278 65.7588 57.8178 65.7588V66.6588V67.5588C58.0478 67.5588 58.1778 67.6388 58.2678 67.7288C58.3778 67.8488 58.4878 68.0588 58.5178 68.3888L59.4178 68.2888ZM61.3778 68.3788H60.4778V71.8388H61.3778H62.2778V68.3788H61.3778ZM63.1478 66.6588V65.7588C62.3378 65.7588 61.6378 66.0188 61.1478 66.5488C60.6678 67.0688 60.4778 67.7388 60.4778 68.3788H61.3778H62.2778C62.2778 68.0788 62.3678 67.8888 62.4678 67.7788C62.5578 67.6788 62.7378 67.5588 63.1478 67.5588V66.6588ZM64.9278 68.3788H65.8278C65.8278 67.7388 65.6378 67.0688 65.1578 66.5488C64.6678 66.0188 63.9678 65.7588 63.1578 65.7588V66.6588V67.5588C63.5678 67.5588 63.7478 67.6788 63.8378 67.7788C63.9378 67.8888 64.0278 68.0788 64.0278 68.3788H64.9278ZM64.9278 71.8488H65.8278V68.3888H64.9278H64.0278V71.8488H64.9278ZM63.1478 73.5688V74.4688C63.9578 74.4688 64.6578 74.2088 65.1478 73.6788C65.6278 73.1588 65.8178 72.4888 65.8178 71.8488H64.9178H64.0178C64.0178 72.1488 63.9278 72.3388 63.8278 72.4488C63.7378 72.5488 63.5578 72.6688 63.1478 72.6688V73.5688ZM61.3778 71.8488H60.4778C60.4778 72.4888 60.6678 73.1588 61.1478 73.6788C61.6378 74.2088 62.3378 74.4688 63.1478 74.4688V73.5688V72.6688C62.7378 72.6688 62.5578 72.5488 62.4678 72.4488C62.3678 72.3388 62.2778 72.1488 62.2778 71.8488H61.3778ZM62.5378 71.8188H63.4378V68.4088H62.5378H61.6378V71.8188H62.5378ZM63.1478 72.5588V71.6588C63.1078 71.6588 63.1278 71.6488 63.1778 71.6688C63.2378 71.6888 63.3178 71.7388 63.3778 71.8188C63.4078 71.8488 63.4178 71.8788 63.4278 71.8988C63.4278 71.9088 63.4378 71.9188 63.4378 71.9188C63.4378 71.9088 63.4378 71.9088 63.4378 71.8988C63.4378 71.8788 63.4378 71.8488 63.4378 71.8088H62.5378H61.6378C61.6378 72.1088 61.6778 72.5488 61.9578 72.9188C62.2878 73.3488 62.7678 73.4488 63.1578 73.4488V72.5588H63.1478ZM63.7678 71.8188H62.8678C62.8678 71.8588 62.8678 71.8888 62.8678 71.9188C62.8678 71.9288 62.8678 71.9388 62.8678 71.9388C62.8678 71.9288 62.8778 71.9288 62.8778 71.9088C62.8878 71.8888 62.9078 71.8588 62.9278 71.8188C62.9878 71.7388 63.0678 71.6888 63.1278 71.6688C63.1778 71.6488 63.1978 71.6588 63.1478 71.6588V72.5588V73.4588C63.5278 73.4588 64.0078 73.3588 64.3378 72.9288C64.6278 72.5588 64.6678 72.1088 64.6678 71.8088H63.7678V71.8188ZM63.7678 68.4088H62.8678V71.8188H63.7678H64.6678V68.4088H63.7678ZM63.1478 67.6588V68.5588C63.1978 68.5588 63.1778 68.5688 63.1278 68.5488C63.0678 68.5288 62.9878 68.4788 62.9278 68.3988C62.8978 68.3688 62.8878 68.3288 62.8778 68.3088C62.8778 68.2988 62.8678 68.2888 62.8678 68.2788C62.8678 68.2888 62.8678 68.2888 62.8678 68.2988C62.8678 68.3188 62.8678 68.3488 62.8678 68.3988H63.7678H64.6678C64.6678 68.0988 64.6378 67.6588 64.3378 67.2788C63.9978 66.8488 63.5178 66.7488 63.1478 66.7488V67.6588ZM62.5378 68.4088H63.4378C63.4378 68.3688 63.4378 68.3388 63.4378 68.3088C63.4378 68.2988 63.4378 68.2888 63.4378 68.2888C63.4378 68.2988 63.4278 68.2988 63.4278 68.3188C63.4178 68.3388 63.3978 68.3688 63.3778 68.4088C63.3178 68.4888 63.2378 68.5388 63.1778 68.5588C63.1278 68.5788 63.1078 68.5688 63.1578 68.5688V67.6688V66.7688C62.7778 66.7688 62.2978 66.8688 61.9678 67.2988C61.6778 67.6688 61.6378 68.1188 61.6378 68.4188H62.5378V68.4088ZM67.0678 73.4788V74.3788H68.1178V73.4788V72.5788H67.0678V73.4788ZM67.0678 66.7488H66.1678V73.4888H67.0678H67.9678V66.7488H67.0678ZM68.1378 66.7488V65.8488H67.0678V66.7488V67.6488H68.1378V66.7488ZM69.5378 70.5988L70.3878 70.2888L68.9778 66.4388L68.1278 66.7488L67.2778 67.0588L68.6878 70.9088L69.5378 70.5988ZM69.5678 70.5988V69.6988H69.5478V70.5988V71.4988H69.5678V70.5988ZM69.5678 66.7488H68.6678V70.5988H69.5678H70.4678V66.7488H69.5678ZM70.6078 66.7488V65.8488H69.5578V66.7488V67.6488H70.6078V66.7488ZM70.6078 73.4788H71.5078V66.7388H70.6078H69.7078V73.4788H70.6078ZM69.6078 73.4788V74.3788H70.6078V73.4788V72.5788H69.6078V73.4788ZM68.1378 69.2788L67.2878 69.5788L68.7578 73.7888L69.6078 73.4888L70.4578 73.1888L68.9878 68.9788L68.1378 69.2788ZM68.1178 69.2788V70.1788H68.1378V69.2788V68.3788H68.1178V69.2788ZM68.1178 73.4788H69.0178V69.2688H68.1178H67.2178V73.4788H68.1178ZM74.3578 70.0688H73.4578V70.9788H74.3578H75.2578V70.0688H74.3578ZM76.2378 70.0688V69.1688H74.3478V70.0688V70.9688H76.2378V70.0688ZM76.2378 73.4788H77.1378V70.0688H76.2378H75.3378V73.4788H76.2378ZM75.6878 73.4788V74.3788H76.2378V73.4788V72.5788H75.6878V73.4788ZM75.4778 72.9788L74.6478 73.3288L74.8578 73.8388L75.6878 73.4888L76.5178 73.1388L76.3078 72.6288L75.4778 72.9788ZM74.3078 73.5688V74.4688C74.6878 74.4688 75.0478 74.3988 75.3878 74.2188C75.7178 74.0388 75.9578 73.7888 76.1578 73.5488L75.4678 72.9688L74.7778 72.3888C74.6378 72.5588 74.5678 72.6088 74.5378 72.6188C74.5178 72.6288 74.4678 72.6588 74.3078 72.6588V73.5688ZM72.7678 71.8488H71.8678C71.8678 72.5588 72.0778 73.2288 72.5378 73.7188C72.9978 74.2188 73.6378 74.4688 74.3178 74.4688V73.5688V72.6688C74.0778 72.6688 73.9478 72.5888 73.8678 72.4988C73.7778 72.3988 73.6778 72.2088 73.6778 71.8388H72.7678V71.8488ZM72.7678 68.3788H71.8678V71.8388H72.7678H73.6678V68.3788H72.7678ZM74.4578 66.6588V65.7588C73.6678 65.7588 72.9878 66.0288 72.5078 66.5588C72.0478 67.0788 71.8578 67.7388 71.8578 68.3788H72.7578H73.6578C73.6578 68.0688 73.7478 67.8688 73.8478 67.7688C73.9278 67.6788 74.0978 67.5588 74.4578 67.5588V66.6588ZM76.1878 68.5088H77.0878C77.0878 67.8388 76.8978 67.1588 76.4378 66.6188C75.9678 66.0688 75.2678 65.7588 74.4578 65.7588V66.6588V67.5588C74.7978 67.5588 74.9678 67.6688 75.0678 67.7888C75.1878 67.9288 75.2878 68.1688 75.2878 68.5088H76.1878ZM76.1878 68.9388H77.0878V68.5088H76.1878H75.2878V68.9388H76.1878ZM75.0878 68.9388V69.8388H76.1878V68.9388V68.0388H75.0878V68.9388ZM74.4278 67.6688V68.5688C74.4678 68.5688 74.4178 68.5788 74.3378 68.5388C74.2378 68.4888 74.1778 68.4188 74.1478 68.3688C74.1278 68.3388 74.1478 68.3488 74.1578 68.4588C74.1778 68.5588 74.1878 68.7188 74.1878 68.9488H75.0878H75.9878C75.9878 68.4388 75.9478 67.9088 75.7078 67.4888C75.5678 67.2488 75.3678 67.0488 75.1078 66.9188C74.8578 66.7988 74.6178 66.7788 74.4178 66.7788V67.6688H74.4278ZM73.9178 68.4088H74.8178C74.8178 68.2188 74.8578 68.2888 74.7578 68.4088C74.7078 68.4688 74.6378 68.5188 74.5578 68.5488C74.4878 68.5788 74.4378 68.5788 74.4278 68.5788V67.6788V66.7788C74.1078 66.7788 73.6878 66.8788 73.3778 67.2488C73.0878 67.5888 73.0178 68.0188 73.0178 68.4088H73.9178ZM73.9178 71.8688H74.8178V68.4088H73.9178H73.0178V71.8688H73.9178ZM74.4578 72.5788V71.6788C74.4578 71.6788 74.5078 71.6788 74.5878 71.7188C74.6678 71.7588 74.7378 71.8188 74.7778 71.8788C74.8178 71.9388 74.8278 71.9788 74.8278 71.9688C74.8278 71.9688 74.8178 71.9388 74.8178 71.8688H73.9178H73.0178C73.0178 72.1488 73.0578 72.5488 73.2978 72.8988C73.5878 73.3088 74.0278 73.4788 74.4578 73.4788V72.5788ZM75.0878 71.6388H74.1878C74.1878 71.7688 74.1778 71.8488 74.1678 71.8988C74.1578 71.9388 74.1578 71.9188 74.1878 71.8588C74.2078 71.8288 74.2378 71.7988 74.2678 71.7688C74.3078 71.7388 74.3378 71.7188 74.3778 71.6988C74.4478 71.6688 74.4778 71.6788 74.4478 71.6788V72.5788V73.4788C74.8678 73.4788 75.3678 73.3388 75.6878 72.8588C75.9478 72.4688 75.9778 72.0088 75.9778 71.6388H75.0878ZM75.0878 70.9888H74.1878V71.6488H75.0878H75.9878V70.9888H75.0878ZM74.3578 70.9888V71.8888H75.0978V70.9888V70.0888H74.3578V70.9888ZM17.2878 66.7488V65.8488H16.5378L16.4078 66.5888L17.2878 66.7488ZM18.4278 66.7488L19.3078 66.9288L19.5378 65.8488H18.4278V66.7488ZM17.0278 73.4788V74.3788H17.7578L17.9078 73.6588L17.0278 73.4788ZM15.8678 73.4788L14.9878 73.6588L15.1378 74.3788H15.8678V73.4788ZM14.4578 66.7488V65.8488H13.3478L13.5778 66.9288L14.4578 66.7488ZM15.6078 66.7488L16.4978 66.5888L16.3678 65.8488H15.6178V66.7488H15.6078ZM16.4478 71.4188L15.5578 71.5788L15.6878 72.3188H16.4378V71.4188H16.4478ZM25.8678 73.4788H24.9678V74.3788H25.8678V73.4788ZM25.8678 66.7488V65.8488H24.9678V66.7488H25.8678ZM27.0178 66.7488H27.9178V65.8488H27.0178V66.7488ZM27.0178 73.4788V74.3788H27.9178V73.4788H27.0178ZM34.8778 68.9888H35.7778V68.0888H34.8778V68.9888ZM33.7278 68.9888H32.8278V69.8888H33.7278V68.9888ZM33.7278 71.0588V70.1588H32.8278V71.0588H33.7278ZM34.8778 71.0588H35.7778V70.1588H34.8778V71.0588ZM37.0878 66.7488V65.8488H36.1878V66.7488H37.0878ZM38.2378 66.7488H39.1378V65.8488H38.2378V66.7488ZM39.4778 66.7488V65.8488H38.5778V66.7488H39.4778ZM40.6278 66.7488H41.5278V65.8488H40.6278V66.7488ZM51.9378 68.9888H52.8378V68.0888H51.9378V68.9888ZM50.7878 68.9888H49.8878V69.8888H50.7878V68.9888ZM50.7878 71.0588V70.1588H49.8878V71.0588H50.7878ZM51.9378 71.0588H52.8378V70.1588H51.9378V71.0588ZM59.4078 68.2788L60.0478 67.6488L59.7478 67.3388L59.3178 67.3888L59.4078 68.2788ZM58.3078 68.3888L57.4078 68.4688L57.4978 69.3788L58.4078 69.2788L58.3078 68.3888ZM55.9078 71.7088L55.7778 70.8188L54.9778 70.9388L55.0078 71.7488L55.9078 71.7088ZM57.0078 71.5488L57.9078 71.4788L57.8278 70.5188L56.8778 70.6588L57.0078 71.5488ZM59.4178 68.2888L58.7778 68.9188L60.5978 70.7588L60.3078 68.1888L59.4178 68.2888ZM67.0678 73.4788H66.1678V74.3788H67.0678V73.4788ZM67.0678 66.7488V65.8488H66.1678V66.7488H67.0678ZM68.1378 66.7488L68.9878 66.4388L68.7678 65.8488H68.1378V66.7488ZM69.5378 70.5988L68.6878 70.9088L68.9078 71.4988H69.5378V70.5988ZM69.5678 70.5988V71.4988H70.4678V70.5988H69.5678ZM69.5678 66.7488V65.8488H68.6678V66.7488H69.5678ZM70.6078 66.7488H71.5078V65.8488H70.6078V66.7488ZM70.6078 73.4788V74.3788H71.5078V73.4788H70.6078ZM69.6078 73.4788L68.7578 73.7788L68.9678 74.3788H69.6078V73.4788ZM68.1378 69.2788L68.9878 68.9788L68.7778 68.3788H68.1378V69.2788ZM68.1178 69.2788V68.3788H67.2178V69.2788H68.1178ZM68.1178 73.4788V74.3788H69.0178V73.4788H68.1178ZM74.3578 70.0688V69.1688H73.4578V70.0688H74.3578ZM76.2378 70.0688H77.1378V69.1688H76.2378V70.0688ZM76.2378 73.4788V74.3788H77.1378V73.4788H76.2378ZM75.6878 73.4788L74.8578 73.8288L75.0878 74.3788H75.6878V73.4788ZM75.4778 72.9788L76.3078 72.6288L75.7378 71.2688L74.7878 72.3988L75.4778 72.9788ZM76.1878 68.9388V69.8388H77.0878V68.9388H76.1878ZM75.0878 68.9388H74.1878V69.8388H75.0878V68.9388ZM75.0878 70.9888H75.9878V70.0888H75.0878V70.9888ZM74.3578 70.9888H73.4578V71.8888H74.3578V70.9888Z" fill="white"/>
<path d="M21.6978 66.2386L22.4378 65.0786H23.6678L22.4978 66.2386H21.6978Z" fill="#75C044"/>
<path d="M22.4978 66.2387V65.3387H21.6978V66.2387V67.1387H22.4978V66.2387ZM23.6678 65.0787L23.0378 64.4387L21.8678 65.5987L22.4978 66.2387L23.1278 66.8787L24.2978 65.7187L23.6678 65.0787ZM22.4378 65.0787V65.9787H23.6678V65.0787V64.1787H22.4378V65.0787ZM21.6978 66.2387L22.4578 66.7287L23.2078 65.5687L22.4478 65.0787L21.6878 64.5887L20.9378 65.7487L21.6978 66.2387ZM22.4978 66.2387V67.1387H22.8678L23.1278 66.8787L22.4978 66.2387ZM23.6678 65.0787L24.2978 65.7187L25.8478 64.1787H23.6578V65.0787H23.6678ZM22.4378 65.0787V64.1787H21.9478L21.6778 64.5887L22.4378 65.0787ZM21.6978 66.2387L20.9378 65.7487L20.0478 67.1387H21.6978V66.2387Z" fill="white"/>
<path d="M23.3078 65.9988H24.1378V66.6788C24.1378 66.9488 24.0678 67.1488 23.9278 67.2988C23.7878 67.4488 23.5778 67.5188 23.2978 67.5188V67.1688C23.4078 67.1688 23.4878 67.1188 23.5678 67.0488C23.6378 66.9888 23.6778 66.9088 23.6778 66.8088H23.2978V65.9888L23.3078 65.9988Z" fill="#75C044"/>
<path d="M23.2978 65.9788L22.6578 66.6088L22.6678 66.6188L23.3078 65.9988L23.9478 65.3688L23.9378 65.3588L23.2978 65.9788ZM23.2978 66.7988H24.1978V65.9788H23.2978H22.3978V66.7988H23.2978ZM23.6678 66.7988V65.8988H23.2978V66.7988V67.6988H23.6678V66.7988ZM23.5578 67.0388L24.1478 67.7188C24.4278 67.4788 24.5678 67.1488 24.5678 66.7988H23.6678H22.7678C22.7678 66.7488 22.7778 66.6588 22.8178 66.5588C22.8578 66.4588 22.9178 66.3888 22.9678 66.3488L23.5578 67.0388ZM23.2978 67.1588V68.0588C23.7278 68.0588 24.0178 67.8388 24.1578 67.7188L23.5678 67.0388L22.9778 66.3588C22.9578 66.3788 23.0778 66.2588 23.2978 66.2588V67.1588ZM23.2978 67.5088H24.1978V67.1588H23.2978H22.3978V67.5088H23.2978ZM23.9278 67.2988L23.2678 66.6888C23.2878 66.6688 23.3178 66.6488 23.3378 66.6288C23.3578 66.6188 23.3778 66.6088 23.3878 66.6088C23.3978 66.6088 23.3878 66.6088 23.3778 66.6088C23.3678 66.6088 23.3378 66.6088 23.3078 66.6088V67.5088V68.4088C23.6978 68.4088 24.2178 68.3188 24.5978 67.8988L23.9278 67.2988ZM24.1378 66.6688H23.2378C23.2378 66.7188 23.2278 66.7388 23.2378 66.7288C23.2378 66.7288 23.2378 66.7188 23.2478 66.7088C23.2578 66.6988 23.2578 66.6888 23.2678 66.6788L23.9278 67.2888L24.5878 67.8988C24.9078 67.5488 25.0378 67.1088 25.0378 66.6688H24.1378ZM24.1378 65.9988H23.2378V66.6788H24.1378H25.0378V65.9988H24.1378ZM23.3078 65.9988V66.8988H24.1378V65.9988V65.0988H23.3078V65.9988ZM23.2978 65.9788L23.9378 65.3488L22.3978 63.7988V65.9888H23.2978V65.9788ZM23.2978 66.7988H22.3978V67.6988H23.2978V66.7988ZM23.6678 66.7988H24.5678V65.8988H23.6678V66.7988ZM23.2978 67.1588V66.2588H22.3978V67.1588H23.2978ZM23.2978 67.5088H22.3978V68.4088H23.2978V67.5088ZM24.1378 65.9988H25.0378V65.0988H24.1378V65.9988ZM23.3078 65.9988L22.6678 66.6288L22.9278 66.8988H23.2978V65.9988H23.3078Z" fill="white"/>
<path d="M44.1278 65.2188H45.1078L46.0278 66.3787H45.1278L44.6178 65.7288L44.1078 66.3787H43.2278L44.1278 65.2188Z" fill="#75C044"/>
<path d="M43.2278 66.3788L43.9378 66.9288L44.8478 65.7688L44.1378 65.2188L43.4278 64.6688L42.5178 65.8288L43.2278 66.3788ZM44.1078 66.3788V65.4788H43.2178V66.3788V67.2788H44.1078V66.3788ZM44.6178 65.7288L43.9078 65.1788L43.3978 65.8388L44.1078 66.3888L44.8178 66.9388L45.3278 66.2788L44.6178 65.7288ZM45.1278 66.3788L45.8478 65.8288L45.3478 65.1688L44.6278 65.7188L43.9078 66.2688L44.4078 66.9288L45.1278 66.3788ZM46.0278 66.3788V65.4788H45.1178V66.3788V67.2788H46.0278V66.3788ZM45.1078 65.2188L44.3978 65.7788L45.3178 66.9388L46.0278 66.3788L46.7378 65.8188L45.8178 64.6588L45.1078 65.2188ZM44.1278 65.2188V66.1188H45.1078V65.2188V64.3188H44.1278V65.2188ZM43.2278 66.3788L42.5178 65.8288L41.3878 67.2788H43.2278V66.3788ZM44.1078 66.3788V67.2788H44.5478L44.8178 66.9288L44.1078 66.3788ZM44.6178 65.7288L45.3378 65.1788L44.6278 64.2488L43.9078 65.1688L44.6178 65.7288ZM45.1278 66.3788L44.4078 66.9288L44.6778 67.2788H45.1278V66.3788ZM46.0278 66.3788V67.2788H47.8878L46.7378 65.8188L46.0278 66.3788ZM45.1078 65.2188L45.8178 64.6588L45.5478 64.3188H45.1078V65.2188ZM44.1278 65.2188V64.3188H43.6878L43.4178 64.6688L44.1278 65.2188Z" fill="white"/>
<path d="M62.6778 65.2188H63.6678L64.5778 66.3787H63.6778L63.1678 65.7288L62.6578 66.3787H61.7778L62.6778 65.2188Z" fill="#75C044"/>
<path d="M61.7778 66.3788L62.4878 66.9288L63.3978 65.7688L62.6878 65.2188L61.9778 64.6688L61.0678 65.8288L61.7778 66.3788ZM62.6578 66.3788V65.4788H61.7678V66.3788V67.2788H62.6578V66.3788ZM63.1678 65.7288L62.4578 65.1788L61.9478 65.8388L62.6578 66.3888L63.3678 66.9388L63.8778 66.2788L63.1678 65.7288ZM63.6778 66.3788L64.3978 65.8288L63.8978 65.1688L63.1778 65.7188L62.4578 66.2688L62.9578 66.9288L63.6778 66.3788ZM64.5778 66.3788V65.4788H63.6678V66.3788V67.2788H64.5778V66.3788ZM63.6678 65.2188L62.9578 65.7788L63.8778 66.9388L64.5878 66.3788L65.2978 65.8188L64.3778 64.6588L63.6678 65.2188ZM62.6778 65.2188V66.1188H63.6578V65.2188V64.3188H62.6778V65.2188ZM61.7778 66.3788L61.0678 65.8288L59.9378 67.2788H61.7778V66.3788ZM62.6578 66.3788V67.2788H63.0978L63.3678 66.9288L62.6578 66.3788ZM63.1678 65.7288L63.8878 65.1788L63.1778 64.2488L62.4578 65.1688L63.1678 65.7288ZM63.6778 66.3788L62.9578 66.9288L63.2278 67.2788H63.6778V66.3788ZM64.5778 66.3788V67.2788H66.4378L65.2878 65.8188L64.5778 66.3788ZM63.6678 65.2188L64.3778 64.6588L64.1078 64.3188H63.6678V65.2188ZM62.6778 65.2188V64.3188H62.2378L61.9678 64.6688L62.6778 65.2188Z" fill="white"/>
<path d="M64.2378 66.3487L64.9878 65.1887H66.2078L65.0378 66.3487H64.2378Z" fill="#75C044"/>
<path d="M65.0378 66.3488V65.4488H64.2378V66.3488V67.2488H65.0378V66.3488ZM66.2078 65.1888L65.5678 64.5488L64.4078 65.7088L65.0478 66.3488L65.6878 66.9888L66.8478 65.8288L66.2078 65.1888ZM64.9878 65.1888V66.0888H66.2078V65.1888V64.2888H64.9878V65.1888ZM64.2378 66.3488L64.9978 66.8388L65.7478 65.6788L64.9878 65.1888L64.2278 64.6988L63.4778 65.8588L64.2378 66.3488ZM65.0378 66.3488V67.2488H65.4078L65.6678 66.9888L65.0378 66.3488ZM66.2078 65.1888L66.8478 65.8288L68.3878 64.2888H66.2178V65.1888H66.2078ZM64.9878 65.1888V64.2888H64.4978L64.2278 64.6988L64.9878 65.1888ZM64.2378 66.3488L63.4778 65.8588L62.5878 67.2488H64.2378V66.3488Z" fill="white"/>
<path d="M45.0478 74.1587H44.1578V75.0287H45.0478V74.1587Z" fill="#75C044"/>
<path d="M44.1578 75.0288H45.0578V74.1588H44.1578H43.2578V75.0288H44.1578ZM45.0478 75.0288V74.1288H44.1578V75.0288V75.9288H45.0478V75.0288ZM45.0478 74.1588H44.1478V75.0288H45.0478H45.9478V74.1588H45.0478ZM44.1578 74.1588V75.0588H45.0478V74.1588V73.2588H44.1578V74.1588ZM44.1578 75.0288H43.2578V75.9288H44.1578V75.0288ZM45.0478 75.0288V75.9288H45.9478V75.0288H45.0478ZM45.0478 74.1588H45.9478V73.2588H45.0478V74.1588ZM44.1578 74.1588V73.2588H43.2578V74.1588H44.1578Z" fill="white"/>
<path d="M16.8378 54.2788H17.8378L18.7478 55.4388L17.8478 55.4288L17.3378 54.7888L16.8278 55.4288L15.9478 55.4388L16.8378 54.2788Z" fill="#D2AB56"/>
<path d="M15.9478 55.4386L16.6578 55.9886L17.5578 54.8286L16.8478 54.2786L16.1378 53.7286L15.2378 54.8886L15.9478 55.4386ZM16.8278 55.4286L16.8178 54.5286L15.9278 54.5386L15.9378 55.4386L15.9478 56.3386L16.8378 56.3286L16.8278 55.4286ZM17.3378 54.7886L16.6278 54.2286L16.1178 54.8786L16.8278 55.4386L17.5378 55.9986L18.0478 55.3486L17.3378 54.7886ZM17.8478 55.4286L18.5578 54.8786L18.0578 54.2286L17.3478 54.7786L16.6378 55.3286L17.1378 55.9786L17.8478 55.4286ZM18.7478 55.4386L18.7578 54.5386L17.8478 54.5286L17.8378 55.4286L17.8278 56.3286L18.7378 56.3386L18.7478 55.4386ZM17.8378 54.2786L17.1278 54.8386L18.0478 55.9986L18.7578 55.4386L19.4678 54.8786L18.5478 53.7186L17.8378 54.2786ZM16.8378 54.2786V55.1786H17.8278V54.2786V53.3786H16.8378V54.2786ZM15.9478 55.4386L15.2378 54.8886L14.0978 56.3586L15.9578 56.3386L15.9478 55.4386ZM16.8278 55.4286L16.8378 56.3286L17.2678 56.3186L17.5378 55.9786L16.8278 55.4286ZM17.3378 54.7886L18.0478 54.2386L17.3478 53.3286L16.6378 54.2286L17.3378 54.7886ZM17.8478 55.4286L17.1378 55.9786L17.4078 56.3186L17.8378 56.3286L17.8478 55.4286ZM18.7478 55.4386L18.7378 56.3386L20.6278 56.3586L19.4578 54.8786L18.7478 55.4386ZM17.8378 54.2786L18.5478 53.7186L18.2778 53.3786H17.8378V54.2786ZM16.8378 54.2786V53.3786H16.3978L16.1278 53.7286L16.8378 54.2786Z" fill="white"/>
<path d="M18.4078 55.3988L19.1578 54.2488H20.3778L19.1978 55.3988H18.4078Z" fill="#D2AB56"/>
<path d="M19.1978 55.3986V54.4986H18.4078V55.3986V56.2986H19.1978V55.3986ZM20.3778 54.2486L19.7478 53.6086L18.5778 54.7586L19.2078 55.3986L19.8378 56.0386L21.0078 54.8886L20.3778 54.2486ZM19.1578 54.2486V55.1486H20.3778V54.2486V53.3486H19.1578V54.2486ZM18.4078 55.3986L19.1678 55.8886L19.9178 54.7386L19.1578 54.2486L18.3978 53.7586L17.6478 54.9086L18.4078 55.3986ZM19.1978 55.3986V56.2986H19.5678L19.8278 56.0386L19.1978 55.3986ZM20.3778 54.2486L21.0078 54.8886L22.5778 53.3486H20.3778V54.2486ZM19.1578 54.2486V53.3486H18.6678L18.3978 53.7586L19.1578 54.2486ZM18.4078 55.3986L17.6478 54.9086L16.7478 56.2986H18.4078V55.3986Z" fill="white"/>
<path d="M34.6778 54.2788H35.6578L36.5778 55.4388L35.6778 55.4288L35.1678 54.7888L34.6578 55.4288L33.7878 55.4388L34.6778 54.2788Z" fill="#D2AB56"/>
<path d="M33.7878 55.4389L34.4978 55.9889L35.3978 54.8289L34.6878 54.2789L33.9778 53.7289L33.0778 54.8889L33.7878 55.4389ZM34.6578 55.4289L34.6478 54.5289L33.7778 54.5389L33.7878 55.4389L33.7978 56.3389L34.6678 56.3289L34.6578 55.4289ZM35.1678 54.7889L34.4578 54.2289L33.9478 54.8789L34.6578 55.4389L35.3678 55.9989L35.8778 55.3489L35.1678 54.7889ZM35.6778 55.4289L36.3878 54.8689L35.8778 54.2189L35.1678 54.7789L34.4578 55.3389L34.9678 55.9889L35.6778 55.4289ZM36.5778 55.4389L36.5878 54.5389L35.6878 54.5289L35.6778 55.4289L35.6678 56.3289L36.5678 56.3389L36.5778 55.4389ZM35.6578 54.2789L34.9478 54.8389L35.8678 55.9989L36.5778 55.4389L37.2878 54.8789L36.3678 53.7189L35.6578 54.2789ZM34.6778 54.2789V55.1789H35.6578V54.2789V53.3789H34.6778V54.2789ZM33.7878 55.4389L33.0778 54.8889L31.9378 56.3589L33.7978 56.3389L33.7878 55.4389ZM34.6578 55.4289L34.6678 56.3289L35.0978 56.3189L35.3678 55.9789L34.6578 55.4289ZM35.1678 54.7889L35.8778 54.2289L35.1678 53.3389L34.4578 54.2289L35.1678 54.7889ZM35.6778 55.4289L34.9678 55.9889L35.2378 56.3289L35.6678 56.3389L35.6778 55.4289ZM36.5778 55.4389L36.5678 56.3389L38.4578 56.3589L37.2878 54.8789L36.5778 55.4389ZM35.6578 54.2789L36.3678 53.7189L36.0978 53.3789H35.6578V54.2789ZM34.6778 54.2789V53.3789H34.2378L33.9678 53.7289L34.6778 54.2789Z" fill="white"/>
<path d="M36.1678 55.3988L36.9078 54.2488H38.1378L36.9578 55.3988H36.1678Z" fill="#D2AB56"/>
<path d="M36.9578 55.3986V54.4986H36.1678V55.3986V56.2986H36.9578V55.3986ZM38.1378 54.2486L37.5078 53.6086L36.3378 54.7586L36.9678 55.3986L37.5978 56.0386L38.7678 54.8886L38.1378 54.2486ZM36.9078 54.2486V55.1486H38.1378V54.2486V53.3486H36.9078V54.2486ZM36.1678 55.3986L36.9278 55.8786L37.6678 54.7286L36.9078 54.2486L36.1478 53.7686L35.4078 54.9186L36.1678 55.3986ZM36.9578 55.3986V56.2986H37.3278L37.5878 56.0386L36.9578 55.3986ZM38.1378 54.2486L38.7678 54.8886L40.3378 53.3486H38.1378V54.2486ZM36.9078 54.2486V53.3486H36.4178L36.1478 53.7686L36.9078 54.2486ZM36.1678 55.3986L35.4078 54.9186L34.5178 56.2986H36.1578V55.3986H36.1678Z" fill="white"/>
<path d="M72.1578 55.3988L72.8978 54.2488H74.1178L72.9578 55.3988H72.1578Z" fill="#D2AB56"/>
<path d="M72.9578 55.3986V54.4986H72.1578V55.3986V56.2986H72.9578V55.3986ZM74.1178 54.2486L73.4878 53.6086L72.3278 54.7586L72.9578 55.3986L73.5878 56.0386L74.7478 54.8886L74.1178 54.2486ZM72.8978 54.2486V55.1486H74.1178V54.2486V53.3486H72.8978V54.2486ZM72.1578 55.3986L72.9178 55.8886L73.6678 54.7386L72.9078 54.2486L72.1478 53.7586L71.3978 54.9086L72.1578 55.3986ZM72.9578 55.3986V56.2986H73.3278L73.5878 56.0386L72.9578 55.3986ZM74.1178 54.2486L74.7478 54.8886L76.3078 53.3486H74.1178V54.2486ZM72.8978 54.2486V53.3486H72.4078L72.1378 53.7586L72.8978 54.2486ZM72.1578 55.3986L71.3978 54.9086L70.4978 56.2986H72.1578V55.3986Z" fill="white"/>
<path d="M74.2478 55.0288H75.0778V55.7088C75.0778 55.9788 75.0078 56.1888 74.8678 56.3288C74.7278 56.4788 74.5178 56.5588 74.2378 56.5588V56.1988C74.3478 56.1988 74.4278 56.1488 74.5078 56.0788C74.5778 56.0188 74.6178 55.9388 74.6178 55.8388H74.2478V55.0188V55.0288Z" fill="#D2AB56"/>
<path d="M74.2378 55.0287V55.9287H74.2478V55.0287V54.1287H74.2378V55.0287ZM74.2378 55.8487H75.1378V55.0287H74.2378H73.3378V55.8487H74.2378ZM74.6078 55.8487V54.9487H74.2378V55.8487V56.7487H74.6078V55.8487ZM74.4978 56.0887L75.0878 56.7687C75.3678 56.5287 75.5078 56.1987 75.5078 55.8487H74.6078H73.7078C73.7078 55.7987 73.7178 55.7087 73.7578 55.6087C73.7978 55.5087 73.8578 55.4387 73.9078 55.3987L74.4978 56.0887ZM74.2378 56.1987V57.0987C74.6678 57.0987 74.9578 56.8787 75.0978 56.7587L74.5078 56.0787L73.9178 55.3987C73.8978 55.4187 74.0178 55.2987 74.2378 55.2987V56.1987ZM74.2378 56.5587H75.1378V56.1987H74.2378H73.3378V56.5487H74.2378V56.5587ZM74.8678 56.3287L74.2078 55.7187C74.2278 55.6987 74.2478 55.6787 74.2678 55.6687C74.2878 55.6587 74.2978 55.6487 74.3078 55.6487C74.3178 55.6487 74.3078 55.6487 74.2478 55.6487V56.5487V57.4487C74.6778 57.4487 75.1778 57.3287 75.5378 56.9287L74.8678 56.3287ZM75.0778 55.7087H74.1778C74.1778 55.7587 74.1678 55.7787 74.1678 55.7787C74.1678 55.7687 74.1878 55.7387 74.2178 55.6987L74.8578 56.3287L75.4978 56.9587C75.8578 56.5987 75.9678 56.1287 75.9678 55.6987H75.0778V55.7087ZM75.0778 55.0287H74.1778V55.7087H75.0778H75.9778V55.0287H75.0778ZM74.2478 55.0287V55.9287H75.0778V55.0287V54.1287H74.2478V55.0287ZM74.2378 55.0287V54.1287H73.3378V55.0287H74.2378ZM74.2378 55.8487H73.3378V56.7487H74.2378V55.8487ZM74.6078 55.8487H75.5078V54.9487H74.6078V55.8487ZM74.2378 56.1987V55.2987H73.3378V56.1987H74.2378ZM74.2378 56.5587H73.3378V57.4587H74.2378V56.5587ZM74.8678 56.3287L74.2278 55.6987L74.2178 55.7087L74.2078 55.7187L74.8678 56.3287ZM75.0778 55.0287H75.9778V54.1287H75.0778V55.0287Z" fill="white"/>
<path d="M11.6978 62.5788V60.1988L12.1078 59.4588H12.1278L13.0678 62.5888H14.2378L12.8278 58.3588L14.0778 55.8488H12.9278L11.7178 58.3388H11.6978V55.8488H10.5478V62.5888H11.6978V62.5788ZM18.9978 62.5788V61.5688H16.9278V59.5888H18.4178V58.5788H16.9278V56.8488H18.8678V55.8388H15.7778V62.5788H18.9978ZM21.6078 62.5788H22.7578V56.8588H23.8778V55.8488H20.4878V56.8588H21.6078V62.5788ZM28.7078 62.5788V58.3688H28.7278L30.1978 62.5788H31.1978V55.8388H30.1478V59.6888H30.1278L28.7178 55.8388H27.6478V62.5788H28.7078ZM33.3478 60.9488C33.3478 61.8988 33.8978 62.6688 35.1178 62.6688C36.3378 62.6688 36.8878 61.8988 36.8878 60.9488V57.4888C36.8878 56.5388 36.3378 55.7688 35.1178 55.7688C33.8978 55.7688 33.3478 56.5388 33.3478 57.4888V60.9488ZM34.4978 57.5088C34.4978 56.9988 34.6478 56.7688 35.1078 56.7688C35.5678 56.7688 35.7278 57.0188 35.7278 57.5088V60.9188C35.7278 61.4288 35.5778 61.6588 35.1078 61.6588C34.6378 61.6588 34.4978 61.4088 34.4978 60.9188V57.5088ZM40.2478 62.5788V55.8388H39.0978V62.5788H40.2478ZM45.2978 62.5788H46.4478V56.8588H47.5678V55.8488H44.1778V56.8588H45.2978V62.5788ZM50.4378 56.8088H50.8478C51.4778 56.8088 51.6978 57.0488 51.6978 57.8388C51.6978 58.6288 51.4678 58.8688 50.8478 58.8688H50.4378V56.8088ZM50.4378 59.8288C50.6378 59.8288 50.8878 59.8288 51.0378 59.7988L51.8578 62.5888H53.0278L52.0478 59.5488C52.4378 59.3788 52.8578 58.9388 52.8578 57.8488C52.8578 56.4188 52.1978 55.8588 50.9078 55.8588H49.2878V62.5988H50.4378V59.8288ZM56.0078 62.5988V55.8588H54.8578V62.5988H56.0078ZM61.0478 62.5988H62.1978V56.8788H63.3178V55.8688H59.9278V56.8788H61.0478V62.5988ZM66.1878 62.5988V59.6188H67.4178V62.5988H68.5678V55.8588H67.4178V58.5988H66.1878V55.8588H65.0378V62.5988H66.1878ZM70.7278 60.8988C70.7278 62.0588 71.3978 62.6888 72.4978 62.6888C73.5978 62.6888 74.2678 62.0588 74.2678 60.8988V55.8588H73.1178V60.9388C73.1178 61.4288 72.9278 61.6788 72.4978 61.6788C72.0678 61.6788 71.8778 61.4288 71.8778 60.9388V55.8588H70.7278V60.8988ZM79.8978 58.1088V57.6188C79.8978 56.6088 79.3478 55.7688 78.1778 55.7688C77.0078 55.7688 76.4078 56.5388 76.4078 57.4888V60.9488C76.4078 61.8988 76.9578 62.6688 78.1778 62.6688C79.3978 62.6688 79.8978 61.8988 79.8978 60.9488V60.1788H78.7478V60.9888C78.7478 61.4288 78.6078 61.6688 78.1978 61.6688C77.7278 61.6688 77.5778 61.4188 77.5778 60.9288V57.5188C77.5778 57.0088 77.7278 56.7788 78.1978 56.7788C78.4978 56.7788 78.7478 57.0288 78.7478 57.5888V58.1188H79.8978V58.1088Z" fill="#D2AB56"/>
<path d="M10.5478 62.5786V63.4786H11.6978V62.5786V61.6786H10.5478V62.5786ZM10.5478 55.8486H9.64778V62.5886H10.5478H11.4478V55.8486H10.5478ZM11.6978 55.8486V54.9486H10.5478V55.8486V56.7486H11.6978V55.8486ZM11.6978 58.3386H12.5978V55.8486H11.6978H10.7978V58.3386H11.6978ZM11.7178 58.3386V57.4386H11.6978V58.3386V59.2386H11.7178V58.3386ZM12.9278 55.8486L12.1178 55.4586L10.9078 57.9486L11.7178 58.3386L12.5278 58.7286L13.7378 56.2386L12.9278 55.8486ZM14.0778 55.8486V54.9486H12.9278V55.8486V56.7486H14.0778V55.8486ZM12.8278 58.3586L13.6378 58.7586L14.8878 56.2486L14.0778 55.8486L13.2678 55.4486L12.0178 57.9586L12.8278 58.3586ZM14.2378 62.5786L15.0878 62.2986L13.6778 58.0686L12.8278 58.3486L11.9778 58.6286L13.3878 62.8586L14.2378 62.5786ZM13.0678 62.5786V63.4786H14.2378V62.5786V61.6786H13.0678V62.5786ZM12.1278 59.4486L11.2678 59.7086L12.2078 62.8386L13.0678 62.5786L13.9278 62.3186L12.9878 59.1886L12.1278 59.4486ZM12.1078 59.4486V60.3486H12.1278V59.4486V58.5486H12.1078V59.4486ZM11.6978 60.1986L12.4878 60.6286L12.8978 59.8886L12.1078 59.4586L11.3178 59.0286L10.9078 59.7686L11.6978 60.1986ZM11.6978 62.5786H12.5978V60.1986H11.6978H10.7978V62.5886H11.6978V62.5786ZM18.9978 62.5686H18.0978V62.5786H18.9978H19.8978V62.5686H18.9978ZM15.7778 62.5686V63.4686H18.9978V62.5686V61.6686H15.7778V62.5686ZM15.7778 55.8386H14.8778V62.5786H15.7778H16.6778V55.8386H15.7778ZM18.8678 55.8386V54.9386H15.7778V55.8386V56.7386H18.8678V55.8386ZM18.8678 56.8486H19.7678V55.8386H18.8678H17.9678V56.8486H18.8678ZM16.9278 56.8486V57.7486H18.8678V56.8486V55.9486H16.9278V56.8486ZM16.9278 58.5786H17.8278V56.8486H16.9278H16.0278V58.5786H16.9278ZM18.4178 58.5786V57.6786H16.9278V58.5786V59.4786H18.4178V58.5786ZM18.4178 59.5886H19.3178V58.5786H18.4178H17.5178V59.5886H18.4178ZM16.9278 59.5886V60.4886H18.4178V59.5886V58.6886H16.9278V59.5886ZM16.9278 61.5686H17.8278V59.5886H16.9278H16.0278V61.5686H16.9278ZM18.9978 61.5686V60.6686H16.9278V61.5686V62.4686H18.9978V61.5686ZM18.9978 62.5786H19.8978V61.5686H18.9978H18.0978V62.5786H18.9978ZM21.6078 56.8586H20.7078V62.5786H21.6078H22.5078V56.8586H21.6078ZM20.4878 56.8586V57.7586H21.6078V56.8586V55.9586H20.4878V56.8586ZM20.4878 55.8486H19.5878V56.8586H20.4878H21.3878V55.8486H20.4878ZM23.8778 55.8486V54.9486H20.4878V55.8486V56.7486H23.8778V55.8486ZM23.8778 56.8586H24.7778V55.8486H23.8778H22.9778V56.8586H23.8778ZM22.7578 56.8586V57.7586H23.8778V56.8586V55.9586H22.7578V56.8586ZM22.7578 62.5786H23.6578V56.8586H22.7578H21.8578V62.5786H22.7578ZM21.6078 62.5786V63.4786H22.7578V62.5786V61.6786H21.6078V62.5786ZM27.6578 62.5786V63.4786H28.7078V62.5786V61.6786H27.6578V62.5786ZM27.6578 55.8486H26.7578V62.5886H27.6578H28.5578V55.8486H27.6578ZM28.7278 55.8486V54.9486H27.6578V55.8486V56.7486H28.7278V55.8486ZM30.1378 59.6986L30.9878 59.3886L29.5778 55.5386L28.7278 55.8486L27.8778 56.1586L29.2878 60.0086L30.1378 59.6986ZM30.1578 59.6986V58.7986H30.1378V59.6986V60.5986H30.1578V59.6986ZM30.1578 55.8486H29.2578V59.6986H30.1578H31.0578V55.8486H30.1578ZM31.1978 55.8486V54.9486H30.1478V55.8486V56.7486H31.1978V55.8486ZM31.1978 62.5786H32.0978V55.8386H31.1978H30.2978V62.5786H31.1978ZM30.1978 62.5786V63.4786H31.1978V62.5786V61.6786H30.1978V62.5786ZM28.7278 58.3786L27.8778 58.6786L29.3478 62.8886L30.1978 62.5886L31.0478 62.2886L29.5778 58.0786L28.7278 58.3786ZM28.7078 58.3786V59.2786H28.7278V58.3786V57.4786H28.7078V58.3786ZM28.7078 62.5786H29.6078V58.3686H28.7078H27.8078V62.5786H28.7078ZM33.3478 57.4786H32.4478V60.9386H33.3478H34.2478V57.4786H33.3478ZM35.1178 55.7586V54.8586C34.3078 54.8586 33.6078 55.1186 33.1178 55.6486C32.6378 56.1686 32.4478 56.8386 32.4478 57.4786H33.3478H34.2478C34.2478 57.1786 34.3378 56.9886 34.4378 56.8786C34.5278 56.7786 34.7078 56.6586 35.1178 56.6586V55.7586ZM36.8878 57.4786H37.7878C37.7878 56.8386 37.5978 56.1686 37.1178 55.6486C36.6278 55.1186 35.9278 54.8586 35.1178 54.8586V55.7586V56.6586C35.5278 56.6586 35.7078 56.7786 35.7978 56.8786C35.8978 56.9886 35.9878 57.1786 35.9878 57.4786H36.8878ZM36.8878 60.9486H37.7878V57.4886H36.8878H35.9878V60.9486H36.8878ZM35.1178 62.6686V63.5686C35.9278 63.5686 36.6278 63.3086 37.1178 62.7786C37.5978 62.2586 37.7878 61.5886 37.7878 60.9486H36.8878H35.9878C35.9878 61.2486 35.8978 61.4386 35.7978 61.5486C35.7078 61.6486 35.5278 61.7686 35.1178 61.7686V62.6686ZM33.3478 60.9486H32.4478C32.4478 61.5886 32.6378 62.2586 33.1178 62.7786C33.6078 63.3086 34.3078 63.5686 35.1178 63.5686V62.6686V61.7686C34.7078 61.7686 34.5278 61.6486 34.4378 61.5486C34.3378 61.4386 34.2478 61.2486 34.2478 60.9486H33.3478ZM34.4978 60.9186H35.3978V57.5086H34.4978H33.5978V60.9186H34.4978ZM35.1078 61.6586V60.7586C35.0678 60.7586 35.0878 60.7486 35.1478 60.7786C35.2178 60.8086 35.2878 60.8586 35.3478 60.9386C35.3978 61.0086 35.4078 61.0586 35.4078 61.0586C35.4078 61.0486 35.3978 61.0086 35.3978 60.9286H34.4978H33.5978C33.5978 61.2186 33.6278 61.6586 33.9078 62.0286C34.2378 62.4686 34.7178 62.5686 35.1078 62.5686V61.6586ZM35.7278 60.9186H34.8278C34.8278 60.9586 34.8278 60.9886 34.8278 61.0186C34.8278 61.0286 34.8278 61.0386 34.8278 61.0386C34.8278 61.0286 34.8378 61.0286 34.8378 61.0086C34.8478 60.9886 34.8678 60.9586 34.8878 60.9186C34.9478 60.8386 35.0278 60.7886 35.0878 60.7686C35.1378 60.7486 35.1578 60.7586 35.1078 60.7586V61.6586V62.5586C35.4878 62.5586 35.9678 62.4586 36.2978 62.0286C36.5878 61.6586 36.6278 61.2086 36.6278 60.9086H35.7278V60.9186ZM35.7278 57.5086H34.8278V60.9186H35.7278H36.6278V57.5086H35.7278ZM35.1078 56.7586V57.6586C35.1478 57.6586 35.1278 57.6686 35.0678 57.6486C35.0078 57.6286 34.9378 57.5786 34.8778 57.5086C34.8478 57.4786 34.8378 57.4486 34.8278 57.4286C34.8178 57.4086 34.8178 57.3986 34.8178 57.3986C34.8178 57.3986 34.8178 57.4086 34.8178 57.4286C34.8178 57.4486 34.8178 57.4786 34.8178 57.5186H35.7178H36.6178C36.6178 57.2086 36.5778 56.7686 36.2878 56.4086C35.9578 55.9886 35.4878 55.8786 35.0978 55.8786V56.7586H35.1078ZM34.4978 57.5086H35.3978C35.3978 57.4186 35.4078 57.3886 35.4078 57.3786C35.4078 57.3786 35.3978 57.4286 35.3478 57.4986C35.2878 57.5786 35.2078 57.6286 35.1478 57.6486C35.0978 57.6686 35.0678 57.6586 35.1178 57.6586V56.7586V55.8586C34.7378 55.8586 34.2578 55.9586 33.9278 56.3886C33.6378 56.7586 33.6078 57.1986 33.6078 57.4986H34.4978V57.5086ZM39.0978 62.5786V63.4786H40.2478V62.5786V61.6786H39.0978V62.5786ZM39.0978 55.8486H38.1978V62.5886H39.0978H39.9978V55.8486H39.0978ZM40.2478 55.8486V54.9486H39.0978V55.8486V56.7486H40.2478V55.8486ZM40.2478 62.5786H41.1478V55.8386H40.2478H39.3478V62.5786H40.2478ZM45.2978 56.8586H44.3978V62.5786H45.2978H46.1978V56.8586H45.2978ZM44.1778 56.8586V57.7586H45.2978V56.8586V55.9586H44.1778V56.8586ZM44.1778 55.8486H43.2778V56.8586H44.1778H45.0778V55.8486H44.1778ZM47.5678 55.8486V54.9486H44.1778V55.8486V56.7486H47.5678V55.8486ZM47.5678 56.8586H48.4678V55.8486H47.5678H46.6678V56.8586H47.5678ZM46.4478 56.8586V57.7586H47.5678V56.8586V55.9586H46.4478V56.8586ZM46.4478 62.5786H47.3478V56.8586H46.4478H45.5478V62.5786H46.4478ZM45.2978 62.5786V63.4786H46.4478V62.5786V61.6786H45.2978V62.5786ZM50.4378 58.8686H51.3378V56.7986H50.4378H49.5378V58.8686H50.4378ZM50.8378 58.8686V57.9686H50.4278V58.8686V59.7686H50.8378V58.8686ZM51.6978 57.8386H50.7978C50.7978 57.9186 50.7978 57.9786 50.7878 58.0286C50.7878 58.0786 50.7778 58.1086 50.7778 58.1286C50.7678 58.1686 50.7678 58.1286 50.8178 58.0686C50.8478 58.0386 50.8678 58.0186 50.8978 57.9986C50.9278 57.9786 50.9478 57.9686 50.9578 57.9686C50.9678 57.9686 50.9578 57.9686 50.9378 57.9686C50.9178 57.9686 50.8778 57.9786 50.8278 57.9786V58.8786V59.7786C51.2178 59.7786 51.7678 59.7086 52.1678 59.2486C52.5278 58.8286 52.5778 58.2786 52.5778 57.8486H51.6978V57.8386ZM50.8378 56.8086V57.7086C50.8878 57.7086 50.9278 57.7086 50.9478 57.7186C50.9678 57.7286 50.9778 57.7186 50.9678 57.7186C50.9578 57.7186 50.9378 57.7086 50.9078 57.6886C50.8778 57.6686 50.8478 57.6386 50.8178 57.6086C50.7678 57.5486 50.7678 57.5086 50.7678 57.5486C50.7678 57.5686 50.7778 57.5986 50.7778 57.6486C50.7778 57.6986 50.7878 57.7586 50.7878 57.8386H51.6878H52.5878C52.5878 57.4186 52.5378 56.8686 52.1878 56.4386C51.7878 55.9686 51.2278 55.8986 50.8378 55.8986V56.8086ZM50.4378 56.8086V57.7086H50.8478V56.8086V55.9086H50.4378V56.8086ZM50.4378 59.8186H49.5378V59.8286H50.4378H51.3378V59.8186H50.4378ZM50.4378 62.5786H51.3378V59.8086H50.4378H49.5378V62.5786H50.4378ZM49.2878 62.5786V63.4786H50.4378V62.5786V61.6786H49.2878V62.5786ZM49.2878 55.8486H48.3878V62.5886H49.2878H50.1878V55.8486H49.2878ZM50.9078 55.8486V54.9486H49.2878V55.8486V56.7486H50.9078V55.8486ZM52.8578 57.8386H53.7578C53.7578 56.9986 53.5678 56.2186 52.9978 55.6586C52.4278 55.1086 51.6578 54.9486 50.9078 54.9486V55.8486V56.7486C51.4478 56.7486 51.6578 56.8686 51.7378 56.9486C51.8178 57.0286 51.9578 57.2386 51.9578 57.8386H52.8578ZM52.0478 59.5386L52.4078 60.3586C52.7678 60.1986 53.1278 59.9186 53.3778 59.4786C53.6278 59.0386 53.7578 58.4886 53.7578 57.8386H52.8578H51.9578C51.9578 58.2686 51.8778 58.4886 51.8178 58.5886C51.7678 58.6786 51.7178 58.6986 51.6878 58.7186L52.0478 59.5386ZM53.0278 62.5786L53.8878 62.2986L52.9078 59.2586L52.0478 59.5386L51.1878 59.8186L52.1678 62.8586L53.0278 62.5786ZM51.8578 62.5786V63.4786H53.0278V62.5786V61.6786H51.8578V62.5786ZM51.0278 59.7986L50.1678 60.0486L50.9878 62.8386L51.8478 62.5886L52.7078 62.3386L51.8878 59.5486L51.0278 59.7986ZM50.4378 59.8286V60.7286C50.5978 60.7286 50.9578 60.7286 51.2278 60.6786L51.0378 59.7986L50.8478 58.9186C50.8578 58.9186 50.8478 58.9186 50.8278 58.9186C50.8078 58.9186 50.7678 58.9186 50.7278 58.9286C50.6378 58.9286 50.5478 58.9286 50.4478 58.9286V59.8286H50.4378ZM54.8478 62.5986V63.4986H55.9978V62.5986V61.6986H54.8478V62.5986ZM54.8478 55.8586H53.9478V62.5986H54.8478H55.7478V55.8586H54.8478ZM56.0078 55.8586V54.9586H54.8578V55.8586V56.7586H56.0078V55.8586ZM56.0078 62.5986H56.9078V55.8586H56.0078H55.1078V62.5986H56.0078ZM61.0478 56.8686H60.1478V62.5886H61.0478H61.9478V56.8686H61.0478ZM59.9278 56.8686V57.7686H61.0478V56.8686V55.9686H59.9278V56.8686ZM59.9278 55.8586H59.0278V56.8686H59.9278H60.8278V55.8586H59.9278ZM63.3178 55.8586V54.9586H59.9278V55.8586V56.7586H63.3178V55.8586ZM63.3178 56.8686H64.2178V55.8586H63.3178H62.4178V56.8686H63.3178ZM62.1978 56.8686V57.7686H63.3178V56.8686V55.9686H62.1978V56.8686ZM62.1978 62.5986H63.0978V56.8786H62.1978H61.2978V62.5986H62.1978ZM61.0478 62.5986V63.4986H62.1978V62.5986V61.6986H61.0478V62.5986ZM65.0378 62.5986V63.4986H66.1878V62.5986V61.6986H65.0378V62.5986ZM65.0378 55.8586H64.1378V62.5986H65.0378H65.9378V55.8586H65.0378ZM66.1878 55.8586V54.9586H65.0378V55.8586V56.7586H66.1878V55.8586ZM66.1878 58.5986H67.0878V55.8586H66.1878H65.2878V58.5986H66.1878ZM67.4178 58.5986V57.6986H66.1878V58.5986V59.4986H67.4178V58.5986ZM67.4178 55.8586H66.5178V58.5986H67.4178H68.3178V55.8586H67.4178ZM68.5678 55.8586V54.9586H67.4178V55.8586V56.7586H68.5678V55.8586ZM68.5678 62.5986H69.4678V55.8586H68.5678H67.6678V62.5986H68.5678ZM67.4178 62.5986V63.4986H68.5678V62.5986V61.6986H67.4178V62.5986ZM67.4178 59.6186H66.5178V62.5986H67.4178H68.3178V59.6186H67.4178ZM66.1878 59.6186V60.5186H67.4178V59.6186V58.7186H66.1878V59.6186ZM66.1878 62.5986H67.0878V59.6186H66.1878H65.2878V62.5986H66.1878ZM70.7278 55.8586H69.8278V60.8986H70.7278H71.6278V55.8586H70.7278ZM71.8778 55.8586V54.9586H70.7278V55.8586V56.7586H71.8778V55.8586ZM71.8778 60.9386H72.7778V55.8586H71.8778H70.9778V60.9386H71.8778ZM72.4978 61.6786V60.7786C72.4778 60.7786 72.4978 60.7786 72.5578 60.7986C72.6178 60.8186 72.6778 60.8686 72.7278 60.9286C72.7778 60.9886 72.7878 61.0286 72.7878 61.0386C72.7878 61.0386 72.7778 61.0186 72.7778 60.9486H71.8778H70.9778C70.9778 61.2886 71.0378 61.7186 71.3278 62.0786C71.6478 62.4686 72.0978 62.5986 72.4978 62.5986V61.6786ZM73.1178 60.9386H72.2178C72.2178 61.0086 72.2078 61.0386 72.2078 61.0286C72.2078 61.0286 72.2178 60.9786 72.2678 60.9186C72.3178 60.8586 72.3778 60.8186 72.4378 60.7886C72.4878 60.7686 72.5178 60.7686 72.4978 60.7686V61.6686V62.5686C72.8878 62.5686 73.3378 62.4486 73.6678 62.0486C73.9578 61.6886 74.0178 61.2586 74.0178 60.9186H73.1178V60.9386ZM73.1178 55.8586H72.2178V60.9386H73.1178H74.0178V55.8586H73.1178ZM74.2678 55.8586V54.9586H73.1178V55.8586V56.7586H74.2678V55.8586ZM74.2678 60.8986H75.1678V55.8586H74.2678H73.3678V60.8986H74.2678ZM72.4978 62.6786V63.5786C73.2178 63.5786 73.9178 63.3686 74.4278 62.8586C74.9478 62.3486 75.1678 61.6486 75.1678 60.8986H74.2678H73.3678C73.3678 61.2986 73.2578 61.4886 73.1578 61.5886C73.0578 61.6786 72.8678 61.7886 72.4978 61.7886V62.6786ZM70.7278 60.8986H69.8278C69.8278 61.6486 70.0478 62.3586 70.5678 62.8686C71.0878 63.3786 71.7778 63.5886 72.4978 63.5886V62.6886V61.7886C72.1178 61.7886 71.9278 61.6786 71.8278 61.5886C71.7378 61.4986 71.6178 61.3086 71.6178 60.8986H70.7278ZM79.8978 58.0986H78.9978V58.1086H79.8978H80.7978V58.0986H79.8978ZM78.7478 58.0986V58.9986H79.8978V58.0986V57.1986H78.7478V58.0986ZM78.7478 57.5686H77.8478V58.0986H78.7478H79.6478V57.5686H78.7478ZM78.1978 56.7586V57.6586C78.1478 57.6586 78.0878 57.6486 78.0178 57.6186C77.9478 57.5886 77.9078 57.5386 77.8778 57.4986C77.8178 57.4286 77.8578 57.4086 77.8578 57.5586H78.7578H79.6578C79.6578 57.1486 79.5678 56.7386 79.3078 56.3986C79.0278 56.0386 78.6278 55.8486 78.2078 55.8486V56.7586H78.1978ZM77.5778 57.5086H78.4778C78.4778 57.4686 78.4778 57.4386 78.4778 57.4086C78.4778 57.3986 78.4778 57.3886 78.4778 57.3786C78.4778 57.3886 78.4678 57.3886 78.4678 57.4086C78.4578 57.4286 78.4378 57.4586 78.4178 57.4986C78.3578 57.5786 78.2778 57.6286 78.2178 57.6486C78.1678 57.6686 78.1478 57.6586 78.1978 57.6586V56.7586V55.8586C77.8178 55.8586 77.3378 55.9586 77.0078 56.3886C76.7178 56.7586 76.6778 57.2086 76.6778 57.5086H77.5778ZM77.5778 60.9186H78.4778V57.5086H77.5778H76.6778V60.9186H77.5778ZM78.1978 61.6586V60.7586C78.1578 60.7586 78.1778 60.7486 78.2278 60.7686C78.2878 60.7886 78.3678 60.8386 78.4278 60.9186C78.4578 60.9486 78.4678 60.9786 78.4778 60.9986C78.4778 61.0086 78.4878 61.0186 78.4878 61.0186C78.4878 61.0086 78.4878 61.0086 78.4878 60.9986C78.4878 60.9786 78.4878 60.9486 78.4878 60.9086H77.5878H76.6878C76.6878 61.2086 76.7278 61.6486 77.0078 62.0186C77.3378 62.4486 77.8178 62.5486 78.2078 62.5486V61.6586H78.1978ZM78.7478 60.9786H77.8478C77.8478 61.0486 77.8378 61.0686 77.8478 61.0686C77.8478 61.0586 77.8578 61.0086 77.9178 60.9386C77.9778 60.8586 78.0478 60.8086 78.1278 60.7786C78.1878 60.7486 78.2278 60.7586 78.2078 60.7586V61.6586V62.5586C78.5878 62.5586 79.0478 62.4386 79.3578 62.0286C79.6278 61.6786 79.6578 61.2586 79.6578 60.9786H78.7478ZM78.7478 60.1686H77.8478V60.9786H78.7478H79.6478V60.1686H78.7478ZM79.8978 60.1686V59.2686H78.7478V60.1686V61.0686H79.8978V60.1686ZM79.8978 60.9486H80.7978V60.1786H79.8978H78.9978V60.9486H79.8978ZM78.1878 62.6686V63.5686C78.9978 63.5686 79.6978 63.2986 80.1778 62.7586C80.6478 62.2386 80.8078 61.5686 80.8078 60.9486H79.9078H78.9978C78.9978 61.2786 78.9078 61.4686 78.8178 61.5686C78.7478 61.6486 78.5778 61.7686 78.1778 61.7686V62.6686H78.1878ZM76.4078 60.9486H75.5078C75.5078 61.5886 75.6978 62.2586 76.1778 62.7786C76.6678 63.3086 77.3678 63.5686 78.1778 63.5686V62.6686V61.7686C77.7678 61.7686 77.5878 61.6486 77.4978 61.5486C77.3978 61.4386 77.3078 61.2486 77.3078 60.9486H76.4078ZM76.4078 57.4786H75.5078V60.9386H76.4078H77.3078V57.4786H76.4078ZM78.1878 55.7586V54.8586C77.3978 54.8586 76.7078 55.1286 76.2178 55.6386C75.7378 56.1486 75.5178 56.8086 75.5178 57.4786H76.4178H77.3178C77.3178 57.1986 77.4078 56.9986 77.5178 56.8886C77.6178 56.7786 77.8178 56.6586 78.1878 56.6586V55.7586ZM79.8978 57.6086H80.7978C80.7978 56.9486 80.6178 56.2586 80.1578 55.7186C79.6878 55.1586 78.9878 54.8486 78.1778 54.8486V55.7486V56.6486C78.5278 56.6486 78.6878 56.7586 78.7878 56.8786C78.8978 57.0086 78.9978 57.2486 78.9978 57.5986H79.8978V57.6086ZM79.8978 58.1086H80.7978V57.6186H79.8978H78.9978V58.1086H79.8978ZM10.5478 62.5786H9.64778V63.4786H10.5478V62.5786ZM10.5478 55.8486V54.9486H9.64778V55.8486H10.5478ZM11.6978 55.8486H12.5978V54.9486H11.6978V55.8486ZM11.6978 58.3386H10.7978V59.2386H11.6978V58.3386ZM11.7178 58.3386V59.2386H12.2778L12.5278 58.7286L11.7178 58.3386ZM12.9278 55.8486V54.9486H12.3678L12.1178 55.4586L12.9278 55.8486ZM14.0778 55.8486L14.8878 56.2486L15.5378 54.9486H14.0878V55.8486H14.0778ZM12.8278 58.3586L12.0178 57.9586L11.8478 58.2886L11.9678 58.6386L12.8278 58.3586ZM14.2378 62.5786V63.4786H15.4878L15.0978 62.2986L14.2378 62.5786ZM13.0678 62.5786L12.2078 62.8386L12.3978 63.4786H13.0678V62.5786ZM12.1278 59.4486L12.9878 59.1886L12.7978 58.5486H12.1278V59.4486ZM12.1078 59.4486V58.5486H11.5778L11.3178 59.0186L12.1078 59.4486ZM11.6978 60.1986L10.9078 59.7686L10.7978 59.9686V60.1986H11.6978ZM11.6978 62.5786V63.4786H12.5978V62.5786H11.6978ZM18.9978 62.5686H19.8978V61.6686H18.9978V62.5686ZM15.7778 62.5686H14.8778V63.4686H15.7778V62.5686ZM15.7778 55.8386V54.9386H14.8778V55.8386H15.7778ZM18.8678 55.8386H19.7678V54.9386H18.8678V55.8386ZM18.8678 56.8486V57.7486H19.7678V56.8486H18.8678ZM16.9278 56.8486V55.9486H16.0278V56.8486H16.9278ZM16.9278 58.5786H16.0278V59.4786H16.9278V58.5786ZM18.4178 58.5786H19.3178V57.6786H18.4178V58.5786ZM18.4178 59.5886V60.4886H19.3178V59.5886H18.4178ZM16.9278 59.5886V58.6886H16.0278V59.5886H16.9278ZM16.9278 61.5686H16.0278V62.4686H16.9278V61.5686ZM18.9978 61.5686H19.8978V60.6686H18.9978V61.5686ZM21.6078 56.8586H22.5078V55.9586H21.6078V56.8586ZM20.4878 56.8586H19.5878V57.7586H20.4878V56.8586ZM20.4878 55.8486V54.9486H19.5878V55.8486H20.4878ZM23.8778 55.8486H24.7778V54.9486H23.8778V55.8486ZM23.8778 56.8586V57.7586H24.7778V56.8586H23.8778ZM22.7578 56.8586V55.9586H21.8578V56.8586H22.7578ZM22.7578 62.5786V63.4786H23.6578V62.5786H22.7578ZM21.6078 62.5786H20.7078V63.4786H21.6078V62.5786ZM27.6578 62.5786H26.7578V63.4786H27.6578V62.5786ZM27.6578 55.8486V54.9486H26.7578V55.8486H27.6578ZM28.7278 55.8486L29.5778 55.5386L29.3578 54.9486H28.7278V55.8486ZM30.1378 59.6986L29.2878 60.0086L29.5078 60.5986H30.1378V59.6986ZM30.1578 59.6986V60.5986H31.0578V59.6986H30.1578ZM30.1578 55.8486V54.9486H29.2578V55.8486H30.1578ZM31.1978 55.8486H32.0978V54.9486H31.1978V55.8486ZM31.1978 62.5786V63.4786H32.0978V62.5786H31.1978ZM30.1978 62.5786L29.3478 62.8786L29.5578 63.4786H30.1978V62.5786ZM28.7278 58.3786L29.5778 58.0786L29.3678 57.4786H28.7278V58.3786ZM28.7078 58.3786V57.4786H27.8078V58.3786H28.7078ZM28.7078 62.5786V63.4786H29.6078V62.5786H28.7078ZM39.0978 62.5786H38.1978V63.4786H39.0978V62.5786ZM39.0978 55.8486V54.9486H38.1978V55.8486H39.0978ZM40.2478 55.8486H41.1478V54.9486H40.2478V55.8486ZM40.2478 62.5786V63.4786H41.1478V62.5786H40.2478ZM45.2978 56.8586H46.1978V55.9586H45.2978V56.8586ZM44.1778 56.8586H43.2778V57.7586H44.1778V56.8586ZM44.1778 55.8486V54.9486H43.2778V55.8486H44.1778ZM47.5678 55.8486H48.4678V54.9486H47.5678V55.8486ZM47.5678 56.8586V57.7586H48.4678V56.8586H47.5678ZM46.4478 56.8586V55.9586H45.5478V56.8586H46.4478ZM46.4478 62.5786V63.4786H47.3478V62.5786H46.4478ZM45.2978 62.5786H44.3978V63.4786H45.2978V62.5786ZM50.4378 58.8686H49.5378V59.7686H50.4378V58.8686ZM50.4378 56.8086V55.9086H49.5378V56.8086H50.4378ZM50.4378 62.5786V63.4786H51.3378V62.5786H50.4378ZM49.2878 62.5786H48.3878V63.4786H49.2878V62.5786ZM49.2878 55.8486V54.9486H48.3878V55.8486H49.2878ZM52.0478 59.5386L51.6878 58.7186L50.9378 59.0486L51.1878 59.8286L52.0478 59.5386ZM53.0278 62.5786V63.4786H54.2678L53.8878 62.2986L53.0278 62.5786ZM51.8578 62.5786L50.9978 62.8286L51.1878 63.4786H51.8578V62.5786ZM51.0278 59.7986L51.8878 59.5486L51.6478 58.7486L50.8278 58.9286L51.0278 59.7986ZM50.4378 59.8286H49.5378V60.7286H50.4378V59.8286ZM54.8478 62.5986H53.9478V63.4986H54.8478V62.5986ZM54.8478 55.8586V54.9586H53.9478V55.8586H54.8478ZM56.0078 55.8586H56.9078V54.9586H56.0078V55.8586ZM56.0078 62.5986V63.4986H56.9078V62.5986H56.0078ZM61.0478 56.8686H61.9478V55.9686H61.0478V56.8686ZM59.9278 56.8686H59.0278V57.7686H59.9278V56.8686ZM59.9278 55.8586V54.9586H59.0278V55.8586H59.9278ZM63.3178 55.8586H64.2178V54.9586H63.3178V55.8586ZM63.3178 56.8686V57.7686H64.2178V56.8686H63.3178ZM62.1978 56.8686V55.9686H61.2978V56.8686H62.1978ZM62.1978 62.5986V63.4986H63.0978V62.5986H62.1978ZM61.0478 62.5986H60.1478V63.4986H61.0478V62.5986ZM65.0378 62.5986H64.1378V63.4986H65.0378V62.5986ZM65.0378 55.8586V54.9586H64.1378V55.8586H65.0378ZM66.1878 55.8586H67.0878V54.9586H66.1878V55.8586ZM66.1878 58.5986H65.2878V59.4986H66.1878V58.5986ZM67.4178 58.5986V59.4986H68.3178V58.5986H67.4178ZM67.4178 55.8586V54.9586H66.5178V55.8586H67.4178ZM68.5678 55.8586H69.4678V54.9586H68.5678V55.8586ZM68.5678 62.5986V63.4986H69.4678V62.5986H68.5678ZM67.4178 62.5986H66.5178V63.4986H67.4178V62.5986ZM67.4178 59.6186H68.3178V58.7186H67.4178V59.6186ZM66.1878 59.6186V58.7186H65.2878V59.6186H66.1878ZM66.1878 62.5986V63.4986H67.0878V62.5986H66.1878ZM70.7278 55.8586V54.9586H69.8278V55.8586H70.7278ZM71.8778 55.8586H72.7778V54.9586H71.8778V55.8586ZM73.1178 55.8586V54.9586H72.2178V55.8586H73.1178ZM74.2678 55.8586H75.1678V54.9586H74.2678V55.8586ZM79.8978 58.0986H80.7978V57.1986H79.8978V58.0986ZM78.7478 58.0986H77.8478V58.9986H78.7478V58.0986ZM78.7478 60.1686V59.2686H77.8478V60.1686H78.7478ZM79.8978 60.1686H80.7978V59.2686H79.8978V60.1686Z" fill="white"/>
<path d="M16.4478 71.4187L15.6078 66.7487H14.4678L15.8778 73.4887H17.0278L18.4378 66.7487H17.2978L16.4478 71.4187ZM20.1178 71.8487C20.1178 72.7987 20.6678 73.5687 21.8878 73.5687C23.1078 73.5687 23.6578 72.7987 23.6578 71.8487V68.3887C23.6578 67.4387 23.1078 66.6687 21.8878 66.6687C20.6678 66.6687 20.1178 67.4387 20.1178 68.3887V71.8487ZM21.2678 68.4087C21.2678 67.8987 21.4178 67.6687 21.8878 67.6687C22.3578 67.6687 22.5078 67.9087 22.5078 68.4087V71.8187C22.5078 72.3287 22.3578 72.5587 21.8878 72.5587C21.4178 72.5587 21.2678 72.3087 21.2678 71.8187V68.4087ZM27.0178 73.4787V66.7387H25.8678V73.4787H27.0178ZM34.8778 68.9987V68.4987C34.8778 67.4887 34.3278 66.6487 33.1578 66.6487C31.9378 66.6487 31.3878 67.4187 31.3878 68.3687V71.8287C31.3878 72.7787 31.9378 73.5487 33.1578 73.5487C34.3778 73.5487 34.8778 72.7787 34.8778 71.8287V71.0587H33.7278V71.8687C33.7278 72.3087 33.5878 72.5487 33.1778 72.5487C32.7078 72.5487 32.5578 72.2987 32.5578 71.8087V68.3987C32.5578 67.8887 32.7078 67.6587 33.1778 67.6587C33.4778 67.6587 33.7278 67.8987 33.7278 68.4687V68.9987H34.8778ZM37.0878 71.7787C37.0878 72.9287 37.7578 73.5687 38.8578 73.5687C39.9578 73.5687 40.6278 72.9387 40.6278 71.7787V66.7387H39.4778V71.8187C39.4778 72.3087 39.2878 72.5587 38.8578 72.5587C38.4278 72.5587 38.2378 72.3087 38.2378 71.8187V66.7387H37.0878V71.7787ZM42.7778 71.8487C42.7778 72.7987 43.3278 73.5687 44.5478 73.5687C45.7678 73.5687 46.3178 72.7987 46.3178 71.8487V68.3887C46.3178 67.4387 45.7678 66.6687 44.5478 66.6687C43.3278 66.6687 42.7778 67.4387 42.7778 68.3887V71.8487ZM43.9278 68.4087C43.9278 67.8987 44.0778 67.6687 44.5478 67.6687C45.0178 67.6687 45.1678 67.9087 45.1678 68.4087V71.8187C45.1678 72.3287 45.0178 72.5587 44.5478 72.5587C44.0778 72.5587 43.9278 72.3087 43.9278 71.8187V68.4087ZM51.9378 68.9987V68.4987C51.9378 67.4887 51.3878 66.6487 50.2178 66.6487C49.0478 66.6487 48.4478 67.4187 48.4478 68.3687V71.8287C48.4478 72.7787 48.9978 73.5487 50.2178 73.5487C51.4378 73.5487 51.9378 72.7787 51.9378 71.8287V71.0587H50.7878V71.8687C50.7878 72.3087 50.6478 72.5487 50.2378 72.5487C49.7678 72.5487 49.6178 72.2987 49.6178 71.8087V68.3987C49.6178 67.8887 49.7678 67.6587 50.2378 67.6587C50.5378 67.6587 50.7878 67.8987 50.7878 68.4687V68.9987H51.9378ZM59.4178 68.2887C59.3078 67.3387 58.7578 66.6487 57.8178 66.6487C56.6878 66.6487 56.0278 67.2487 56.0278 68.3287C56.0278 70.2587 58.3778 70.6087 58.3778 71.9387C58.3778 72.3387 58.1078 72.5487 57.7078 72.5487C57.3378 72.5487 57.0678 72.2187 57.0178 71.5387L55.9178 71.6987C55.9578 72.7087 56.5778 73.5587 57.6478 73.5587C58.7178 73.5587 59.4678 72.9487 59.4678 71.8387C59.4678 70.0087 57.1178 69.4587 57.1178 68.3087C57.1178 67.8887 57.3178 67.6387 57.6978 67.6387C57.9578 67.6387 58.2678 67.8087 58.3178 68.3787L59.4178 68.2587V68.2887ZM61.3778 71.8487C61.3778 72.7987 61.9278 73.5687 63.1478 73.5687C64.3678 73.5687 64.9178 72.7987 64.9178 71.8487V68.3887C64.9178 67.4387 64.3678 66.6687 63.1478 66.6687C61.9278 66.6687 61.3778 67.4387 61.3778 68.3887V71.8487ZM62.5378 68.4087C62.5378 67.8987 62.6878 67.6687 63.1578 67.6687C63.6278 67.6687 63.7778 67.9087 63.7778 68.4087V71.8187C63.7778 72.3287 63.6278 72.5587 63.1578 72.5587C62.6878 72.5587 62.5378 72.3087 62.5378 71.8187V68.4087ZM68.1178 73.4787V69.2687H68.1378L69.6078 73.4787H70.6078V66.7387H69.5578V70.5887H69.5378L68.1278 66.7387H67.0578V73.4787H68.1178ZM74.3578 70.9887H75.0978V71.6487C75.0978 72.3187 74.9278 72.5887 74.4678 72.5887C74.0578 72.5887 73.9278 72.3087 73.9278 71.8787V68.4187C73.9278 67.8487 74.1578 67.6887 74.4378 67.6887C74.8978 67.6887 75.0978 67.9487 75.0978 68.9587H76.1978V68.5287C76.1978 67.5187 75.6178 66.6787 74.4678 66.6787C73.3178 66.6787 72.7678 67.4487 72.7678 68.3987V71.8587C72.7678 72.9387 73.3978 73.5787 74.3178 73.5787C74.8578 73.5787 75.1378 73.3987 75.4778 72.9887L75.6878 73.4987H76.2378V70.0887H74.3478V70.9887H74.3578Z" fill="#75C044"/>
<path d="M21.6978 66.2386L22.4378 65.0786H23.6678L22.4978 66.2386H21.6978Z" fill="#75C044"/>
<path d="M23.3078 65.9988H24.1378V66.6788C24.1378 66.9488 24.0678 67.1488 23.9278 67.2988C23.7878 67.4488 23.5778 67.5188 23.2978 67.5188V67.1688C23.4078 67.1688 23.4878 67.1188 23.5678 67.0488C23.6378 66.9888 23.6778 66.9088 23.6778 66.8088H23.2978V65.9888L23.3078 65.9988Z" fill="#75C044"/>
<path d="M44.1278 65.2188H45.1078L46.0278 66.3787H45.1278L44.6178 65.7288L44.1078 66.3787H43.2278L44.1278 65.2188Z" fill="#75C044"/>
<path d="M62.6778 65.2188H63.6678L64.5778 66.3787H63.6778L63.1678 65.7288L62.6578 66.3787H61.7778L62.6778 65.2188Z" fill="#75C044"/>
<path d="M64.2378 66.3487L64.9878 65.1887H66.2078L65.0378 66.3487H64.2378Z" fill="#75C044"/>
<path d="M45.0478 74.1587H44.1578V75.0287H45.0478V74.1587Z" fill="#75C044"/>
<path d="M16.8378 54.2788H17.8378L18.7478 55.4388L17.8478 55.4288L17.3378 54.7888L16.8278 55.4288L15.9478 55.4388L16.8378 54.2788Z" fill="#D2AB56"/>
<path d="M18.4078 55.3988L19.1578 54.2488H20.3778L19.1978 55.3988H18.4078Z" fill="#D2AB56"/>
<path d="M34.6778 54.2788H35.6578L36.5778 55.4388L35.6778 55.4288L35.1678 54.7888L34.6578 55.4288L33.7878 55.4388L34.6778 54.2788Z" fill="#D2AB56"/>
<path d="M36.1678 55.3988L36.9078 54.2488H38.1378L36.9578 55.3988H36.1678Z" fill="#D2AB56"/>
<path d="M72.1578 55.3988L72.8978 54.2488H74.1178L72.9578 55.3988H72.1578Z" fill="#D2AB56"/>
<path d="M74.2478 55.0288H75.0778V55.7088C75.0778 55.9788 75.0078 56.1888 74.8678 56.3288C74.7278 56.4788 74.5178 56.5588 74.2378 56.5588V56.1988C74.3478 56.1988 74.4278 56.1488 74.5078 56.0788C74.5778 56.0188 74.6178 55.9388 74.6178 55.8388H74.2478V55.0188V55.0288Z" fill="#D2AB56"/>
<path d="M11.6978 62.5788V60.1988L12.1078 59.4588H12.1278L13.0678 62.5888H14.2378L12.8278 58.3588L14.0778 55.8488H12.9278L11.7178 58.3388H11.6978V55.8488H10.5478V62.5888H11.6978V62.5788ZM18.9978 62.5788V61.5688H16.9278V59.5888H18.4178V58.5788H16.9278V56.8488H18.8678V55.8388H15.7778V62.5788H18.9978ZM21.6078 62.5788H22.7578V56.8588H23.8778V55.8488H20.4878V56.8588H21.6078V62.5788ZM28.7078 62.5788V58.3688H28.7278L30.1978 62.5788H31.1978V55.8388H30.1478V59.6888H30.1278L28.7178 55.8388H27.6478V62.5788H28.7078ZM33.3478 60.9488C33.3478 61.8988 33.8978 62.6688 35.1178 62.6688C36.3378 62.6688 36.8878 61.8988 36.8878 60.9488V57.4888C36.8878 56.5388 36.3378 55.7688 35.1178 55.7688C33.8978 55.7688 33.3478 56.5388 33.3478 57.4888V60.9488ZM34.4978 57.5088C34.4978 56.9988 34.6478 56.7688 35.1078 56.7688C35.5678 56.7688 35.7278 57.0188 35.7278 57.5088V60.9188C35.7278 61.4288 35.5778 61.6588 35.1078 61.6588C34.6378 61.6588 34.4978 61.4088 34.4978 60.9188V57.5088ZM40.2478 62.5788V55.8388H39.0978V62.5788H40.2478ZM45.2978 62.5788H46.4478V56.8588H47.5678V55.8488H44.1778V56.8588H45.2978V62.5788ZM50.4378 56.8088H50.8478C51.4778 56.8088 51.6978 57.0488 51.6978 57.8388C51.6978 58.6288 51.4678 58.8688 50.8478 58.8688H50.4378V56.8088ZM50.4378 59.8288C50.6378 59.8288 50.8878 59.8288 51.0378 59.7988L51.8578 62.5888H53.0278L52.0478 59.5488C52.4378 59.3788 52.8578 58.9388 52.8578 57.8488C52.8578 56.4188 52.1978 55.8588 50.9078 55.8588H49.2878V62.5988H50.4378V59.8288ZM56.0078 62.5988V55.8588H54.8578V62.5988H56.0078ZM61.0478 62.5988H62.1978V56.8788H63.3178V55.8688H59.9278V56.8788H61.0478V62.5988ZM66.1878 62.5988V59.6188H67.4178V62.5988H68.5678V55.8588H67.4178V58.5988H66.1878V55.8588H65.0378V62.5988H66.1878ZM70.7278 60.8988C70.7278 62.0588 71.3978 62.6888 72.4978 62.6888C73.5978 62.6888 74.2678 62.0588 74.2678 60.8988V55.8588H73.1178V60.9388C73.1178 61.4288 72.9278 61.6788 72.4978 61.6788C72.0678 61.6788 71.8778 61.4288 71.8778 60.9388V55.8588H70.7278V60.8988ZM79.8978 58.1088V57.6188C79.8978 56.6088 79.3478 55.7688 78.1778 55.7688C77.0078 55.7688 76.4078 56.5388 76.4078 57.4888V60.9488C76.4078 61.8988 76.9578 62.6688 78.1778 62.6688C79.3978 62.6688 79.8978 61.8988 79.8978 60.9488V60.1788H78.7478V60.9888C78.7478 61.4288 78.6078 61.6688 78.1978 61.6688C77.7278 61.6688 77.5778 61.4188 77.5778 60.9288V57.5188C77.5778 57.0088 77.7278 56.7788 78.1978 56.7788C78.4978 56.7788 78.7478 57.0288 78.7478 57.5888V58.1188H79.8978V58.1088Z" fill="#D2AB56"/>
<path d="M45.3778 14.2787C48.4378 5.54873 52.0578 3.81873 59.5378 0.81873C66.2278 -0.68127 91.0078 0.33873 91.0078 0.33873L90.7778 27.7587C90.9378 36.9087 83.2678 48.6487 71.1878 48.6287C59.0978 48.6087 20.8278 48.6287 20.8278 48.6287C6.75778 46.8287 0.447778 42.8487 0.137778 27.0987C-0.172222 11.3487 0.137778 0.32873 0.137778 0.32873H23.9378C28.9478 0.40873 41.8378 1.49873 45.3778 14.2587V14.2787Z" fill="white"/>
<path fill-rule="evenodd" clip-rule="evenodd" d="M85.3178 3.73877H66.0178C60.8178 3.73877 56.0978 5.86877 52.6678 9.28877C49.2478 12.7088 47.1178 17.4288 47.1178 22.6288V41.1488C50.4978 33.4388 55.4678 25.8988 61.9278 19.3588C68.3078 12.9188 76.1378 7.44877 85.3178 3.73877ZM49.4778 45.1788H68.3078C73.5078 45.1788 78.2278 43.0488 81.6578 39.6288C85.0678 36.2088 87.1978 31.4888 87.1978 26.2888V6.96877C78.2878 10.4788 70.7178 15.7388 64.5678 21.9688C57.7378 28.8788 52.6678 36.9788 49.4878 45.1688" fill="#75C044"/>
<path fill-rule="evenodd" clip-rule="evenodd" d="M24.5978 3.73877H3.42778V18.2288C3.42778 28.3288 12.4678 28.2088 17.7578 28.1488C18.4978 28.1488 18.9278 28.1288 19.0478 28.1288H20.8678V29.9788V30.5688C20.8678 36.5488 20.8478 45.1688 30.1978 45.1688H43.4678V22.6488C43.4678 17.4488 41.3478 12.7288 37.9278 9.30877C34.5078 5.88877 29.7878 3.75877 24.5778 3.75877V3.73877H24.5978ZM3.55778 28.4988V28.5788L3.57778 28.7088L3.60778 28.9088L3.62778 29.0588V29.1188L3.65778 29.2388L3.67778 29.3488L3.69778 29.4688L3.71778 29.5688L3.73778 29.6888L3.75778 29.7988L3.77778 29.9188V29.9988L3.81778 30.1388L3.85778 30.3288L3.87778 30.4188L3.90778 30.5488L3.92778 30.6388L3.95778 30.7688L3.97778 30.8688L4.00778 30.9788L4.02778 31.0888L4.05778 31.2088L4.07778 31.2888L4.10778 31.4188L4.12778 31.5188L4.17778 31.7088L4.19778 31.7888L4.23778 31.9288L4.26778 32.0188L4.30778 32.1388L4.32778 32.2288L4.36778 32.3688L4.38778 32.4288L4.42778 32.5488L4.45778 32.6488L4.48778 32.7388L4.52778 32.8488L4.58778 33.0288L4.62778 33.1288L4.66778 33.2388L4.70778 33.3488L4.73778 33.4388L4.77778 33.5488L4.81778 33.6488L4.84778 33.7388L4.89778 33.8688L4.92778 33.9288L4.97778 34.0488L5.00778 34.1088L5.09778 34.2988L5.13778 34.3988L5.17778 34.4988L5.21778 34.5888L5.27778 34.7188L5.30778 34.7788L5.35778 34.8888L5.39778 34.9788L5.45778 35.0988L5.48778 35.1488L5.54778 35.2788L5.59778 35.3888C5.59778 35.3888 5.64778 35.4988 5.68778 35.5388L5.70778 35.5688L5.79778 35.7088L5.84778 35.8088L5.88778 35.8988L5.93778 35.9988L5.98778 36.0988L6.03778 36.1788L6.09778 36.2888L6.13778 36.3688L6.22778 36.5088L6.24778 36.5388L6.35778 36.7088V36.7288L6.40778 36.7788L6.47778 36.8888L6.52778 36.9788L6.59778 37.0888L6.63778 37.1388L6.72778 37.2688L6.75778 37.3088L6.99778 37.3288L7.03778 37.3888L7.15778 37.5488L7.28778 37.7188L7.31778 37.7588L7.41778 37.8788L7.46778 37.9388L7.55778 38.0388L7.60778 38.0988L7.69778 38.1988L7.74778 38.2588L7.85778 38.3888L7.87778 38.4188C7.91778 38.4688 7.97778 38.5288 8.01778 38.5788C8.05778 38.6288 8.11778 38.6888 8.15778 38.7388L8.19778 38.7788L8.30778 38.8988L8.34778 38.9488L8.45778 39.0588L8.49778 39.1088L8.61778 39.2388L8.63778 39.2588C8.74778 39.3688 8.83778 39.4788 8.94778 39.5688L9.10778 39.7288C9.10778 39.7288 9.20778 39.8288 9.25778 39.8788L9.28778 39.9088L9.40778 40.0188L9.45778 40.0588L9.57778 40.1688L9.60778 40.1988L9.73778 40.3188L9.77778 40.3488L9.91778 40.4688L9.93778 40.4888C10.0578 40.5888 10.1578 40.6788 10.2778 40.7788C10.2778 40.7788 10.3878 40.8688 10.4378 40.9088L10.4878 40.9488L10.5978 41.0388L10.6578 41.0888L10.7778 41.1788L10.8278 41.2188L10.9578 41.3188L10.9978 41.3888L11.1278 41.4888L11.1778 41.5188C11.2378 41.5588 11.2978 41.6088 11.3478 41.6488L11.5278 41.7788L11.5578 41.7988L11.7078 41.9088L11.7478 41.9388L11.8778 42.0288L11.9478 42.0688L12.0578 42.1288L12.1478 42.1788L12.2478 42.2388L12.3178 42.2888L12.4378 42.3688L12.5078 42.4088L12.6778 42.5188L12.8478 42.6188L12.9178 42.6688L13.0378 42.7288L13.1078 42.7688L13.2378 42.8288L13.2878 42.8588L13.4178 42.9188L13.5078 42.9588L13.6078 43.0088L13.7178 43.0588L13.7878 43.0988L13.9078 43.1488L14.0878 43.2388L14.2678 43.3288L14.3778 43.3788L14.4478 43.4088L14.5678 43.4588L14.6578 43.4988L14.7678 43.5388L14.8678 43.5788L14.9678 43.6188L15.0678 43.6588L15.1878 43.6988L15.2478 43.7188L15.3778 43.7688L15.5578 43.8488C15.6178 43.8688 15.6878 43.8988 15.7478 43.9288H15.7678L15.8278 43.9588L15.9578 43.9988L16.0678 44.0388L16.1678 44.0688L16.2778 44.1088L16.3878 44.1388L16.4878 44.1688L16.6178 44.2088L16.6878 44.2288L16.8078 44.2588L16.9278 44.2888L17.1178 44.3388C17.1778 44.3588 17.2478 44.3788 17.3078 44.3888L17.4278 44.4188L17.5378 44.4488L17.6478 44.4788L17.7378 44.4988L17.8678 44.5288L17.9578 44.5488L18.0878 44.5788L18.1778 44.5988L18.3078 44.6288L18.3978 44.6488L18.5278 44.6788L18.7278 44.7188L18.9278 44.7588H18.9478L19.0178 44.7788L19.1478 44.7988H19.2478L19.3778 44.8288H19.4778L19.5978 44.8588L19.7178 44.8788H19.8078L19.9578 44.9088H20.0178L20.1578 44.9288L20.3178 44.9488H20.3678C17.4678 41.4588 17.2178 36.1788 17.1978 31.7188C13.0078 31.7588 7.26778 31.6888 3.52778 28.3688" fill="#D2AB56"/>
</svg>
