<svg width="20" height="20" viewBox="0 0 20 20" fill="none" xmlns="http://www.w3.org/2000/svg">
<path d="M15 4.00006C14.73 4.00006 14.48 3.89006 14.29 3.71006C14.11 3.52006 14 3.27006 14 3.00006V1.00006C14 0.730061 14.11 0.480061 14.29 0.290061C14.48 0.110061 14.73 6.10352e-05 15 6.10352e-05C15.27 6.10352e-05 15.52 0.110061 15.71 0.290061C15.89 0.480061 16 0.730061 16 1.00006V3.00006C16 3.27006 15.89 3.52006 15.71 3.71006C15.52 3.89006 15.27 4.00006 15 4.00006ZM5 4.00006C4.73 4.00006 4.48 3.89006 4.29 3.71006C4.11 3.52006 4 3.27006 4 3.00006V1.00006C4 0.730061 4.11 0.480061 4.29 0.290061C4.48 0.110061 4.73 6.10352e-05 5 6.10352e-05C5.27 6.10352e-05 5.52 0.110061 5.71 0.290061C5.89 0.480061 6 0.730061 6 1.00006V3.00006C6 3.27006 5.89 3.52006 5.71 3.71006C5.52 3.89006 5.27 4.00006 5 4.00006Z" fill="#777777"/>
<path d="M17 2.00006H16V3.00006C16 3.27006 15.89 3.52006 15.71 3.71006C15.52 3.89006 15.27 4.00006 15 4.00006C14.73 4.00006 14.48 3.89006 14.29 3.71006C14.11 3.52006 14 3.27006 14 3.00006V2.00006H6V3.00006C6 3.27006 5.89 3.52006 5.71 3.71006C5.52 3.89006 5.27 4.00006 5 4.00006C4.73 4.00006 4.48 3.89006 4.29 3.71006C4.11 3.52006 4 3.27006 4 3.00006V2.00006H3C2.2 2.00006 1.44 2.32006 0.88 2.88006C0.32 3.44006 0 4.20006 0 5.00006V7.00006H20V5.00006C20 4.20006 19.68 3.44006 19.12 2.88006C18.56 2.32006 17.8 2.00006 17 2.00006Z" fill="#5B5B5B"/>
<path d="M5 12.0001C5.55228 12.0001 6 11.5523 6 11.0001C6 10.4478 5.55228 10.0001 5 10.0001C4.44772 10.0001 4 10.4478 4 11.0001C4 11.5523 4.44772 12.0001 5 12.0001Z" fill="#E6E6E5"/>
<path d="M5 16.0001C5.55228 16.0001 6 15.5523 6 15.0001C6 14.4478 5.55228 14.0001 5 14.0001C4.44772 14.0001 4 14.4478 4 15.0001C4 15.5523 4.44772 16.0001 5 16.0001Z" fill="#E6E6E5"/>
<path d="M10 12.0001C10.5523 12.0001 11 11.5523 11 11.0001C11 10.4478 10.5523 10.0001 10 10.0001C9.44772 10.0001 9 10.4478 9 11.0001C9 11.5523 9.44772 12.0001 10 12.0001Z" fill="#E6E6E5"/>
<path d="M10 16.0001C10.5523 16.0001 11 15.5523 11 15.0001C11 14.4478 10.5523 14.0001 10 14.0001C9.44772 14.0001 9 14.4478 9 15.0001C9 15.5523 9.44772 16.0001 10 16.0001Z" fill="#E6E6E5"/>
<path d="M15 12.0001C15.5523 12.0001 16 11.5523 16 11.0001C16 10.4478 15.5523 10.0001 15 10.0001C14.4477 10.0001 14 10.4478 14 11.0001C14 11.5523 14.4477 12.0001 15 12.0001Z" fill="#E6E6E5"/>
<path d="M15 16.0001C15.5523 16.0001 16 15.5523 16 15.0001C16 14.4478 15.5523 14.0001 15 14.0001C14.4477 14.0001 14 14.4478 14 15.0001C14 15.5523 14.4477 16.0001 15 16.0001Z" fill="#E6E6E5"/>
<path d="M15 12.0001C14.73 12.0001 14.48 11.8901 14.29 11.7101C14.11 11.5201 14 11.2701 14 11.0001C14 10.7301 14.11 10.4801 14.29 10.2901C14.48 10.1101 14.73 10.0001 15 10.0001C15.27 10.0001 15.52 10.1101 15.71 10.2901C15.89 10.4801 16 10.7301 16 11.0001C16 11.2701 15.89 11.5201 15.71 11.7101C15.52 11.8901 15.27 12.0001 15 12.0001ZM15 16.0001C14.73 16.0001 14.48 15.8901 14.29 15.7101C14.11 15.5201 14 15.2701 14 15.0001C14 14.7301 14.11 14.4801 14.29 14.2901C14.48 14.1101 14.73 14.0001 15 14.0001C15.27 14.0001 15.52 14.1101 15.71 14.2901C15.89 14.4801 16 14.7301 16 15.0001C16 15.2701 15.89 15.5201 15.71 15.7101C15.52 15.8901 15.27 16.0001 15 16.0001ZM10 12.0001C9.73 12.0001 9.48 11.8901 9.29 11.7101C9.11 11.5201 9 11.2701 9 11.0001C9 10.7301 9.11 10.4801 9.29 10.2901C9.48 10.1101 9.73 10.0001 10 10.0001C10.27 10.0001 10.52 10.1101 10.71 10.2901C10.89 10.4801 11 10.7301 11 11.0001C11 11.2701 10.89 11.5201 10.71 11.7101C10.52 11.8901 10.27 12.0001 10 12.0001ZM10 16.0001C9.73 16.0001 9.48 15.8901 9.29 15.7101C9.11 15.5201 9 15.2701 9 15.0001C9 14.7301 9.11 14.4801 9.29 14.2901C9.48 14.1101 9.73 14.0001 10 14.0001C10.27 14.0001 10.52 14.1101 10.71 14.2901C10.89 14.4801 11 14.7301 11 15.0001C11 15.2701 10.89 15.5201 10.71 15.7101C10.52 15.8901 10.27 16.0001 10 16.0001ZM5 12.0001C4.73 12.0001 4.48 11.8901 4.29 11.7101C4.11 11.5201 4 11.2701 4 11.0001C4 10.7301 4.11 10.4801 4.29 10.2901C4.48 10.1101 4.73 10.0001 5 10.0001C5.27 10.0001 5.52 10.1101 5.71 10.2901C5.89 10.4801 6 10.7301 6 11.0001C6 11.2701 5.89 11.5201 5.71 11.7101C5.52 11.8901 5.27 12.0001 5 12.0001ZM5 16.0001C4.73 16.0001 4.48 15.8901 4.29 15.7101C4.11 15.5201 4 15.2701 4 15.0001C4 14.7301 4.11 14.4801 4.29 14.2901C4.48 14.1101 4.73 14.0001 5 14.0001C5.27 14.0001 5.52 14.1101 5.71 14.2901C5.89 14.4801 6 14.7301 6 15.0001C6 15.2701 5.89 15.5201 5.71 15.7101C5.52 15.8901 5.27 16.0001 5 16.0001ZM0 7.00006V17.0001C0 17.8001 0.32 18.5601 0.88 19.1201C1.44 19.6801 2.2 20.0001 3 20.0001H17C17.8 20.0001 18.56 19.6801 19.12 19.1201C19.68 18.5601 20 17.8001 20 17.0001V7.00006H0Z" fill="#777777"/>
</svg>
