<svg width="11" height="37" viewBox="0 0 11 37" fill="none" xmlns="http://www.w3.org/2000/svg">
<path d="M9.68546 35.583L10.0264 35.6595C9.93594 36.0631 9.8107 36.4249 9.63675 36.7241L9.33756 36.5501L9.03838 36.3762C9.16362 36.1605 9.26798 35.8752 9.35147 35.5134L9.68546 35.583ZM9.78983 32.1388L10.1377 32.111C10.2003 32.8833 10.2143 33.593 10.1934 34.2262L9.8455 34.2123L9.4976 34.1984C9.51848 33.6 9.50455 32.9181 9.44193 32.1597L9.78983 32.1388ZM9.35147 28.7155L9.69243 28.6598C9.81071 29.3834 9.91508 30.0723 9.99858 30.7263L9.65068 30.7681L9.30278 30.8098C9.22625 30.1627 9.12186 29.4809 9.00357 28.7711L9.35147 28.7155ZM8.69048 25.3339L9.03141 25.2574C9.18449 25.9532 9.32365 26.6351 9.44889 27.2961L9.10796 27.3587L8.76701 27.4213C8.64176 26.7673 8.50262 26.0923 8.34955 25.4035L8.69048 25.3339ZM7.88335 21.9732L8.21734 21.8897C8.39129 22.5716 8.55828 23.2465 8.71135 23.9075L8.37042 23.9841L8.02947 24.0606C7.87639 23.3996 7.70941 22.7316 7.53546 22.0567L7.88335 21.9732ZM6.98577 18.6404L7.31976 18.543C7.50763 19.2109 7.6955 19.8789 7.86945 20.5468L7.53546 20.6373L7.20147 20.7278C7.02752 20.0667 6.83967 19.4058 6.6518 18.7378L6.98577 18.6404ZM6.0047 15.3284L6.33869 15.224C6.54047 15.885 6.74224 16.546 6.93706 17.214L6.60309 17.3114L6.2691 17.4088C6.07428 16.7478 5.87945 16.0868 5.67767 15.4328L6.0047 15.3284ZM4.95406 12.0373L5.28109 11.9259C5.49678 12.573 5.71247 13.234 5.92121 13.902L5.58724 14.0064L5.25325 14.1107C5.04451 13.4497 4.8288 12.7887 4.61311 12.1416L4.95406 12.0373ZM3.83382 8.76703L4.16084 8.64875C4.39046 9.28889 4.62008 9.94292 4.84273 10.6109L4.51571 10.7222L4.18868 10.8335C3.95907 10.1656 3.73641 9.51849 3.50679 8.87836L3.83382 8.76703ZM2.63705 5.53158L2.96407 5.40634C3.2076 6.0256 3.45114 6.67964 3.69467 7.3476L3.36765 7.46589L3.04062 7.58419C2.79709 6.91622 2.55355 6.26914 2.31003 5.64988L2.63705 5.53158ZM1.32895 2.33788L1.64903 2.19872C1.90648 2.79014 2.17784 3.43028 2.45616 4.11912L2.13608 4.25132L1.81602 4.38352C1.54466 3.70164 1.27329 3.06846 1.0228 2.484L1.32895 2.33788ZM0.306131 0.160041L0.612282 0C0.758399 0.285276 0.911477 0.598382 1.07151 0.932363L0.758415 1.0785L0.445298 1.22461C0.292223 0.897583 0.139159 0.591435 0 0.313116L0.306131 0.160041Z" fill="#FDC126"/>
</svg>
