<svg width="7" height="28" viewBox="0 0 7 28" fill="none" xmlns="http://www.w3.org/2000/svg">
<path d="M5.56636 26.6142L5.9073 26.6977C5.80293 27.1012 5.67072 27.47 5.48982 27.7761L5.19063 27.6022L4.89144 27.4282C5.0306 27.1917 5.14888 26.8925 5.23237 26.5307L5.56636 26.6142ZM5.77509 23.0935L6.12299 23.0726C6.16474 23.8588 6.16475 24.5894 6.11605 25.2435L5.76815 25.2156L5.42025 25.1878C5.462 24.5685 5.462 23.8658 5.42025 23.1004L5.77509 23.0935ZM5.39242 19.5866L5.73335 19.5379C5.84468 20.2755 5.93514 20.9852 6.00472 21.6671L5.65682 21.7019L5.30892 21.7366C5.23934 21.0687 5.14888 20.3659 5.03755 19.6423L5.39242 19.5866ZM4.7662 16.1077L5.10714 16.0381C5.25325 16.7478 5.38545 17.4505 5.51069 18.1394L5.16976 18.202L4.82882 18.2646C4.71054 17.5828 4.57833 16.8869 4.43221 16.1842L4.7662 16.1077ZM3.98689 12.6565L4.32785 12.573C4.49484 13.2618 4.65487 13.9577 4.80795 14.6535L4.467 14.73L4.12606 14.8065C3.97299 14.1177 3.81295 13.4289 3.64596 12.74L3.98689 12.6565ZM3.11021 9.2332L3.44418 9.14274C3.62508 9.81766 3.80599 10.5065 3.98689 11.2023L3.65293 11.2858L3.31894 11.3693C3.14499 10.6735 2.96409 9.99161 2.78318 9.31669L3.11021 9.2332ZM2.14304 5.83075L2.47703 5.73335C2.67185 6.39435 2.86668 7.07624 3.06846 7.78595L2.73447 7.88335L2.40048 7.98078C2.20566 7.27802 2.00388 6.59613 1.81602 5.94208L2.14304 5.83075ZM1.10631 2.44919L1.4403 2.34483C1.64208 2.97104 1.85776 3.65292 2.07346 4.3835L1.73949 4.48787L1.4055 4.59223C1.18284 3.86861 0.974104 3.18675 0.772323 2.56749L1.10631 2.44919ZM0.327025 0.11133L0.65405 0C0.758419 0.299192 0.869739 0.633176 0.994983 1.00195L0.667958 1.11326L0.340933 1.22459C0.21569 0.855814 0.104369 0.528795 0 0.229603L0.327025 0.11133Z" fill="#D4E7B2"/>
</svg>
