<svg width="4" height="9" viewBox="0 0 4 9" fill="none" xmlns="http://www.w3.org/2000/svg">
<path d="M3.16588 1.39159L2.83189 1.47508C2.73448 1.09935 2.57444 0.737542 2.34483 0.389644L2.63011 0.194822L2.91538 0C3.1937 0.417477 3.38852 0.848867 3.49985 1.30113L3.16588 1.39159ZM2.21959 5.58029L1.92735 5.39938C2.40744 4.63401 2.73447 3.85472 2.86667 3.0963L3.20763 3.15892L3.54856 3.22154C3.39549 4.08432 3.02672 4.94711 2.51183 5.76815L2.21959 5.58029ZM0.236568 7.946L0 7.68855C0.313108 7.38936 0.612299 7.08321 0.890617 6.7701L1.15502 6.9997L1.41943 7.22933C1.12719 7.56331 0.814082 7.89032 0.480101 8.19647L0.236568 7.946Z" fill="#FDC126"/>
</svg>
