<svg width="14" height="8" viewBox="0 0 14 8" fill="none" xmlns="http://www.w3.org/2000/svg">
<path d="M12.9696 1.00195L12.6565 0.848871C12.7957 0.570553 12.914 0.292234 13.0183 0L13.3454 0.118295L13.6724 0.236568C13.5611 0.549676 13.4289 0.855831 13.2758 1.15502L12.9696 1.00195ZM11.0423 3.55553L10.8057 3.30503C11.2719 2.86668 11.6754 2.40049 12.0233 1.91344L12.3086 2.11522L12.5939 2.31701C12.2251 2.84582 11.7868 3.34677 11.2858 3.81991L11.0423 3.55553ZM8.41217 5.38545L8.25215 5.0793C8.83661 4.78011 9.3654 4.45309 9.8455 4.10519L10.0473 4.3835L10.2491 4.66184C9.74115 5.03757 9.17754 5.3785 8.56524 5.69857L8.41217 5.38545ZM5.42025 6.54744L5.32283 6.21345C5.95601 6.03254 6.54743 5.83076 7.10407 5.60811L7.23627 5.92817L7.36847 6.24825C6.79096 6.48482 6.17172 6.69356 5.51071 6.88143L5.42025 6.54744ZM2.2683 7.18062L2.22655 6.83272C2.8806 6.74922 3.49985 6.6379 4.09128 6.51266L4.16086 6.85359L4.23045 7.19452C3.61815 7.32672 2.97801 7.43805 2.31005 7.52155L2.2683 7.18062ZM0.020873 7.3824L0 7.0345C0.320066 7.02059 0.640129 6.9997 0.953236 6.97186L0.981074 7.31976L1.00891 7.66766C0.688846 7.69549 0.368784 7.71638 0.0348025 7.7303L0.020873 7.3824Z" fill="#FDC126"/>
</svg>
