<svg width="7" height="24" viewBox="0 0 7 24" fill="none" xmlns="http://www.w3.org/2000/svg">
<path d="M5.74726 22.4394L6.07428 22.3141C6.19952 22.6551 6.33174 22.9682 6.45698 23.2535L6.1369 23.3926L5.81684 23.5318C5.68464 23.2326 5.55244 22.9056 5.4272 22.5577L5.74726 22.4394ZM4.67575 19.1761L5.00972 19.0787C5.2115 19.7745 5.42024 20.4285 5.62202 21.0408L5.29499 21.1522L4.96797 21.2635C4.75923 20.6443 4.55746 19.9832 4.34872 19.2805L4.67575 19.1761ZM3.7712 15.8572L4.10519 15.7737C4.27914 16.4556 4.46005 17.1235 4.634 17.7706L4.30001 17.8611L3.96602 17.9515C3.78511 17.3044 3.61117 16.6295 3.43027 15.9476L3.7712 15.8572ZM2.95713 12.5104L3.29806 12.4339C3.4581 13.1088 3.61813 13.7768 3.77816 14.4378L3.43723 14.5212L3.09628 14.6047C2.92929 13.9368 2.76927 13.2688 2.60923 12.5869L2.95713 12.5104ZM2.19175 9.15665L2.53268 9.08012C2.6788 9.74113 2.83187 10.416 2.98495 11.0979L2.64401 11.1745L2.30308 11.251C2.15001 10.5691 1.99694 9.8942 1.85082 9.2332L2.19175 9.15665ZM1.47508 5.79597L1.81602 5.72638C1.94822 6.38043 2.09435 7.05535 2.24046 7.74419L1.89951 7.81377L1.55858 7.88335C1.41246 7.18756 1.26635 6.51263 1.13415 5.85859L1.47508 5.79597ZM0.793196 2.42135L1.13415 2.35177C1.25939 2.97799 1.39159 3.65291 1.5377 4.37654L1.19677 4.44612L0.855815 4.51571C0.709698 3.79208 0.570548 3.11019 0.452263 2.48397L0.793196 2.42135ZM0.340933 0.062619L0.681866 0C0.73753 0.299192 0.80015 0.640119 0.876688 1.00889L0.535755 1.07151L0.194822 1.13413C0.125242 0.758399 0.0556636 0.417465 0 0.118273L0.340933 0.062619Z" fill="#EAF3D9"/>
</svg>
