<svg width="43" height="61" viewBox="0 0 43 61" fill="none" xmlns="http://www.w3.org/2000/svg">
<g clip-path="url(#clip0_2079_16965)">
<path d="M41.3815 59.9149V59.567C41.6251 59.567 41.8616 59.5671 42.0982 59.5601L42.1052 59.908L42.1121 60.2559C41.8755 60.2629 41.632 60.2628 41.3815 60.2628V59.9149ZM-13.7116 45.9295L-13.5307 45.6303C-13.3567 45.7346 -13.1549 45.846 -12.9253 45.9712L-13.0853 46.2774L-13.2454 46.5835C-13.4889 46.4583 -13.7046 46.333 -13.8925 46.2217L-13.7116 45.9295ZM-14.3308 45.5746L-14.129 45.2893C-13.9342 45.4285 -13.7533 45.5328 -13.5794 45.6094L-13.7116 45.9295L-13.8438 46.2495C-14.0734 46.1521 -14.303 46.0199 -14.5326 45.8529L-14.3308 45.5746ZM-32.5676 0.0904568C-32.2336 3.40076e-06 -32.2337 0 -32.2337 0V0.00696475C-32.2337 0.0139227 -32.2267 0.0278301 -32.2267 0.041746C-32.2197 0.0695778 -32.2058 0.11132 -32.1919 0.166984C-32.1641 0.278311 -32.1154 0.438346 -32.0527 0.647085L-32.3867 0.744506L-32.7207 0.841907C-32.7833 0.633168 -32.8251 0.46619 -32.8599 0.354862C-32.8738 0.299199 -32.8877 0.257435 -32.8946 0.229603C-32.9016 0.215687 -32.9016 0.20178 -32.9016 0.194822C-32.9016 0.187864 -32.9016 0.187857 -32.9016 0.187857C-32.9016 0.187857 -32.9016 0.187868 -32.5676 0.0904568ZM-13.7116 45.9295L-13.5794 45.6094C-13.5654 45.6163 -13.5446 45.6233 -13.5307 45.6303L-13.7116 45.9295Z" fill="#EAF3D9"/>
</g>
<defs>
<clipPath id="clip0_2079_16965">
<rect width="42.1121" height="60.2627" fill="white"/>
</clipPath>
</defs>
</svg>
