<svg width="18" height="8" viewBox="0 0 18 8" fill="none" xmlns="http://www.w3.org/2000/svg">
<path d="M16.6504 0.528811L16.5738 0.187878C16.9913 0.090467 17.3879 0.0278318 17.7497 0L17.7776 0.347898L17.8054 0.695796C17.4853 0.716669 17.1235 0.779291 16.7339 0.869744L16.6504 0.528811ZM13.0183 1.78123L12.8861 1.46117C13.6376 1.14807 14.3612 0.862789 15.0431 0.633176L15.1544 0.960201L15.2658 1.28723C14.6048 1.50988 13.895 1.78821 13.1505 2.10132L13.0183 1.78123ZM9.51848 3.38158L9.3654 3.06846C10.0612 2.73448 10.757 2.40049 11.4458 2.08739L11.592 2.40745L11.7381 2.72753C11.0562 3.03368 10.3673 3.36766 9.67155 3.70164L9.51848 3.38158ZM6.06734 5.07932L5.91426 4.7662C6.58223 4.43918 7.26409 4.09825 7.96685 3.75035L8.11992 4.06344L8.273 4.37656C7.5772 4.7175 6.88142 5.06539 6.22041 5.39242L6.06734 5.07932ZM2.57443 6.70748L2.44223 6.3874C3.06844 6.123 3.76425 5.80295 4.51571 5.44809L4.66878 5.76119L4.82186 6.0743C4.0704 6.43612 3.36069 6.75618 2.72056 7.02754L2.57443 6.70748ZM0.00694352 7.4798L0 7.1319C0.23657 7.1319 0.577504 7.06233 1.01586 6.92317L1.12022 7.25714L1.22459 7.59113C0.765361 7.73725 0.354848 7.8277 0.0139083 7.8277L0.00694352 7.4798Z" fill="#FDC126"/>
</svg>
