<svg width="24" height="12" viewBox="0 0 24 12" fill="none" xmlns="http://www.w3.org/2000/svg">
<path d="M22.0567 0.904547L21.8619 0.612303C22.1819 0.396607 22.4812 0.194823 22.7456 0L22.9473 0.278314L23.1491 0.556649C22.8777 0.75843 22.5716 0.967164 22.2446 1.18286L22.0567 0.904547ZM18.9535 2.79711L18.7795 2.4979C19.4475 2.11522 20.0737 1.74645 20.6442 1.39856L20.8252 1.69774L21.0061 1.99693C20.4216 2.35179 19.7884 2.72752 19.1205 3.11021L18.9535 2.79711ZM15.7598 4.5366L15.5997 4.23045C16.2607 3.88255 16.9009 3.5416 17.5132 3.20066L17.6802 3.50682L17.8472 3.81297C17.2279 4.15391 16.5808 4.5018 15.9198 4.8497L15.7598 4.5366ZM12.5174 6.18563L12.3643 5.87252C13.0183 5.55245 13.6654 5.22543 14.3056 4.89841L14.4656 5.21152L14.6256 5.52462C13.9855 5.85164 13.3314 6.17866 12.6704 6.49873L12.5174 6.18563ZM9.2332 7.74421L9.08709 7.43109C9.74114 7.1319 10.3952 6.82577 11.0562 6.51266L11.2093 6.82575L11.3623 7.13887C10.7013 7.45198 10.0403 7.76508 9.38627 8.06427L9.2332 7.74421ZM5.90035 9.19842L5.76815 8.87836C6.41524 8.607 7.0832 8.32171 7.76508 8.02252L7.90423 8.3426L8.04339 8.66266C7.36152 8.96186 6.68658 9.25408 6.03254 9.52544L5.90035 9.19842ZM2.51181 10.5204L2.39354 10.1934C3.02671 9.97075 3.70859 9.71332 4.41831 9.42804L4.54354 9.7481L4.66878 10.0682C3.94515 10.3534 3.25633 10.6109 2.6162 10.8405L2.51181 10.5204ZM0.0834921 11.2719L0 10.9309C0.313108 10.8544 0.661013 10.757 1.02979 10.6457L1.13415 10.9797L1.23852 11.3136C0.862786 11.4319 0.500973 11.5293 0.173949 11.6128L0.0834921 11.2719Z" fill="#EAF3D9"/>
</svg>
