<svg width="126" height="113" viewBox="0 0 126 113" fill="none" xmlns="http://www.w3.org/2000/svg">
<path d="M22.9512 84.6853L23.1112 84.9914L22.4919 85.3115L22.3319 85.0053L22.1719 84.6992L22.7911 84.3791L22.9512 84.6853ZM22.5546 84.1147L22.8398 83.9199C22.9651 84.1078 23.0694 84.2539 23.1321 84.3513C23.1669 84.4 23.1877 84.4348 23.2086 84.4626C23.2156 84.4765 23.2225 84.4835 23.2295 84.4905L23.2364 84.4974C23.2364 84.4974 23.2364 84.4974 22.9512 84.6922C22.6659 84.8871 22.6659 84.8871 22.6659 84.8871C22.6659 84.8871 22.6659 84.8801 22.6589 84.8801C22.652 84.8731 22.645 84.8662 22.6381 84.8523C22.6241 84.8244 22.5963 84.7897 22.5615 84.741C22.4919 84.6435 22.3945 84.4974 22.2693 84.3095L22.5546 84.1147ZM3.06532 53.284L3.39234 53.1657C3.45497 53.3397 3.53847 53.5415 3.64284 53.778L3.32276 53.9172L3.0027 54.0564C2.89137 53.8128 2.80093 53.5902 2.73135 53.3953L3.06532 53.284ZM2.85659 52.5952L3.19752 52.5117C3.25319 52.7343 3.31581 52.95 3.39234 53.1657L3.06532 53.284L2.7383 53.4023C2.6548 53.1657 2.58522 52.9292 2.5226 52.6856L2.85659 52.5952ZM9.21615 38.7697L9.3901 39.0689C9.20223 39.1802 9.00742 39.3055 8.8126 39.4516L8.60387 39.1733L8.39512 38.895C8.61081 38.7349 8.82652 38.5958 9.03526 38.4705L9.21615 38.7697ZM9.81455 38.4705L9.95369 38.7906C9.76583 38.8741 9.57796 38.9645 9.3901 39.0689L9.21615 38.7697L9.0422 38.4705C9.25094 38.3453 9.46665 38.2409 9.68234 38.1505L9.81455 38.4705ZM18.1223 42.7636L17.7814 42.8332C17.7396 42.6384 17.691 42.4435 17.6214 42.2487L17.9484 42.1374L18.2754 42.026C18.352 42.2417 18.4146 42.4644 18.4563 42.694L18.1223 42.7636ZM18.2754 43.4176L17.9345 43.5011C17.8718 43.2367 17.8162 43.0141 17.7814 42.8332L18.1223 42.7636L18.4633 42.694C18.4981 42.861 18.5468 43.0697 18.6094 43.3341L18.2754 43.4176ZM31.6625 70.498L31.7251 70.8389C31.4399 70.8877 31.1546 70.8737 30.8693 70.8111L30.9528 70.4702L31.0363 70.1292C31.2381 70.1779 31.426 70.1849 31.6069 70.1501L31.6625 70.498ZM32.2748 70.1849L32.5184 70.4354C32.2957 70.6511 32.0313 70.7902 31.7251 70.8459L31.6625 70.505L31.5999 70.164C31.7669 70.1362 31.906 70.0597 32.0313 69.9414L32.2748 70.1849ZM22.7007 32.0414L22.986 31.8396C23.1112 32.0136 23.2364 32.2153 23.3756 32.4519L23.0764 32.6258L22.7772 32.7998C22.645 32.5771 22.5267 32.3962 22.4224 32.2362L22.7007 32.0414ZM22.3319 31.4778L22.6311 31.2969C22.7424 31.4778 22.8607 31.6587 22.986 31.8396L22.7007 32.0414L22.4154 32.2432C22.2762 32.0483 22.151 31.8535 22.0327 31.6587L22.3319 31.4778ZM26.9868 19.197L27.1886 19.4823C27.0077 19.6075 26.8337 19.7397 26.6598 19.8719L26.451 19.5936L26.2423 19.3153C26.4232 19.1761 26.6041 19.0439 26.792 18.9117L26.9868 19.197ZM27.606 18.7865L27.7869 19.0857C27.5921 19.204 27.3903 19.3292 27.1886 19.4753L26.9868 19.19L26.785 18.9048C27.0007 18.7517 27.2164 18.6125 27.4321 18.4803L27.606 18.7865ZM36.4705 24.0049L36.1504 24.1441C36.053 23.9215 35.9486 23.7058 35.8512 23.4831L36.1643 23.337L36.4774 23.1909C36.5818 23.4135 36.6862 23.6362 36.7836 23.8658L36.4705 24.0049ZM36.7349 24.6312L36.4079 24.7564C36.3174 24.5198 36.2339 24.3181 36.1574 24.1441L36.4774 24.0049L36.7975 23.8658C36.881 24.0536 36.9714 24.2694 37.0619 24.5129L36.7349 24.6312ZM47.144 51.1201L47.1509 51.468C46.8309 51.475 46.5386 51.3149 46.2812 51.0992L46.5038 50.8348L46.7265 50.5704C46.9213 50.7374 47.0535 50.7792 47.137 50.7792L47.144 51.1201ZM47.5475 50.6052L47.8467 50.7792C47.7145 51.0088 47.5614 51.2175 47.3736 51.3845L47.144 51.1271L46.9144 50.8696C47.0327 50.7652 47.144 50.6191 47.2483 50.4452L47.5475 50.6052ZM40.1025 19.9693L40.3669 19.7397C40.5061 19.8998 40.6522 20.0946 40.8053 20.3172L40.513 20.5121L40.2208 20.7069C40.0816 20.5051 39.9564 20.3311 39.8381 20.1989L40.1025 19.9693ZM39.7059 19.4127L40.0051 19.2387C40.1025 19.4057 40.2208 19.5727 40.3669 19.7397L40.1025 19.9693L39.8381 20.1989C39.6642 19.9972 39.518 19.7954 39.3998 19.5866L39.7059 19.4127ZM49.3705 9.57415L49.4819 9.90118C49.2731 9.97076 49.0574 10.0543 48.8347 10.1377L48.7095 9.81072L48.5843 9.4837C48.8139 9.39324 49.0365 9.30974 49.2522 9.24016L49.3705 9.57415ZM50.0663 9.42802L50.0872 9.77592C49.8924 9.78984 49.6906 9.8316 49.4819 9.90118L49.3705 9.57415L49.2592 9.24713C49.5236 9.15668 49.781 9.101 50.0454 9.08709L50.0663 9.42802ZM58.8264 26.0923L58.4785 26.141C58.4507 25.9393 58.4159 25.7236 58.3811 25.4939L58.722 25.4383L59.063 25.3826C59.1047 25.6192 59.1395 25.8419 59.1673 26.0576L58.8264 26.0923ZM58.9099 26.7673L58.562 26.809C58.5341 26.5655 58.5063 26.3428 58.4785 26.141L58.8264 26.0923L59.1743 26.0436C59.2021 26.2524 59.2299 26.482 59.2578 26.7255L58.9099 26.7673ZM64.8868 44.3987L65.019 44.7188C64.7406 44.8371 64.4693 44.8997 64.2049 44.9136L64.184 44.5657L64.1631 44.2178C64.344 44.2108 64.5388 44.1621 64.7476 44.0717L64.8868 44.3987ZM65.4364 44.0021L65.6939 44.2387C65.506 44.4474 65.2834 44.6144 65.0259 44.7188L64.8937 44.3987L64.7615 44.0787C64.9146 44.016 65.0607 43.9117 65.1859 43.7725L65.4364 44.0021ZM60.2945 14.6952L60.6146 14.556C60.6772 14.7021 60.7607 14.9179 60.872 15.2031L60.545 15.3214L60.218 15.4397C60.1136 15.1614 60.0371 14.9596 59.9814 14.8344L60.2945 14.6952ZM60.051 14.0551L60.385 13.9507C60.4545 14.1733 60.5311 14.3751 60.6146 14.556L60.2945 14.6952L59.9744 14.8344C59.884 14.6256 59.7935 14.403 59.717 14.1594L60.051 14.0551ZM63.8709 5.13497L64.017 5.44807C63.8083 5.54548 63.6065 5.64986 63.4117 5.76119L63.2377 5.45503L63.0638 5.14888C63.2725 5.0306 63.4882 4.91926 63.7109 4.81489L63.8709 5.13497ZM64.5389 4.84273L64.6711 5.16279C64.4554 5.24629 64.2397 5.3437 64.017 5.44807L63.8709 5.13497L63.7248 4.82186C63.9544 4.71053 64.184 4.61312 64.4136 4.52267L64.5389 4.84273ZM73.4937 9.28888L73.1598 9.38628C73.0972 9.16362 73.0206 8.94792 72.9441 8.73223L73.2711 8.61395L73.5981 8.49566C73.6816 8.71831 73.7512 8.94794 73.8208 9.18451L73.4937 9.28888ZM73.6607 9.95683L73.3198 10.0264C73.2711 9.78289 73.2154 9.57414 73.1598 9.38628L73.4937 9.28888L73.8277 9.19145C73.8904 9.40019 73.946 9.63676 74.0017 9.88725L73.6607 9.95683ZM79.415 30.5524L79.4289 30.9003C79.1366 30.9142 78.8514 30.8794 78.587 30.8029L78.6844 30.4689L78.7818 30.1349C78.9766 30.1906 79.1784 30.2184 79.4011 30.2045L79.415 30.5524ZM80.0969 30.3715L80.2569 30.6776C80.0064 30.8098 79.7281 30.8864 79.4289 30.9003L79.415 30.5524L79.4011 30.2045C79.6028 30.1975 79.7768 30.1488 79.9368 30.0653L80.0969 30.3715ZM79.2341 7.09016C79.575 7.00666 79.575 7.00667 79.575 7.00667V7.01361C79.575 7.02057 79.582 7.0345 79.582 7.04841C79.5889 7.07624 79.5959 7.11799 79.6098 7.17365C79.6376 7.28498 79.6724 7.45198 79.7211 7.66072L79.3802 7.73724L79.0392 7.81379C78.9905 7.60505 78.9557 7.43805 78.9279 7.32673C78.914 7.27106 78.907 7.22932 78.9001 7.20149C78.9001 7.18757 78.8931 7.17364 78.8931 7.16669C78.8931 7.15973 78.8931 7.15974 78.8931 7.15974C78.8931 7.15974 78.8931 7.1667 79.2341 7.09016ZM79.0323 6.45002L79.3663 6.35262C79.4219 6.54744 79.4706 6.70051 79.5124 6.80488C79.5332 6.86054 79.5472 6.90229 79.5541 6.93012C79.5611 6.94403 79.5611 6.951 79.568 6.95796C79.568 6.96491 79.568 6.96492 79.568 6.96492C79.568 6.96492 79.568 6.96491 79.241 7.08319C78.914 7.20148 78.914 7.20149 78.914 7.20149V7.19452C78.914 7.18757 78.907 7.17366 78.9001 7.15974C78.8862 7.13191 78.8722 7.0832 78.8583 7.02754C78.8235 6.91621 78.7679 6.75616 78.7122 6.55438L79.0323 6.45002ZM79.3175 0.904526L79.4706 1.21764C79.3245 1.28722 79.1993 1.39854 79.1019 1.5377L78.8166 1.34288L78.5313 1.14806C78.6914 0.918446 78.9001 0.723617 79.1645 0.598374L79.3175 0.904526ZM79.9368 0.667958L80.0551 0.994983C79.8533 1.07152 79.6515 1.14807 79.4428 1.22461L79.3175 0.897582L79.1923 0.570557C79.408 0.487062 79.6098 0.410527 79.8185 0.33399L79.9368 0.667958ZM87.7993 5.72641L87.4514 5.76815C87.4236 5.55245 87.3957 5.35066 87.3749 5.14888L87.7228 5.10017L88.0707 5.05148C88.0985 5.25326 88.1263 5.462 88.1542 5.67769L87.7993 5.72641ZM87.8758 6.41524L87.5279 6.45002C87.5071 6.2204 87.4792 5.99776 87.4514 5.76815L87.7993 5.72641L88.1472 5.68464C88.175 5.91425 88.2029 6.14388 88.2237 6.37349L87.8758 6.41524ZM91.0278 18.5986L91.0347 18.9465C90.7147 18.9535 90.4225 18.8908 90.1581 18.7586L90.3042 18.4455L90.4503 18.1324C90.6173 18.209 90.8051 18.2507 91.0208 18.2507L91.0278 18.5986ZM91.6958 18.3551L91.9254 18.6195C91.6819 18.8352 91.3757 18.9465 91.0278 18.9535L91.0208 18.6056L91.0139 18.2577C91.2087 18.2577 91.3479 18.1951 91.4592 18.0977L91.6958 18.3551ZM91.1391 0.709704L91.487 0.716669C91.4801 0.939323 91.4801 1.16894 91.4801 1.39856H91.1322H90.7843C90.7843 1.16199 90.7843 0.932373 90.7912 0.70276L91.1391 0.709704ZM91.2017 0.0626191L91.5427 0.125238C91.5079 0.313103 91.487 0.50793 91.487 0.716669L91.1391 0.709704L90.7912 0.70276C90.7982 0.459232 90.819 0.222655 90.8608 0L91.2017 0.0626191ZM111.484 3.97299L111.136 4.01473C111.108 3.81991 111.067 3.62509 111.011 3.43027L111.345 3.3259L111.679 3.22154C111.749 3.45115 111.804 3.68771 111.832 3.92428L111.484 3.97299ZM111.526 4.64094L111.178 4.634C111.178 4.43222 111.171 4.22347 111.143 4.01473L111.491 3.97299L111.839 3.93124C111.867 4.17477 111.881 4.41134 111.881 4.64791L111.526 4.64094ZM98.4937 18.8352L98.1527 18.7586C98.2084 18.5151 98.2919 18.2786 98.4171 18.0489L98.7233 18.209L99.0294 18.369C98.932 18.5569 98.8694 18.7378 98.8277 18.9117L98.4937 18.8352ZM98.6328 19.4892L98.4241 19.7676C98.104 19.531 98.0692 19.1413 98.1458 18.7656L98.4867 18.8421L98.8277 18.9187C98.7998 19.0509 98.7998 19.1274 98.8138 19.1692C98.8207 19.2039 98.8346 19.2109 98.8416 19.2179L98.6328 19.4892ZM118.581 12.8583L118.352 13.1227C118.226 13.0114 118.052 12.9279 117.83 12.8722L117.913 12.5313L117.997 12.1903C118.303 12.2599 118.581 12.3921 118.811 12.5869L118.581 12.8583ZM119.096 13.3732L118.832 13.6028C118.693 13.4428 118.533 13.2827 118.352 13.1227L118.581 12.8583L118.811 12.5939C119.013 12.7679 119.194 12.9557 119.361 13.1436L119.096 13.3732ZM115.729 22.5716L115.52 22.2933C115.708 22.1541 115.889 22.015 116.063 21.8689L116.285 22.1402L116.508 22.4116C116.32 22.5646 116.132 22.7108 115.937 22.8569L115.729 22.5716ZM115.13 22.9613L114.949 22.6621C115.179 22.5229 115.367 22.3977 115.52 22.2933L115.729 22.5716L115.937 22.8499C115.763 22.9821 115.555 23.1143 115.311 23.2604L115.13 22.9613ZM90.9582 36.2649L90.6938 36.4875C90.4503 36.2022 90.3877 35.8613 90.4851 35.5134L90.819 35.6038L91.153 35.6943C91.1182 35.8335 91.1391 35.9309 91.2226 36.0283L90.9582 36.2649ZM91.5288 36.6615L91.3966 36.9815C91.1183 36.8632 90.8817 36.7102 90.6938 36.4945L90.9582 36.2718L91.2226 36.0492C91.32 36.1605 91.4592 36.2649 91.661 36.3484L91.5288 36.6615ZM116.744 28.305L116.918 28.6041C116.73 28.7155 116.529 28.8268 116.32 28.9451L116.153 28.6389L115.986 28.3328C116.195 28.2215 116.39 28.1032 116.57 27.9988L116.744 28.305ZM117.391 27.9571L117.545 28.2702C117.343 28.3676 117.134 28.4789 116.918 28.6041L116.744 28.305L116.57 28.0058C116.8 27.8736 117.023 27.7553 117.245 27.6509L117.391 27.9571ZM123.932 36.7519L123.591 36.6754C123.64 36.4597 123.675 36.237 123.709 36.0074L124.05 36.0561L124.391 36.1048C124.356 36.3484 124.315 36.5849 124.266 36.8215L123.932 36.7519ZM123.765 37.4269L123.431 37.3294C123.494 37.1068 123.549 36.8911 123.598 36.6684L123.939 36.745L124.28 36.8215C124.231 37.0581 124.169 37.2877 124.106 37.5243L123.765 37.4269ZM111.317 46.4165L111.296 46.0686C111.547 46.0547 111.797 46.0338 112.041 46.013L112.076 46.3609L112.11 46.7088C111.86 46.7296 111.602 46.7505 111.338 46.7644L111.317 46.4165ZM110.587 46.4652L110.559 46.1173C110.823 46.0965 111.067 46.0825 111.296 46.0686L111.317 46.4165L111.338 46.7644C111.115 46.7783 110.879 46.7923 110.621 46.8131L110.587 46.4652ZM76.437 54.7104L76.096 54.6339C76.1587 54.3416 76.3813 54.1051 76.6318 53.9033L76.8475 54.1746L77.0632 54.446C76.8405 54.62 76.7849 54.7313 76.7709 54.78L76.437 54.7104ZM76.8266 55.2323L76.6735 55.5454C76.4996 55.4619 76.3395 55.3505 76.2282 55.2044C76.1099 55.0444 76.0543 54.8496 76.103 54.6339L76.4439 54.7104L76.7849 54.7869C76.7849 54.7939 76.7849 54.787 76.7849 54.78C76.7849 54.773 76.7849 54.78 76.7918 54.7869C76.8127 54.8148 76.8614 54.8635 76.9867 54.9191L76.8266 55.2323ZM114.622 51.955L114.72 52.289C114.497 52.3517 114.26 52.4143 114.017 52.4769L113.926 52.1429L113.836 51.8089C114.073 51.7463 114.302 51.6837 114.525 51.6211L114.622 51.955ZM115.276 51.7811L115.36 52.1221C115.151 52.1708 114.935 52.2334 114.72 52.296L114.622 51.962L114.525 51.628C114.747 51.5654 114.97 51.5028 115.193 51.4541L115.276 51.7811ZM125.553 60.5273L125.212 60.4507C125.254 60.2559 125.289 60.0541 125.324 59.8523L125.665 59.901L126.005 59.9498C125.971 60.1654 125.936 60.3811 125.887 60.5968L125.553 60.5273ZM125.379 61.1743L125.045 61.0769C125.108 60.8682 125.164 60.6595 125.205 60.4507L125.546 60.5273L125.887 60.6038C125.838 60.8334 125.776 61.0561 125.713 61.2857L125.379 61.1743ZM110.197 68.9116V68.5637C110.44 68.5637 110.684 68.5637 110.921 68.5567L110.928 68.9046L110.934 69.2525C110.691 69.2595 110.447 69.2595 110.197 69.2595V68.9116ZM109.487 68.9046L109.494 68.5567C109.745 68.5637 109.981 68.5637 110.204 68.5637V68.9116V69.2595C109.974 69.2595 109.738 69.2595 109.487 69.2525V68.9046ZM65.6939 69.6074L65.3529 69.5308C65.4156 69.2317 65.6034 68.9881 65.847 68.7933L66.0627 69.0647L66.2783 69.336C66.1183 69.4682 66.0487 69.5795 66.0279 69.677L65.6939 69.6074ZM65.847 70.2475L65.5617 70.4493C65.3669 70.1779 65.2764 69.8648 65.3529 69.5308L65.6939 69.6074L66.0348 69.6839C66.0139 69.7953 66.0279 69.9066 66.1322 70.0527L65.847 70.2475ZM108.2 74.6797L108.207 75.0276C107.97 75.0276 107.727 75.0346 107.483 75.0346V74.6867V74.3388C107.734 74.3388 107.97 74.3318 108.207 74.3318L108.2 74.6797ZM108.896 74.6867L108.889 75.0346C108.666 75.0276 108.437 75.0276 108.2 75.0276L108.193 74.6797L108.186 74.3318C108.43 74.3318 108.666 74.3318 108.896 74.3388V74.6867ZM108.652 89.9316L108.437 89.6602C108.597 89.535 108.764 89.3958 108.938 89.2497L109.167 89.5141L109.397 89.7785C109.223 89.9316 109.042 90.0777 108.868 90.2169L108.652 89.9316ZM108.117 90.3421L107.908 90.0638C108.089 89.9316 108.27 89.7924 108.437 89.6602L108.652 89.9316L108.868 90.2029C108.687 90.3421 108.506 90.4813 108.318 90.6204L108.117 90.3421ZM89.0865 94.6491L89.1909 94.3151C89.4135 94.3847 89.6362 94.4473 89.8589 94.5099L89.7684 94.8439L89.678 95.1779C89.4414 95.1153 89.2118 95.0457 88.9752 94.9761L89.0865 94.6491ZM88.4116 94.4264L88.5229 94.0994C88.7734 94.1829 88.9961 94.2594 89.1909 94.322L89.0865 94.656L88.9822 94.99C88.7734 94.9274 88.5508 94.8509 88.3003 94.7604L88.4116 94.4264ZM46.6152 81.3176L46.3299 81.1158C46.5108 80.8654 46.803 80.7262 47.1161 80.6497L47.1996 80.9906L47.2831 81.3315C47.0466 81.3872 46.9422 81.4707 46.9004 81.5264L46.6152 81.3176ZM46.483 81.9508L46.142 82.0204C46.0794 81.7003 46.1351 81.3872 46.3299 81.1158L46.6152 81.3176L46.9004 81.5194C46.8309 81.6238 46.803 81.7351 46.8309 81.8812L46.483 81.9508ZM79.8046 98.1559L79.7002 98.4899C79.4706 98.4203 79.241 98.3438 79.0114 98.2672L79.1227 97.9332L79.2341 97.5992C79.4637 97.6758 79.6933 97.7454 79.9159 97.8219L79.8046 98.1559ZM80.5213 98.3925L80.41 98.7195C80.1803 98.6429 79.9438 98.5595 79.7072 98.4829L79.8116 98.1489L79.9159 97.8149C80.1664 97.8915 80.403 97.975 80.6396 98.0585L80.5213 98.3925ZM78.3921 111.626L78.2599 111.306C78.4826 111.216 78.6983 111.126 78.921 111.021L79.0601 111.341L79.1993 111.661C78.9697 111.759 78.747 111.856 78.5174 111.954L78.3921 111.626ZM77.759 111.877L77.6337 111.55C77.8355 111.473 78.0443 111.39 78.2599 111.306L78.3921 111.626L78.5244 111.947C78.3087 112.037 78.093 112.121 77.8842 112.197L77.759 111.877ZM62.8829 110.332L62.9942 110.005C63.2168 110.082 63.4395 110.158 63.6552 110.235L63.5369 110.562L63.4186 110.889C63.2029 110.812 62.9872 110.736 62.7646 110.659L62.8829 110.332ZM62.201 110.068L62.3332 109.748C62.5837 109.852 62.8063 109.936 62.9872 109.998L62.8759 110.325L62.7646 110.652C62.5558 110.583 62.3262 110.492 62.0618 110.381L62.201 110.068ZM25.2334 88.6235C25.4143 88.3243 25.4143 88.3243 25.4143 88.3243C25.4143 88.3243 25.4212 88.3243 25.4212 88.3313C25.4282 88.3382 25.4352 88.3382 25.4491 88.3521C25.4769 88.366 25.5117 88.3939 25.5673 88.4217C25.6717 88.4843 25.8248 88.5817 26.0266 88.707L25.8457 89.0062L25.6648 89.3054C25.463 89.1801 25.3099 89.0897 25.2055 89.0201C25.1568 88.9853 25.1151 88.9644 25.0872 88.9505C25.0733 88.9435 25.0664 88.9366 25.0594 88.9296L25.0525 88.9227C25.0525 88.9227 25.0455 88.9227 25.2334 88.6235ZM24.6489 88.9714L24.468 88.6722L25.0455 88.3243L25.2264 88.6235L25.4073 88.9227L24.8298 89.2706L24.6489 88.9714ZM4.08814 101.315L3.90725 101.016L4.48475 100.668L4.66566 100.967L4.84656 101.266L4.26905 101.614L4.08814 101.315ZM3.70546 100.821L3.97681 100.605L4.35951 101.099L4.08814 101.315L3.81679 101.53L3.43409 101.036L3.70546 100.821ZM0.344757 96.5069L0.616128 96.2911L0.998807 96.7852L0.727457 97.0009L0.456087 97.2166L0.0734079 96.7226L0.344757 96.5069ZM0.957061 96.1868L1.1171 96.4929L0.497833 96.813L0.337814 96.5069L0.177773 96.2007L0.797041 95.8806L0.957061 96.1868ZM22.9512 84.6853L23.2364 84.4905C23.2921 84.5739 23.313 84.6714 23.2851 84.7688C23.2643 84.8662 23.1947 84.9497 23.1112 84.9914L22.9512 84.6853ZM47.144 51.1201L47.3736 51.3775C47.311 51.4332 47.2275 51.468 47.144 51.468V51.1201ZM79.2341 7.09016L79.5611 6.97186C79.568 6.98578 79.5681 6.99971 79.575 7.00667L79.2341 7.09016ZM79.3175 0.904526L79.1645 0.591431C79.1714 0.584473 79.1854 0.584459 79.1923 0.577501L79.3175 0.904526ZM25.2334 88.6235L25.0525 88.3243C25.1638 88.2547 25.3029 88.2617 25.4143 88.3243L25.2334 88.6235ZM4.08814 101.315L4.26905 101.614C4.11598 101.704 3.92116 101.67 3.81679 101.53L4.08814 101.315ZM0.344757 96.5069L0.0734079 96.7226C0.0107863 96.6391 -0.0170429 96.5347 0.0107889 96.4373C0.0316627 96.3329 0.101228 96.2494 0.191681 96.2007L0.344757 96.5069Z" fill="#FDC126"/>
</svg>
