<svg width="18" height="45" viewBox="0 0 18 45" fill="none" xmlns="http://www.w3.org/2000/svg">
<path d="M17.0609 43.0489L17.3253 42.8193C17.5549 43.0837 17.7845 43.3133 18.0002 43.5011L17.7706 43.7656L17.541 44.0299C17.2975 43.8142 17.047 43.5638 16.8035 43.2855L17.0609 43.0489ZM15.1266 40.2866L15.4258 40.1057C15.7945 40.7249 16.1564 41.2885 16.5112 41.7825L16.226 41.9843L15.9407 42.1861C15.5719 41.6712 15.1962 41.0937 14.8204 40.4605L15.1266 40.2866ZM13.5193 37.3086L13.8324 37.1555C14.1455 37.7817 14.4586 38.3801 14.7648 38.9437L14.4586 39.1107L14.1525 39.2777C13.8394 38.7071 13.5263 38.1018 13.2062 37.4616L13.5193 37.3086ZM12.086 34.2471L12.406 34.1079C12.6913 34.7411 12.9696 35.3603 13.248 35.9518L12.9348 36.0979L12.6217 36.244C12.3364 35.6456 12.0581 35.0264 11.7728 34.3862L12.086 34.2471ZM10.764 31.1368L11.084 31.0047C11.3415 31.6378 11.6059 32.2641 11.8703 32.8694L11.5502 33.0085L11.2301 33.1477C10.9657 32.5354 10.7013 31.9092 10.4439 31.2691L10.764 31.1368ZM9.51151 27.9988L9.83854 27.8736C10.0821 28.5068 10.3326 29.1399 10.5761 29.7592L10.256 29.8914L9.93596 30.0236C9.68547 29.4043 9.44194 28.7712 9.19145 28.131L9.51151 27.9988ZM8.32171 24.8399L8.64873 24.7216C8.8853 25.3548 9.11491 25.988 9.35844 26.6211L9.03141 26.7464L8.70441 26.8716C8.46784 26.2385 8.23125 25.6053 7.99468 24.9651L8.32171 24.8399ZM7.18062 21.6601L7.50764 21.5418C7.73029 22.175 7.95989 22.8151 8.18951 23.4483L7.86248 23.5666L7.53546 23.6849C7.30584 23.0517 7.07624 22.4116 6.85359 21.7714L7.18062 21.6601ZM6.07428 18.4664L6.40131 18.3551C6.617 18.9883 6.83967 19.6284 7.06232 20.2685L6.7353 20.3799L6.40827 20.4912C6.18562 19.8511 5.96297 19.2109 5.74728 18.5708L6.07428 18.4664ZM5.00277 15.2588L5.3298 15.1475C5.53854 15.7807 5.75422 16.4208 5.96992 17.0679L5.64289 17.1792L5.31587 17.2905C5.10017 16.6434 4.88449 15.9963 4.67575 15.3632L5.00277 15.2588ZM3.96602 12.0512L4.30001 11.9468C4.50179 12.58 4.71054 13.2271 4.91928 13.8811L4.58529 13.9855L4.2513 14.0899C4.0356 13.4358 3.83383 12.7887 3.62509 12.1555L3.96602 12.0512ZM2.95017 8.8227L3.28416 8.71832C3.47898 9.34453 3.68076 9.99163 3.88949 10.6596L3.5555 10.764L3.22154 10.8683C3.0128 10.2073 2.81102 9.55328 2.6162 8.92707L2.95017 8.8227ZM1.95518 5.5942L2.28917 5.4968C2.47704 6.11606 2.67184 6.76313 2.88058 7.43806L2.54661 7.54244L2.21262 7.64681C2.00389 6.97189 1.80906 6.31782 1.62119 5.69857L1.95518 5.5942ZM0.988018 2.35179L1.32201 2.25439C1.49596 2.84582 1.69077 3.49289 1.89951 4.19565L1.56554 4.29307L1.23155 4.39049C1.02281 3.68774 0.827998 3.04063 0.65405 2.44225L0.988018 2.35179ZM0.333968 0.0974216L0.667958 0C0.751453 0.285276 0.841902 0.605345 0.946272 0.960201L0.612303 1.05762L0.278314 1.15502C0.173945 0.800167 0.0834955 0.480098 0 0.194822L0.333968 0.0974216Z" fill="#EAF3D9"/>
</svg>
