<svg width="10" height="26" viewBox="0 0 10 26" fill="none" xmlns="http://www.w3.org/2000/svg">
<path d="M8.7879 24.3459L9.09405 24.1719C9.268 24.485 9.44196 24.7564 9.60199 24.986L9.31671 25.1878L9.03143 25.3896C8.85053 25.1321 8.66961 24.8399 8.48175 24.5129L8.7879 24.3459ZM7.37544 21.3331L7.69552 21.2009C7.96688 21.8619 8.23127 22.4672 8.48871 23.01L8.1756 23.1561L7.8625 23.3022C7.5981 22.7455 7.32673 22.1193 7.04841 21.4583L7.37544 21.3331ZM6.18563 18.209L6.51266 18.0907C6.74227 18.7378 6.97884 19.364 7.20845 19.9624L6.88143 20.0876L6.5544 20.2129C6.32479 19.6075 6.08822 18.9813 5.85861 18.3273L6.18563 18.209ZM5.10019 15.057L5.42722 14.9457C5.64291 15.5858 5.85164 16.219 6.06734 16.8383L5.74031 16.9496L5.41329 17.0609C5.19759 16.4416 4.9819 15.8015 4.7662 15.1614L5.10019 15.057ZM4.07041 11.8772L4.4044 11.7729C4.60618 12.406 4.80796 13.0462 5.0167 13.6793L4.68271 13.7837L4.34872 13.8881C4.13998 13.2549 3.93822 12.6148 3.73644 11.9816L4.07041 11.8772ZM3.06846 8.69744L3.40245 8.59308C3.59727 9.2193 3.79904 9.85943 4.00082 10.5065L3.66686 10.6109L3.33287 10.7152C3.13109 10.0682 2.92932 9.42803 2.73449 8.80181L3.06846 8.69744ZM2.08739 5.51071L2.42138 5.40632C2.6162 6.02558 2.81103 6.66571 3.01281 7.31976L2.67882 7.42415L2.34485 7.52851C2.14307 6.87446 1.94128 6.23433 1.75342 5.61508L2.08739 5.51071ZM1.0785 2.32395L1.41246 2.21262C1.60729 2.80405 1.80907 3.44418 2.02477 4.12606L1.6908 4.23043L1.35681 4.33481C1.14111 3.65989 0.939336 3.01975 0.751471 2.42832L1.0785 2.32395ZM0.320081 0.118295L0.647106 0C0.751475 0.285276 0.862789 0.605353 0.981074 0.946293L0.654049 1.0576L0.327025 1.16893C0.208739 0.83495 0.104369 0.521844 0 0.236568L0.320081 0.118295Z" fill="#FDC126"/>
</svg>
