<svg width="55" height="4" viewBox="0 0 55 4" fill="none" xmlns="http://www.w3.org/2000/svg">
<path d="M53.0127 2.04564L52.9779 1.69774C53.3118 1.66295 53.6528 1.62816 53.9868 1.58641L54.0285 1.93431L54.0703 2.28221C53.7363 2.317 53.3953 2.35875 53.0614 2.39354L53.0127 2.04564ZM49.645 2.35876L49.6172 2.01086C50.2921 1.9552 50.967 1.89257 51.6419 1.82995L51.6767 2.17784L51.7115 2.52574C51.0366 2.58836 50.3617 2.65099 49.6798 2.70665L49.645 2.35876ZM46.2704 2.60229L46.2495 2.25439C46.9245 2.21264 47.5994 2.16393 48.2743 2.11522L48.3021 2.46312L48.33 2.81102C47.655 2.85973 46.9732 2.90844 46.2982 2.95019L46.2704 2.60229ZM42.8888 2.77624L42.8749 2.42834C43.5498 2.40051 44.2248 2.36571 44.9066 2.33092L44.9275 2.67882L44.9484 3.02671C44.2665 3.0615 43.5916 3.0963 42.9097 3.12414L42.8888 2.77624ZM39.5073 2.89451L39.5003 2.54661C40.1752 2.52574 40.8502 2.50487 41.532 2.48399L41.5459 2.83189L41.5599 3.17979C40.878 3.20762 40.2031 3.22849 39.5212 3.24241L39.5073 2.89451ZM36.1257 2.95713L36.1187 2.60923C36.7937 2.60228 37.4686 2.59533 38.1505 2.58142L38.1574 2.92931L38.1644 3.27721C37.4825 3.29113 36.8006 3.29807 36.1257 3.30503V2.95713ZM32.7372 2.9641V2.6162C33.4121 2.6162 34.087 2.6162 34.7689 2.6162V2.9641V3.31199C34.087 3.31199 33.4051 3.31199 32.7302 3.31199L32.7372 2.9641ZM29.3556 2.92931L29.3626 2.58142C30.0375 2.59533 30.7124 2.60228 31.3943 2.60923L31.3873 2.95713L31.3804 3.30503C30.6985 3.29807 30.0166 3.29113 29.3417 3.27721L29.3556 2.92931ZM25.974 2.83886L25.988 2.49096C26.6559 2.51183 27.3378 2.5327 28.0197 2.54661L28.0127 2.89451L28.0058 3.24241C27.3239 3.22849 26.642 3.20763 25.9671 3.18676L25.974 2.83886ZM22.5855 2.70665L22.5994 2.35876C23.2674 2.38659 23.9493 2.42138 24.6312 2.44225L24.6172 2.79015L24.6033 3.13804C23.9145 3.11021 23.2396 3.08238 22.5646 3.05455L22.5855 2.70665ZM19.2109 2.51878L19.2318 2.17088C19.8997 2.21263 20.5747 2.24742 21.2635 2.28221L21.2426 2.63011L21.2218 2.978C20.5329 2.94321 19.858 2.90148 19.1831 2.85973L19.2109 2.51878ZM15.8293 2.29614L15.8572 1.94824C16.5182 1.99695 17.2001 2.04565 17.8889 2.09435L17.868 2.44225L17.8472 2.79015C17.1583 2.74144 16.4764 2.6997 15.8085 2.64404L15.8293 2.29614ZM12.4617 2.0178L12.4965 1.6699C13.1575 1.73253 13.8324 1.78819 14.5282 1.84385L14.5004 2.19175L14.4725 2.53965C13.7767 2.48399 13.1018 2.42832 12.4339 2.3657L12.4617 2.0178ZM9.08709 1.67687L9.12187 1.32897C9.77592 1.39855 10.4508 1.46814 11.1466 1.53772L11.1119 1.88562L11.0771 2.23352C10.3813 2.16394 9.69939 2.09435 9.04534 2.02477L9.08709 1.67687ZM5.73335 1.28026L5.78206 0.932363C6.42219 1.01586 7.09014 1.09937 7.7929 1.18286L7.75115 1.53076L7.70941 1.87866C7.00665 1.79516 6.33173 1.71165 5.6916 1.62816L5.73335 1.28026ZM2.38657 0.786252L2.44223 0.445319C3.05453 0.549689 3.7225 0.65406 4.44612 0.751471L4.39743 1.0924L4.34872 1.43334C3.62509 1.32897 2.95018 1.22461 2.33092 1.12024L2.38657 0.786252ZM0.0695838 0.340954L0.146111 0C0.445303 0.0626216 0.765365 0.132207 1.12022 0.201787L1.0576 0.54272L0.994983 0.883674C0.633169 0.814094 0.299192 0.744509 0 0.681887L0.0695838 0.340954Z" fill="#EAF3D9"/>
</svg>
