<svg width="65" height="117" viewBox="0 0 65 117" fill="none" xmlns="http://www.w3.org/2000/svg">
<g clip-path="url(#clip0_2079_16916)">
<path d="M-38.6418 87.9851L-61.2551 99.8067L-57.5117 104.615L-36.3665 91.9233C-36.3665 91.9233 -4.31817 111.726 1.28298 113.632C6.88413 115.532 10.1892 117.626 16.7923 114.926C23.3954 112.22 31.564 105.728 18.2047 101.456C4.84546 97.1835 -17.1347 87.6024 -14.9917 84.6175C-12.8417 81.6395 20.6818 95.7919 27.4797 97.9489C34.2776 100.113 42.2166 97.0096 47.0454 93.2314C51.8743 89.4532 58.6513 77.8334 46.5932 77.9796C34.535 78.1257 3.23121 76.8524 4.08703 72.9072C4.94286 68.962 39.0716 72.2184 48.5971 72.2184C58.1225 72.2114 62.9513 68.4402 63.9463 63.834C64.9413 59.2279 62.6382 52.5274 53.0223 55.2688C43.4064 58.0102 14.2665 60.6543 14.8371 58.0172C15.4076 55.3801 42.1053 50.1478 49.7173 49.7233C57.3293 49.3058 61.3371 44.6649 62.339 40.0587C63.341 35.4525 61.1701 28.091 55.1445 31.6117C49.1189 35.1255 31.7588 42.3896 29.3583 39.5786C26.9578 36.7606 50.5453 28.5503 54.1287 25.8854C57.712 23.2205 60.1473 18.9205 56.9884 16.1721C53.8225 13.4167 36.038 26.101 36.8938 22.1559C37.7496 18.2107 50.7123 13.8968 49.8912 7.28674C49.0702 0.67668 29.6784 -3.51896 29.5462 4.03042C29.414 11.5798 32.4477 21.8845 29.4279 21.9193C26.4151 21.9541 26.93 14.9474 26.1994 9.0471C25.4688 3.14675 24.5573 1.57426 17.7177 4.22524C15.7555 5.17848 17.6342 10.4039 17.6342 10.4039C17.6342 10.4039 23.124 33.6435 17.8151 33.8661C12.5062 34.0957 13.195 17.0209 11.8939 12.6026C10.5927 8.18432 7.2877 6.08998 2.26405 8.44873C-2.75959 10.8075 -2.32125 15.7267 -1.31235 18.0089C-0.303442 20.2912 7.96957 45.7434 3.27991 47.7125C-1.40975 49.6816 -2.09858 34.3741 -2.78046 29.4061C-3.45539 24.4381 -7.3588 11.1902 -12.2363 12.8879C-17.1138 14.5856 -24.7189 19.6023 -21.5043 23.2831C-18.2897 26.9638 -10.7404 51.1079 -14.4698 54.4338C-17.4826 54.4686 -23.1186 31.8901 -25.1364 27.3187C-27.1542 22.7473 -30.1739 19.3379 -34.6201 22.5107C-39.0662 25.6836 -42.3643 30.4776 -38.9062 35.3621C-35.455 40.2466 -24.7259 72.8794 -29.9443 73.8187C-35.1628 74.758 -42.7609 49.6816 -43.4845 46.0843C-44.2081 42.4801 -48.9465 40.0796 -52.3907 42.0904C-55.8349 44.1013 -60.4202 51.3723 -58.5415 56.6047C-56.649 61.8093 -38.6418 87.9851 -38.6418 87.9851Z" fill="#3BB770"/>
</g>
<defs>
<clipPath id="clip0_2079_16916">
<rect width="64.1592" height="116.214" fill="white"/>
</clipPath>
</defs>
</svg>
