<svg width="6" height="12" viewBox="0 0 6 12" fill="none" xmlns="http://www.w3.org/2000/svg">
<path d="M4.13065 0.890617L3.89408 0.633176C4.13065 0.41748 4.37419 0.201781 4.62468 0L4.84732 0.264406L5.06997 0.528811C4.82645 0.730592 4.59683 0.932376 4.36721 1.14111L4.13065 0.890617ZM2.02935 3.23544L1.74407 3.03366C2.11284 2.51181 2.53032 2.01086 2.98259 1.53076L3.23309 1.76733L3.48356 2.00389C3.05217 2.46312 2.65556 2.94321 2.30767 3.43027L2.02935 3.23544ZM0.630796 6.0395L0.296828 5.9421C0.477734 5.31588 0.735162 4.71055 1.06219 4.11912L1.36834 4.2861L1.67449 4.45309C1.3753 5.00277 1.13178 5.5594 0.964785 6.12996L0.630796 6.0395ZM0.456847 9.15667L0.115914 9.21929C-0.00932919 8.54437 -0.0301929 7.87641 0.0393867 7.22236L0.387284 7.25714L0.735182 7.29194C0.672561 7.88337 0.693417 8.48175 0.804745 9.08709L0.456847 9.15667ZM1.20135 11.2232L0.895202 11.3902C0.735169 11.091 0.596005 10.7848 0.47772 10.4856L0.804745 10.3604L1.13177 10.2351C1.23614 10.5065 1.36139 10.7848 1.51447 11.0631L1.20135 11.2232Z" fill="#FDC126"/>
</svg>
