<svg width="41" height="5" viewBox="0 0 41 5" fill="none" xmlns="http://www.w3.org/2000/svg">
<path d="M39.5351 4.37656V4.02866C39.883 4.02866 40.217 4.02866 40.551 4.02866V4.37656V4.72446C40.2239 4.72446 39.883 4.72446 39.5351 4.72446V4.37656ZM36.1466 4.34178L36.1535 3.99388C36.8493 4.0078 37.5312 4.01474 38.1783 4.0217V4.3696V4.71749C37.5242 4.71053 36.8493 4.70359 36.1466 4.68968V4.34178ZM32.7441 4.26523L32.7511 3.91733C33.4469 3.93821 34.1288 3.95213 34.7898 3.96604L34.7828 4.31394L34.7759 4.66184C34.1079 4.64792 33.426 4.634 32.7302 4.61313L32.7441 4.26523ZM29.3487 4.1539L29.3626 3.806C30.0445 3.83383 30.7263 3.85471 31.3943 3.87559L31.3804 4.22348L31.3665 4.57138C30.6985 4.55051 30.0166 4.52963 29.3278 4.5018L29.3487 4.1539ZM25.9532 4.00779L25.9671 3.65989C26.649 3.69468 27.3239 3.72252 27.9988 3.75035L27.9849 4.09825L27.971 4.44614C27.2961 4.41831 26.6142 4.39048 25.9323 4.35569L25.9532 4.00779ZM22.5577 3.82688L22.5786 3.47898C23.2535 3.52073 23.9354 3.55552 24.6103 3.59031L24.5894 3.93821L24.5685 4.2861C23.8936 4.25131 23.2117 4.20956 22.5299 4.17477L22.5577 3.82688ZM19.1692 3.60424L19.197 3.25634C19.8719 3.30504 20.5468 3.35374 21.2287 3.39549L21.2079 3.74338L21.187 4.09128C20.5051 4.04953 19.8302 4.00084 19.1553 3.95213L19.1692 3.60424ZM15.7806 3.33287L15.8085 2.98497C16.4764 3.04063 17.1514 3.09629 17.8332 3.15195L17.8054 3.49985L17.7776 3.84775C17.0957 3.79208 16.4138 3.73643 15.7459 3.68076L15.7806 3.33287ZM12.3991 3.00584L12.4339 2.65794C13.0949 2.72752 13.7698 2.79709 14.4586 2.86667L14.4238 3.21457L14.389 3.56247C13.7002 3.49985 13.0183 3.43028 12.3573 3.35374L12.3991 3.00584ZM9.03143 2.58836L9.08012 2.24046C9.72721 2.33092 10.4021 2.41441 11.091 2.4979L11.0492 2.8458L11.0075 3.1937C10.3117 3.1102 9.63677 3.02671 8.98272 2.93626L9.03143 2.58836ZM5.67073 2.04564L5.73335 1.70471C6.35956 1.82299 7.03449 1.94127 7.73724 2.04564L7.68159 2.38659L7.62591 2.72753C6.9162 2.6162 6.24128 2.50487 5.60115 2.37963L5.67073 2.04564ZM2.3657 1.25939L2.47007 0.92542C3.04062 1.10633 3.68772 1.2733 4.41831 1.43334L4.34176 1.77429L4.26523 2.11522C3.52073 1.94823 2.85276 1.77428 2.26134 1.58641L2.3657 1.25939ZM0.22266 0.27137L0.438355 0C0.633177 0.153075 0.897575 0.306159 1.23852 0.466192L1.0924 0.779288L0.946293 1.0924C0.570563 0.925413 0.250486 0.737557 0 0.535776L0.22266 0.27137Z" fill="#FDC126"/>
</svg>
