<svg width="6" height="13" viewBox="0 0 6 13" fill="none" xmlns="http://www.w3.org/2000/svg">
<path d="M4.80795 0.974131L4.55747 0.737542C4.80796 0.473139 5.05844 0.229613 5.30892 0L5.53855 0.257462L5.76815 0.514903C5.53158 0.7306 5.29502 0.960212 5.05845 1.2107L4.80795 0.974131ZM2.71362 3.71555L2.42138 3.53465C2.79711 2.92931 3.20067 2.35181 3.61815 1.823L3.88952 2.0387L4.16086 2.25439C3.7573 2.76232 3.36766 3.31896 3.00584 3.90342L2.71362 3.71555ZM1.18286 6.80488L0.855836 6.67964C1.09936 6.02559 1.39161 5.38547 1.71167 4.77317L2.01782 4.93319L2.32398 5.09323C2.01783 5.68465 1.73949 6.30392 1.50292 6.93014L1.18286 6.80488ZM0.375736 10.1586L0.0278378 10.1238C0.0904594 9.435 0.229631 8.7392 0.410538 8.05036L0.744506 8.14082L1.0785 8.23127C0.904547 8.88532 0.77929 9.53937 0.716669 10.1865L0.375736 10.1586ZM0.459228 12.58L0.118295 12.6426C0.055673 12.2947 0.0139159 11.9399 0 11.578L0.347898 11.5572L0.695796 11.5363C0.709711 11.8633 0.751462 12.1903 0.807125 12.5104L0.459228 12.58Z" fill="#FDC126"/>
</svg>
