<svg width="18" height="6" viewBox="0 0 18 6" fill="none" xmlns="http://www.w3.org/2000/svg">
<path d="M16.219 0.897582L16.0311 0.605339C16.3373 0.410516 16.6295 0.208739 16.9218 0L17.1235 0.285279L17.3253 0.570557C17.0261 0.779296 16.7269 0.988024 16.4138 1.1898L16.219 0.897582ZM13.0601 2.65794L12.914 2.34483C13.568 2.03172 14.2081 1.69774 14.8204 1.34985L14.9944 1.64903L15.1683 1.94822C14.5421 2.31003 13.8881 2.65097 13.2132 2.97104L13.0601 2.65794ZM9.69939 3.97995L9.59503 3.64596C10.2839 3.43027 10.9588 3.17978 11.6128 2.90842L11.745 3.2285L11.8772 3.54856C11.2023 3.82688 10.5065 4.07736 9.80376 4.30001L9.69939 3.97995ZM6.17867 4.81491L6.12299 4.47396C6.82575 4.36959 7.52851 4.22348 8.22431 4.04954L8.3078 4.3835L8.39129 4.71749C7.67462 4.8984 6.95101 5.04452 6.22738 5.15585L6.17867 4.81491ZM2.57445 5.03061L2.58836 4.68271C3.29807 4.71054 4.00779 4.68966 4.72446 4.634L4.75227 4.9819L4.78011 5.3298C4.04257 5.39242 3.29807 5.40634 2.56052 5.37851L2.57445 5.03061ZM0.0626191 4.73837L0.132203 4.39743C0.480101 4.46701 0.828005 4.52267 1.18286 4.56442L1.14111 4.91231L1.09935 5.26021C0.730576 5.21151 0.361814 5.15584 0 5.08626L0.0626191 4.73837Z" fill="#FDC126"/>
</svg>
