<svg width="11" height="9" viewBox="0 0 11 9" fill="none" xmlns="http://www.w3.org/2000/svg">
<path d="M10.1308 7.20843L10.4787 7.19453C10.4926 7.50763 10.4856 7.82768 10.4647 8.13383L10.1169 8.11296L9.76895 8.09209C9.78287 7.79985 9.78984 7.50763 9.78288 7.2154L10.1308 7.20843ZM9.51848 4.28608L9.83854 4.1539C10.0821 4.73837 10.2491 5.35067 10.3534 5.97688L10.0125 6.03254L9.67155 6.08821C9.57414 5.5107 9.42107 4.94709 9.19842 4.41829L9.51848 4.28608ZM7.78595 1.87864L8.00859 1.61423C8.50956 2.03867 8.92706 2.52574 9.268 3.0615L8.97576 3.24936L8.68351 3.43721C8.37736 2.95711 8.0086 2.52574 7.56329 2.15001L7.78595 1.87864ZM5.12104 0.570538L5.19759 0.229605C5.8586 0.38268 6.45002 0.612293 6.97883 0.904527L6.81182 1.21068L6.64484 1.51683C6.1717 1.25939 5.6429 1.05065 5.03755 0.911492L5.12104 0.570538ZM2.14304 0.389646L2.1152 0.0417477C2.78317 -0.0139159 3.40938 -0.0139159 3.98689 0.0417477L3.95908 0.389646L3.93124 0.737543C3.38852 0.688838 2.80405 0.688838 2.17088 0.737543L2.14304 0.389646ZM0.0765273 0.709706L0 0.368773C0.313108 0.299193 0.619256 0.236565 0.91149 0.187859L0.967145 0.528792L1.02282 0.869746C0.737544 0.918452 0.445303 0.974115 0.146111 1.0437L0.0765273 0.709706Z" fill="#D4E7B2"/>
</svg>
