<svg width="65" height="113" viewBox="0 0 65 113" fill="none" xmlns="http://www.w3.org/2000/svg">
<g clip-path="url(#clip0_2079_16974)">
<path d="M-38.6421 84.6853L-38.4821 84.9914L-39.1013 85.3115L-39.2613 85.0053L-39.4214 84.6992L-38.8021 84.3791L-38.6421 84.6853ZM-39.0387 84.1077L-38.7534 83.9129C-38.6282 84.1008 -38.5238 84.2469 -38.4612 84.3443C-38.4264 84.393 -38.4055 84.4278 -38.3847 84.4556C-38.3777 84.4696 -38.3707 84.4765 -38.3638 84.4835L-38.3568 84.4904C-38.3568 84.4904 -38.3568 84.4904 -38.6421 84.6853C-38.9274 84.8801 -38.9274 84.8801 -38.9274 84.8801C-38.9274 84.8801 -38.9274 84.8731 -38.9343 84.8731C-38.9413 84.8662 -38.9482 84.8592 -38.9552 84.8453C-38.9691 84.8175 -38.9969 84.7827 -39.0317 84.734C-39.1013 84.6366 -39.1987 84.4904 -39.324 84.3026L-39.0387 84.1077ZM-58.5279 53.277L-58.2009 53.1588C-58.1383 53.3327 -58.0548 53.5345 -57.9504 53.7711L-58.2705 53.9102L-58.5905 54.0494C-58.7019 53.8059 -58.7923 53.5832 -58.8619 53.3884L-58.5279 53.277ZM-58.7367 52.5952L-58.3957 52.5117C-58.3401 52.7343 -58.2774 52.95 -58.2009 53.1657L-58.5279 53.284L-58.8549 53.4023C-58.9384 53.1657 -59.008 52.9292 -59.0706 52.6856L-58.7367 52.5952ZM-52.3771 38.7697L-52.2031 39.0689C-52.391 39.1802 -52.5858 39.3055 -52.7807 39.4516L-52.9894 39.1733L-53.1981 38.895C-52.9824 38.7349 -52.7667 38.5958 -52.558 38.4705L-52.3771 38.7697ZM-51.7787 38.4636L-51.6395 38.7836C-51.8274 38.8671 -52.0153 38.9576 -52.2031 39.062L-52.3771 38.7628L-52.551 38.4636C-52.3423 38.3383 -52.1266 38.2339 -51.9109 38.1435L-51.7787 38.4636ZM-43.464 42.7636L-43.8049 42.8332C-43.8466 42.6383 -43.8953 42.4435 -43.9649 42.2487L-43.6379 42.1374L-43.3109 42.026C-43.2343 42.2417 -43.1717 42.4644 -43.13 42.694L-43.464 42.7636ZM-43.3178 43.4176L-43.6588 43.5011C-43.7214 43.2367 -43.7771 43.0141 -43.8118 42.8332L-43.4709 42.7636L-43.13 42.694C-43.0952 42.861 -43.0465 43.0697 -42.9839 43.3341L-43.3178 43.4176ZM-29.9307 70.498L-29.8681 70.8389C-30.1534 70.8876 -30.4387 70.8737 -30.7239 70.8111L-30.6404 70.4702L-30.557 70.1292C-30.3552 70.1779 -30.1673 70.1849 -29.9864 70.1501L-29.9307 70.498ZM-29.3184 70.1849L-29.0749 70.4354C-29.2976 70.6511 -29.562 70.7902 -29.8681 70.8459L-29.9307 70.505L-29.9934 70.164C-29.8264 70.1362 -29.6872 70.0596 -29.562 69.9414L-29.3184 70.1849ZM-38.8926 32.0414L-38.6073 31.8396C-38.482 32.0135 -38.3568 32.2153 -38.2176 32.4519L-38.5169 32.6258L-38.816 32.7998C-38.9413 32.5771 -39.0665 32.3962 -39.1709 32.2362L-38.8926 32.0414ZM-39.2613 31.4778L-38.9622 31.2969C-38.8508 31.4778 -38.7325 31.6587 -38.6073 31.8396L-38.8926 32.0414L-39.1778 32.2432C-39.317 32.0483 -39.4423 31.8535 -39.5605 31.6587L-39.2613 31.4778ZM-34.5995 19.19L-34.3977 19.4753C-34.5786 19.6006 -34.7526 19.7328 -34.9265 19.865L-35.1353 19.5866L-35.344 19.3083C-35.1631 19.1692 -34.9822 19.037 -34.7943 18.9048L-34.5995 19.19ZM-33.9803 18.7865L-33.7994 19.0857C-33.9942 19.204 -34.196 19.3292 -34.3977 19.4753L-34.5995 19.19L-34.8013 18.9048C-34.5856 18.7517 -34.3699 18.6125 -34.1542 18.4803L-33.9803 18.7865ZM-25.1158 24.0049L-25.4359 24.1441C-25.5333 23.9214 -25.6377 23.7058 -25.7351 23.4831L-25.422 23.337L-25.1089 23.1909C-25.0045 23.4135 -24.9001 23.6362 -24.8027 23.8658L-25.1158 24.0049ZM-24.8584 24.6312L-25.1854 24.7564C-25.2759 24.5198 -25.3594 24.318 -25.4359 24.1441L-25.1158 24.0049L-24.7958 23.8658C-24.7123 24.0536 -24.6218 24.2693 -24.5314 24.5129L-24.8584 24.6312ZM-14.4493 51.1131L-14.4423 51.461C-14.7624 51.468 -15.0546 51.308 -15.3121 51.0923L-15.0894 50.8279L-14.8668 50.5634C-14.6719 50.7304 -14.5397 50.7722 -14.4562 50.7722L-14.4493 51.1131ZM-14.0457 50.5983L-13.7465 50.7722C-13.8787 51.0018 -14.0318 51.2105 -14.2197 51.3775L-14.4493 51.1201L-14.6789 50.8626C-14.5606 50.7583 -14.4493 50.6122 -14.3449 50.4382L-14.0457 50.5983ZM-21.4907 19.9693L-21.2263 19.7397C-21.0872 19.8997 -20.9411 20.0946 -20.788 20.3172L-21.0802 20.512L-21.3724 20.7069C-21.5116 20.5051 -21.6368 20.3311 -21.7551 20.1989L-21.4907 19.9693ZM-21.8873 19.4057L-21.5881 19.2318C-21.4907 19.3988 -21.3725 19.5658 -21.2263 19.7328L-21.4907 19.9624L-21.7551 20.192C-21.9291 19.9902 -22.0752 19.7884 -22.1935 19.5797L-21.8873 19.4057ZM-12.2158 9.57413L-12.1044 9.90116C-12.3132 9.97074 -12.5289 10.0542 -12.7516 10.1377L-12.8768 9.8107L-13.002 9.48368C-12.7724 9.39322 -12.5498 9.30974 -12.3341 9.24016L-12.2158 9.57413ZM-11.5269 9.42802L-11.5061 9.77592C-11.7009 9.78983 -11.9027 9.83158 -12.1114 9.90116L-12.2227 9.57413L-12.3341 9.24711C-12.0697 9.15665 -11.8122 9.101 -11.5478 9.08709L-11.5269 9.42802ZM-2.76688 26.0923L-3.11478 26.141C-3.14261 25.9392 -3.17739 25.7235 -3.21218 25.4939L-2.87125 25.4383L-2.53032 25.3826C-2.48857 25.6192 -2.45376 25.8418 -2.42593 26.0575L-2.76688 26.0923ZM-2.67643 26.7673L-3.02433 26.809C-3.05216 26.5655 -3.07999 26.3428 -3.10782 26.141L-2.75992 26.0923L-2.41202 26.0436C-2.38419 26.2524 -2.35636 26.482 -2.32853 26.7255L-2.67643 26.7673ZM3.29351 44.3987L3.42569 44.7188C3.14737 44.8371 2.87602 44.8997 2.61162 44.9136L2.59075 44.5657L2.56988 44.2178C2.75078 44.2108 2.9456 44.1621 3.15434 44.0717L3.29351 44.3987ZM3.84317 44.0021L4.10061 44.2387C3.91275 44.4474 3.6901 44.6144 3.43266 44.7188L3.30045 44.3987L3.16825 44.0786C3.32133 44.016 3.46745 43.9116 3.5927 43.7725L3.84317 44.0021ZM-1.29874 14.6952L-0.978685 14.556C-0.916063 14.7021 -0.832571 14.9178 -0.721244 15.2031L-1.04827 15.3214L-1.37529 15.4397C-1.47966 15.1614 -1.5562 14.9596 -1.61186 14.8343L-1.29874 14.6952ZM-1.54228 14.0551L-1.20829 13.9507C-1.13871 14.1733 -1.06218 14.3751 -0.978685 14.556L-1.29874 14.6952L-1.61883 14.8343C-1.70928 14.6256 -1.79973 14.403 -1.87627 14.1594L-1.54228 14.0551ZM2.27763 5.13495L2.42377 5.44807C2.21503 5.54548 2.01323 5.64986 1.81841 5.76119L1.64446 5.45503L1.47051 5.14888C1.67925 5.0306 1.89496 4.91926 2.11761 4.81489L2.27763 5.13495ZM2.94561 4.84273L3.07779 5.16279C2.8621 5.24629 2.64642 5.3437 2.42377 5.44807L2.27763 5.13495L2.13152 4.82186C2.36113 4.71053 2.59074 4.61312 2.82035 4.52267L2.94561 4.84273ZM11.9005 9.28885L11.5665 9.38627C11.5039 9.16362 11.4273 8.94792 11.3508 8.73223L11.6778 8.61393L12.0049 8.49566C12.0884 8.71831 12.1579 8.94792 12.2275 9.18449L11.9005 9.28885ZM12.0675 9.95683L11.7265 10.0264C11.6778 9.78287 11.6222 9.57414 11.5665 9.38627L11.9005 9.28885L12.2345 9.19145C12.2971 9.40019 12.3527 9.63676 12.4084 9.88725L12.0675 9.95683ZM17.8217 30.5524L17.8356 30.9003C17.5434 30.9142 17.2581 30.8794 16.9937 30.8029L17.0911 30.4689L17.1885 30.1349C17.3833 30.1906 17.5851 30.2184 17.8078 30.2045L17.8217 30.5524ZM18.5036 30.3645L18.6636 30.6707C18.4131 30.8029 18.1348 30.8794 17.8356 30.8933L17.8217 30.5454L17.8078 30.1975C18.0096 30.1906 18.1835 30.1418 18.3435 30.0584L18.5036 30.3645ZM17.6408 7.08319C17.9817 6.9997 17.9817 6.9997 17.9817 6.9997V7.00664C17.9817 7.0136 17.9887 7.02753 17.9887 7.04145C17.9957 7.06928 18.0026 7.11102 18.0165 7.16669C18.0444 7.27801 18.0791 7.44501 18.1279 7.65375L17.7869 7.73028L17.446 7.80683C17.3973 7.59809 17.3625 7.43109 17.3347 7.31976C17.3207 7.2641 17.3138 7.22236 17.3068 7.19452C17.3068 7.18061 17.2999 7.16668 17.2999 7.15972C17.2999 7.15276 17.2999 7.15278 17.2999 7.15278C17.2999 7.15278 17.3068 7.16669 17.6408 7.08319ZM17.439 6.45002L17.773 6.3526C17.8287 6.54742 17.8774 6.70051 17.9191 6.80488C17.94 6.86054 17.9539 6.90229 17.9609 6.93012C17.9678 6.94403 17.9678 6.951 17.9748 6.95796C17.9748 6.96491 17.9748 6.9649 17.9748 6.9649C17.9748 6.9649 17.9748 6.96491 17.6478 7.08319C17.3207 7.20148 17.3207 7.20147 17.3207 7.20147V7.19452C17.3207 7.18757 17.3138 7.17364 17.3068 7.15972C17.2929 7.13189 17.279 7.08318 17.2651 7.02752C17.2303 6.91619 17.1746 6.75616 17.119 6.55438L17.439 6.45002ZM17.7313 0.904526L17.8843 1.21764C17.7382 1.28722 17.613 1.39854 17.5155 1.5377L17.2303 1.34288L16.945 1.14806C17.105 0.918446 17.3138 0.723617 17.5782 0.598374L17.7313 0.904526ZM18.3435 0.667958L18.4618 0.994983C18.2601 1.07152 18.0583 1.14805 17.8495 1.22459L17.7243 0.897561L17.5991 0.570536C17.8148 0.487041 18.0165 0.410506 18.2253 0.333968L18.3435 0.667958ZM26.206 5.72638L25.8582 5.76813C25.8303 5.55243 25.8025 5.35066 25.7816 5.14888L26.1295 5.10017L26.4774 5.05146C26.5052 5.25324 26.5331 5.46198 26.5609 5.67767L26.206 5.72638ZM26.2826 6.40827L25.9347 6.44305C25.9138 6.21344 25.886 5.9908 25.8582 5.76119L26.206 5.71944L26.5539 5.67767C26.5818 5.90729 26.6096 6.13691 26.6305 6.36652L26.2826 6.40827ZM29.4345 18.5986L29.4415 18.9465C29.1214 18.9535 28.8292 18.8908 28.5648 18.7586L28.7109 18.4455L28.857 18.1324C29.024 18.209 29.2119 18.2507 29.4276 18.2507L29.4345 18.5986ZM30.1025 18.3481L30.3321 18.6125C30.0886 18.8282 29.7824 18.9395 29.4345 18.9465L29.4276 18.5986L29.4206 18.2507C29.6154 18.2507 29.7546 18.1881 29.8659 18.0907L30.1025 18.3481ZM29.5528 0.709704L29.9007 0.716669C29.8938 0.939323 29.8938 1.16892 29.8938 1.39853H29.5459H29.198C29.198 1.16196 29.198 0.932352 29.2049 0.702739L29.5528 0.709704ZM29.6085 0.0626191L29.9494 0.125238C29.9146 0.313103 29.8938 0.50793 29.8938 0.716669L29.5459 0.709704L29.198 0.702739C29.2049 0.459211 29.2258 0.222655 29.2675 0L29.6085 0.0626191ZM49.8979 3.96602L49.55 4.00777C49.5221 3.81295 49.4804 3.61812 49.4247 3.4233L49.7587 3.31894L50.0927 3.21457C50.1623 3.44418 50.2179 3.68074 50.2458 3.91731L49.8979 3.96602ZM49.9327 4.63398L49.5848 4.62704C49.5848 4.42526 49.5778 4.21651 49.55 4.00777L49.8979 3.96602L50.2458 3.92428C50.2736 4.1678 50.2875 4.40437 50.2875 4.64094L49.9327 4.63398ZM36.9004 18.8352L36.5595 18.7586C36.6152 18.5151 36.6986 18.2785 36.8239 18.0489L37.13 18.209L37.4362 18.369C37.3388 18.5569 37.2762 18.7378 37.2344 18.9117L36.9004 18.8352ZM37.0465 19.4892L36.8378 19.7675C36.5177 19.531 36.483 19.1413 36.5595 18.7656L36.9004 18.8421L37.2414 18.9187C37.2135 19.0509 37.2135 19.1274 37.2274 19.1692C37.2344 19.2039 37.2483 19.2109 37.2553 19.2179L37.0465 19.4892ZM56.995 12.8513L56.7654 13.1157C56.6401 13.0044 56.4662 12.9209 56.2435 12.8653L56.327 12.5243L56.4105 12.1834C56.7167 12.2529 56.995 12.3852 57.2246 12.58L56.995 12.8513ZM57.5029 13.3662L57.2385 13.5958C57.0994 13.4358 56.9393 13.2758 56.7584 13.1157L56.988 12.8513L57.2177 12.5869C57.4194 12.7609 57.6003 12.9487 57.7673 13.1366L57.5029 13.3662ZM54.1353 22.5716L53.9265 22.2933C54.1144 22.1541 54.2953 22.015 54.4693 21.8688L54.6919 22.1402L54.9146 22.4116C54.7267 22.5646 54.5388 22.7107 54.344 22.8569L54.1353 22.5716ZM53.5369 22.9613L53.356 22.662C53.5856 22.5229 53.7735 22.3976 53.9265 22.2933L54.1353 22.5716L54.344 22.8499C54.1701 22.9821 53.9613 23.1143 53.7178 23.2604L53.5369 22.9613ZM29.3649 36.2649L29.1006 36.4875C28.857 36.2022 28.7944 35.8613 28.8918 35.5134L29.2258 35.6038L29.5598 35.6943C29.525 35.8335 29.5459 35.9309 29.6294 36.0283L29.3649 36.2649ZM29.9355 36.6614L29.8033 36.9815C29.525 36.8632 29.2884 36.7102 29.1006 36.4945L29.3649 36.2718L29.6294 36.0492C29.7268 36.1605 29.8659 36.2649 30.0677 36.3484L29.9355 36.6614ZM55.1511 28.298L55.3251 28.5972C55.1372 28.7085 54.9354 28.8198 54.7267 28.9381L54.5597 28.632L54.3927 28.3258C54.6014 28.2145 54.7963 28.0962 54.9772 27.9918L55.1511 28.298ZM55.7982 27.9571L55.9513 28.2702C55.7495 28.3676 55.5408 28.4789 55.3251 28.6041L55.1511 28.305L54.9772 28.0058C55.2068 27.8736 55.4295 27.7553 55.6521 27.6509L55.7982 27.9571ZM62.3387 36.745L61.9978 36.6684C62.0465 36.4527 62.0813 36.2301 62.116 36.0005L62.457 36.0492L62.7979 36.0979C62.7631 36.3414 62.7214 36.578 62.6727 36.8145L62.3387 36.745ZM62.1717 37.4268L61.8377 37.3294C61.9004 37.1068 61.956 36.8911 62.0047 36.6684L62.3457 36.745L62.6866 36.8215C62.6379 37.0581 62.5753 37.2877 62.5127 37.5242L62.1717 37.4268ZM49.7239 46.4165L49.7031 46.0686C49.9535 46.0547 50.204 46.0338 50.4476 46.0129L50.4823 46.3608L50.5171 46.7087C50.2667 46.7296 50.0092 46.7505 49.7448 46.7644L49.7239 46.4165ZM48.9934 46.4652L48.9655 46.1173C49.2299 46.0965 49.4734 46.0825 49.7031 46.0686L49.7239 46.4165L49.7448 46.7644C49.5221 46.7783 49.2856 46.7922 49.0281 46.8131L48.9934 46.4652ZM14.8437 54.7034L14.5028 54.6269C14.5654 54.3347 14.788 54.0981 15.0385 53.8963L15.2542 54.1677L15.4699 54.439C15.2473 54.613 15.1916 54.7243 15.1777 54.773L14.8437 54.7034ZM15.2333 55.2322L15.0803 55.5453C14.9063 55.4619 14.7463 55.3505 14.635 55.2044C14.5167 55.0444 14.461 54.8496 14.5097 54.6339L14.8507 54.7104L15.1916 54.7869C15.1916 54.7939 15.1916 54.7869 15.1916 54.78C15.1916 54.773 15.1916 54.78 15.1986 54.7869C15.2194 54.8148 15.2681 54.8635 15.3934 54.9191L15.2333 55.2322ZM53.0359 51.955L53.1333 52.289C52.9107 52.3517 52.6741 52.4143 52.4306 52.4769L52.3401 52.1429L52.2497 51.8089C52.4862 51.7463 52.7158 51.6837 52.9385 51.6211L53.0359 51.955ZM53.683 51.7811L53.7665 52.122C53.5578 52.1707 53.3421 52.2334 53.1264 52.296L53.029 51.962L52.9316 51.628C53.1542 51.5654 53.3769 51.5028 53.5995 51.4541L53.683 51.7811ZM63.9599 60.5203L63.619 60.4438C63.6607 60.2489 63.6955 60.0471 63.7303 59.8454L64.0712 59.8941L64.4122 59.9428C64.3774 60.1585 64.3426 60.3742 64.2939 60.5899L63.9599 60.5203ZM63.7859 61.1743L63.452 61.0769C63.5146 60.8682 63.5703 60.6594 63.612 60.4507L63.953 60.5272L64.2939 60.6038C64.2452 60.8334 64.1826 61.056 64.1199 61.2857L63.7859 61.1743ZM48.6107 68.9116V68.5637C48.8542 68.5637 49.0977 68.5637 49.3343 68.5567L49.3412 68.9046L49.3482 69.2525C49.1047 69.2595 48.8611 69.2595 48.6107 69.2595V68.9116ZM47.894 68.9046L47.9009 68.5567C48.1514 68.5637 48.388 68.5637 48.6107 68.5637V68.9116V69.2595C48.381 69.2595 48.1445 69.2595 47.894 69.2525V68.9046ZM4.10061 69.6004L3.75968 69.5239C3.8223 69.2247 4.01016 68.9812 4.25369 68.7863L4.46938 69.0577L4.6851 69.3291C4.52507 69.4613 4.45548 69.5726 4.4346 69.67L4.10061 69.6004ZM4.25369 70.2475L3.96841 70.4493C3.77359 70.1779 3.68314 69.8648 3.75968 69.5308L4.10061 69.6074L4.44157 69.6839C4.42069 69.7952 4.4346 69.9066 4.53897 70.0527L4.25369 70.2475ZM46.6068 74.6797L46.6137 75.0276C46.3772 75.0276 46.1336 75.0346 45.8901 75.0346V74.6867V74.3388C46.1406 74.3388 46.3772 74.3318 46.6137 74.3318L46.6068 74.6797ZM47.3095 74.6797L47.3026 75.0276C47.0799 75.0207 46.8503 75.0207 46.6137 75.0207L46.6068 74.6728L46.5998 74.3249C46.8433 74.3249 47.0799 74.3249 47.3095 74.3318V74.6797ZM47.059 89.9316L46.8433 89.6602C47.0034 89.535 47.1704 89.3958 47.3443 89.2497L47.5739 89.5141L47.8035 89.7785C47.6296 89.9316 47.4487 90.0777 47.2747 90.2168L47.059 89.9316ZM46.5233 90.3421L46.3145 90.0638C46.4954 89.9316 46.6764 89.7924 46.8433 89.6602L47.059 89.9316L47.2747 90.2029C47.0938 90.3421 46.9129 90.4812 46.7251 90.6204L46.5233 90.3421ZM27.4933 94.6491L27.5976 94.3151C27.8203 94.3847 28.0429 94.4473 28.2656 94.5099L28.1751 94.8439L28.0847 95.1779C27.8481 95.1152 27.6185 95.0457 27.3819 94.9761L27.4933 94.6491ZM26.8184 94.4264L26.9297 94.0994C27.1801 94.1829 27.4028 94.2594 27.5976 94.322L27.4933 94.656L27.3889 94.99C27.1802 94.9274 26.9575 94.8508 26.707 94.7604L26.8184 94.4264ZM-14.9781 81.3176L-15.2634 81.1158C-15.0825 80.8653 -14.7902 80.7262 -14.4771 80.6496L-14.3936 80.9906L-14.3101 81.3315C-14.5467 81.3872 -14.6511 81.4707 -14.6928 81.5264L-14.9781 81.3176ZM-15.1103 81.9438L-15.4512 82.0134C-15.5138 81.6934 -15.4582 81.3802 -15.2634 81.1089L-14.9781 81.3107L-14.6928 81.5124C-14.7624 81.6168 -14.7902 81.7281 -14.7624 81.8742L-15.1103 81.9438ZM18.2113 98.1489L18.107 98.4829C17.8774 98.4133 17.6478 98.3368 17.4181 98.2602L17.5295 97.9263L17.6408 97.5923C17.8704 97.6688 18.1 97.7384 18.3227 97.8149L18.2113 98.1489ZM18.928 98.3855L18.8167 98.7125C18.5871 98.636 18.3505 98.5525 18.1139 98.4759L18.2183 98.142L18.3227 97.808C18.5732 97.8845 18.8097 97.968 19.0463 98.0515L18.928 98.3855ZM16.7989 111.626L16.6667 111.306C16.8893 111.216 17.105 111.126 17.3277 111.021L17.4669 111.341L17.606 111.661C17.3764 111.759 17.1538 111.856 16.9241 111.953L16.7989 111.626ZM16.1657 111.87L16.0405 111.543C16.2422 111.466 16.451 111.383 16.6667 111.299L16.7989 111.62L16.9311 111.94C16.7154 112.03 16.4997 112.114 16.291 112.19L16.1657 111.87ZM1.28962 110.332L1.40095 110.005C1.6236 110.082 1.84624 110.158 2.06194 110.235L1.94366 110.562L1.82537 110.889C1.60967 110.812 1.39398 110.736 1.17132 110.659L1.28962 110.332ZM0.614693 110.068L0.746896 109.748C0.997382 109.852 1.22004 109.936 1.40095 109.998L1.28962 110.325L1.17829 110.652C0.969547 110.583 0.739928 110.492 0.475525 110.381L0.614693 110.068ZM-36.3599 88.6235C-36.179 88.3243 -36.179 88.3243 -36.179 88.3243C-36.179 88.3243 -36.172 88.3243 -36.172 88.3312C-36.165 88.3382 -36.1581 88.3382 -36.1442 88.3521C-36.1164 88.366 -36.0816 88.3939 -36.0259 88.4217C-35.9215 88.4843 -35.7684 88.5817 -35.5667 88.707L-35.7476 89.0062L-35.9285 89.3053C-36.1303 89.1801 -36.2834 89.0896 -36.3877 89.0201C-36.4364 88.9853 -36.4782 88.9644 -36.506 88.9505C-36.5199 88.9435 -36.5269 88.9366 -36.5338 88.9296L-36.5408 88.9227C-36.5408 88.9227 -36.5408 88.9227 -36.3599 88.6235ZM-36.9374 88.9714L-37.1183 88.6722L-36.5408 88.3243L-36.3599 88.6235L-36.179 88.9227L-36.7565 89.2706L-36.9374 88.9714ZM-57.5051 101.315L-57.686 101.016L-57.1085 100.668L-56.9276 100.967L-56.7467 101.266L-57.3242 101.614L-57.5051 101.315ZM-57.8878 100.821L-57.6164 100.605L-57.2338 101.099L-57.5051 101.315L-57.7765 101.53L-58.1591 101.036L-57.8878 100.821ZM-61.2485 96.5068L-60.9771 96.2911L-60.5944 96.7851L-60.8658 97.0008L-61.1372 97.2166L-61.5199 96.7225L-61.2485 96.5068ZM-60.6362 96.1868L-60.4762 96.4929L-61.0954 96.813L-61.2554 96.5068L-61.4155 96.2007L-60.7962 95.8806L-60.6362 96.1868ZM-38.6421 84.6853L-38.3568 84.4904C-38.3012 84.5739 -38.2803 84.6713 -38.3081 84.7688C-38.329 84.8662 -38.3986 84.9497 -38.4821 84.9914L-38.6421 84.6853ZM-14.4493 51.1131L-14.2197 51.3706C-14.2823 51.4262 -14.3658 51.461 -14.4493 51.461V51.1131ZM17.6408 7.08319L17.9678 6.9649C17.9748 6.97881 17.9748 6.99274 17.9817 6.9997L17.6408 7.08319ZM17.7313 0.904526L17.5782 0.591409C17.5851 0.584451 17.599 0.584459 17.606 0.577501L17.7313 0.904526ZM-36.3599 88.6235L-36.5408 88.3243C-36.4295 88.2547 -36.2903 88.2616 -36.179 88.3243L-36.3599 88.6235ZM-57.5051 101.315L-57.3242 101.614C-57.4773 101.704 -57.6721 101.67 -57.7765 101.53L-57.5051 101.315ZM-61.2485 96.5068L-61.5199 96.7225C-61.5825 96.639 -61.6103 96.5347 -61.5825 96.4372C-61.5616 96.3329 -61.492 96.2494 -61.4016 96.2007L-61.2485 96.5068Z" fill="#D4E7B2"/>
</g>
<defs>
<clipPath id="clip0_2079_16974">
<rect width="64.4121" height="112.19" fill="white"/>
</clipPath>
</defs>
</svg>
