<svg width="8" height="6" viewBox="0 0 8 6" fill="none" xmlns="http://www.w3.org/2000/svg">
<path d="M7.20149 3.94832L7.54242 3.87874C7.612 4.20577 7.67461 4.56063 7.73028 4.9294L7.38935 4.98505L7.04841 5.04073C6.99275 4.67892 6.93012 4.33797 6.8675 4.01791L7.20149 3.94832ZM5.75422 0.886829L5.96992 0.615458C6.53351 1.05381 6.90924 1.70786 7.18756 2.53586L6.86053 2.64719L6.53351 2.75852C6.27606 2.0001 5.95601 1.49217 5.54549 1.16514L5.75422 0.886829ZM2.42832 0.531966L2.35874 0.191033C3.21456 0.0101263 3.94516 -0.0455383 4.56442 0.0379572L4.51571 0.385855L4.467 0.733753C3.95211 0.664173 3.31198 0.705915 2.4979 0.879864L2.42832 0.531966ZM0.118273 1.21385L0 0.886829C0.354856 0.761585 0.688825 0.650251 1.00889 0.552839L1.11328 0.886829L1.21764 1.2208C0.904534 1.31821 0.577501 1.42258 0.229603 1.54782L0.118273 1.21385Z" fill="#FDC126"/>
</svg>
