<svg width="3" height="12" viewBox="0 0 3 12" fill="none" xmlns="http://www.w3.org/2000/svg">
<path d="M1.50989 9.97074L1.83691 9.85247C1.96911 10.2212 2.11522 10.5204 2.28221 10.757L1.99693 10.9588L1.71165 11.1606C1.49595 10.8544 1.32202 10.4926 1.18286 10.089L1.50989 9.97074ZM0.834963 6.33174L1.18286 6.29694C1.2594 7.08319 1.34984 7.80683 1.47508 8.46088L1.13415 8.5235L0.793217 8.58611C0.667974 7.91119 0.570546 7.15973 0.494009 6.36652L0.834963 6.33174ZM0.556628 2.63011L0.904526 2.60923C0.960189 3.36069 1.00194 4.09825 1.0576 4.81491L0.709704 4.84273L0.361806 4.87057C0.306142 4.1539 0.257436 3.4094 0.20873 2.65794L0.556628 2.63011ZM0.347898 0.0347813L0.695796 0C0.730585 0.368772 0.765385 0.737541 0.793217 1.10631L0.445319 1.13415L0.0974216 1.16199C0.0695897 0.793216 0.0347898 0.431391 0 0.0626191L0.347898 0.0347813Z" fill="#D4E7B2"/>
</svg>
