<svg width="9" height="5" viewBox="0 0 9 5" fill="none" xmlns="http://www.w3.org/2000/svg">
<path d="M7.33369 3.99408L7.63288 3.81318C7.79987 4.08455 7.95989 4.36982 8.11992 4.66206L7.81377 4.82904L7.50764 4.99602C7.35457 4.71771 7.20148 4.4394 7.04145 4.18196L7.33369 3.99408ZM5.28805 1.49617L5.51069 1.23177C5.99775 1.64229 6.45002 2.1363 6.8675 2.68598L6.58919 2.89473L6.31087 3.10346C5.91427 2.58161 5.49678 2.12935 5.05843 1.76058L5.28805 1.49617ZM2.33786 0.348115L2.33092 0.000217622C3.04759 -0.00674033 3.71554 0.153295 4.34176 0.459445L4.18868 0.772541L4.03561 1.08566C3.49984 0.828213 2.94321 0.689055 2.34483 0.696013L2.33786 0.348115ZM0.153076 0.932581L0 0.619486C0.320066 0.459453 0.633178 0.334197 0.939328 0.236786L1.04369 0.570775L1.14806 0.904743C0.876698 0.988239 0.598371 1.10654 0.313095 1.2457L0.153076 0.932581Z" fill="#FDC126"/>
</svg>
