<svg width="7" height="9" viewBox="0 0 7 9" fill="none" xmlns="http://www.w3.org/2000/svg">
<path d="M6.42218 6.84662L6.77008 6.83272C6.78399 7.23628 6.78401 7.63983 6.76313 8.03643L6.41524 8.01556L6.06734 7.99468C6.08821 7.61895 6.0882 7.24322 6.07428 6.86053L6.42218 6.84662ZM5.57331 3.02671L5.88642 2.88058C6.20649 3.59029 6.44307 4.37655 6.58918 5.19063L6.24823 5.25325L5.9073 5.31587C5.76814 4.55049 5.55245 3.81991 5.26021 3.16586L5.57331 3.02671ZM2.83187 0.396609L2.92233 0.062619C3.76424 0.285274 4.46004 0.78624 5.00971 1.44725L4.74531 1.6699L4.48092 1.89256C4.00083 1.31505 3.4233 0.911484 2.74838 0.730577L2.83187 0.396609ZM0.125238 0.660993L0 0.333968C0.417477 0.173935 0.814082 0.0626216 1.19677 0L1.25242 0.340933L1.30808 0.681866C0.981054 0.73753 0.626213 0.834957 0.257441 0.981074L0.125238 0.660993Z" fill="#FDC126"/>
</svg>
