<svg width="7" height="24" viewBox="0 0 7 24" fill="none" xmlns="http://www.w3.org/2000/svg">
<path d="M5.75424 22.4394L6.08125 22.3142C6.20649 22.6551 6.3387 22.9682 6.46395 23.2535L6.14389 23.3926L5.82381 23.5318C5.6916 23.2326 5.5594 22.9056 5.43416 22.5577L5.75424 22.4394ZM4.68271 19.1692L5.01668 19.0718C5.21846 19.7676 5.4272 20.4216 5.62898 21.0339L5.30196 21.1452L4.97493 21.2566C4.7662 20.6373 4.56443 19.9763 4.35569 19.2735L4.68271 19.1692ZM3.77122 15.8502L4.10519 15.7667C4.27914 16.4486 4.46005 17.1166 4.634 17.7637L4.30001 17.8541L3.96604 17.9446C3.78514 17.2975 3.61117 16.6226 3.43027 15.9407L3.77122 15.8502ZM2.95713 12.5104L3.29806 12.4339C3.4581 13.1088 3.61813 13.7768 3.77816 14.4378L3.43723 14.5212L3.0963 14.6047C2.92931 13.9368 2.76927 13.2688 2.60923 12.5869L2.95713 12.5104ZM2.19872 9.15667L2.53965 9.08014C2.68577 9.74115 2.83886 10.4161 2.99193 11.0979L2.65098 11.1745L2.31005 11.251C2.15697 10.5691 2.0039 9.89423 1.85778 9.23322L2.19872 9.15667ZM1.48205 5.79599L1.82298 5.7264C1.95518 6.38045 2.10131 7.05537 2.24743 7.74421L1.90647 7.81379L1.56554 7.88338C1.41942 7.18758 1.27332 6.51266 1.14111 5.85861L1.48205 5.79599ZM0.800161 2.42138L1.14111 2.35179C1.26636 2.97801 1.39855 3.65293 1.54467 4.37656L1.20373 4.44614L0.86278 4.51571C0.716663 3.79208 0.577513 3.11021 0.459228 2.484L0.800161 2.42138ZM0.340933 0.0626191L0.681887 0C0.737551 0.299192 0.800172 0.64014 0.876709 1.00891L0.535776 1.07153L0.194822 1.13415C0.125242 0.758421 0.0556636 0.417487 0 0.118295L0.340933 0.0626191Z" fill="#EAF3D9"/>
</svg>
