<svg width="24" height="13" viewBox="0 0 24 13" fill="none" xmlns="http://www.w3.org/2000/svg">
<path d="M22.6482 0.821055L22.4951 0.507938C22.8569 0.327032 23.1839 0.160033 23.4692 0L23.6362 0.306152L23.8032 0.612303C23.504 0.779294 23.17 0.953243 22.8012 1.13415L22.6482 0.821055ZM19.2596 2.4005L19.1205 2.08044C19.8441 1.76038 20.526 1.44726 21.1452 1.16199L21.2913 1.4751L21.4375 1.7882C20.8112 2.08043 20.1294 2.39355 19.3988 2.71362L19.2596 2.4005ZM15.8363 3.90342L15.6971 3.58336C16.3999 3.27721 17.0818 2.97802 17.7428 2.69275L17.882 3.01281L18.0211 3.33287C17.3601 3.6251 16.6713 3.9243 15.9755 4.23045L15.8363 3.90342ZM12.406 5.39938L12.2669 5.07932C12.9488 4.78013 13.6376 4.48093 14.3125 4.18174L14.4517 4.5018L14.5908 4.82188C13.9159 5.11411 13.234 5.41329 12.5522 5.71944L12.406 5.39938ZM8.99665 6.93708L8.85052 6.62399C9.51848 6.31784 10.2004 6.00472 10.8892 5.69857L11.0284 6.01865L11.1675 6.33871C10.4857 6.64486 9.80376 6.95101 9.1358 7.25716L8.99665 6.93708ZM5.62204 8.55133L5.46896 8.23824C6.1091 7.91817 6.78401 7.58419 7.48677 7.25716L7.63288 7.57026L7.77901 7.88338C7.08321 8.2104 6.41523 8.53742 5.78206 8.85748L5.62204 8.55133ZM2.33788 10.3534L2.15697 10.0543C2.74144 9.69244 3.39548 9.31671 4.11215 8.94098L4.27916 9.24713L4.44614 9.55328C3.74339 9.92901 3.09629 10.2978 2.52574 10.6457L2.33788 10.3534ZM0.250497 11.9259L0 11.6894C0.23657 11.4389 0.535769 11.1814 0.876709 10.924L1.08544 11.2023L1.29419 11.4806C0.967167 11.7242 0.702754 11.9607 0.500974 12.1695L0.250497 11.9259Z" fill="#D4E7B2"/>
</svg>
