<svg width="6" height="15" viewBox="0 0 6 15" fill="none" xmlns="http://www.w3.org/2000/svg">
<path d="M1.14109 13.8742L1.39853 14.1107C1.16892 14.3612 0.939316 14.5978 0.709704 14.8205L0.466171 14.57L0.222638 14.3195C0.445293 14.1038 0.667956 13.8742 0.883653 13.6376L1.14109 13.8742ZM3.13802 11.3484L3.4233 11.5433C3.04757 12.0929 2.65098 12.6287 2.24046 13.1297L1.96909 12.907L1.69772 12.6844C2.09433 12.1973 2.47702 11.6824 2.83884 11.1467L3.13802 11.3484ZM4.71053 8.53743L5.03059 8.67657C4.76619 9.268 4.46004 9.85942 4.1191 10.4369L3.81991 10.263L3.52072 10.089C3.84775 9.5324 4.14693 8.96185 4.39741 8.39826L4.71053 8.53743ZM5.59418 5.45506L5.94208 5.48984C5.87946 6.12997 5.72638 6.79097 5.50372 7.45893L5.1767 7.3476L4.8497 7.23629C5.05843 6.61008 5.19758 5.99776 5.25325 5.41329L5.59418 5.45506ZM4.90535 2.3866L5.19063 2.18481C5.60811 2.76928 5.84468 3.43028 5.93514 4.13999L5.58724 4.18174L5.23934 4.22348C5.1628 3.61118 4.96101 3.06152 4.62007 2.58142L4.90535 2.3866ZM2.24046 0.695796L2.3309 0.361827C3.06844 0.570566 3.68772 0.855843 4.19565 1.2107L3.99386 1.49598L3.79207 1.78124C3.36068 1.47508 2.81796 1.22461 2.13608 1.03675L2.24046 0.695796ZM0.020873 0.347898L0.041746 0C0.389644 0.0208739 0.723627 0.0556738 1.04369 0.0974216L0.994983 0.445319L0.946272 0.793217C0.64708 0.751469 0.333982 0.723634 0 0.70276L0.020873 0.347898Z" fill="#FDC126"/>
</svg>
