<svg width="2" height="18" viewBox="0 0 2 18" fill="none" xmlns="http://www.w3.org/2000/svg">
<g clip-path="url(#clip0_2079_16949)">
<path d="M0.844684 16.4417L1.11605 16.226C1.33871 16.5112 1.57528 16.72 1.81185 16.8522L1.6379 17.1583L1.46395 17.4645C1.12997 17.2766 0.830773 16.9983 0.56637 16.6643L0.844684 16.4417ZM-0.630399 13.1853L-0.296409 13.0879C-0.0807128 13.8255 0.155857 14.4934 0.420259 15.057L0.107143 15.2031L-0.205974 15.3492C-0.49125 14.7439 -0.741734 14.0412 -0.964388 13.2827L-0.630399 13.1853ZM-1.42362 9.67852L-1.08266 9.6159C-0.957419 10.3326 -0.811312 11.0353 -0.658237 11.7033L-0.99917 11.7798L-1.3401 11.8564C-1.50014 11.1745 -1.64627 10.4578 -1.77151 9.73419L-1.42362 9.67852ZM-1.95937 6.12301L-1.61147 6.08127C-1.52102 6.78402 -1.4236 7.49372 -1.31923 8.20344L-1.66018 8.25909L-2.00112 8.31477C-2.11244 7.60505 -2.20985 6.88142 -2.3003 6.17867L-1.95937 6.12301ZM-2.36292 2.54661L-2.01503 2.51183C-1.94545 3.19371 -1.86892 3.91039 -1.78542 4.64793L-2.13332 4.68968L-2.48122 4.73142C-2.56471 3.98692 -2.64124 3.27024 -2.71082 2.58836L-2.36292 2.54661ZM-2.62733 0.041746L-2.27943 0C-2.24464 0.333982 -2.20291 0.688844 -2.16116 1.07153L-2.50906 1.10631L-2.85695 1.14111C-2.8987 0.765385 -2.93347 0.41053 -2.96826 0.0765486L-2.62733 0.041746Z" fill="#D4E7B2"/>
</g>
<defs>
<clipPath id="clip0_2079_16949">
<rect width="1.81177" height="17.4648" fill="white"/>
</clipPath>
</defs>
</svg>
