<svg width="4" height="9" viewBox="0 0 4 9" fill="none" xmlns="http://www.w3.org/2000/svg">
<path d="M2.12915 1.12719L1.87866 0.883653C2.17785 0.570545 2.51182 0.278318 2.89451 0L3.0963 0.285279L3.29809 0.570557C2.95019 0.821044 2.64403 1.0924 2.37267 1.37072L2.12915 1.12719ZM0.354863 4.95406L0.00696475 4.91231C0.104376 4.05649 0.354858 3.17978 0.807125 2.34483L1.11328 2.51181L1.41943 2.67882C1.01587 3.43028 0.786249 4.21652 0.695796 4.99581L0.354863 4.95406ZM0.570557 7.93903L0.236589 8.02949C0.13222 7.61897 0.0487057 7.18061 0 6.71442L0.347898 6.67964L0.695796 6.64484C0.737543 7.07623 0.8141 7.47981 0.911512 7.85554L0.570557 7.93903Z" fill="#FDC126"/>
</svg>
