<svg width="18" height="8" viewBox="0 0 18 8" fill="none" xmlns="http://www.w3.org/2000/svg">
<path d="M16.6504 0.528811L16.5739 0.187857C16.9913 0.0904458 17.3879 0.0278318 17.7498 0L17.7776 0.347898L17.8054 0.695796C17.4853 0.716669 17.1235 0.779291 16.7339 0.869744L16.6504 0.528811ZM13.0183 1.7882L12.8861 1.46814C13.6376 1.15503 14.3612 0.869754 15.0431 0.640141L15.1544 0.967166L15.2658 1.29419C14.6048 1.51685 13.895 1.79515 13.1505 2.10826L13.0183 1.7882ZM9.51848 3.38852L9.3654 3.07543C10.0612 2.74144 10.757 2.40746 11.4458 2.09435L11.592 2.41441L11.7381 2.73447C11.0562 3.04062 10.3673 3.37462 9.67155 3.7086L9.51848 3.38852ZM6.06734 5.08626L5.91426 4.77317C6.58223 4.44614 7.26411 4.10519 7.96687 3.75729L8.11994 4.07041L8.27302 4.38352C7.57722 4.72446 6.88142 5.07236 6.22041 5.39938L6.06734 5.08626ZM2.5814 6.71442L2.44919 6.39436C3.07541 6.12996 3.77121 5.80989 4.52267 5.45503L4.67575 5.76815L4.82882 6.08125C4.07736 6.44306 3.36766 6.76314 2.72753 7.0345L2.5814 6.71442ZM0.00696475 7.48677L0 7.13887C0.23657 7.13887 0.577504 7.06928 1.01586 6.93012L1.12024 7.26411L1.22461 7.5981C0.765382 7.74421 0.354848 7.83466 0.0139083 7.83466L0.00696475 7.48677Z" fill="#D4E7B2"/>
</svg>
