<svg width="18" height="65" viewBox="0 0 18 65" fill="none" xmlns="http://www.w3.org/2000/svg">
<g clip-path="url(#clip0_2079_16969)">
<path d="M16.451 64.0758L16.5971 63.7627C16.8059 63.8601 16.9729 63.9367 17.0842 63.9923C17.1399 64.0201 17.1816 64.041 17.2095 64.048C17.2234 64.0549 17.2373 64.0619 17.2442 64.0619C17.2512 64.0619 17.2512 64.0619 17.2512 64.0688C17.2512 64.0688 17.2512 64.0689 17.1051 64.382C16.9589 64.6951 16.959 64.6951 16.959 64.6951C16.959 64.6951 16.952 64.6951 16.952 64.6881C16.945 64.6881 16.9311 64.6812 16.9172 64.6742C16.8894 64.6603 16.8476 64.6394 16.792 64.6185C16.6806 64.5698 16.5206 64.4933 16.3049 64.3889L16.451 64.0758ZM-31.7746 39.2568L-31.5658 38.9785C-31.3919 39.1107 -31.204 39.2429 -31.0022 39.389L-31.204 39.6743L-31.4058 39.9595C-31.6145 39.8134 -31.8163 39.6673 -31.9903 39.5351L-31.7746 39.2568ZM-32.3382 38.7976L-32.1085 38.5401C-31.9276 38.7002 -31.7467 38.8532 -31.5728 38.9854L-31.7815 39.2637L-31.9903 39.5421C-32.1851 39.3959 -32.3799 39.2359 -32.5747 39.062L-32.3382 38.7976ZM-52.5928 0.125238C-52.2657 -5.10114e-06 -52.2657 0 -52.2657 0V0.00696475C-52.2657 0.0139227 -52.2588 0.0208654 -52.2518 0.0347813C-52.2379 0.0626131 -52.224 0.104377 -52.2031 0.160041C-52.1614 0.271368 -52.0988 0.431403 -52.0153 0.640141L-52.3353 0.772344L-52.6554 0.904526C-52.7389 0.695787 -52.8015 0.535774 -52.8502 0.424446C-52.8711 0.368783 -52.885 0.327019 -52.8989 0.299187C-52.9059 0.285271 -52.9059 0.271364 -52.9128 0.264406C-52.9128 0.257448 -52.9128 0.257441 -52.9128 0.257441C-52.9128 0.250483 -52.9128 0.250481 -52.5928 0.125238Z" fill="#EAF3D9"/>
</g>
<defs>
<clipPath id="clip0_2079_16969">
<rect width="17.2512" height="64.6953" fill="white"/>
</clipPath>
</defs>
</svg>
