<svg width="5" height="44" viewBox="0 0 5 44" fill="none" xmlns="http://www.w3.org/2000/svg">
<g clip-path="url(#clip0_2079_16954)">
<path d="M3.60671 0.960201L3.37014 0.709725C3.62063 0.473155 3.8711 0.23657 4.12159 0L4.35818 0.250497L4.59475 0.500974C4.34426 0.737544 4.09376 0.974128 3.84328 1.2107L3.60671 0.960201ZM1.0949 3.28416L0.858329 3.02671C1.36626 2.56749 1.86722 2.10131 2.36819 1.63512L2.60476 1.89256L2.84133 2.15001C2.3334 2.61619 1.83243 3.08237 1.3245 3.5416L1.0949 3.28416ZM-1.45868 5.58029L-1.68829 5.32285C-1.1734 4.87059 -0.665478 4.41832 -0.157548 3.95213L0.0720767 4.20958L0.30168 4.46702C-0.213209 4.92624 -0.721134 5.38547 -1.23602 5.83773L-1.45868 5.58029ZM-4.04704 7.8277L-4.27665 7.56331C-3.76176 7.11801 -3.23992 6.67268 -2.72503 6.22041L-2.49541 6.48482L-2.26581 6.74922C-2.78765 7.20149 -3.30254 7.65376 -3.82438 8.09907L-4.04704 7.8277ZM-6.66324 10.0403L-6.88588 9.77594C-6.36403 9.33759 -5.83524 8.89924 -5.3134 8.45393L-5.09074 8.71832L-4.86808 8.98272C-5.39688 9.42803 -5.91872 9.87334 -6.44752 10.3117L-6.66324 10.0403ZM-9.31422 12.2182L-9.52991 11.9468C-9.00111 11.5154 -8.46534 11.084 -7.93654 10.6457L-7.71388 10.917L-7.49122 11.1884C-8.02698 11.6268 -8.5558 12.0651 -9.09156 12.4895L-9.31422 12.2182ZM-11.993 14.3543L-12.2087 14.0829C-11.673 13.6585 -11.1372 13.234 -10.5945 12.8027L-10.3788 13.074L-10.1631 13.3454C-10.7058 13.7768 -11.2416 14.2082 -11.7773 14.6256L-11.993 14.3543ZM-14.6997 16.4556L-14.9084 16.1772C-14.3657 15.7598 -13.823 15.3423 -13.2802 14.9179L-13.0645 15.1892L-12.8489 15.4606C-13.3985 15.885 -13.9413 16.3094 -14.484 16.72L-14.6997 16.4556ZM-17.4341 18.5221L-17.6429 18.2438C-17.0932 17.8332 -16.5505 17.4227 -15.9938 17.0052L-15.7851 17.2836L-15.5764 17.5619C-16.1261 17.9794 -16.6757 18.3899 -17.2254 18.8004L-17.4341 18.5221ZM-20.1965 20.5538L-20.3982 20.2755C-19.8486 19.8789 -19.2919 19.4753 -18.7422 19.0648L-18.5335 19.3431L-18.3248 19.6214C-18.8814 20.032 -19.438 20.4355 -19.9877 20.8391L-20.1965 20.5538ZM-22.9866 22.5438L-23.1884 22.2585C-22.6317 21.8689 -22.0821 21.4722 -21.5185 21.0687L-21.3167 21.354L-21.1149 21.6392C-21.6785 22.0428 -22.2351 22.4394 -22.7848 22.829L-22.9866 22.5438ZM-25.7976 24.5129L-25.9924 24.2276C-25.4358 23.8449 -24.8722 23.4553 -24.3086 23.0587L-24.1068 23.344L-23.9051 23.6292C-24.4756 24.0258 -25.0392 24.4155 -25.5958 24.7982L-25.7976 24.5129ZM-28.6365 26.4333L-28.8313 26.141C-28.2677 25.7653 -27.6971 25.3826 -27.1266 24.993L-26.9317 25.2783L-26.7369 25.5635C-27.3075 25.9532 -27.878 26.3359 -28.4486 26.7186L-28.6365 26.4333ZM-31.4962 28.3258L-31.684 28.0336C-31.1135 27.6648 -30.5429 27.2821 -29.9585 26.8995L-29.7636 27.1917L-29.5688 27.4839C-30.1463 27.8666 -30.7238 28.2493 -31.2944 28.6181L-31.4962 28.3258ZM-34.3768 30.1767L-34.5646 29.8844C-33.9941 29.5226 -33.4235 29.1538 -32.8391 28.7781L-32.6512 29.0703L-32.4633 29.3626C-33.0478 29.7383 -33.6253 30.1071 -34.1959 30.4689L-34.3768 30.1767ZM-37.2922 31.9996L-37.4731 31.7004C-36.9025 31.3456 -36.318 30.9838 -35.7266 30.615L-35.5388 30.9072L-35.3509 31.1995C-35.9423 31.5682 -36.5268 31.937 -37.0973 32.2919L-37.2922 31.9996ZM-40.2075 33.7809L-40.3885 33.4817C-39.8109 33.1338 -39.2265 32.7789 -38.6281 32.4171L-38.4472 32.7163L-38.2663 33.0155C-38.8646 33.3773 -39.4491 33.7391 -40.0266 34.087L-40.2075 33.7809ZM-43.1647 35.5343L-43.3386 35.2351C-42.7611 34.8942 -42.1697 34.5532 -41.5643 34.1914L-41.3834 34.4906L-41.2025 34.7898C-41.8079 35.1516 -42.3993 35.4995 -42.9768 35.8335L-43.1647 35.5343ZM-46.1357 37.2459L-46.3097 36.9398C-45.7321 36.6128 -45.1338 36.2718 -44.5215 35.917L-44.3475 36.2162L-44.1736 36.5154C-44.7859 36.8702 -45.3842 37.2112 -45.9618 37.5382L-46.1357 37.2459ZM-49.1276 38.9089L-49.2946 38.6027C-48.7171 38.2827 -48.1187 37.9557 -47.4925 37.6078L-47.3255 37.9139L-47.1585 38.2201C-47.7847 38.568 -48.3831 38.9019 -48.9606 39.222L-49.1276 38.9089ZM-52.1474 40.544L-52.3074 40.2379C-51.7369 39.9317 -51.1246 39.6117 -50.4844 39.2638L-50.3174 39.5699L-50.1505 39.876C-50.7906 40.2239 -51.4029 40.551 -51.9804 40.8571L-52.1474 40.544ZM-55.188 42.1165L-55.3481 41.8034C-54.8053 41.5251 -54.2 41.212 -53.532 40.8641L-53.372 41.1702L-53.212 41.4764C-53.8799 41.8243 -54.4922 42.1374 -55.0349 42.4157L-55.188 42.1165ZM-57.3311 43.188L-57.4841 42.8749C-57.2267 42.7497 -56.9275 42.6036 -56.5796 42.4296L-56.4265 42.7427L-56.2735 43.0558C-56.6214 43.2298 -56.9275 43.3759 -57.1849 43.5011L-57.3311 43.188Z" fill="#EAF3D9"/>
</g>
<defs>
<clipPath id="clip0_2079_16954">
<rect width="4.59473" height="43.501" fill="white"/>
</clipPath>
</defs>
</svg>
