<svg width="55" height="4" viewBox="0 0 55 4" fill="none" xmlns="http://www.w3.org/2000/svg">
<path d="M53.0127 2.04564L52.9779 1.69774C53.3119 1.66295 53.6528 1.62816 53.9868 1.58641L54.0285 1.93431L54.0703 2.28221C53.7363 2.317 53.3954 2.35875 53.0614 2.39354L53.0127 2.04564ZM49.645 2.35874L49.6172 2.01084C50.2921 1.95517 50.967 1.89257 51.6419 1.82995L51.6767 2.17784L51.7115 2.52574C51.0366 2.58836 50.3617 2.65097 49.6798 2.70663L49.645 2.35874ZM46.2704 2.60227L46.2495 2.25437C46.9245 2.21262 47.5994 2.16393 48.2743 2.11522L48.3021 2.46312L48.33 2.81102C47.6551 2.85973 46.9732 2.90842 46.2982 2.95017L46.2704 2.60227ZM42.8888 2.77622L42.8749 2.42832C43.5498 2.40049 44.2248 2.36571 44.9066 2.33092L44.9275 2.67882L44.9484 3.02671C44.2665 3.0615 43.5916 3.09628 42.9097 3.12411L42.8888 2.77622ZM39.5073 2.89451L39.5003 2.54661C40.1752 2.52574 40.8502 2.50487 41.532 2.48399L41.546 2.83189L41.5599 3.17979C40.878 3.20762 40.2031 3.22849 39.5212 3.24241L39.5073 2.89451ZM36.1257 2.95713L36.1187 2.60923C36.7937 2.60228 37.4686 2.59531 38.1505 2.5814L38.1574 2.92929L38.1644 3.27719C37.4825 3.29111 36.8006 3.29807 36.1257 3.30503V2.95713ZM32.7372 2.9641V2.6162C33.4121 2.6162 34.087 2.6162 34.7689 2.6162V2.9641V3.31199C34.087 3.31199 33.4051 3.31199 32.7302 3.31199L32.7372 2.9641ZM29.3556 2.92235L29.3626 2.57445C30.0375 2.58837 30.7124 2.59531 31.3943 2.60227L31.3873 2.95017L31.3804 3.29806C30.6985 3.29111 30.0166 3.28416 29.3417 3.27025L29.3556 2.92235ZM25.9741 2.83884L25.988 2.49094C26.6559 2.51181 27.3378 2.5327 28.0197 2.54661L28.0127 2.89451L28.0058 3.24241C27.3239 3.22849 26.642 3.20761 25.9671 3.18673L25.9741 2.83884ZM22.5855 2.69969L22.5994 2.35179C23.2674 2.37962 23.9493 2.41441 24.6312 2.43528L24.6172 2.78318L24.6033 3.13108C23.9145 3.10325 23.2396 3.07542 22.5647 3.04759L22.5855 2.69969ZM19.2109 2.51878L19.2318 2.17088C19.8998 2.21263 20.5747 2.24742 21.2635 2.28221L21.2426 2.63011L21.2218 2.978C20.5329 2.94321 19.858 2.90146 19.1831 2.85971L19.2109 2.51878ZM15.8293 2.28917L15.8572 1.94128C16.5182 1.98998 17.2001 2.03868 17.8889 2.08739L17.868 2.43528L17.8472 2.78318C17.1583 2.73448 16.4764 2.69273 15.8085 2.63707L15.8293 2.28917ZM12.4617 2.01084L12.4965 1.66294C13.1575 1.72556 13.8324 1.78123 14.5282 1.83689L14.5004 2.18479L14.4726 2.53268C13.7768 2.47702 13.1018 2.42136 12.4339 2.35874L12.4617 2.01084ZM9.08709 1.67687L9.12189 1.32897C9.77594 1.39855 10.4509 1.46812 11.1467 1.5377L11.1119 1.8856L11.0771 2.2335C10.3813 2.16392 9.69939 2.09435 9.04534 2.02477L9.08709 1.67687ZM5.73337 1.28026L5.78206 0.932363C6.42219 1.01586 7.09017 1.09937 7.79292 1.18286L7.75117 1.53076L7.70943 1.87866C7.00667 1.79516 6.33176 1.71165 5.69162 1.62816L5.73337 1.28026ZM2.38659 0.786252L2.44225 0.445298C3.05455 0.549667 3.72252 0.654038 4.44614 0.75145L4.39743 1.0924L4.34872 1.43334C3.62509 1.32897 2.95018 1.22459 2.33092 1.12022L2.38659 0.786252ZM0.0695838 0.340933L0.146132 0C0.445324 0.0626216 0.765386 0.132207 1.12024 0.201787L1.05762 0.54272L0.995004 0.883653C0.63319 0.814073 0.299192 0.744509 0 0.681887L0.0695838 0.340933Z" fill="#EAF3D9"/>
</svg>
