<svg width="43" height="2" viewBox="0 0 43 2" fill="none" xmlns="http://www.w3.org/2000/svg">
<path d="M41.2189 1.56554L41.2329 1.21764C41.6016 1.23156 41.9495 1.2385 42.2835 1.24546L42.2765 1.59336L42.2696 1.94125C41.9356 1.9343 41.5807 1.92735 41.212 1.91344L41.2189 1.56554ZM37.7052 1.42637L37.7191 1.07847C38.4636 1.11326 39.1733 1.14806 39.8343 1.16893L39.8204 1.51683L39.8065 1.86473C39.1385 1.8369 38.4288 1.80906 37.6843 1.77427L37.7052 1.42637ZM34.1844 1.24546L34.2053 0.897561C34.9289 0.932351 35.6387 0.974101 36.3205 1.00889L36.2996 1.35679L36.2788 1.70469C35.5969 1.6699 34.8872 1.6351 34.1636 1.59336L34.1844 1.24546ZM30.6637 1.0576L30.6846 0.709704C31.4013 0.751452 32.111 0.786244 32.7998 0.821034L32.7789 1.16893L32.758 1.51683C32.0692 1.48204 31.3595 1.44029 30.6428 1.4055L30.6637 1.0576ZM27.1499 0.869744L27.1708 0.521847C27.8805 0.556636 28.5902 0.591408 29.286 0.633155L29.2652 0.981053L29.2443 1.32895C28.5485 1.29416 27.8457 1.25243 27.1291 1.21764L27.1499 0.869744ZM23.6292 0.702739L23.6431 0.354841C24.3529 0.389631 25.0556 0.424417 25.7583 0.459206L25.7444 0.807104L25.7305 1.155C25.0278 1.12021 24.325 1.08543 23.6153 1.05064L23.6292 0.702739ZM20.1085 0.549663L20.1224 0.201765C20.8251 0.229597 21.5349 0.257432 22.2376 0.292222L22.2237 0.64012L22.2098 0.988018C21.507 0.960186 20.7973 0.925393 20.0946 0.897561L20.1085 0.549663ZM16.5878 0.43139L16.5947 0.0834921C17.2975 0.104366 18.0002 0.125244 18.7099 0.153076L18.696 0.500974L18.6821 0.848871C17.9724 0.82104 17.2696 0.800161 16.5669 0.779288L16.5878 0.43139ZM13.067 0.361806L13.074 0.0139083C13.7698 0.0208662 14.4795 0.0347736 15.1962 0.0486895L15.1892 0.396587L15.1823 0.744485C14.4656 0.730569 13.7559 0.716662 13.067 0.709704V0.361806ZM9.53935 0.354841L9.53241 0.00694352C10.2212 -1.4439e-05 10.9309 2.46643e-10 11.6546 2.46643e-10V0.347898V0.695796C10.9309 0.695796 10.2282 0.695781 9.53935 0.702739V0.354841ZM6.01863 0.459206L5.99775 0.111309C6.67268 0.0765188 7.38239 0.0486972 8.12689 0.0347813L8.13385 0.382679L8.14082 0.730577C7.40327 0.751451 6.7005 0.772314 6.03254 0.807104L6.01863 0.459206ZM2.51181 0.779288L2.46312 0.438333C3.10325 0.34788 3.81992 0.271352 4.59225 0.20873L4.62007 0.556628L4.64791 0.904526C3.88949 0.967147 3.18675 1.03673 2.56749 1.12719L2.51181 0.779288ZM0.125238 1.32895L0 1.00193C0.30615 0.883641 0.654055 0.779284 1.05066 0.688831L1.12719 1.02976L1.20373 1.37072C0.834962 1.45421 0.514893 1.55161 0.243533 1.65598L0.125238 1.32895Z" fill="#FDC126"/>
</svg>
