<svg width="11" height="9" viewBox="0 0 11 9" fill="none" xmlns="http://www.w3.org/2000/svg">
<path d="M10.2143 1.0924L9.89421 0.953236C10.0334 0.640129 10.1517 0.320066 10.256 0L10.59 0.11133L10.924 0.22266C10.8127 0.563599 10.6874 0.897575 10.5413 1.23852L10.2143 1.0924ZM8.34955 4.08432L8.08514 3.86168C8.53741 3.33287 8.92706 2.77623 9.268 2.19872L9.56719 2.37267L9.8664 2.54661C9.51154 3.15891 9.09405 3.75034 8.61395 4.30698L8.34955 4.08432ZM5.68466 6.40133L5.4968 6.10908C6.08823 5.73335 6.62398 5.31589 7.118 4.86363L7.35456 5.12107L7.59113 5.37851C7.07624 5.85165 6.5057 6.29695 5.87948 6.69355L5.68466 6.40133ZM2.47703 7.89032L2.37267 7.55635C3.04759 7.34065 3.68077 7.08321 4.27219 6.79097L4.42527 7.10409L4.57835 7.41718C3.95909 7.72333 3.29113 7.99469 2.58142 8.21734L2.47703 7.89032ZM0.0556755 8.45393L0 8.11298C0.347898 8.05731 0.681895 7.9947 1.01588 7.92512L1.0924 8.26605L1.16895 8.60699C0.828013 8.68352 0.473143 8.74617 0.11133 8.80183L0.0556755 8.45393Z" fill="#FDC126"/>
</svg>
