<svg width="9" height="16" viewBox="0 0 9 16" fill="none" xmlns="http://www.w3.org/2000/svg">
<path d="M7.84163 14.4169L8.18256 14.3403C8.26606 14.7091 8.3426 15.057 8.40522 15.391L8.06429 15.4606L7.72333 15.5301C7.66071 15.2031 7.58419 14.8552 7.5007 14.4934L7.84163 14.4169ZM6.92317 10.9797L7.25716 10.8753C7.47286 11.585 7.66768 12.2808 7.84163 12.9487L7.50764 13.0392L7.17367 13.1297C6.99972 12.4687 6.81185 11.7868 6.59615 11.084L6.92317 10.9797ZM5.75424 7.61895L6.0743 7.49371C6.3387 8.16167 6.58223 8.8366 6.81184 9.51848L6.48482 9.62981L6.15779 9.74114C5.93514 9.07317 5.69162 8.4052 5.42722 7.75115L5.75424 7.61895ZM4.25829 4.39741L4.56444 4.23043C4.89842 4.84273 5.21847 5.49678 5.52462 6.1717L5.20456 6.31085L4.8845 6.45002C4.59226 5.78901 4.27916 5.14889 3.95213 4.56442L4.25829 4.39741ZM2.18481 1.52379L2.42834 1.2733C2.9154 1.74644 3.38158 2.3309 3.81993 2.98495L3.52769 3.17977L3.23547 3.37459C2.81799 2.74838 2.38658 2.20566 1.94128 1.77427L2.18481 1.52379ZM0.0417673 0.347898L0.0835133 0C0.473159 0.0487057 0.848885 0.173941 1.2107 0.361806L1.05066 0.667958L0.890639 0.97411C0.591447 0.821034 0.292234 0.723614 0 0.681866L0.0417673 0.347898Z" fill="#FDC126"/>
</svg>
