<svg width="20" height="12" viewBox="0 0 20 12" fill="none" xmlns="http://www.w3.org/2000/svg">
<path d="M18.209 0.786252L18.0281 0.487065L18.8421 0L19.023 0.299208L19.204 0.598395L18.3899 1.08544L18.209 0.786252ZM15.5162 2.40747L15.3353 2.10826L16.9565 1.13415L17.1374 1.43334L17.3183 1.73255L15.6971 2.70665L15.5162 2.40747ZM12.8235 4.0217L12.6426 3.72251L14.2638 2.7484L14.4447 3.04759L14.6256 3.34677L13.0044 4.32091L12.8235 4.0217ZM10.1308 5.63595L9.94987 5.33676L11.5711 4.36265L11.752 4.66184L11.9329 4.96103L10.3117 5.93514L10.1308 5.63595ZM7.445 7.2502L7.26411 6.95101L8.8853 5.97688L9.06621 6.27609L9.24711 6.57528L7.62591 7.54939L7.445 7.2502ZM4.75227 8.86445L4.57138 8.56524L6.19258 7.59113L6.37349 7.89032L6.55438 8.18953L4.93319 9.16364L4.75227 8.86445ZM2.05955 10.4787L1.87864 10.1795L3.49985 9.20538L3.68074 9.50457L3.86166 9.80376L2.24046 10.7779L2.05955 10.4787ZM0.180892 11.6059L0 11.3067L0.814069 10.8196L0.994983 11.1188L1.1759 11.418L0.361806 11.9051L0.180892 11.6059Z" fill="#FDC126"/>
</svg>
