<svg width="9" height="5" viewBox="0 0 9 5" fill="none" xmlns="http://www.w3.org/2000/svg">
<path d="M7.57026 3.09534L7.86248 2.91445C8.02947 3.18581 8.18951 3.47107 8.32867 3.77027L8.01556 3.9164L7.70246 4.06251C7.57026 3.78419 7.42415 3.51979 7.27107 3.27626L7.57026 3.09534ZM5.3298 0.931429L5.48984 0.625277C6.07431 0.931427 6.59614 1.34195 7.06232 1.84292L6.80488 2.07949L6.54744 2.31606C6.13692 1.87075 5.67769 1.50895 5.16976 1.24455L5.3298 0.931429ZM2.27524 0.374801L2.24743 0.0269033C2.95018 -0.0357183 3.60422 0.0129823 4.21652 0.152141L4.13999 0.493074L4.06344 0.834007C3.52768 0.708764 2.94322 0.667035 2.31005 0.722699L2.27524 0.374801ZM0.118295 0.861845L0 0.53482C0.313108 0.423493 0.626213 0.326086 0.932363 0.256506L1.01586 0.590496L1.09935 0.931429C0.821029 1.00101 0.528795 1.09147 0.229603 1.19583L0.118295 0.861845Z" fill="#FDC126"/>
</svg>
