<svg width="14" height="8" viewBox="0 0 14 8" fill="none" xmlns="http://www.w3.org/2000/svg">
<path d="M12.9696 1.00195L12.6565 0.848871C12.7957 0.570553 12.914 0.292234 13.0183 0L13.3454 0.118273L13.6724 0.236568C13.5611 0.549676 13.4288 0.855831 13.2758 1.15502L12.9696 1.00195ZM11.0423 3.5555L10.8057 3.30503C11.2719 2.86668 11.6754 2.40049 12.0233 1.91344L12.3086 2.1152L12.5939 2.31699C12.2251 2.84579 11.7868 3.34677 11.2858 3.81991L11.0423 3.5555ZM8.41217 5.38545L8.25212 5.0793C8.83659 4.78011 9.3654 4.45309 9.8455 4.10519L10.0473 4.3835L10.2491 4.66182C9.74112 5.03755 9.17754 5.3785 8.56524 5.69857L8.41217 5.38545ZM5.41329 6.54047L5.31587 6.20648C5.94904 6.02558 6.54047 5.8238 7.0971 5.60115L7.2293 5.92121L7.36151 6.24129C6.784 6.47786 6.16473 6.6866 5.50372 6.87446L5.41329 6.54047ZM2.26828 7.18059L2.22653 6.8327C2.88058 6.7492 3.49983 6.63788 4.09126 6.51264L4.16084 6.85359L4.23043 7.19452C3.61813 7.32672 2.97799 7.43805 2.31003 7.52155L2.26828 7.18059ZM0.020873 7.38238L0 7.03448C0.320066 7.02057 0.640129 6.9997 0.953236 6.97186L0.981053 7.31976L1.00889 7.66766C0.688825 7.69549 0.368763 7.71636 0.0347813 7.73028L0.020873 7.38238Z" fill="#D4E7B2"/>
</svg>
