<svg width="52" height="36" viewBox="0 0 52 36" fill="none" xmlns="http://www.w3.org/2000/svg">
<path d="M50.6887 26.6907L50.5356 26.3776C50.7374 26.2732 50.9392 26.1689 51.141 26.0715L51.301 26.3776L51.461 26.6838C51.2593 26.7881 51.0575 26.8925 50.8487 26.9969L50.6887 26.6907ZM8.54437 35.409L8.53046 35.0611C8.76703 35.0472 8.99663 35.0403 9.2332 35.0263L9.25407 35.3742L9.27495 35.7221C9.03837 35.7361 8.80878 35.743 8.57221 35.7569L8.54437 35.409ZM8.24518 34.7898L8.56524 34.6437C8.66265 34.8663 8.76007 35.0681 8.85748 35.242L8.55133 35.409L8.24518 35.576C8.14081 35.3812 8.03643 35.1655 7.93206 34.9359L8.24518 34.7898ZM0.340933 0.0556543C0.681873 -9.34171e-06 0.681887 0 0.681887 0V0.00696475C0.681887 0.0139227 0.681873 0.0278301 0.688831 0.041746C0.695789 0.0695779 0.702746 0.11132 0.709704 0.166984C0.730578 0.278311 0.758427 0.445296 0.793217 0.660993L0.452263 0.723633L0.11133 0.786252C0.0765401 0.570556 0.0417537 0.40355 0.0278378 0.292222C0.0208798 0.236559 0.0139227 0.194816 0.00696475 0.166984C0.00696475 0.153068 0 0.139161 0 0.132203C0 0.125245 0 0.125238 0 0.125238C0 0.125238 -6.80151e-06 0.111318 0.340933 0.0556543ZM8.54437 35.409L8.55828 35.7569C8.42608 35.7639 8.30084 35.6943 8.23822 35.576L8.54437 35.409Z" fill="#EAF3D9"/>
</svg>
