<svg width="126" height="117" viewBox="0 0 126 117" fill="none" xmlns="http://www.w3.org/2000/svg">
<path d="M22.6134 87.9851L0 99.8067L3.74338 104.615L24.8886 91.9233C24.8886 91.9233 56.937 111.726 62.5381 113.632C68.1393 115.532 71.4443 117.626 78.0474 114.926C84.6505 112.22 92.8191 105.728 79.4598 101.456C66.1006 97.1835 44.1204 87.6024 46.2634 84.6175C48.4134 81.6394 81.9369 95.7919 88.7348 97.9489C95.5327 100.113 103.472 97.0096 108.301 93.2314C113.129 89.4532 119.906 77.8334 107.848 77.9796C95.7902 78.1257 64.4863 76.8524 65.3422 72.9072C66.198 68.9621 100.327 72.2184 109.852 72.2184C119.378 72.2114 124.206 68.4402 125.201 63.834C126.196 59.2279 123.893 52.5274 114.277 55.2688C104.662 58.0102 75.5216 60.6542 76.0922 58.0172C76.6627 55.3871 103.36 50.1477 110.972 49.7233C118.584 49.3058 122.592 44.6649 123.594 40.0587C124.596 35.4525 122.425 28.091 116.4 31.6118C110.374 35.1255 93.0139 42.3896 90.6134 39.5786C88.2129 36.7606 111.8 28.5502 115.384 25.8854C118.967 23.2205 121.402 18.9204 118.243 16.1721C115.078 13.4167 97.2931 26.1011 98.1489 22.1559C99.0047 18.2107 111.967 13.8968 111.146 7.28675C110.325 0.676694 90.9335 -3.51897 90.8013 4.03041C90.6691 11.5798 93.7028 21.8845 90.683 21.9193C87.6702 21.9541 88.1851 14.9475 87.4545 9.04711C86.7309 3.14677 85.8125 1.57425 78.9728 4.22523C77.0106 5.17847 78.8893 10.4039 78.8893 10.4039C78.8893 10.4039 84.3791 33.6435 79.0702 33.8661C73.7613 34.0888 74.4501 17.0209 73.149 12.6026C71.8479 8.18432 68.5428 6.08997 63.5192 8.44872C58.4955 10.8075 58.9339 15.7267 59.9428 18.0089C60.9517 20.2911 69.2247 45.7434 64.535 47.7125C59.8454 49.6816 59.1565 34.3741 58.4746 29.4061C57.7997 24.4381 53.8963 11.1902 49.0188 12.8879C44.1413 14.5856 36.5362 19.6023 39.7508 23.2831C42.9654 26.9638 50.5147 51.1079 46.7853 54.4338C43.7725 54.4686 38.1366 31.8901 36.1187 27.3187C34.1009 22.7473 31.0812 19.3379 26.6351 22.5107C22.1889 25.6836 18.8908 30.4776 22.3489 35.3621C25.8001 40.2466 36.5293 72.8794 31.3108 73.8187C26.0993 74.758 18.4942 49.6816 17.7706 46.0843C17.047 42.4801 12.3086 40.0796 8.86443 42.0904C5.42024 44.1013 0.83495 51.3723 2.7136 56.6047C4.5992 61.8093 22.6134 87.9851 22.6134 87.9851Z" fill="#F0CA49"/>
</svg>
