<svg width="34" height="50" viewBox="0 0 34 50" fill="none" xmlns="http://www.w3.org/2000/svg">
<path d="M33.2521 1.10631L32.9181 1.00195C33.0294 0.626218 33.1268 0.292234 33.2103 0L33.5443 0.0904568L33.8783 0.180914C33.7948 0.480106 33.6974 0.82104 33.586 1.19677L33.2521 1.10631ZM32.111 4.43918L31.7839 4.31394C32.0553 3.59031 32.2919 2.92235 32.4936 2.33092L32.8207 2.44225L33.1477 2.55358C32.9459 3.15892 32.7024 3.82687 32.431 4.56442L32.111 4.43918ZM30.775 7.70246L30.455 7.56329C30.7542 6.88141 31.0255 6.22738 31.276 5.61508L31.5961 5.74728L31.9161 5.87948C31.6657 6.49874 31.3943 7.15278 31.0881 7.84857L30.775 7.70246ZM29.2999 10.8962L28.9868 10.7431C29.3069 10.089 29.6061 9.45586 29.8844 8.84356L30.1975 8.98969L30.5106 9.1358C30.2323 9.7481 29.9262 10.3882 29.6061 11.0492L29.2999 10.8962ZM27.6927 14.0342L27.3865 13.8672C27.7274 13.2271 28.0545 12.6009 28.3606 11.9955L28.6737 12.1555L28.9868 12.3156C28.6737 12.9279 28.3467 13.5541 28.0058 14.2012L27.6927 14.0342ZM25.974 17.1096L25.6749 16.9357C26.0367 16.3094 26.3846 15.6972 26.7185 15.0988L27.0247 15.2658L27.3308 15.4327C26.9969 16.0381 26.649 16.6504 26.2802 17.2836L25.974 17.1096ZM24.158 20.1294L23.8658 19.9485C24.2485 19.3362 24.6103 18.7378 24.9651 18.1463L25.2643 18.3273L25.5635 18.5082C25.2087 19.0996 24.8399 19.7049 24.4572 20.3172L24.158 20.1294ZM22.2515 23.0865L21.9593 22.8917C22.3559 22.2933 22.7386 21.7019 23.1143 21.1243L23.4066 21.3122L23.6988 21.5001C23.3231 22.0845 22.9404 22.676 22.5368 23.2744L22.2515 23.0865ZM20.2546 26.0019L19.9693 25.8001C20.3798 25.2156 20.7834 24.6381 21.1661 24.0676L21.4514 24.2624L21.7366 24.4572C21.347 25.0278 20.9434 25.6122 20.5329 26.1967L20.2546 26.0019ZM18.195 28.8546L17.9167 28.6459C18.3412 28.0754 18.7586 27.5048 19.1622 26.9412L19.4475 27.143L19.7328 27.3448C19.3292 27.9084 18.9117 28.4789 18.4803 29.0564L18.195 28.8546ZM16.059 31.6587L15.7876 31.443C16.2259 30.8794 16.6573 30.3228 17.0748 29.7731L17.3531 29.9818L17.6315 30.1906C17.214 30.7472 16.7826 31.3038 16.3373 31.8674L16.059 31.6587ZM13.8533 34.4071L13.5819 34.1844C14.0342 33.6348 14.4795 33.0851 14.9109 32.5423L15.1822 32.758L15.4536 32.9738C15.0153 33.5165 14.5769 34.0731 14.1177 34.6228L13.8533 34.4071ZM11.5989 37.1068L11.3345 36.8772C11.8007 36.3344 12.253 35.7987 12.6983 35.2699L12.9627 35.4925L13.2271 35.7152C12.7817 36.2509 12.3225 36.7867 11.8633 37.3294L11.5989 37.1068ZM9.27495 39.7578L9.0175 39.5281C9.49065 38.9993 9.95683 38.4705 10.4091 37.9487L10.6735 38.1783L10.9379 38.4079C10.4787 38.9298 10.0125 39.4586 9.53935 39.9943L9.27495 39.7578ZM6.89532 42.367L6.63787 42.1304C7.12493 41.6086 7.60503 41.0867 8.07121 40.5718L8.32865 40.8084L8.58611 41.045C8.11297 41.5668 7.63287 42.0887 7.14581 42.6105L6.89532 42.367ZM4.47396 44.9275L4.22346 44.684C4.71748 44.1691 5.20454 43.6612 5.68464 43.1532L5.93514 43.3898L6.18561 43.6264C5.70551 44.1343 5.21847 44.6492 4.71749 45.1641L4.47396 44.9275ZM2.00387 47.4324L1.76036 47.1889C2.26133 46.6879 2.7623 46.1869 3.24935 45.6859L3.49985 45.9295L3.75033 46.173C3.26327 46.674 2.7623 47.1749 2.25437 47.6829L2.00387 47.4324ZM0.243511 49.1719L0 48.9214C0.257444 48.6709 0.507914 48.4204 0.765358 48.1769L1.00889 48.4274L1.25242 48.6778C1.00194 48.9283 0.744488 49.1788 0.487044 49.4293L0.243511 49.1719Z" fill="#EAF3D9"/>
</svg>
