<svg width="36" height="21" viewBox="0 0 36 21" fill="none" xmlns="http://www.w3.org/2000/svg">
<path d="M34.3584 20.2337L34.5115 19.9206C34.8385 20.0807 35.1377 20.2198 35.409 20.3451L35.2699 20.6651L35.1307 20.9852C34.8524 20.86 34.5462 20.7138 34.2123 20.5538L34.3584 20.2337ZM31.3525 18.6821L31.5195 18.376C32.1597 18.7169 32.7581 19.03 33.3077 19.3153L33.1477 19.6284L32.9877 19.9345C32.431 19.6493 31.8326 19.3362 31.1925 18.9883L31.3525 18.6821ZM28.3884 17.054L28.5555 16.7478C29.1678 17.0887 29.7592 17.4158 30.3228 17.7289L30.1558 18.035L29.9888 18.3412C29.4182 18.0281 28.8268 17.701 28.2145 17.3601L28.3884 17.054ZM25.4383 15.391L25.6122 15.0918C26.2106 15.4327 26.802 15.7667 27.3726 16.0938L27.1986 16.3999L27.0247 16.7061C26.4472 16.379 25.8558 16.0451 25.2574 15.7041L25.4383 15.391ZM22.509 13.7002L22.6829 13.401C23.2744 13.742 23.8588 14.0829 24.4363 14.4169L24.2624 14.7161L24.0884 15.0153C23.5109 14.6813 22.9265 14.3403 22.335 13.9994L22.509 13.7002ZM19.5866 11.9886L19.7606 11.6894C20.3451 12.0303 20.9295 12.3782 21.507 12.7122L21.3331 13.0114L21.1591 13.3106C20.5816 12.9696 19.9972 12.6287 19.4127 12.2878L19.5866 11.9886ZM16.6782 10.2699L16.8591 9.97074C17.4366 10.3186 18.0211 10.6596 18.6056 11.0005L18.4316 11.2997L18.2577 11.5989C17.6732 11.258 17.0957 10.9101 16.5112 10.5691L16.6782 10.2699ZM13.7698 8.5374L13.9507 8.23822C14.5282 8.57916 15.1057 8.92705 15.6902 9.27495L15.5093 9.57415L15.3284 9.87334C14.7439 9.52544 14.1664 9.17753 13.5889 8.83659L13.7698 8.5374ZM10.8683 6.79792L11.0492 6.49873C11.6198 6.83967 12.1973 7.18757 12.7818 7.54242L12.6008 7.84161L12.42 8.1408C11.8355 7.78594 11.251 7.43804 10.6874 7.0971L10.8683 6.79792ZM7.97381 5.05148L8.15472 4.75227C8.71832 5.09321 9.29583 5.44112 9.89421 5.80293L9.7133 6.10212L9.53239 6.40131C8.94096 6.04645 8.35649 5.69161 7.7929 5.35067L7.97381 5.05148ZM5.08626 3.29806L5.26718 2.99888C5.81686 3.33286 6.39435 3.68772 6.99274 4.04954L6.81184 4.34872L6.63093 4.64791C6.03255 4.2861 5.45503 3.93123 4.90535 3.59725L5.08626 3.29806ZM2.19872 1.53074L2.37961 1.23155C2.90841 1.55162 3.48593 1.90649 4.10519 2.28917L3.92428 2.58836L3.74338 2.88755C3.12413 2.51182 2.53965 2.15697 2.0178 1.82995L2.19872 1.53074ZM0.180892 0.299187L0.361806 0C0.61925 0.153075 0.904534 0.333982 1.21764 0.521847L1.03673 0.821034L0.855815 1.12022C0.542707 0.925398 0.257444 0.751449 0 0.598374L0.180892 0.299187Z" fill="#FDC126"/>
</svg>
