<svg width="2" height="9" viewBox="0 0 2 9" fill="none" xmlns="http://www.w3.org/2000/svg">
<g clip-path="url(#clip0_2079_16946)">
<path d="M-0.108904 1.12721L-0.359381 0.883674C-0.0601886 0.570566 0.273787 0.278318 0.656475 0L0.858262 0.285279L1.06003 0.570557C0.712129 0.821044 0.405988 1.0924 0.134628 1.37072L-0.108904 1.12721ZM-1.88317 4.95408L-2.23107 4.91234C-2.13366 4.05651 -1.88318 3.1798 -1.43091 2.34485L-1.12476 2.51183L-0.818608 2.67882C-1.22217 3.43028 -1.45179 4.21654 -1.54224 4.99583L-1.88317 4.95408ZM-1.66748 7.93903L-2.00147 8.02949C-2.10584 7.61897 -2.18933 7.18063 -2.23804 6.71444L-1.89014 6.67964L-1.54224 6.64486C-1.50049 7.07625 -1.42396 7.47981 -1.32655 7.85554L-1.66748 7.93903Z" fill="#D4E7B2"/>
</g>
<defs>
<clipPath id="clip0_2079_16946">
<rect width="1.06006" height="8.0293" fill="white"/>
</clipPath>
</defs>
</svg>
