<svg width="8" height="6" viewBox="0 0 8 6" fill="none" xmlns="http://www.w3.org/2000/svg">
<path d="M7.20149 3.94832L7.54242 3.87876C7.612 4.20579 7.67464 4.56063 7.7303 4.9294L7.38935 4.98507L7.04841 5.04073C6.99275 4.67892 6.93012 4.33797 6.8675 4.01791L7.20149 3.94832ZM5.75424 0.886829L5.96994 0.615479C6.53353 1.05383 6.90926 1.70786 7.18758 2.53586L6.86056 2.64719L6.53353 2.75852C6.27609 2.0001 5.95601 1.49217 5.54549 1.16514L5.75424 0.886829ZM2.42834 0.531987L2.35876 0.191033C3.21459 0.0101263 3.94516 -0.0455383 4.56442 0.0379572L4.51573 0.385855L4.46702 0.733753C3.95213 0.664173 3.31198 0.705936 2.4979 0.879885L2.42834 0.531987ZM0.118295 1.20691L0 0.879885C0.354856 0.754642 0.688846 0.643307 1.00891 0.545896L1.11328 0.879885L1.21764 1.21385C0.904534 1.31126 0.577522 1.41564 0.229624 1.54088L0.118295 1.20691Z" fill="#D4E7B2"/>
</svg>
