<svg width="21" height="12" viewBox="0 0 21 12" fill="none" xmlns="http://www.w3.org/2000/svg">
<path d="M19.4405 0.758415L19.2805 0.452263L20.1433 0L20.3033 0.306152L20.4633 0.612303L19.6005 1.06457L19.4405 0.758415ZM16.5669 2.26828L16.4068 1.96213L18.1324 1.0576L18.2924 1.36375L18.4525 1.66991L16.7269 2.57443L16.5669 2.26828ZM13.6863 3.7712L13.5263 3.46505L15.2518 2.56052L15.4119 2.86667L15.5719 3.17283L13.8463 4.07735L13.6863 3.7712ZM10.8057 5.27412L10.6457 4.96797L12.3712 4.06344L12.5313 4.3696L12.6913 4.67575L10.9657 5.58027L10.8057 5.27412ZM7.93206 6.77704L7.77202 6.47089L9.4976 5.56636L9.65765 5.87252L9.81766 6.17867L8.09211 7.08319L7.93206 6.77704ZM5.05146 8.27996L4.89144 7.97381L6.617 7.06929L6.77704 7.37544L6.93708 7.68157L5.2115 8.58611L5.05146 8.27996ZM2.17784 9.78983L2.0178 9.4837L3.74338 8.57915L3.9034 8.8853L4.06344 9.19145L2.33786 10.096L2.17784 9.78983ZM0.160019 10.8405L0 10.5343L0.86278 10.0821L1.02282 10.3882L1.18284 10.6944L0.32006 11.1466L0.160019 10.8405Z" fill="#FDC126"/>
</svg>
