<svg width="41" height="97" viewBox="0 0 41 97" fill="none" xmlns="http://www.w3.org/2000/svg">
<g clip-path="url(#clip0_2079_16976)">
<path d="M-57.7483 95.6719L-57.5952 95.985C-57.804 96.0824 -57.964 96.1589 -58.0684 96.2076C-58.124 96.2355 -58.1658 96.2494 -58.1866 96.2633C-58.2006 96.2703 -58.2075 96.2772 -58.2145 96.2772C-58.2214 96.2772 -58.2214 96.2772 -58.2214 96.2842C-58.2214 96.2842 -58.2214 96.2842 -58.3676 95.9711C-58.5137 95.658 -58.5137 95.658 -58.5137 95.658H-58.5067C-58.4997 95.658 -58.4928 95.651 -58.4789 95.644C-58.4511 95.6301 -58.4093 95.6162 -58.3606 95.5884C-58.2562 95.5397 -58.0962 95.4631 -57.8944 95.3657L-57.7483 95.6719ZM5.50648 51.4332L5.75001 51.6837C5.58302 51.8437 5.42298 51.9968 5.25598 52.1568L5.01245 51.9064L4.76894 51.6559C4.93593 51.4958 5.09596 51.3428 5.26295 51.1827L5.50648 51.4332ZM5.99353 50.9601L6.23706 51.2106C6.07703 51.3706 5.91005 51.5237 5.75001 51.6837L5.50648 51.4332L5.26295 51.1827C5.42298 51.0227 5.58998 50.8696 5.75001 50.7096L5.99353 50.9601ZM39.9901 0.0695838C40.331 0.132205 40.331 0.132203 40.331 0.132203V0.139146C40.331 0.146104 40.3241 0.160033 40.3241 0.173949C40.3171 0.201781 40.3102 0.243523 40.2963 0.299187C40.2754 0.410514 40.2336 0.577499 40.1849 0.793196L39.844 0.709704L39.503 0.626212C39.5517 0.417473 39.5865 0.257445 39.6144 0.153076C39.6283 0.0974122 39.6352 0.0626131 39.6352 0.0347813C39.6352 0.0208654 39.6422 0.0139227 39.6422 0.00696475V0C39.6422 0 39.6492 0.0069622 39.9901 0.0695838Z" fill="#EAF3D9"/>
</g>
<defs>
<clipPath id="clip0_2079_16976">
<rect width="40.3311" height="96.2842" fill="white"/>
</clipPath>
</defs>
</svg>
