<svg width="11" height="9" viewBox="0 0 11 9" fill="none" xmlns="http://www.w3.org/2000/svg">
<path d="M10.1308 7.20843L10.4787 7.19453C10.4926 7.50763 10.4856 7.8277 10.4648 8.13385L10.1169 8.11298L9.76898 8.09211C9.78289 7.79987 9.78984 7.50763 9.78288 7.2154L10.1308 7.20843ZM9.5185 4.29305L9.83856 4.16087C10.0821 4.74534 10.2491 5.35763 10.3534 5.98385L10.0125 6.0395L9.67155 6.09518C9.57414 5.51767 9.42107 4.95406 9.19842 4.42525L9.5185 4.29305ZM7.78595 1.87866L8.00861 1.61425C8.50959 2.03869 8.92706 2.52574 9.268 3.0615L8.97576 3.24936L8.68354 3.43723C8.37739 2.95713 8.0086 2.52574 7.56329 2.15001L7.78595 1.87866ZM5.12107 0.570559L5.19759 0.229605C5.8586 0.38268 6.45002 0.612293 6.97883 0.904527L6.81184 1.21068L6.64486 1.51683C6.17172 1.25939 5.64292 1.05065 5.03757 0.911492L5.12107 0.570559ZM2.14306 0.389646L2.11522 0.0417477C2.78319 -0.0139159 3.40941 -0.0139159 3.98692 0.0417477L3.95908 0.389646L3.93124 0.737543C3.38852 0.688838 2.80405 0.688838 2.17088 0.737543L2.14306 0.389646ZM0.0765486 0.71667L0 0.375737C0.313108 0.306158 0.619256 0.243529 0.91149 0.194824L0.967166 0.535757L1.02282 0.876711C0.737544 0.925417 0.445324 0.98108 0.146132 1.05066L0.0765486 0.71667Z" fill="#FDC126"/>
</svg>
