<svg width="41" height="10" viewBox="0 0 41 10" fill="none" xmlns="http://www.w3.org/2000/svg">
<path d="M39.1942 0.751471L39.048 0.438355C39.3612 0.292238 39.6743 0.146117 39.9735 0L40.1265 0.313116L40.2796 0.626212C39.9735 0.779287 39.6604 0.925414 39.3403 1.07153L39.1942 0.751471ZM36.0283 2.08042L35.9031 1.7534C36.5571 1.50291 37.1972 1.24548 37.8095 0.981074L37.9487 1.30113L38.0879 1.62122C37.4616 1.88562 36.8215 2.15002 36.1536 2.4005L36.0283 2.08042ZM32.7859 3.22154L32.6746 2.88755C33.3425 2.67185 33.9896 2.4492 34.6228 2.21959L34.7411 2.54661L34.8594 2.87364C34.2192 3.10325 33.5652 3.32591 32.8903 3.54856L32.7859 3.22154ZM29.5017 4.22348L29.4043 3.88949C30.0792 3.70163 30.7333 3.50682 31.3804 3.31199L31.4847 3.64596L31.5891 3.97995C30.9351 4.18173 30.2741 4.37655 29.5922 4.56442L29.5017 4.22348ZM26.1758 5.08626L26.0923 4.74533C26.7673 4.57834 27.4352 4.41134 28.0893 4.23739L28.1797 4.57138L28.2702 4.90537C27.6092 5.07932 26.9412 5.25325 26.2593 5.41329L26.1758 5.08626ZM22.8221 5.84468L22.7525 5.50374C23.4344 5.35763 24.1093 5.2115 24.7703 5.05843L24.8469 5.39938L24.9234 5.74031C24.2554 5.89339 23.5805 6.03951 22.8917 6.18563L22.8221 5.84468ZM19.4545 6.50569L19.3918 6.16476C20.0737 6.03952 20.7486 5.91426 21.4166 5.78206L21.4862 6.12301L21.5558 6.46395C20.8878 6.59615 20.2059 6.72835 19.5171 6.85359L19.4545 6.50569ZM16.0659 7.07625L16.0103 6.7353C16.6991 6.63093 17.374 6.51961 18.0489 6.40133L18.1046 6.74226L18.1603 7.08319C17.4853 7.20148 16.8035 7.31281 16.1077 7.41718L16.0659 7.07625ZM12.6705 7.57026L12.6217 7.22236C13.3106 7.13191 13.9925 7.03449 14.6674 6.93708L14.7161 7.27801L14.7648 7.61897C14.0829 7.71638 13.401 7.81379 12.7122 7.90425L12.6705 7.57026ZM9.26104 7.98077L9.22626 7.63288C9.91509 7.55634 10.597 7.4798 11.2789 7.39631L11.3206 7.74421L11.3624 8.0921C10.6805 8.1756 9.99162 8.2591 9.30278 8.33564L9.26104 7.98077ZM5.83773 8.32171L5.8099 7.97381C6.49873 7.91119 7.18757 7.84857 7.86945 7.77899L7.90425 8.12689L7.93903 8.47478C7.25715 8.54436 6.56831 8.61394 5.87252 8.66961L5.83773 8.32171ZM2.41441 8.59308L2.39354 8.24518C3.08238 8.19647 3.77121 8.14777 4.45309 8.0921L4.48092 8.44L4.50876 8.7879C3.81993 8.84356 3.13109 8.89923 2.44225 8.94098L2.41441 8.59308ZM0.020873 8.74615L0 8.39826C0.347898 8.37738 0.688845 8.35651 1.02979 8.33564L1.05066 8.68354L1.07153 9.03143C0.723633 9.05231 0.3827 9.07318 0.0348025 9.09405L0.020873 8.74615Z" fill="#EAF3D9"/>
</svg>
