<svg width="4" height="9" viewBox="0 0 4 9" fill="none" xmlns="http://www.w3.org/2000/svg">
<path d="M3.16586 1.39159L2.83187 1.47508C2.73446 1.09935 2.57444 0.737542 2.34483 0.389644L2.63011 0.194822L2.91538 0C3.1937 0.417477 3.38852 0.848867 3.49985 1.30113L3.16586 1.39159ZM2.21959 5.58724L1.92735 5.40634C2.40744 4.64097 2.73447 3.86166 2.86667 3.10324L3.20761 3.16588L3.54854 3.2285C3.39547 4.09129 3.0267 4.95408 2.51181 5.77512L2.21959 5.58724ZM0.236568 7.95294L0 7.6955C0.313108 7.3963 0.612299 7.09017 0.890617 6.77706L1.155 7.00667L1.41941 7.23627C1.12717 7.57025 0.814082 7.89728 0.480101 8.20343L0.236568 7.95294Z" fill="#D4E7B2"/>
</svg>
