<svg width="43" height="2" viewBox="0 0 43 2" fill="none" xmlns="http://www.w3.org/2000/svg">
<path d="M41.2189 1.56554L41.2329 1.21764C41.6016 1.23156 41.9495 1.23852 42.2835 1.24548L42.2765 1.59338L42.2696 1.94128C41.9356 1.93432 41.5807 1.92735 41.212 1.91344L41.2189 1.56554ZM37.7052 1.41943L37.7191 1.07153C38.4636 1.10632 39.1733 1.14111 39.8343 1.16199L39.8204 1.50989L39.8065 1.85778C39.1385 1.82995 38.4288 1.80212 37.6843 1.76733L37.7052 1.41943ZM34.1844 1.24548L34.2053 0.897582C34.9289 0.932372 35.6387 0.974122 36.3205 1.00891L36.2997 1.35681L36.2788 1.70471C35.5969 1.66992 34.8872 1.63513 34.1636 1.59338L34.1844 1.24548ZM30.6637 1.05762L30.6846 0.709725C31.4013 0.751473 32.111 0.786244 32.7998 0.821034L32.7789 1.16893L32.7581 1.51683C32.0692 1.48204 31.3595 1.44031 30.6428 1.40552L30.6637 1.05762ZM27.15 0.869744L27.1708 0.521847C27.8805 0.556636 28.5903 0.591429 29.2861 0.633176L29.2652 0.981074L29.2443 1.32897C28.5485 1.29418 27.8458 1.25243 27.1291 1.21764L27.15 0.869744ZM23.6292 0.70276L23.6431 0.354863C24.3529 0.389652 25.0556 0.424438 25.7584 0.459228L25.7444 0.807125L25.7305 1.15502C25.0278 1.12023 24.325 1.08545 23.6153 1.05066L23.6292 0.70276ZM20.1085 0.549684L20.1224 0.201787C20.8252 0.229618 21.5349 0.257454 22.2376 0.292243L22.2237 0.640141L22.2098 0.988039C21.507 0.960207 20.7973 0.925414 20.0946 0.897582L20.1085 0.549684ZM16.5947 0.43139L16.6017 0.0834921C17.3044 0.104366 18.0072 0.125244 18.7169 0.153076L18.703 0.500974L18.6891 0.848871C17.9794 0.82104 17.2766 0.800161 16.5739 0.779288L16.5947 0.43139ZM13.067 0.354863L13.074 0.00696475C13.7698 0.0139227 14.4795 0.0278301 15.1962 0.041746L15.1892 0.389644L15.1823 0.737542C14.4656 0.723626 13.7559 0.709718 13.067 0.70276V0.354863ZM9.54632 0.354863L9.53937 0.00696475C10.2282 6.79503e-06 10.9379 0 11.6615 0V0.347898V0.695796C10.9379 0.695796 10.2352 0.695802 9.54632 0.70276V0.354863ZM6.01865 0.459228L5.99778 0.11133C6.6727 0.0765401 7.38241 0.0487184 8.12691 0.0348025L8.13385 0.3827L8.14082 0.730598C7.40327 0.751472 6.70052 0.772336 6.03256 0.807125L6.01865 0.459228ZM2.51183 0.772344L2.46312 0.43139C3.10325 0.340936 3.81992 0.264408 4.59225 0.201787L4.62009 0.549684L4.64793 0.897582C3.88951 0.960204 3.18675 1.02979 2.56749 1.12024L2.51183 0.772344ZM0.125259 1.32897L0 1.00195C0.30615 0.883662 0.654055 0.779305 1.05066 0.688852L1.12721 1.02979L1.20373 1.37072C0.834962 1.45421 0.514893 1.55163 0.243533 1.656L0.125259 1.32897Z" fill="#D4E7B2"/>
</svg>
