<svg width="3" height="22" viewBox="0 0 3 22" fill="none" xmlns="http://www.w3.org/2000/svg">
<path d="M1.83689 20.6443L2.15695 20.7834C1.983 21.187 1.76036 21.5349 1.47508 21.7993L1.23852 21.5488L1.00195 21.2983C1.19677 21.1104 1.37072 20.853 1.52379 20.5051L1.83689 20.6443ZM2.47703 17.0679L2.82493 17.0818C2.79014 17.8959 2.72056 18.6473 2.58836 19.3153L2.24741 19.2527L1.90647 19.1901C2.02476 18.5638 2.09434 17.8472 2.12913 17.0609L2.47703 17.0679ZM2.40048 13.4149L2.74838 13.3941C2.80404 14.1525 2.83189 14.89 2.8458 15.5997L2.4979 15.6067L2.15001 15.6137C2.14305 14.9179 2.10825 14.1942 2.05258 13.4428L2.40048 13.4149ZM2.03171 9.78288L2.37961 9.74114C2.47006 10.4717 2.55356 11.2023 2.62314 11.9329L2.27524 11.9677L1.92735 12.0025C1.85777 11.2858 1.77427 10.5622 1.68381 9.83856L2.03171 9.78288ZM1.50292 6.16476L1.84385 6.10908C1.96214 6.81184 2.07347 7.54242 2.17784 8.27996L1.83689 8.32867L1.49596 8.37738C1.39159 7.6468 1.28025 6.91621 1.16197 6.22041L1.50292 6.16476ZM0.855815 2.57445L1.19677 2.50487C1.32897 3.17283 1.46116 3.89647 1.60032 4.6688L1.25939 4.73142L0.918434 4.79404C0.786233 4.02867 0.647083 3.30504 0.514882 2.64404L0.855815 2.57445ZM0.340933 0.0695838L0.681866 0C0.751446 0.320066 0.827988 0.674928 0.904526 1.07153L0.563593 1.14111L0.222638 1.2107C0.139143 0.814095 0.0695796 0.45924 0 0.146132L0.340933 0.0695838Z" fill="#D4E7B2"/>
</svg>
