<svg width="14" height="3" viewBox="0 0 14 3" fill="none" xmlns="http://www.w3.org/2000/svg">
<path d="M12.0929 1.79516L11.9955 1.46117C12.3017 1.37072 12.6148 1.27331 12.9348 1.15502L13.0531 1.48205L13.1714 1.80907C12.8374 1.92736 12.5104 2.03171 12.1903 2.12217L12.0929 1.79516ZM8.80875 2.35876L8.79484 2.01086C9.4141 1.98303 10.0612 1.90649 10.7431 1.76733L10.8126 2.10826L10.8822 2.44919C10.1656 2.59531 9.48367 2.67882 8.82963 2.70665L8.80875 2.35876ZM5.49678 2.07348L5.56636 1.73252C6.2065 1.87168 6.84661 1.96215 7.50762 2.00389L7.48675 2.35179L7.46587 2.69969C6.76312 2.65794 6.0882 2.55357 5.42023 2.41441L5.49678 2.07348ZM2.30308 1.12024L2.42135 0.793217C3.06844 1.02283 3.69467 1.23156 4.32088 1.41246L4.22346 1.74645L4.12606 2.08042C3.48593 1.89256 2.8458 1.68384 2.19175 1.44727L2.30308 1.12024ZM0.118273 0.327025L0.236568 0C0.556634 0.118285 0.87669 0.23657 1.18284 0.347898L1.06457 0.674923L0.946272 1.00195C0.633164 0.89062 0.320066 0.772335 0 0.65405L0.118273 0.327025Z" fill="#FDC126"/>
</svg>
