<svg width="5" height="20" viewBox="0 0 5 20" fill="none" xmlns="http://www.w3.org/2000/svg">
<path d="M3.75033 18.9048L4.03561 18.703C4.23043 18.9743 4.43221 19.204 4.64791 19.3779L4.42525 19.6493L4.20259 19.9206C3.93123 19.698 3.6877 19.4196 3.46505 19.1065L3.75033 18.9048ZM2.42135 15.8154L2.75534 15.725C2.94321 16.4138 3.1589 17.0331 3.40243 17.5827L3.08237 17.7219L2.76231 17.8611C2.50486 17.2766 2.27524 16.6156 2.08042 15.9059L2.42135 15.8154ZM1.72556 12.5034L2.06651 12.4478C2.17784 13.1297 2.29613 13.7907 2.43528 14.4169L2.09433 14.4934L1.7534 14.57C1.61424 13.9298 1.48899 13.2549 1.37766 12.5661L1.72556 12.5034ZM1.29417 9.14971L1.64207 9.11493C1.71165 9.78289 1.79514 10.4578 1.87864 11.1119L1.53074 11.1606L1.18284 11.2093C1.09239 10.5413 1.01584 9.86637 0.939307 9.19145L1.29417 9.14971ZM0.967145 5.78206L1.31504 5.75422C1.37071 6.41523 1.43334 7.0832 1.50292 7.76508L1.15502 7.79986L0.807125 7.83466C0.744504 7.15278 0.681869 6.47787 0.619247 5.81686L0.967145 5.78206ZM0.654049 2.41441L1.00195 2.37963C1.07153 3.0128 1.13415 3.68772 1.19677 4.39743L0.848871 4.42527L0.500974 4.45309C0.438352 3.75033 0.375731 3.07541 0.306152 2.44919L0.654049 2.41441ZM0.347898 0.0626191L0.688831 0C0.744494 0.313108 0.793201 0.654042 0.841907 1.01586L0.494009 1.06457L0.146111 1.11328C0.0974054 0.758421 0.0487057 0.431388 0 0.125238L0.347898 0.0626191Z" fill="#FDC126"/>
</svg>
