<svg width="36" height="5" viewBox="0 0 36 5" fill="none" xmlns="http://www.w3.org/2000/svg">
<path d="M34.7619 0.577501L34.6854 0.236568C35.0472 0.16003 35.3951 0.0834955 35.7291 0L35.8056 0.340933L35.8822 0.681866C35.5482 0.758404 35.1933 0.841896 34.8315 0.918434L34.7619 0.577501ZM31.2343 1.25939L31.1716 0.918434C31.9092 0.793191 32.6119 0.660991 33.2799 0.52879L33.3495 0.869744L33.4191 1.21068C32.7441 1.34288 32.0344 1.47508 31.2899 1.60032L31.2343 1.25939ZM27.6787 1.82298L27.63 1.48203C28.3537 1.37766 29.0634 1.26635 29.7522 1.15502L29.8079 1.49596L29.8635 1.83689C29.1677 1.94822 28.458 2.05954 27.7274 2.16391L27.6787 1.82298ZM24.1163 2.31003L24.0745 1.96213C24.7912 1.87167 25.5079 1.77428 26.2106 1.67687L26.2593 2.02477L26.308 2.37267C25.6053 2.47008 24.8886 2.56747 24.165 2.65792L24.1163 2.31003ZM20.5399 2.73447L20.5051 2.38657C21.2218 2.31004 21.9315 2.22654 22.6412 2.14304L22.6829 2.49094L22.7247 2.83884C22.015 2.92233 21.2983 3.00583 20.5816 3.08237L20.5399 2.73447ZM16.9635 3.09628L16.9287 2.74838C17.6384 2.68576 18.3551 2.61619 19.0717 2.53965L19.1065 2.88755L19.1413 3.23544C18.4247 3.31198 17.708 3.38155 16.9913 3.44418L16.9635 3.09628ZM13.3801 3.39546L13.3523 3.04757C14.0551 2.99886 14.7717 2.93624 15.4954 2.87362L15.5232 3.22152L15.551 3.56941C14.8274 3.63203 14.1107 3.6877 13.401 3.74336L13.3801 3.39546ZM9.78983 3.61812L9.76895 3.27023C10.4647 3.23544 11.1814 3.19369 11.912 3.14499L11.9329 3.49289L11.9538 3.84078C11.2162 3.88949 10.4995 3.93123 9.79679 3.96602L9.78983 3.61812ZM6.19258 3.74336L6.18561 3.39546C6.86749 3.38155 7.58417 3.36764 8.32867 3.33285L8.34258 3.68074L8.35649 4.02864C7.60503 4.05647 6.8814 4.07734 6.19952 4.09126L6.19258 3.74336ZM2.5953 3.68771L2.61618 3.33981C3.24935 3.3746 3.96602 3.39547 4.74531 3.40243V3.75033V4.09822C3.95906 4.09127 3.22849 4.0704 2.5814 4.03561L2.5953 3.68771ZM0.104365 3.36068L0.194822 3.02669C0.459224 3.10323 0.800151 3.16585 1.20371 3.22152L1.155 3.56941L1.10631 3.91731C0.681877 3.86165 0.313108 3.79208 0 3.70858L0.104365 3.36068Z" fill="#FDC126"/>
</svg>
