<svg width="8" height="13" viewBox="0 0 8 13" fill="none" xmlns="http://www.w3.org/2000/svg">
<path d="M1.14806 12.1764L1.31504 12.4826C0.981061 12.6635 0.640134 12.8374 0.306152 13.0044L0.153076 12.6913L0 12.3782C0.327024 12.2182 0.660994 12.0512 0.988018 11.8703L1.14806 12.1764ZM4.30001 10.1169L4.51571 10.3882C3.9382 10.8544 3.31199 11.2997 2.65098 11.7103L2.4631 11.418L2.27524 11.1258C2.91538 10.7222 3.52071 10.2978 4.07039 9.85247L4.30001 10.1169ZM6.75617 7.28498L7.06929 7.43806C6.74226 8.09906 6.26215 8.73224 5.68464 9.33062L5.43416 9.08709L5.18366 8.84356C5.72638 8.27996 6.15778 7.70246 6.44305 7.1319L6.75617 7.28498ZM6.54047 3.71555L6.82575 3.52072C7.3476 4.27914 7.56328 5.06539 7.50762 5.85164L7.15972 5.83077L6.81182 5.8099C6.85357 5.19064 6.68658 4.55746 6.24823 3.91733L6.54047 3.71555ZM3.62509 1.38463L3.78513 1.0785C4.55746 1.48206 5.20454 1.90649 5.72638 2.33788L5.50375 2.60227L5.28109 2.86667C4.80794 2.47007 4.20259 2.07348 3.46505 1.68383L3.62509 1.38463ZM1.1898 0.327025L1.30808 0C1.68381 0.139159 2.03868 0.278322 2.37267 0.417482L2.24046 0.737542L2.10826 1.05762C1.78124 0.918464 1.44028 0.786251 1.07151 0.65405L1.1898 0.327025Z" fill="#FDC126"/>
</svg>
