<svg width="21" height="7" viewBox="0 0 21 7" fill="none" xmlns="http://www.w3.org/2000/svg">
<path d="M19.4892 5.3862L19.7606 5.1705C19.9833 5.44882 20.1711 5.72712 20.3381 6.02632L20.032 6.19332L19.7258 6.36031C19.5866 6.10286 19.4127 5.85238 19.2179 5.60886L19.4892 5.3862ZM17.047 3.29881L17.2349 3.00657C17.8263 3.37534 18.369 3.7789 18.8422 4.20334L18.6125 4.46078L18.3829 4.71824C17.9446 4.32163 17.4297 3.94589 16.873 3.59103L17.047 3.29881ZM14.1594 1.86547L14.2847 1.53845C14.9109 1.78198 15.5163 2.06028 16.0868 2.35252L15.9268 2.65867L15.7667 2.96482C15.2171 2.67954 14.6326 2.41514 14.0272 2.17857L14.1594 1.86547ZM11.0771 0.905271L11.1536 0.564338C11.7937 0.717413 12.4339 0.891355 13.0531 1.10009L12.9418 1.43408L12.8305 1.76805C12.2251 1.57323 11.6059 1.39929 10.9866 1.25317L11.0771 0.905271ZM7.89032 0.404298L7.91816 0.0563999C8.56525 0.105106 9.2193 0.188591 9.88031 0.306876L9.81769 0.64783L9.75507 0.988763C9.11494 0.877436 8.48175 0.793936 7.85554 0.745231L7.89032 0.404298ZM4.6688 0.473881L4.62009 0.125984C5.25327 0.0355303 5.92123 -0.00621239 6.61702 0.000745569V0.348643V0.696541C5.95602 0.696541 5.31588 0.731319 4.72446 0.814814L4.6688 0.473881ZM1.656 1.54541L1.45421 1.26013C1.98301 0.884404 2.6162 0.599114 3.31896 0.397333L3.41636 0.731322L3.51378 1.06531C2.87365 1.25318 2.31005 1.50366 1.85778 1.82373L1.656 1.54541ZM0.33399 3.31968L0 3.21532C0.111327 2.86046 0.27137 2.54039 0.466192 2.24815L0.751471 2.44297L1.03675 2.6378C0.876717 2.87437 0.74451 3.13181 0.661014 3.41708L0.33399 3.31968Z" fill="#FDC126"/>
</svg>
