<svg width="63" height="44" viewBox="0 0 63 44" fill="none" xmlns="http://www.w3.org/2000/svg">
<path d="M61.0909 0.960201L60.8543 0.709704C61.1048 0.473133 61.3553 0.23657 61.6057 0L61.8423 0.250476L62.0789 0.500974C61.8284 0.737544 61.5779 0.974107 61.3274 1.21068L61.0909 0.960201ZM58.5721 3.2911L58.3355 3.03366C58.8434 2.57443 59.3444 2.10825 59.8454 1.64207L60.0819 1.89951L60.3185 2.15697C59.8106 2.62315 59.3096 3.08934 58.8017 3.54856L58.5721 3.2911ZM56.0255 5.58027L55.7958 5.32283C56.3107 4.87056 56.8187 4.4183 57.3266 3.95211L57.5562 4.20955L57.7858 4.467C57.2709 4.92622 56.763 5.38545 56.2481 5.83771L56.0255 5.58027ZM53.4371 7.8277L53.2075 7.56329C53.7224 7.11798 54.2442 6.67268 54.7591 6.22041L54.9887 6.4848L55.2183 6.7492C54.6965 7.20147 54.1816 7.65374 53.6597 8.09905L53.4371 7.8277ZM50.8139 10.0403L50.5913 9.77592C51.1132 9.33757 51.6419 8.89922 52.1638 8.45391L52.3865 8.71832L52.6091 8.98272C52.0803 9.42803 51.5584 9.87332 51.0296 10.3117L50.8139 10.0403ZM48.1699 12.2182L47.9542 11.9468C48.483 11.5154 49.0188 11.084 49.5476 10.6457L49.7703 10.917L49.9929 11.1884C49.4572 11.6267 48.9284 12.0651 48.3926 12.4895L48.1699 12.2182ZM45.4911 14.3543L45.2754 14.0829C45.8112 13.6585 46.347 13.234 46.8897 12.8026L47.1054 13.074L47.3211 13.3454C46.7783 13.7767 46.2426 14.2081 45.7068 14.6256L45.4911 14.3543ZM42.7775 16.4625L42.5688 16.1842C43.1115 15.7667 43.6542 15.3492 44.1969 14.9248L44.4126 15.1962L44.6283 15.4675C44.0787 15.892 43.5359 16.3164 42.9932 16.7269L42.7775 16.4625ZM40.043 18.5221L39.8343 18.2438C40.384 17.8332 40.9267 17.4227 41.4833 17.0052L41.6921 17.2836L41.9008 17.5619C41.3511 17.9793 40.8015 18.3899 40.2518 18.8004L40.043 18.5221ZM37.2877 20.5538L37.0859 20.2755C37.6356 19.8789 38.1922 19.4753 38.7419 19.0648L38.9506 19.3431L39.1594 19.6214C38.6027 20.0319 38.0461 20.4355 37.4964 20.8391L37.2877 20.5538ZM34.4976 22.5507L34.2958 22.2655C34.8524 21.8758 35.4021 21.4792 35.9657 21.0756L36.1675 21.3609L36.3692 21.6462C35.8057 22.0498 35.249 22.4463 34.6993 22.836L34.4976 22.5507ZM31.6796 24.5129L31.4847 24.2276C32.0414 23.8449 32.605 23.4553 33.1686 23.0587L33.3704 23.3439L33.5721 23.6292C33.0016 24.0258 32.438 24.4155 31.8814 24.7981L31.6796 24.5129ZM28.8407 26.4402L28.6459 26.148C29.2095 25.7723 29.78 25.3896 30.3506 24.9999L30.5454 25.2852L30.7402 25.5705C30.1697 25.9601 29.5991 26.3428 29.0286 26.7255L28.8407 26.4402ZM25.981 28.3258L25.7931 28.0336C26.3637 27.6648 26.9343 27.2821 27.5187 26.8995L27.7135 27.1917L27.9084 27.4839C27.3309 27.8666 26.7533 28.2493 26.1828 28.6181L25.981 28.3258ZM23.1074 30.1766L22.9195 29.8844C23.4901 29.5226 24.0606 29.1538 24.6451 28.7781L24.8329 29.0703L25.0208 29.3626C24.4364 29.7383 23.8588 30.1071 23.2883 30.4689L23.1074 30.1766ZM20.192 32.0066L20.0111 31.7074C20.5816 31.3525 21.1661 30.9907 21.7575 30.6219L21.9454 30.9142L22.1333 31.2064C21.5418 31.5752 20.9574 31.944 20.3868 32.2988L20.192 32.0066ZM17.2697 33.7809L17.0887 33.4817C17.6662 33.1338 18.2507 32.7789 18.8491 32.4171L19.03 32.7163L19.2109 33.0155C18.6125 33.3773 18.0281 33.7391 17.4506 34.087L17.2697 33.7809ZM14.3125 35.5343L14.1386 35.2351C14.7161 34.8941 15.3075 34.5532 15.9128 34.1914L16.0938 34.4906L16.2747 34.7898C15.6693 35.1516 15.0779 35.4995 14.5004 35.8335L14.3125 35.5343ZM11.3484 37.2459L11.1745 36.9398C11.752 36.6128 12.3504 36.2718 12.9627 35.917L13.1366 36.2161L13.3106 36.5153C12.6983 36.8702 12.0999 37.2111 11.5224 37.5382L11.3484 37.2459ZM8.35651 38.9158L8.18953 38.6097C8.76704 38.2896 9.36542 37.9626 9.99163 37.6147L10.1586 37.9209L10.3256 38.227C9.69939 38.5749 9.10101 38.9089 8.5235 39.229L8.35651 38.9158ZM5.3298 40.544L5.16976 40.2378C5.74031 39.9317 6.35263 39.6116 6.99276 39.2637L7.15974 39.5699L7.32673 39.876C6.68659 40.2239 6.07429 40.551 5.49678 40.8571L5.3298 40.544ZM2.29614 42.1234L2.1361 41.8104C2.67882 41.532 3.28415 41.2189 3.95211 40.871L4.11215 41.1772L4.27219 41.4833C3.60423 41.8312 2.99193 42.1443 2.44921 42.4227L2.29614 42.1234ZM0.153076 43.188L0 42.8749C0.257444 42.7497 0.556649 42.6035 0.904547 42.4296L1.05762 42.7427L1.2107 43.0558C0.862801 43.2298 0.556631 43.3759 0.299187 43.5011L0.153076 43.188Z" fill="#EAF3D9"/>
</svg>
