<svg width="32" height="16" viewBox="0 0 32 16" fill="none" xmlns="http://www.w3.org/2000/svg">
<path d="M30.8724 15.0918L30.9838 14.7648C31.3247 14.8831 31.6517 14.9944 31.9857 15.1057L31.8744 15.4328L31.7631 15.7598C31.4291 15.6485 31.0951 15.5371 30.7542 15.4188L30.8724 15.0918ZM27.5396 13.9159L27.6579 13.5889C28.3328 13.8324 28.9938 14.069 29.6479 14.2986L29.5296 14.6256L29.4113 14.9527C28.7572 14.723 28.0893 14.4865 27.4143 14.236L27.5396 13.9159ZM24.2346 12.6705L24.3598 12.3434C25.0208 12.6009 25.6888 12.8513 26.3428 13.0949L26.2245 13.4219L26.1063 13.7489C25.4453 13.5054 24.7842 13.2549 24.1163 12.9975L24.2346 12.6705ZM20.9434 11.3763L21.0757 11.0562C21.7297 11.3206 22.3907 11.585 23.0447 11.8425L22.9195 12.1695L22.7943 12.4965C22.1333 12.2391 21.4792 11.9747 20.8182 11.7103L20.9434 11.3763ZM17.6802 10.0264L17.8193 9.70636C18.4664 9.98467 19.1205 10.256 19.7745 10.5274L19.6423 10.8475L19.5101 11.1675C18.8561 10.8962 18.1951 10.6248 17.548 10.3465L17.6802 10.0264ZM14.4447 8.61395L14.5839 8.29389C15.224 8.57917 15.8711 8.86445 16.5182 9.14973L16.379 9.46979L16.2399 9.78985C15.5858 9.50457 14.9318 9.21931 14.2916 8.93403L14.4447 8.61395ZM11.2371 7.1319L11.3902 6.81881C12.0164 7.118 12.6565 7.4172 13.3036 7.71639L13.1575 8.02949L13.0114 8.3426C12.3573 8.04341 11.7102 7.74421 11.084 7.44502L11.2371 7.1319ZM8.07123 5.56636L8.23127 5.26023C8.83662 5.57334 9.46978 5.8934 10.1169 6.21347L9.9638 6.52657L9.81072 6.83968C9.15667 6.51962 8.52349 6.19955 7.91119 5.87948L8.07123 5.56636ZM4.96799 3.86168L5.14194 3.56249C5.71249 3.89647 6.33174 4.24436 6.97883 4.59922L6.81184 4.90537L6.64486 5.21152C5.98385 4.85667 5.36458 4.50877 4.78011 4.16783L4.96799 3.86168ZM2.0178 1.9204L2.2335 1.64209C2.72055 2.01782 3.29807 2.41442 3.95211 2.83189L3.76426 3.12414L3.5764 3.41636C2.90844 2.99192 2.31004 2.58142 1.80211 2.19177L2.0178 1.9204ZM0.306152 0.167005L0.612303 0C0.730589 0.215697 0.925416 0.466195 1.20373 0.751471L0.953236 0.995004L0.70276 1.23852C0.39661 0.932365 0.160033 0.626224 0 0.33399L0.306152 0.167005Z" fill="#FDC126"/>
</svg>
