<svg width="52" height="36" viewBox="0 0 52 36" fill="none" xmlns="http://www.w3.org/2000/svg">
<path d="M50.6887 26.6907L50.5356 26.3776C50.7374 26.2732 50.9392 26.1689 51.141 26.0715L51.301 26.3776L51.4611 26.6838C51.2593 26.7881 51.0575 26.8925 50.8488 26.9969L50.6887 26.6907ZM8.55133 35.416L8.53743 35.0681C8.774 35.0542 9.00362 35.0472 9.24019 35.0333L9.26106 35.3812L9.28193 35.7291C9.04536 35.743 8.81574 35.75 8.57917 35.7639L8.55133 35.416ZM8.24518 34.7967L8.56526 34.6506C8.66267 34.8733 8.76007 35.0751 8.85749 35.249L8.55133 35.416L8.24518 35.583C8.14081 35.3881 8.03646 35.1725 7.93209 34.9428L8.24518 34.7967ZM0.340954 0.0556543C0.681894 -9.34171e-06 0.681887 0 0.681887 0V0.00696475C0.681887 0.0139227 0.681894 0.0278301 0.688852 0.041746C0.69581 0.0695778 0.702767 0.11132 0.709725 0.166984C0.730599 0.278311 0.758427 0.445296 0.793217 0.660993L0.452284 0.723633L0.11133 0.786252C0.0765401 0.570556 0.0417537 0.403549 0.0278378 0.292222C0.0208798 0.236559 0.0139227 0.194816 0.00696475 0.166984C0.00696475 0.153068 0 0.139161 0 0.132203C0 0.125245 0 0.125238 0 0.125238C0 0.125238 1.44325e-05 0.118276 0.340954 0.0556543ZM8.55133 35.416L8.56526 35.7639C8.43306 35.7708 8.3078 35.7013 8.24518 35.583L8.55133 35.416Z" fill="#EAF3D9"/>
</svg>
