<svg width="1" height="21" viewBox="0 0 1 21" fill="none" xmlns="http://www.w3.org/2000/svg">
<g clip-path="url(#clip0_2079_16918)">
<path d="M-0.741714 20.2337L-0.588638 19.9206C-0.261614 20.0806 0.0375841 20.2198 0.308944 20.3451L0.169777 20.6651L0.0306304 20.9852C-0.247688 20.8599 -0.553843 20.7138 -0.887825 20.5538L-0.741714 20.2337ZM-3.74756 18.6821L-3.58055 18.3759C-2.94042 18.7169 -2.34205 19.03 -1.79237 19.3153L-1.95239 19.6284L-2.11243 19.9345C-2.66907 19.6493 -3.26744 19.3361 -3.90757 18.9882L-3.74756 18.6821ZM-6.71859 17.0539L-6.55161 16.7478C-5.93931 17.0887 -5.34788 17.4157 -4.78428 17.7289L-4.95127 18.035L-5.11827 18.3412C-5.68883 18.0281 -6.28024 17.701 -6.89254 17.3601L-6.71859 17.0539ZM-9.66182 15.391L-9.48787 15.0918C-8.88948 15.4327 -8.29806 15.7667 -7.72751 16.0937L-7.90146 16.3999L-8.0754 16.706C-8.65291 16.379 -9.24433 16.045 -9.84271 15.7041L-9.66182 15.391ZM-12.5911 13.7002L-12.4172 13.401C-11.8257 13.7419 -11.2413 14.0829 -10.6638 14.4169L-10.8377 14.7161L-11.0117 15.0153C-11.5892 14.6813 -12.1736 14.3403 -12.7651 13.9994L-12.5911 13.7002ZM-15.5135 11.9885L-15.3395 11.6894C-14.755 12.0303 -14.1706 12.3782 -13.5931 12.7122L-13.767 13.0114L-13.941 13.3106C-14.5185 12.9696 -15.1029 12.6287 -15.6874 12.2877L-15.5135 11.9885ZM-18.4288 10.2699L-18.2479 9.97074C-17.6704 10.3186 -17.0859 10.6596 -16.5015 11.0005L-16.6754 11.2997L-16.8494 11.5989C-17.4338 11.258 -18.0114 10.9101 -18.5958 10.5691L-18.4288 10.2699ZM-21.3303 8.5374L-21.1494 8.23822C-20.5719 8.57916 -19.9944 8.92705 -19.4099 9.27495L-19.5908 9.57413L-19.7717 9.87332C-20.3562 9.52542 -20.9337 9.17753 -21.5112 8.83659L-21.3303 8.5374ZM-24.2318 6.79791L-24.0509 6.49873C-23.4803 6.83967 -22.9028 7.18757 -22.3183 7.54242L-22.4992 7.84161L-22.6801 8.1408C-23.2646 7.78594 -23.8491 7.43804 -24.4127 7.0971L-24.2318 6.79791ZM-27.1332 5.04452L-26.9523 4.74531C-26.3887 5.08625 -25.8112 5.43415 -25.2128 5.79597L-25.3937 6.09515L-25.5747 6.39434C-26.1661 6.03949 -26.7506 5.68464 -27.3141 5.3437L-27.1332 5.04452ZM-30.0208 3.29806L-29.8399 2.99888C-29.2902 3.33286 -28.7127 3.6877 -28.1143 4.04951L-28.2952 4.34872L-28.4761 4.64791C-29.0745 4.2861 -29.652 3.93123 -30.2017 3.59725L-30.0208 3.29806ZM-32.9083 1.53074L-32.7274 1.23155C-32.1986 1.55162 -31.6211 1.90646 -31.0019 2.28915L-31.1828 2.58834L-31.3637 2.88755C-31.9829 2.51182 -32.5674 2.15695 -33.0892 1.82992L-32.9083 1.53074ZM-34.9192 0.299187L-34.7383 0C-34.4808 0.153075 -34.1956 0.333982 -33.8825 0.521847L-34.0633 0.821034L-34.2443 1.12022C-34.5574 0.925398 -34.8427 0.751449 -35.1001 0.598374L-34.9192 0.299187Z" fill="#D4E7B2"/>
</g>
<defs>
<clipPath id="clip0_2079_16918">
<rect width="0.308838" height="20.9854" fill="white"/>
</clipPath>
</defs>
</svg>
