<svg width="27" height="15" viewBox="0 0 27 15" fill="none" xmlns="http://www.w3.org/2000/svg">
<g clip-path="url(#clip0_2079_16923)">
<path d="M25.385 13.3593L25.5032 13.0322C25.8581 13.1575 26.1851 13.2758 26.4843 13.3871L26.366 13.7141L26.2478 14.0411C25.9416 13.9368 25.6146 13.8185 25.2597 13.6863L25.385 13.3593ZM22.1008 12.1347L22.2261 11.8077C22.9288 12.0721 23.5898 12.3225 24.2021 12.5521L24.0838 12.8792L23.9655 13.2062C23.3532 12.9766 22.6922 12.7261 21.9895 12.4617L22.1008 12.1347ZM18.8167 10.8753L18.9419 10.5482C19.6238 10.8126 20.2848 11.0631 20.918 11.3067L20.7927 11.6337L20.6675 11.9607C20.0343 11.7172 19.3733 11.4667 18.6914 11.2023L18.8167 10.8753ZM15.5395 9.62284L15.6647 9.29582C16.3396 9.55326 16.9937 9.80375 17.6338 10.0542L17.5086 10.3813L17.3833 10.7083C16.7432 10.4648 16.0822 10.2073 15.4142 9.95683L15.5395 9.62284ZM12.2623 8.37042L12.3875 8.04339C13.0555 8.29388 13.7165 8.54436 14.3636 8.79484L14.2383 9.12187L14.1131 9.44889C13.466 9.19841 12.805 8.94793 12.137 8.69744L12.2623 8.37042ZM8.97811 7.13885L9.0964 6.81182C9.75741 7.06231 10.4184 7.30584 11.0794 7.55633L10.9542 7.88335L10.8289 8.21038C10.1749 7.96685 9.51387 7.71636 8.85287 7.46587L8.97811 7.13885ZM5.68699 5.92121L5.80528 5.59418C6.46629 5.83771 7.1273 6.08125 7.7883 6.32478L7.67001 6.6518L7.55173 6.97883C6.89073 6.7353 6.22972 6.49176 5.56871 6.24823L5.68699 5.92121ZM2.38196 4.7314L2.50025 4.40438C3.16126 4.64095 3.82225 4.87751 4.49022 5.11408L4.37194 5.4411L4.25365 5.76813C3.58569 5.5246 2.92469 5.28804 2.26369 5.05843L2.38196 4.7314ZM-0.936978 3.58334L-0.825649 3.25632C-0.164643 3.47897 0.503324 3.70858 1.17825 3.94515L1.06692 4.27217L0.955586 4.5992C0.280665 4.36263 -0.387296 4.13302 -1.04134 3.91037L-0.936978 3.58334ZM-4.26984 2.49094L-4.16546 2.15695C-3.51141 2.36569 -2.84346 2.5814 -2.15462 2.80406L-2.26595 3.13108L-2.37728 3.4581C-3.05916 3.23545 -3.72713 3.01278 -4.38117 2.811L-4.26984 2.49094ZM-7.63749 1.48203L-7.54704 1.14806C-6.89299 1.32897 -6.21111 1.53075 -5.50836 1.73949L-5.60576 2.07346L-5.71013 2.40745C-6.41288 2.19175 -7.0878 1.99692 -7.73489 1.81602L-7.63749 1.48203ZM-11.0399 0.65405L-10.9703 0.313095C-10.3372 0.438338 -9.64137 0.598366 -8.88992 0.786231L-8.97341 1.12022L-9.0569 1.45421C-9.79444 1.26635 -10.4763 1.11326 -11.0956 0.988018L-11.0399 0.65405ZM-13.4683 0.347898L-13.4613 0C-13.1412 0.00695796 -12.7794 0.0347864 -12.3828 0.0834921L-12.4246 0.43139L-12.4663 0.779288C-12.842 0.730582 -13.176 0.709697 -13.4683 0.702739V0.347898Z" fill="#D4E7B2"/>
</g>
<defs>
<clipPath id="clip0_2079_16923">
<rect width="26.4844" height="14.041" fill="white"/>
</clipPath>
</defs>
</svg>
