<svg width="8" height="4" viewBox="0 0 8 4" fill="none" xmlns="http://www.w3.org/2000/svg">
<path d="M7.02057 2.92931L7.29889 2.72056C7.48675 2.96409 7.65374 3.2285 7.79986 3.49291L7.49371 3.65989L7.18756 3.82688C7.06231 3.5903 6.90924 3.3607 6.7492 3.13804L7.02057 2.92931ZM4.83577 1.09937L4.99581 0.793217C5.53853 1.07849 6.04645 1.42639 6.49176 1.83691L6.25519 2.09435L6.01863 2.35179C5.61507 1.98302 5.1628 1.66297 4.66878 1.41249L4.83577 1.09937ZM2.08739 0.347898L2.10129 0C2.71359 0.0278318 3.31893 0.13916 3.9034 0.327025L3.79904 0.661014L3.69467 0.995004C3.17283 0.828013 2.6301 0.723634 2.08042 0.70276L2.08739 0.347898ZM0.11133 0.619268L0 0.292243C0.299192 0.194832 0.598369 0.125254 0.897561 0.0765486L0.953236 0.417482L1.00889 0.758436C0.744488 0.800184 0.480097 0.862798 0.215695 0.946293L0.11133 0.619268Z" fill="#FDC126"/>
</svg>
