<svg width="55" height="48" viewBox="0 0 55 48" fill="none" xmlns="http://www.w3.org/2000/svg">
<g clip-path="url(#clip0_2079_16961)">
<path d="M53.8363 46.9245L53.7945 46.5766C54.0311 46.5487 54.2607 46.5209 54.4973 46.493L54.539 46.8409L54.5808 47.1888C54.3442 47.2167 54.1076 47.2445 53.878 47.2724L53.8363 46.9245ZM-2.19615 44.9414L-2.07091 44.6144C-1.90392 44.677 -1.68823 44.7466 -1.42383 44.8231L-1.51426 45.1571L-1.60472 45.4911C-1.88304 45.4146 -2.12656 45.338 -2.32139 45.2615L-2.19615 44.9414ZM-2.74583 44.517L-2.48839 44.2874C-2.31444 44.4822 -2.17528 44.5796 -2.07091 44.6213L-2.19615 44.9484L-2.32139 45.2754C-2.57187 45.178 -2.8015 44.9901 -3.01024 44.7536L-2.74583 44.517ZM-14.2821 0.0626191C-13.9412 -2.55057e-06 -13.9412 0 -13.9412 0V0.00694352C-13.9412 0.0139015 -13.9412 0.0278301 -13.9342 0.041746C-13.9273 0.0695779 -13.9203 0.11132 -13.9133 0.166984C-13.8925 0.278311 -13.8646 0.438353 -13.8229 0.65405L-14.1638 0.716669L-14.5048 0.779288C-14.5465 0.563591 -14.5744 0.40355 -14.5952 0.292222C-14.6022 0.236559 -14.6161 0.194816 -14.6161 0.166984C-14.6161 0.153068 -14.623 0.139161 -14.623 0.132203C-14.623 0.125245 -14.623 0.125238 -14.623 0.125238C-14.623 0.125238 -14.6231 0.125241 -14.2821 0.0626191Z" fill="#EAF3D9"/>
</g>
<defs>
<clipPath id="clip0_2079_16961">
<rect width="54.5808" height="47.2725" fill="white"/>
</clipPath>
</defs>
</svg>
