<svg width="24" height="13" viewBox="0 0 24 13" fill="none" xmlns="http://www.w3.org/2000/svg">
<path d="M22.6481 0.821034L22.4951 0.507917C22.8569 0.32701 23.1839 0.160033 23.4692 0L23.6362 0.306152L23.8032 0.612303C23.504 0.779294 23.17 0.953243 22.8012 1.13415L22.6481 0.821034ZM19.2596 2.40048L19.1205 2.08042C19.8441 1.76036 20.526 1.44724 21.1452 1.16197L21.2913 1.47508L21.4375 1.7882C20.8112 2.08043 20.1294 2.39353 19.3988 2.7136L19.2596 2.40048ZM15.8363 3.9034L15.6971 3.58334C16.3999 3.27719 17.0818 2.978 17.7428 2.69273L17.8819 3.01279L18.0211 3.33287C17.3601 3.6251 16.6713 3.92428 15.9755 4.23043L15.8363 3.9034ZM12.406 5.39936L12.2669 5.0793C12.9488 4.78011 13.6376 4.48091 14.3125 4.18172L14.4517 4.5018L14.5908 4.82186C13.9159 5.11409 13.234 5.41329 12.5522 5.71944L12.406 5.39936ZM8.99663 6.93708L8.85052 6.62397C9.51848 6.31782 10.2004 6.00472 10.8892 5.69857L11.0284 6.01863L11.1675 6.33869C10.4856 6.64484 9.80376 6.95099 9.1358 7.25714L8.99663 6.93708ZM5.62202 8.55133L5.46894 8.23822C6.10907 7.91815 6.78401 7.58417 7.48677 7.25714L7.63288 7.57026L7.77899 7.88335C7.08319 8.21038 6.41523 8.5374 5.78206 8.85746L5.62202 8.55133ZM2.33786 10.3534L2.15697 10.0542C2.74144 9.69242 3.39548 9.31671 4.11215 8.94098L4.27914 9.24713L4.44612 9.55326C3.74337 9.92899 3.09629 10.2978 2.52574 10.6457L2.33786 10.3534ZM0.250476 11.9259L0 11.6894C0.23657 11.4389 0.535769 11.1814 0.876709 10.924L1.08544 11.2023L1.29417 11.4806C0.967146 11.7242 0.702754 11.9607 0.500974 12.1695L0.250476 11.9259Z" fill="#FDC126"/>
</svg>
