<svg width="11" height="9" viewBox="0 0 11 9" fill="none" xmlns="http://www.w3.org/2000/svg">
<path d="M10.2143 1.0924L9.89421 0.953236C10.0334 0.640129 10.1517 0.320066 10.256 0L10.59 0.11133L10.924 0.22266C10.8126 0.563599 10.6874 0.897575 10.5413 1.23852L10.2143 1.0924ZM8.34955 4.09128L8.08514 3.86862C8.53741 3.33982 8.92706 2.78319 9.268 2.20568L9.56719 2.37963L9.86638 2.55358C9.51152 3.16588 9.09405 3.7573 8.61395 4.31394L8.34955 4.09128ZM5.68464 6.40829L5.49678 6.11605C6.08821 5.74032 6.62396 5.32284 7.11797 4.87057L7.35456 5.12801L7.59113 5.38547C7.07624 5.85861 6.50568 6.30391 5.87946 6.70051L5.68464 6.40829ZM2.47703 7.89728L2.37267 7.56329C3.04759 7.3476 3.68075 7.09017 4.27217 6.79794L4.42525 7.11103L4.57833 7.42415C3.95907 7.7303 3.29111 8.00165 2.5814 8.22431L2.47703 7.89728ZM0.0556543 8.46088L0 8.11994C0.347898 8.06428 0.681874 8.00164 1.01586 7.93206L1.0924 8.27302L1.16893 8.61395C0.827992 8.69049 0.473143 8.75311 0.11133 8.80877L0.0556543 8.46088Z" fill="#D4E7B2"/>
</svg>
