<svg width="36" height="5" viewBox="0 0 36 5" fill="none" xmlns="http://www.w3.org/2000/svg">
<path d="M34.7619 0.577522L34.6854 0.236568C35.0472 0.16003 35.3951 0.0834955 35.7291 0L35.8056 0.340954L35.8822 0.681887C35.5482 0.758425 35.1933 0.841918 34.8315 0.918455L34.7619 0.577522ZM31.2343 1.25244L31.1716 0.911491C31.9092 0.786247 32.6119 0.654048 33.2799 0.521847L33.3495 0.862801L33.4191 1.20373C32.7441 1.33594 32.0344 1.46813 31.2899 1.59338L31.2343 1.25244ZM27.6787 1.82298L27.63 1.48205C28.3537 1.37768 29.0634 1.26635 29.7522 1.15502L29.8079 1.49596L29.8636 1.83691C29.1678 1.94824 28.458 2.05957 27.7275 2.16394L27.6787 1.82298ZM24.1163 2.31005L24.0745 1.96215C24.7912 1.8717 25.5079 1.77428 26.2106 1.67687L26.2593 2.02477L26.308 2.37267C25.6053 2.47008 24.8886 2.56749 24.165 2.65794L24.1163 2.31005ZM20.5399 2.73449L20.5051 2.3866C21.2218 2.31006 21.9315 2.22656 22.6412 2.14306L22.6829 2.49096L22.7247 2.83886C22.015 2.92235 21.2983 3.00585 20.5816 3.08239L20.5399 2.73449ZM16.9635 3.0963L16.9287 2.7484C17.6384 2.68578 18.3551 2.61619 19.0718 2.53965L19.1065 2.88755L19.1413 3.23545C18.4247 3.31198 17.708 3.38158 16.9913 3.4442L16.9635 3.0963ZM13.3802 3.39549L13.3523 3.04759C14.0551 2.99888 14.7717 2.93626 15.4954 2.87364L15.5232 3.22154L15.551 3.56943C14.8274 3.63206 14.1107 3.68772 13.401 3.74338L13.3802 3.39549ZM9.78985 3.61815L9.76897 3.27025C10.4648 3.23546 11.1814 3.19372 11.912 3.14501L11.9329 3.49291L11.9538 3.84081C11.2162 3.88951 10.4996 3.93125 9.79681 3.96604L9.78985 3.61815ZM6.19258 3.74338L6.18563 3.39549C6.86751 3.38157 7.58417 3.36766 8.32867 3.33287L8.34258 3.68076L8.35651 4.02866C7.60505 4.05649 6.88142 4.07737 6.19954 4.09128L6.19258 3.74338ZM2.59532 3.68773L2.6162 3.33983C3.24937 3.37462 3.96604 3.39549 4.74533 3.40245V3.75035V4.09825C3.95908 4.09129 3.22849 4.07042 2.5814 4.03563L2.59532 3.68773ZM0.104365 3.3607L0.194822 3.02672C0.459224 3.10325 0.800172 3.16587 1.20373 3.22154L1.15502 3.56943L1.10631 3.91733C0.681877 3.86167 0.313108 3.7921 0 3.7086L0.104365 3.3607Z" fill="#D4E7B2"/>
</svg>
