<svg width="12" height="43" viewBox="0 0 12 43" fill="none" xmlns="http://www.w3.org/2000/svg">
<path d="M10.7848 41.7686L11.091 41.6086C11.2649 41.9356 11.425 42.2069 11.585 42.4296L11.2997 42.6314L11.0144 42.8332C10.8335 42.5757 10.6526 42.2765 10.4787 41.9356L10.7848 41.7686ZM9.46282 38.6375L9.78985 38.5192C10.0403 39.2081 10.2839 39.8343 10.5204 40.3909L10.2004 40.5301L9.88031 40.6692C9.63678 40.0987 9.38628 39.4586 9.12883 38.7558L9.46282 38.6375ZM8.39826 35.4229L8.73223 35.3186C8.94096 35.9935 9.14275 36.6336 9.34453 37.2459L9.0175 37.3572L8.69048 37.4686C8.48174 36.8563 8.27997 36.2022 8.07123 35.5273L8.39826 35.4229ZM7.45196 32.1666L7.78595 32.0762C7.97382 32.7511 8.15472 33.4051 8.34258 34.0313L8.00861 34.1288L7.67462 34.2262C7.48676 33.593 7.2989 32.932 7.118 32.2571L7.45196 32.1666ZM6.58222 28.8825L6.91621 28.799C7.09016 29.4669 7.2641 30.1279 7.43109 30.7681L7.09712 30.8585L6.76313 30.949C6.58918 30.3019 6.41524 29.6409 6.24129 28.9729L6.58222 28.8825ZM5.76119 25.5914L6.10212 25.5078C6.26215 26.1758 6.42915 26.8368 6.58918 27.4839L6.2552 27.5674L5.92123 27.6509C5.75424 26.9969 5.59419 26.3358 5.43416 25.6679L5.76119 25.5914ZM4.97493 22.2933L5.31587 22.2167C5.46894 22.8778 5.62203 23.5388 5.78206 24.1998L5.44113 24.2833L5.10017 24.3668C4.94014 23.7057 4.78708 23.0447 4.634 22.3768L4.97493 22.2933ZM4.22348 18.9882L4.56442 18.9117C4.71053 19.5727 4.8636 20.2337 5.01668 20.9017L4.67575 20.9782L4.33481 21.0548C4.18174 20.3938 4.0356 19.7258 3.88253 19.0648L4.22348 18.9882ZM3.49289 15.6763L3.83384 15.5997C3.973 16.2607 4.11911 16.9217 4.26523 17.5897L3.92428 17.6662L3.58334 17.7428C3.43723 17.0748 3.29111 16.4068 3.15195 15.7528L3.49289 15.6763ZM2.79015 12.3573L3.13108 12.2877C3.27024 12.9418 3.40939 13.6098 3.5555 14.2777L3.21457 14.3473L2.87364 14.4169C2.72752 13.742 2.58835 13.074 2.44919 12.4199L2.79015 12.3573ZM2.10129 9.03838L2.44225 8.96879C2.57445 9.61588 2.71361 10.2769 2.85277 10.9588L2.51181 11.0283L2.17088 11.0979C2.03172 10.416 1.89256 9.75505 1.76036 9.10796L2.10129 9.03838ZM1.43334 5.70551L1.77427 5.63593C1.89951 6.27606 2.03173 6.94403 2.17784 7.63982L1.83689 7.70941L1.49596 7.77899C1.3568 7.08319 1.22461 6.41523 1.0924 5.77509L1.43334 5.70551ZM0.786252 2.37961L1.12719 2.31699C1.24547 2.92233 1.37767 3.59725 1.51683 4.31392L1.1759 4.3835L0.834963 4.45309C0.695804 3.72946 0.563583 3.06149 0.445298 2.44919L0.786252 2.37961ZM0.340933 0.0626191L0.681887 0C0.737551 0.292234 0.800165 0.619246 0.869744 0.988018L0.528811 1.05064L0.187857 1.11326C0.118278 0.744484 0.0556636 0.417472 0 0.125238L0.340933 0.0626191Z" fill="#EAF3D9"/>
</svg>
