<svg width="21" height="7" viewBox="0 0 21 7" fill="none" xmlns="http://www.w3.org/2000/svg">
<path d="M19.4892 5.38622L19.7606 5.1705C19.9832 5.44882 20.1711 5.72715 20.3381 6.02634L20.032 6.19332L19.7258 6.36033C19.5867 6.10288 19.4127 5.85238 19.2179 5.60886L19.4892 5.38622ZM17.047 3.29883L17.2348 3.00659C17.8263 3.37536 18.369 3.77892 18.8421 4.20336L18.6125 4.4608L18.3829 4.71824C17.9446 4.32163 17.4297 3.94591 16.873 3.59105L17.047 3.29883ZM14.1594 1.86547L14.2847 1.53845C14.9109 1.78198 15.5162 2.0603 16.0868 2.35254L15.9268 2.65869L15.7667 2.96484C15.2171 2.67956 14.6326 2.41516 14.0272 2.17859L14.1594 1.86547ZM11.0771 0.905292L11.1536 0.564338C11.7937 0.717413 12.4339 0.891376 13.0531 1.10011L12.9418 1.43408L12.8305 1.76807C12.2251 1.57325 11.6059 1.39931 10.9866 1.25319L11.0771 0.905292ZM7.89032 0.404319L7.91816 0.0564211C8.56525 0.105127 9.21928 0.188612 9.88028 0.306897L9.81767 0.64783L9.75505 0.988785C9.11491 0.877457 8.48175 0.793958 7.85554 0.745252L7.89032 0.404319ZM4.66878 0.473881L4.62007 0.125984C5.25325 0.0355303 5.92123 -0.00621239 6.61702 0.000745569V0.348643V0.696541C5.95602 0.696541 5.31588 0.73134 4.72446 0.814836L4.66878 0.473881ZM1.656 1.54541L1.45421 1.26013C1.98301 0.884404 2.61618 0.599135 3.31894 0.397354L3.41636 0.731344L3.51376 1.06531C2.87363 1.25318 2.31003 1.50366 1.85776 1.82373L1.656 1.54541ZM0.333968 3.3197L0 3.21532C0.111327 2.86046 0.271348 2.54041 0.466171 2.24817L0.75145 2.44299L1.03673 2.63782C0.876696 2.87439 0.744489 3.13183 0.660993 3.4171L0.333968 3.3197Z" fill="#D4E7B2"/>
</svg>
