<svg width="47" height="25" viewBox="0 0 47 25" fill="none" xmlns="http://www.w3.org/2000/svg">
<path d="M45.6929 23.5248L45.839 23.2117C46.1939 23.3787 46.5 23.5248 46.7644 23.6501L46.6183 23.9632L46.4722 24.2763C46.2078 24.1511 45.8947 24.005 45.5468 23.838L45.6929 23.5248ZM42.5479 22.0358L42.701 21.7227C43.3828 22.0498 44.016 22.349 44.5796 22.6134L44.4335 22.9265L44.2874 23.2396C43.7238 22.9682 43.0906 22.669 42.4087 22.342L42.5479 22.0358ZM39.4029 20.5329L39.556 20.2198C40.217 20.5399 40.8502 20.8391 41.4485 21.1243L41.2955 21.4375L41.1424 21.7506C40.544 21.4653 39.9108 21.1591 39.2498 20.846L39.4029 20.5329ZM36.2718 19.023L36.4249 18.7099C37.072 19.023 37.6982 19.3222 38.3035 19.6145L38.1505 19.9276L37.9974 20.2407C37.392 19.9485 36.7658 19.6493 36.1187 19.3362L36.2718 19.023ZM33.1407 17.5062L33.2938 17.1931C33.934 17.4993 34.5602 17.8054 35.1725 18.1046L35.0194 18.4177L34.8663 18.7308C34.254 18.4316 33.6278 18.1324 32.9877 17.8193L33.1407 17.5062ZM30.0166 15.9894L30.1697 15.6763C30.8029 15.9824 31.4291 16.2886 32.0483 16.5947L31.8953 16.9078L31.7422 17.2209C31.1229 16.9217 30.4967 16.6156 29.8635 16.3025L30.0166 15.9894ZM26.8925 14.4586L27.0456 14.1455C27.6718 14.4586 28.298 14.7648 28.9173 15.064L28.7642 15.3771L28.6111 15.6902C27.9919 15.384 27.3656 15.0779 26.7394 14.7717L26.8925 14.4586ZM23.7753 12.914L23.9284 12.6008C24.5546 12.914 25.1739 13.2201 25.8001 13.5263L25.647 13.8394L25.4939 14.1525C24.8747 13.8463 24.2485 13.5332 23.6222 13.2271L23.7753 12.914ZM20.6651 11.3623L20.8182 11.0492C21.4374 11.3623 22.0637 11.6754 22.6829 11.9816L22.5299 12.2947L22.3768 12.6078C21.7506 12.2947 21.1313 11.9886 20.512 11.6754L20.6651 11.3623ZM17.5619 9.78985L17.7219 9.47673C18.3412 9.78984 18.9604 10.103 19.5866 10.4161L19.4266 10.7292L19.2666 11.0423C18.6404 10.7292 18.0211 10.4161 17.4018 10.096L17.5619 9.78985ZM14.4656 8.21038L14.6256 7.90423C15.2379 8.21734 15.8572 8.53742 16.4834 8.85748L16.3234 9.17058L16.1633 9.4837C15.5371 9.16363 14.9179 8.84357 14.3056 8.53046L14.4656 8.21038ZM11.3763 6.60309L11.5363 6.29694C12.1416 6.61701 12.7609 6.93708 13.3871 7.26411L13.2271 7.57026L13.067 7.87641C12.4408 7.54939 11.8216 7.22931 11.2162 6.90924L11.3763 6.60309ZM8.3078 4.97493L8.47478 4.66878C9.07317 4.98885 9.68546 5.31587 10.3186 5.64986L10.1586 5.95601L9.99858 6.26216C9.3654 5.92818 8.75311 5.60114 8.15472 5.27412L8.3078 4.97493ZM5.25325 3.29806L5.42023 2.99191C6.0047 3.31894 6.617 3.65293 7.25018 4.00082L7.08319 4.30698L6.91621 4.61313C6.28304 4.26523 5.67073 3.93123 5.0793 3.59725L5.25325 3.29806ZM2.24741 1.5725L2.42832 1.2733C2.98496 1.60728 3.58335 1.95518 4.21652 2.31699L4.04257 2.6162L3.86862 2.91538C3.22849 2.55357 2.63011 2.19871 2.06651 1.86473L2.24741 1.5725ZM0.187857 0.292222L0.375714 0C0.647075 0.173949 0.939309 0.361805 1.24546 0.556628L1.06457 0.848871L0.883653 1.14109C0.570545 0.946271 0.278318 0.758408 0 0.577501L0.187857 0.292222Z" fill="#EAF3D9"/>
</svg>
