<svg width="41" height="14" viewBox="0 0 41 14" fill="none" xmlns="http://www.w3.org/2000/svg">
<g clip-path="url(#clip0_2079_16963)">
<path d="M39.8717 13.4915L39.8786 13.1436C40.2196 13.1505 40.5605 13.1575 40.8945 13.1645V13.5124V13.8603C40.5535 13.8603 40.2126 13.8533 39.8647 13.8394L39.8717 13.4915ZM36.4414 13.2897L36.4692 12.9418C37.165 13.0044 37.8469 13.0531 38.5149 13.0879L38.494 13.4358L38.4731 13.7837C37.7982 13.7489 37.1094 13.7002 36.3997 13.6376L36.4414 13.2897ZM33.025 12.9209L33.0668 12.573C33.7556 12.6635 34.4375 12.74 35.1055 12.8096L35.0707 13.1575L35.0359 13.5054C34.361 13.4358 33.6721 13.3523 32.9763 13.2688L33.025 12.9209ZM29.6226 12.4269L29.6783 12.086C30.3601 12.1973 31.042 12.3017 31.71 12.3921L31.6613 12.74L31.6126 13.0809C30.9377 12.9835 30.2558 12.8792 29.5669 12.7679L29.6226 12.4269ZM26.2341 11.8355L26.2967 11.4945C26.9786 11.6198 27.6535 11.745 28.3215 11.8564L28.2658 12.1973L28.2101 12.5382C27.5352 12.4199 26.8603 12.3017 26.1784 12.1695L26.2341 11.8355ZM22.8595 11.1606L22.929 10.8196C23.604 10.9588 24.2789 11.0979 24.9469 11.2302L24.8773 11.5711L24.8077 11.912C24.1328 11.7798 23.4579 11.6407 22.7829 11.4945L22.8595 11.1606ZM19.5057 10.4161L19.5823 10.0751C20.2502 10.2282 20.9252 10.3813 21.5931 10.5274L21.5166 10.8683L21.4401 11.2093C20.7651 11.0632 20.0972 10.9101 19.4222 10.757L19.5057 10.4161ZM16.159 9.60893L16.2425 9.268C16.9104 9.43499 17.5784 9.59501 18.2464 9.75505L18.1629 10.096L18.0794 10.4369C17.4114 10.2769 16.7365 10.1099 16.0685 9.94292L16.159 9.60893ZM12.8331 8.75312L12.9235 8.41913C13.5845 8.59308 14.2525 8.76703 14.9135 8.94098L14.83 9.27497L14.7465 9.60893C14.0785 9.43499 13.4106 9.26104 12.7496 9.08709L12.8331 8.75312ZM9.52107 7.84161L9.61849 7.50764C10.2725 7.6955 10.9335 7.87642 11.6015 8.05732L11.5111 8.39129L11.4206 8.72528C10.7526 8.54438 10.0916 8.3565 9.43061 8.16863L9.52107 7.84161ZM6.21604 6.88143L6.31346 6.54744C6.96751 6.74226 7.62156 6.93707 8.28952 7.12494L8.1921 7.45893L8.0947 7.79292C7.42673 7.5981 6.76572 7.40328 6.11168 7.20845L6.21604 6.88143ZM2.92492 5.87252L3.02931 5.53853C3.6764 5.74031 4.33043 5.94209 4.9984 6.15083L4.89403 6.48482L4.78967 6.81879C4.1217 6.61701 3.4607 6.40829 2.81361 6.20651L2.92492 5.87252ZM-0.345306 4.81491L-0.233976 4.48789C0.406155 4.69663 1.06021 4.91231 1.72817 5.12801L1.62379 5.462L1.51942 5.79599C0.851457 5.58029 0.197418 5.36459 -0.449671 5.15585L-0.345306 4.81491ZM-3.60162 3.7086L-3.48335 3.38158C-2.85018 3.60423 -2.20307 3.82689 -1.53511 4.0565L-1.64644 4.3835L-1.75777 4.71053C-2.42573 4.48092 -3.07978 4.25826 -3.71295 4.03561L-3.60162 3.7086ZM-6.83013 2.53271L-6.70489 2.20568C-6.09259 2.43529 -5.44548 2.67186 -4.77752 2.91538L-4.89582 3.24241L-5.01409 3.56943C-5.68901 3.32591 -6.3361 3.08934 -6.9484 2.85973L-6.83013 2.53271ZM-10.0308 1.27332L-9.89859 0.953236C-9.31412 1.19676 -8.67399 1.45421 -7.98515 1.71862L-8.11039 2.04564L-8.23563 2.37267C-8.92446 2.10131 -9.57157 1.84385 -10.163 1.60032L-10.0308 1.27332ZM-12.2225 0.313116L-12.0764 0C-11.7912 0.132201 -11.485 0.271371 -11.151 0.424446L-11.2902 0.744506L-11.4293 1.06457C-11.7633 0.918449 -12.0834 0.772336 -12.3687 0.633176L-12.2225 0.313116Z" fill="#EAF3D9"/>
</g>
<defs>
<clipPath id="clip0_2079_16963">
<rect width="40.8945" height="13.8604" fill="white"/>
</clipPath>
</defs>
</svg>
