<svg width="20" height="30" viewBox="0 0 20 30" fill="none" xmlns="http://www.w3.org/2000/svg">
<path d="M18.3064 28.298L18.5917 28.1032C18.8074 28.4232 19.0022 28.7085 19.1692 28.9451L18.8839 29.1399L18.5986 29.3347C18.4316 29.0912 18.2368 28.8129 18.0211 28.4859L18.3064 28.298ZM16.3721 25.4452L16.6573 25.2504C17.0748 25.8697 17.4645 26.4472 17.8193 26.9621L17.534 27.1569L17.2488 27.3517C16.8939 26.8368 16.5043 26.2593 16.0868 25.6401L16.3721 25.4452ZM14.4447 22.5855L14.7369 22.3907C15.1335 22.9891 15.5232 23.5596 15.892 24.1023L15.6067 24.2972L15.3214 24.492C14.9526 23.9493 14.5699 23.3718 14.1664 22.7803L14.4447 22.5855ZM12.5313 19.7258L12.8235 19.531C13.2132 20.1154 13.5958 20.6929 13.9716 21.2496L13.6793 21.4444L13.3871 21.6392C13.0114 21.0826 12.6287 20.5051 12.239 19.9206L12.5313 19.7258ZM10.6318 16.8521L10.924 16.6573C11.3067 17.2348 11.6894 17.8123 12.0581 18.3759L11.7659 18.5708L11.4737 18.7656C11.0979 18.202 10.7152 17.6245 10.3325 17.047L10.6318 16.8521ZM8.73919 13.9716L9.03141 13.7837C9.40714 14.3612 9.78287 14.9387 10.1586 15.5093L9.86638 15.6971L9.57413 15.885C9.1984 15.3075 8.82268 14.7369 8.44695 14.1594L8.73919 13.9716ZM6.87444 11.084L7.16669 10.8961C7.53546 11.4667 7.90422 12.0512 8.28691 12.6287L7.99468 12.8165L7.70244 13.0044C7.32671 12.4199 6.95099 11.8424 6.58222 11.2719L6.87444 11.084ZM5.02364 8.1756L5.31587 7.98772C5.67768 8.55827 6.04645 9.14275 6.42218 9.73417L6.12996 9.92203L5.83771 10.1099C5.46198 9.51848 5.09321 8.93401 4.7314 8.36346L5.02364 8.1756ZM3.21457 5.24628L3.51376 5.06539C3.8547 5.62899 4.2165 6.22041 4.59223 6.82575L4.30001 7.00665L4.00777 7.18756C3.63204 6.58222 3.27023 5.99079 2.92233 5.4272L3.21457 5.24628ZM1.46115 2.28221L1.76036 2.10826C2.07347 2.6649 2.42136 3.25631 2.79709 3.88253L2.4979 4.06344L2.1987 4.24434C1.82297 3.61116 1.47507 3.01975 1.155 2.45616L1.46115 2.28221ZM0.313095 0.160019L0.626212 0C0.765371 0.278318 0.925392 0.577495 1.09238 0.897561L0.786231 1.06457L0.480079 1.23155C0.306131 0.904527 0.146117 0.598378 0 0.32006L0.313095 0.160019Z" fill="#FDC126"/>
</svg>
