<svg width="5" height="18" viewBox="0 0 5 18" fill="none" xmlns="http://www.w3.org/2000/svg">
<path d="M3.81297 16.4417L4.08432 16.2259C4.30697 16.5112 4.54354 16.72 4.78011 16.8522L4.60616 17.1583L4.43221 17.4645C4.09823 17.2766 3.79903 16.9983 3.53463 16.6643L3.81297 16.4417ZM2.33788 13.1853L2.67185 13.0879C2.88755 13.8255 3.12412 14.4934 3.38852 15.057L3.07543 15.2031L2.76231 15.3492C2.47703 14.7439 2.22655 14.0412 2.00389 13.2827L2.33788 13.1853ZM1.54467 9.67852L1.8856 9.61588C2.01084 10.3325 2.15697 11.0353 2.31005 11.7033L1.96909 11.7798L1.62816 11.8563C1.46813 11.1745 1.32201 10.4578 1.19677 9.73417L1.54467 9.67852ZM1.00891 6.12299L1.35681 6.08125C1.44726 6.784 1.54466 7.4937 1.64903 8.20341L1.3081 8.25909L0.967166 8.31474C0.855839 7.60503 0.758411 6.88142 0.667958 6.17867L1.00891 6.12299ZM0.605339 2.54661L0.953236 2.51181C1.02282 3.19369 1.09937 3.91037 1.18286 4.64791L0.834963 4.68966L0.487065 4.7314C0.40357 3.9869 0.327021 3.27024 0.257441 2.58836L0.605339 2.54661ZM0.340933 0.041746L0.688831 0C0.723621 0.333982 0.765378 0.688822 0.807125 1.07151L0.459228 1.10631L0.11133 1.14109C0.0695821 0.765364 0.0347898 0.410509 0 0.0765273L0.340933 0.041746Z" fill="#FDC126"/>
</svg>
