<svg width="18" height="6" viewBox="0 0 18 6" fill="none" xmlns="http://www.w3.org/2000/svg">
<path d="M16.219 0.897561L16.0311 0.605339C16.3373 0.410516 16.6295 0.208739 16.9217 0L17.1235 0.285279L17.3253 0.570536C17.0261 0.779275 16.7269 0.988024 16.4138 1.1898L16.219 0.897561ZM13.0601 2.65098L12.914 2.33786C13.568 2.02475 14.2081 1.69078 14.8204 1.34288L14.9944 1.64207L15.1683 1.94125C14.5421 2.30307 13.8881 2.64401 13.2132 2.96407L13.0601 2.65098ZM9.69937 3.97995L9.59501 3.64596C10.2838 3.43026 10.9588 3.17978 11.6128 2.90842L11.745 3.22848L11.8772 3.54854C11.2023 3.82686 10.5065 4.07736 9.80376 4.30001L9.69937 3.97995ZM6.17865 4.80795L6.12299 4.467C6.82575 4.36263 7.52849 4.21652 8.22429 4.04257L8.30778 4.37654L8.39129 4.71053C7.67462 4.89143 6.95098 5.03756 6.22736 5.14888L6.17865 4.80795ZM2.57443 5.03059L2.58834 4.68269C3.29805 4.71052 4.00777 4.68966 4.72444 4.634L4.75227 4.9819L4.78011 5.3298C4.04257 5.39242 3.29807 5.40632 2.56052 5.37849L2.57443 5.03059ZM0.0626191 4.73837L0.132182 4.39741C0.480079 4.46699 0.827984 4.52267 1.18284 4.56442L1.14109 4.91231L1.09935 5.26021C0.730576 5.21151 0.361814 5.15584 0 5.08626L0.0626191 4.73837Z" fill="#D4E7B2"/>
</svg>
