<svg width="75" height="61" viewBox="0 0 75 61" fill="none" xmlns="http://www.w3.org/2000/svg">
<path d="M74.2778 59.908V59.5601C74.5213 59.5601 74.7579 59.5601 74.9945 59.5531L75.0014 59.901L75.0084 60.2489C74.7718 60.2559 74.5283 60.2559 74.2778 60.2559V59.908ZM19.1917 45.9225L19.3726 45.6233C19.5465 45.7277 19.7483 45.839 19.9779 45.9643L19.8179 46.2704L19.6579 46.5766C19.4143 46.4513 19.1986 46.3261 19.0107 46.2147L19.1917 45.9225ZM18.5724 45.5676L18.7742 45.2824C18.969 45.4215 19.1499 45.5259 19.3239 45.6024L19.1917 45.9225L19.0595 46.2426C18.8298 46.1452 18.6002 46.013 18.3706 45.846L18.5724 45.5676ZM0.3356 0.0904568C0.669581 3.40076e-06 0.669589 0 0.669589 0V0.00696475C0.669589 0.0139227 0.676554 0.0278301 0.676554 0.041746C0.683512 0.0695779 0.697419 0.111321 0.711335 0.166984C0.739167 0.278311 0.787881 0.438346 0.850503 0.647085L0.516513 0.744506L0.182524 0.841907C0.119902 0.633168 0.0781672 0.46619 0.0433774 0.354863C0.0294615 0.299199 0.0155328 0.257435 0.00857487 0.229603C0.00161692 0.215687 0.00163136 0.20178 0.00163136 0.194822C0.00163136 0.187864 0.00163136 0.187857 0.00163136 0.187857C-0.0053266 0.180899 -0.0053402 0.18091 0.3356 0.0904568ZM19.1917 45.9225L19.3239 45.6024C19.3378 45.6094 19.3587 45.6164 19.3726 45.6233L19.1917 45.9225Z" fill="#EAF3D9"/>
</svg>
