<svg width="5" height="20" viewBox="0 0 5 20" fill="none" xmlns="http://www.w3.org/2000/svg">
<path d="M3.75035 18.9048L4.03563 18.703C4.23045 18.9743 4.43221 19.204 4.64791 19.3779L4.42527 19.6493L4.20261 19.9206C3.93125 19.698 3.68772 19.4196 3.46507 19.1065L3.75035 18.9048ZM2.42138 15.8085L2.75534 15.718C2.94321 16.4069 3.15892 17.0261 3.40245 17.5758L3.08237 17.7149L2.76231 17.8541C2.50486 17.2696 2.27524 16.6086 2.08042 15.8989L2.42138 15.8085ZM1.73252 12.5034L2.07348 12.4478C2.18481 13.1297 2.30309 13.7907 2.44225 14.4169L2.10132 14.4934L1.76036 14.57C1.6212 13.9298 1.49595 13.2549 1.38463 12.5661L1.73252 12.5034ZM1.29419 9.14971L1.64209 9.11493C1.71167 9.78289 1.79516 10.4578 1.87866 11.1119L1.53076 11.1605L1.18286 11.2093C1.09241 10.5413 1.01587 9.86637 0.939328 9.19145L1.29419 9.14971ZM0.967166 5.78206L1.31506 5.75422C1.37073 6.41523 1.43334 7.0832 1.50292 7.76508L1.15502 7.79986L0.807125 7.83464C0.744504 7.15276 0.68189 6.47785 0.619268 5.81684L0.967166 5.78206ZM0.654049 2.41441L1.00195 2.37961C1.07153 3.01278 1.13415 3.6877 1.19677 4.39741L0.848871 4.42525L0.500974 4.45309C0.438352 3.75033 0.375731 3.07541 0.306152 2.44919L0.654049 2.41441ZM0.347898 0.0626191L0.688831 0C0.744494 0.313108 0.793201 0.654042 0.841907 1.01586L0.494009 1.06457L0.146111 1.11328C0.0974054 0.758421 0.0487057 0.431388 0 0.125238L0.347898 0.0626191Z" fill="#D4E7B2"/>
</svg>
