<svg width="9" height="33" viewBox="0 0 9 33" fill="none" xmlns="http://www.w3.org/2000/svg">
<path d="M7.43109 31.8814L7.75812 31.7631C7.8764 32.097 7.99469 32.4032 8.11298 32.6815L7.79292 32.8137L7.47284 32.9459C7.35455 32.6537 7.22932 32.3406 7.11103 31.9996L7.43109 31.8814ZM6.40827 28.6737L6.74226 28.5763C6.93708 29.2582 7.1319 29.8983 7.31976 30.4898L6.98579 30.5941L6.6518 30.6985C6.45698 30.1001 6.26216 29.453 6.06734 28.7642L6.40827 28.6737ZM5.53853 25.4244L5.87252 25.3409C6.03951 26.0088 6.21346 26.6629 6.38045 27.2891L6.04646 27.3796L5.71247 27.47C5.54548 26.8438 5.37155 26.1898 5.20456 25.5148L5.53853 25.4244ZM4.74533 22.1541L5.08626 22.0776C5.23934 22.7456 5.39938 23.3996 5.55246 24.0328L5.2115 24.1163L4.87057 24.1998C4.71749 23.5596 4.55745 22.8986 4.40438 22.2376L4.74533 22.1541ZM4.00779 18.8769L4.34872 18.8004C4.49484 19.4614 4.64096 20.1154 4.78708 20.7625L4.44614 20.8391L4.10519 20.9156C3.95907 20.2685 3.81295 19.6075 3.66683 18.9465L4.00779 18.8769ZM3.30503 15.5858L3.64596 15.5163C3.78512 16.1703 3.92428 16.8313 4.06344 17.4853L3.72251 17.5549L3.38156 17.6245C3.2424 16.9635 3.10325 16.3094 2.9641 15.6484L3.30503 15.5858ZM2.63707 12.2878L2.978 12.2182C3.1102 12.8722 3.24241 13.5263 3.37461 14.1873L3.03366 14.2568L2.69273 14.3264C2.55357 13.6654 2.42136 13.0044 2.29612 12.3504L2.63707 12.2878ZM1.98996 8.98969L2.33092 8.92707C2.45616 9.57416 2.5814 10.2282 2.7136 10.9031L2.37267 10.9727L2.03173 11.0423C1.89953 10.3674 1.77428 9.70635 1.64903 9.06621L1.98996 8.98969ZM1.36375 5.6916L1.70471 5.62898C1.82299 6.26216 1.94823 6.92316 2.07348 7.60504L1.73252 7.66768L1.39159 7.7303C1.25939 7.04842 1.13414 6.38742 1.01586 5.75424L1.36375 5.6916ZM0.758415 2.37267L1.09935 2.31005C1.21067 2.91539 1.32897 3.58336 1.46117 4.29307L1.12022 4.35569L0.779288 4.41831C0.647086 3.70859 0.528809 3.04063 0.417482 2.43528L0.758415 2.37267ZM0.340933 0.0626191L0.681887 0C0.730593 0.292234 0.793214 0.619261 0.855836 0.981074L0.514882 1.04369L0.173949 1.10631C0.111327 0.744499 0.0487057 0.417472 0 0.125238L0.340933 0.0626191Z" fill="#EAF3D9"/>
</svg>
