<svg width="2" height="16" viewBox="0 0 2 16" fill="none" xmlns="http://www.w3.org/2000/svg">
<path d="M1.48901 14.5421L1.83691 14.5908C1.77429 15.0709 1.66295 15.4954 1.48205 15.8293L1.1759 15.6624L0.869744 15.4954C0.994988 15.2588 1.09239 14.9248 1.14806 14.4934L1.48901 14.5421ZM1.39856 10.6039L1.74645 10.5691C1.82995 11.425 1.88561 12.2251 1.89953 12.9418L1.55163 12.9487L1.20373 12.9557C1.18982 12.2669 1.13415 11.4876 1.05066 10.6387L1.39856 10.6039ZM0.953237 6.69355L1.30113 6.6518C1.39855 7.45197 1.49597 8.23823 1.57947 8.98969L1.23157 9.03143L0.883674 9.07318C0.800179 8.32172 0.70275 7.54243 0.605339 6.74226L0.953237 6.69355ZM0.521847 2.77622L0.869744 2.7484C0.939324 3.52073 1.02282 4.30697 1.10631 5.0793L0.758415 5.12104L0.410517 5.16281C0.320063 4.38352 0.236585 3.59725 0.167005 2.81796L0.521847 2.77622ZM0.347898 0.0139083L0.695796 0C0.709712 0.382688 0.730597 0.772342 0.751471 1.16199L0.403573 1.18286L0.0556755 1.20373C0.0348017 0.80713 0.0139159 0.410519 0 0.020873L0.347898 0.0139083Z" fill="#D4E7B2"/>
</svg>
