<svg width="14" height="3" viewBox="0 0 14 3" fill="none" xmlns="http://www.w3.org/2000/svg">
<path d="M12.0929 1.78818L11.9955 1.45421C12.3017 1.36376 12.6148 1.26634 12.9348 1.14806L13.0531 1.47508L13.1714 1.80211C12.8374 1.92039 12.5104 2.02475 12.1903 2.1152L12.0929 1.78818ZM8.81574 2.35874L8.80181 2.01084C9.42107 1.98301 10.0682 1.90646 10.75 1.76731L10.8196 2.10826L10.8892 2.44919C10.1725 2.59531 9.49066 2.6788 8.83661 2.70663L8.81574 2.35874ZM5.50375 2.07346L5.57333 1.73252C6.21346 1.87168 6.85358 1.96215 7.51458 2.00389L7.49371 2.35179L7.47284 2.69969C6.77008 2.65794 6.09516 2.55357 5.4272 2.41441L5.50375 2.07346ZM2.30308 1.12022L2.42138 0.793196C3.06847 1.02281 3.69467 1.23156 4.32088 1.41246L4.22348 1.74643L4.12606 2.08042C3.48593 1.89256 2.8458 1.68382 2.19175 1.44725L2.30308 1.12022ZM0.118295 0.327025L0.236568 0C0.556634 0.118285 0.876711 0.23657 1.18286 0.347898L1.06457 0.674923L0.946293 1.00195C0.633185 0.89062 0.320066 0.772335 0 0.65405L0.118295 0.327025Z" fill="#D4E7B2"/>
</svg>
