<svg width="8" height="13" viewBox="0 0 8 13" fill="none" xmlns="http://www.w3.org/2000/svg">
<path d="M1.14806 12.1764L1.31506 12.4826C0.981082 12.6635 0.640134 12.8374 0.306152 13.0044L0.153076 12.6913L0 12.3782C0.327024 12.2182 0.661015 12.0512 0.988039 11.8703L1.14806 12.1764ZM4.30001 10.1169L4.51571 10.3882C3.9382 10.8544 3.31199 11.2997 2.65098 11.7102L2.46312 11.418L2.27524 11.1258C2.91538 10.7222 3.52073 10.2978 4.07041 9.85247L4.30001 10.1169ZM6.75617 7.28498L7.06929 7.43806C6.74226 8.09906 6.26217 8.73224 5.68466 9.33062L5.43416 9.08709L5.18369 8.84356C5.72641 8.27996 6.1578 7.70246 6.44307 7.1319L6.75617 7.28498ZM6.54047 3.71555L6.82575 3.52072C7.3476 4.27914 7.5633 5.06539 7.50764 5.85164L7.15974 5.83077L6.81184 5.8099C6.85359 5.19064 6.6866 4.55746 6.24825 3.91733L6.54047 3.71555ZM3.62509 1.38463L3.78513 1.07847C4.55746 1.48204 5.20456 1.90647 5.7264 2.33786L5.50375 2.60227L5.28109 2.86667C4.80794 2.47007 4.20261 2.07346 3.46507 1.68381L3.62509 1.38463ZM1.1898 0.327025L1.3081 0C1.68383 0.139159 2.03868 0.278322 2.37267 0.417482L2.24046 0.737542L2.10826 1.0576C1.78124 0.918442 1.4403 0.786251 1.07153 0.65405L1.1898 0.327025Z" fill="#D4E7B2"/>
</svg>
