<svg width="6" height="15" viewBox="0 0 6 15" fill="none" xmlns="http://www.w3.org/2000/svg">
<path d="M1.14111 13.8742L1.39856 14.1107C1.16894 14.3612 0.939316 14.5978 0.709704 14.8204L0.466192 14.57L0.22266 14.3195C0.445314 14.1038 0.667956 13.8742 0.883653 13.6376L1.14111 13.8742ZM3.13804 11.3484L3.42332 11.5432C3.04759 12.0929 2.65098 12.6287 2.24046 13.1297L1.96909 12.907L1.69774 12.6844C2.09435 12.1973 2.47702 11.6824 2.83884 11.1466L3.13804 11.3484ZM4.71053 8.5374L5.03061 8.67657C4.76621 9.268 4.46006 9.85942 4.11912 10.4369L3.81991 10.263L3.52072 10.089C3.84775 9.5324 4.14695 8.96185 4.39743 8.39826L4.71053 8.5374ZM5.5942 5.45503L5.9421 5.48984C5.87948 6.12997 5.7264 6.79096 5.50375 7.45893L5.17672 7.3476L4.8497 7.23627C5.05843 6.61005 5.19758 5.99776 5.25325 5.41329L5.5942 5.45503ZM4.91231 2.37963L5.19759 2.17784C5.61507 2.76231 5.85165 3.42332 5.9421 4.13303L5.5942 4.17477L5.2463 4.21652C5.16977 3.60422 4.96798 3.05455 4.62704 2.57445L4.91231 2.37963ZM2.24046 0.695795L2.33092 0.361806C3.06846 0.570545 3.68772 0.855822 4.19565 1.21068L3.99386 1.49596L3.79209 1.78123C3.3607 1.47508 2.81798 1.22459 2.1361 1.03673L2.24046 0.695795ZM0.020873 0.347898L0.041746 0C0.389644 0.0208739 0.723627 0.0556738 1.04369 0.0974216L0.994983 0.445319L0.946293 0.793217C0.647101 0.751469 0.333982 0.723634 0 0.70276L0.020873 0.347898Z" fill="#D4E7B2"/>
</svg>
