<svg width="24" height="12" viewBox="0 0 24 12" fill="none" xmlns="http://www.w3.org/2000/svg">
<path d="M22.0567 0.904526L21.8619 0.612282C22.182 0.396586 22.4812 0.194823 22.7456 0L22.9473 0.278314L23.1491 0.556628C22.8778 0.758409 22.5716 0.967143 22.2446 1.18284L22.0567 0.904526ZM18.9535 2.79709L18.7795 2.4979C19.4475 2.11522 20.0737 1.74643 20.6443 1.39853L20.8252 1.69772L21.0061 1.99693C20.4216 2.35179 19.7884 2.72752 19.1205 3.11021L18.9535 2.79709ZM15.7598 4.54354L15.5997 4.23739C16.2607 3.88949 16.9009 3.54855 17.5132 3.20761L17.6802 3.51376L17.8472 3.81991C17.2279 4.16085 16.5808 4.50874 15.9198 4.85664L15.7598 4.54354ZM12.5174 6.18561L12.3643 5.87249C13.0183 5.55243 13.6654 5.22541 14.3056 4.89838L14.4656 5.2115L14.6256 5.5246C13.9855 5.85162 13.3315 6.17866 12.6705 6.49873L12.5174 6.18561ZM9.23322 7.74419L9.08711 7.43109C9.74116 7.1319 10.3952 6.82574 11.0562 6.51264L11.2093 6.82575L11.3624 7.13885C10.7013 7.45196 10.0403 7.76507 9.3863 8.06427L9.23322 7.74419ZM5.90035 9.20536L5.76815 8.8853C6.41524 8.61394 7.0832 8.32866 7.76508 8.02946L7.90425 8.34955L8.04342 8.66961C7.36154 8.9688 6.6866 9.26103 6.03256 9.53239L5.90035 9.20536ZM2.51183 10.5204L2.39354 10.1934C3.02671 9.97074 3.70859 9.7133 4.41831 9.42802L4.54354 9.74808L4.6688 10.0682C3.94518 10.3534 3.25633 10.6109 2.6162 10.8405L2.51183 10.5204ZM0.0835133 11.2719L0 10.9309C0.313108 10.8544 0.661013 10.757 1.02978 10.6457L1.13415 10.9797L1.23852 11.3136C0.862786 11.4319 0.500973 11.5293 0.173949 11.6128L0.0835133 11.2719Z" fill="#EAF3D9"/>
</svg>
