<svg width="8" height="30" viewBox="0 0 8 30" fill="none" xmlns="http://www.w3.org/2000/svg">
<path d="M7.31282 28.1519L7.65375 28.2145C7.58417 28.5902 7.49372 28.9381 7.36847 29.2512L7.04841 29.126L6.72835 29.0008C6.83272 28.7433 6.91621 28.4441 6.97883 28.0962L7.31282 28.1519ZM7.42415 24.8121L7.77205 24.7912C7.82075 25.5287 7.82772 26.2176 7.79988 26.8438L7.45199 26.8299L7.10409 26.8159C7.13192 26.2176 7.118 25.5566 7.07625 24.8329L7.42415 24.8121ZM7.04145 21.4862L7.3824 21.4305C7.49373 22.1263 7.58417 22.8012 7.65375 23.4483L7.30585 23.4831L6.95796 23.5179C6.88838 22.8847 6.79793 22.2167 6.68661 21.5349L7.04145 21.4862ZM6.41524 18.195L6.75619 18.1185C6.90231 18.7934 7.0345 19.4614 7.15974 20.1085L6.81881 20.1711L6.47785 20.2337C6.35957 19.5866 6.22738 18.9326 6.08127 18.2646L6.41524 18.195ZM5.63595 14.9318L5.96994 14.8413C6.14389 15.5023 6.30391 16.1564 6.45698 16.8104L6.11605 16.887L5.77512 16.9635C5.62204 16.3164 5.46201 15.6623 5.29502 15.0083L5.63595 14.9318ZM4.73837 11.7102L5.07236 11.6128C5.26718 12.2599 5.44808 12.907 5.62898 13.561L5.29502 13.6515L4.96103 13.742C4.78012 13.0949 4.59922 12.4478 4.4044 11.8077L4.73837 11.7102ZM3.72948 8.51653L4.0565 8.4052C4.26524 9.03837 4.47397 9.6785 4.68271 10.3325L4.34872 10.4369L4.01475 10.5413C3.81297 9.89421 3.60422 9.25408 3.39549 8.62786L3.72948 8.51653ZM2.60923 5.35761L2.93626 5.23237C3.16587 5.84467 3.40244 6.47784 3.63205 7.13885L3.30503 7.25714L2.978 7.37542C2.74839 6.72137 2.51879 6.09517 2.28917 5.48287L2.60923 5.35761ZM1.33594 2.26134L1.656 2.1152C1.91344 2.69271 2.18481 3.31893 2.44921 3.98689L2.12913 4.1191L1.80907 4.2513C1.54467 3.59029 1.28026 2.97104 1.02282 2.40745L1.33594 2.26134ZM0.299208 0.173949L0.605339 0C0.758414 0.27136 0.918448 0.577495 1.08544 0.897561L0.772344 1.05064L0.459228 1.20371C0.299195 0.890605 0.146117 0.598371 0 0.333968L0.299208 0.173949Z" fill="#FDC126"/>
</svg>
