<svg width="20" height="38" viewBox="0 0 20 38" fill="none" xmlns="http://www.w3.org/2000/svg">
<path d="M18.8978 36.2092L19.1553 35.9726C19.3918 36.237 19.6284 36.4806 19.858 36.7032L19.6145 36.9537L19.3709 37.2042C19.1274 36.9676 18.8839 36.7171 18.6334 36.4388L18.8978 36.2092ZM16.7478 33.4747L17.0331 33.2729C17.4506 33.8644 17.8611 34.421 18.2646 34.922L17.9933 35.1377L17.7219 35.3534C17.3114 34.8385 16.887 34.2749 16.4625 33.6695L16.7478 33.4747ZM14.8413 30.5593L15.1405 30.3784C15.5162 30.9838 15.885 31.5752 16.2538 32.1318L15.9616 32.3267L15.6693 32.5215C15.2936 31.9579 14.9179 31.3665 14.5421 30.7542L14.8413 30.5593ZM13.0879 27.5604L13.3941 27.3935C13.742 28.0058 14.0829 28.6042 14.4238 29.1886L14.1247 29.3626L13.8255 29.5365C13.4776 28.9521 13.1297 28.3467 12.7887 27.7344L13.0879 27.5604ZM11.425 24.5059L11.7311 24.3459C12.0581 24.9651 12.3852 25.5774 12.7122 26.1758L12.406 26.3428L12.0999 26.5098C11.7729 25.9045 11.4389 25.2922 11.1119 24.6729L11.425 24.5059ZM9.83159 21.4096L10.1447 21.2565C10.4578 21.8758 10.7709 22.4951 11.084 23.1074L10.7779 23.2674L10.4717 23.4274C10.1517 22.8151 9.83855 22.1959 9.52544 21.5697L9.83159 21.4096ZM8.30084 18.2855L8.61395 18.1324C8.91314 18.7586 9.21929 19.3779 9.51848 19.9972L9.20538 20.1502L8.89227 20.3033C8.58612 19.6771 8.27997 19.0578 7.98078 18.4316L8.30084 18.2855ZM6.81881 15.1336L7.1319 14.9874C7.42414 15.6137 7.71639 16.2399 8.01558 16.873L7.70246 17.0192L7.38935 17.1653C7.09015 16.5321 6.79793 15.9059 6.50569 15.2797L6.81881 15.1336ZM5.37154 11.9677L5.6916 11.8285C5.96992 12.4478 6.2552 13.081 6.54744 13.7211L6.23432 13.8672L5.92123 14.0133C5.62899 13.3732 5.34372 12.74 5.05845 12.1138L5.37154 11.9677ZM3.96604 8.7879L4.2861 8.64873C4.55746 9.26799 4.83579 9.90117 5.12107 10.5483L4.80098 10.6874L4.48092 10.8266C4.19565 10.1795 3.91036 9.5463 3.64596 8.92705L3.96604 8.7879ZM2.58836 5.58724L2.90842 5.44807C3.16586 6.06037 3.4442 6.7005 3.72948 7.36151L3.40939 7.50067L3.08933 7.63984C2.80406 6.97188 2.52574 6.33174 2.2683 5.71944L2.58836 5.58724ZM1.24548 2.38657L1.56554 2.25437C1.80907 2.83884 2.07347 3.47898 2.3657 4.17477L2.04564 4.30698L1.72558 4.43918C1.43335 3.75034 1.16895 3.10324 0.92542 2.51878L1.24548 2.38657ZM0.32006 0.132203L0.640141 0C0.751469 0.285276 0.883668 0.598381 1.02979 0.953236L0.709725 1.08544L0.389644 1.21764C0.243527 0.869744 0.118285 0.549682 0 0.264406L0.32006 0.132203Z" fill="#EAF3D9"/>
</svg>
