<svg width="71" height="65" viewBox="0 0 71 65" fill="none" xmlns="http://www.w3.org/2000/svg">
<path d="M69.3639 64.0828L69.51 63.7697C69.7187 63.8671 69.8857 63.9436 69.997 63.9993C70.0527 64.0271 70.0944 64.048 70.1223 64.0549C70.1362 64.0619 70.1501 64.0689 70.1571 64.0689C70.164 64.0689 70.164 64.0689 70.164 64.0758C70.164 64.0758 70.164 64.0758 70.0179 64.3889C69.8718 64.702 69.8718 64.702 69.8718 64.702C69.8718 64.702 69.8648 64.702 69.8648 64.6951C69.8579 64.6951 69.844 64.6881 69.83 64.6812C69.8022 64.6673 69.7605 64.6464 69.7048 64.6255C69.5935 64.5768 69.4335 64.5003 69.2178 64.3959L69.3639 64.0828ZM21.1383 39.2568L21.347 38.9785C21.521 39.1107 21.7088 39.2429 21.9106 39.389L21.7088 39.6743L21.507 39.9596C21.2983 39.8134 21.0965 39.6673 20.9226 39.5351L21.1383 39.2568ZM20.5747 38.7976L20.8043 38.5401C20.9852 38.7002 21.1661 38.8532 21.3401 38.9854L21.1313 39.2638L20.9226 39.5421C20.7278 39.396 20.5329 39.2359 20.3381 39.062L20.5747 38.7976ZM0.32006 0.125259C0.647084 1.61329e-05 0.647085 0 0.647085 0V0.00696475C0.647085 0.0139227 0.654056 0.0208866 0.661014 0.0348025C0.67493 0.0626343 0.68883 0.104377 0.709704 0.160041C0.751452 0.271368 0.814087 0.431403 0.897582 0.640141L0.577501 0.772344L0.257441 0.904547C0.173946 0.695808 0.111325 0.535774 0.0626191 0.424446C0.0417452 0.368783 0.0278242 0.32704 0.0139083 0.299208C0.00695031 0.285292 0.00695796 0.271364 0 0.264406C0 0.257448 0 0.257462 0 0.257462C0 0.250504 -5.95133e-06 0.250503 0.32006 0.125259Z" fill="#EAF3D9"/>
</svg>
