<svg width="33" height="8" viewBox="0 0 33 8" fill="none" xmlns="http://www.w3.org/2000/svg">
<path d="M31.5126 0.459228L31.4708 0.11133C31.8605 0.0695821 32.2292 0.0278318 32.5702 0L32.605 0.347898L32.6398 0.695796C32.2988 0.730585 31.937 0.765378 31.5543 0.807125L31.5126 0.459228ZM27.8388 0.946272L27.7901 0.605339C28.5624 0.487053 29.2999 0.38964 29.9888 0.299187L30.0305 0.647085L30.0723 0.994983C29.3834 1.08544 28.6529 1.18981 27.8875 1.30113L27.8388 0.946272ZM24.1858 1.5377L24.1302 1.19677C24.8816 1.07153 25.6122 0.946269 26.3219 0.834942L26.3776 1.1759L26.4333 1.51683C25.7305 1.62816 24.9999 1.74643 24.2485 1.87864L24.1858 1.5377ZM20.5399 2.19175L20.4773 1.85082C21.2148 1.71166 21.9454 1.57945 22.662 1.45421L22.7247 1.79514L22.7873 2.13608C22.0706 2.26132 21.347 2.39353 20.6095 2.53268L20.5399 2.19175ZM16.9009 2.90146L16.8313 2.56052C17.5549 2.41441 18.2855 2.26829 19.0091 2.12913L19.0787 2.47007L19.1483 2.811C18.4247 2.95016 17.701 3.09629 16.9774 3.24241L16.9009 2.90146ZM13.2827 3.6738L13.2062 3.33285C13.9229 3.17281 14.6465 3.01974 15.3771 2.85971L15.4466 3.20064L15.5162 3.5416C14.7926 3.69467 14.069 3.85469 13.3523 4.00777L13.2827 3.6738ZM9.67155 4.51571L9.58806 4.17477C10.2908 4.00082 11.0144 3.83382 11.752 3.65987L11.8285 4.00082L11.9051 4.34176C11.1745 4.50875 10.4508 4.6827 9.75505 4.8497L9.67155 4.51571ZM6.08821 5.44807L5.99775 5.11408C6.68659 4.92622 7.40326 4.73141 8.14776 4.54354L8.23125 4.87751L8.31474 5.2115C7.5772 5.39937 6.86055 5.59419 6.17867 5.78206L6.08821 5.44807ZM2.55356 6.54047L2.44223 6.21345C3.08236 5.99079 3.79904 5.76117 4.56442 5.53156L4.66182 5.86555L4.75924 6.19954C4.00082 6.42915 3.29806 6.65181 2.66489 6.87446L2.55356 6.54047ZM0.160019 7.52155L0 7.2154C0.299192 7.06232 0.647076 6.90229 1.02976 6.74226L1.16197 7.06232L1.29417 7.38238C0.925398 7.53546 0.598378 7.68158 0.32006 7.8277L0.160019 7.52155Z" fill="#D4E7B2"/>
</svg>
