<svg width="17" height="16" viewBox="0 0 17 16" fill="none" xmlns="http://www.w3.org/2000/svg">
<g clip-path="url(#clip0_2079_16921)">
<path d="M15.6163 15.0918L15.7277 14.7648C16.0686 14.8831 16.3956 14.9944 16.7296 15.1057L16.6183 15.4327L16.507 15.7598C16.173 15.6484 15.839 15.5371 15.498 15.4188L15.6163 15.0918ZM12.2835 13.9089L12.4018 13.5819C13.0767 13.8254 13.7377 14.062 14.3917 14.2916L14.2735 14.6187L14.1552 14.9457C13.5011 14.7161 12.8332 14.4795 12.1582 14.229L12.2835 13.9089ZM8.97845 12.6704L9.10368 12.3434C9.77165 12.6009 10.4327 12.8513 11.0867 13.0949L10.9684 13.4219L10.8501 13.7489C10.1891 13.5054 9.52814 13.2549 8.86017 12.9975L8.97845 12.6704ZM5.68733 11.3763L5.81953 11.0562C6.47358 11.3206 7.13459 11.585 7.78864 11.8424L7.6634 12.1695L7.53814 12.4965C6.87714 12.239 6.22309 11.9747 5.56209 11.7103L5.68733 11.3763ZM2.42406 10.0264L2.56321 9.70636C3.2103 9.98467 3.86435 10.256 4.51839 10.5274L4.38619 10.8474L4.25399 11.1675C3.59994 10.8961 2.93895 10.6248 2.29186 10.3465L2.42406 10.0264ZM-0.811403 8.61395L-0.672235 8.29389C-0.0321031 8.57917 0.614986 8.86443 1.26208 9.14971L1.12291 9.46979L0.983762 9.78985C0.329714 9.50457 -0.324347 9.21929 -0.964478 8.93401L-0.811403 8.61395ZM-4.01901 7.1319L-3.86593 6.81879C-3.23972 7.11798 -2.59959 7.41718 -1.9525 7.71637L-2.09861 8.02949L-2.24474 8.34258C-2.89879 8.04339 -3.54587 7.74421 -4.17209 7.44502L-4.01901 7.1319ZM-7.18489 5.5594L-7.02485 5.25325C-6.41951 5.56636 -5.78634 5.88644 -5.13925 6.20651L-5.29233 6.5196L-5.4454 6.83272C-6.09945 6.51265 -6.73957 6.19258 -7.34491 5.87252L-7.18489 5.5594ZM-10.2812 3.86166L-10.1072 3.56247C-9.53667 3.89645 -8.91742 4.24436 -8.27033 4.59922L-8.43732 4.90535L-8.6043 5.2115C-9.26531 4.85665 -9.88458 4.50875 -10.469 4.16781L-10.2812 3.86166ZM-13.2383 1.91344L-13.0226 1.63512C-12.5355 2.01085 -11.958 2.40745 -11.304 2.82493L-11.4918 3.11717L-11.6797 3.40939C-12.3477 2.98496 -12.9461 2.57445 -13.454 2.18481L-13.2383 1.91344ZM-14.95 0.166984L-14.6438 0C-14.5255 0.215697 -14.3307 0.466195 -14.0524 0.751471L-14.3029 0.994983L-14.5534 1.23852C-14.8595 0.932365 -15.0961 0.626224 -15.2561 0.33399L-14.95 0.166984Z" fill="#D4E7B2"/>
</g>
<defs>
<clipPath id="clip0_2079_16921">
<rect width="16.7297" height="15.7598" fill="white"/>
</clipPath>
</defs>
</svg>
