<svg width="41" height="5" viewBox="0 0 41 5" fill="none" xmlns="http://www.w3.org/2000/svg">
<path d="M39.5351 4.37656V4.02866C39.883 4.02866 40.217 4.02866 40.551 4.02866V4.37656V4.72446C40.2239 4.72446 39.883 4.72446 39.5351 4.72446V4.37656ZM36.1466 4.34176L36.1535 3.99386C36.8493 4.00778 37.5312 4.01474 38.1783 4.0217V4.3696V4.71749C37.5242 4.71053 36.8493 4.70357 36.1466 4.68966V4.34176ZM32.7441 4.26523L32.7511 3.91733C33.4469 3.93821 34.1288 3.95213 34.7898 3.96604L34.7828 4.31394L34.7758 4.66184C34.1079 4.64792 33.426 4.634 32.7302 4.61313L32.7441 4.26523ZM29.3487 4.1539L29.3626 3.806C30.0444 3.83383 30.7263 3.85471 31.3943 3.87559L31.3804 4.22348L31.3665 4.57138C30.6985 4.55051 30.0166 4.52963 29.3278 4.5018L29.3487 4.1539ZM25.9532 4.00779L25.9671 3.65989C26.649 3.69468 27.3239 3.7225 27.9988 3.75033L27.9849 4.09822L27.971 4.44612C27.296 4.41829 26.6142 4.39048 25.9323 4.35569L25.9532 4.00779ZM22.5577 3.81991L22.5786 3.47201C23.2535 3.51376 23.9354 3.54855 24.6103 3.58334L24.5894 3.93124L24.5685 4.27914C23.8936 4.24435 23.2117 4.2026 22.5298 4.16781L22.5577 3.81991ZM19.1692 3.60422L19.197 3.25632C19.8719 3.30502 20.5468 3.35374 21.2287 3.39549L21.2078 3.74338L21.187 4.09128C20.5051 4.04953 19.8302 4.00082 19.1553 3.95211L19.1692 3.60422ZM15.7806 3.33287L15.8085 2.98497C16.4764 3.04063 17.1513 3.09629 17.8332 3.15195L17.8054 3.49985L17.7776 3.84775C17.0957 3.79208 16.4138 3.73643 15.7458 3.68076L15.7806 3.33287ZM12.3991 2.99888L12.4339 2.65098C13.0949 2.72056 13.7698 2.79013 14.4586 2.85971L14.4238 3.20761L14.389 3.5555C13.7002 3.49288 13.0183 3.42331 12.3573 3.34677L12.3991 2.99888ZM9.03141 2.58836L9.08012 2.24046C9.72721 2.33092 10.4021 2.41441 11.091 2.4979L11.0492 2.8458L11.0075 3.1937C10.3117 3.1102 9.63675 3.02671 8.9827 2.93626L9.03141 2.58836ZM5.67073 2.04564L5.73335 1.70471C6.35956 1.82299 7.03449 1.94127 7.73724 2.04564L7.68157 2.38657L7.62591 2.72753C6.9162 2.6162 6.24128 2.50487 5.60115 2.37963L5.67073 2.04564ZM2.3657 1.25939L2.47007 0.925399C3.04062 1.10631 3.6877 1.2733 4.41828 1.43334L4.34176 1.77427L4.26521 2.11522C3.52071 1.94823 2.85276 1.77428 2.26134 1.58641L2.3657 1.25939ZM0.222638 0.271349L0.438333 0C0.633156 0.153075 0.897575 0.306159 1.23852 0.466192L1.09238 0.779288L0.946272 1.0924C0.570542 0.925413 0.250486 0.737536 0 0.535755L0.222638 0.271349Z" fill="#D4E7B2"/>
</svg>
