<svg width="17" height="25" viewBox="0 0 17 25" fill="none" xmlns="http://www.w3.org/2000/svg">
<g clip-path="url(#clip0_2079_16967)">
<path d="M15.0943 23.5248L15.2404 23.2117C15.5952 23.3787 15.9014 23.5248 16.1658 23.6501L16.0197 23.9632L15.8736 24.2763C15.6092 24.1511 15.2961 24.0049 14.9482 23.8379L15.0943 23.5248ZM11.9493 22.0358L12.1023 21.7227C12.7842 22.0497 13.4174 22.349 13.981 22.6134L13.8349 22.9265L13.6887 23.2396C13.1252 22.9682 12.492 22.669 11.8101 22.342L11.9493 22.0358ZM8.80427 20.526L8.95734 20.2129C9.61835 20.5329 10.2515 20.8321 10.8499 21.1174L10.6968 21.4305L10.5438 21.7436C9.94537 21.4583 9.3122 21.1522 8.65119 20.8391L8.80427 20.526ZM5.67319 19.023L5.82626 18.7099C6.47335 19.023 7.09958 19.3222 7.70492 19.6145L7.55185 19.9276L7.39877 20.2407C6.79343 19.9485 6.1672 19.6493 5.52011 19.3361L5.67319 19.023ZM2.54211 17.5062L2.69518 17.1931C3.33532 17.4993 3.96154 17.8054 4.57384 18.1046L4.42077 18.4177L4.26769 18.7308C3.65539 18.4316 3.02917 18.1324 2.38903 17.8193L2.54211 17.5062ZM-0.582006 15.9824L-0.42893 15.6693C0.204244 15.9755 0.830447 16.2816 1.44971 16.5878L1.29663 16.9009L1.14355 17.214C0.524295 16.9148 -0.101908 16.6086 -0.735082 16.2955L-0.582006 15.9824ZM-3.70614 14.4517L-3.55307 14.1385C-2.92685 14.4517 -2.30063 14.7578 -1.68137 15.057L-1.83445 15.3701L-1.98753 15.6832C-2.60678 15.3771 -3.233 15.0709 -3.85922 14.7648L-3.70614 14.4517ZM-6.82329 12.914L-6.67022 12.6008C-6.044 12.914 -5.42474 13.2201 -4.79852 13.5262L-4.9516 13.8394L-5.10468 14.1525C-5.72393 13.8463 -6.35015 13.5332 -6.97637 13.2271L-6.82329 12.914ZM-9.9335 11.3623L-9.78042 11.0492C-9.16116 11.3623 -8.53495 11.6754 -7.9157 11.9816L-8.06877 12.2947L-8.22185 12.6078C-8.84806 12.2947 -9.46732 11.9886 -10.0866 11.6754L-9.9335 11.3623ZM-13.0367 9.78983L-12.8767 9.47673C-12.2575 9.78984 -11.6382 10.1029 -11.012 10.416L-11.172 10.7292L-11.3321 11.0423C-11.9583 10.7292 -12.5775 10.416 -13.1968 10.096L-13.0367 9.78983ZM-16.133 8.21038L-15.973 7.90423C-15.3607 8.21734 -14.7415 8.5374 -14.1152 8.85746L-14.2753 9.17058L-14.4353 9.48368C-15.0615 9.16361 -15.6808 8.84355 -16.2931 8.53044L-16.133 8.21038ZM-19.2224 6.60309L-19.0623 6.29694C-18.457 6.61701 -17.8377 6.93706 -17.2115 7.26409L-17.3716 7.57024L-17.5316 7.87639C-18.1578 7.54937 -18.7771 7.22931 -19.3824 6.90924L-19.2224 6.60309ZM-22.2908 4.96797L-22.1238 4.66182C-21.5255 4.98188 -20.9131 5.30891 -20.28 5.64289L-20.44 5.94904L-20.6001 6.2552C-21.2332 5.92121 -21.8455 5.59418 -22.4439 5.26716L-22.2908 4.96797ZM-25.3454 3.29806L-25.1784 2.99191C-24.5939 3.31894 -23.9816 3.65293 -23.3484 4.00082L-23.5154 4.30695L-23.6824 4.61311C-24.3156 4.26521 -24.9279 3.93123 -25.5193 3.59725L-25.3454 3.29806ZM-28.3512 1.57248L-28.1703 1.2733C-27.6137 1.60728 -27.0153 1.95518 -26.3821 2.31699L-26.5491 2.61618L-26.723 2.91536C-27.3632 2.55355 -27.9616 2.19871 -28.5252 1.86473L-28.3512 1.57248ZM-30.4108 0.292222L-30.2229 0C-29.9515 0.173949 -29.6593 0.361805 -29.3532 0.556628L-29.5341 0.84885L-29.715 1.14109C-30.0281 0.946271 -30.3203 0.758408 -30.5986 0.577501L-30.4108 0.292222Z" fill="#EAF3D9"/>
</g>
<defs>
<clipPath id="clip0_2079_16967">
<rect width="16.1658" height="24.2764" fill="white"/>
</clipPath>
</defs>
</svg>
