<svg width="9" height="5" viewBox="0 0 9 5" fill="none" xmlns="http://www.w3.org/2000/svg">
<path d="M7.57024 3.09536L7.86248 2.91445C8.02947 3.18581 8.18949 3.47109 8.32865 3.77029L8.01556 3.9164L7.70244 4.06253C7.57024 3.78421 7.42413 3.51981 7.27105 3.27628L7.57024 3.09536ZM5.32978 0.93145L5.48982 0.625298C6.07428 0.931448 6.59614 1.34197 7.06232 1.84294L6.80488 2.07951L6.54742 2.31608C6.1369 1.87077 5.67769 1.50895 5.16976 1.24455L5.32978 0.93145ZM2.27524 0.374801L2.24741 0.0269033C2.95016 -0.0357183 3.60422 0.0129823 4.21652 0.152141L4.13997 0.493096L4.06344 0.834029C3.52768 0.708785 2.9432 0.667035 2.31003 0.722699L2.27524 0.374801ZM0.118273 0.861866L0 0.534842C0.313108 0.423514 0.626213 0.326107 0.932363 0.256528L1.01586 0.590496L1.09935 0.93145C0.821029 1.00103 0.528795 1.09147 0.229603 1.19583L0.118273 0.861866Z" fill="#D4E7B2"/>
</svg>
