<svg width="24" height="9" viewBox="0 0 24 9" fill="none" xmlns="http://www.w3.org/2000/svg">
<path d="M22.502 0.800161L22.342 0.487044C22.669 0.320053 22.9821 0.160033 23.2813 0L23.4414 0.306152L23.6014 0.612303C23.3022 0.772336 22.9821 0.939321 22.6481 1.10631L22.502 0.800161ZM19.3014 2.34483L19.1553 2.03171C19.8302 1.72556 20.4703 1.41941 21.0826 1.12022L21.2357 1.43334L21.3887 1.74643C20.7695 2.04562 20.1224 2.35178 19.4475 2.66489L19.3014 2.34483ZM16.045 3.7712L15.9128 3.45114C16.5808 3.17282 17.2349 2.88754 17.875 2.60227L18.0141 2.92233L18.1533 3.24241C17.5132 3.52769 16.8522 3.81296 16.1842 4.09128L16.045 3.7712ZM12.7539 5.09321L12.6287 4.76618C13.2897 4.5157 13.9577 4.2513 14.6117 3.98689L14.7439 4.30698L14.8761 4.62704C14.2151 4.8984 13.5471 5.15584 12.8792 5.41329L12.7539 5.09321ZM9.40715 6.29694L9.29582 5.96992C9.95682 5.74726 10.6318 5.51068 11.3067 5.26716L11.425 5.59418L11.5432 5.92121C10.8614 6.17169 10.1864 6.40828 9.51848 6.63093L9.40715 6.29694ZM6.01166 7.32673L5.92121 6.99274C6.57525 6.81879 7.25715 6.617 7.9599 6.40131L8.06427 6.7353L8.16863 7.06928C7.45892 7.29194 6.77008 7.49371 6.10212 7.66766L6.01166 7.32673ZM2.53268 8.04339L2.49094 7.6955C3.11715 7.61896 3.81296 7.49372 4.56442 7.32673L4.64094 7.66766L4.71749 8.00859C3.95212 8.18254 3.23544 8.3078 2.5814 8.39129L2.53268 8.04339ZM0.0626191 8.02946L0.139146 7.68853C0.417465 7.75115 0.744498 7.779 1.12719 7.78595V8.13385V8.48175C0.716666 8.48175 0.333982 8.44696 0 8.37042L0.0626191 8.02946Z" fill="#D4E7B2"/>
</svg>
