<svg width="24" height="9" viewBox="0 0 24 9" fill="none" xmlns="http://www.w3.org/2000/svg">
<path d="M22.502 0.800161L22.342 0.487065C22.669 0.320074 22.9821 0.160033 23.2813 0L23.4414 0.306152L23.6014 0.612303C23.3022 0.772336 22.9821 0.939321 22.6482 1.10631L22.502 0.800161ZM19.3014 2.34483L19.1552 2.03173C19.8302 1.72558 20.4703 1.41943 21.0826 1.12024L21.2357 1.43334L21.3887 1.74645C20.7695 2.04565 20.1224 2.35178 19.4475 2.66489L19.3014 2.34483ZM16.045 3.77122L15.9128 3.45114C16.5808 3.17282 17.2349 2.88754 17.875 2.60227L18.0142 2.92235L18.1533 3.24241C17.5132 3.52769 16.8522 3.81296 16.1842 4.09128L16.045 3.77122ZM12.7539 5.09323L12.6287 4.7662C13.2897 4.51572 13.9577 4.25132 14.6117 3.98692L14.7439 4.30698L14.8761 4.62704C14.2151 4.8984 13.5471 5.15584 12.8792 5.41329L12.7539 5.09323ZM9.40717 6.29694L9.29584 5.96992C9.95684 5.74726 10.6318 5.51071 11.3067 5.26718L11.425 5.5942L11.5432 5.92123C10.8614 6.17171 10.1864 6.40828 9.51848 6.63093L9.40717 6.29694ZM6.01168 7.32673L5.92123 6.99274C6.57527 6.81879 7.25715 6.61702 7.9599 6.40133L8.06427 6.7353L8.16863 7.06929C7.45892 7.29194 6.7701 7.49371 6.10214 7.66766L6.01168 7.32673ZM2.53271 8.04339L2.49096 7.6955C3.11718 7.61896 3.81296 7.49372 4.56442 7.32673L4.64097 7.66766L4.71749 8.00861C3.95212 8.18256 3.23544 8.3078 2.5814 8.39129L2.53271 8.04339ZM0.062619 8.03643L0.139168 7.6955C0.417486 7.75812 0.744498 7.78596 1.12719 7.79292V8.14082V8.48871C0.716666 8.48871 0.333982 8.45392 0 8.37738L0.062619 8.03643Z" fill="#FDC126"/>
</svg>
