<svg width="54" height="14" viewBox="0 0 54 14" fill="none" xmlns="http://www.w3.org/2000/svg">
<path d="M52.2403 13.4985L52.2473 13.1506C52.5882 13.1575 52.9292 13.1645 53.2632 13.1714V13.5193V13.8672C52.9222 13.8672 52.5813 13.8603 52.2334 13.8463L52.2403 13.4985ZM48.8101 13.2897L48.8379 12.9418C49.5337 13.0044 50.2156 13.0531 50.8835 13.0879L50.8627 13.4358L50.8418 13.7837C50.1669 13.7489 49.478 13.7002 48.7683 13.6376L48.8101 13.2897ZM45.3937 12.9209L45.4355 12.573C46.1243 12.6635 46.8062 12.74 47.4741 12.8096L47.4394 13.1575L47.4046 13.5054C46.7296 13.4358 46.0408 13.3523 45.345 13.2688L45.3937 12.9209ZM41.9913 12.4269L42.0469 12.086C42.7288 12.1973 43.4107 12.3017 44.0787 12.3921L44.0299 12.74L43.9813 13.081C43.3063 12.9836 42.6244 12.8792 41.9356 12.7679L41.9913 12.4269ZM38.6027 11.8355L38.6654 11.4946C39.3472 11.6198 40.0222 11.745 40.6901 11.8564L40.6345 12.1973L40.5788 12.5382C39.9039 12.42 39.229 12.3017 38.5471 12.1695L38.6027 11.8355ZM35.2281 11.1606L35.2977 10.8196C35.9726 10.9588 36.6476 11.0979 37.3155 11.2302L37.2459 11.5711L37.1764 11.912C36.5014 11.7798 35.8265 11.6407 35.1516 11.4946L35.2281 11.1606ZM31.8744 10.4161L31.9509 10.0751C32.6189 10.2282 33.2938 10.3813 33.9618 10.5274L33.8853 10.8683L33.8087 11.2093C33.1338 11.0632 32.4658 10.9101 31.7909 10.757L31.8744 10.4161ZM28.5276 9.6159L28.6111 9.27497C29.2791 9.44196 29.947 9.60198 30.615 9.76201L30.5315 10.103L30.448 10.4439C29.7801 10.2839 29.1051 10.1169 28.4372 9.94989L28.5276 9.6159ZM25.2017 8.75312L25.2922 8.41913C25.9532 8.59308 26.6212 8.76703 27.2822 8.94098L27.1986 9.27497L27.1152 9.60896C26.4472 9.43501 25.7792 9.26106 25.1182 9.08711L25.2017 8.75312ZM21.8897 7.84163L21.9871 7.50764C22.6412 7.6955 23.3022 7.87642 23.9702 8.05732L23.8797 8.39131L23.7893 8.72528C23.1213 8.54438 22.4603 8.35652 21.7993 8.16865L21.8897 7.84163ZM18.5847 6.88143L18.6821 6.54744C19.3362 6.74226 19.9902 6.9371 20.6582 7.12496L20.5608 7.45893L20.4633 7.79292C19.7954 7.5981 19.1344 7.40328 18.4803 7.20845L18.5847 6.88143ZM15.2936 5.87252L15.398 5.53855C16.045 5.74033 16.6991 5.94211 17.3671 6.15085L17.2627 6.48482L17.1583 6.81881C16.4904 6.61703 15.8294 6.40829 15.1823 6.20651L15.2936 5.87252ZM12.0233 4.81491L12.1347 4.48789C12.7748 4.69663 13.4289 4.91233 14.0968 5.12803L13.9925 5.462L13.8881 5.79599C13.2201 5.58029 12.5661 5.36459 11.919 5.15585L12.0233 4.81491ZM8.76703 3.7086L8.88532 3.38158C9.5185 3.60423 10.1656 3.82689 10.8335 4.0565L10.7222 4.38352L10.6109 4.71055C9.94292 4.48094 9.28887 4.25828 8.6557 4.03563L8.76703 3.7086ZM5.53855 2.53271L5.66379 2.20568C6.27609 2.43529 6.92317 2.67186 7.59113 2.91538L7.47286 3.24241L7.35456 3.56943C6.67964 3.32591 6.03255 3.08934 5.42025 2.85973L5.53855 2.53271ZM2.33788 1.27332L2.47009 0.953258C3.05456 1.19679 3.69469 1.45421 4.38352 1.71862L4.25829 2.04564L4.13303 2.37267C3.44419 2.10131 2.79711 1.84387 2.20568 1.60034L2.33788 1.27332ZM0.146132 0.313116L0.292243 0C0.57752 0.132201 0.88366 0.271371 1.21764 0.424446L1.0785 0.744506L0.939328 1.06457C0.605346 0.918449 0.285276 0.772336 0 0.633176L0.146132 0.313116Z" fill="#EAF3D9"/>
</svg>
