<svg width="2" height="16" viewBox="0 0 2 16" fill="none" xmlns="http://www.w3.org/2000/svg">
<path d="M1.48205 14.5421L1.82995 14.5908C1.76732 15.0709 1.65599 15.4954 1.47508 15.8293L1.16893 15.6624L0.86278 15.4954C0.988023 15.2588 1.08543 14.9248 1.14109 14.4934L1.48205 14.5421ZM1.39853 10.6109L1.74643 10.5761C1.82993 11.4319 1.88559 12.2321 1.89951 12.9488L1.55161 12.9557L1.20371 12.9627C1.1898 12.2738 1.13413 11.4946 1.05064 10.6457L1.39853 10.6109ZM0.953236 6.69357L1.30113 6.6518C1.39855 7.45197 1.49595 8.23823 1.57945 8.98969L1.23155 9.03143L0.883653 9.07318C0.800157 8.32172 0.70275 7.54243 0.605339 6.74226L0.953236 6.69357ZM0.521847 2.77624L0.869744 2.7484C0.939324 3.52073 1.02282 4.30699 1.10631 5.07932L0.758415 5.12107L0.410517 5.16281C0.320063 4.38352 0.236564 3.59728 0.166984 2.81798L0.521847 2.77624ZM0.347898 0.0139295L0.695795 0C0.709711 0.382688 0.730576 0.772342 0.75145 1.16199L0.403552 1.18286L0.0556543 1.20373C0.0278225 0.80713 0.0139159 0.410519 0 0.020873L0.347898 0.0139295Z" fill="#FDC126"/>
</svg>
