<svg width="70" height="48" viewBox="0 0 70 48" fill="none" xmlns="http://www.w3.org/2000/svg">
<path d="M68.4593 46.9245L68.4176 46.5766C68.6541 46.5487 68.8838 46.5209 69.1203 46.493L69.1621 46.8409L69.2038 47.1888C68.9672 47.2167 68.7307 47.2445 68.5011 47.2724L68.4593 46.9245ZM12.4269 44.9414L12.5522 44.6144C12.7191 44.677 12.9348 44.7466 13.1992 44.8231L13.1088 45.1571L13.0183 45.4911C12.74 45.4146 12.4965 45.338 12.3017 45.2615L12.4269 44.9414ZM11.8703 44.517L12.1277 44.2874C12.3017 44.4822 12.4408 44.5796 12.5452 44.6213L12.42 44.9484L12.2947 45.2754C12.0442 45.178 11.8146 44.9901 11.6059 44.7536L11.8703 44.517ZM0.340933 0.0626191C0.681873 -2.55057e-06 0.681887 0 0.681887 0V0.00694352C0.681887 0.0139015 0.681873 0.0278301 0.688831 0.041746C0.695789 0.0695779 0.702746 0.11132 0.709704 0.166984C0.730578 0.278311 0.758413 0.438353 0.800161 0.65405L0.459228 0.716669L0.118295 0.779288C0.0765469 0.563591 0.0487116 0.40355 0.0278378 0.292222C0.0208798 0.236559 0.00696475 0.194816 0.00696475 0.166984C0.00696475 0.153068 0 0.139161 0 0.132203C0 0.125245 0 0.125238 0 0.125238C0 0.125238 -6.80151e-06 0.125241 0.340933 0.0626191Z" fill="#EAF3D9"/>
</svg>
