<svg width="33" height="27" viewBox="0 0 33 27" fill="none" xmlns="http://www.w3.org/2000/svg">
<path d="M31.8326 14.4238L31.617 14.1455C31.8118 13.9925 31.9857 13.8533 32.1319 13.7211L32.3615 13.9785L32.5911 14.236C32.431 14.3821 32.2432 14.5352 32.0414 14.6952L31.8326 14.4238ZM6.92317 25.9323L6.93708 25.5844C7.11103 25.5914 7.33369 25.5775 7.5981 25.5357L7.64681 25.8766L7.6955 26.2176C7.40326 26.2593 7.13888 26.2802 6.90927 26.2732L6.92317 25.9323ZM6.61006 25.327L6.92317 25.1739C7.02754 25.3896 7.12495 25.5844 7.22236 25.7514L6.92317 25.9253L6.62399 26.0993C6.51266 25.9114 6.40829 25.7027 6.29696 25.4731L6.61006 25.327ZM0.340954 0.0626191C0.681894 -2.55057e-06 0.681887 0 0.681887 0V0.00696475C0.681887 0.0139227 0.681894 0.0278301 0.688852 0.041746C0.69581 0.0695779 0.702767 0.111342 0.709725 0.167005C0.730599 0.278333 0.758413 0.438353 0.800161 0.65405L0.459228 0.716669L0.118295 0.779288C0.0765469 0.570549 0.0487116 0.403571 0.0278378 0.292243C0.0208798 0.23658 0.00696475 0.194837 0.00696475 0.167005C0.00696475 0.153089 0 0.139161 0 0.132203C0 0.125245 0 0.125238 0 0.125238C0 0.125238 1.44325e-05 0.125241 0.340954 0.0626191ZM6.92317 25.9323L6.90927 26.2802C6.79098 26.2733 6.67964 26.2106 6.61702 26.1063L6.92317 25.9323Z" fill="#EAF3D9"/>
</svg>
