<svg width="99" height="97" viewBox="0 0 99 97" fill="none" xmlns="http://www.w3.org/2000/svg">
<path d="M0.765358 95.6719L0.918434 95.985C0.709695 96.0824 0.549667 96.159 0.445298 96.2077C0.389634 96.2355 0.347899 96.2494 0.327025 96.2633C0.313109 96.2703 0.306145 96.2772 0.299187 96.2772C0.292229 96.2772 0.292222 96.2772 0.292222 96.2842C0.292222 96.2842 0.292228 96.2842 0.146111 95.9711C-5.94096e-06 95.658 0 95.658 0 95.658H0.00694352C0.0139015 95.658 0.0208654 95.651 0.0347813 95.644C0.0626131 95.6301 0.10437 95.6162 0.153076 95.5884C0.257445 95.5397 0.417466 95.4631 0.619247 95.3657L0.765358 95.6719ZM64.0201 51.4332L64.2637 51.6837C64.0967 51.8437 63.9366 51.9968 63.7697 52.1568L63.5261 51.9064L63.2826 51.6559C63.4496 51.4958 63.6096 51.3428 63.7766 51.1827L64.0201 51.4332ZM64.5072 50.967L64.7507 51.2175C64.5907 51.3776 64.4237 51.5306 64.2637 51.6907L64.0201 51.4402L63.7766 51.1897C63.9366 51.0296 64.1036 50.8766 64.2637 50.7165L64.5072 50.967ZM98.5038 0.0695838C98.8447 0.132205 98.8447 0.132203 98.8447 0.132203V0.139168C98.8447 0.146126 98.8377 0.160033 98.8377 0.173949C98.8308 0.201781 98.8238 0.243523 98.8099 0.299187C98.789 0.410514 98.7473 0.57752 98.6986 0.793217L98.3576 0.709725L98.0167 0.626212C98.0654 0.417473 98.1002 0.257445 98.128 0.153076C98.142 0.0974122 98.1489 0.0626343 98.1489 0.0348025C98.1489 0.0208866 98.1559 0.0139227 98.1559 0.00696475V0C98.1559 0 98.1559 0.0069622 98.5038 0.0695838Z" fill="#EAF3D9"/>
</svg>
