<svg width="13" height="13" viewBox="0 0 13 13" fill="none" xmlns="http://www.w3.org/2000/svg">
<path d="M12.3226 1.07847L11.9886 0.97411C12.0929 0.654044 12.1625 0.327024 12.1973 0L12.5452 0.0347813L12.8931 0.0695626C12.8513 0.45225 12.7748 0.821026 12.6565 1.18284L12.3226 1.07847ZM10.4509 4.07735L10.1934 3.84078C10.6805 3.30502 11.098 2.75535 11.4319 2.19175L11.7311 2.3657L12.0303 2.53965C11.6685 3.15195 11.2232 3.74338 10.7083 4.30698L10.4509 4.07735ZM7.82076 6.47089L7.60506 6.19952C8.16866 5.75421 8.71137 5.30195 9.21235 4.83577L9.44892 5.09321L9.68548 5.35067C9.16364 5.83077 8.607 6.29694 8.03645 6.7492L7.82076 6.47089ZM4.94712 8.58611L4.74533 8.30084C5.31588 7.89727 5.90036 7.47979 6.47091 7.05536L6.67964 7.33367L6.88839 7.612C6.31088 8.0434 5.71946 8.46087 5.1489 8.86443L4.94712 8.58611ZM2.08044 10.7013L1.86475 10.43C2.39355 10.0055 2.97801 9.57413 3.59031 9.13578L3.79209 9.42106L3.99388 9.70633C3.38854 10.1447 2.81798 10.5691 2.29614 10.9797L2.08044 10.7013ZM0.27137 12.413L0 12.1973C0.222655 11.9259 0.473138 11.6546 0.758415 11.3902L0.995004 11.6406L1.23157 11.8911C0.967169 12.1486 0.730599 12.3921 0.535776 12.6356L0.27137 12.413Z" fill="#FDC126"/>
</svg>
