<svg width="40" height="15" viewBox="0 0 40 15" fill="none" xmlns="http://www.w3.org/2000/svg">
<path d="M38.8532 13.3593L38.9715 13.0323C39.3264 13.1575 39.6534 13.2758 39.9526 13.3871L39.8343 13.7141L39.716 14.0411C39.4098 13.9368 39.0828 13.8185 38.728 13.6863L38.8532 13.3593ZM35.5691 12.1347L35.6943 11.8077C36.3971 12.0721 37.0581 12.3225 37.6704 12.5522L37.5521 12.8792L37.4338 13.2062C36.8215 12.9766 36.1605 12.7261 35.4577 12.4617L35.5691 12.1347ZM32.2849 10.8822L32.4101 10.5552C33.092 10.8196 33.753 11.0701 34.3862 11.3136L34.261 11.6407L34.1357 11.9677C33.5026 11.7242 32.8416 11.4737 32.1597 11.2093L32.2849 10.8822ZM29.0077 9.62284L29.133 9.29582C29.8079 9.55326 30.4619 9.80377 31.1021 10.0543L30.9768 10.3813L30.8516 10.7083C30.2114 10.4648 29.5504 10.2073 28.8825 9.95683L29.0077 9.62284ZM25.7305 8.37738L25.8558 8.05036C26.5237 8.30085 27.1847 8.55132 27.8318 8.80181L27.7066 9.12883L27.5813 9.45586C26.9342 9.20537 26.2732 8.9549 25.6053 8.70441L25.7305 8.37738ZM22.4464 7.13887L22.5646 6.81184C23.2256 7.06233 23.8867 7.30584 24.5477 7.55633L24.4224 7.88335L24.2972 8.21038C23.6431 7.96685 22.9821 7.71638 22.3211 7.46589L22.4464 7.13887ZM19.1553 5.92123L19.2735 5.5942C19.9346 5.83773 20.5955 6.08125 21.2565 6.32478L21.1383 6.6518L21.02 6.97883C20.359 6.7353 19.698 6.49178 19.037 6.24825L19.1553 5.92123ZM15.8502 4.7314L15.9685 4.40438C16.6295 4.64095 17.2905 4.87753 17.9585 5.1141L17.8402 5.44113L17.7219 5.76815C17.0539 5.52462 16.3929 5.28804 15.7319 5.05843L15.8502 4.7314ZM12.5313 3.58334L12.6426 3.25632C13.3036 3.47897 13.9716 3.7086 14.6465 3.94517L14.5352 4.27217L14.4238 4.5992C13.7489 4.36263 13.0809 4.13302 12.4269 3.91037L12.5313 3.58334ZM9.19842 2.49094L9.30278 2.15697C9.95683 2.36571 10.6248 2.5814 11.3136 2.80406L11.2023 3.13108L11.091 3.4581C10.4091 3.23545 9.74114 3.0128 9.08709 2.81102L9.19842 2.49094ZM5.83077 1.48205L5.92123 1.14806C6.57527 1.32897 7.25715 1.53075 7.9599 1.73949L7.86248 2.07348L7.75812 2.40745C7.05536 2.19175 6.38044 1.99692 5.73335 1.81602L5.83077 1.48205ZM2.42832 0.65405L2.4979 0.313116C3.13108 0.43836 3.82687 0.598388 4.57833 0.786252L4.49483 1.12022L4.41134 1.45421C3.6738 1.26635 2.99192 1.11328 2.37267 0.988039L2.42832 0.65405ZM0 0.347898L0.00696475 0C0.327031 0.00695796 0.688836 0.0347864 1.08544 0.0834921L1.04369 0.43139L1.00195 0.779288C0.626218 0.730582 0.292234 0.709718 0 0.70276V0.347898Z" fill="#FDC126"/>
</svg>
