<svg width="10" height="10" viewBox="0 0 10 10" fill="none" xmlns="http://www.w3.org/2000/svg">
<path d="M7.98077 0.730598L7.8277 0.417482C8.13385 0.271365 8.43303 0.132201 8.73222 0L8.87139 0.32006L9.01056 0.640141C8.71833 0.765384 8.42608 0.904534 8.13385 1.04369L7.98077 0.730598ZM5.14194 2.33788L4.95406 2.04564C5.5107 1.68383 6.08822 1.34289 6.66573 1.02979L6.83272 1.33594L6.9997 1.64209C6.43611 1.94824 5.87948 2.28221 5.33676 2.63011L5.14194 2.33788ZM2.55358 4.32785L2.31701 4.07737C2.78319 3.63206 3.30502 3.20761 3.86166 2.79709L4.07041 3.07543L4.27914 3.35374C3.74338 3.75034 3.2424 4.16087 2.79709 4.57835L2.55358 4.32785ZM0.619268 6.93012L0.299187 6.79791C0.542715 6.19953 0.925415 5.61508 1.39856 5.05148L1.66296 5.27414L1.92735 5.49678C1.48899 6.02559 1.14807 6.54743 0.939328 7.06232L0.619268 6.93012ZM0.521847 9.15667L0.194822 9.28191C0.0626207 8.92705 0 8.56524 0 8.19647H0.347898H0.695795C0.695795 8.48175 0.744502 8.76007 0.848871 9.03143L0.521847 9.15667Z" fill="#FDC126"/>
</svg>
