<svg width="3" height="22" viewBox="0 0 3 22" fill="none" xmlns="http://www.w3.org/2000/svg">
<path d="M1.82995 20.6442L2.15001 20.7834C1.97606 21.187 1.75339 21.5349 1.46812 21.7993L1.23155 21.5488L0.994983 21.2983C1.18981 21.1104 1.36375 20.853 1.51683 20.5051L1.82995 20.6442ZM2.47007 17.0679L2.81796 17.0818C2.78317 17.8959 2.7136 18.6473 2.5814 19.3153L2.24046 19.2527L1.89953 19.19C2.01781 18.5638 2.08738 17.8471 2.12217 17.0609L2.47007 17.0679ZM2.39354 13.4149L2.74144 13.3941C2.7971 14.1525 2.82492 14.89 2.83884 15.5997L2.49094 15.6067L2.14304 15.6137C2.13608 14.9179 2.1013 14.1942 2.04564 13.4428L2.39354 13.4149ZM2.02477 9.78288L2.37267 9.74114C2.46312 10.4717 2.54662 11.2023 2.6162 11.9329L2.2683 11.9677L1.9204 12.0025C1.85082 11.2858 1.76732 10.5622 1.67687 9.83854L2.02477 9.78288ZM1.49596 6.16474L1.83689 6.10908C1.95517 6.81184 2.06651 7.54242 2.17088 8.27996L1.82995 8.32867L1.48899 8.37736C1.38462 7.64678 1.27331 6.91621 1.15502 6.22041L1.49596 6.16474ZM0.848871 2.57443L1.1898 2.50485C1.32201 3.17281 1.45422 3.89645 1.59338 4.66878L1.25242 4.7314L0.91149 4.79402C0.779289 4.02865 0.64014 3.30502 0.507938 2.64401L0.848871 2.57443ZM0.340933 0.0695626L0.681887 0C0.751467 0.320066 0.827988 0.674906 0.904526 1.07151L0.563593 1.14109L0.22266 1.21068C0.139164 0.814074 0.0695796 0.459219 0 0.146111L0.340933 0.0695626Z" fill="#FDC126"/>
</svg>
