<svg width="7" height="28" viewBox="0 0 7 28" fill="none" xmlns="http://www.w3.org/2000/svg">
<path d="M5.56636 26.6142L5.90732 26.6977C5.80295 27.1012 5.67074 27.47 5.48984 27.7762L5.19065 27.6022L4.89144 27.4283C5.0306 27.1917 5.1489 26.8925 5.2324 26.5307L5.56636 26.6142ZM5.77512 23.1004L6.12301 23.0795C6.16476 23.8658 6.16475 24.5964 6.11605 25.2504L5.76815 25.2226L5.42025 25.1947C5.462 24.5755 5.462 23.8727 5.42025 23.1074L5.77512 23.1004ZM5.39242 19.5866L5.73337 19.5379C5.8447 20.2755 5.93514 20.9852 6.00472 21.6671L5.65682 21.7019L5.30892 21.7366C5.23934 21.0687 5.1489 20.3659 5.03757 19.6423L5.39242 19.5866ZM4.7662 16.1077L5.10714 16.0381C5.25325 16.7478 5.38547 17.4506 5.51071 18.1394L5.16978 18.202L4.82882 18.2646C4.71054 17.5828 4.57833 16.887 4.43221 16.1842L4.7662 16.1077ZM3.98692 12.6565L4.32785 12.573C4.49484 13.2619 4.65487 13.9577 4.80795 14.6535L4.46702 14.73L4.12608 14.8065C3.97301 14.1177 3.81297 13.4289 3.64598 12.74L3.98692 12.6565ZM3.11021 9.2332L3.4442 9.14276C3.6251 9.81768 3.80601 10.5065 3.98692 11.2023L3.65293 11.2858L3.31896 11.3693C3.14501 10.6735 2.96409 9.99163 2.78318 9.31671L3.11021 9.2332ZM2.14306 5.83077L2.47703 5.73335C2.67185 6.39435 2.86668 7.07624 3.06846 7.78595L2.73449 7.88335L2.4005 7.98077C2.20568 7.27802 2.0039 6.59615 1.81604 5.9421L2.14306 5.83077ZM1.10631 2.44919L1.4403 2.34483C1.64208 2.97104 1.85778 3.65292 2.07348 4.3835L1.73949 4.48789L1.40552 4.59225C1.18287 3.86863 0.974125 3.18674 0.772344 2.56749L1.10631 2.44919ZM0.327025 0.11133L0.65405 0C0.758419 0.299192 0.869761 0.633176 0.995004 1.00195L0.667979 1.11328L0.340954 1.22461C0.215711 0.855835 0.104369 0.528795 0 0.229603L0.327025 0.11133Z" fill="#FDC126"/>
</svg>
