<svg width="7" height="9" viewBox="0 0 7 9" fill="none" xmlns="http://www.w3.org/2000/svg">
<path d="M6.4222 6.84665L6.7701 6.83272C6.78401 7.23628 6.78401 7.63985 6.76313 8.03645L6.41524 8.01558L6.06734 7.99471C6.08821 7.61898 6.08822 7.24324 6.0743 6.86056L6.4222 6.84665ZM5.57333 3.02671L5.88642 2.8806C6.20649 3.59032 6.44307 4.37657 6.58918 5.19065L6.24825 5.25327L5.9073 5.31589C5.76814 4.55051 5.55245 3.81993 5.26021 3.16588L5.57333 3.02671ZM2.83189 0.396609L2.92235 0.0626403C3.76426 0.285295 4.46006 0.786261 5.00974 1.44727L4.74533 1.66993L4.48092 1.89256C4.00083 1.31505 3.42332 0.911505 2.7484 0.730598L2.83189 0.396609ZM0.125238 0.661014L0 0.33399C0.417477 0.173957 0.814082 0.0626216 1.19677 0L1.25244 0.340954L1.3081 0.681887C0.981075 0.737551 0.626213 0.834957 0.257441 0.981074L0.125238 0.661014Z" fill="#D4E7B2"/>
</svg>
