<svg width="13" height="13" viewBox="0 0 13 13" fill="none" xmlns="http://www.w3.org/2000/svg">
<path d="M12.3225 1.07847L11.9885 0.974109C12.0929 0.654043 12.1625 0.327024 12.1973 0L12.5452 0.0347813L12.8931 0.0695626C12.8513 0.45225 12.7748 0.821026 12.6565 1.18284L12.3225 1.07847ZM10.4578 4.08432L10.2004 3.84775C10.6874 3.31199 11.1049 2.76229 11.4389 2.1987L11.7381 2.37264L12.0373 2.54659C11.6754 3.15889 11.2301 3.75032 10.7152 4.31392L10.4578 4.08432ZM7.82074 6.47785L7.60504 6.20648C8.16863 5.76117 8.71135 5.30891 9.21233 4.84273L9.44889 5.10017L9.68546 5.35761C9.16362 5.83771 8.60698 6.3039 8.03643 6.75617L7.82074 6.47785ZM4.9471 8.59306L4.74533 8.30778C5.31588 7.90422 5.90034 7.48676 6.47089 7.06232L6.67964 7.34063L6.88837 7.61895C6.31086 8.05034 5.71944 8.46783 5.14888 8.87139L4.9471 8.59306ZM2.08042 10.7083L1.86473 10.4369C2.39353 10.0125 2.97801 9.58109 3.59031 9.14274L3.79207 9.42802L3.99386 9.7133C3.38852 10.1517 2.81796 10.5761 2.29612 10.9866L2.08042 10.7083ZM0.271349 12.4199L0 12.2042C0.222655 11.9329 0.473138 11.6615 0.758415 11.3971L0.994983 11.6476L1.23155 11.8981C0.967148 12.1555 0.730578 12.3991 0.535755 12.6426L0.271349 12.4199Z" fill="#D4E7B2"/>
</svg>
