<svg width="13" height="27" viewBox="0 0 13 27" fill="none" xmlns="http://www.w3.org/2000/svg">
<path d="M11.2093 25.6331L11.4528 25.3826C11.7241 25.647 11.9816 25.8627 12.2321 26.0297L12.0442 26.322L11.8563 26.6142C11.5571 26.4194 11.258 26.1689 10.9657 25.8766L11.2093 25.6331ZM9.05229 22.7316L9.35149 22.5507C9.7481 23.2117 10.1517 23.8101 10.5413 24.325L10.263 24.5338L9.98465 24.7425C9.57413 24.1998 9.16362 23.5875 8.7531 22.9056L9.05229 22.7316ZM7.34063 19.531L7.65375 19.3779C7.98077 20.0528 8.30779 20.693 8.64177 21.3053L8.33562 21.4723L8.02947 21.6392C7.69548 21.02 7.3615 20.3659 7.02752 19.6841L7.34063 19.531ZM5.84468 16.219L6.16474 16.0868C6.45001 16.7617 6.74225 17.4297 7.03448 18.0768L6.72137 18.2229L6.40827 18.369C6.10908 17.715 5.81684 17.047 5.53156 16.3651L5.84468 16.219ZM4.49483 12.8513L4.82186 12.7261C5.0793 13.401 5.34369 14.0829 5.61505 14.7509L5.29499 14.8831L4.97493 15.0153C4.70357 14.3404 4.43918 13.6585 4.17477 12.9766L4.49483 12.8513ZM3.25632 9.44195L3.58334 9.32368C3.81991 9.9986 4.06344 10.6805 4.32088 11.3693L3.99386 11.4876L3.66683 11.6059C3.40939 10.917 3.16586 10.2282 2.92929 9.54632L3.25632 9.44195ZM2.09433 6.00472L2.42832 5.90035C2.64402 6.56832 2.87364 7.25715 3.11021 7.9599L2.78318 8.07123L2.45616 8.18256C2.21263 7.47285 1.983 6.77705 1.76731 6.10908L2.09433 6.00472ZM1.02282 2.53271L1.35679 2.43528C1.54465 3.07542 1.75339 3.77123 1.98997 4.51573L1.65598 4.62009L1.32201 4.72446C1.09239 3.97996 0.876696 3.2772 0.688831 2.63707L1.02282 2.53271ZM0.340933 0.0904568L0.674923 0C0.75146 0.30615 0.848867 0.654048 0.953236 1.04369L0.619247 1.13415L0.285257 1.22461C0.17393 0.834961 0.0834955 0.480099 0 0.173949L0.340933 0.0904568Z" fill="#FDC126"/>
</svg>
