<svg width="33" height="8" viewBox="0 0 33 8" fill="none" xmlns="http://www.w3.org/2000/svg">
<path d="M31.5126 0.459228L31.4708 0.11133C31.8605 0.0695821 32.2292 0.0278318 32.5702 0L32.605 0.347898L32.6398 0.695796C32.2988 0.730585 31.937 0.765378 31.5543 0.807125L31.5126 0.459228ZM27.8388 0.953236L27.7901 0.612303C28.5624 0.494018 29.3 0.396605 29.9888 0.306152L30.0305 0.65405L30.0723 1.00195C29.3834 1.0924 28.6529 1.19677 27.8875 1.3081L27.8388 0.953236ZM24.1789 1.5377L24.1232 1.19677C24.8747 1.07153 25.6053 0.94629 26.315 0.834963L26.3706 1.1759L26.4263 1.51683C25.7236 1.62816 24.993 1.74646 24.2415 1.87866L24.1789 1.5377ZM20.5329 2.19175L20.4703 1.85082C21.2079 1.71166 21.9315 1.57945 22.6551 1.45421L22.7177 1.79514L22.7804 2.1361C22.0637 2.26134 21.3401 2.39355 20.6025 2.53271L20.5329 2.19175ZM16.9009 2.90148L16.8313 2.56052C17.5549 2.41441 18.2855 2.26829 19.0091 2.12913L19.0787 2.47007L19.1483 2.81102C18.4247 2.95018 17.701 3.09629 16.9774 3.24241L16.9009 2.90148ZM13.2758 3.6738L13.1992 3.33287C13.9159 3.17283 14.6395 3.01976 15.3701 2.85973L15.4397 3.20066L15.5093 3.5416C14.7857 3.69467 14.062 3.85471 13.3454 4.00779L13.2758 3.6738ZM9.67155 4.51571L9.58806 4.17477C10.2908 4.00082 11.0145 3.83384 11.752 3.65989L11.8285 4.00082L11.9051 4.34176C11.1745 4.50875 10.4509 4.6827 9.75507 4.8497L9.67155 4.51571ZM6.08821 5.44807L5.99775 5.1141C6.68659 4.92624 7.40326 4.73141 8.14776 4.54354L8.23127 4.87753L8.31477 5.2115C7.57722 5.39937 6.86055 5.59419 6.17867 5.78206L6.08821 5.44807ZM2.55358 6.54047L2.44225 6.21345C3.08238 5.99079 3.79904 5.7612 4.56442 5.53158L4.66184 5.86555L4.75924 6.19954C4.00082 6.42915 3.29808 6.65181 2.66491 6.87446L2.55358 6.54047ZM0.160041 7.52155L0 7.2154C0.299192 7.06232 0.647097 6.90229 1.02979 6.74226L1.16199 7.06232L1.29419 7.3824C0.925419 7.53548 0.598378 7.68158 0.32006 7.8277L0.160041 7.52155Z" fill="#FDC126"/>
</svg>
