<svg width="41" height="10" viewBox="0 0 41 10" fill="none" xmlns="http://www.w3.org/2000/svg">
<path d="M39.1872 0.751471L39.0411 0.438355C39.3542 0.292238 39.6673 0.146117 39.9665 0L40.1196 0.313116L40.2726 0.626233C39.9665 0.779308 39.6534 0.925414 39.3333 1.07153L39.1872 0.751471ZM36.0283 2.08044L35.9031 1.75342C36.5571 1.50293 37.1972 1.24548 37.8095 0.981074L37.9487 1.30116L38.0878 1.62122C37.4616 1.88562 36.8215 2.15002 36.1535 2.4005L36.0283 2.08044ZM32.7859 3.2285L32.6746 2.89451C33.3425 2.67882 33.9896 2.45617 34.6228 2.22655L34.7411 2.55358L34.8594 2.8806C34.2192 3.11022 33.5652 3.33287 32.8902 3.55553L32.7859 3.2285ZM29.5017 4.22348L29.4043 3.88952C30.0792 3.70165 30.7333 3.50682 31.3804 3.31199L31.4847 3.64598L31.5891 3.97995C30.9351 4.18173 30.2741 4.37657 29.5922 4.56444L29.5017 4.22348ZM26.1758 5.09323L26.0923 4.75229C26.7673 4.5853 27.4352 4.41831 28.0893 4.24436L28.1797 4.57835L28.2702 4.91234C27.6092 5.08628 26.9412 5.26022 26.2593 5.42025L26.1758 5.09323ZM22.8221 5.85164L22.7525 5.51071C23.4344 5.36459 24.1093 5.21849 24.7703 5.06541L24.8469 5.40634L24.9234 5.74728C24.2554 5.90035 23.5805 6.04648 22.8917 6.1926L22.8221 5.85164ZM19.4544 6.50569L19.3918 6.16476C20.0737 6.03952 20.7486 5.91428 21.4166 5.78208L21.4862 6.12301L21.5557 6.46395C20.8878 6.59615 20.2059 6.72835 19.5171 6.85359L19.4544 6.50569ZM16.0659 7.07625L16.0102 6.73532C16.6991 6.63095 17.374 6.51961 18.0489 6.40133L18.1046 6.74226L18.1603 7.08321C17.4853 7.2015 16.8035 7.31281 16.1077 7.41718L16.0659 7.07625ZM12.6704 7.57026L12.6217 7.22236C13.3106 7.13191 13.9924 7.03449 14.6674 6.93708L14.7161 7.27804L14.7648 7.61897C14.0829 7.71638 13.401 7.81379 12.7122 7.90425L12.6704 7.57026ZM9.26104 7.98077L9.22623 7.63288C9.91507 7.55634 10.597 7.4798 11.2788 7.39631L11.3206 7.74421L11.3623 8.0921C10.6805 8.1756 9.99162 8.2591 9.30278 8.33564L9.26104 7.98077ZM5.83771 8.32173L5.8099 7.97383C6.49873 7.91121 7.18757 7.84859 7.86945 7.77901L7.90423 8.12691L7.93903 8.47481C7.25715 8.54438 6.56831 8.61396 5.87252 8.66963L5.83771 8.32173ZM2.41441 8.59308L2.39354 8.24518C3.08238 8.19647 3.77121 8.14777 4.45309 8.0921L4.48092 8.44L4.50874 8.7879C3.8199 8.84356 3.13107 8.89923 2.44223 8.94098L2.41441 8.59308ZM0.020873 8.74615L0 8.39826C0.347898 8.37738 0.688824 8.35651 1.02976 8.33564L1.05064 8.68354L1.07153 9.03143C0.723633 9.05231 0.382679 9.07318 0.0347813 9.09405L0.020873 8.74615Z" fill="#EAF3D9"/>
</svg>
